<?xml version="1.0" encoding="UTF-8" standalone="no"?>
<!-- Created with Inkscape (http://www.inkscape.org/) -->

<svg
   width="210mm"
   height="297mm"
   viewBox="0 0 210 297"
   version="1.1"
   id="svg5"
   xml:space="preserve"
   inkscape:version="1.2.1 (9c6d41e410, 2022-07-14)"
   sodipodi:docname="(simpsons) lisa.svg"
   xmlns:inkscape="http://www.inkscape.org/namespaces/inkscape"
   xmlns:sodipodi="http://sodipodi.sourceforge.net/DTD/sodipodi-0.dtd"
   xmlns="http://www.w3.org/2000/svg"
   xmlns:svg="http://www.w3.org/2000/svg"><sodipodi:namedview
     id="namedview7"
     pagecolor="#ffffff"
     bordercolor="#666666"
     borderopacity="1.0"
     inkscape:showpageshadow="2"
     inkscape:pageopacity="0.0"
     inkscape:pagecheckerboard="0"
     inkscape:deskcolor="#d1d1d1"
     inkscape:document-units="mm"
     showgrid="false"
     inkscape:zoom="0.63118805"
     inkscape:cx="124.36864"
     inkscape:cy="480.04711"
     inkscape:window-width="2560"
     inkscape:window-height="1377"
     inkscape:window-x="1272"
     inkscape:window-y="-8"
     inkscape:window-maximized="1"
     inkscape:current-layer="layer1" /><defs
     id="defs2"><linearGradient
       id="linearGradient2308"
       inkscape:swatch="solid"><stop
         style="stop-color:#f9d31a;stop-opacity:1;"
         offset="0"
         id="stop2306" /></linearGradient><filter
       inkscape:collect="always"
       style="color-interpolation-filters:sRGB"
       id="filter6984"
       x="-0.0052662647"
       y="-0.0052351221"
       width="1.0105325"
       height="1.0104702"><feGaussianBlur
         inkscape:collect="always"
         stdDeviation="0.061148123"
         id="feGaussianBlur6986" /></filter><filter
       inkscape:collect="always"
       style="color-interpolation-filters:sRGB"
       id="filter6996"
       x="-0.10009364"
       y="-0.026978965"
       width="1.2001873"
       height="1.0539579"><feGaussianBlur
         inkscape:collect="always"
         stdDeviation="0.057606031"
         id="feGaussianBlur6998" /></filter><filter
       inkscape:collect="always"
       style="color-interpolation-filters:sRGB"
       id="filter7008"
       x="-0.090160705"
       y="-0.032440601"
       width="1.1803214"
       height="1.0648812"><feGaussianBlur
         inkscape:collect="always"
         stdDeviation="0.076179943"
         id="feGaussianBlur7006" /></filter><filter
       inkscape:collect="always"
       style="color-interpolation-filters:sRGB"
       id="filter7012"
       x="-0.1983376"
       y="-0.027435346"
       width="1.3966752"
       height="1.0548707"><feGaussianBlur
         inkscape:collect="always"
         stdDeviation="0.056950472"
         id="feGaussianBlur7010" /></filter><filter
       inkscape:collect="always"
       style="color-interpolation-filters:sRGB"
       id="filter7016"
       x="-0.17420382"
       y="-0.02056728"
       width="1.3484076"
       height="1.0411346"><feGaussianBlur
         inkscape:collect="always"
         stdDeviation="0.049907726"
         id="feGaussianBlur7014" /></filter><filter
       inkscape:collect="always"
       style="color-interpolation-filters:sRGB"
       id="filter7104"
       x="-0.24577263"
       y="-0.11356259"
       width="1.4915453"
       height="1.2271252"><feGaussianBlur
         inkscape:collect="always"
         stdDeviation="0.079769014"
         id="feGaussianBlur7106" /></filter><filter
       inkscape:collect="always"
       style="color-interpolation-filters:sRGB"
       id="filter8820"
       x="-0.025324445"
       y="-0.024436295"
       width="1.0506489"
       height="1.0488726"><feGaussianBlur
         inkscape:collect="always"
         stdDeviation="0.066311752"
         id="feGaussianBlur8822" /></filter><clipPath
       clipPathUnits="userSpaceOnUse"
       id="clipPath9221"><path
         id="path9223"
         style="display:inline;opacity:1;fill:#f9d31a;fill-opacity:1;stroke:none;stroke-width:0.264583px;stroke-linecap:butt;stroke-linejoin:miter;stroke-opacity:1"
         d="m 75.101561,23.023438 c -4.306628,4.065138 -7.723579,8.947952 -11.427732,13.525389 -1.069589,0.29327 -2.039567,-0.503782 -3.076972,-0.650996 -4.697606,-1.393267 -9.496952,-2.446428 -14.356623,-3.083378 -0.645313,5.607214 -1.217914,11.220619 -1.726562,16.841798 -5.454547,1.53883 -10.935351,2.998894 -16.273439,4.914061 2.319018,4.914022 4.640837,9.826723 6.960939,14.740234 -3.532217,3.768741 -7.162276,7.491079 -10.072266,11.779298 4.302722,3.485692 8.912767,6.559907 13.470704,9.695312 -0.636111,5.162751 -1.127345,10.396114 -0.527344,15.587894 5.381115,0.22683 10.787841,-0.27187 16.041016,-1.44922 0.157205,3.45086 0.314576,6.90131 0.548828,10.34765 3.105745,-0.0639 6.194655,-0.41454 9.285155,-0.70312 0.263871,2.06353 0.09277,4.39925 1.440106,6.1278 1.919279,1.997 4.793072,2.59594 7.436519,2.94206 3.213936,0.40623 6.460649,-0.11679 9.537809,-1.05579 2.571771,-0.7302 5.088228,-1.64632 7.552364,-2.68204 -0.647411,-3.39837 -1.396812,-6.84365 -1.193361,-10.32031 0.388816,-1.55853 2.115654,-2.00899 3.382815,-2.63281 0.992865,-0.45008 1.676106,-1.37531 1.899184,-2.43172 1.323544,-3.71994 1.066308,-7.725799 1.708238,-11.570238 0.864396,-3.280275 1.926521,-6.509601 2.864514,-9.771139 1.050369,-3.525507 2.100737,-7.051011 3.151107,-10.576517 2.73472,-0.829014 4.65289,-3.081483 6.77579,-4.856041 4.26444,-3.97682 7.91275,-8.780841 9.79648,-14.35099 -3.77074,-2.599991 -8.13777,-4.116668 -12.47461,-5.47461 0.24858,-5.561859 -0.43193,-11.237632 -2.59717,-16.396996 -0.17027,-0.877216 -1.22882,-0.959956 -1.89557,-0.614606 -4.733288,1.276868 -9.291291,3.119612 -13.772886,5.089729 -0.735936,-0.318932 -0.91966,-1.235935 -1.472165,-1.773754 -3.022698,-4.280384 -6.423912,-8.375685 -10.652834,-11.519216 -0.110678,0.107422 -0.221356,0.214844 -0.332034,0.322266 z" /></clipPath><filter
       inkscape:collect="always"
       style="color-interpolation-filters:sRGB"
       id="filter10263"
       x="-0.088583881"
       y="-0.078554781"
       width="1.1771678"
       height="1.1571096"><feGaussianBlur
         inkscape:collect="always"
         stdDeviation="0.095865734"
         id="feGaussianBlur10265" /></filter><filter
       inkscape:collect="always"
       style="color-interpolation-filters:sRGB"
       id="filter10743"
       x="-0.014902845"
       y="-0.021075792"
       width="1.0298057"
       height="1.0421516"><feGaussianBlur
         inkscape:collect="always"
         stdDeviation="0.076037736"
         id="feGaussianBlur10745" /></filter><filter
       inkscape:collect="always"
       style="color-interpolation-filters:sRGB"
       id="filter2704"
       x="-0.017311575"
       y="-0.023675993"
       width="1.0346231"
       height="1.047352"><feGaussianBlur
         inkscape:collect="always"
         stdDeviation="0.038952337"
         id="feGaussianBlur2706" /></filter><filter
       inkscape:collect="always"
       style="color-interpolation-filters:sRGB"
       id="filter2708"
       x="-0.0078413553"
       y="-0.0067911519"
       width="1.0156827"
       height="1.0135823"><feGaussianBlur
         inkscape:collect="always"
         stdDeviation="0.036410712"
         id="feGaussianBlur2710" /></filter><filter
       inkscape:collect="always"
       style="color-interpolation-filters:sRGB"
       id="filter3214"
       x="-0.018613097"
       y="-0.01658505"
       width="1.0372262"
       height="1.0331701"><feGaussianBlur
         inkscape:collect="always"
         stdDeviation="0.75326319"
         id="feGaussianBlur3216" /></filter></defs><g
     inkscape:label="Layer 1"
     inkscape:groupmode="layer"
     id="layer1"
     style="display:inline"><g
       id="g3290"
       transform="matrix(0.81389386,0,0,0.81389386,-12.744364,-13.846662)"><path
         id="path2376"
         style="display:inline;fill:#6b6b6b;fill-opacity:1;stroke:none;stroke-width:0.264583px;stroke-linecap:butt;stroke-linejoin:miter;stroke-opacity:1;filter:url(#filter3214)"
         d="m 73.191479,22.006153 c -4.558611,3.563053 -12.301058,14.202234 -12.301058,14.202234 0,0 -9.906488,-3.251813 -18.08055,-3.82819 -0.785967,4.872998 -1.874304,17.296619 -1.874304,17.296619 0,0 -16.36233,4.435634 -16.886308,5.431193 l 7.157186,15.159798 c 0,0 -9.562949,9.829273 -10.03453,12.501562 1.70434,2.000747 13.634827,10.040731 13.634827,10.040731 0,0 -1.482142,10.33733 -0.148311,16.33957 8.706952,0.59281 15.857946,-1.03714 15.857946,-1.03714 0,0 0.370579,9.22566 0.629936,9.92962 0.55114,0.16702 2.490124,0.0819 4.450891,-0.0579 a 4.5572605,4.5202093 0 0 0 -0.412378,1.87327 4.5572605,4.5202093 0 0 0 4.557345,4.52013 4.5572605,4.5202093 0 0 0 0.612882,-0.0434 4.5572605,4.5202093 0 0 0 4.277775,2.97036 4.5572605,4.5202093 0 0 0 1.721342,-0.33693 4.5572605,4.5202093 0 0 0 4.465878,3.6344 4.5572605,4.5202093 0 0 0 3.848344,-2.10375 4.5572605,4.5202093 0 0 0 4.080887,2.51148 4.5572605,4.5202093 0 0 0 4.119646,-2.59054 4.6322737,4.5946126 0 0 0 3.256648,1.33118 4.6322737,4.5946126 0 0 0 4.622457,-4.33927 4.034296,4.0014968 0 0 0 3.924309,-3.99769 4.034296,4.0014968 0 0 0 -1.080038,-2.72489 3.6233957,3.5939369 0 0 0 0.555005,-1.90635 3.6233957,3.5939369 0 0 0 -3.623551,-3.59409 3.6233957,3.5939369 0 0 0 -1.725993,0.43666 c -0.08984,-1.0048 -0.132253,-2.01247 -0.09354,-3.02307 0.986526,-0.57011 3.20627,-1.33051 3.876766,-2.40347 0.282594,-0.45222 0.531274,-0.99524 0.750342,-1.59887 0.207928,-0.26774 0.372382,-0.56833 0.496611,-0.88728 0.895817,-0.13519 1.689975,-0.27813 2.273763,-0.42478 1.148071,-0.28842 2.393016,-0.73657 3.527436,-1.20665 5.62629,-1.35734 11.63251,-5.564387 12.72272,-7.335986 1.18563,-1.926644 0.11347,-4.193772 -0.18293,-4.860685 -0.29641,-0.666917 -3.85299,-3.408578 -3.85299,-3.408578 0,0 -1.99963,-1.937213 -4.00338,-6.064229 a 12.3659,12.261105 0 0 0 3.10317,-8.111133 12.3659,12.261105 0 0 0 -0.0889,-1.459859 c 2.73638,-0.523089 4.50877,-1.537891 4.50877,-1.537891 0,0 -2.72846,0.587646 -4.62246,0.790133 a 12.3659,12.261105 0 0 0 -0.3297,-1.346688 c 3.49956,-3.206934 7.61222,-7.860959 9.82679,-12.969234 0.61407,-1.21111 1.15071,-2.462741 1.58854,-3.757394 -0.76823,-0.529708 -1.5621,-1.012264 -2.37453,-1.459859 -3.67324,-2.301643 -8.57899,-3.925807 -10.08724,-4.39508 0.20128,-5.439951 -0.49425,-10.974723 -2.61018,-16.016594 -0.10431,-0.537376 -0.54234,-0.774118 -1.01906,-0.799434 -0.22143,-0.45301 -0.45649,-0.90035 -0.70952,-1.338937 -6.412196,1.22787 -13.962326,4.583404 -15.17012,5.12992 -0.07423,-0.103171 -0.152108,-0.202553 -0.241846,-0.289905 -3.022695,-4.280381 -6.42366,-8.375666 -10.652579,-11.519193 l -0.128158,0.124023 c -0.701218,-0.544408 -1.408873,-1.036601 -2.114083,-1.447974 z"
         inkscape:label="path2376" /><g
         id="g3063"
         style="display:inline"
         inkscape:label="Lisa"><path
           style="display:inline;opacity:1;fill:#090000;fill-opacity:1;stroke:none;stroke-width:0.264583px;stroke-linecap:butt;stroke-linejoin:miter;stroke-opacity:1"
           d="m 62.504864,116.30277 c 0,0 -8.040045,0.85217 -9.262724,0.48166 -0.259357,-0.70396 -0.629864,-9.92964 -0.629864,-9.92964 0,0 -7.150825,1.63023 -15.857786,1.03742 -1.333832,-6.00225 0.148203,-16.339442 0.148203,-16.339442 0,0 -11.930388,-8.040044 -13.634729,-10.040793 C 23.739545,78.839683 33.3024,69.010476 33.3024,69.010476 L 26.145221,53.850301 c 0.523978,-0.99556 16.886217,-5.431134 16.886217,-5.431134 0,0 1.088283,-12.423409 1.874251,-17.296412 8.17407,0.576377 18.080836,3.827865 18.080836,3.827865 0,0 7.742284,-10.639061 12.3009,-14.202117 6.224551,3.630988 12.671407,13.338323 12.671407,13.338323 0,0 8.669909,-4.001496 15.635478,-5.335328 4.44611,7.706587 3.85329,18.006734 3.85329,18.006734 0,0 8.44761,2.445359 12.59731,6.002245 -2.37126,10.892964 -15.56137,20.970808 -17.04341,21.119012 l -5.965199,20.044537 c 0,0 -0.100741,9.402014 -2.359635,13.016814 -0.82164,1.31483 -4.002547,2.16546 -4.342083,2.76424 -0.649923,1.14616 1.32934,11.192 1.32934,11.192 0,0 -10.704754,4.87339 -17.117517,4.48316 -3.711702,-0.22587 -7.977135,-0.99417 -10.522455,-3.70509 -1.273839,-1.35672 -1.519087,-5.37238 -1.519087,-5.37238 z"
           id="path2923"
           sodipodi:nodetypes="ccccccccccccccccccsscssc" /><path
           id="path2925"
           style="display:inline;opacity:1;fill:#d3b72a;fill-opacity:1;stroke:none;stroke-width:0.264583px;stroke-linecap:butt;stroke-linejoin:miter;stroke-opacity:1"
           d="m 75.101562,23.023438 c -4.306629,4.065137 -7.723579,8.947953 -11.427734,13.52539 -1.069588,0.293269 -2.039566,-0.503782 -3.07697,-0.650998 -4.697608,-1.393267 -9.496954,-2.446426 -14.356624,-3.083377 -0.645314,5.607215 -1.217915,11.22062 -1.726562,16.841797 -5.454546,1.538832 -10.935351,2.998894 -16.273438,4.914062 2.319017,4.914023 4.640835,9.826724 6.960938,14.740235 -3.532217,3.768739 -7.162277,7.491078 -10.072266,11.779297 4.302722,3.485691 8.912767,6.559906 13.470703,9.695312 -0.636111,5.162751 -1.127343,10.396114 -0.527343,15.587894 5.381116,0.22683 10.787842,-0.27187 16.041015,-1.44922 0.157206,3.45086 0.314578,6.90131 0.548828,10.34765 3.105747,-0.0639 6.194657,-0.41454 9.285157,-0.70312 0.26387,2.06353 0.09277,4.39925 1.440104,6.1278 1.91928,1.997 4.793074,2.59594 7.436521,2.94206 3.213934,0.40623 6.460647,-0.11679 9.537807,-1.05579 2.571772,-0.7302 5.08823,-1.64632 7.552364,-2.68204 -0.64741,-3.39837 -1.396812,-6.84365 -1.193359,-10.32031 0.388816,-1.55853 2.115653,-2.00899 3.382813,-2.63281 0.992865,-0.45008 1.676106,-1.37531 1.899184,-2.43172 1.323545,-3.71994 1.066309,-7.725799 1.708238,-11.570238 0.864398,-3.280274 1.926522,-6.509601 2.864515,-9.771139 1.05037,-3.525506 2.100737,-7.051011 3.151107,-10.576517 2.73472,-0.829013 4.65289,-3.081483 6.77579,-4.856041 4.26444,-3.976819 7.91275,-8.780841 9.79648,-14.35099 -3.77074,-2.599991 -8.13777,-4.116668 -12.47461,-5.474609 0.24858,-5.561861 -0.43193,-11.237632 -2.59717,-16.396998 -0.17027,-0.877215 -1.22882,-0.959956 -1.89557,-0.614605 -4.733289,1.276869 -9.291292,3.119611 -13.772886,5.089728 -0.735936,-0.318932 -0.91966,-1.235935 -1.472166,-1.773753 -3.022698,-4.280385 -6.42391,-8.375685 -10.652834,-11.519216 -0.110677,0.107422 -0.221354,0.214844 -0.332032,0.322266 z" /><path
           id="path2927"
           style="display:inline;opacity:1;fill:#f9d31a;fill-opacity:1;stroke:none;stroke-width:0.264583px;stroke-linecap:butt;stroke-linejoin:miter;stroke-opacity:1"
           d="m 77.197477,22.394664 c -4.306629,4.065137 -7.723579,8.947953 -11.427734,13.52539 -1.069588,0.293269 -2.039566,-0.503782 -3.07697,-0.650998 -4.697608,-1.393267 -9.496954,-2.446426 -14.356624,-3.083377 -0.645314,5.607215 -1.217915,11.22062 -1.726562,16.841797 -5.454546,1.538832 -10.935351,2.998894 -16.273438,4.914062 2.319017,4.914023 4.640835,9.826724 6.960938,14.740235 -3.532217,3.768739 -7.162277,7.491078 -10.072266,11.779297 4.302722,3.485691 8.912767,6.559906 13.470703,9.695312 -0.636111,5.162751 -1.127343,10.396118 -0.527343,15.587898 5.381116,0.22683 10.263863,-1.52942 15.517036,-2.70677 1.938734,2.19331 5.271578,3.24836 7.077764,1.45491 1.030896,3.64119 0.1897,9.88395 1.501757,11.37382 0.26387,2.06353 1.871213,2.4726 3.218547,4.20115 1.91928,1.997 4.793074,2.59594 7.436521,2.94206 3.213934,0.40623 6.460647,-0.11679 9.537807,-1.05579 2.571772,-0.7302 5.08823,-1.64632 7.552364,-2.68204 -0.64741,-3.39837 -1.396812,-6.84365 -1.193359,-10.32031 0.388816,-1.55853 2.115653,-2.00899 3.382813,-2.63281 0.992865,-0.45008 1.676106,-1.37531 1.899184,-2.43172 1.323545,-3.71994 1.066309,-7.725803 1.708238,-11.570242 0.864398,-3.280274 1.926522,-6.509601 2.864517,-9.771139 l 3.15111,-10.576517 c 2.73472,-0.829013 4.65289,-3.081483 6.77579,-4.856041 4.26444,-3.976819 7.91275,-8.780841 9.79648,-14.35099 -3.77074,-2.599991 -8.13777,-4.116668 -12.47461,-5.474609 0.24858,-5.561861 -0.43193,-11.237632 -2.59717,-16.396998 -0.17027,-0.877215 -1.22882,-0.959956 -1.89557,-0.614605 -4.733294,1.276869 -9.291297,3.119611 -13.772891,5.089728 -0.735936,-0.318932 -0.91966,-1.235935 -1.472166,-1.773753 -3.022698,-4.280385 -6.42391,-8.375685 -10.652834,-11.519216 z"
           sodipodi:nodetypes="cccccccccccccccccccccccccccccccc"
           clip-path="url(#clipPath9221)" /><g
           id="g2935"><path
             style="opacity:1;fill:#000000;fill-opacity:1;stroke:none;stroke-width:0.264583px;stroke-linecap:butt;stroke-linejoin:miter;stroke-opacity:1"
             d="m 106.18787,80.696855 c 2.07485,4.446106 4.2238,6.520957 4.2238,6.520957 0,0 3.55689,2.741766 3.8533,3.408683 0.2964,0.666914 1.36825,2.934148 0.18262,4.860794 -1.18563,1.926648 -8.18562,6.736141 -14.18786,7.625361 -6.002249,0.88922 -10.709019,1.11121 -16.228295,1.29678 -4.076146,0.13705 -7.815345,-0.54188 -11.671034,-1.63024"
             id="path2929"
             sodipodi:nodetypes="ccssssc" /><path
             id="path2931"
             style="opacity:1;fill:#f9d31a;fill-opacity:1;stroke:none;stroke-width:0.26404px;stroke-linecap:butt;stroke-linejoin:miter;stroke-opacity:1"
             d="m 72.64804,101.32851 c 1.514452,0.95415 6.064385,1.76532 7.996672,1.84652 6.275949,0.26372 12.310936,-0.32194 18.531195,-1.21703 4.269013,-0.6143 8.417933,-2.342093 11.856283,-4.919864 1.18311,-0.886994 2.71452,-1.943699 2.61284,-3.627932 -0.0739,-1.224396 -0.57571,-2.418882 -1.56657,-3.203997 -1.56496,-1.24 -3.22161,-2.446536 -4.28415,-4.193765 -0.85078,-1.195654 -2.49561,-3.797719 -3.15186,-5.11226 -10.220712,6.746922 -21.773706,13.681413 -31.99441,20.428328 z"
             sodipodi:nodetypes="csssssccc" /><path
             style="fill:#000000;fill-opacity:1;stroke:none;stroke-width:0.264583px;stroke-linecap:butt;stroke-linejoin:miter;stroke-opacity:1"
             d="m 70.527547,104.37658 c 0.40756,-0.18525 4.264842,-3.25394 4.820605,-3.9579 -0.778069,0.0371 -2.929354,0.4674 -3.772646,1.23321 -0.843292,0.76581 -1.307315,2.31713 -1.047959,2.72469 z"
             id="path2933"
             sodipodi:nodetypes="ccsc" /></g><path
           style="display:inline;opacity:0.538934;fill:#000000;fill-opacity:1;stroke:none;stroke-width:0.264583px;stroke-linecap:butt;stroke-linejoin:miter;stroke-opacity:1"
           d="m 79.140716,103.66841 c 4.079287,0.41531 8.220494,0.47829 12.300897,0.0741 4.743551,-0.46988 13.285927,-2.78145 14.005237,-2.88997 0.75439,-0.11381 -3.71544,2.28962 -7.249259,3.17738 -2.81301,0.70668 -10.368987,1.33383 -11.869001,1.36453 -1.187694,0.0243 -6.389077,0.0604 -8.892214,-0.46631 -1.846237,-0.3885 -4.728828,-0.81337 -6.338339,-1.82558 l 1.373517,-1.21259 c 1.972136,1.16446 4.442917,1.52961 6.669162,1.77844 z"
           id="path2937"
           sodipodi:nodetypes="cassssccc" /><g
           id="g2953"><ellipse
             style="display:inline;opacity:1;fill:#000000;fill-opacity:1;fill-rule:evenodd;stroke-width:0.318869"
             id="ellipse2939"
             cx="97.145676"
             cy="73.042648"
             rx="12.3659"
             ry="12.261105" /><ellipse
             style="display:inline;opacity:1;fill:#ffffff;fill-opacity:1;fill-rule:evenodd;stroke-width:0.280653"
             id="ellipse2941"
             cx="97.145676"
             cy="73.042648"
             rx="10.883864"
             ry="10.791628" /><ellipse
             style="display:inline;opacity:1;fill:#000000;fill-opacity:1;fill-rule:evenodd;stroke-width:0.0561339"
             id="ellipse2943"
             cx="99.850388"
             cy="73.170441"
             rx="2.1769035"
             ry="2.1584549" /><path
             style="fill:#000000;fill-opacity:1;stroke:none;stroke-width:0.264583px;stroke-linecap:butt;stroke-linejoin:miter;stroke-opacity:1;filter:url(#filter7104)"
             d="m 108.52208,71.730538 c 3.24195,-0.444611 5.40943,-1.685816 5.40943,-1.685816 0,0 -3.61246,0.778069 -5.40943,0.852171 z"
             id="path2945"
             sodipodi:nodetypes="cccc" /><path
             style="fill:#000000;fill-opacity:1;stroke:none;stroke-width:0.264583px;stroke-linecap:butt;stroke-linejoin:miter;stroke-opacity:1;filter:url(#filter7104)"
             d="m 104.81699,65.0058 c 3.02134,-0.482506 4.86819,-2.075913 4.86819,-2.075913 0,0 -2.63291,1.577916 -4.86819,1.242268 z"
             id="path2947"
             sodipodi:nodetypes="cccc"
             transform="rotate(-34.190711,106.03207,63.968485)" /><path
             style="fill:#000000;fill-opacity:1;stroke:none;stroke-width:0.264583px;stroke-linecap:butt;stroke-linejoin:miter;stroke-opacity:1;filter:url(#filter7104)"
             d="m 105.11106,64.869637 c 2.04845,-1.456994 2.40549,-4.846386 2.40549,-4.846386 0,0 -1.4146,3.27904 -2.93233,4.326708 z"
             id="path2949"
             sodipodi:nodetypes="cccc"
             transform="rotate(-34.190711,96.868476,72.32582)" /><path
             style="fill:#000000;fill-opacity:1;stroke:none;stroke-width:0.264583px;stroke-linecap:butt;stroke-linejoin:miter;stroke-opacity:1;filter:url(#filter7104)"
             d="m 105.70761,64.222294 c 0.071,-1.546208 -0.20956,-4.293754 -0.20956,-4.293754 0,0 -0.0501,2.951839 -0.55788,4.260106 z"
             id="path2951"
             sodipodi:nodetypes="cccc"
             transform="rotate(-34.190711,95.994611,86.529312)" /></g><g
           id="g2961"><path
             style="fill:#f9d31a;fill-opacity:1;stroke:none;stroke-width:0.264583px;stroke-linecap:butt;stroke-linejoin:miter;stroke-opacity:1"
             d="m 86.82329,81.321512 c 0,0 2.5151,0.733571 2.98668,0.681173 0.47158,-0.0524 3.667852,-0.838365 4.453821,-0.995559 0.785968,-0.157194 4.087034,-0.838366 4.820605,-0.628774 0.73357,0.20959 3.772644,2.462699 3.772644,3.353464 0,0.890765 -0.78597,4.453818 -0.94316,4.925401 -0.15719,0.47158 -3.353465,2.829486 -4.349023,3.039076 -0.995561,0.209592 -4.768207,0.576379 -5.920962,0.576379 -1.152753,0 -3.66785,-0.314389 -4.453819,-0.314389 -0.785968,0 -2.410304,-0.0524 -2.829486,-0.366784 -0.419182,-0.314388 2.4627,-10.269987 2.4627,-10.269987 z"
             id="path2955" /><path
             style="fill:#f2e295;fill-opacity:1;stroke:none;stroke-width:0.264583px;stroke-linecap:butt;stroke-linejoin:miter;stroke-opacity:1;filter:url(#filter10743)"
             d="m 90.607971,82.252993 c 0.09263,0 4.938972,-0.890873 6.59506,-0.703966 1.078888,0.121764 2.236668,0.118519 3.019649,0.870697 0.76625,0.736111 1.3883,1.577426 1.57466,2.575036 0.23382,1.251627 -0.66691,3.834767 -0.66691,3.834767 0,0 1.71871,-2.103703 1.72286,-3.316055 0.006,-1.695729 -0.84436,-3.588499 -2.22305,-4.575786 -1.295278,-0.927553 -3.119907,-0.859221 -4.742516,-0.592814 -1.765095,0.289801 -5.279753,1.908121 -5.279753,1.908121 z"
             id="path2957"
             sodipodi:nodetypes="cssscsssc" /><path
             style="fill:#000000;fill-opacity:1;stroke:none;stroke-width:0.264583px;stroke-linecap:butt;stroke-linejoin:miter;stroke-opacity:1"
             d="m 87.203336,81.050534 c 0,0 2.730757,0.05901 3.130612,0.03201 0.615291,-0.04155 3.835899,-0.766126 4.134937,-0.904795 0.27718,-0.128532 3.611308,-0.724626 4.56947,-0.577693 1.083695,0.166182 3.809695,1.370018 4.250585,3.984647 0.35379,2.098148 0.39751,4.084012 -0.84209,5.49542 -1.83502,2.089333 -4.253219,3.244943 -6.558726,3.559332 -2.305506,0.314388 -5.621375,-0.142397 -6.316577,-0.250366 -0.597685,-0.09282 -2.853198,-0.484704 -3.274097,-0.932311 -0.240227,-0.255472 0.499641,-0.153469 0.78783,-0.12727 0.288189,0.02619 3.49542,0.308751 4.704957,0.303541 0.988117,-0.0043 4.422147,-0.345458 5.617426,-0.801316 1.757957,-0.670453 3.099667,-1.743776 3.379667,-2.069717 0.81775,-0.951927 1.48397,-2.647501 1.28374,-4.113233 -0.24158,-1.768421 -1.61161,-3.235955 -2.908077,-3.694052 -1.036906,-0.366385 -3.390203,0.08974 -4.165632,0.392983 -0.870922,0.340588 -3.057603,1.080515 -4.000766,1.106714 -0.94316,0.02619 -3.361138,-0.163553 -3.78032,-0.268347 -0.419184,-0.104796 -0.01294,-1.135544 -0.01294,-1.135544 z"
             id="path2959"
             sodipodi:nodetypes="cssssssssssssssssscc" /></g><g
           id="g2979"><ellipse
             style="opacity:0.468872;fill:#838383;fill-opacity:1;fill-rule:evenodd;stroke:none;stroke-width:0.417582;filter:url(#filter6984)"
             id="ellipse2963"
             cx="73.56234"
             cy="78.308617"
             rx="13.933547"
             ry="14.016435" /><ellipse
             style="opacity:1;fill:#000000;fill-opacity:1;fill-rule:evenodd;stroke:none;stroke-width:0.417582"
             id="ellipse2965"
             cx="74.400703"
             cy="77.470253"
             rx="13.933547"
             ry="14.016435" /><ellipse
             style="opacity:1;fill:#ffffff;fill-opacity:1;fill-rule:evenodd;stroke:none;stroke-width:0.375434"
             id="ellipse2967"
             cx="74.400703"
             cy="77.470253"
             rx="12.52717"
             ry="12.601692" /><ellipse
             style="opacity:1;fill:#000000;fill-opacity:1;fill-rule:evenodd;stroke:none;stroke-width:0.0772723"
             id="ellipse2969"
             cx="71.885605"
             cy="77.67984"
             rx="2.5783584"
             ry="2.5936966" /><path
             style="fill:#000000;fill-opacity:1;stroke:none;stroke-width:0.264583px;stroke-linecap:butt;stroke-linejoin:miter;stroke-opacity:1;filter:url(#filter7016)"
             d="m 78.844311,64.913173 c 0.333459,-1.444985 0.111153,-5.113025 0.259355,-5.557634 0.152314,-0.456944 0.518713,5.427956 0.407562,5.798465 0,0 -0.463137,-0.0741 -0.666917,-0.240831 z"
             id="path2971"
             sodipodi:nodetypes="cscc" /><path
             style="fill:#000000;fill-opacity:1;stroke:none;stroke-width:0.264583px;stroke-linecap:butt;stroke-linejoin:miter;stroke-opacity:1;filter:url(#filter7012)"
             d="m 67.895771,65.876496 c 0.333459,-1.444985 -0.12647,-4.267227 0.02173,-4.711836 0.152314,-0.456944 0.756336,4.582158 0.645185,4.952667 0,0 -0.463137,-0.0741 -0.666917,-0.240831 z"
             id="path2973"
             sodipodi:nodetypes="cscc"
             transform="matrix(-0.84923614,0.52801327,0.52801327,0.84923614,91.891469,-26.446717)" /><path
             style="fill:#000000;fill-opacity:1;stroke:none;stroke-width:0.264583px;stroke-linecap:butt;stroke-linejoin:miter;stroke-opacity:1;filter:url(#filter7008)"
             d="m 67.895771,65.876496 c 0.644762,-1.049553 1.867799,-4.743667 2.015999,-5.188276 0.152314,-0.456944 -1.212828,5.239317 -1.323979,5.609826 0,0 -0.488242,-0.254819 -0.692022,-0.42155 z"
             id="path2975"
             sodipodi:nodetypes="csccc"
             transform="matrix(-0.84923614,0.52801327,0.52801327,0.84923614,85.055578,-19.907233)" /><path
             style="fill:#000000;fill-opacity:1;stroke:none;stroke-width:0.264583px;stroke-linecap:butt;stroke-linejoin:miter;stroke-opacity:1;filter:url(#filter6996)"
             d="m 67.895771,65.876496 c 0.920347,-1.402366 1.098083,-4.21653 1.246283,-4.661139 0.152314,-0.456944 0.362814,2.933213 -0.554263,5.082689 0,0 -0.488242,-0.254819 -0.692022,-0.42155 z"
             id="path2977"
             sodipodi:nodetypes="csccc"
             transform="matrix(-0.29966732,0.95404376,0.95404376,0.29966732,18.673364,-4.6845733)" /></g><g
           id="g3037"><g
             id="g2987"
             transform="translate(-11.115269,-6.1874999)"
             style="opacity:1"><ellipse
               style="opacity:1;fill:#000000;fill-opacity:1;fill-rule:evenodd;stroke:none;stroke-width:0.305984"
               id="ellipse2981"
               cx="72.953217"
               cy="124.78742"
               rx="4.5572605"
               ry="4.5202093" /><ellipse
               style="opacity:1;fill:#8b8b8b;fill-opacity:1;fill-rule:evenodd;stroke:none;stroke-width:0.220465"
               id="ellipse2983"
               cx="72.953217"
               cy="124.78742"
               rx="3.2835598"
               ry="3.2568638" /><path
               id="path2985"
               style="opacity:1;fill:#ffffff;fill-opacity:1;fill-rule:evenodd;stroke:none;stroke-width:0.305984;filter:url(#filter8820)"
               d="m 72.95317,121.53057 a 3.2835598,3.2568638 0 0 0 -2.987415,1.90944 4.5572605,4.5202093 0 0 0 -0.01344,0.34727 4.5572605,4.5202093 0 0 0 3.031857,4.25607 3.2835598,3.2568638 0 0 0 3.252514,-3.25613 3.2835598,3.2568638 0 0 0 -3.28352,-3.25665 z" /></g><g
             id="g2995"
             transform="translate(-6.2245504,-3.2604789)"
             style="opacity:1"><ellipse
               style="opacity:1;fill:#000000;fill-opacity:1;fill-rule:evenodd;stroke:none;stroke-width:0.305984"
               id="ellipse2989"
               cx="72.953217"
               cy="124.78742"
               rx="4.5572605"
               ry="4.5202093" /><ellipse
               style="opacity:1;fill:#8b8b8b;fill-opacity:1;fill-rule:evenodd;stroke:none;stroke-width:0.220465"
               id="ellipse2991"
               cx="72.953217"
               cy="124.78742"
               rx="3.2835598"
               ry="3.2568638" /><path
               id="path2993"
               style="opacity:1;fill:#ffffff;fill-opacity:1;fill-rule:evenodd;stroke:none;stroke-width:0.305984;filter:url(#filter8820)"
               d="m 72.95317,121.53057 a 3.2835598,3.2568638 0 0 0 -2.987415,1.90944 4.5572605,4.5202093 0 0 0 -0.01344,0.34727 4.5572605,4.5202093 0 0 0 3.031857,4.25607 3.2835598,3.2568638 0 0 0 3.252514,-3.25613 3.2835598,3.2568638 0 0 0 -3.28352,-3.25665 z" /></g><g
             id="g3003"
             transform="translate(-0.03705039,0.03705105)"
             style="opacity:1"><ellipse
               style="opacity:1;fill:#000000;fill-opacity:1;fill-rule:evenodd;stroke:none;stroke-width:0.305984"
               id="ellipse2997"
               cx="72.953217"
               cy="124.78742"
               rx="4.5572605"
               ry="4.5202093" /><ellipse
               style="opacity:1;fill:#8b8b8b;fill-opacity:1;fill-rule:evenodd;stroke:none;stroke-width:0.220465"
               id="ellipse2999"
               cx="72.953217"
               cy="124.78742"
               rx="3.2835598"
               ry="3.2568638" /><path
               id="path3001"
               style="opacity:1;fill:#ffffff;fill-opacity:1;fill-rule:evenodd;stroke:none;stroke-width:0.305984;filter:url(#filter8820)"
               d="m 72.95317,121.53057 a 3.2835598,3.2568638 0 0 0 -2.987415,1.90944 4.5572605,4.5202093 0 0 0 -0.01344,0.34727 4.5572605,4.5202093 0 0 0 3.031857,4.25607 3.2835598,3.2568638 0 0 0 3.252514,-3.25613 3.2835598,3.2568638 0 0 0 -3.28352,-3.25665 z" /></g><g
             id="g3011"
             transform="matrix(0.79508196,0,0,0.79508196,34.615865,16.30847)"
             style="opacity:1"><ellipse
               style="opacity:1;fill:#000000;fill-opacity:1;fill-rule:evenodd;stroke:none;stroke-width:0.305984"
               id="ellipse3005"
               cx="72.953217"
               cy="124.78742"
               rx="4.5572605"
               ry="4.5202093" /><ellipse
               style="opacity:1;fill:#8b8b8b;fill-opacity:1;fill-rule:evenodd;stroke:none;stroke-width:0.220465"
               id="ellipse3007"
               cx="72.953217"
               cy="124.78742"
               rx="3.2835598"
               ry="3.2568638" /><path
               id="path3009"
               style="opacity:1;fill:#ffffff;fill-opacity:1;fill-rule:evenodd;stroke:none;stroke-width:0.305984;filter:url(#filter8820)"
               d="m 72.95317,121.53057 a 3.2835598,3.2568638 0 0 0 -2.987415,1.90944 4.5572605,4.5202093 0 0 0 -0.01344,0.34727 4.5572605,4.5202093 0 0 0 3.031857,4.25607 3.2835598,3.2568638 0 0 0 3.252514,-3.25613 3.2835598,3.2568638 0 0 0 -3.28352,-3.25665 z" /></g><g
             id="g3019"
             transform="matrix(0.8852459,0,0,0.8852459,28.152608,9.6885063)"
             style="opacity:1"><ellipse
               style="opacity:1;fill:#000000;fill-opacity:1;fill-rule:evenodd;stroke:none;stroke-width:0.305984"
               id="ellipse3013"
               cx="72.953217"
               cy="124.78742"
               rx="4.5572605"
               ry="4.5202093" /><ellipse
               style="opacity:1;fill:#8b8b8b;fill-opacity:1;fill-rule:evenodd;stroke:none;stroke-width:0.220465"
               id="ellipse3015"
               cx="72.953217"
               cy="124.78742"
               rx="3.2835598"
               ry="3.2568638" /><path
               id="path3017"
               style="opacity:1;fill:#ffffff;fill-opacity:1;fill-rule:evenodd;stroke:none;stroke-width:0.305984;filter:url(#filter8820)"
               d="m 72.95317,121.53057 a 3.2835598,3.2568638 0 0 0 -2.987415,1.90944 4.5572605,4.5202093 0 0 0 -0.01344,0.34727 4.5572605,4.5202093 0 0 0 3.031857,4.25607 3.2835598,3.2568638 0 0 0 3.252514,-3.25613 3.2835598,3.2568638 0 0 0 -3.28352,-3.25665 z" /></g><g
             id="g3027"
             transform="matrix(1.0164601,0,0,1.0164601,14.067494,-2.9429322)"
             style="opacity:1"><ellipse
               style="opacity:1;fill:#000000;fill-opacity:1;fill-rule:evenodd;stroke:none;stroke-width:0.305984"
               id="ellipse3021"
               cx="72.953217"
               cy="124.78742"
               rx="4.5572605"
               ry="4.5202093" /><ellipse
               style="opacity:1;fill:#8b8b8b;fill-opacity:1;fill-rule:evenodd;stroke:none;stroke-width:0.220465"
               id="ellipse3023"
               cx="72.953217"
               cy="124.78742"
               rx="3.2835598"
               ry="3.2568638" /><path
               id="path3025"
               style="opacity:1;fill:#ffffff;fill-opacity:1;fill-rule:evenodd;stroke:none;stroke-width:0.305984;filter:url(#filter8820)"
               d="m 72.95317,121.53057 a 3.2835598,3.2568638 0 0 0 -2.987415,1.90944 4.5572605,4.5202093 0 0 0 -0.01344,0.34727 4.5572605,4.5202093 0 0 0 3.031857,4.25607 3.2835598,3.2568638 0 0 0 3.252514,-3.25613 3.2835598,3.2568638 0 0 0 -3.28352,-3.25665 z" /></g><g
             id="g3035"
             transform="translate(7.8918417,0.44461082)"><ellipse
               style="opacity:1;fill:#000000;fill-opacity:1;fill-rule:evenodd;stroke:none;stroke-width:0.305984"
               id="ellipse3029"
               cx="72.953217"
               cy="124.78742"
               rx="4.5572605"
               ry="4.5202093" /><ellipse
               style="opacity:1;fill:#8b8b8b;fill-opacity:1;fill-rule:evenodd;stroke:none;stroke-width:0.220465"
               id="ellipse3031"
               cx="72.953217"
               cy="124.78742"
               rx="3.2835598"
               ry="3.2568638" /><path
               id="path3033"
               style="opacity:1;fill:#ffffff;fill-opacity:1;fill-rule:evenodd;stroke:none;stroke-width:0.305984;filter:url(#filter8820)"
               d="m 72.95317,121.53057 a 3.2835598,3.2568638 0 0 0 -2.987415,1.90944 4.5572605,4.5202093 0 0 0 -0.01344,0.34727 4.5572605,4.5202093 0 0 0 3.031857,4.25607 3.2835598,3.2568638 0 0 0 3.252514,-3.25613 3.2835598,3.2568638 0 0 0 -3.28352,-3.25665 z" /></g></g><g
           id="g3055"><path
             style="mix-blend-mode:normal;fill:#000000;fill-opacity:1;stroke:none;stroke-width:0.264583px;stroke-linecap:butt;stroke-linejoin:miter;stroke-opacity:1;filter:url(#filter10263)"
             d="m 78.16391,24.201364 c 0,0 -2.185747,1.464391 -2.361497,2.928883 1.055601,-1.548387 2.597287,-2.812145 2.597287,-2.812145 z"
             id="path3039"
             sodipodi:nodetypes="cccc" /><path
             style="mix-blend-mode:normal;fill:#000000;fill-opacity:1;stroke:none;stroke-width:0.264583px;stroke-linecap:butt;stroke-linejoin:miter;stroke-opacity:1;filter:url(#filter10263)"
             d="m 80.15503,24.856338 c 0,0 -2.185747,1.464391 -2.361497,2.928883 1.055601,-1.548387 2.597287,-2.812145 2.597287,-2.812145 z"
             id="path3041"
             sodipodi:nodetypes="cccc"
             transform="matrix(0.66581262,0,0,0.66581262,26.077922,9.2051657)" /><path
             style="mix-blend-mode:normal;fill:#000000;fill-opacity:1;stroke:none;stroke-width:0.264583px;stroke-linecap:butt;stroke-linejoin:miter;stroke-opacity:1;filter:url(#filter10263)"
             d="m 80.324363,24.826538 c 0,0 -2.174495,1.7125 -2.599633,3.10456 1.055601,-1.548387 2.66609,-2.958022 2.66609,-2.958022 z"
             id="path3043"
             sodipodi:nodetypes="cccc"
             transform="matrix(-0.87808219,-0.70249916,-0.59374586,1.0389158,178.77538,63.701385)" /><path
             style="mix-blend-mode:normal;fill:#000000;fill-opacity:1;stroke:none;stroke-width:0.264583px;stroke-linecap:butt;stroke-linejoin:miter;stroke-opacity:1;filter:url(#filter10263)"
             d="m 80.324363,24.826538 c 0,0 -4.242624,2.961908 -5.100718,4.99426 1.272084,-1.956791 5.167175,-4.847722 5.167175,-4.847722 z"
             id="path3045"
             sodipodi:nodetypes="cccc"
             transform="matrix(-0.87808219,-0.70249916,-0.59374586,1.0389158,186.89705,61.081491)" /><path
             style="mix-blend-mode:normal;fill:#000000;fill-opacity:1;stroke:none;stroke-width:0.264583px;stroke-linecap:butt;stroke-linejoin:miter;stroke-opacity:1;filter:url(#filter10263)"
             d="m 51.643408,33.038143 c 0,0 -3.773028,3.12102 -3.948778,4.585512 1.140647,-1.746985 4.077862,-4.15503 4.077862,-4.15503 z"
             id="path3047"
             sodipodi:nodetypes="cccc"
             transform="rotate(-37.218385,50.168544,35.045027)" /><path
             style="mix-blend-mode:normal;fill:#000000;fill-opacity:1;stroke:none;stroke-width:0.264583px;stroke-linecap:butt;stroke-linejoin:miter;stroke-opacity:1;filter:url(#filter10263)"
             d="m 51.643408,33.038143 c 0,0 -4.265119,3.438885 -4.440869,4.903377 1.140647,-1.746985 4.586338,-4.706652 4.586338,-4.706652 z"
             id="path3049"
             sodipodi:nodetypes="cccc"
             transform="matrix(-0.50865997,0.8609675,0.8609675,0.50865997,25.696152,-4.1906663)" /><path
             style="mix-blend-mode:normal;fill:#000000;fill-opacity:1;stroke:none;stroke-width:0.264583px;stroke-linecap:butt;stroke-linejoin:miter;stroke-opacity:1;filter:url(#filter10263)"
             d="m 51.643408,33.038143 c 0,0 -4.265119,3.438885 -4.440869,4.903377 1.140647,-1.746985 4.586338,-4.706652 4.586338,-4.706652 z"
             id="path3051"
             sodipodi:nodetypes="cccc"
             transform="matrix(0.38526812,0.41341996,0.41341996,-0.38526812,12.555519,98.131193)" /><path
             style="mix-blend-mode:normal;fill:#000000;fill-opacity:1;stroke:none;stroke-width:0.264583px;stroke-linecap:butt;stroke-linejoin:miter;stroke-opacity:1;filter:url(#filter10263)"
             d="m 80.324363,24.826538 c 0,0 -4.242624,2.961908 -5.100718,4.99426 1.272084,-1.956791 5.167175,-4.847722 5.167175,-4.847722 z"
             id="path3053"
             sodipodi:nodetypes="cccc"
             transform="matrix(-0.24127892,-1.098325,-1.1148515,0.43472557,165.00153,129.45225)" /></g><path
           style="display:inline;opacity:1;mix-blend-mode:normal;fill:#000000;fill-opacity:1;stroke:none;stroke-width:0.264583px;stroke-linecap:butt;stroke-linejoin:miter;stroke-opacity:1;filter:url(#filter2708)"
           d="m 64.172155,103.00149 c -0.73357,0.78597 -2.166163,1.44312 -3.408683,1.40794 -1.120915,-0.0317 -3.260479,0 -4.594312,-2.22306 -1.333834,-2.223049 -0.71482,-4.681121 -0.566616,-5.051631 0.148204,-0.370509 0.842513,-1.958927 1.974551,-2.654953 0.615023,-0.378142 2.032835,-0.418143 2.964071,0 0.655176,0.294187 1.372744,0.466315 1.556137,0.518713 0.23579,0.0524 0.422907,-0.08682 0.370509,-0.296407 -0.209592,-0.314387 -1.217591,-1.713404 -2.593562,-1.778442 -2.087164,-0.09865 -3.453839,0.359012 -4.550905,1.665427 -1.094315,1.30314 -1.66915,3.92213 -1.520947,5.448343 0.115483,1.18926 1.20801,3.46307 2.07485,4.1452 0.963706,0.75836 2.383715,1.45891 3.478289,1.56064 1.169814,0.10872 2.754575,-0.0477 3.36078,-0.30091 0.885937,-0.3701 2.344721,-1.33459 2.196854,-1.84804 -0.129696,-0.45036 -0.269435,-0.59282 -0.741016,-0.59282 z"
           id="path3057"
           sodipodi:nodetypes="csssssccsssssssc" /><path
           style="display:inline;mix-blend-mode:normal;fill:#000000;fill-opacity:1;stroke:none;stroke-width:0.264583px;stroke-linecap:butt;stroke-linejoin:miter;stroke-opacity:1;filter:url(#filter2704)"
           d="m 57.262161,99.685439 c 0.314933,-0.592815 1.500561,-1.519086 2.667665,-1.519086 1.167103,0 2.223054,0.861432 2.68619,1.50056 0.148204,0.194517 -0.13894,0.305669 -0.259355,0.259355 -0.685442,-0.435348 -1.2516,-0.73538 -1.917387,-0.926271 -0.323066,0.337084 -0.416822,2.074843 -0.379771,2.982593 -0.120415,0.13894 -0.333458,0.19447 -0.426085,0.037 -0.398297,-1.57466 -0.17599,-3.047431 -0.17599,-3.047431 -0.333458,0.04631 -0.861435,0.175992 -1.935911,0.861434 -0.148204,0.09263 -0.292598,0.01628 -0.259356,-0.148154 z"
           id="path3059"
           sodipodi:nodetypes="cscccccccc" /><path
           style="color:#000000;display:inline;fill:#000000;fill-opacity:1;-inkscape-stroke:none"
           d="m 63.208984,104.78711 -1.333984,0.2832 c 0.245833,1.15892 0.544251,3.41997 0.708984,5.48828 0.08237,1.03416 0.13309,2.02592 0.13086,2.8086 -0.0022,0.78268 -0.128398,1.43111 -0.125,1.42383 l 1.238281,0.57812 c 0.262753,-0.56304 0.247599,-1.15512 0.25,-1.99805 0.0024,-0.84292 -0.04845,-1.86265 -0.132813,-2.92187 -0.168724,-2.11844 -0.463448,-4.37568 -0.736328,-5.66211 z"
           id="path3061" /></g></g></g></svg>
