<?xml version="1.0" encoding="UTF-8" standalone="no"?>
<!-- Created with Inkscape (http://www.inkscape.org/) -->

<svg
   width="210mm"
   height="297mm"
   viewBox="0 0 210 297"
   version="1.1"
   id="svg5"
   xml:space="preserve"
   sodipodi:docname="(simpsons) marge.svg"
   inkscape:version="1.2.1 (9c6d41e410, 2022-07-14)"
   xmlns:inkscape="http://www.inkscape.org/namespaces/inkscape"
   xmlns:sodipodi="http://sodipodi.sourceforge.net/DTD/sodipodi-0.dtd"
   xmlns="http://www.w3.org/2000/svg"
   xmlns:svg="http://www.w3.org/2000/svg"><sodipodi:namedview
     id="namedview7"
     pagecolor="#ffffff"
     bordercolor="#666666"
     borderopacity="1.0"
     inkscape:showpageshadow="2"
     inkscape:pageopacity="0.0"
     inkscape:pagecheckerboard="0"
     inkscape:deskcolor="#d1d1d1"
     inkscape:document-units="mm"
     showgrid="false"
     inkscape:zoom="1.2623761"
     inkscape:cx="272.10591"
     inkscape:cy="253.49022"
     inkscape:window-width="2560"
     inkscape:window-height="1377"
     inkscape:window-x="1272"
     inkscape:window-y="-8"
     inkscape:window-maximized="1"
     inkscape:current-layer="layer1" /><defs
     id="defs2"><inkscape:path-effect
       effect="bspline"
       id="path-effect2645"
       is_visible="true"
       lpeversion="1"
       weight="33.333333"
       steps="2"
       helper_size="0"
       apply_no_weight="true"
       apply_with_weight="true"
       only_selected="false" /><inkscape:path-effect
       effect="bspline"
       id="path-effect2536"
       is_visible="true"
       lpeversion="1"
       weight="33.333333"
       steps="2"
       helper_size="0"
       apply_no_weight="true"
       apply_with_weight="true"
       only_selected="false" /><inkscape:path-effect
       effect="bspline"
       id="path-effect2532"
       is_visible="true"
       lpeversion="1"
       weight="33.333333"
       steps="2"
       helper_size="0"
       apply_no_weight="true"
       apply_with_weight="true"
       only_selected="false" /><inkscape:path-effect
       effect="bspline"
       id="path-effect2528"
       is_visible="true"
       lpeversion="1"
       weight="33.333333"
       steps="2"
       helper_size="0"
       apply_no_weight="true"
       apply_with_weight="true"
       only_selected="false" /><inkscape:path-effect
       effect="spiro"
       id="path-effect2524"
       is_visible="true"
       lpeversion="1" /><filter
       inkscape:collect="always"
       style="color-interpolation-filters:sRGB"
       id="filter1033"
       x="-0.029800604"
       y="-0.029800604"
       width="1.0596012"
       height="1.0596012"><feGaussianBlur
         inkscape:collect="always"
         stdDeviation="0.20288555"
         id="feGaussianBlur1035" /></filter><filter
       inkscape:collect="always"
       style="color-interpolation-filters:sRGB"
       id="filter5223"
       x="-0.19263221"
       y="-0.18916137"
       width="1.3852644"
       height="1.3783227"><feGaussianBlur
         inkscape:collect="always"
         stdDeviation="0.45841402"
         id="feGaussianBlur5225" /></filter><clipPath
       clipPathUnits="userSpaceOnUse"
       id="clipPath1465"><path
         id="path1467"
         style="opacity:0.439673;fill:#87af74;fill-opacity:1;stroke:none;stroke-width:0.264583"
         d="m 43.296874,23.0625 c -1.59767,0.250584 -3.057866,1.174698 -3.972655,2.501953 -0.70349,0.751082 -1.707007,0.02551 -2.557277,0.101244 -1.605547,-0.183688 -3.249099,0.698092 -3.891402,2.199926 -0.329306,0.394965 -0.374549,1.333045 -1.054878,1.049962 -1.913231,-0.314645 -4.10175,-0.2178 -5.580428,1.197697 -0.960013,0.831461 -1.057497,2.150885 -1.283203,3.316407 -1.807914,1.00562 -3.509032,2.39377 -4.401301,4.297124 -0.378495,1.35718 0.28762,2.726677 1.10052,3.782952 0.439132,0.801235 -0.242282,1.50241 -0.70081,2.089817 -0.721184,1.180369 -1.554497,2.708671 -0.826534,4.076199 0.604518,1.261028 1.817558,2.049569 2.966797,2.74414 0.662316,0.610174 -0.09615,1.386072 -0.234748,2.046041 -0.818015,1.755347 0.148245,3.889566 1.798911,4.750237 0.956869,0.538154 2.011348,0.853593 3.06865,1.129503 0.035,1.62378 -0.108958,3.467836 1.087239,4.751406 1.263655,1.492227 3.243334,1.954655 5.067057,2.36383 -0.09405,1.454021 -0.653217,2.992414 0.04297,4.376952 0.559554,1.133425 1.798711,1.734108 2.898436,2.234377 0.666681,0.258191 1.762961,0.13367 1.867188,1.078124 0.01453,0.82137 -0.496186,1.589125 -0.336431,2.43567 0.0583,1.255609 0.826453,2.447422 2.035511,2.873065 1.150898,0.524656 2.411643,0.721318 3.629044,1.033063 -0.607113,0.877226 -1.089028,1.929884 -0.827786,3.011221 0.09386,1.299461 0.507047,2.646989 1.57974,3.469245 0.799518,0.744784 1.812242,1.19076 2.812499,1.595705 -0.380354,1.771975 -0.840869,3.740174 0.08059,5.430877 0.608007,1.285103 1.805135,2.177037 3.040501,2.795686 0.696834,0.81865 0.06209,1.903351 -0.152344,2.78906 -0.31795,1.340302 0.385548,2.629687 0.990235,3.769537 0.695177,0.92076 1.680972,1.54638 2.619139,2.18945 -0.698468,1.54821 -1.13262,3.49354 -0.09012,4.99667 0.545883,1.04353 1.48296,1.773 2.418246,2.43888 0.828993,0.8512 0.143841,2.09951 0.488969,3.11943 0.566872,2.19863 2.773227,3.5835 4.92043,3.90936 0.795885,-0.11468 0.717542,0.48306 0.688435,1.08417 0.03165,1.16706 0.941149,2.07764 2.02343,2.38089 0.92647,0.36429 1.922804,0.53229 2.915846,0.55497 -0.202853,-2.76343 -0.755851,-5.49571 -1.684041,-8.10751 -0.312235,-1.11867 -0.798518,-2.21705 -0.978379,-3.35561 0.114276,-1.51782 0.103449,-3.36464 -1.279742,-4.34256 -0.478258,-0.42786 -1.020191,-0.77517 -1.534401,-1.15721 0.44082,-1.98873 0.244473,-4.34464 -1.363281,-5.77734 -0.477105,-0.361232 -1.432343,-0.865845 -0.968748,-1.583985 0.544176,-0.492639 1.35074,-0.665533 1.837891,-1.265624 1.31073,-1.230122 1.486588,-3.108132 1.562499,-4.79883 1.815963,0.363416 3.538408,-0.509683 4.998186,-1.496261 1.042993,-0.641689 1.989812,-1.420035 2.939314,-2.189284 1.850978,1.619633 4.806479,1.453467 6.603453,-0.158615 0.583692,-0.516499 1.046614,-1.150046 1.544984,-1.745684 0.88529,1.054216 2.267587,2.072084 3.714845,1.578126 1.047501,-0.276236 1.773396,-1.145257 2.398437,-1.97461 2.367637,0.686147 4.097748,2.88303 4.406506,5.3003 0.119494,0.528511 0.03514,1.075931 -0.07643,1.598137 0.719746,-0.421114 1.310563,-1.080614 1.381511,-1.937369 0.310981,-1.081146 0.728972,-2.298968 0.120835,-3.359386 -0.360717,-1.049811 -0.952095,-2.103451 -1.991333,-2.596803 -0.705644,-0.466553 -0.452565,-1.402766 0.01781,-1.940306 0.510961,-0.849636 1.09532,-1.832465 0.713579,-2.850039 -0.209114,-1.71368 -1.060432,-3.404817 -2.599455,-4.278093 -0.349435,-0.346321 -1.347308,-0.587788 -0.64684,-1.110268 0.938025,-1.225553 1.853425,-2.810463 1.246092,-4.388673 -0.346175,-1.551316 -1.709869,-2.473206 -2.799553,-3.481771 -0.634889,-0.67137 0.02056,-1.552954 -0.06666,-2.333345 0.07555,-1.142955 -0.235458,-2.308963 -0.998675,-3.17378 -0.565063,-1.074206 -1.586196,-1.722271 -2.529642,-2.423213 -0.476855,-0.342419 -0.819684,-0.833498 -0.675782,-1.443358 0.06253,-1.230228 0.240249,-2.597049 -0.595596,-3.627988 -0.741045,-0.982649 -1.77047,-1.751084 -2.971895,-2.054407 -0.502476,-0.25032 -1.253943,-0.321281 -1.60264,-0.683207 -0.08121,-1.665865 0.284732,-3.517083 -0.773229,-4.962525 -0.666644,-0.926193 -1.691984,-1.736101 -2.835936,-1.896483 -0.670904,0.138898 -1.427808,-0.442992 -1.130861,-1.156251 -0.07643,-1.279496 -0.39683,-2.521331 -0.956209,-3.672152 -0.687195,-1.407813 -2.137958,-2.388618 -3.692462,-2.46289 -0.464047,-0.200927 -1.538941,0.104791 -1.312265,-0.673552 0.14168,-1.836044 -0.274955,-3.746111 -1.448043,-5.198015 -0.6369,-0.80383 -1.500116,-1.38466 -2.467972,-1.702374 -0.863616,-0.482142 -0.516613,-1.638538 -0.975715,-2.386502 -0.583578,-1.597748 -2.287945,-2.508299 -3.939458,-2.430136 -0.671497,-0.09218 -1.472467,0.446983 -1.989124,-0.220472 -0.75229,-1.192928 -2.263942,-1.965151 -3.667969,-1.734375 -1.153766,0.286431 -2.12956,1.00494 -3.029297,1.751953 -1.05591,-0.747366 -2.050756,-1.660195 -3.357613,-1.930713 -0.247959,-0.08474 -0.511545,-0.176821 -0.777152,-0.131787 z" /></clipPath><filter
       inkscape:collect="always"
       style="color-interpolation-filters:sRGB"
       id="filter4457"
       x="-0.011958784"
       y="-0.00864211"
       width="1.0239176"
       height="1.0172842"><feGaussianBlur
         inkscape:collect="always"
         stdDeviation="0.36776062"
         id="feGaussianBlur4459" /></filter><filter
       inkscape:collect="always"
       style="color-interpolation-filters:sRGB"
       id="filter5508"
       x="-0.021854281"
       y="-0.018074202"
       width="1.0437086"
       height="1.0361484"><feGaussianBlur
         inkscape:collect="always"
         stdDeviation="0.3725063"
         id="feGaussianBlur5510" /></filter><filter
       inkscape:collect="always"
       style="color-interpolation-filters:sRGB"
       id="filter6782"
       x="-0.04770258"
       y="-0.033391793"
       width="1.0954052"
       height="1.0667836"><feGaussianBlur
         inkscape:collect="always"
         stdDeviation="0.051549835"
         id="feGaussianBlur6784" /></filter><filter
       inkscape:collect="always"
       style="color-interpolation-filters:sRGB"
       id="filter6786"
       x="-0.029250507"
       y="-0.030371785"
       width="1.058501"
       height="1.0607436"><feGaussianBlur
         inkscape:collect="always"
         stdDeviation="0.036137615"
         id="feGaussianBlur6788" /></filter><filter
       inkscape:collect="always"
       style="color-interpolation-filters:sRGB"
       id="filter6790"
       x="-0.02576259"
       y="-0.05961676"
       width="1.0515252"
       height="1.1192335"><feGaussianBlur
         inkscape:collect="always"
         stdDeviation="0.038287415"
         id="feGaussianBlur6792" /></filter><filter
       inkscape:collect="always"
       style="color-interpolation-filters:sRGB"
       id="filter6794"
       x="-0.086148317"
       y="-0.018560474"
       width="1.1722966"
       height="1.0371209"><feGaussianBlur
         inkscape:collect="always"
         stdDeviation="0.03753651"
         id="feGaussianBlur6796" /></filter><filter
       inkscape:collect="always"
       style="color-interpolation-filters:sRGB"
       id="filter6798"
       x="-0.08307327"
       y="-0.048342157"
       width="1.1661465"
       height="1.0966843"><feGaussianBlur
         inkscape:collect="always"
         stdDeviation="0.095526421"
         id="feGaussianBlur6800" /></filter><filter
       inkscape:collect="always"
       style="color-interpolation-filters:sRGB"
       id="filter6917"
       x="-0.024975588"
       y="-0.044711772"
       width="1.0499512"
       height="1.0894235"><feGaussianBlur
         inkscape:collect="always"
         stdDeviation="0.024738656"
         id="feGaussianBlur6919" /></filter><filter
       inkscape:collect="always"
       style="color-interpolation-filters:sRGB"
       id="filter6921"
       x="-0.033262135"
       y="-0.01822312"
       width="1.0665243"
       height="1.0364462"><feGaussianBlur
         inkscape:collect="always"
         stdDeviation="0.018274788"
         id="feGaussianBlur6923" /></filter><filter
       inkscape:collect="always"
       style="color-interpolation-filters:sRGB"
       id="filter6925"
       x="-0.042990667"
       y="-0.03215387"
       width="1.0859813"
       height="1.0643077"><feGaussianBlur
         inkscape:collect="always"
         stdDeviation="0.033257955"
         id="feGaussianBlur6927" /></filter><filter
       inkscape:collect="always"
       style="color-interpolation-filters:sRGB"
       id="filter6929"
       x="-0.055880571"
       y="-0.032368377"
       width="1.1117611"
       height="1.0647368"><feGaussianBlur
         inkscape:collect="always"
         stdDeviation="0.048161402"
         id="feGaussianBlur6931" /></filter><filter
       inkscape:collect="always"
       style="color-interpolation-filters:sRGB"
       id="filter6933"
       x="-0.040988478"
       y="-0.016517335"
       width="1.081977"
       height="1.0330347"><feGaussianBlur
         inkscape:collect="always"
         stdDeviation="0.025527266"
         id="feGaussianBlur6935" /></filter><filter
       inkscape:collect="always"
       style="color-interpolation-filters:sRGB"
       id="filter6937"
       x="-0.027266754"
       y="-0.041202848"
       width="1.0545335"
       height="1.0824057"><feGaussianBlur
         inkscape:collect="always"
         stdDeviation="0.040410317"
         id="feGaussianBlur6939" /></filter><filter
       inkscape:collect="always"
       style="color-interpolation-filters:sRGB"
       id="filter6941"
       x="-0.038359197"
       y="-0.036895248"
       width="1.0767184"
       height="1.0737905"><feGaussianBlur
         inkscape:collect="always"
         stdDeviation="0.034185232"
         id="feGaussianBlur6943" /></filter><filter
       inkscape:collect="always"
       style="color-interpolation-filters:sRGB"
       id="filter7077"
       x="-0.041663872"
       y="-0.043865712"
       width="1.0833277"
       height="1.0877314"><feGaussianBlur
         inkscape:collect="always"
         stdDeviation="0.06325468"
         id="feGaussianBlur7079" /></filter><filter
       inkscape:collect="always"
       style="color-interpolation-filters:sRGB"
       id="filter7081"
       x="-0.03314157"
       y="-0.09490287"
       width="1.0662831"
       height="1.1898057"><feGaussianBlur
         inkscape:collect="always"
         stdDeviation="0.089492669"
         id="feGaussianBlur7083" /></filter><filter
       inkscape:collect="always"
       style="color-interpolation-filters:sRGB"
       id="filter7085"
       x="-0.051520181"
       y="-0.026701916"
       width="1.1030404"
       height="1.0534038"><feGaussianBlur
         inkscape:collect="always"
         stdDeviation="0.046565575"
         id="feGaussianBlur7087" /></filter><filter
       inkscape:collect="always"
       style="color-interpolation-filters:sRGB"
       id="filter7089"
       x="-0.09305571"
       y="-0.029256484"
       width="1.1861114"
       height="1.058513"><feGaussianBlur
         inkscape:collect="always"
         stdDeviation="0.055132381"
         id="feGaussianBlur7091" /></filter><filter
       inkscape:collect="always"
       style="color-interpolation-filters:sRGB"
       id="filter9180"
       x="-0.088301351"
       y="-0.021369349"
       width="1.1766027"
       height="1.0427387"><feGaussianBlur
         inkscape:collect="always"
         stdDeviation="0.048624338"
         id="feGaussianBlur9182" /></filter><filter
       inkscape:collect="always"
       style="color-interpolation-filters:sRGB"
       id="filter11297"
       x="-0.04132153"
       y="-0.28289282"
       width="1.0826431"
       height="1.5657856"><feGaussianBlur
         inkscape:collect="always"
         stdDeviation="0.28101985"
         id="feGaussianBlur11299" /></filter><filter
       inkscape:collect="always"
       style="color-interpolation-filters:sRGB"
       id="filter1499"
       x="-0.059675747"
       y="-0.05291136"
       width="1.1193515"
       height="1.1058227"><feGaussianBlur
         inkscape:collect="always"
         stdDeviation="0.17348036"
         id="feGaussianBlur1501" /></filter></defs><g
     inkscape:label="Layer 1"
     inkscape:groupmode="layer"
     id="layer1"
     style="display:inline"><g
       id="g5353"
       inkscape:label="Marge"
       style="display:inline"
       transform="matrix(0.49116068,0,0,0.49116068,2.9047593,-2.3004727)"><g
         id="g5504"><g
           id="g5299"
           transform="matrix(0.78919628,0,0,0.78919628,27.080178,22.278563)"
           style="display:inline"><ellipse
             style="opacity:0.287938;fill:#000000;fill-opacity:1;stroke-width:0.359404;filter:url(#filter5223)"
             id="ellipse5291"
             cx="73.881004"
             cy="132.43565"
             rx="2.8556845"
             ry="2.9080822" /><ellipse
             style="opacity:1;fill:#000000;fill-opacity:1;stroke-width:0.359404"
             id="ellipse5293"
             cx="74.588379"
             cy="131.75449"
             rx="2.8556845"
             ry="2.9080822" /><ellipse
             style="opacity:1;fill:#bf4926;fill-opacity:1;stroke-width:0.273675"
             id="ellipse5295"
             cx="74.588379"
             cy="131.75449"
             rx="2.1745121"
             ry="2.2144113" /><path
             id="path5297"
             style="opacity:0.745136;fill:#982200;fill-opacity:1;stroke-width:0.275219"
             d="m 72.472062,131.19664 a 2.1867855,2.2269099 0 0 0 -0.07028,0.55759 2.1867855,2.2269099 0 0 0 2.18643,2.22726 2.1867855,2.2269099 0 0 0 0.507979,-0.0631 2.8556845,2.9080822 0 0 1 -2.624129,-2.7218 z" /></g><path
           style="opacity:0.441634;fill:#000000;fill-opacity:1;stroke:none;stroke-width:0.264583;filter:url(#filter5508)"
           d="m 84.087427,131.55683 -0.314388,-5.23979 -0.20959,-5.23979 c 0,0 0.419182,-0.36679 0.733571,-0.47158 0.314386,-0.1048 0.995558,-0.78597 1.309946,-0.94316 0.314386,-0.1572 0.576377,-0.62878 0.733571,-0.89077 0.157194,-0.26198 0.628774,-1.20515 0.628774,-1.20515 l -0.0524,-0.57637 c 0,0 0.576376,0 1.100355,-0.2096 0.52398,-0.20959 1.729131,-0.52397 2.148313,-0.73357 0.419185,-0.20959 1.205151,-0.52397 1.571937,-0.68117 0.366784,-0.15719 1.729129,-0.89076 2.043518,-1.04796 0.314385,-0.15719 1.152752,-0.62877 1.519539,-0.94316 0.366784,-0.31439 0.838364,-1.04795 1.20515,-1.36234 0.366784,-0.31439 0.628775,-1.46714 0.628775,-1.78153 0,-0.31439 -0.157195,-1.25755 -0.419182,-1.51954 -0.261991,-0.26199 -0.681173,-0.57638 -0.995561,-0.73357 -0.314386,-0.15719 -0.943163,-0.15719 -1.414743,-0.36679 -0.47158,-0.20959 -1.152753,-0.78596 -1.414743,-1.10035 -0.261988,-0.31439 -0.995558,-0.73357 -1.309947,-1.30995 -0.314386,-0.57637 -0.366784,-0.68117 -0.73357,-1.10035 -0.366784,-0.41919 -2.305506,-2.98668 -2.305506,-2.98668 l 0.628775,-9.169636 -1.938724,-4.873003 -10.898759,-3.66785 -12.889878,1.886323 -6.65453,6.65453 c 0,0 -0.73357,8.488456 -0.523978,8.645656 0.20959,0.15719 5.711367,11.47514 5.711367,11.47514 l 4.506217,11.10835 c 0,0 0.104797,2.56749 0.0524,3.19626 -0.0524,0.62878 2e-6,3.66786 2e-6,3.66786 l 2.934279,1.57193 7.335705,1.25755 z"
           id="path5506"
           sodipodi:nodetypes="cccsssccsssssssssssssccccccsccscccc" /><path
           style="opacity:1;fill:#000000;fill-opacity:1;stroke:none;stroke-width:0.264583"
           d="m 85.198954,130.88991 -0.314388,-5.23979 -0.20959,-5.23979 c 0.732587,-0.37838 1.241703,-0.76472 2.043517,-1.41474 0.769059,-0.6354 1.369409,-1.88616 1.309945,-2.67229 0,0 0.576376,0 1.100355,-0.2096 0.52398,-0.20959 1.729131,-0.52397 2.148313,-0.73357 1.246014,-0.49301 2.421561,-1.12594 3.615455,-1.72913 1.204712,-0.66184 1.993182,-1.26425 2.724689,-2.3055 0.366784,-0.31439 0.628775,-1.46714 0.628775,-1.78153 0,-0.31439 -0.157195,-1.25755 -0.419182,-1.51954 -0.626795,-0.81796 -1.645687,-0.77644 -2.410304,-1.10036 -1.535121,-0.78932 -2.522709,-2.40528 -3.45826,-3.51065 -0.366784,-0.41919 -2.305506,-2.98668 -2.305506,-2.98668 l 0.628775,-9.169632 -1.938724,-4.873003 -10.898759,-3.66785 -12.889878,1.886323 -6.65453,6.65453 c 0,0 -0.73357,8.488458 -0.523978,8.645652 0.20959,0.15719 5.711367,11.47514 5.711367,11.47514 l 4.506217,11.10835 c 0,0 0.104797,2.56749 0.0524,3.19626 -0.0524,0.62878 2e-6,3.66786 2e-6,3.66786 l 2.934279,1.57193 7.335705,1.25755 z"
           id="path4658"
           sodipodi:nodetypes="cccccscccscccccccccsccscccc" /><path
           id="path4739"
           style="opacity:1;fill:#e3c018;fill-opacity:1;stroke:none;stroke-width:0.264583"
           d="m 65.058594,85.619141 -6.134766,6.134765 c -0.201742,2.628135 -0.467861,5.23853 -0.515625,7.847656 3.454553,6.715458 8.501221,17.326378 9.827972,20.232058 0.158377,1.26474 0.396941,3.10267 0.350526,4.30384 0.0071,2.05864 0.05472,2.29638 -0.15419,4.13281 0.544579,0.50969 2.232118,1.5862 3.014755,1.76879 2.222902,0.28824 4.424455,0.83193 6.651158,1.05068 l 6.356252,-1.23326 c -0.223196,-3.36242 -0.736581,-6.57251 -0.85702,-9.94046 1.087214,-0.98268 2.737253,-1.0784 3.25203,-2.58189 0.301008,-0.48113 -0.285808,-1.56708 0.418228,-1.70691 0.632232,-0.12557 2.466285,-0.60679 3.044522,-0.81833 2.345541,-0.85809 3.658804,-1.3225 5.69403,-2.78623 0.905641,-0.65134 1.405822,-1.76762 1.130253,-2.90352 -0.246073,-1.05912 -1.434164,-1.01675 -2.208198,-1.42012 -1.039605,-0.56051 -1.7262,-1.42335 -2.581431,-2.2279 -0.745324,-1.05555 -1.660364,-2.03639 -2.513106,-3.0219 -0.504484,-0.75356 -1.404886,-1.41457 -1.224857,-2.43565 0.205739,-2.864443 0.448788,-5.781508 0.566654,-8.652242 L 87.539062,87.251953 77.345703,83.818359 Z"
           sodipodi:nodetypes="cccccccccccsssccccccccc" /><path
           style="opacity:0.449416;fill:#000000;fill-opacity:1;stroke:none;stroke-width:0.264583;filter:url(#filter11297)"
           d="m 71.94229,117.42365 c 0,0 1.650534,0.62878 2.5151,0.73357 0.864563,0.1048 2.462699,0.1572 3.19627,0.1572 0.73357,0 1.938721,-0.131 2.829485,-0.2096 0.890765,-0.0786 2.410302,-0.13099 2.986681,-0.31438 0.576376,-0.1834 1.467138,-0.26199 2.095915,-0.39299 0.628774,-0.13099 2.043517,-0.49778 2.305505,-0.60257 0.26199,-0.1048 0.392986,-0.86457 0.392986,-0.86457 0,0 -2.279309,0.57638 -2.646096,0.65497 -0.366784,0.0786 -2.803284,0.39299 -3.405862,0.47159 -0.602575,0.0786 -3.432061,0.26198 -4.060835,0.26198 -0.628775,0 -3.327265,-0.26198 -3.95604,-0.31438 -0.628774,-0.0524 -1.362345,-0.34059 -1.650534,-0.28819 -0.288187,0.0524 -0.602575,0.70737 -0.602575,0.70737 z"
           id="path9531" /><path
           style="opacity:1;fill:#000000;fill-opacity:1;stroke:none;stroke-width:0.264583"
           d="m 87.42159,115.63585 c 1.189127,-0.35841 -1.792896,0.4086 -3.430707,0.61834 -0.952089,0.12193 -2.18028,0.3161 -3.135697,0.42168 -2.088023,0.23075 -3.83154,0.25257 -5.74086,0.11082 -0.656677,-0.1626 -1.331228,-0.23341 -1.975855,-0.44692 0.222438,-0.66611 0.737116,-0.67893 0.934813,-1.18392 0.08697,-0.22216 -1.02515,0.4248 -1.428025,0.7791 -0.395974,0.34823 -0.848062,0.93561 -1.061694,1.50981 -0.136406,0.41337 0.03133,0.79179 0.335984,0.20849 0.345516,-0.66154 0.585455,-0.35361 1.673882,-0.0772 0.86229,0.21897 1.458391,0.26222 2.26195,0.30943 0.663197,0.039 1.328494,0.003 1.992864,0.0179 0.886927,-0.0655 1.778865,-0.0678 2.663355,-0.15574 1.302967,-0.1609 2.686793,-0.38459 4.068581,-0.56269 1.066877,-0.13752 1.859557,-0.34238 3.007127,-0.55057 0.01322,-0.67558 -0.966441,-0.79612 -0.165718,-0.99853 z"
           id="path9528"
           sodipodi:nodetypes="cssscsscsssssscc" /></g><g
         id="g4496"><g
           id="g5259"
           transform="matrix(0.94117409,0,0,0.94117409,-3.0912996,5.1445547)"><ellipse
             style="opacity:0.287938;fill:#000000;fill-opacity:1;stroke-width:0.359404;filter:url(#filter5223)"
             id="ellipse5251"
             cx="73.881004"
             cy="132.43565"
             rx="2.8556845"
             ry="2.9080822" /><ellipse
             style="opacity:1;fill:#000000;fill-opacity:1;stroke-width:0.359404"
             id="ellipse5253"
             cx="74.588379"
             cy="131.75449"
             rx="2.8556845"
             ry="2.9080822" /><ellipse
             style="opacity:1;fill:#bf4926;fill-opacity:1;stroke-width:0.273675"
             id="ellipse5255"
             cx="74.588379"
             cy="131.75449"
             rx="2.1745121"
             ry="2.2144113" /><path
             id="path5257"
             style="opacity:0.745136;fill:#982200;fill-opacity:1;stroke-width:0.275219"
             d="m 72.472062,131.19664 a 2.1867855,2.2269099 0 0 0 -0.07028,0.55759 2.1867855,2.2269099 0 0 0 2.18643,2.22726 2.1867855,2.2269099 0 0 0 0.507979,-0.0631 2.8556845,2.9080822 0 0 1 -2.624129,-2.7218 z" /></g><g
           id="g5249"
           transform="matrix(0.95364049,0,0,0.95364049,-1.5003134,4.9320721)"><ellipse
             style="opacity:0.287938;fill:#000000;fill-opacity:1;stroke-width:0.359404;filter:url(#filter5223)"
             id="ellipse5241"
             cx="73.881004"
             cy="132.43565"
             rx="2.8556845"
             ry="2.9080822" /><ellipse
             style="opacity:1;fill:#000000;fill-opacity:1;stroke-width:0.359404"
             id="ellipse5243"
             cx="74.588379"
             cy="131.75449"
             rx="2.8556845"
             ry="2.9080822" /><ellipse
             style="opacity:1;fill:#bf4926;fill-opacity:1;stroke-width:0.273675"
             id="ellipse5245"
             cx="74.588379"
             cy="131.75449"
             rx="2.1745121"
             ry="2.2144113" /><path
             id="path5247"
             style="opacity:0.745136;fill:#982200;fill-opacity:1;stroke-width:0.275219"
             d="m 72.472062,131.19664 a 2.1867855,2.2269099 0 0 0 -0.07028,0.55759 2.1867855,2.2269099 0 0 0 2.18643,2.22726 2.1867855,2.2269099 0 0 0 0.507979,-0.0631 2.8556845,2.9080822 0 0 1 -2.624129,-2.7218 z" /></g><g
           id="g5239"><ellipse
             style="opacity:0.287938;fill:#000000;fill-opacity:1;stroke-width:0.359404;filter:url(#filter5223)"
             id="ellipse5221"
             cx="73.881004"
             cy="132.43565"
             rx="2.8556845"
             ry="2.9080822" /><ellipse
             style="opacity:1;fill:#000000;fill-opacity:1;stroke-width:0.359404"
             id="path864"
             cx="74.588379"
             cy="131.75449"
             rx="2.8556845"
             ry="2.9080822" /><ellipse
             style="opacity:1;fill:#bf4926;fill-opacity:1;stroke-width:0.273675"
             id="ellipse4046"
             cx="74.588379"
             cy="131.75449"
             rx="2.1745121"
             ry="2.2144113" /><path
             id="ellipse920"
             style="opacity:0.745136;fill:#982200;fill-opacity:1;stroke-width:0.275219"
             d="m 72.472062,131.19664 a 2.1867855,2.2269099 0 0 0 -0.07028,0.55759 2.1867855,2.2269099 0 0 0 2.18643,2.22726 2.1867855,2.2269099 0 0 0 0.507979,-0.0631 2.8556845,2.9080822 0 0 1 -2.624129,-2.7218 z" /></g><g
           id="g5289"
           transform="matrix(0.91502924,0,0,0.91502924,19.172056,7.5329081)"><ellipse
             style="opacity:0.287938;fill:#000000;fill-opacity:1;stroke-width:0.359404;filter:url(#filter5223)"
             id="ellipse5281"
             cx="73.881004"
             cy="132.43565"
             rx="2.8556845"
             ry="2.9080822" /><ellipse
             style="opacity:1;fill:#000000;fill-opacity:1;stroke-width:0.359404"
             id="ellipse5283"
             cx="74.588379"
             cy="131.75449"
             rx="2.8556845"
             ry="2.9080822" /><ellipse
             style="opacity:1;fill:#bf4926;fill-opacity:1;stroke-width:0.273675"
             id="ellipse5285"
             cx="74.588379"
             cy="131.75449"
             rx="2.1745121"
             ry="2.2144113" /><path
             id="path5287"
             style="opacity:0.745136;fill:#982200;fill-opacity:1;stroke-width:0.275219"
             d="m 72.472062,131.19664 a 2.1867855,2.2269099 0 0 0 -0.07028,0.55759 2.1867855,2.2269099 0 0 0 2.18643,2.22726 2.1867855,2.2269099 0 0 0 0.507979,-0.0631 2.8556845,2.9080822 0 0 1 -2.624129,-2.7218 z" /></g><g
           id="g5279"
           transform="matrix(0.96731894,0,0,0.96731894,12.424217,3.0705884)"><ellipse
             style="opacity:0.287938;fill:#000000;fill-opacity:1;stroke-width:0.359404;filter:url(#filter5223)"
             id="ellipse5271"
             cx="73.881004"
             cy="132.43565"
             rx="2.8556845"
             ry="2.9080822" /><ellipse
             style="opacity:1;fill:#000000;fill-opacity:1;stroke-width:0.359404"
             id="ellipse5273"
             cx="74.588379"
             cy="131.75449"
             rx="2.8556845"
             ry="2.9080822" /><ellipse
             style="opacity:1;fill:#bf4926;fill-opacity:1;stroke-width:0.273675"
             id="ellipse5275"
             cx="74.588379"
             cy="131.75449"
             rx="2.1745121"
             ry="2.2144113" /><path
             id="path5277"
             style="opacity:0.745136;fill:#982200;fill-opacity:1;stroke-width:0.275219"
             d="m 72.472062,131.19664 a 2.1867855,2.2269099 0 0 0 -0.07028,0.55759 2.1867855,2.2269099 0 0 0 2.18643,2.22726 2.1867855,2.2269099 0 0 0 0.507979,-0.0631 2.8556845,2.9080822 0 0 1 -2.624129,-2.7218 z" /></g><g
           id="g5269"
           transform="matrix(1.0591722,0,0,1.0591722,0.68298079,-7.7565255)"><ellipse
             style="opacity:0.287938;fill:#000000;fill-opacity:1;stroke-width:0.359404;filter:url(#filter5223)"
             id="ellipse5261"
             cx="73.881004"
             cy="132.43565"
             rx="2.8556845"
             ry="2.9080822" /><ellipse
             style="opacity:1;fill:#000000;fill-opacity:1;stroke-width:0.359404"
             id="ellipse5263"
             cx="74.588379"
             cy="131.75449"
             rx="2.8556845"
             ry="2.9080822" /><ellipse
             style="opacity:1;fill:#bf4926;fill-opacity:1;stroke-width:0.273675"
             id="ellipse5265"
             cx="74.588379"
             cy="131.75449"
             rx="2.1745121"
             ry="2.2144113" /><path
             id="path5267"
             style="opacity:0.745136;fill:#982200;fill-opacity:1;stroke-width:0.275219"
             d="m 72.472062,131.19664 a 2.1867855,2.2269099 0 0 0 -0.07028,0.55759 2.1867855,2.2269099 0 0 0 2.18643,2.22726 2.1867855,2.2269099 0 0 0 0.507979,-0.0631 2.8556845,2.9080822 0 0 1 -2.624129,-2.7218 z" /></g></g><g
         id="g4373"><path
           style="opacity:0.445525;mix-blend-mode:normal;fill:#000000;fill-opacity:1;stroke:none;stroke-width:0.264583;filter:url(#filter4457)"
           d="m 60.31612,99.881109 c 2.305507,-1.100356 3.045242,-3.447505 3.150038,-5.386227 2.619894,0.261989 7.02748,-3.499908 7.02748,-3.499908 2.777088,1.833926 6.394082,0.696961 8.17561,-1.660944 1.886324,1.886324 4.717351,1.482929 6.341685,-0.665384 3.143873,1.309947 3.093016,4.941188 3.093016,4.941188 -1.352263,4.203881 2.733123,0.844971 3.005296,0.121488 0.222306,-0.815121 0.889222,-2.88997 0.815121,-3.70509 -0.0741,-0.815121 -1.037426,-3.038174 -1.482037,-3.482785 C 89.99772,86.098836 89.1826,85.506021 89.1826,85.506021 c 0,0 0.296407,-0.592812 0.518713,-0.963321 0.222305,-0.370509 0.815117,-1.333833 0.741016,-2.148954 -0.0741,-0.815118 -0.444609,-2.741766 -0.741016,-3.186377 -0.296408,-0.444611 -0.666917,-1.333831 -1.259732,-1.852544 -0.592815,-0.518713 -1.259731,-0.963324 -1.259731,-0.963324 0,0 1.482037,-1.926645 1.333833,-3.556886 -0.148204,-1.630238 -0.81512,-2.815868 -1.259732,-3.334581 -0.444608,-0.518713 -2.000747,-1.852543 -2.000747,-1.852543 0,0 0.222306,-1.18563 0.222306,-1.704343 0,-0.518713 -0.148204,-2.371257 -0.666917,-2.964072 -0.518713,-0.592814 -1.18563,-1.852543 -1.630238,-2.148951 -0.444611,-0.296407 -1.926648,-1.482037 -1.926648,-1.482037 0,0 0.03705,-1.111525 0.03705,-1.426458 0,-0.314934 0.05558,-1.296782 -0.09263,-1.722867 -0.148204,-0.426085 -0.703966,-1.593188 -1.037426,-1.889595 -0.333457,-0.296408 -1.463508,-1.38941 -1.852544,-1.537613 -0.389035,-0.148204 -2.241579,-0.815121 -2.241579,-0.815121 0,0 -0.01852,-0.815117 0,-0.926271 0.01852,-0.111152 0.03705,-0.16673 0.03705,-0.16673 0,0 -0.09262,-1.611712 -0.129678,-1.90812 -0.03705,-0.296407 -0.537239,-1.463511 -0.85217,-1.926648 -0.314933,-0.463134 -1.037426,-1.204153 -1.333833,-1.389409 -0.296407,-0.185253 -1.537613,-0.870696 -1.66729,-0.907746 -0.129678,-0.03705 -0.778069,-0.05557 -0.778069,-0.05557 0,0 0.03705,-0.574289 -0.03705,-0.833647 -0.0741,-0.259355 -0.277881,-1.352357 -0.389033,-1.741392 -0.111154,-0.389033 -0.537239,-1.685817 -0.963324,-2.223053 -0.426085,-0.537239 -1.037426,-1.333833 -1.482034,-1.537613 -0.444611,-0.203779 -0.870696,-0.555762 -1.241205,-0.666917 -0.37051,-0.111151 -1.852547,-0.333457 -1.852547,-0.333457 0,0 0,-1.111527 -0.01852,-1.370883 -0.01852,-0.259357 -0.12968,-1.000373 -0.259357,-1.333833 C 64.96984,34.301688 64.506703,33.079009 64.284397,32.745549 64.062092,32.412092 63.580431,31.671074 63.321076,31.48582 63.061718,31.300564 62.487429,30.689226 62.320699,30.596598 62.153972,30.503968 62.11692,30.46692 62.11692,30.46692 l -1.222679,-0.537239 c 0,0 -0.148204,-0.666916 -0.20378,-0.981847 -0.05558,-0.314934 -0.296407,-0.870696 -0.407559,-1.167104 -0.111154,-0.296407 -0.574288,-0.944798 -0.833646,-1.22268 -0.259355,-0.277882 -0.68544,-0.629865 -0.981848,-0.778069 -0.296407,-0.148203 -0.426085,-0.296407 -0.852172,-0.44461 -0.426085,-0.148204 -0.407559,-0.148204 -1.093002,-0.240831 -0.68544,-0.09263 -1.000374,-0.111153 -1.352357,-0.111153 -0.351983,0 -0.907746,0.111153 -0.907746,0.111153 0,0 -0.185256,-0.314933 -0.407561,-0.555764 -0.222306,-0.24083 -0.759542,-0.666916 -1.0189,-0.796594 -0.259355,-0.129678 -0.68544,-0.389034 -1.148577,-0.518713 -0.463135,-0.129678 -0.85217,-0.24083 -1.333831,-0.259356 -0.481663,-0.01853 -1.130054,0.20378 -1.407935,0.314933 -0.277882,0.111153 -0.611341,0.240831 -1.000374,0.444611 -0.389035,0.20378 -1.167103,0.815119 -1.167103,0.815119 l -0.574289,-0.407559 c 0,0 -0.277881,-0.314933 -0.666917,-0.500188 -0.389035,-0.185254 -0.889222,-0.463136 -1.278255,-0.555763 -0.389035,-0.09263 -0.907748,-0.351984 -1.352359,-0.351984 -0.444611,0 -1.05595,0.111153 -1.407933,0.259357 -0.351983,0.148203 -1.241205,0.481661 -1.463511,0.629865 -0.222305,0.148204 -0.833646,0.555763 -0.907748,0.666916 -0.0741,0.111153 -0.500187,0.314933 -0.629865,0.555764 -0.129677,0.24083 -0.592814,0.741017 -0.592814,0.741017 0,0 -0.314931,-0.05558 -0.85217,-0.129678 -0.537237,-0.0741 -1.000374,-0.185254 -1.500561,-0.129678 -0.500187,0.05558 -1.370883,0.185255 -1.722866,0.351984 -0.351986,0.166729 -1.074478,0.574288 -1.333833,0.833645 -0.259356,0.259356 -0.703967,0.703968 -0.85217,1.000375 -0.148204,0.296407 -0.574289,1.055949 -0.574289,1.055949 0,0 -0.537239,-0.09263 -1.000376,-0.09263 -0.463135,0 -1.834018,-0.01852 -2.130425,0.05558 -0.296408,0.0741 -1.722867,0.592812 -2.074852,0.778068 -0.351983,0.185253 -1.167102,0.963324 -1.241204,1.074475 -0.0741,0.111155 -0.61134,0.722493 -0.778069,1.111528 -0.166729,0.389033 -0.463136,2.000748 -0.463136,2.000748 0,0 -0.81512,0.444611 -1.130053,0.741018 -0.314932,0.296408 -1.482035,1.130051 -1.834019,1.556136 -0.351983,0.426088 -1.315307,1.871073 -1.482036,2.186004 -0.166729,0.314933 -0.20378,1.852546 -0.111152,2.167477 0.09263,0.314934 0.314932,1.130054 0.500187,1.407935 0.185254,0.277882 0.778069,1.278255 0.778069,1.278255 0,0 -0.537238,0.741019 -0.685442,0.963324 -0.148204,0.222306 -0.666916,1.093002 -0.759544,1.370883 -0.09263,0.277882 -0.389034,1.167104 -0.500187,1.537613 -0.111152,0.370509 0.09263,1.574662 0.277882,2.000747 0.185255,0.426085 0.741018,1.167104 1.055951,1.537613 0.314932,0.37051 1.111527,0.981848 1.25973,1.111528 0.148204,0.129678 0.852171,0.500187 0.852171,0.500187 l -0.351984,0.981847 c 0,0 -0.277881,0.722493 -0.351983,1.18563 -0.0741,0.463135 0.05558,1.741392 0.222305,2.093376 0.166729,0.351983 0.666916,1.315307 0.963323,1.648764 0.296408,0.333459 0.907747,0.81512 1.296782,1.037426 0.389034,0.222305 1.055951,0.518713 1.296781,0.64839 0.240831,0.129678 1.38941,0.444611 1.38941,0.444611 0,0 0.03705,0.778069 0.01852,0.981848 -0.01852,0.203782 0.03705,0.926274 0.09263,1.222679 0.05558,0.296408 0.407561,1.14858 0.574288,1.574665 0.16673,0.426085 1.093002,1.352357 1.370883,1.574663 0.277882,0.222305 1.241206,0.944798 1.519087,0.981847 0.277884,0.03705 0.870696,0.389036 1.130054,0.444611 0.259355,0.05558 1.315307,0.33346 1.315307,0.33346 0,0 -0.111154,0.833644 -0.111154,1.074476 0,0.240831 -0.203779,0.963324 -0.111151,1.389409 0.09263,0.426085 0.389032,1.50056 0.592812,1.852543 0.203782,0.351983 0.926274,1.111528 1.259731,1.333834 0.33346,0.222305 0.98185,0.592815 1.222679,0.741018 0.240832,0.148201 0.870697,0.463135 1.148578,0.500187 0.277884,0.03705 0.889222,0.222306 0.889222,0.222306 0,0 -0.0741,0.426085 -0.185253,0.741016 -0.111154,0.314933 -0.12968,0.870696 -0.148204,1.130053 -0.01852,0.259356 0.05558,0.722493 0.111152,1.037424 0.05557,0.314933 0.314933,0.944798 0.444611,1.296783 0.129677,0.351984 0.537239,0.796595 0.778068,1.018898 0.240831,0.222305 1.130054,0.703969 1.407935,0.870696 0.277881,0.16673 0.926272,0.333459 1.241205,0.426087 0.314931,0.09263 1.167104,0.296405 1.167104,0.296405 0,0 -0.33346,0.629867 -0.33346,1.055952 0,0.426085 0,1.0189 0.03705,1.278255 0.03705,0.259358 0.148204,1.074476 0.222306,1.426462 0.0741,0.351983 0.314931,1.055949 0.481661,1.370883 0.16673,0.31493 0.778068,0.981847 1.093001,1.296781 0.314934,0.314931 1.0189,0.833644 1.204154,0.963324 0.185256,0.129677 1.259731,0.611338 1.259731,0.611338 0,0 -0.111151,0.703966 -0.240832,1.093002 -0.129677,0.389035 -0.03705,1.759918 -0.05557,2.093375 -0.01852,0.33346 0.16673,0.944798 0.277881,1.222679 0.111154,0.277882 0.407561,1.148578 0.611341,1.389409 0.203779,0.240832 0.629864,0.85217 0.963324,1.167104 0.333457,0.314933 0.926272,0.85217 1.167101,0.944798 0.240832,0.09263 0.833646,0.481661 0.833646,0.481661 0,0 0,0.685442 -0.148203,0.907748 -0.148204,0.222306 -0.351983,0.944798 -0.351983,1.222679 0,0.277882 -0.05558,1.315301 0.05557,1.611711 0.111152,0.29641 0.574289,1.44498 0.759545,1.92665 0.185253,0.48166 0.666914,1.093 1.000374,1.37088 0.333457,0.27788 0.759542,0.75954 0.963321,0.87069 0.203782,0.11116 0.666917,0.44462 0.666917,0.44462 0,0 -0.185254,0.55576 -0.314931,0.92627 -0.12968,0.37051 -0.203782,1.20415 -0.203782,1.46351 0,0.25935 0.03705,0.87069 0.12968,1.1671 0.09262,0.29641 0.314931,1.07448 0.537236,1.42646 0.222306,0.35198 0.648391,0.90775 0.85217,1.18563 0.203783,0.27788 0.611341,0.72249 0.833647,0.8707 0.222306,0.1482 1.093002,0.81512 1.093002,0.81512 0,0 0.09263,0.51871 0.01852,0.98184 -0.0741,0.46314 0.03705,1.33384 0.09263,1.57467 0.05558,0.24083 0.333459,0.94479 0.481663,1.20415 0.148204,0.25936 0.574289,0.8707 0.815118,1.16711 0.240832,0.2964 0.833646,0.75954 1.093002,0.96332 0.259357,0.20378 0.98185,0.57429 1.278257,0.72249 0.296408,0.1482 0.741019,0.27788 0.944798,0.37051 0.20378,0.0926 0.981848,0.2223 0.981848,0.2223 0,0 -0.03705,0.48167 0.111154,0.7966 0.148204,0.31493 0.222305,0.79659 0.370506,1.0189 0.148204,0.2223 0.53724,0.66692 0.759545,0.85217 0.222306,0.18525 0.907746,0.59281 1.204153,0.68544 0.296408,0.0926 0.648391,0.27788 1.111528,0.38904 0.463137,0.11115 0.833647,0.18525 1.315307,0.25935 0.481661,0.0741 1.815493,0.11115 2.074851,0.11115 0.555762,0 -0.608446,-6.24434 -0.608446,-6.24434 0,0 -1.194308,-4.00892 -1.945078,-6.15733 0.192393,-3.30116 -0.209589,-4.38178 -2.724688,-6.13711 0.471578,-3.14387 -0.517818,-5.07184 -2.246948,-6.434181 z"
           id="path4453"
           sodipodi:nodetypes="cccccccsscsssscsscssscsssscscsssscssssscsssssccssssssscssssssccssssssscssssscssssscssssscssssssccssssscsssssscsssssscssssssscsssssscsssssscsssssscsssssscssssssccssscssscccc" /><path
           style="opacity:1;fill:#000000;fill-opacity:1;stroke:none;stroke-width:0.264583"
           d="m 60.944895,99.147539 c 2.305507,-1.100356 3.045242,-3.447505 3.150038,-5.386227 2.619894,0.261989 5.693648,-2.091974 7.02748,-3.648112 2.777088,1.833926 6.394082,0.845165 8.17561,-1.51274 1.886324,1.886324 4.717351,1.482929 6.341685,-0.665384 3.143873,1.309947 3.093016,4.941188 3.093016,4.941188 -1.352263,4.203881 2.733123,0.844971 3.005296,0.121488 0.222306,-0.815121 0.889222,-2.88997 0.815121,-3.70509 -0.0741,-0.815121 -1.037426,-3.038174 -1.482037,-3.482785 -0.444609,-0.444611 -1.259729,-1.037426 -1.259729,-1.037426 0,0 0.296407,-0.592812 0.518713,-0.963321 0.222305,-0.370509 0.815117,-1.333833 0.741016,-2.148954 -0.0741,-0.815118 -0.444609,-2.741766 -0.741016,-3.186377 -0.296408,-0.444611 -0.666917,-1.333831 -1.259732,-1.852544 -0.592815,-0.518713 -1.259731,-0.963324 -1.259731,-0.963324 0,0 1.482037,-1.926645 1.333833,-3.556886 -0.148204,-1.630238 -0.81512,-2.815868 -1.259732,-3.334581 -0.444608,-0.518713 -2.000747,-1.852543 -2.000747,-1.852543 0,0 0.222306,-1.18563 0.222306,-1.704343 0,-0.518713 -0.148204,-2.371257 -0.666917,-2.964072 -0.518713,-0.592814 -1.18563,-1.852543 -1.630238,-2.148951 -0.444611,-0.296407 -1.926648,-1.482037 -1.926648,-1.482037 0,0 0.03705,-1.111525 0.03705,-1.426458 0,-0.314934 0.05558,-1.296782 -0.09263,-1.722867 -0.148204,-0.426085 -0.703966,-1.593188 -1.037426,-1.889595 -0.333457,-0.296408 -1.463508,-1.38941 -1.852544,-1.537613 -0.389035,-0.148204 -2.241579,-0.815121 -2.241579,-0.815121 0,0 -0.01852,-0.815117 0,-0.926271 0.01852,-0.111152 0.03705,-0.16673 0.03705,-0.16673 0,0 -0.09262,-1.611712 -0.129678,-1.90812 -0.03705,-0.296407 -0.537239,-1.463511 -0.85217,-1.926648 -0.314933,-0.463134 -1.037426,-1.204153 -1.333833,-1.389409 -0.296407,-0.185253 -1.537613,-0.870696 -1.66729,-0.907746 -0.129678,-0.03705 -0.778069,-0.05557 -0.778069,-0.05557 0,0 0.03705,-0.574289 -0.03705,-0.833647 -0.0741,-0.259355 -0.277881,-1.352357 -0.389033,-1.741392 -0.111154,-0.389033 -0.537239,-1.685817 -0.963324,-2.223053 -0.426085,-0.537239 -1.037426,-1.333833 -1.482034,-1.537613 -0.444611,-0.203779 -0.870696,-0.555762 -1.241205,-0.666917 -0.37051,-0.111151 -1.852547,-0.333457 -1.852547,-0.333457 0,0 0,-1.111527 -0.01852,-1.370883 -0.01852,-0.259357 -0.12968,-1.000373 -0.259357,-1.333833 -0.129678,-0.333457 -0.592815,-1.556136 -0.815121,-1.889596 -0.222305,-0.333457 -0.703966,-1.074475 -0.963321,-1.259729 -0.259358,-0.185256 -0.833647,-0.796594 -1.000377,-0.889222 -0.166727,-0.09263 -0.203779,-0.129678 -0.203779,-0.129678 l -1.222679,-0.537239 c 0,0 -0.148204,-0.666916 -0.20378,-0.981847 -0.05558,-0.314934 -0.296407,-0.870696 -0.407559,-1.167104 -0.111154,-0.296407 -0.574288,-0.944798 -0.833646,-1.22268 -0.259355,-0.277882 -0.68544,-0.629865 -0.981848,-0.778069 -0.296407,-0.148203 -0.426085,-0.296407 -0.852172,-0.44461 -0.426085,-0.148204 -0.407559,-0.148204 -1.093002,-0.240831 -0.68544,-0.09263 -1.000374,-0.111153 -1.352357,-0.111153 -0.351983,0 -0.907746,0.111153 -0.907746,0.111153 0,0 -0.185256,-0.314933 -0.407561,-0.555764 -0.222306,-0.24083 -0.759542,-0.666916 -1.0189,-0.796594 -0.259355,-0.129678 -0.68544,-0.389034 -1.148577,-0.518713 -0.463135,-0.129678 -0.85217,-0.24083 -1.333831,-0.259356 -0.481663,-0.01853 -1.130054,0.20378 -1.407935,0.314933 -0.277882,0.111153 -0.611341,0.240831 -1.000374,0.444611 -0.389035,0.20378 -1.167103,0.815119 -1.167103,0.815119 l -0.574289,-0.407559 c 0,0 -0.277881,-0.314933 -0.666917,-0.500188 -0.389035,-0.185254 -0.889222,-0.463136 -1.278255,-0.555763 -0.389035,-0.09263 -0.907748,-0.351984 -1.352359,-0.351984 -0.444611,0 -1.05595,0.111153 -1.407933,0.259357 -0.351983,0.148203 -1.241205,0.481661 -1.463511,0.629865 -0.222305,0.148204 -0.833646,0.555763 -0.907748,0.666916 -0.0741,0.111153 -0.500187,0.314933 -0.629865,0.555764 -0.129677,0.24083 -0.592814,0.741017 -0.592814,0.741017 0,0 -0.314931,-0.05558 -0.85217,-0.129678 -0.537237,-0.0741 -1.000374,-0.185254 -1.500561,-0.129678 -0.500187,0.05558 -1.370883,0.185255 -1.722866,0.351984 -0.351986,0.166729 -1.074478,0.574288 -1.333833,0.833645 -0.259356,0.259356 -0.703967,0.703968 -0.85217,1.000375 -0.148204,0.296407 -0.574289,1.055949 -0.574289,1.055949 0,0 -0.537239,-0.09263 -1.000376,-0.09263 -0.463135,0 -1.834018,-0.01852 -2.130425,0.05558 -0.296408,0.0741 -1.722867,0.592812 -2.074852,0.778068 -0.351983,0.185253 -1.167102,0.963324 -1.241204,1.074475 -0.0741,0.111155 -0.61134,0.722493 -0.778069,1.111528 -0.166729,0.389033 -0.463136,2.000748 -0.463136,2.000748 0,0 -0.81512,0.444611 -1.130053,0.741018 -0.314932,0.296408 -1.482035,1.130051 -1.834019,1.556136 -0.351983,0.426088 -1.315307,1.871073 -1.482036,2.186004 -0.166729,0.314933 -0.20378,1.852546 -0.111152,2.167477 0.09263,0.314934 0.314932,1.130054 0.500187,1.407935 0.185254,0.277882 0.778069,1.278255 0.778069,1.278255 0,0 -0.537238,0.741019 -0.685442,0.963324 -0.148204,0.222306 -0.666916,1.093002 -0.759544,1.370883 -0.09263,0.277882 -0.389034,1.167104 -0.500187,1.537613 -0.111152,0.370509 0.09263,1.574662 0.277882,2.000747 0.185255,0.426085 0.741018,1.167104 1.055951,1.537613 0.314932,0.37051 1.111527,0.981848 1.25973,1.111528 0.148204,0.129678 0.852171,0.500187 0.852171,0.500187 l -0.351984,0.981847 c 0,0 -0.277881,0.722493 -0.351983,1.18563 -0.0741,0.463135 0.05558,1.741392 0.222305,2.093376 0.166729,0.351983 0.666916,1.315307 0.963323,1.648764 0.296408,0.333459 0.907747,0.81512 1.296782,1.037426 0.389034,0.222305 1.055951,0.518713 1.296781,0.64839 0.240831,0.129678 1.38941,0.444611 1.38941,0.444611 0,0 0.03705,0.778069 0.01852,0.981848 -0.01852,0.203782 0.03705,0.926274 0.09263,1.222679 0.05558,0.296408 0.407561,1.14858 0.574288,1.574665 0.16673,0.426085 1.093002,1.352357 1.370883,1.574663 0.277882,0.222305 1.241206,0.944798 1.519087,0.981847 0.277884,0.03705 0.870696,0.389036 1.130054,0.444611 0.259355,0.05558 1.315307,0.33346 1.315307,0.33346 0,0 -0.111154,0.833644 -0.111154,1.074476 0,0.240831 -0.203779,0.963324 -0.111151,1.389409 0.09263,0.426085 0.389032,1.50056 0.592812,1.852543 0.203782,0.351983 0.926274,1.111528 1.259731,1.333834 0.33346,0.222305 0.98185,0.592815 1.222679,0.741018 0.240832,0.148201 0.870697,0.463135 1.148578,0.500187 0.277884,0.03705 0.889222,0.222306 0.889222,0.222306 0,0 -0.0741,0.426085 -0.185253,0.741016 -0.111154,0.314933 -0.12968,0.870696 -0.148204,1.130053 -0.01852,0.259356 0.05558,0.722493 0.111152,1.037424 0.05557,0.314933 0.314933,0.944798 0.444611,1.296783 0.129677,0.351984 0.537239,0.796595 0.778068,1.018898 0.240831,0.222305 1.130054,0.703969 1.407935,0.870696 0.277881,0.16673 0.926272,0.333459 1.241205,0.426087 0.314931,0.09263 1.167104,0.296405 1.167104,0.296405 0,0 -0.33346,0.629867 -0.33346,1.055952 0,0.426085 0,1.0189 0.03705,1.278255 0.03705,0.259358 0.148204,1.074476 0.222306,1.426462 0.0741,0.351983 0.314931,1.055949 0.481661,1.370883 0.16673,0.31493 0.778068,0.981847 1.093001,1.296781 0.314934,0.314931 1.0189,0.833644 1.204154,0.963324 0.185256,0.129677 1.259731,0.611338 1.259731,0.611338 0,0 -0.111151,0.703966 -0.240832,1.093002 -0.129677,0.389035 -0.03705,1.759918 -0.05557,2.093375 -0.01852,0.33346 0.16673,0.944798 0.277881,1.222679 0.111154,0.277882 0.407561,1.148578 0.611341,1.389409 0.203779,0.240832 0.629864,0.85217 0.963324,1.167104 0.333457,0.314933 0.926272,0.85217 1.167101,0.944798 0.240832,0.09263 0.833646,0.481661 0.833646,0.481661 0,0 0,0.685442 -0.148203,0.907748 -0.148204,0.222306 -0.351983,0.944798 -0.351983,1.222679 0,0.277882 -0.05558,1.315301 0.05557,1.611711 0.111152,0.29641 0.574289,1.44498 0.759545,1.92665 0.185253,0.48166 0.666914,1.093 1.000374,1.37088 0.333457,0.27788 0.759542,0.75954 0.963321,0.87069 0.203782,0.11116 0.666917,0.44462 0.666917,0.44462 0,0 -0.185254,0.55576 -0.314931,0.92627 -0.12968,0.37051 -0.203782,1.20415 -0.203782,1.46351 0,0.25935 0.03705,0.87069 0.12968,1.1671 0.09262,0.29641 0.314931,1.07448 0.537236,1.42646 0.222306,0.35198 0.648391,0.90775 0.85217,1.18563 0.203783,0.27788 0.611341,0.72249 0.833647,0.8707 0.222306,0.1482 1.093002,0.81512 1.093002,0.81512 0,0 0.09263,0.51871 0.01852,0.98184 -0.0741,0.46314 0.03705,1.33384 0.09263,1.57467 0.05558,0.24083 0.333459,0.94479 0.481663,1.20415 0.148204,0.25936 0.574289,0.8707 0.815118,1.16711 0.240832,0.2964 0.833646,0.75954 1.093002,0.96332 0.259357,0.20378 0.98185,0.57429 1.278257,0.72249 0.296408,0.1482 0.741019,0.27788 0.944798,0.37051 0.20378,0.0926 0.981848,0.2223 0.981848,0.2223 0,0 -0.03705,0.48167 0.111154,0.7966 0.148204,0.31493 0.222305,0.79659 0.370506,1.0189 0.148204,0.2223 0.53724,0.66692 0.759545,0.85217 0.222306,0.18525 0.907746,0.59281 1.204153,0.68544 0.296408,0.0926 0.648391,0.27788 1.111528,0.38904 0.463137,0.11115 0.833647,0.18525 1.315307,0.25935 0.481661,0.0741 1.815493,0.11115 2.074851,0.11115 0.555762,0 -0.608446,-6.24434 -0.608446,-6.24434 0,0 -1.194308,-4.00892 -1.945078,-6.15733 0.192393,-3.30116 -0.209589,-4.38178 -2.724688,-6.13711 0.471578,-3.14387 -0.517818,-5.07184 -2.246948,-6.434181 z"
           id="path916"
           sodipodi:nodetypes="cccccccsscsssscsscssscsssscscsssscssssscsssssccssssssscssssssccssssssscssssscssssscssssscssssssccssssscsssssscsssssscssssssscsssssscsssssscsssssscsssssscssssssccssscssscccc" /><path
           id="path1388"
           style="opacity:1;fill:#1e3d54;fill-opacity:1;stroke:none;stroke-width:0.264583"
           d="m 43.296875,23.0625 c -1.59767,0.250584 -3.057868,1.174698 -3.972656,2.501953 -0.703491,0.751082 -1.707007,0.02551 -2.557278,0.101244 -1.605546,-0.183688 -3.249099,0.698092 -3.891402,2.199925 -0.329305,0.394965 -0.374548,1.333046 -1.054876,1.049963 -1.913232,-0.314646 -4.101751,-0.217799 -5.580429,1.197696 -0.960013,0.831462 -1.057497,2.150886 -1.283203,3.316407 -1.807914,1.00562 -3.509032,2.393772 -4.401301,4.297126 -0.378495,1.357179 0.28762,2.726676 1.10052,3.782952 0.439132,0.801234 -0.242282,1.502408 -0.70081,2.089816 -0.721184,1.18037 -1.554497,2.708671 -0.826534,4.076199 0.604518,1.261028 1.817558,2.04957 2.966797,2.744141 0.662316,0.610173 -0.09615,1.386072 -0.234748,2.04604 -0.818015,1.755347 0.148245,3.889567 1.798911,4.750236 0.956869,0.538156 2.011348,0.853595 3.06865,1.129505 0.035,1.623779 -0.108959,3.467836 1.087239,4.751405 1.263656,1.492226 3.243334,1.954654 5.067057,2.36383 -0.09405,1.454021 -0.653217,2.992414 0.04297,4.376953 0.559554,1.133425 1.798713,1.734107 2.898438,2.234375 0.666681,0.258191 1.76296,0.13367 1.867187,1.078125 0.01454,0.821369 -0.496187,1.589124 -0.33643,2.435669 0.0583,1.255609 0.826451,2.447424 2.035511,2.873066 1.150897,0.524657 2.411643,0.721318 3.629044,1.033062 -0.607114,0.877226 -1.089028,1.929884 -0.827787,3.011222 0.09386,1.299461 0.507048,2.646989 1.57974,3.469246 0.799518,0.744784 1.812241,1.190758 2.8125,1.595703 -0.380355,1.771976 -0.840871,3.740175 0.08059,5.430878 0.608005,1.285103 1.805135,2.177038 3.0405,2.795685 0.696833,0.818651 0.06209,1.903353 -0.152344,2.789062 -0.31795,1.3403 0.385547,2.629686 0.990235,3.769536 0.695178,0.92076 1.680973,1.54638 2.61914,2.18945 -0.698468,1.54821 -1.13262,3.49354 -0.09012,4.99667 0.545884,1.04353 1.482961,1.773 2.418247,2.43888 0.828991,0.8512 0.14384,2.09951 0.488968,3.11943 0.566873,2.19863 2.773227,3.5835 4.92043,3.90936 0.795886,-0.11468 0.717541,0.48306 0.688434,1.08417 0.03165,1.16706 0.94115,2.07764 2.02343,2.38089 0.926472,0.36429 1.922806,0.53229 2.915848,0.55497 -0.202855,-2.76343 -0.755851,-5.49571 -1.684042,-8.10751 -0.312235,-1.11867 -0.798518,-2.21705 -0.97838,-3.35561 0.114278,-1.51782 0.103451,-3.36464 -1.279741,-4.34256 -0.478258,-0.42786 -1.020192,-0.77517 -1.5344,-1.15721 0.440819,-1.98873 0.244472,-4.34464 -1.363281,-5.77734 -0.477105,-0.361231 -1.432345,-0.865844 -0.96875,-1.583985 0.544176,-0.492638 1.350741,-0.665534 1.837891,-1.265625 1.310731,-1.23012 1.486589,-3.10813 1.5625,-4.798828 1.815962,0.363414 3.538409,-0.509683 4.998187,-1.496263 1.042992,-0.641689 1.989812,-1.420035 2.939313,-2.189284 1.850977,1.619634 4.806478,1.453467 6.603452,-0.158615 0.583692,-0.516497 1.046615,-1.150045 1.544985,-1.745682 0.88529,1.054215 2.267588,2.072084 3.714844,1.578125 1.047501,-0.276237 1.773396,-1.145257 2.398437,-1.974609 2.367639,0.686145 4.097749,2.883029 4.406507,5.300299 0.119493,0.52851 0.03514,1.075932 -0.07643,1.598138 0.719746,-0.421115 1.310562,-1.080614 1.381512,-1.937371 0.31098,-1.081144 0.728972,-2.298966 0.120835,-3.359384 -0.360717,-1.049813 -0.952096,-2.103452 -1.991335,-2.596803 -0.705644,-0.466554 -0.452565,-1.402766 0.0178,-1.940306 0.510961,-0.849636 1.095318,-1.832465 0.713578,-2.850039 -0.209113,-1.713681 -1.060432,-3.404818 -2.599455,-4.278093 -0.349434,-0.346322 -1.347307,-0.58779 -0.646841,-1.110269 0.938025,-1.225554 1.853427,-2.810462 1.246094,-4.388672 -0.346175,-1.551317 -1.709869,-2.473207 -2.799555,-3.481772 -0.634887,-0.671371 0.02057,-1.552954 -0.06666,-2.333346 0.07555,-1.142953 -0.235458,-2.308963 -0.998677,-3.17378 -0.565062,-1.074205 -1.586195,-1.722271 -2.529641,-2.423212 -0.476856,-0.342418 -0.819684,-0.833498 -0.675782,-1.443359 0.06253,-1.230226 0.24025,-2.597048 -0.595597,-3.627987 -0.741044,-0.982648 -1.770469,-1.751084 -2.971893,-2.054406 -0.502477,-0.250322 -1.253944,-0.321283 -1.60264,-0.683209 -0.08121,-1.665864 0.28473,-3.517081 -0.773229,-4.962523 -0.666645,-0.926195 -1.691984,-1.736101 -2.835937,-1.896484 -0.670903,0.138897 -1.427807,-0.442993 -1.13086,-1.15625 -0.07643,-1.279496 -0.396831,-2.521331 -0.956211,-3.672154 -0.687193,-1.407813 -2.137957,-2.388618 -3.69246,-2.462889 -0.464048,-0.200926 -1.538941,0.104792 -1.312266,-0.673551 0.141679,-1.836044 -0.274955,-3.746112 -1.448043,-5.198015 -0.636899,-0.803832 -1.500116,-1.384661 -2.467973,-1.702376 -0.863615,-0.48214 -0.516612,-1.638536 -0.975713,-2.3865 -0.583579,-1.597749 -2.287945,-2.5083 -3.939459,-2.430137 -0.671497,-0.09218 -1.472466,0.446983 -1.989125,-0.220472 -0.752288,-1.192928 -2.26394,-1.965151 -3.667968,-1.734375 -1.153766,0.286431 -2.129561,1.00494 -3.029297,1.751953 -1.055909,-0.747366 -2.050757,-1.660195 -3.357612,-1.930713 -0.247959,-0.08474 -0.511547,-0.176821 -0.777154,-0.131787 z" /><path
           style="opacity:1;fill:#0c7bc4;fill-opacity:1;stroke:none;stroke-width:0.264583"
           d="m 63.145606,97.680398 c 2.305507,-1.100356 3.045242,-3.447505 3.150038,-5.386227 3.879625,-0.10852 7.472091,-2.091974 7.472091,-2.091974 2.777088,1.833926 6.171776,1.215674 7.953304,-1.142231 1.886324,1.886324 3.01301,0.667809 4.637344,-1.480504 3.143873,1.309947 3.24122,6.793733 3.24122,6.793733 -1.352263,4.203881 4.066955,-2.119101 4.339128,-2.842584 0.222306,-0.815121 0.889222,-2.88997 0.815121,-3.70509 -0.0741,-0.815121 -1.037426,-3.038174 -1.482037,-3.482785 -0.444609,-0.444611 -1.259729,-1.037426 -1.259729,-1.037426 0,0 0.296407,-0.592812 0.518713,-0.963321 0.222305,-0.370509 0.815117,-1.333833 0.741016,-2.148954 -0.0741,-0.815118 -0.444609,-2.741766 -0.741016,-3.186377 -0.296408,-0.444611 -0.666917,-1.333831 -1.259732,-1.852544 -0.592815,-0.518713 -1.259731,-0.963324 -1.259731,-0.963324 0,0 1.482037,-1.926645 1.333833,-3.556886 -0.148204,-1.630238 -0.81512,-2.815868 -1.259732,-3.334581 C 89.640829,66.78061 88.08469,65.44678 88.08469,65.44678 c 0,0 0.222306,-1.18563 0.222306,-1.704343 0,-0.518713 -0.148204,-2.371257 -0.666917,-2.964072 -0.518713,-0.592814 -1.18563,-1.852543 -1.630238,-2.148951 -0.444611,-0.296407 -1.926648,-1.482037 -1.926648,-1.482037 0,0 0.03705,-1.111525 0.03705,-1.426458 0,-0.314934 0.05558,-1.296782 -0.09263,-1.722867 -0.148204,-0.426085 -0.703966,-1.593188 -1.037426,-1.889595 -0.333457,-0.296408 -1.463508,-1.38941 -1.852544,-1.537613 -0.389035,-0.148204 -2.241579,-0.815121 -2.241579,-0.815121 0,0 -0.01852,-0.815117 0,-0.926271 0.01852,-0.111152 0.03705,-0.16673 0.03705,-0.16673 0,0 -0.09262,-1.611712 -0.129678,-1.90812 -0.03705,-0.296407 -0.537239,-1.463511 -0.85217,-1.926648 -0.314933,-0.463134 -1.037426,-1.204153 -1.333833,-1.389409 -0.296407,-0.185253 -1.537613,-0.870696 -1.66729,-0.907746 -0.129678,-0.03705 -0.778069,-0.05557 -0.778069,-0.05557 0,0 0.03705,-0.574289 -0.03705,-0.833647 -0.0741,-0.259355 -0.277881,-1.352357 -0.389033,-1.741392 -0.111154,-0.389033 -0.537239,-1.685817 -0.963324,-2.223053 -0.426085,-0.537239 -1.037426,-1.333833 -1.482034,-1.537613 -0.444611,-0.203779 -0.870696,-0.555762 -1.241205,-0.666917 -0.37051,-0.111151 -1.852547,-0.333457 -1.852547,-0.333457 0,0 0,-1.111527 -0.01852,-1.370883 -0.01852,-0.259357 -0.12968,-1.000373 -0.259357,-1.333833 -0.129678,-0.333457 -0.592815,-1.556136 -0.815121,-1.889596 -0.222305,-0.333457 -0.703966,-1.074475 -0.963321,-1.259729 -0.259358,-0.185256 -0.833647,-0.796594 -1.000377,-0.889222 -0.166727,-0.09263 -0.203779,-0.129678 -0.203779,-0.129678 L 63.723727,27.72897 c 0,0 -0.148204,-0.666916 -0.20378,-0.981847 -0.05558,-0.314934 -0.296407,-0.870696 -0.407559,-1.167104 -0.111154,-0.296407 -0.574288,-0.944798 -0.833646,-1.22268 -0.259355,-0.277882 -0.68544,-0.629865 -0.981848,-0.778069 -0.296407,-0.148203 -0.426085,-0.296407 -0.852172,-0.44461 -0.426085,-0.148204 -0.407559,-0.148204 -1.093002,-0.240831 -0.68544,-0.09263 -1.000374,-0.111153 -1.352357,-0.111153 -0.351983,0 -0.907746,0.111153 -0.907746,0.111153 0,0 -0.185256,-0.314933 -0.407561,-0.555764 -0.222306,-0.24083 -0.759542,-0.666916 -1.0189,-0.796594 -0.259355,-0.129678 -0.68544,-0.389034 -1.148577,-0.518713 -0.463135,-0.129678 -0.85217,-0.24083 -1.333831,-0.259356 -0.481663,-0.01853 -1.130054,0.20378 -1.407935,0.314933 -0.277882,0.111153 -0.611341,0.240831 -1.000374,0.444611 -0.389035,0.20378 -1.167103,0.815119 -1.167103,0.815119 l -0.574289,-0.407559 c 0,0 -0.277881,-0.314933 -0.666917,-0.500188 -0.389035,-0.185254 -0.889222,-0.463136 -1.278255,-0.555763 -0.389035,-0.09263 -0.907748,-0.351984 -1.352359,-0.351984 -0.444611,0 -1.05595,0.111153 -1.407933,0.259357 -0.351983,0.148203 -1.241205,0.481661 -1.463511,0.629865 -0.222305,0.148204 -0.833646,0.555763 -0.907748,0.666916 -0.0741,0.111153 -0.500187,0.314933 -0.629865,0.555764 -0.129677,0.24083 -0.592814,0.741017 -0.592814,0.741017 0,0 -0.314931,-0.05558 -0.85217,-0.129678 -0.537237,-0.0741 -1.000374,-0.185254 -1.500561,-0.129678 -0.500187,0.05558 -1.370883,0.185255 -1.722866,0.351984 -0.351986,0.166729 -1.074478,0.574288 -1.333833,0.833645 -0.259356,0.259356 -0.703967,0.703968 -0.85217,1.000375 -0.148204,0.296407 -0.574289,1.055949 -0.574289,1.055949 0,0 -0.537239,-0.09263 -1.000376,-0.09263 -0.463135,0 -1.834018,-0.01852 -2.130425,0.05558 -0.296408,0.0741 -1.722867,0.592812 -2.074852,0.778068 -0.351983,0.185253 -1.167102,0.963324 -1.241204,1.074475 -0.0741,0.111155 -0.61134,0.722493 -0.778069,1.111528 -0.166729,0.389033 -1.196706,1.371973 -1.196706,1.371973 0,0 -0.08155,1.073386 -0.396483,1.369793 -0.314932,0.296408 -1.482035,1.130051 -1.834019,1.556136 -0.351983,0.426088 -1.315307,1.871073 -1.482036,2.186004 -0.166729,0.314933 -0.20378,1.852546 -0.111152,2.167477 0.09263,0.314934 0.314932,1.130054 0.500187,1.407935 0.185254,0.277882 0.778069,1.278255 0.778069,1.278255 0,0 -0.537238,0.741019 -0.685442,0.963324 -0.148204,0.222306 -0.666916,1.093002 -0.759544,1.370883 -0.09263,0.277882 -0.389034,1.167104 -0.500187,1.537613 -0.111152,0.370509 0.09263,1.574662 0.277882,2.000747 0.185255,0.426085 0.741018,1.167104 1.055951,1.537613 0.314932,0.37051 1.111527,0.981848 1.25973,1.111528 0.148204,0.129678 0.852171,0.500187 0.852171,0.500187 l -0.351984,0.981847 c 0,0 -0.277881,0.722493 -0.351983,1.18563 -0.0741,0.463135 0.05558,1.741392 0.222305,2.093376 0.166729,0.351983 0.666916,1.315307 0.963323,1.648764 0.296408,0.333459 0.907747,0.81512 1.296782,1.037426 0.389034,0.222305 1.055951,0.518713 1.296781,0.64839 0.240831,0.129678 1.38941,0.444611 1.38941,0.444611 0,0 0.03705,0.778069 0.01852,0.981848 -0.01852,0.203782 0.03705,0.926274 0.09263,1.222679 0.05558,0.296408 0.407561,1.14858 0.574288,1.574665 0.16673,0.426085 1.093002,1.352357 1.370883,1.574663 0.277882,0.222305 1.241206,0.944798 1.519087,0.981847 0.277884,0.03705 0.870696,0.389036 1.130054,0.444611 0.259355,0.05558 1.315307,0.33346 1.315307,0.33346 0,0 -0.111154,0.833644 -0.111154,1.074476 0,0.240831 -0.203779,0.963324 -0.111151,1.389409 0.09263,0.426085 0.389032,1.50056 0.592812,1.852543 0.203782,0.351983 0.926274,1.111528 1.259731,1.333834 0.33346,0.222305 0.98185,0.592815 1.222679,0.741018 0.240832,0.148201 0.870697,0.463135 1.148578,0.500187 0.277884,0.03705 0.889222,0.222306 0.889222,0.222306 0,0 -0.0741,0.426085 -0.185253,0.741016 -0.111154,0.314933 -0.12968,0.870696 -0.148204,1.130053 -0.01852,0.259356 0.05558,0.722493 0.111152,1.037424 0.05557,0.314933 0.314933,0.944798 0.444611,1.296783 0.129677,0.351984 0.537239,0.796595 0.778068,1.018898 0.240831,0.222305 1.130054,0.703969 1.407935,0.870696 0.277881,0.16673 0.926272,0.333459 1.241205,0.426087 0.314931,0.09263 1.167104,0.296405 1.167104,0.296405 0,0 -0.33346,0.629867 -0.33346,1.055952 0,0.426085 0,1.0189 0.03705,1.278255 0.03705,0.259358 0.148204,1.074476 0.222306,1.426462 0.0741,0.351983 0.314931,1.055949 0.481661,1.370883 0.16673,0.31493 0.778068,0.981847 1.093001,1.296781 0.314934,0.314931 1.0189,0.833644 1.204154,0.963324 0.185256,0.129677 1.259731,0.611338 1.259731,0.611338 0,0 -0.111151,0.703966 -0.240832,1.093002 -0.129677,0.389035 -0.03705,1.759918 -0.05557,2.093375 -0.01852,0.33346 0.16673,0.944798 0.277881,1.222679 0.111154,0.277882 0.407561,1.148578 0.611341,1.389409 0.203779,0.240832 0.629864,0.85217 0.963324,1.167104 0.333457,0.314933 0.926272,0.85217 1.167101,0.944798 0.240832,0.09263 0.833646,0.481661 0.833646,0.481661 0,0 0,0.685442 -0.148203,0.907748 -0.148204,0.222306 -0.351983,0.944798 -0.351983,1.222679 0,0.277882 -0.05558,1.315301 0.05557,1.611711 0.111152,0.29641 0.574289,1.444981 0.759545,1.926651 0.185253,0.48166 0.666914,1.093 1.000374,1.37088 0.333457,0.27788 0.759542,0.75954 0.963321,0.87069 0.203782,0.11116 0.666917,0.44462 0.666917,0.44462 0,0 -0.185254,0.55576 -0.314931,0.92627 -0.12968,0.37051 -0.203782,1.20415 -0.203782,1.46351 0,0.25935 0.03705,0.87069 0.12968,1.1671 0.09262,0.29641 0.314931,1.07448 0.537236,1.42646 0.222306,0.35198 0.648391,0.90775 0.85217,1.18563 0.203783,0.27788 0.611341,0.72249 0.833647,0.8707 0.222306,0.1482 1.093002,0.81512 1.093002,0.81512 0,0 0.09263,0.51871 0.01852,0.98184 -0.0741,0.46314 0.03705,1.33384 0.09263,1.57467 0.05558,0.24083 0.333459,0.94479 0.481663,1.20415 0.148204,0.25936 0.574289,0.8707 0.815118,1.16711 0.240832,0.2964 0.833646,0.75954 1.093002,0.96332 0.259357,0.20378 0.98185,0.57429 1.278257,0.72249 0.296408,0.1482 0.741019,0.27788 0.944798,0.37051 0.20378,0.0926 0.981848,0.2223 0.981848,0.2223 0,0 -0.03705,0.48167 0.111154,0.7966 0.148204,0.31493 0.222305,0.79659 0.370506,1.0189 0.148204,0.2223 0.53724,0.66692 0.759545,0.85217 0.222306,0.18525 0.907746,0.59281 1.204153,0.68544 0.296408,0.0926 0.648391,0.27788 1.111528,0.38904 0.463137,0.11115 0.833647,0.18525 1.315307,0.25935 0.481661,0.0741 1.815493,0.11115 2.074851,0.11115 0.555762,0 -0.608446,-6.24434 -0.608446,-6.24434 0,0 -1.194308,-4.00892 -1.945078,-6.15733 0.192393,-3.30116 -0.209589,-4.38178 -2.724688,-6.13711 0.471578,-3.14387 -0.517818,-5.071841 -2.246948,-6.434182 z"
           id="path1461"
           sodipodi:nodetypes="cccccccsscsssscsscssscsssscscsssscssssscsssssccssssssscssssssccssssssscssssscssssscssssscssssssccssssscsssssscsssssscssssssscsssssscsssssscsssssscsssssscssssssccssscssscccc"
           clip-path="url(#clipPath1465)" /><g
           id="g9502"><path
             style="opacity:1;fill:#065b96;fill-opacity:1;stroke:none;stroke-width:0.264583;filter:url(#filter6782)"
             d="m 34.901944,32.456585 c 0,0 -1.037424,0.741019 -1.407933,0.963324 -0.370509,0.222306 -0.81512,0.815121 -0.889222,1.111528 -0.0741,0.296405 -0.296407,1.407933 -0.296407,1.407933 l 0.222305,0.222305 c 0,0 0.222306,-0.296407 0.370509,-0.666916 0.148204,-0.37051 0.222306,-0.963322 0.444611,-1.259729 0.222306,-0.296408 0.666917,-0.889223 0.963325,-1.037426 0.296407,-0.148204 0.592812,-0.741019 0.592812,-0.741019 z"
             id="path5743" /><path
             style="opacity:1;fill:#065b96;fill-opacity:1;stroke:none;stroke-width:0.264583;filter:url(#filter6798)"
             d="m 25.342813,51.574848 c 0,0 -0.481661,0.963324 -0.407559,1.185629 0.0741,0.222306 0.259356,0.963324 0.370509,1.259732 0.111152,0.296407 0.370509,0.889219 0.555763,1.074475 0.185255,0.185254 0.592814,0.703967 0.889222,0.85217 0.296407,0.148204 0.81512,0.370509 0.81512,0.370509 0,0 0.296408,-0.333457 -0.03705,-0.48166 -0.333457,-0.148204 -0.778068,-0.444611 -0.963324,-0.741019 -0.185253,-0.296407 -0.44461,-0.703966 -0.592813,-1.037426 -0.148204,-0.333457 -0.296407,-0.629864 -0.370509,-0.963324 -0.0741,-0.333457 -0.148204,-0.407559 -0.148204,-0.741016 0,-0.333459 -0.111153,-0.77807 -0.111153,-0.77807 z"
             id="path6774" /><path
             style="opacity:1;fill:#065b96;fill-opacity:1;stroke:none;stroke-width:0.264583;filter:url(#filter6794)"
             d="m 40.896547,57.847261 c -0.266912,0.22953 -0.383992,0.455572 -0.567336,0.764589 -0.156544,0.214904 -0.268692,0.582516 -0.354619,0.858373 -0.101477,0.579596 -0.144296,1.171231 -0.114388,1.758919 0.03636,0.395943 0.09718,0.78925 0.131597,1.185374 0.02356,0.173916 0.236792,0.340855 0.408302,0.269635 0.124359,-0.125013 0.035,-0.495235 0.04685,-0.647841 -0.04237,-0.429692 -0.08364,-0.682102 -0.05994,-1.106735 0.0278,-0.466847 -0.0014,-0.805355 0.100656,-1.411792 0.0577,-0.360748 0.162763,-0.859083 0.234894,-1.081153 0.0276,-0.164597 0.174317,-0.503416 0.174017,-0.589369 z"
             id="path6776"
             sodipodi:nodetypes="cccccccccccc" /><path
             style="opacity:1;fill:#065b96;fill-opacity:1;stroke:none;stroke-width:0.264583;filter:url(#filter6790)"
             d="m 44.394104,43.464043 c 0,0 0.419184,-0.144095 0.510881,-0.170294 0.0917,-0.02619 0.523978,-0.0786 0.641874,-0.0917 0.117895,-0.0131 0.694272,0 0.799068,0.0131 0.104793,0.0131 0.275087,0.0786 0.47158,0.170294 0.196493,0.0917 0.48468,0.366784 0.641874,0.458481 0.157194,0.0917 0.27509,0.314388 0.340585,0.432284 0.0655,0.117893 0.183393,0.248888 0.157194,0.366784 -0.02619,0.117895 -0.19649,0.144095 -0.288187,-0.02619 -0.0917,-0.170294 -0.353687,-0.366784 -0.458483,-0.48468 -0.104796,-0.117895 -0.48468,-0.353687 -0.602575,-0.419184 -0.117896,-0.06549 -0.327486,-0.06549 -0.563277,-0.07859 -0.235791,-0.0131 -0.681173,-0.0393 -0.75977,-0.0393 -0.0786,0 -0.419182,-0.02619 -0.523978,0.0131 -0.104796,0.0393 -0.353687,0.02619 -0.353687,0.02619 z"
             id="path6778" /><path
             style="opacity:1;fill:#065b96;fill-opacity:1;stroke:none;stroke-width:0.264583;filter:url(#filter6786)"
             d="m 54.353666,27.269461 c 0.208164,-0.08178 0.388746,-0.06562 0.662216,-0.02162 0.612584,0.17477 1.146309,0.622716 1.49731,1.071893 0.185337,0.200081 0.34806,0.419141 0.489375,0.652147 0.118627,0.178473 0.188933,0.381626 0.27693,0.575387 0.06062,0.148 0.05078,0.324064 -0.02783,0.462362 -0.111805,0.163821 -0.183913,-0.06528 -0.21932,-0.158801 -0.14675,-0.3123 -0.342366,-0.642024 -0.511543,-0.941684 -0.259066,-0.377758 -0.507908,-0.622575 -0.819638,-0.954342 -0.329063,-0.297658 -0.765798,-0.436825 -1.127781,-0.533334 -0.08668,-0.02655 -0.161512,-0.08356 -0.219723,-0.152008 z"
             id="path6780"
             sodipodi:nodetypes="scccccccccss" /><path
             style="opacity:1;fill:#065b96;fill-opacity:1;stroke:none;stroke-width:0.264583;filter:url(#filter6929)"
             d="m 63.401437,44.878786 c 0,0 0.628774,0.18339 0.812167,0.392983 0.183391,0.209592 0.550177,0.628774 0.681173,0.838366 0.130992,0.209593 0.340585,0.916964 0.340585,0.916964 0,0 0.157194,0.445381 0.130995,0.707372 -0.02619,0.261988 -0.0786,0.654973 -0.209593,0.707371 -0.130995,0.0524 -0.261987,-0.157194 -0.288186,-0.55018 -0.02619,-0.392983 -0.183394,-0.707371 -0.235792,-0.995558 -0.0524,-0.288189 0,-0.392986 -0.209592,-0.681172 -0.20959,-0.28819 -0.550177,-0.654974 -0.654973,-0.733571 -0.104797,-0.0786 -0.366784,-0.235791 -0.445382,-0.340587 -0.0786,-0.104797 0.0786,-0.261988 0.0786,-0.261988 z"
             id="path6901" /><path
             style="opacity:1;fill:#065b96;fill-opacity:1;stroke:none;stroke-width:0.264583;filter:url(#filter6921)"
             d="m 72.885453,55.35836 c 0.104796,0 0.340584,0.130995 0.497779,0.183393 0.157194,0.0524 0.392985,0.392986 0.471582,0.523979 0.07859,0.130995 0.183391,0.392985 0.235789,0.550179 0.0524,0.157192 0.104796,0.523979 0.104796,0.654974 0,0.130992 -0.02619,0.654973 -0.235791,0.445381 -0.20959,-0.209593 -0.130993,-0.392983 -0.20959,-0.654974 -0.0786,-0.26199 -0.0524,-0.288189 -0.209592,-0.628774 -0.157194,-0.340587 -0.209592,-0.550177 -0.366784,-0.602575 -0.288812,-0.12339 -0.316469,-0.188791 -0.288189,-0.471583 z"
             id="path6903"
             sodipodi:nodetypes="cssssssscc" /><path
             style="opacity:1;fill:#065b96;fill-opacity:1;stroke:none;stroke-width:0.264583;filter:url(#filter6917)"
             d="m 61.8033,62.903655 c 0.104797,-0.235789 0.130996,-0.47158 0.28819,-0.628775 0.157191,-0.157191 0.419182,-0.366783 0.602575,-0.445381 0.183393,-0.0786 0.366784,-0.183393 0.602575,-0.183393 0.463351,-0.146979 1.099047,0.391524 0.812168,0.471583 -0.366786,-0.05239 -0.736883,-0.01309 -0.864566,0.0262 -0.340587,0.104787 -0.681172,0.445384 -0.681172,0.445384 0,0 -0.183393,0.157197 -0.340588,0.288189 -0.171961,0.143297 -0.419182,0.02619 -0.419182,0.02619 z"
             id="path6905"
             sodipodi:nodetypes="sssccscscs" /><path
             style="opacity:1;fill:#065b96;fill-opacity:1;stroke:none;stroke-width:0.264583;filter:url(#filter6925)"
             d="m 47.388097,73.175521 -0.259355,0.555765 0.111151,0.592815 0.592815,0.741015 0.444611,0.407562 0.592815,0.185253 c 0,0 0.259355,-0.148203 0,-0.296407 C 48.610776,75.21332 48.351421,75.065116 48.203217,74.879863 48.055013,74.694607 47.86976,74.36115 47.758606,74.212946 47.647455,74.064743 47.5363,73.657184 47.5363,73.657184 Z"
             id="path6907" /><path
             style="opacity:1;fill:#065b96;fill-opacity:1;stroke:none;stroke-width:0.264583;filter:url(#filter6933)"
             d="m 55.279938,83.401568 c 0,0 -0.629865,0.37051 -0.629865,0.703969 0,0.333457 -0.0741,0.703967 -0.0741,0.963322 0,0.259358 0.03705,0.629867 0.185254,0.889222 0.148203,0.259355 0.148203,0.518713 0.407561,0.741018 0.259355,0.222306 0.444611,0.444612 0.629865,0.407559 0.185255,-0.03705 0.444611,-0.0741 0.111154,-0.370509 -0.33346,-0.296407 -0.444612,-0.444611 -0.555766,-0.889219 -0.111151,-0.444612 -0.259355,-0.666917 -0.259355,-1.037426 0,-0.37051 0,-0.296408 0.0741,-0.592815 0.0741,-0.296408 0.111152,-0.815121 0.111152,-0.815121 z"
             id="path6911" /><path
             style="opacity:1;fill:#065b96;fill-opacity:1;stroke:none;stroke-width:0.264583;filter:url(#filter6937)"
             d="m 80.326345,70.137347 c 0.222306,-0.111151 0.444612,-0.03705 0.815118,0.03705 0.370509,0.0741 1.074478,0.407559 1.259732,0.481661 0.185256,0.0741 0.444611,0.296408 0.703966,0.481661 0.259358,0.185256 0.33346,0.185256 0.481663,0.518713 0.148204,0.33346 0.296408,0.778071 0.296408,0.778071 0,0 -0.222306,-0.148204 -0.555766,-0.444611 -0.333457,-0.296408 -0.666916,-0.555766 -0.852169,-0.666917 -0.185254,-0.111154 -0.333458,-0.185256 -0.333458,-0.185256 0,0 -0.03705,-0.03705 -0.518712,-0.222303 -0.481664,-0.185256 -0.33346,-0.185256 -0.815121,-0.33346 -0.481661,-0.148203 -0.481661,-0.444611 -0.481661,-0.444611 z"
             id="path6913" /><path
             style="opacity:1;fill:#065b96;fill-opacity:1;stroke:none;stroke-width:0.248587;filter:url(#filter6941)"
             d="m 81.09206,80.909896 c -0.09806,0.183412 0.03705,0.547711 0.03705,0.721764 0,0.174055 -0.192881,0.554735 -0.313297,0.647363 -0.09263,0.08336 -0.427596,0.341387 -0.705479,0.443277 -0.268618,0.08337 -0.691738,0.09323 -0.821416,0.213647 0.08336,0.138941 0.245917,0.197665 0.419969,0.197665 0.174056,0 0.563696,-0.139244 0.772561,-0.243675 0.208866,-0.104434 0.578343,-0.396966 0.578343,-0.396966 0,0 0.199906,-0.304337 0.292533,-0.540991 0.07613,-0.194497 0.09293,-0.343325 0.05812,-0.621812 -0.03481,-0.278487 -0.160916,-0.411009 -0.318384,-0.420272 z"
             id="path6915"
             sodipodi:nodetypes="cscccsscsscc" /><path
             style="opacity:1;fill:#065b96;fill-opacity:1;stroke:none;stroke-width:0.264583;filter:url(#filter7085)"
             d="m 62.746463,93.713611 c 0.02619,0.130993 0.0786,0.654973 0.0786,0.969359 0,0.314389 -0.209592,0.812168 -0.314388,1.178954 -0.104796,0.366784 -0.523978,0.96936 -0.681173,1.205151 -0.157194,0.235789 -0.576376,0.628774 -0.759769,0.707372 -0.183393,0.0786 -0.497779,0.235788 -0.392983,0 0.104796,-0.235792 0.104796,-0.28819 0.340585,-0.523979 0.235791,-0.235791 0.419184,-0.340587 0.576376,-0.628777 0.157194,-0.288186 0.209592,-0.523978 0.340588,-0.812165 0.130995,-0.288189 0.288186,-0.576379 0.288186,-0.838366 0,-0.261991 -0.07859,-0.183394 0,-0.654974 0.0786,-0.471582 0.523981,-0.602575 0.523981,-0.602575 z"
             id="path7065" /><path
             style="opacity:1;fill:#065b96;fill-opacity:1;stroke:none;stroke-width:0.264583;filter:url(#filter7089)"
             d="m 60.755344,100.70873 c 0.183391,0.26199 0.523978,0.44538 0.707371,0.78596 0.183391,0.34059 0.235789,0.36679 0.366784,0.75977 0.130996,0.39299 0.235792,0.57638 0.209593,0.99557 -0.02619,0.41918 0.02619,0.96935 -0.02619,1.15275 -0.0524,0.18339 0.0786,0.39298 -0.183393,0.62877 -0.261991,0.23579 -0.445381,0.34059 -0.419182,-0.13099 0.02619,-0.47158 0.02619,-0.94316 0.0524,-1.15276 0.02619,-0.20959 0.104793,-0.49777 -0.0524,-0.86456 -0.157195,-0.36679 -0.130996,-0.28819 -0.28819,-0.70737 -0.157194,-0.41919 -0.366784,-0.49778 -0.47158,-0.73357 -0.104796,-0.23579 0.104796,-0.73357 0.104796,-0.73357 z"
             id="path7067" /><path
             style="opacity:1;fill:#065b96;fill-opacity:1;stroke:none;stroke-width:0.264583;filter:url(#filter7081)"
             d="m 78.381174,87.588322 c -0.277884,0.370506 -0.537239,0.666914 -0.815121,0.85217 -0.277881,0.185253 -0.64839,0.333457 -0.85217,0.48166 -0.203782,0.148204 -0.629867,0.314934 -0.870696,0.426085 -0.240831,0.111155 -0.778071,0.20378 -1.074478,0.259358 -0.296407,0.05558 -0.833644,0.111152 -1.093002,0.0741 -0.259355,-0.03705 -0.407558,-0.12968 -0.815117,-0.259358 -0.407562,-0.129677 -0.741019,-0.370509 -0.870696,-0.500187 -0.129678,-0.129677 -0.148204,-0.389035 0.148203,-0.240831 0.296408,0.148203 0.481661,0.277884 0.815118,0.333459 0.33346,0.05558 1.093002,0.148204 1.296784,0.111152 0.203779,-0.03705 0.611338,-0.09263 0.833644,-0.148204 0.222305,-0.05558 0.555762,-0.166727 0.666916,-0.222305 0.111152,-0.05558 0.648391,-0.222306 0.778068,-0.296408 0.129678,-0.0741 0.277882,-0.240829 0.500187,-0.370506 0.222306,-0.129681 0.537239,-0.277884 0.648391,-0.407562 0.111154,-0.129678 0.185256,-0.185253 0.407561,-0.240829 0.222306,-0.05558 0.296408,0.148204 0.296408,0.148204 z"
             id="path7073" /><path
             style="opacity:1;fill:#065b96;fill-opacity:1;stroke:none;stroke-width:0.264583;filter:url(#filter7077)"
             d="m 86.087759,86.458268 c 0.259357,0.129677 0.555765,0.333459 0.703968,0.389035 0.148202,0.05558 0.703967,0.426085 0.703967,0.426085 0,0 0.48166,0.444611 0.555762,0.518713 0.0741,0.0741 0.444611,0.481661 0.481661,0.592815 0.03705,0.111151 0.463137,0.426085 0.555765,0.741016 0.09263,0.314933 0.240829,0.574289 0.314931,0.407561 0.0741,-0.166729 0.16673,-0.389035 0.111154,-0.629867 -0.05558,-0.240829 -0.296407,-0.555762 -0.48166,-0.796594 -0.185256,-0.240829 -0.778071,-0.870696 -0.778071,-0.870696 0,0 -0.574289,-0.537237 -0.741016,-0.611338 -0.16673,-0.0741 -0.722493,-0.389036 -0.833647,-0.389036 -0.111151,0 -0.629864,-0.111151 -0.759542,-0.111151 -0.12968,0 0.166728,0.333457 0.166728,0.333457 z"
             id="path7075" /><path
             style="opacity:0.533074;fill:#b6e1ff;fill-opacity:1;stroke:none;stroke-width:0.264583;filter:url(#filter9180)"
             d="m 88.604816,78.465827 c 0.235792,0.183393 0.681173,0.838367 0.75977,0.969359 0.0786,0.130996 0.47158,1.126557 0.47158,1.257552 0,0.130992 0.0262,0.759769 -3e-6,1.021757 -0.02619,0.26199 -0.130997,0.890765 -0.20959,1.02176 -0.0786,0.130993 -0.104798,0.445382 -0.419184,0.864563 -0.327099,0.436132 -0.497779,0.366787 -0.445381,0.183395 0.0524,-0.183393 0.261988,-0.995558 0.261988,-1.126553 0,-0.130995 0.183396,-0.864566 0.183396,-0.995561 0,-0.130995 -0.07861,-0.969359 -0.157196,-1.126553 -0.07859,-0.157195 -0.104794,-0.681174 -0.314386,-1.178952 -0.07402,-0.175785 -0.209593,-0.523981 -0.209593,-0.523981 z"
             id="path7225"
             sodipodi:nodetypes="csssssssssscc"
             transform="matrix(0.88206184,0,0,1,10.426856,0)" /><path
             style="opacity:0.533074;fill:#b6e1ff;fill-opacity:1;stroke:none;stroke-width:0.264583"
             d="m 88.709613,85.565741 c 0.130995,0.0524 0.419182,0.340585 0.550177,0.419182 0.130995,0.0786 0.654973,0.681172 0.654973,0.681172 0,0 0.353688,0.392983 0.406086,0.523978 0.0524,0.130996 0.324895,0.501814 0.353684,0.602576 l 0.157194,0.550177 c 0.03599,0.125955 -0.183393,0.28819 -0.26199,0.130995 -0.0786,-0.157191 -0.275088,-0.602575 -0.353685,-0.759769 -0.0524,-0.104795 -0.261991,-0.366784 -0.392986,-0.602576 -0.130993,-0.235788 -0.510878,-0.641873 -0.510878,-0.641873 L 88.958503,86.102819 88.78821,85.880127 Z"
             id="path9184"
             sodipodi:nodetypes="cscsssssscccc" /><path
             style="opacity:0.533074;fill:#b6e1ff;fill-opacity:1;stroke:none;stroke-width:0.264583"
             d="m 84.963163,67.98625 c 0.291367,0.05081 0.654973,0.340588 0.812168,0.47158 0.157194,0.130996 0.759769,0.707372 0.759769,0.707372 0,0 0.602575,0.681172 0.681173,0.864566 0.0786,0.183393 0.419184,0.785968 0.419184,0.916963 0,0.130996 0.157192,0.864566 0.157192,1.074156 0,0.209592 -0.06775,1.092683 -0.06775,1.223675 0,0.130996 -0.141845,0.793643 -0.246641,1.003235 -0.104796,0.209593 -0.337134,0.673227 -0.550177,0.812168 0,0 -0.07991,-0.143164 -0.03069,-0.329736 0.04279,-0.162204 0.301945,-0.544591 0.348258,-0.933625 l 0.07542,-0.96355 c 0,0 0.02619,-0.550177 0,-0.812167 -0.02619,-0.261988 -0.261991,-1.126554 -0.261991,-1.126554 l -0.445381,-0.890764 -0.628774,-0.75977 -0.628774,-0.576376 -0.261991,-0.340585 c 0,0 -0.09394,-0.164596 -0.130995,-0.340588 z"
             id="path9186"
             sodipodi:nodetypes="cscssssscsccscccccc" /><path
             style="opacity:0.533074;fill:#b6e1ff;fill-opacity:1;stroke:none;stroke-width:0.264583"
             d="m 80.889228,59.864579 c 0.27509,0.0262 0.838367,0.366784 1.00866,0.48468 0.170294,0.117896 0.666072,0.404079 0.838367,0.576376 0.235788,0.235791 0.812165,0.785969 0.903862,0.969362 0.0917,0.183393 0.510464,0.819705 0.589475,1.047956 0.117897,0.340588 0.28819,0.864566 0.301289,1.074158 0.0131,0.209593 0.0262,0.406082 -0.0262,0.720471 -0.0524,0.314386 -0.0393,0.458481 -0.130998,0.49778 -0.0917,0.0393 -0.144095,-0.02619 -0.196491,-0.458481 -0.0524,-0.432284 -0.0655,-0.74667 -0.170293,-1.047959 -0.104797,-0.301286 -0.170295,-0.641873 -0.340589,-0.956259 -0.170291,-0.314389 -0.353683,-0.654974 -0.602574,-0.903865 -0.248889,-0.248891 -0.510879,-0.45848 -0.694272,-0.628774 -0.183393,-0.170294 -0.615675,-0.510878 -0.668073,-0.550177 -0.0524,-0.0393 -0.314386,-0.222692 -0.497779,-0.366787 -0.183394,-0.144094 -0.366787,-0.327486 -0.314389,-0.458481 z"
             id="path9192"
             sodipodi:nodetypes="csssssssssssssscc" /><path
             style="opacity:0.533074;fill:#b6e1ff;fill-opacity:1;stroke:none;stroke-width:0.264583"
             d="m 74.221598,46.398325 c 0.201413,0.220596 0.45848,0.537077 0.576376,0.746667 0.117896,0.209592 0.239476,0.490395 0.353688,0.668073 0.117886,0.183394 0.209589,0.55018 0.235788,0.720471 0.02619,0.170294 0.02619,0.301289 0.0393,0.55018 0.0131,0.248888 0.0131,0.432282 -0.01311,0.681173 -0.02619,0.248888 -0.01309,0.366783 -0.157192,0.392982 -0.184533,0.03355 -0.144095,-0.0655 -0.104797,-0.406082 0.0393,-0.340587 0.0131,-0.392986 -0.0524,-0.825267 -0.05473,-0.361258 -0.222691,-0.733571 -0.288189,-0.916964 -0.0655,-0.183393 -0.275087,-0.576376 -0.419182,-0.772869 -0.144095,-0.19649 -0.288189,-0.432282 -0.419185,-0.615675 -0.130992,-0.183393 -0.327485,-0.379884 -0.445381,-0.550177 -0.203848,-0.491655 0.551358,0.172277 0.694284,0.327488 z"
             id="path9332"
             sodipodi:nodetypes="csssscsssssscc" /><path
             style="opacity:0.533074;fill:#b6e1ff;fill-opacity:1;stroke:none;stroke-width:0.264583"
             d="m 61.337761,30.418786 c 0.259355,0 0.64839,0.277881 0.926272,0.500186 0.277881,0.222306 0.611338,0.500187 0.81512,0.778071 0.203779,0.277882 0.666914,0.88922 0.85217,1.22268 0.185253,0.333457 0.500187,0.889222 0.574289,1.130051 0.0741,0.240831 0.296408,0.833645 0.277882,1.148579 -0.01852,0.314931 0.111147,0.685441 0.01853,0.852171 -0.09263,0.166727 -0.314933,0.240829 -0.333457,-0.16673 -0.01852,-0.407559 -0.09262,-0.833646 -0.148204,-1.204153 -0.05053,-0.336819 -0.259357,-0.741019 -0.389035,-1.0189 -0.34855,-0.690037 -0.766405,-1.295856 -1.25973,-1.834021 -0.222306,-0.296408 -0.629866,-0.537238 -0.852172,-0.685442 -0.222305,-0.148204 -0.387783,-0.206845 -0.518713,-0.370509 -0.222305,-0.277882 0.03705,-0.351983 0.03705,-0.351983 z"
             id="path9473"
             sodipodi:nodetypes="sssssssssccsscs" /><path
             style="opacity:0.533074;fill:#b6e1ff;fill-opacity:1;stroke:none;stroke-width:0.264583"
             d="m 49.110963,24.120134 c 0.148204,-0.148204 0.351985,-0.240831 0.57429,-0.351984 0.222306,-0.111153 0.629866,-0.277881 0.889221,-0.296407 0.259358,-0.01853 0.592815,-0.01853 0.81512,0.01853 0.222306,0.03705 0.666917,0.148204 0.870696,0.296408 0.20378,0.148203 0.379448,0.261374 0.518713,0.389034 0.222305,0.203781 0.240829,0.444611 -0.0741,0.259356 -0.314933,-0.185254 -0.537239,-0.351983 -0.741018,-0.463136 -0.20378,-0.111153 -0.574289,-0.185254 -0.796594,-0.185254 -0.222306,0 -0.511967,0.02167 -0.796593,0.05558 -0.285575,0.03402 -0.444613,0.0741 -0.666918,0.148204 -0.196491,0.0655 -0.444611,0.24083 -0.444611,0.24083 -0.351984,0.148204 -0.148206,-0.111161 -0.148206,-0.111161 z"
             id="path9477"
             sodipodi:nodetypes="csssssssssscc" /></g></g><g
         id="g1051"
         transform="matrix(0.94548383,0,0,0.93907015,16.440611,3.1694522)"
         style="opacity:1"><circle
           style="opacity:1;fill:#000000;fill-opacity:1;stroke:none;stroke-width:0.37022"
           id="circle1045"
           cx="73.23111"
           cy="101.53799"
           r="8.1697226" /><path
           id="path1047"
           style="opacity:1;fill:#ffffff;fill-opacity:1;stroke:none;stroke-width:0.377946"
           d="m 72.667424,94.229379 c -3.481707,0.252792 -6.491148,3.307045 -6.633137,6.806671 -0.252095,3.46761 2.323317,6.88877 5.759797,7.51947 3.235463,0.71163 6.825068,-1.08672 8.094724,-4.16692 1.306986,-2.85791 0.509787,-6.513631 -1.96156,-8.484929 -1.444753,-1.214185 -3.377641,-1.835401 -5.259824,-1.674292 z" /><path
           id="path1049"
           style="opacity:1;fill:#000000;fill-opacity:1;stroke:none;stroke-width:0.0592538"
           d="m 75.225471,100.10109 c -0.544612,0.0397 -1.015352,0.51966 -1.037562,1.06957 -0.03944,0.5449 0.363416,1.08247 0.900954,1.18158 0.506095,0.11183 1.067583,-0.17077 1.266185,-0.65476 0.20444,-0.44909 0.07974,-1.02353 -0.306829,-1.3333 -0.22599,-0.1908 -0.528334,-0.28841 -0.822748,-0.26309 z" /><path
           style="opacity:1;fill:#000000;fill-opacity:1;stroke:none;stroke-width:0.188785px;stroke-linecap:butt;stroke-linejoin:miter;stroke-opacity:1"
           d="m 91.972611,95.498663 -0.08315,-0.443835 c 0,0 1.334317,-1.318623 1.891637,-2.166032 -0.302365,1.229109 -1.808488,2.609867 -1.808487,2.609867 z"
           id="path1053"
           sodipodi:nodetypes="cccc"
           transform="matrix(1.0576596,0,0,1.0648832,-17.388569,-3.3750964)" /><path
           style="opacity:1;fill:#000000;fill-opacity:1;stroke:none;stroke-width:0.159889px;stroke-linecap:butt;stroke-linejoin:miter;stroke-opacity:1"
           d="m 90.087071,92.959092 -0.229299,-0.316327 c 0,0 0.462149,-1.558021 0.542108,-2.441926 0.249882,1.084231 -0.31281,2.758254 -0.312809,2.758253 z"
           id="path1055"
           sodipodi:nodetypes="cccc"
           transform="matrix(1.0576596,0,0,1.0648832,-17.388569,-3.3750964)" /><path
           style="opacity:1;fill:#000000;fill-opacity:1;stroke:none;stroke-width:0.199142px;stroke-linecap:butt;stroke-linejoin:miter;stroke-opacity:1"
           d="m 86.161047,91.566927 -0.416462,-0.179026 c 0,0 0.194388,-1.791716 0.04754,-2.704014 0.671085,0.920114 0.368917,2.88304 0.368917,2.88304 z"
           id="path1057"
           sodipodi:nodetypes="cccc"
           transform="matrix(1.0576596,0,0,1.0648832,-17.388569,-3.3750964)" /><path
           style="opacity:1;fill:#000000;fill-opacity:1;stroke:none;stroke-width:0.195462px;stroke-linecap:butt;stroke-linejoin:miter;stroke-opacity:1"
           d="m 81.375207,92.69165 0.23803,-0.323015 c 0,0 -1.214318,-1.512997 -1.629948,-2.380283 -0.01199,1.080885 1.391908,2.703292 1.391908,2.703292 z"
           id="path1059"
           sodipodi:nodetypes="cccc"
           transform="matrix(1.0576596,0,0,1.0648832,-17.388569,-3.3750964)" /></g><g
         id="g3191"
         style="display:inline"><path
           style="opacity:1;fill:#000000;fill-opacity:1;stroke-width:0.264583"
           d="m 80.882108,103.18675 c 1.014429,9.6e-4 2.00304,-0.28889 2.968703,-0.57429 1.194418,-0.44363 2.358631,-1.0738 3.654197,-1.15487 0.78855,-0.0576 1.48994,0.39678 2.106484,0.83216 0.455316,0.36912 0.754425,0.90784 0.956872,1.45048 0.148695,0.92313 -0.02817,1.88031 -0.334214,2.75593 -0.334305,0.89475 -0.933515,1.85111 -1.922107,2.08955 -0.799821,0.10399 -1.748883,0.0855 -2.340364,-0.54053 -0.257117,-0.42956 -0.535747,-0.8577 -0.952799,-1.15478 -1.156752,-0.90696 -2.5307,-1.46767 -3.856929,-2.0732 -0.21875,-0.14347 -0.760788,-0.0967 -0.556276,-0.46326 0.09214,-0.38906 0.184289,-0.77813 0.276433,-1.16719 z"
           id="path1877"
           sodipodi:nodetypes="cccsscccscc" /><path
           style="opacity:1;fill:#e4c116;fill-opacity:1;stroke-width:0.224532"
           d="m 80.999691,103.64929 c 1.036434,-0.06 2.094316,-0.13376 3.064447,-0.53793 1.204582,-0.44728 2.44284,-1.01835 3.760401,-0.888 0.5151,0.10592 1.020136,0.32049 1.436462,0.64316 0.498621,0.46339 0.870314,1.14442 0.73248,1.84224 -0.12366,1.09971 -0.464386,2.27251 -1.354405,2.9989 -0.57526,0.475 -1.359571,0.57365 -2.075768,0.46167 -0.388458,0.0327 -0.754793,-0.11024 -1.074137,-0.32042 -1.312805,-0.81356 -2.486529,-1.82582 -3.748366,-2.71165 -0.288005,-0.20723 -0.856688,-0.20691 -1.026527,-0.4358 0.09514,-0.35073 0.190275,-0.70145 0.285413,-1.05217 z"
           id="path2635"
           sodipodi:nodetypes="ccssscsscc" /></g><g
         id="g1041"
         style="opacity:1"><circle
           style="opacity:0.568507;fill:#000000;fill-opacity:1;stroke:none;stroke-width:0.37022;filter:url(#filter1033)"
           id="circle1031"
           cx="73.305214"
           cy="102.0567"
           r="8.1697226" /><circle
           style="opacity:1;fill:#000000;fill-opacity:1;stroke:none;stroke-width:0.37022"
           id="path1002"
           cx="73.23111"
           cy="101.53799"
           r="8.1697226" /><path
           id="circle1008"
           style="opacity:1;fill:#ffffff;fill-opacity:1;stroke:none;stroke-width:0.377946"
           d="m 72.667424,94.229379 c -3.481707,0.252792 -6.491148,3.307045 -6.633137,6.806671 -0.252095,3.46761 2.323317,6.88877 5.759797,7.51947 3.235463,0.71163 6.825068,-1.08672 8.094724,-4.16692 1.306986,-2.85791 0.509787,-6.513631 -1.96156,-8.484929 -1.444753,-1.214185 -3.377641,-1.835401 -5.259824,-1.674292 z" /><path
           id="path1012"
           style="opacity:1;fill:#000000;fill-opacity:1;stroke:none;stroke-width:0.0592538"
           d="m 74.319453,100.69213 c -0.544612,0.0397 -1.015352,0.51966 -1.037562,1.06957 -0.03944,0.5449 0.363416,1.08247 0.900954,1.18158 0.506095,0.11183 1.067583,-0.17077 1.266185,-0.65476 0.20444,-0.44909 0.07974,-1.02353 -0.306829,-1.3333 -0.22599,-0.1908 -0.528334,-0.28841 -0.822748,-0.26309 z" /><path
           style="opacity:1;fill:#000000;fill-opacity:1;stroke:none;stroke-width:0.215195px;stroke-linecap:butt;stroke-linejoin:miter;stroke-opacity:1"
           d="m 65.571575,102.75051 -0.07982,-0.39801 c 0,0 -2.330329,-0.19436 -3.430567,-0.50683 0.926056,0.76938 3.510376,0.90484 3.510376,0.90484 z"
           id="path948"
           sodipodi:nodetypes="cccc" /><path
           style="opacity:1;fill:#000000;fill-opacity:1;stroke:none;stroke-width:0.236199px;stroke-linecap:butt;stroke-linejoin:miter;stroke-opacity:1"
           d="m 69.638803,94.761903 -0.483094,0.05386 c 0,0 -0.860319,-2.178324 -1.522337,-3.134341 1.144176,0.638423 2.005431,3.080468 2.005431,3.080468 z"
           id="path944"
           sodipodi:nodetypes="cccc" /><path
           style="opacity:1;fill:#000000;fill-opacity:1;stroke:none;stroke-width:0.264583px;stroke-linecap:butt;stroke-linejoin:miter;stroke-opacity:1"
           d="m 75.95434,94.109279 -0.555762,-0.148203 c 0,0 -0.141303,-2.518238 -0.518715,-3.74214 1.030521,1.110305 1.074477,3.890343 1.074477,3.890343 z"
           id="path2655"
           sodipodi:nodetypes="cccc" /><path
           style="opacity:1;fill:#000000;fill-opacity:1;stroke:none;stroke-width:0.236199px;stroke-linecap:butt;stroke-linejoin:miter;stroke-opacity:1"
           d="m 66.098989,98.382649 0.179434,-0.451757 c 0,0 -1.874084,-1.404655 -2.621516,-2.295488 0.313861,1.272091 2.442069,2.747241 2.442069,2.747241 z"
           id="path946"
           sodipodi:nodetypes="cccc" /></g><g
         id="g1098"
         style="display:inline"><path
           style="display:inline;opacity:0.404669;mix-blend-mode:normal;fill:#000000;stroke-width:0.279862;filter:url(#filter1499)"
           d="m 66.615105,112.31409 c 0,0 -0.351745,-0.36679 -1.34836,-0.41919 -1.707038,-0.14115 -3.575785,0.21327 -4.341759,1.85246 -0.175873,0.57637 -0.46544,1.29141 -0.289567,2.12978 0.21062,1.46896 0.8508,2.44279 2.200496,3.28835 0.448271,0.27153 1.714757,0.50308 2.06547,0.52716 0.840196,0.0577 1.959196,0.0832 2.593086,-0.0953 0.351747,-0.10479 -0.879366,-7.2833 -0.879366,-7.2833 z"
           id="path1442"
           sodipodi:nodetypes="cccccsccc"
           transform="matrix(0.94128798,0,0,1,3.9839386,0)" /><path
           style="display:inline;opacity:1;fill:#000000;stroke-width:0.264583"
           d="m 66.49291,111.86948 c 0,0 -0.314386,-0.36679 -1.20515,-0.41919 -1.525734,-0.14115 -3.196002,0.21327 -3.880621,1.85246 -0.157194,0.57637 -0.416006,1.29141 -0.258812,2.12978 0.18825,1.46896 0.760436,2.44279 1.966781,3.28835 0.40066,0.27153 1.532632,0.50308 1.846097,0.52716 0.750959,0.0577 1.751109,0.0832 2.317674,-0.0953 0.314388,-0.10479 -0.785969,-7.2833 -0.785969,-7.2833 z"
           id="path996"
           sodipodi:nodetypes="cccccsccc" /><path
           style="opacity:1;fill:#e3c018;fill-opacity:1;stroke-width:0.227878"
           d="m 67.028169,112.47215 c 0,0 -0.303325,-0.25302 -1.154978,-0.32446 -2.039325,-0.17107 -3.031974,0.25761 -3.499076,0.97488 -0.256958,0.39458 -0.587343,1.28538 -0.468028,2.10744 0.186805,1.28705 0.482573,2.02282 1.569969,2.78606 0.437271,0.30692 1.542853,0.61066 2.121226,0.57476 0.830637,-0.0515 2.048718,-0.13941 2.591695,-0.27758 -0.05618,-1.46835 -0.790488,-4.48975 -1.160808,-5.8411 z"
           id="path1094"
           sodipodi:nodetypes="cssssscc" /><path
           style="display:inline;opacity:1;fill:#000000;fill-opacity:1;stroke-width:0.264583"
           d="m 63.319982,114.35759 c 0.148204,-0.12968 0.314934,-0.18525 0.518713,-0.24083 0.203779,-0.0556 0.963324,-0.037 1.148577,0.037 0.518235,0.15432 1.000489,0.61268 1.130053,0.8707 -0.304503,0.12388 -0.542874,-0.24237 -0.884726,-0.33023 -0.296407,-0.0741 -0.59731,-0.16991 -0.671412,-0.0217 -0.179369,0.48898 -0.02481,1.26299 0.277883,1.74139 0.05558,0.1482 0.148203,0.46313 -0.166728,0.31493 -0.6178,-0.39969 -0.68248,-1.2175 -0.741018,-1.66729 -0.03705,-0.29641 -0.0307,-0.24097 -0.03705,-0.38903 -0.105155,-0.24884 -0.430137,-0.27468 -0.574292,-0.31494 z"
           id="path1163"
           sodipodi:nodetypes="csccccccccc" /></g></g></g></svg>
