<?xml version="1.0" encoding="UTF-8" standalone="no"?>
<!-- Created with Inkscape (http://www.inkscape.org/) -->

<svg
   width="210mm"
   height="297mm"
   viewBox="0 0 210 297"
   version="1.1"
   id="svg135"
   xml:space="preserve"
   inkscape:version="1.2.1 (9c6d41e410, 2022-07-14)"
   sodipodi:docname="(simpsons) bart.svg"
   xmlns:inkscape="http://www.inkscape.org/namespaces/inkscape"
   xmlns:sodipodi="http://sodipodi.sourceforge.net/DTD/sodipodi-0.dtd"
   xmlns="http://www.w3.org/2000/svg"
   xmlns:svg="http://www.w3.org/2000/svg"><sodipodi:namedview
     id="namedview137"
     pagecolor="#ffffff"
     bordercolor="#666666"
     borderopacity="1.0"
     inkscape:showpageshadow="2"
     inkscape:pageopacity="0.0"
     inkscape:pagecheckerboard="0"
     inkscape:deskcolor="#d1d1d1"
     inkscape:document-units="mm"
     showgrid="false"
     inkscape:zoom="0.89263468"
     inkscape:cx="425.14593"
     inkscape:cy="482.8403"
     inkscape:window-width="1607"
     inkscape:window-height="1205"
     inkscape:window-x="1353"
     inkscape:window-y="97"
     inkscape:window-maximized="0"
     inkscape:current-layer="layer1" /><defs
     id="defs132"><filter
       inkscape:collect="always"
       style="color-interpolation-filters:sRGB"
       id="filter6011"
       x="-0.021344175"
       y="-0.26378559"
       width="1.0426884"
       height="1.5275712"><feGaussianBlur
         inkscape:collect="always"
         stdDeviation="0.090092655"
         id="feGaussianBlur6013" /></filter><filter
       inkscape:collect="always"
       style="color-interpolation-filters:sRGB"
       id="filter6034"
       x="-0.011333289"
       y="-0.02613787"
       width="1.0226666"
       height="1.0522757"><feGaussianBlur
         inkscape:collect="always"
         stdDeviation="0.053827756"
         id="feGaussianBlur6036" /></filter><filter
       inkscape:collect="always"
       style="color-interpolation-filters:sRGB"
       id="filter11254"
       x="-0.046366892"
       y="-0.045951864"
       width="1.0927338"
       height="1.0919037"><feGaussianBlur
         inkscape:collect="always"
         stdDeviation="0.47672696"
         id="feGaussianBlur11256" /></filter><clipPath
       clipPathUnits="userSpaceOnUse"
       id="clipPath12859"><path
         id="path12861"
         style="display:inline;fill:#c9aa17;fill-opacity:1;stroke:none;stroke-width:0.264583px;stroke-linecap:butt;stroke-linejoin:miter;stroke-opacity:1"
         d="m 47.851563,14.585938 c -0.587986,1.179798 -1.074375,2.523856 -2.103517,3.390624 -0.773782,0.459762 -1.684216,-0.257904 -1.759564,-1.066005 -0.456912,-0.94399 -1.143238,-1.798719 -2.031452,-2.367588 -0.683459,4.689886 -1.915531,9.277603 -3.000788,13.885685 -1.410922,5.786231 -2.919378,11.547329 -4.440616,17.305721 -1.658035,0.346141 -3.396258,1.823238 -3.046875,3.669921 0.286588,1.526133 1.065294,2.890298 1.841796,4.212892 -2.157661,7.451259 -3.715113,15.057181 -5.448297,22.611535 -0.850509,2.635618 -3.271516,4.445633 -3.851337,7.184874 0.0219,1.460024 1.430993,2.34092 2.48918,3.102219 4.790694,3.105764 10.405988,4.38378 15.974078,5.147312 4.489106,0.570191 9.009269,0.591868 13.548984,0.542711 4.069461,-0.133173 8.109559,-0.843079 12.021768,-2.053495 1.689023,2.165112 2.238311,5.306883 0.923827,7.789061 -4.950627,3.650775 -11.568814,4.461845 -17.461381,3.075645 -0.906463,-0.18501 -1.291252,-1.171063 -1.966071,-1.719277 -0.430239,-0.120383 -0.881465,0.530318 -1.164344,0.874107 -0.687404,0.9239 -0.645782,2.33271 0.316674,3.05711 0.770755,0.83999 2.322539,1.66759 2.824488,1.70023 0.191408,1.96503 0.413639,3.29173 0.720164,5.23094 0.94261,0.8599 2.353517,0.75754 3.545308,0.85457 4.013264,0.0672 7.943287,-0.73981 11.829497,-1.67724 2.323487,-0.57122 4.614834,-1.27053 6.867385,-2.07577 -1.614257,-7.18173 -2.160693,-14.712989 -0.622929,-21.959543 1.30461,-6.587119 3.397546,-12.967874 5.150672,-19.439763 2.856252,-10.088456 6.207223,-20.042841 10.285135,-29.704313 1.063022,-2.576925 2.161207,-5.138531 3.28087,-7.691305 -1.657651,0.454144 -3.370225,1.015003 -4.61982,2.249562 -0.535538,0.491423 -1.311299,-0.122439 -1.104435,-0.768753 0.005,-1.825273 -0.03934,-3.635629 -0.295275,-5.408543 -1.519134,1.243894 -2.924775,2.583124 -4.371094,3.904297 -0.309025,-2.150422 -0.618511,-4.300778 -0.927735,-6.451171 -1.550125,1.175897 -2.9489,2.533028 -4.359375,3.86914 -0.42227,-2.342659 -0.707141,-4.644833 -1.714844,-6.826172 -1.425432,0.961598 -2.464837,2.483455 -4.060547,3.181641 -0.947087,0.251979 -1.566688,-0.792036 -1.558666,-1.616287 -0.358389,-1.508712 -0.813924,-2.921422 -1.27141,-4.393479 -1.218772,1.268334 -2.357742,2.695096 -3.884766,3.603516 -0.833316,0.305939 -1.625275,-0.461655 -1.645166,-1.278135 -0.370803,-1.319665 -0.788456,-2.715416 -1.489602,-3.858584 -1.245409,1.114582 -2.173967,2.5383 -3.356364,3.700417 -0.761402,0.501128 -1.775724,-0.157884 -1.865119,-1.003897 -0.441947,-1.13485 -1.117195,-2.158757 -1.815626,-3.149645 -0.735923,1.317365 -1.499637,2.715596 -2.722655,3.638672 -0.836311,0.423228 -1.759625,-0.3382 -1.853214,-1.189433 -0.335033,-0.998837 -0.744127,-2.009664 -1.469051,-2.792989 z"
         sodipodi:nodetypes="cccccccccccccccccccccccccccccccccccccccccccccccc" /></clipPath></defs><g
     inkscape:label="Layer 1"
     inkscape:groupmode="layer"
     id="layer1"><g
       id="g9603"
       style="display:inline"
       inkscape:label="Bart"><path
         style="display:inline;fill:#ffffff;fill-opacity:1;stroke:none;stroke-width:0.264583px;stroke-linecap:butt;stroke-linejoin:miter;stroke-opacity:1"
         d="m 48.887223,92.482261 2.305508,7.859679 c 0,0 2.462699,0.73358 3.091474,0.73358 0.628777,0 4.715811,0.15719 5.292187,0 0.576377,-0.1572 5.396982,-1.519544 5.71137,-1.62434 0.314386,-0.104796 3.19627,-1.467141 3.301066,-1.676731 0.104796,-0.209592 0.628775,-2.72469 0.628775,-3.24867 0,-0.523979 -0.733571,-3.353464 -0.995561,-3.510659 -0.261988,-0.157191 -0.419182,-0.314385 -0.419182,-0.314385 0,0 -0.785969,0.157194 -1.729132,0.523978 -0.94316,0.366786 -7.492896,1.362345 -8.488455,1.414743 -0.995561,0.0524 -4.19183,0.104796 -5.030197,0.104796 -0.838367,0 -3.667853,-0.261991 -3.667853,-0.261991 z"
         id="path11548" /><path
         style="opacity:0.581114;fill:#a2a2a2;fill-opacity:1;stroke:none;stroke-width:0.264583px;stroke-linecap:butt;stroke-linejoin:miter;stroke-opacity:1"
         d="m 48.782427,92.587058 0.576379,1.624334 c 0,0 5.239787,0.314387 5.763765,0.261989 0.523979,-0.0524 4.715811,-0.104794 5.973361,-0.314386 0.622369,-0.103728 3.738376,-0.516578 5.134992,-0.995559 1.657412,-0.568423 2.515098,-1.047959 2.515098,-1.047959 l -0.838366,-1.309946 c 0,0 -5.763768,1.257548 -6.235348,1.362345 -0.471583,0.104796 -4.715809,0.419182 -5.868564,0.523978 -1.152753,0.104796 -7.021317,-0.104796 -7.021317,-0.104796 z"
         id="path12800"
         sodipodi:nodetypes="ccsssccssc" /><path
         style="display:inline;fill:#000000;fill-opacity:1;stroke:none;stroke-width:0.264583px;stroke-linecap:butt;stroke-linejoin:miter;stroke-opacity:1"
         d="m 33.639441,44.904984 c 0,0 7.597693,-28.347254 7.388101,-31.805514 1.142673,-0.956967 3.929841,2.72469 4.087035,3.825046 0.148203,1.037425 2.264731,-4.567605 2.63524,-4.715809 1.320479,0.04386 2.660437,3.224901 3.128527,4.663411 0.141537,0.434966 2.608156,-4.2266 3.19627,-4.663411 0.926272,0.333458 2.567497,3.248668 3.091477,5.134992 0.204192,0.735091 3.403865,-4.097754 4.200818,-4.259575 0.806582,0.561481 1.824937,3.054424 2.558507,5.674318 0.171875,0.613839 4.450096,-4.648065 4.820605,-4.611014 0.481662,0.222305 1.781528,5.396982 1.991119,6.916521 0.115444,0.836966 3.248671,-2.98668 4.873005,-3.458261 1.414743,2.148314 1.991118,6.130553 1.991118,6.130553 0,0 3.534542,-3.408045 4.453819,-3.615455 0.40756,0.296407 0.890765,6.182952 0.890765,6.182952 0,0 3.44028,-3.378893 4.340035,-3.510659 0.766883,0.342108 0.637765,6.549735 0.637765,6.549735 0.855831,-0.8209 5.197625,-2.873198 6.64554,-2.166293 -9.117232,20.592368 -11.956813,29.764194 -16.286751,45.132558 -3.797971,13.480242 -6.034942,20.400108 -2.567497,35.630551 -10.89876,4.08703 -24.784196,5.92097 -24.627003,1.93873 l -0.314387,-4.50622 c -1.047958,0.15719 -3.690294,-1.45595 -3.929842,-3.30106 -0.193442,-1.48998 0.890764,-3.667857 2.934281,-4.08704 l 1.833926,1.991117 c 10.322383,2.357903 16.505334,-2.724686 16.505334,-2.724686 1.309947,-2.672292 -0.157194,-5.396984 -0.523979,-5.868565 -7.597693,2.253109 -13.086343,2.003264 -19.911196,1.781529 -4.936045,-0.160369 -13.184971,-1.249106 -19.230024,-4.296626 -1.909695,-0.962743 -5.325553,-2.880346 -5.501777,-5.082595 -0.209999,-2.62434 3.466609,-5.687357 4.034636,-8.331263 1.951566,-9.083647 3.877443,-17.343701 5.18739,-21.692725 0,0 -2.098608,-3.297014 -1.781527,-5.344583 0.414897,-2.679224 3.24867,-3.510659 3.24867,-3.510659 z"
         id="path3959"
         sodipodi:nodetypes="ccscscscscscccccccscccsccccsssscsc" /><path
         id="path5094"
         style="display:inline;fill:#c9aa17;fill-opacity:1;stroke:none;stroke-width:0.264583px;stroke-linecap:butt;stroke-linejoin:miter;stroke-opacity:1"
         d="m 47.851562,14.585938 c -0.587986,1.179798 -1.074375,2.523856 -2.103515,3.390624 -0.773784,0.459762 -1.684217,-0.257904 -1.759565,-1.066005 -0.456912,-0.94399 -1.143237,-1.798719 -2.031451,-2.367588 -0.683461,4.689886 -1.915531,9.277603 -3.00079,13.885684 -1.410921,5.786233 -2.919376,11.547331 -4.440616,17.305722 -1.658033,0.346142 -3.396258,1.823239 -3.046875,3.669922 0.28659,1.526132 1.065294,2.890297 1.841797,4.212891 -2.15766,7.451259 -3.715112,15.05718 -5.448298,22.611535 -0.850507,2.635619 -3.271515,4.445633 -3.851336,7.184875 0.0219,1.460023 1.430993,2.340918 2.48918,3.102218 4.790693,3.105763 10.405989,4.38378 15.974077,5.147312 4.489107,0.57019 9.00927,0.591868 13.548985,0.542711 4.069462,-0.133172 8.109558,-0.84308 12.021767,-2.053495 1.689023,2.165113 2.238311,5.306882 0.923828,7.789062 -4.950628,3.650774 -11.568814,4.461844 -17.461381,3.075644 -0.906462,-0.18501 -1.291251,-1.171064 -1.966072,-1.719276 -0.430238,-0.120384 -0.881465,0.530316 -1.164344,0.874106 -0.687402,0.9239 -0.64578,2.33271 0.316675,3.05711 0.770756,0.83999 1.877156,1.03881 3.112676,1.28105 0.191409,1.96503 0.125452,3.71091 0.431977,5.65012 0.942609,0.8599 2.353516,0.75754 3.545307,0.85457 4.013264,0.0672 7.943287,-0.73981 11.829497,-1.67724 2.323487,-0.57122 4.614834,-1.27053 6.867384,-2.07577 -1.614256,-7.18173 -2.160691,-14.71299 -0.622928,-21.959544 1.30461,-6.587117 3.397546,-12.967873 5.150673,-19.439763 2.85625,-10.088455 6.207221,-20.04284 10.285135,-29.704312 1.063021,-2.576926 2.161206,-5.138531 3.28087,-7.691304 -1.657652,0.454142 -3.370226,1.015001 -4.619822,2.249561 -0.535537,0.491423 -1.311298,-0.122439 -1.104433,-0.768752 0.005,-1.825273 -0.03934,-3.63563 -0.295276,-5.408544 -1.519135,1.243894 -2.924776,2.583125 -4.371094,3.904297 -0.309025,-2.150422 -0.618511,-4.300778 -0.927735,-6.451171 -1.550125,1.175897 -2.9489,2.533028 -4.359375,3.86914 -0.42227,-2.342659 -0.707142,-4.644833 -1.714843,-6.826172 -1.425432,0.961598 -2.464837,2.483455 -4.060547,3.181641 -0.947089,0.251979 -1.566688,-0.792036 -1.558667,-1.616287 -0.358388,-1.508712 -0.813924,-2.921422 -1.271411,-4.393479 -1.21877,1.268334 -2.357742,2.695096 -3.884766,3.603516 -0.833316,0.305939 -1.625273,-0.461655 -1.645164,-1.278135 -0.370804,-1.319665 -0.788458,-2.715416 -1.489602,-3.858584 -1.24541,1.114582 -2.173968,2.5383 -3.356364,3.700417 -0.761403,0.501128 -1.775724,-0.157884 -1.865121,-1.003897 -0.441947,-1.13485 -1.117195,-2.158757 -1.815624,-3.149645 -0.735923,1.317365 -1.499638,2.715596 -2.722656,3.638672 -0.836312,0.423228 -1.759624,-0.3382 -1.853213,-1.189433 -0.335035,-0.998837 -0.744128,-2.009664 -1.469053,-2.792989 z"
         sodipodi:nodetypes="cccccccccccccccccccccccccccccccccccccccccccccccc" /><path
         id="path6043"
         style="display:inline;fill:#fbd51f;fill-opacity:1;stroke:none;stroke-width:0.264583px;stroke-linecap:butt;stroke-linejoin:miter;stroke-opacity:1"
         d="m 44.534163,17.687534 c -0.456912,-0.94399 -2.4135,-2.514309 -3.982886,-2.978382 -0.683461,4.689886 -1.767327,8.797032 -2.852586,13.405113 -1.410921,5.786233 -2.919376,11.547331 -4.440616,17.305722 -1.658033,0.346142 -3.396258,1.823239 -3.046875,3.669922 0.28659,1.526132 1.065294,2.890297 1.841797,4.212891 -2.15766,7.451259 -3.715112,15.05718 -5.448298,22.611535 -0.850507,2.635619 -3.271515,4.445633 -3.851336,7.184875 0.0219,1.460023 1.430993,2.340918 2.48918,3.102218 4.790693,3.105763 10.405989,4.38378 15.974077,5.147312 4.489107,0.57019 9.00927,1.430234 13.548985,1.381077 4.069462,-0.133172 8.423945,-0.738284 12.336154,-1.948699 1.689023,2.165113 1.923924,4.36372 0.609441,6.8459 -4.950628,3.650772 -11.778406,3.990262 -16.727811,2.656462 -0.539676,-1.023379 -1.396046,-1.433057 -2.699642,-1.300094 -0.430238,-0.120384 -0.881465,0.530319 -1.164344,0.874109 -0.687402,0.923895 -0.174199,1.992115 0.788256,2.716515 1.16374,1.41637 2.505931,1.66759 2.77209,1.77884 0.191409,1.96503 -0.0055,3.55371 0.300982,5.49292 0.942609,0.8599 2.353516,0.75754 3.545307,0.85457 4.013264,0.0672 7.943287,-0.73981 11.829497,-1.67724 2.323487,-0.57122 4.614834,-1.27053 6.867384,-2.07577 -1.614256,-7.181725 -2.160691,-14.712988 -0.622928,-21.959542 1.30461,-6.587117 3.397546,-12.967873 5.150673,-19.439763 2.85625,-10.088455 6.207221,-20.04284 10.285135,-29.704312 1.063021,-2.576926 2.161206,-5.138531 3.28087,-7.691304 -1.427277,0.211891 -4.776807,4.054621 -4.204716,1.899992 0.005,-1.825273 -0.615717,-3.268845 -1.605223,-5.303748 -1.519135,1.243894 -1.876819,1.115984 -3.323137,2.437156 -0.309025,-2.150422 -0.513715,-2.571648 -1.870897,-4.879234 -1.550125,1.175897 -1.69135,1.432672 -3.101825,2.768784 -0.42227,-2.342659 -1.859896,-3.649273 -3.181984,-5.830612 -1.021646,1.304925 -4.038864,5.416533 -4.152074,1.303365 -0.358388,-1.508712 -1.914279,-2.869025 -2.895745,-4.183888 -0.765171,0.985605 -3.980417,5.043619 -4.115187,1.801402 -0.370804,-1.319665 -1.522028,-2.348631 -2.799549,-3.229809 -0.769448,0.773289 -2.52622,4.122037 -3.806742,2.748917 -0.441947,-1.13485 -1.335776,-1.412473 -2.977367,-2.66535 -1.453425,1.577771 -1.757994,3.886944 -3.102372,2.323831 -0.335035,-0.998837 -1.633801,-2.034002 -3.062694,-3.298988 -1.007443,1.69167 -1.156659,4.867068 -2.582994,3.643307 z"
         clip-path="url(#clipPath12859)"
         sodipodi:nodetypes="ccccccccccccccccccccccccccccccccccccccccc" /><path
         style="display:inline;opacity:0.815981;fill:#a2a2a2;fill-opacity:1;stroke:none;stroke-width:0.286408px;stroke-linecap:butt;stroke-linejoin:miter;stroke-opacity:1"
         d="m 51.254138,104.74553 c 2.521751,0.52497 4.464433,0.73181 8.66532,0.86281 0.04942,0.15719 -0.790755,0.1241 -1.037866,0.1241 -4.02791,0.13099 -5.360098,0.12619 -6.891101,-0.23611 -1.015802,-0.24038 -0.736353,-0.75078 -0.736353,-0.75078 z"
         id="path12849"
         sodipodi:nodetypes="cccscc" /><path
         style="fill:#000000;fill-opacity:1;stroke:none;stroke-width:0.264583px;stroke-linecap:butt;stroke-linejoin:miter;stroke-opacity:1"
         d="m 50.636954,104.32634 c 0.73357,0.34058 5.902715,1.08347 5.902715,1.08347 1.388544,0.20959 0,0.2964 0,0.2964 0,0 -4.688255,-0.0741 -5.355172,-0.40756 -0.666914,-0.33346 -0.547543,-0.97231 -0.547543,-0.97231 z"
         id="path12847"
         sodipodi:nodetypes="cccsc" /><g
         id="g11282"
         transform="matrix(0.9065627,0,0,0.9065627,-14.08675,1.7916421)"
         style="opacity:1"><ellipse
           style="opacity:0.825666;fill:#080808;fill-opacity:1;fill-rule:evenodd;stroke-width:0.34654;filter:url(#filter11254)"
           id="ellipse11274"
           cx="57.021336"
           cy="65.283966"
           rx="12.337949"
           ry="12.449383" /><ellipse
           style="opacity:1;fill:#000000;fill-opacity:1;fill-rule:evenodd;stroke-width:0.34654"
           id="ellipse11276"
           cx="56.42852"
           cy="64.691154"
           rx="12.337949"
           ry="12.449383" /><path
           id="path11278"
           style="opacity:1;fill:#ffffff;fill-opacity:1;fill-rule:evenodd;stroke-width:0.341984"
           d="m 55.940236,53.463965 c -4.638591,0.175513 -8.950052,3.556297 -10.162888,8.049383 -0.557701,1.897427 -0.609338,3.955712 -0.157375,5.802928 1.036884,4.594487 5.240301,8.293707 9.97148,8.562135 4.057382,0.354036 8.179253,-1.765908 10.267928,-5.259136 1.094291,-1.738568 1.67825,-3.874474 1.700814,-5.803741 0.06137,-3.962287 -2.117314,-7.900463 -5.575497,-9.865512 -1.731817,-1.030339 -3.95761,-1.583509 -6.044462,-1.486057 z" /><ellipse
           style="opacity:0.968523;fill:#000000;fill-opacity:1;fill-rule:evenodd;stroke-width:0.335766"
           id="ellipse11280"
           cx="54.65398"
           cy="65.007912"
           rx="1.9277834"
           ry="1.8807641" /></g><g
         id="g11300"
         transform="translate(-0.15719365)"><path
           style="fill:#fdd51f;fill-opacity:1;stroke:none;stroke-width:0.264583px;stroke-linecap:butt;stroke-linejoin:miter;stroke-opacity:1"
           d="m 45.271771,68.300639 -4.584816,0.392985 -5.265986,-1.074158 -2.908083,0.314389 -1.807726,2.148313 -0.157194,3.170071 1.938721,2.672292 2.803287,1.440942 5.318384,0.864565 4.113234,0.0524 1.781529,-1.964921 z"
           id="path11296" /><path
           style="display:inline;opacity:0.767554;fill:#7f6b10;fill-opacity:1;stroke:none;stroke-width:0.253804px;stroke-linecap:butt;stroke-linejoin:miter;stroke-opacity:1"
           d="m 32.234282,76.176647 c 0,0 1.44275,1.507638 2.408307,1.909233 2.374636,0.987659 5.152383,1.242939 7.743639,0.98871 0.679889,-0.0667 1.817288,-0.649886 1.148577,-0.758928 -2.881566,0.127006 -5.497589,-0.459274 -8.262349,-1.150305 z"
           id="path11305"
           sodipodi:nodetypes="cssccc"
           transform="translate(0.15719365)" /><path
           style="opacity:1;fill:#000000;fill-opacity:1;stroke:none;stroke-width:0.264583px;stroke-linecap:butt;stroke-linejoin:miter;stroke-opacity:1"
           d="m 45.271771,67.645665 c -2.302734,0.486596 -4.741966,0.634896 -7.014455,-0.08314 -1.2611,-0.328881 -2.531548,-0.904774 -3.862056,-0.652821 -1.286214,0.11938 -2.71574,0.549774 -3.393781,1.744802 -0.945223,1.469448 -1.232161,3.356595 -0.779282,5.04124 0.487566,1.570527 1.697463,2.905891 3.24652,3.4804 1.732795,0.845219 3.621551,1.418059 5.559673,1.457383 1.539874,0.120814 3.14265,0.297297 4.638989,-0.181141 0.596177,-0.665437 -0.786556,-0.636809 -1.196007,-0.742833 C 40.4558,77.51264 38.394854,77.586541 36.43237,77.008251 34.776864,76.535279 32.975592,75.942912 31.910097,74.495903 31.250368,73.179348 30.881222,71.578976 31.512891,70.17872 c 0.428096,-1.140254 1.492508,-2.080826 2.75016,-2.095225 1.84864,-0.207607 3.568702,0.667143 5.36948,0.903584 1.809339,0.339693 3.660079,0.127562 5.45585,-0.188701 0.41668,-0.301144 -0.06582,-0.783425 0.18339,-1.152715 z"
           id="path11294"
           sodipodi:nodetypes="csssssssssccssssscc" /></g><g
         id="g11272"
         transform="translate(-0.41918306,0.05239788)"><ellipse
           style="opacity:0.72155;fill:#6f6f6f;fill-opacity:1;fill-rule:evenodd;stroke-width:0.34654;filter:url(#filter11254)"
           id="ellipse9661"
           cx="57.021336"
           cy="65.283966"
           rx="12.337949"
           ry="12.449383" /><ellipse
           style="opacity:1;fill:#000000;fill-opacity:1;fill-rule:evenodd;stroke-width:0.34654"
           id="ellipse9659"
           cx="56.42852"
           cy="64.691154"
           rx="12.337949"
           ry="12.449383" /><path
           id="ellipse9663"
           style="opacity:1;fill:#ffffff;fill-opacity:1;fill-rule:evenodd;stroke-width:0.341984"
           d="m 55.940236,53.463965 c -4.638591,0.175513 -8.950052,3.556297 -10.162888,8.049383 -0.557701,1.897427 -0.609338,3.955712 -0.157375,5.802928 1.036884,4.594487 5.240301,8.293707 9.97148,8.562135 4.057382,0.354036 8.179253,-1.765908 10.267928,-5.259136 1.094291,-1.738568 1.67825,-3.874474 1.700814,-5.803741 0.06137,-3.962287 -2.117314,-7.900463 -5.575497,-9.865512 -1.731817,-1.030339 -3.95761,-1.583509 -6.044462,-1.486057 z" /><ellipse
           style="opacity:0.968523;fill:#000000;fill-opacity:1;fill-rule:evenodd;stroke-width:0.264583"
           id="path11258"
           cx="58.577469"
           cy="65.580086"
           rx="1.5190868"
           ry="1.4820359" /></g><path
         style="color:#000000;display:inline;mix-blend-mode:normal;fill:#706e6e;fill-opacity:1;stroke-width:0.946981;-inkscape-stroke:none;filter:url(#filter6011)"
         d="m 34.438394,45.893404 c 2.267411,-0.211739 4.472346,-0.296895 6.74744,-0.105723 0.790607,0.06643 1.592929,0.114673 2.357675,0.296228 0.279747,0.06641 0.283101,-0.176429 -0.0011,-0.260433 -1.103976,-0.326387 -2.246321,-0.485066 -3.395392,-0.53185 -0.749471,-0.03051 -1.500769,-0.01455 -2.584825,0.02298 -1.084055,0.03753 -2.799866,0.08644 -3.573378,0.325069 -0.488732,-0.32238 -0.616558,0.217037 0.44958,0.253729 z"
         id="path6009"
         sodipodi:nodetypes="cssssscc"
         transform="matrix(0.96076561,0,0,1,1.7251625,0)" /><path
         style="color:#000000;display:inline;fill:#000000;stroke-width:1.01725;-inkscape-stroke:none"
         d="m 34.261886,45.790882 c 2.258973,-0.245237 4.537203,-0.495584 6.803829,-0.274168 0.787664,0.07694 1.587,0.132815 2.348901,0.343093 0.278704,0.07692 0.282048,-0.204341 -0.001,-0.301635 -1.099868,-0.378022 -2.237961,-0.561805 -3.382755,-0.61599 -0.746682,-0.03534 -1.495185,-0.01685 -2.575205,0.02662 -1.080021,0.04347 -2.789447,0.100111 -3.560079,0.376496 -0.439664,0.157684 -0.02639,0.429274 0.366342,0.445584 z"
         id="path6003"
         sodipodi:nodetypes="cssssssc" /><path
         style="color:#000000;display:inline;fill:#6a6a6a;fill-opacity:0.827443;-inkscape-stroke:none;filter:url(#filter6034)"
         d="m 57.536537,48.127224 c -0.563779,0.187261 0.322779,0.593347 0.590763,0.588783 0.899703,0.06418 1.789983,0.23051 2.657719,0.478111 2.01421,0.575744 3.931264,1.35815 5.749167,2.408189 0.75799,0.416256 1.414563,1.048154 2.192437,1.424777 0.136598,-0.312594 -0.326261,-0.734572 -0.562932,-0.976268 -1.241929,-1.168017 -2.729949,-2.056337 -4.291866,-2.7264 -1.722489,-0.689303 -3.552627,-1.159716 -5.411627,-1.237308 -0.308243,-0.0074 -0.61764,1.14e-4 -0.923661,0.04012 z"
         id="path6032"
         sodipodi:nodetypes="ssssssscss" /><path
         style="color:#000000;display:inline;fill:#000000;-inkscape-stroke:none"
         d="m 57.536537,47.852135 c -0.563779,0.187261 0.322779,0.593347 0.590763,0.588783 0.899703,0.06418 1.789983,0.23051 2.657719,0.478111 2.01421,0.575744 3.931264,1.35815 5.749167,2.408189 0.75799,0.416256 1.414563,1.048154 2.192437,1.424777 0.136598,-0.312594 -0.326261,-0.734572 -0.562932,-0.976268 -1.241929,-1.168017 -2.729949,-2.056337 -4.291866,-2.7264 -1.722489,-0.689303 -3.552627,-1.159716 -5.411627,-1.237308 -0.308243,-0.0074 -0.61764,1.14e-4 -0.923661,0.04012 z"
         id="path6026"
         sodipodi:nodetypes="ssssssscss" /><path
         style="color:#000000;fill:#000000;fill-opacity:1;-inkscape-stroke:none"
         d="m 49.505859,92.710937 -1.184537,0.0134 1.727236,6.760438 1.579474,0.851165 z"
         id="path11524"
         sodipodi:nodetypes="ccccc" /><path
         style="color:#000000;fill:#000000;fill-opacity:1"
         d="m 53.175781,92.875 -1.214643,0.07833 2.121566,8.227504 1.083648,-0.18312 z"
         id="path11526"
         sodipodi:nodetypes="ccccc" /><path
         style="color:#000000;fill:#000000;fill-opacity:1"
         d="m 59.701307,92.490099 -1.166151,0.377088 1.9375,8.173833 1.03711,-0.2461 z"
         id="path11528"
         sodipodi:nodetypes="ccccc" /><path
         style="color:#000000;fill:#000000;fill-opacity:1"
         d="m 66.790207,91.169652 -1.171202,0.136853 -0.02587,7.886518 1.040209,-0.0602 z"
         id="path11530"
         sodipodi:nodetypes="ccccc" /><g
         id="g12267"><path
           style="opacity:1;fill:#000000;fill-opacity:1;stroke:none;stroke-width:0.264583px;stroke-linecap:butt;stroke-linejoin:miter;stroke-opacity:1"
           d="m 50.022436,106.5928 c -0.733571,0.68117 -2.109268,4.59804 -2.004472,5.22681 0.366785,0.52398 7.000786,2.5424 11.675208,2.42366 4.883805,-0.12406 9.29473,-1.7926 10.141412,-2.08385 1.07711,-0.37051 8.138477,-3.22663 8.194607,-3.60029 0.126498,-0.84209 -2.148951,-5.11302 -2.741766,-5.18712 -0.592815,-0.0741 -3.178313,1.73821 -4.964822,2.59356 -1.201951,0.57547 -4.967231,2.00575 -7.113772,2.37125 -2.770363,0.47172 -6.325287,0.28695 -7.261974,0.14821 -0.865347,-0.12817 -5.243249,-1.21106 -5.924421,-1.89223 z"
           id="path11590"
           sodipodi:nodetypes="ccsssssssc" /><path
           id="path11592"
           style="opacity:1;fill:#e05631;fill-opacity:1;stroke:none;stroke-width:0.261348px;stroke-linecap:butt;stroke-linejoin:miter;stroke-opacity:1"
           d="m 68.799447,107.62194 c -2.237036,0.93924 -5.145194,1.96078 -7.912443,1.9933 -2.277683,0.0268 -4.596163,0.1125 -6.81119,-0.52226 -1.185443,-0.33971 -2.391497,-0.62286 -3.530901,-1.09946 -0.503736,1.02243 -0.908429,2.09483 -1.186483,3.20062 3.064129,1.15167 6.328284,1.8358 9.597976,1.92538 6.600692,-0.42595 11.477392,-1.99784 17.700789,-5.05268 -0.430353,-1.21148 -1.021883,-2.37096 -1.782619,-3.40897 -2.068484,1.07328 -4.260068,2.202 -6.075129,2.96407 z"
           sodipodi:nodetypes="ssscccccs" /><path
           id="path11638"
           style="opacity:0.583535;fill:#6d2d22;fill-opacity:1;stroke:none;stroke-width:0.264583px;stroke-linecap:butt;stroke-linejoin:miter;stroke-opacity:1"
           d="m 74.8745,104.65769 c -0.101606,0.054 -0.203285,0.10825 -0.304891,0.16227 -0.280913,0.16429 -0.561635,0.3303 -0.842843,0.49609 0.461469,1.03463 1.021662,2.30417 1.49965,3.4308 0.489555,-0.22059 0.969836,-0.44558 1.43092,-0.68006 -0.430352,-1.21148 -1.022101,-2.37109 -1.782836,-3.4091 z" /></g><g
         id="g13345"><path
           style="fill:#fed41f;fill-opacity:1;stroke:none;stroke-width:0.264583px;stroke-linecap:butt;stroke-linejoin:miter;stroke-opacity:1"
           d="m 69.846377,81.635901 c 0.26199,-0.0786 2.672292,-0.681173 2.803287,-0.733571 0.130995,-0.0524 2.593694,-0.209592 2.593694,-0.209592 0,0 2.122115,0.969362 2.410304,1.49334 0.288187,0.523978 0.969359,3.327265 0.864563,3.825047 -0.104793,0.497779 -0.890762,3.248668 -1.519536,3.66785 -0.628775,0.419184 -2.829486,1.650534 -3.327268,1.519539 -0.497779,-0.130996 -2.384102,-0.419182 -2.855682,-0.707372 -0.471583,-0.288187 -2.384105,-2.331704 -2.384105,-2.331704 z"
           id="path12925" /><path
           style="opacity:1;fill:#000000;fill-opacity:1;stroke:none;stroke-width:0.264583px;stroke-linecap:butt;stroke-linejoin:miter;stroke-opacity:1"
           d="m 71.313518,81.635901 c -0.05558,-0.166729 1.554399,-1.717415 3.510658,-1.624336 1.98597,0.09449 3.984807,1.63101 4.139433,4.605748 0.166844,3.20979 -1.184775,5.269275 -1.864619,5.830421 -1.987592,1.640568 -3.414854,1.485667 -4.537458,1.242202 -0.761254,-0.165096 -2.20389,-1.407296 -1.981585,-2.037161 0.277882,-0.05558 1.615284,0.823834 2.829486,0.943163 1.242616,0.122121 2.278078,-0.431135 3.19627,-1.467141 1.051682,-1.186625 1.267271,-2.598155 1.272896,-3.455082 0.0095,-1.445738 -0.676337,-2.788553 -1.010905,-3.40904 -0.523979,-0.971767 -2.086381,-1.065938 -2.94963,-1.004549 -0.761002,0.05412 -2.456342,0.505453 -2.604546,0.375775 z"
           id="path12911"
           sodipodi:nodetypes="csssscsssssc" /><path
           style="opacity:1;fill:#000000;fill-opacity:1;stroke:none;stroke-width:0.264583px;stroke-linecap:butt;stroke-linejoin:miter;stroke-opacity:1"
           d="m 75.268899,84.346369 c 0,0 -1.724062,-0.170073 -2.297155,0.537239 -0.716917,0.88482 -1.050525,1.848981 -1.000374,2.148951 0.02224,0.133021 0.137929,0.103161 0.240829,-0.01852 0.155877,-0.184326 0.341133,-0.612654 0.507862,-0.83496 0.166728,-0.222306 0.646143,-0.75916 0.863021,-0.943482 0.170567,-0.144963 0.644958,-0.450092 1.130054,-0.592814 0.262903,-0.07735 0.595061,-0.178513 0.555763,-0.296408 -0.890764,-0.104796 0,-6e-6 0,-6e-6 z"
           id="path12913"
           sodipodi:nodetypes="csssssscc" /><path
           style="color:#000000;fill:#000000;-inkscape-stroke:none"
           d="m 74.066406,84.544922 -0.345703,0.3125 c 0,0 0.510411,0.500313 0.714844,0.791015 0.202563,0.288043 0.34143,0.484062 0.451733,0.950166 0.02998,0.126679 0.291271,0.372566 0.336054,-0.155863 0.03131,-0.369464 -0.173181,-0.714204 -0.404975,-1.063834 -0.20683,-0.311975 -0.751953,-0.833984 -0.751953,-0.833984 z"
           id="path12919"
           sodipodi:nodetypes="ccssssc" /></g><path
         style="fill:#1c1c1c;fill-opacity:1;stroke:none;stroke-width:0.264583px;stroke-linecap:butt;stroke-linejoin:miter;stroke-opacity:1"
         d="m 46.592531,15.637886 c 0,0 1.433818,0.64645 1.74669,1.668338 0.184715,0.603311 -1.220074,-1.141767 -1.84051,-1.027038 z"
         id="path13352"
         sodipodi:nodetypes="cscc" /><path
         style="fill:#1c1c1c;fill-opacity:1;stroke:none;stroke-width:0.242019px;stroke-linecap:butt;stroke-linejoin:miter;stroke-opacity:1"
         d="m 59.816888,15.787423 c 0,0 0.870023,1.145803 0.675152,2.103755 -0.115048,0.565563 -0.481895,-1.450536 -1.030654,-1.629314 z"
         id="path13354"
         sodipodi:nodetypes="cscc" /><path
         style="fill:#1c1c1c;fill-opacity:1;stroke:none;stroke-width:0.287051px;stroke-linecap:butt;stroke-linejoin:miter;stroke-opacity:1"
         d="m 66.432505,17.651778 c 0,0 1.631605,0.499564 2.108153,1.556571 0.281349,0.624042 -1.544105,-1.386867 -2.196156,-1.178499 z"
         id="path13356"
         sodipodi:nodetypes="cscc" /><path
         style="fill:#1c1c1c;fill-opacity:1;stroke:none;stroke-width:0.204541px;stroke-linecap:butt;stroke-linejoin:miter;stroke-opacity:1"
         d="m 78.070002,23.861572 c 0,0 1.053187,0.607608 1.215218,1.417752 0.09566,0.478298 -0.850651,-0.972173 -1.336738,-0.931665 z"
         id="path13358"
         sodipodi:nodetypes="cscc" /><path
         style="fill:#1c1c1c;fill-opacity:1;stroke:none;stroke-width:0.204541px;stroke-linecap:butt;stroke-linejoin:miter;stroke-opacity:1"
         d="m 84.59096,25.269506 c 0,0 1.053187,0.607608 1.215218,1.417752 0.09566,0.478298 -0.850651,-0.972173 -1.336738,-0.931665 z"
         id="path13360"
         sodipodi:nodetypes="cscc" /><path
         style="fill:#1c1c1c;fill-opacity:1;stroke:none;stroke-width:0.193259px;stroke-linecap:butt;stroke-linejoin:miter;stroke-opacity:1"
         d="m 90.215994,28.159476 c 0,0 0.995097,0.574094 1.148191,1.339553 0.09038,0.451917 -0.803732,-0.918551 -1.263008,-0.880277 z"
         id="path13362"
         sodipodi:nodetypes="cscc" /></g></g></svg>
