<?xml version="1.0" encoding="UTF-8" standalone="no"?>
<!-- Created with Inkscape (http://www.inkscape.org/) -->

<svg
   width="210mm"
   height="297mm"
   viewBox="0 0 210 297"
   version="1.1"
   id="svg5"
   xml:space="preserve"
   inkscape:version="1.2.1 (9c6d41e410, 2022-07-14)"
   sodipodi:docname="(simpsons) homer.svg"
   xmlns:inkscape="http://www.inkscape.org/namespaces/inkscape"
   xmlns:sodipodi="http://sodipodi.sourceforge.net/DTD/sodipodi-0.dtd"
   xmlns="http://www.w3.org/2000/svg"
   xmlns:svg="http://www.w3.org/2000/svg"><sodipodi:namedview
     id="namedview7"
     pagecolor="#ffffff"
     bordercolor="#000000"
     borderopacity="0.25"
     inkscape:showpageshadow="2"
     inkscape:pageopacity="0.0"
     inkscape:pagecheckerboard="0"
     inkscape:deskcolor="#d1d1d1"
     inkscape:document-units="mm"
     showgrid="false"
     inkscape:zoom="0.8926347"
     inkscape:cx="-46.491583"
     inkscape:cy="240.86001"
     inkscape:window-width="2560"
     inkscape:window-height="1377"
     inkscape:window-x="1272"
     inkscape:window-y="-8"
     inkscape:window-maximized="1"
     inkscape:current-layer="layer1" /><defs
     id="defs2"><filter
       inkscape:collect="always"
       style="color-interpolation-filters:sRGB"
       id="filter3103"
       x="-0.057344418"
       y="-0.060815349"
       width="1.1146888"
       height="1.1216307"><feGaussianBlur
         inkscape:collect="always"
         stdDeviation="0.59136425"
         id="feGaussianBlur3105" /></filter><clipPath
       clipPathUnits="userSpaceOnUse"
       id="clipPath1663"><path
         id="path1665"
         style="opacity:0.445525;fill:#a5e051;fill-opacity:1;stroke-width:0.264583"
         d="m 55.18164,25.722656 c -1.711293,0.05067 -3.369619,0.32946 -4.897694,0.876446 -2.580468,0.884243 -4.654854,2.739512 -6.664957,4.513694 -3.612698,3.333784 -6.421755,7.579693 -7.81489,12.311142 -0.289038,0.786908 -0.673788,1.534086 -1.011129,2.300671 -1.601843,0.150926 -3.455389,1.126162 -3.572266,2.914063 -0.126005,1.251032 0.566174,2.371333 1.085937,3.439453 0.491461,3.263316 -0.03742,6.58204 0.785156,9.783202 -0.213058,2.480818 -2.567702,4.147886 -2.730468,6.628908 -0.04323,1.934326 0.232259,3.887909 1.0941,5.638456 1.007038,2.293633 2.20853,4.494659 3.332506,6.770753 1.347902,2.41998 2.776567,4.964388 2.808597,7.812234 0.620546,4.59301 1.387343,9.168788 2.222064,13.724232 0.228785,5.80351 -1.49134,11.65255 -4.806903,16.41805 -0.645448,1.44945 -2.022625,2.49899 -2.447239,4.05034 0.283395,0.59869 1.130517,0.63609 1.575726,1.11322 1.42721,1.03155 2.729923,2.63275 4.656161,2.56832 2.889874,0.31031 5.72199,1.32413 8.650954,1.13496 5.124244,-0.54368 10.300899,-1.23763 15.446082,-1.83558 1.784783,-0.24579 3.611094,-0.37692 5.37025,-0.69348 2.710953,-1.75532 5.421905,-3.51064 8.132858,-5.26596 -1.453486,-6.92509 -4.019614,-13.63164 -4.640625,-20.716796 -0.342286,-5.47252 0.535535,-10.917833 1.255064,-16.324728 0.796827,-4.477366 2.344402,-8.783643 4.002601,-13.002466 2.270136,-4.512911 4.382087,-9.112404 6.258256,-13.801847 1.376328,-3.96231 2.211025,-8.324035 1.057134,-12.450321 -0.494236,-3.894799 -3.108729,-7.003891 -5.20782,-10.160873 -4.661373,-4.564446 -11.138424,-6.827681 -17.54755,-7.369256 -2.144218,-0.258934 -4.240416,-0.443458 -6.391905,-0.376837 z" /></clipPath><filter
       inkscape:collect="always"
       style="color-interpolation-filters:sRGB"
       id="filter3751"
       x="-0.063423752"
       y="-0.020152355"
       width="1.1268475"
       height="1.0403047"><feGaussianBlur
         inkscape:collect="always"
         stdDeviation="0.093193189"
         id="feGaussianBlur3753" /></filter><filter
       inkscape:collect="always"
       style="color-interpolation-filters:sRGB"
       id="filter6976"
       x="-0.046499857"
       y="-0.02727057"
       width="1.0929997"
       height="1.0545411"><feGaussianBlur
         inkscape:collect="always"
         stdDeviation="0.12238641"
         id="feGaussianBlur6978" /></filter><filter
       inkscape:collect="always"
       style="color-interpolation-filters:sRGB"
       id="filter10009"
       x="-0.022106105"
       y="-0.012974108"
       width="1.0442122"
       height="1.0259482"><feGaussianBlur
         inkscape:collect="always"
         stdDeviation="0.61472784"
         id="feGaussianBlur10011" /></filter></defs><g
     inkscape:label="Layer 1"
     inkscape:groupmode="layer"
     id="layer1"
     style="display:inline"><g
       id="g10063"
       inkscape:label="Homer"
       transform="matrix(0.52997776,0,0,0.52997776,-0.71950174,-2.9869291)"><path
         id="path9773"
         style="display:inline;opacity:0.447471;mix-blend-mode:normal;fill:#000000;fill-opacity:1;stroke-width:0.264583;filter:url(#filter10009)"
         d="m 63.448409,19.085118 c -0.304318,0.0037 -0.608886,0.01755 -0.912089,0.04134 -1.715381,0.02548 -3.332913,0.64855 -4.838464,1.424203 -2.41095,1.130012 -4.460827,3.013942 -5.732467,5.353678 -1.478508,0.359238 -2.905606,0.932944 -4.243669,1.809709 -5.343328,3.632962 -9.835397,8.706737 -11.896948,14.864725 -0.713528,2.131356 -0.440255,1.282099 -1.178223,2.952275 -3.798605,0.752543 -4.870495,3.944823 -3.007051,7.104476 a 11.077248,10.672059 0 0 0 -2.860291,7.150985 11.077248,10.672059 0 0 0 2.171961,6.33398 c -0.664449,1.09577 -1.221733,2.242925 -1.013892,3.831807 -0.06283,0.982071 0.0513,1.935228 0.278019,2.867526 -2.391032,0.887628 -4.61281,2.145281 -5.80688,4.362524 -0.472638,0.877631 -0.849355,2.258788 -1.248503,3.083016 -0.399149,0.824228 -0.820843,1.091584 -1.826762,1.519804 -2.379564,1.012981 -1.791564,4.852348 0.375171,6.187219 3.596255,2.628766 8.089131,3.706483 12.439551,4.256071 0.346513,0.02893 0.693627,0.05366 1.040763,0.07855 l 1.080038,4.875155 c -1.333659,-0.06208 -3.005927,2.365536 -2.839104,3.680909 -0.232104,2.37488 2.563565,2.91652 4.068486,3.83595 0.591327,0.57718 1.176842,1.16499 1.770951,1.74304 -0.0019,0.0216 -0.0043,0.043 -0.0062,0.0646 -0.732403,0.19379 -1.459284,0.40979 -2.173511,0.66249 -1.46043,0.40943 -2.891163,0.91201 -4.335136,1.37459 -0.170867,0.14273 -0.632088,0.16997 -0.86868,0.29611 l -0.04031,-0.003 c 0,0 -0.03425,0.0521 -0.03669,0.0558 -0.02995,0.0269 -0.05124,0.0574 -0.06098,0.093 -0.148841,0.22773 -0.839407,1.2852 -1.106392,1.68568 -0.296407,0.44461 -1.593399,2.51914 -1.889807,3.11196 -0.296404,0.59281 -1.370675,2.66797 -1.667082,3.26078 -0.296405,0.59282 -1.222772,2.63018 -1.370975,2.96364 -0.148204,0.33346 -0.741197,1.70436 -0.778248,1.96371 -0.03705,0.25936 -0.07404,0.66714 0.259416,0.66714 0.333459,0 1.630295,-0.11126 1.8526,-0.14831 0.192873,-0.0322 1.332338,-0.20337 1.824695,-0.29663 -0.496796,0.80063 -0.927038,1.49895 -1.031978,1.68259 0.222304,0.81512 3.27994,3.30842 3.825089,3.72019 1.6138,1.21895 5.203824,3.01115 5.921086,3.30109 1.273986,0.51498 6.59824,1.70769 8.173661,1.83399 0.918017,0.0736 7.807716,0.1048 8.488888,0 0.681172,-0.10479 5.140495,-0.52532 6.916373,-0.94309 1.261683,-0.2968 5.434692,-1.37234 6.287472,-1.6769 0.733568,-0.26199 4.061292,-1.23121 5.109249,-1.62419 1.011433,-0.37929 3.117357,-1.20542 3.850927,-1.51981 0.73357,-0.31438 3.036589,-1.3688 3.301091,-1.46709 0.885555,-0.32908 1.150012,-0.36246 1.257804,-0.99529 0,0 -0.206454,-1.05385 -0.326595,-1.63659 -0.09141,-0.44341 -0.483023,-1.97241 -0.750342,-2.75797 0.910451,-0.75847 1.857479,-1.63929 1.026811,-2.90887 -0.627653,-2.00989 -1.213129,-4.02725 -1.862418,-6.03219 -0.499198,-1.54147 -1.159377,-3.16412 -1.703256,-4.68963 -0.347079,-0.97352 -1.248292,-1.71873 -2.812748,-1.95027 -0.193713,-0.0518 -0.352843,-0.0689 -0.484725,-0.0589 -0.119652,-0.59742 -0.233472,-1.19725 -0.335897,-1.80248 -0.700466,-4.139096 -0.371479,-8.468642 0.122474,-12.718603 0.100933,0.0071 0.202461,0.01017 0.30489,0.0088 0.586936,-0.08906 1.191355,-0.15627 1.748731,-0.371036 0.904042,-0.532576 1.621317,-1.357626 2.139921,-2.263945 0.890963,-1.546964 1.016294,-3.371922 1.119828,-5.114416 0.01233,-1.063131 -0.02886,-2.187895 -0.529166,-3.149679 -0.369953,-0.670066 -0.72272,-1.439053 -1.453142,-1.782837 -0.236437,-0.144892 -0.485306,-0.26056 -0.74259,-0.350366 0.315848,-0.959026 0.651205,-1.911722 0.993221,-2.862358 0.328794,-0.363218 0.6776,-0.74329 0.977201,-0.961181 0.576376,-0.419184 1.152706,-1.021652 1.467094,-1.283643 0.314386,-0.261988 0.995515,-0.707567 1.467094,-1.074353 0.471583,-0.366784 1.100708,-0.628902 1.100708,-0.628902 0,0 -0.262309,1.362511 -0.314709,1.6769 -0.0524,0.314385 -0.261793,1.048114 -0.314193,1.414901 -0.0524,0.366782 -0.419001,1.781424 -0.576192,2.672188 -0.157195,0.890761 -0.26231,2.855611 -0.31471,3.458187 -0.03743,0.430458 0.495628,0.709843 0.785999,0.104903 0.314386,-0.654971 0.314298,-2.095715 0.419096,-2.829285 0.09662,-0.676318 0.497751,-2.410619 0.602547,-2.829801 0.08896,-0.355835 0.602764,-2.829413 0.812353,-3.458187 0.209594,-0.628774 0.314183,-1.886201 0.05219,-2.148189 -0.261988,-0.26199 -0.576107,0.104503 -0.995288,0.471289 -0.352704,0.308618 -1.074219,0.785961 -1.571997,1.126546 -0.398694,0.27279 -1.231156,1.021965 -1.702739,1.336353 -0.238554,0.159035 -0.730239,0.585489 -1.179256,0.982369 0.07774,-0.211745 0.153279,-0.424449 0.230994,-0.636137 2.239662,-4.335105 4.190053,-8.812345 6.139676,-13.289628 1.602778,-4.400158 2.758088,-9.218414 1.471745,-13.852385 -0.319084,-2.912544 -1.802535,-5.426288 -3.427181,-7.827429 0.337276,-1.390414 0.5697,-2.802586 0.580327,-3.239596 0.03382,-1.390809 -0.0087,-3.288814 -0.180868,-3.965649 -0.383167,-1.506699 -1.16802,-2.957658 -2.244307,-4.0566 -1.490229,-1.462814 -3.380175,-2.615898 -5.433777,-3.062862 -0.957168,-0.208329 -2.065349,-0.242425 -3.137793,-0.195337 -0.782476,-0.581661 -1.644172,-1.06539 -2.508891,-1.509468 -1.912391,-0.934986 -4.052862,-1.399547 -6.183085,-1.37356 z M 63.94967,20.0494 c 2.283687,-0.0034 4.484503,0.835255 6.406844,2.068608 -2.693927,0.375391 -4.930152,1.826089 -5.934004,3.236495 -0.188089,0.264263 -0.315818,0.476266 -0.395842,0.644405 -3.406629,-0.425879 -7.044234,-0.891902 -10.482564,-0.396358 0.175277,-0.248624 0.331786,-0.514298 0.47749,-0.763778 1.077259,-1.1858 2.329427,-2.238252 3.665409,-3.131075 1.514318,-1.190026 3.469912,-1.572408 5.354196,-1.611788 0.303928,-0.03083 0.606975,-0.04606 0.908471,-0.04651 z m 9.379273,2.96106 c 0.625649,0.04925 1.235612,0.156981 1.888257,0.314709 3.281785,0.793128 5.667879,3.472744 6.361885,4.951636 0.679791,1.448601 0.655965,3.065866 0.522966,4.727877 -0.07121,0.889838 -0.165577,1.637514 -0.27957,2.408121 -0.438434,-0.632349 -0.87639,-1.261483 -1.294494,-1.888773 -1.20486,-1.1942 -2.544223,-2.24124 -3.972885,-3.15433 -0.04399,-0.86915 -0.160004,-1.73576 -0.328145,-2.580721 -0.228626,-1.615861 -1.241063,-2.942382 -2.322339,-4.102075 -0.179069,-0.239071 -0.37218,-0.46298 -0.575675,-0.676444 z m -1.697054,0.01188 c 0.08404,0.0655 0.167015,0.131686 0.249597,0.198438 1.633804,1.122475 2.66957,2.892009 3.256649,4.752165 0.250756,0.588307 0.387296,1.194939 0.455269,1.810742 -3.266985,-1.895147 -6.950172,-3.10458 -10.639144,-3.655591 0.390901,-0.25852 0.839053,-0.62842 1.243852,-1.051099 1.052539,-1.099028 2.820702,-1.645276 4.187341,-1.887223 0.444084,-0.07862 0.855417,-0.133337 1.246436,-0.167432 z" /><g
         id="g3118"
         inkscape:label="Homer"
         style="display:inline"
         transform="translate(-1.1856287,-0.44461077)"><g
           id="g6180"
           style="display:inline;opacity:1"><path
             style="display:inline;opacity:1;fill:#000000;fill-opacity:1;stroke-width:0.264583"
             d="m 36.390328,116.1399 c -0.433015,-0.75542 -0.787958,-1.55281 -1.207102,-2.31364 -0.841864,-1.22992 -1.561457,-2.54586 -2.490773,-3.71403 -0.519614,-0.55442 -1.064965,-1.0912 -1.513718,-1.70465 -0.209326,-0.43865 0.722528,-0.38745 0.982512,-0.60462 1.443974,-0.46258 2.87498,-0.96521 4.335412,-1.37464 1.27748,-0.45198 2.594301,-0.78965 3.913735,-1.08484 0.65983,-0.0254 1.319661,-0.0508 1.979491,-0.0761 0.157194,3.52812 0.314389,7.05625 0.471583,10.58437 -2.157047,0.0961 -4.314093,0.19213 -6.47114,0.28819 z"
             id="path6034" /><path
             id="path6036"
             style="display:inline;opacity:1;fill:#d8d8d8;fill-opacity:1;stroke-width:0.264583"
             d="m 40.554688,106.24125 c -2.890558,0.802 -6.117299,1.95808 -7.895475,2.45992 1.502568,1.57044 2.531338,3.32671 3.517645,5.3456 0.285901,0.47174 0.707624,1.26115 1.432316,0.97737 1.382228,-0.0614 2.764457,-0.12286 4.146685,-0.1843 0.254305,-2.0725 -1.366683,-5.82314 -1.201171,-8.59859 z"
             sodipodi:nodetypes="cccccc" /></g><g
           id="g2636"><path
             style="opacity:1;fill:#000000;fill-opacity:1;stroke-width:0.264583"
             d="m 77.584577,120.41541 c -1.282533,-6.30074 -3.384218,-12.1589 -4.455368,-18.48839 -0.946949,-5.595581 -0.01456,-11.539467 0.666912,-17.163831 0.593275,-4.896452 2.305359,-9.47444 3.98384,-14.046487 2.239665,-4.335109 4.18997,-8.812261 6.139595,-13.289549 1.602779,-4.400162 2.757814,-9.218718 1.47147,-13.852693 -0.452017,-4.125929 -3.233483,-7.456829 -5.456033,-10.791363 -4.338355,-4.299973 -10.372454,-6.760453 -16.338432,-7.505123 -5.471607,-0.682963 -11.564756,-1.51765 -16.467821,1.695079 -5.343334,3.632966 -9.835261,8.706507 -11.896814,14.864502 -0.713529,2.131358 -0.440101,1.282491 -1.178069,2.952669 -3.93424,0.779414 -4.944195,4.175761 -2.796795,7.442566 0.509252,3.456831 -0.06419,6.237107 0.754911,9.642208 -0.450961,2.754304 -3.082372,4.165765 -2.667665,7.336077 -0.2415,3.774633 2.095445,7.129153 3.630988,10.466879 1.312181,2.895086 3.47148,5.504093 3.520423,8.801881 0.643879,4.61183 1.308739,9.22015 2.259516,13.780645 0.242373,5.64483 -1.310344,11.286 -4.580957,15.8885 -0.89533,2.22296 -4.78102,4.98887 -1.162255,6.36994 1.794649,1.15456 3.227982,3.14612 5.54091,3.10005 2.951938,0.33341 5.889366,1.31262 8.851228,1.20431 7.046665,-0.85127 14.093331,-1.70255 21.139997,-2.55382 z"
             id="path1532"
             sodipodi:nodetypes="cssccccscsccccccccccccc" /><path
             id="path1655"
             style="opacity:1;fill:#d7b718;fill-opacity:1;stroke-width:0.264583"
             d="m 55.181641,25.722656 c -1.711295,0.05067 -3.36962,0.32946 -4.897696,0.876446 -2.580466,0.884243 -4.654854,2.739513 -6.664955,4.513695 -3.612698,3.333783 -6.421755,7.579692 -7.81489,12.31114 -0.289039,0.786908 -0.673789,1.534087 -1.011131,2.300672 -1.601841,0.150925 -3.455389,1.126162 -3.572266,2.914063 -0.126005,1.251031 0.566174,2.371332 1.085938,3.439453 0.491462,3.263315 -0.03742,6.582041 0.785156,9.783203 -0.213059,2.480818 -2.567702,4.147886 -2.730469,6.628906 -0.04323,1.934326 0.232261,3.887911 1.094101,5.638457 1.007038,2.293632 2.208529,4.49466 3.332505,6.770753 1.347903,2.419979 2.776569,4.964388 2.808599,7.812234 0.620545,4.593011 1.387343,9.168788 2.222063,13.724232 0.228786,5.80351 -1.491341,11.65255 -4.806902,16.41805 -0.64545,1.44945 -2.022626,2.49899 -2.447241,4.05034 0.283397,0.59869 1.130518,0.63609 1.575726,1.11322 1.427212,1.03155 2.729923,2.63275 4.656162,2.56832 2.889874,0.31031 5.721989,1.32413 8.650955,1.13496 5.124242,-0.54368 10.300897,-1.23763 15.44608,-1.83558 1.784785,-0.24579 3.611094,-0.37692 5.370252,-0.69348 2.710952,-1.75532 5.421904,-3.51064 8.132856,-5.26596 -1.453486,-6.92509 -4.019613,-13.63164 -4.640625,-20.716796 -0.342284,-5.47252 0.535535,-10.917832 1.255066,-16.324728 0.796826,-4.477367 2.344401,-8.783644 4.002601,-13.002467 2.270135,-4.512911 4.382086,-9.112404 6.258256,-13.801846 1.376328,-3.962309 2.211024,-8.324034 1.057134,-12.450321 C 83.83468,39.734823 81.220185,36.62573 79.121094,33.46875 74.459721,28.904303 67.982671,26.641067 61.573544,26.099493 59.429328,25.840559 57.333128,25.656035 55.181641,25.722656 Z" /><path
             style="opacity:1;fill:#f9d41a;fill-opacity:1;stroke-width:0.264583"
             d="m 74.859887,119.89143 c -1.282533,-6.30074 -3.384218,-12.1589 -4.455368,-18.48839 -0.946949,-5.59558 -0.01456,-11.539466 0.666912,-17.16383 0.593275,-4.896452 2.305359,-9.47444 3.98384,-14.046487 2.239665,-4.335109 4.18997,-8.812261 6.139595,-13.289549 1.602779,-4.400162 2.757814,-9.218718 1.47147,-13.852693 -0.452017,-4.125929 -3.233483,-7.456829 -5.456033,-10.791363 -4.338355,-4.299973 -10.372454,-6.760453 -16.338432,-7.505123 -5.471607,-0.682963 -11.564756,-1.51765 -16.467821,1.695079 -5.343334,3.632966 -9.835261,8.706507 -11.896814,14.864502 -0.713529,2.131358 -0.440101,1.282491 -1.178069,2.952669 -3.93424,0.779414 -4.944195,4.175761 -2.796795,7.442566 0.509252,3.456831 -0.06419,6.237107 0.754911,9.642208 -0.450961,2.754304 -3.082372,4.165765 -2.667665,7.336077 -0.2415,3.774633 2.095445,7.129153 3.630988,10.466879 1.312181,2.895086 3.47148,5.504093 3.520423,8.801881 0.643879,4.61183 1.308739,9.22015 2.259516,13.780644 0.242373,5.64483 -1.310344,11.286 -4.580957,15.8885 -0.89533,2.22296 -4.78102,4.98887 -1.162255,6.36994 1.794649,1.15456 3.227982,3.14612 5.54091,3.10005 2.951938,0.33341 5.889366,1.31262 8.851228,1.20431 7.046665,-0.85127 14.093331,-1.70255 21.139997,-2.55382 z"
             id="path1659"
             sodipodi:nodetypes="cssccccscsccccccccccccc"
             clip-path="url(#clipPath1663)" /><path
             style="display:inline;opacity:0.340467;mix-blend-mode:normal;fill:#000000;fill-opacity:1;stroke-width:0.264583;filter:url(#filter6976)"
             d="m 36.416527,115.17054 c 0,0 0.523978,-0.41918 0.628775,-0.73357 0.104796,-0.31439 1.467141,1.99112 1.833925,2.67229 0.366786,0.68118 2.305507,4.08704 2.5151,4.45382 0.209589,0.36679 1.100354,1.72913 1.309946,2.14832 0.209593,0.41918 -0.785968,1.46714 -0.785968,1.46714 0,0 -1.467141,-2.30551 -1.624336,-2.67229 -0.157191,-0.36679 -1.519536,-2.82949 -1.729128,-3.35347 -0.209593,-0.52398 -2.148314,-3.98224 -2.148314,-3.98224 z"
             id="path6278" /></g><g
           id="g860"
           transform="matrix(0.89513116,0,0,0.91458714,-13.071388,2.4235526)"
           style="opacity:1"><ellipse
             style="opacity:1;fill:#000000;fill-opacity:1;stroke-width:0.344762"
             id="ellipse854"
             cx="58.46632"
             cy="61.909733"
             rx="12.374999"
             ry="11.668717" /><ellipse
             style="opacity:1;fill:#ffffff;fill-opacity:1;stroke-width:0.31411"
             id="ellipse856"
             cx="58.46632"
             cy="61.909733"
             rx="11.274781"
             ry="10.631292" /><ellipse
             style="opacity:1;fill:#000000;fill-opacity:1;stroke-width:0.0470036"
             id="ellipse858"
             cx="55.686363"
             cy="62.037357"
             rx="1.6871653"
             ry="1.5908731" /></g><g
           id="g4506"><path
             style="opacity:1;fill:#000000;fill-opacity:1;stroke-width:0.264583"
             d="m 48.887223,65.654544 c -0.961969,0.365242 -1.342065,-0.162484 -2.626031,0.0017 -1.104285,0.141191 -2.606172,-0.084 -3.54066,-0.712892 -1.087429,-0.593994 -2.276081,-1.169759 -3.493307,-1.445299 -1.265528,-0.03479 -2.520558,0.0107 -3.693035,0.562048 -0.827909,0.389317 -1.584159,1.106436 -2.11099,1.880103 -0.474846,0.927801 -0.791131,1.718996 -1.002814,2.741758 -0.04032,1.028568 -0.09847,2.187345 0.348296,3.126101 0.572743,0.800135 1.24051,1.54581 1.980988,2.192304 1.907114,1.46532 4.420854,1.661638 6.739421,1.613344 2.679836,-0.03688 5.355722,-0.213608 8.026906,-0.422737 z"
             id="path3808"
             sodipodi:nodetypes="csssssssscsc" /><path
             id="path3810"
             style="opacity:1;fill:#f9d41a;fill-opacity:1;stroke-width:0.264583"
             d="m 38.021484,64.519531 c -1.416327,0.0086 -2.580616,0.85866 -3.576588,1.792161 -0.674642,0.723153 -1.381483,2.951168 -0.891582,4.484431 0.531246,1.39056 1.091135,2.085559 2.286952,2.844322 1.509907,1.086955 3.742055,1.097143 5.847397,1.094632 2.777098,-0.03579 5.552381,-0.0055 8.329249,-0.08738 -0.197137,-2.62802 -0.457559,-5.854323 -0.687112,-8.479006 -1.874868,0.27189 -3.709205,0.871875 -5.866637,0.277704 -1.35622,-0.452066 -2.480248,-1.433682 -3.876703,-1.795014 -0.507196,-0.140586 -1.041268,-0.196864 -1.564976,-0.131849 z"
             sodipodi:nodetypes="cccccccccsc" /></g><g
           id="g3111"><ellipse
             style="opacity:0.396887;fill:#000000;fill-opacity:1;stroke-width:0.344762;filter:url(#filter3103)"
             id="ellipse3097"
             cx="59.059135"
             cy="62.650749"
             rx="12.374999"
             ry="11.668717" /><ellipse
             style="opacity:1;fill:#000000;fill-opacity:1;stroke-width:0.344762"
             id="path3091"
             cx="58.46632"
             cy="61.909733"
             rx="12.374999"
             ry="11.668717" /><ellipse
             style="opacity:1;fill:#ffffff;fill-opacity:1;stroke-width:0.31411"
             id="ellipse3093"
             cx="58.46632"
             cy="61.909733"
             rx="11.274781"
             ry="10.631292" /><ellipse
             style="opacity:1;fill:#000000;fill-opacity:1;stroke-width:0.0470036"
             id="ellipse3095"
             cx="60.837578"
             cy="62.724854"
             rx="1.6871653"
             ry="1.5908731" /></g><g
           id="g1048"><path
             style="opacity:1;fill:#000000;fill-opacity:1;stroke-width:0.264583"
             d="m 68.379233,73.566625 c 0,0 0.157195,-0.785969 0.471583,-1.152753 0.314386,-0.366786 1.205151,-2.043517 1.729129,-2.619896 0.523981,-0.576376 1.571937,-2.200709 2.148313,-2.777088 0.576377,-0.576376 1.283831,-1.48725 1.676731,-1.833925 0.445384,-0.392983 0.733573,-0.995558 1.100357,-0.890764 0.366787,0.104796 0.25097,0.810272 0.157195,1.388544 -0.157195,0.969362 -0.325459,2.278548 -0.366787,3.170073 -0.04011,0.865222 -0.0524,1.991119 -0.0524,2.515097 v 1.78153 c 0,0 1.152755,-0.785969 1.519539,-1.100357 0.366786,-0.314386 1.553621,-1.402533 1.96492,-1.676731 0.471583,-0.314388 1.304238,-1.063358 1.702932,-1.336148 0.497779,-0.340585 1.219234,-0.817936 1.571938,-1.126554 0.419182,-0.366786 0.73357,-0.73357 0.995558,-0.47158 0.26199,0.261988 0.157194,1.519539 -0.0524,2.148314 -0.20959,0.628774 -0.723209,3.102425 -0.812168,3.45826 -0.104796,0.419182 -0.505956,2.153167 -0.602575,2.829486 -0.104798,0.73357 -0.104796,2.174511 -0.419182,2.829483 -0.290371,0.604941 -0.8234,0.325665 -0.785969,-0.104794 0.0524,-0.602577 0.157194,-2.567498 0.314389,-3.45826 0.157191,-0.890765 0.523978,-2.305508 0.576376,-2.672291 0.0524,-0.366787 0.261988,-1.100358 0.314386,-1.414743 0.0524,-0.314389 0.314388,-1.676734 0.314388,-1.676734 0,0 -0.628774,0.261991 -1.100357,0.628775 -0.47158,0.366786 -1.152752,0.812167 -1.467138,1.074155 -0.314389,0.261991 -0.890765,0.864566 -1.467141,1.28375 -0.576376,0.419182 -1.336146,1.44094 -1.78153,1.781527 -0.372285,0.284688 -0.94316,1.047959 -0.94316,1.047959 -0.419183,0.23579 -0.733571,-10e-7 -0.785969,-0.314388 0,0 -0.104796,-1.781527 -0.104796,-2.25311 0,-0.47158 -0.0019,-2.050933 0.0262,-2.331706 0.0524,-0.523976 0.157195,-1.807727 0.209593,-2.069714 0.0524,-0.261991 0.209589,-1.807729 0.209589,-1.807729 0,0 -0.864563,0.864566 -1.283747,1.388544 -0.419182,0.523978 -1.467141,1.833925 -1.781527,2.25311 -0.314389,0.419182 -1.257549,1.755328 -1.519539,2.122114 -0.261991,0.366784 -0.785969,1.23135 -0.995561,1.440942 -0.20959,0.209592 -0.681173,-0.0524 -0.681173,-0.0524 z"
             id="path864"
             sodipodi:nodetypes="csssssssscssssssssssssscssssccssscsssscc" /><path
             style="opacity:1;fill:#000000;fill-opacity:1;stroke-width:0.264583"
             d="m 57.637669,46.686512 c 0,0 2.567495,-0.419182 3.091476,-0.366784 0.523978,0.0524 2.200709,0.366784 2.829483,0.576376 0.628777,0.20959 2.619896,0.995558 2.98668,1.205151 0.366787,0.209592 1.729132,0.943163 1.886323,1.257548 0.157195,0.314389 -0.314385,0.419185 -0.314385,0.419185 0,0 -0.157195,-0.0524 -0.943163,-0.576379 -0.785969,-0.523978 -1.676731,-0.995558 -2.357903,-1.20515 -0.681173,-0.209593 -1.571938,-0.576377 -2.5151,-0.785969 -0.943161,-0.20959 -1.624333,-0.47158 -2.253107,-0.366784 -0.628775,0.104796 -1.205154,0 -1.78153,0.104796 -0.576376,0.104796 -0.628774,-0.26199 -0.628774,-0.26199 z"
             id="path962" /><path
             style="opacity:1;fill:#000000;fill-opacity:1;stroke-width:0.264583"
             d="m 51.035537,25.832155 c 1.22716,-2.649396 3.432846,-4.786863 6.069591,-6.022706 1.505553,-0.775653 3.123227,-1.398758 4.83861,-1.424238 2.425629,-0.19036 4.909156,0.263807 7.094748,1.332363 1.594581,0.818901 3.181192,1.77009 4.273507,3.228411 1.081277,1.159694 2.093559,2.486271 2.322185,4.102134 0.480458,2.414457 0.54687,5.002783 -0.331241,7.335719 -0.544175,0.977041 -0.38529,-1.00796 -0.401443,-1.457577 0.119019,-1.899121 0.41594,-3.882727 -0.356225,-5.694328 -0.587079,-1.860157 -1.622592,-3.629627 -3.256398,-4.752103 -2.469282,-1.995945 -5.598487,-3.453861 -8.840391,-3.125005 -1.884285,0.03938 -3.840194,0.421978 -5.354513,1.612005 -1.335984,0.892824 -2.587889,1.945053 -3.665149,3.130854 -0.521556,0.893025 -1.170006,2.003725 -2.393281,1.734471 z"
             id="path964"
             sodipodi:nodetypes="csssssssssscsssssssssssscc" /><path
             style="opacity:1;fill:#000000;fill-opacity:1;stroke-width:0.227086"
             d="m 63.829641,24.613332 c 1.048434,-1.473043 3.440885,-2.990302 6.295337,-3.280293 1.456275,-0.147946 3.168314,-0.213474 4.56056,0.08955 2.053604,0.446964 3.943438,1.599931 5.433668,3.062747 1.076288,1.098943 1.860842,2.550017 2.244009,4.056718 0.172126,0.676836 0.214975,2.574494 0.181158,3.965305 -0.02128,0.875097 -0.931787,5.662439 -1.793096,6.349238 -0.312746,0.249381 0.01033,-1.184336 0.127479,-1.940056 0.277933,-1.792974 0.495706,-2.966602 0.63066,-4.653051 0.132999,-1.662012 0.156402,-3.279268 -0.52339,-4.727871 -0.694007,-1.478893 -3.080044,-4.158319 -6.361833,-4.951448 -1.581737,-0.382268 -2.908806,-0.475945 -4.83133,-0.135585 -1.366641,0.241947 -3.135207,0.78832 -4.187747,1.887349 -1.344972,1.404378 -3.16995,2.236628 -1.775475,0.277401 z"
             id="path804"
             sodipodi:nodetypes="ssssssssssssss" /><path
             style="opacity:1;fill:#000000;fill-opacity:1;stroke-width:0.264583"
             d="m 34.142402,45.202093 c 1.395257,-0.190561 2.806444,-0.138541 4.209602,-0.196122 1.695031,-0.0067 3.371336,0.360344 4.98281,0.863149 0.570782,0.183806 1.145241,0.370261 1.676149,0.648052 0.365542,0.391402 -0.504065,0.151442 -0.846868,0.05993 -1.161801,-0.310152 -2.113646,-0.597348 -3.295693,-0.772157 -1.598714,-0.155717 -3.171169,-0.103185 -4.774737,-0.149605 -0.668725,0.01678 -1.410463,0.07933 -2.04285,0.09322 -0.219531,0.0048 0.03251,-0.376072 0.09159,-0.54646 z"
             id="path1041"
             sodipodi:nodetypes="ssssssssss" /></g><g
           id="g1498"><path
             style="opacity:1;fill:#f9d31a;fill-opacity:1;stroke-width:0.264583"
             d="m 68.970244,78.714631 c 0,0 2.445361,-1.444985 2.667666,-1.556139 0.222303,-0.111152 1.852544,-0.666914 2.223053,-0.703966 0.37051,-0.03705 2.0378,0.185256 2.315681,0.333457 0.277882,0.148203 1.148578,1.14858 1.259732,1.426461 0.111151,0.277881 0.51871,2.204527 0.574288,2.68619 0.05558,0.481661 -0.05558,3.038173 -0.166729,3.445732 -0.111154,0.407562 -1.0189,2.315681 -1.167104,2.612089 -0.148204,0.296407 -0.889222,1.148577 -1.130051,1.315307 -0.240832,0.16673 -0.870696,0.537239 -1.35236,0.518713 -0.48166,-0.01852 -1.370883,-0.185256 -1.66729,-0.240832 -0.296407,-0.05558 -1.167104,-0.500187 -1.333831,-0.574289 -0.16673,-0.0741 -0.666916,-0.426085 -0.796594,-0.518712 -0.12968,-0.09263 -0.203782,0.09263 -0.574289,-0.481661 -0.370509,-0.574289 -1.778444,-2.260105 -1.611714,-3.556887 0.166729,-1.296781 0.759542,-4.705463 0.759542,-4.705463 z"
             id="path1084" /><path
             style="opacity:1;fill:#000000;fill-opacity:1;stroke-width:0.264583"
             d="m 71.156324,77.103482 c 0.05065,-0.294453 1.174787,-0.918957 1.912363,-1.016098 1.17512,-0.270595 2.467334,-0.193534 3.51426,0.448037 0.730422,0.343784 1.083273,1.112529 1.453226,1.782596 0.500307,0.961785 0.541168,2.086916 0.528839,3.150048 -0.103534,1.742496 -0.228743,3.567325 -1.119707,5.114291 -0.518605,0.90632 -1.235981,1.731332 -2.140024,2.263908 -0.557377,0.214767 -1.161449,0.282194 -1.748385,0.371251 -1.284331,0.01734 -2.453679,-0.655661 -3.443274,-1.415172 -0.450444,-0.521478 0.357236,-0.5016 0.703265,-0.303389 0.773933,0.443321 1.581046,0.637204 2.458626,0.79182 0.795929,0.115739 1.582187,-0.220766 2.245821,-0.609337 0.505458,-0.295956 1.180468,-1.526834 1.42028,-2.088593 0.441597,-1.034442 0.772045,-2.572684 0.734733,-4.160672 -0.04292,-1.142771 -0.193283,-2.381665 -0.793272,-3.401996 -0.576395,-0.859809 -1.653502,-1.238156 -2.658647,-1.167893 -0.755225,6.66e-4 -1.490541,0.272999 -2.201821,0.490562 -0.555593,0.169942 -0.974963,0.382427 -0.866283,-0.249363 z"
             id="path1080"
             sodipodi:nodetypes="ssssssssssssssssss" /><path
             style="opacity:1;fill:#000000;fill-opacity:1;stroke-width:0.264583"
             d="m 70.396554,82.657658 c 0.09345,-0.318356 0.902753,-1.477554 1.658893,-1.883247 0.50821,-0.299898 1.080565,-0.514344 1.67669,-0.520543 0.472168,-0.01563 0.974326,-0.09652 1.418853,0.109151 0.251719,0.05547 0.193655,0.395018 -0.06454,0.382661 -0.284036,0.0063 -0.572274,-0.0066 -0.856237,0.03577 -0.195677,0.02322 0.03409,0.306546 0.06685,0.433045 0.160553,0.303117 0.34054,0.610401 0.360327,0.961829 0.03852,0.28249 -0.02943,0.562419 -0.12251,0.826912 -0.05665,0.221205 -0.29665,0.511363 -0.500521,0.453731 -0.181806,-0.09647 0.02033,-0.432045 0.04503,-0.642853 0.0558,-0.298363 0.03637,-0.51767 -0.07829,-0.842809 -0.115048,-0.34143 -0.304577,-0.691931 -0.504525,-0.985664 -0.230647,-0.194172 -0.586375,-0.112859 -0.828261,0.0065 -0.276893,0.159199 -0.540826,0.313469 -0.803862,0.493809 -0.258575,0.20917 -0.486881,0.451962 -0.707726,0.698872 -0.235849,0.227831 -0.405674,0.522759 -0.681565,0.70859 -0.129683,-0.0067 -0.151435,-0.03328 -0.07861,-0.235745 z"
             id="path1082"
             sodipodi:nodetypes="ccccccccccccccccccc" /></g><g
           id="g3681"><path
             style="display:inline;opacity:1;fill:#ffffff;fill-opacity:1;stroke-width:0.264583"
             d="m 34.896988,89.757569 0.838367,5.23979 1.100354,5.344581 c 0,0 2.148314,1.36235 2.934282,1.62434 0.785969,0.26199 8.645652,0.62877 9.693609,0.52398 1.047956,-0.1048 7.335702,-1.10036 8.383661,-1.36235 1.047956,-0.26199 5.396981,-1.676733 5.973358,-2.462701 0.576376,-0.785966 2.619893,-3.301066 2.619893,-4.506217 0,-1.205151 -0.838364,-6.392542 -1.886323,-7.230909 -1.047956,-0.838364 -4.191831,-2.095913 -5.396981,-1.729129 -1.205151,0.366784 -6.706928,1.886323 -8.698048,2.200712 -1.991121,0.314386 -4.034639,0.681172 -6.130554,0.681172 -2.095913,0 -4.558615,1.047957 -6.497336,0.838367 -1.938721,-0.209592 -2.934282,0.838364 -2.934282,0.838364 z"
             id="path2530" /><path
             style="opacity:1;fill:#000000;fill-opacity:1;stroke-width:0.264583"
             d="m 33.429847,70.894333 c -3.565252,1.004718 -7.788876,2.15742 -9.614191,5.546807 -0.472638,0.877632 -0.84962,2.258825 -1.248768,3.083054 -0.399149,0.824229 -0.820465,1.091495 -1.826385,1.519715 -2.379566,1.012982 -1.791836,4.852608 0.374901,6.18748 3.596259,2.628769 8.08904,3.706285 12.439464,4.255874 3.662667,0.305777 7.36379,0.393423 11.026773,0.106212 4.944328,-0.524515 9.867307,-1.411349 14.571448,-3.048213 2.396137,-1.300312 4.521787,0.681911 4.908131,3.037939 0.554122,2.258839 -0.79494,4.330994 -2.496575,5.678006 -4.971257,2.235078 -10.504748,2.5681 -15.88188,2.66564 -3.152371,0.196973 -7.016526,0.136683 -9.004044,-2.7514 -1.240934,-2.26291 -4.055937,1.258141 -3.841829,2.946353 -0.232105,2.37488 2.563589,2.91688 4.068511,3.83631 2.113242,2.06269 4.139648,4.27532 6.826872,5.60596 3.132843,1.75212 6.865074,1.56849 10.287484,0.98727 2.847352,-0.74066 5.759538,-1.7482 8.082271,-3.61126 1.720763,-1.45991 3.177663,-3.17394 4.220972,-5.18378 1.184451,-2.058926 1.661592,-4.483296 1.976881,-6.816434 0.428958,-3.443661 0.125172,-7.003921 -1.240268,-10.21819 -1.258169,-3.15386 -3.923075,-5.595235 -6.913257,-7.118476 -2.853166,-1.529488 -7.036227,-2.479282 -9.228739,-2.851587 -2.510774,-0.426348 -5.09656,0.263205 -7.645617,0.173145 -2.911032,0.02822 -6.467383,0.171551 -8.552884,-2.246424 -0.453831,-0.535623 -0.855478,-1.232099 -1.289271,-1.783998 z"
             id="path1606"
             sodipodi:nodetypes="sssssscsssssssssssssssssss" /><path
             id="path1704"
             style="opacity:1;fill:#d4ad7d;fill-opacity:1;stroke-width:0.264583"
             d="m 33.044922,72.103516 c -2.925562,0.865461 -6.216089,1.758908 -8.042969,4.414062 -1.066672,1.605915 -1.063904,3.956492 -2.878906,5.021484 -0.726888,0.405443 -1.809777,0.692484 -1.820577,1.706446 -0.248741,1.57521 0.867769,3.005402 2.228191,3.660904 4.462158,2.818645 9.891742,3.593575 15.041961,3.758303 4.644651,0.214614 9.295484,-0.241388 13.847814,-1.159418 2.885418,-0.541665 5.717454,-1.354978 8.474636,-2.350373 2.306463,-0.506688 4.493546,1.384315 5.052194,3.538435 0.676725,2.061241 0.126624,4.405683 -1.310562,6.014545 -0.836881,1.127276 -2.073759,1.867956 -3.416142,2.230619 -5.396559,1.940827 -11.212038,1.987717 -16.876378,2.108307 -2.643691,-0.02 -5.552318,-0.72083 -7.257175,-2.893641 -0.20101,-0.471121 -0.611454,-0.816151 -1.024509,-0.33483 -0.898732,0.821166 -1.672948,2.362891 -0.816406,3.468751 1.306639,1.1074 3.225808,1.33831 4.278444,2.78369 2.765038,2.86758 6.187514,5.73952 10.343251,5.799 3.297387,0.1988 6.648096,-0.60858 9.548968,-1.93364 3.48267,-1.51563 6.150187,-4.56593 7.616283,-8.025178 1.109293,-2.914635 1.496154,-6.090375 1.340927,-9.196291 -0.229393,-3.355049 -1.351259,-7.028379 -3.924962,-9.465228 -3.236942,-3.21031 -7.793243,-4.478776 -12.148171,-5.308851 -1.573675,-0.291978 -3.197694,-0.104073 -4.79302,-0.161043 -2.599265,-0.04819 -5.214805,0.120447 -7.802736,-0.166288 -2.066329,-0.286367 -4.072663,-1.298325 -5.296875,-3.021484 -0.131371,-0.143962 -0.229998,-0.380685 -0.363281,-0.488281 z" /><path
             style="opacity:1;fill:#000000;fill-opacity:1;stroke-width:0.264583"
             d="m 37.988464,91.01512 c 2.253107,9.16963 2.305505,9.22203 2.305505,9.22203 l 0.838367,-0.2096 -2.253109,-9.01243 z"
             id="path3351" /><path
             style="opacity:1;fill:#000000;fill-opacity:1;stroke-width:0.264583"
             d="m 46.26733,90.543538 2.095915,9.850802 0.995558,-0.0524 -2.095915,-9.746004 z"
             id="path3668" /><path
             style="display:inline;opacity:1;fill:#000000;fill-opacity:1;stroke-width:0.264583"
             d="m 57.270885,88.50002 1.414743,10.427179 0.995558,-0.26199 -1.467141,-10.427176 z"
             id="path3670" /><path
             style="opacity:1;fill:#000000;fill-opacity:1;stroke-width:0.264583"
             d="m 35.791166,96.962197 -1.296781,-5.854041 1.000374,-0.111154 1.333833,6.928519 z"
             id="path3672" /><path
             style="opacity:1;mix-blend-mode:normal;fill:#000000;fill-opacity:1;stroke-width:0.264583;filter:url(#filter3751)"
             d="m 62.282559,85.958081 c 0,0 0.963321,0.629864 1.259729,1.037426 0.296407,0.407559 1.148577,1.556136 1.370883,2.074849 0.222305,0.518713 0.592814,1.519087 0.741018,2.148951 0.148204,0.629867 0.148204,1.18563 0.148204,1.926648 0,0.741019 -0.148204,1.741393 -0.185254,2.223053 -0.03705,0.481661 -0.296407,1.593189 -0.296407,1.593189 0,0 -0.148204,0.185256 -0.185256,0.03705 -0.03705,-0.148204 0.05558,-1.130053 0.09263,-1.648766 0.03705,-0.518713 0.111155,-1.50808 0.111154,-2.074849 -2e-6,-0.703969 -0.148204,-1.704342 -0.222304,-2.223055 -0.0741,-0.518711 -0.277884,-1.130052 -0.537239,-1.759919 -0.259355,-0.629864 -0.500187,-1.055948 -0.870697,-1.500559 -0.370509,-0.444611 -0.348988,-0.511971 -0.852169,-1.05595 -0.685443,-0.741019 -0.574288,-0.77807 -0.574288,-0.77807 z"
             id="path3749"
             sodipodi:nodetypes="cssssscssssssscc" /><path
             style="opacity:0.167315;fill:#000000;fill-opacity:1;stroke-width:0.264583"
             d="m 39.125747,105.74326 c 1.166226,2.87134 4.18062,4.52938 7.017559,5.37366 3.092868,0.68123 6.413234,0.74892 9.428408,-0.34053 3.323687,-0.72981 6.376547,-2.50367 8.635972,-5.04887 1.98658,-1.92795 3.262879,-4.47715 3.687403,-7.205147 0.565574,-3.418803 0.399271,-6.96983 -0.335896,-10.349364 -0.560443,-1.99696 -1.246155,-4.026874 -2.381682,-5.765076 -2.415479,-2.950953 -5.884519,-4.841589 -9.451864,-6.039472 -3.004193,-0.745555 -6.099061,-1.423008 -9.209761,-1.029165 -2.583831,-0.143678 -5.210196,0.298001 -7.738091,-0.378197 -1.995687,-0.221377 -3.732026,-1.227214 -5.108322,-2.650482 -1.494526,-1.050293 1.038061,2.145701 1.707152,2.358952 2.539292,1.665562 5.274191,1.483084 8.184993,1.561088 5.312581,-0.05639 10.957758,0.219124 15.65705,2.921098 1.451897,0.802389 2.561986,1.649916 3.566624,2.823825 1.603683,1.567664 3.071194,3.516415 3.636363,5.69446 0.642147,2.769107 0.959495,5.366634 0.483989,8.068056 0.08663,2.257635 -0.56599,4.402644 -1.515003,6.421754 -1.028692,2.5438 -3.258661,4.35275 -5.582116,5.68427 -1.878176,1.38367 -4.27075,1.70551 -6.471319,2.30585 -2.352767,-0.0585 -4.798228,0.85398 -7.05652,-0.13522 -2.721715,-0.81875 -4.853161,-2.72146 -7.154939,-4.27149 z"
             id="path3760"
             sodipodi:nodetypes="cccccccccccccccccccccc" /></g><g
           id="g5099"><path
             style="opacity:1;fill:#000000;fill-opacity:1;stroke-width:0.264583"
             d="m 54.179408,112.96983 -0.419182,0.20959 c -0.685442,0.48166 -10.41864,9.64484 -11.789523,11.10835 -0.205027,-0.47104 -3.510419,-6.58314 -3.698547,-6.86094 -0.412758,-0.60951 -2.032762,-3.63542 -3.165576,-5.40016 -0.852171,0.55576 -3.680565,4.49087 -4.309339,5.43403 -0.628774,0.94316 -3.253937,5.15561 -3.550344,5.67432 0.222305,0.81512 3.279897,3.30848 3.825047,3.72025 1.613801,1.21896 5.203696,3.01113 5.920959,3.30107 1.273987,0.51498 6.598647,1.70762 8.17407,1.83392 0.918018,0.0736 7.807285,0.1048 8.488457,0 0.681173,-0.10479 5.140641,-0.52539 6.916521,-0.94316 1.261684,-0.2968 5.434965,-1.37217 6.287746,-1.67673 0.733569,-0.26199 4.060834,-1.23135 5.108792,-1.62433 1.011434,-0.37929 3.117675,-1.20516 3.851246,-1.51955 0.73357,-0.31438 3.036564,-1.36885 3.301066,-1.46714 0.885556,-0.32908 1.149756,-0.36272 1.257548,-0.99555 0,0 -0.206414,-1.05377 -0.326555,-1.63651 -0.100371,-0.48685 -0.56421,-2.29334 -0.826197,-2.97451 -0.261991,-0.68117 -2.043518,-4.24423 -2.148314,-4.55862 -0.104796,-0.31438 -7.178511,-2.2531 -7.178511,-2.2531 l -11.31794,1.67673 z"
             id="path5219"
             sodipodi:nodetypes="cccscscssssssssscsssccc" /><path
             id="path5221"
             style="opacity:1;fill:#d3d3d3;fill-opacity:1;stroke-width:0.269275"
             d="m 58.626953,114.71972 c -1.377799,-0.21274 -2.712283,-0.88194 -4.108865,-0.99359 -0.79749,0.19987 -1.224358,1.06373 -1.87075,1.53728 -3.705219,3.5479 -7.387011,7.12402 -10.950072,10.82569 -2.133749,-4.31504 -4.408199,-8.57138 -6.792969,-12.75514 -2.436096,3.00459 -4.426665,6.35449 -6.394531,9.69634 2.417543,2.82451 5.616166,4.79474 8.933497,6.2753 2.521749,0.84546 5.130498,1.46757 7.76468,1.80257 2.90294,0.12412 5.860182,0.16594 8.727604,-0.0103 3.204975,-0.34836 6.421366,-0.75247 9.514691,-1.72499 4.477077,-1.27118 8.938027,-2.67572 13.167473,-4.67944 0.876128,-0.39599 1.752255,-0.79198 2.628383,-1.18797 -0.342322,-2.3697 -1.08184,-4.6722 -2.194912,-6.77629 -0.344022,-0.58372 -0.449142,-1.30677 -0.92473,-1.76513 -2.098742,-0.74866 -4.252301,-1.4096 -6.397249,-1.94693 -3.70075,0.56746 -7.4015,1.13492 -11.10225,1.70238 z" /><path
             id="path8735"
             style="opacity:1;fill:#a7a7a7;fill-opacity:1;stroke-width:0.269275"
             d="m 69.729077,113.01687 -11.102165,1.70274 c -1.377797,-0.21274 -2.712212,-0.88209 -4.108793,-0.99374 -0.342709,0.0859 -0.616025,0.2967 -0.868681,0.54416 0.711876,0.48831 1.353234,1.0358 1.615406,1.76992 0.859196,2.47991 1.460138,5.03032 1.914095,7.61348 0.39389,2.24137 0.908566,4.67943 1.450557,6.83266 1.627085,-0.26852 3.240139,-0.61613 4.820895,-1.11311 4.477072,-1.27118 8.937713,-2.67558 13.167155,-4.6793 l 2.62878,-1.18804 c -0.342322,-2.3697 -1.082144,-4.67224 -2.195215,-6.77633 -0.344022,-0.58372 -0.448904,-1.30691 -0.924492,-1.76527 -2.098739,-0.74866 -4.252596,-1.40984 -6.397542,-1.94717 z" /><path
             style="display:inline;opacity:1;fill:#000000;fill-opacity:1;stroke-width:0.264583"
             d="m 53.824794,113.67007 c 1.146892,0.56667 2.074574,1.63472 2.366424,2.7594 0.666512,2.51976 1.235054,5.07352 1.830014,7.55246 0.300311,1.09007 0.629275,2.9676 1.083987,3.35106 1.45423,-0.0171 2.828223,-0.65799 4.24382,-0.94931 3.123533,-0.81894 6.234524,-1.72608 9.172084,-3.08533 2.291761,-0.93392 4.515575,-2.08378 6.442483,-3.64779 0.982152,-0.82361 2.299808,-1.7611 1.364811,-3.19013 -0.627654,-2.00989 -1.213291,-4.02696 -1.862581,-6.0319 -0.499198,-1.54147 -1.159053,-3.16409 -1.702932,-4.68961 -0.34708,-0.97352 -1.248244,-1.71905 -2.812701,-1.95059 -1.623838,-0.43454 -0.906149,1.51001 -0.682094,2.36425 -0.08609,0.86556 0.212259,1.02156 -0.659182,1.80426 -1.948087,1.28918 -4.131336,1.66504 -6.314474,2.41089 -1.824688,0.51863 -3.640121,1.0698 -5.512901,1.39694 -2.052892,0.34597 -4.059775,0.93266 -6.135056,1.13598 -0.976417,0.031 -1.263899,0.61117 -0.821702,0.76942 z"
             id="path4623"
             sodipodi:nodetypes="ccccccccssccccccc" /><path
             id="path4625"
             style="opacity:1;fill:#dcdcdc;fill-opacity:1;stroke-width:0.267105"
             d="m 73.698615,104.92968 c 0.526451,0.94669 1.223576,2.41785 0.294767,3.33553 -0.803751,0.62492 -1.789434,0.83065 -2.692494,1.28878 -2.830036,1.18639 -5.822287,1.98427 -8.788319,2.74357 -2.367449,0.51142 -4.793111,1.01846 -7.179196,1.43024 0.759824,0.67327 1.489449,1.87674 1.696161,2.7672 0.82453,3.32932 2.212353,9.42337 2.512399,9.98183 0.330834,0.21396 3.953233,-0.99443 5.917603,-1.54033 3.896082,-1.08273 7.708202,-2.6116 11.164642,-4.74902 1.065387,-0.70648 2.159638,-1.45858 2.938318,-2.48647 -0.09815,-0.74901 -0.347919,-1.50751 -0.480186,-2.2659 -1.040747,-3.474 -2.027822,-6.42535 -3.438765,-9.76578 -0.721173,-0.5727 -1.295841,-0.65949 -1.94493,-0.73965 z"
             sodipodi:nodetypes="cccccccsccccc" /><path
             style="opacity:1;fill:#000000;fill-opacity:1;stroke-width:0.264583"
             d="m 31.937872,108.15157 -0.685441,-0.0556 c 0,0 -0.907747,1.38941 -1.204155,1.83402 -0.296407,0.44461 -1.593188,2.51946 -1.889596,3.11228 -0.296404,0.59281 -1.370883,2.66766 -1.66729,3.26047 -0.296406,0.59282 -1.222678,2.63062 -1.370882,2.96408 -0.148204,0.33346 -0.741018,1.70434 -0.778069,1.96369 -0.03705,0.25936 -0.0741,0.66692 0.259356,0.66692 0.333459,0 1.63024,-0.11115 1.852545,-0.1482 0.222306,-0.0371 1.70434,-0.25936 2.000748,-0.33346 0.296407,-0.0741 0.778071,-0.25936 0.778071,-0.25936 0,0 0.666914,-1.48203 1.000373,-1.85254 0.333457,-0.37051 1.111528,-1.77845 1.296781,-2.0378 0.185254,-0.25936 0.85217,-1.37088 1.259732,-1.85254 0.407559,-0.48167 1.148577,-1.51909 1.370883,-1.70435 0.222305,-0.18525 0.926272,-1.18563 0.926272,-1.18563 0,0 -0.778068,-1.00037 -1.111528,-1.51908 -0.333457,-0.51871 -1.482034,-2.0378 -1.593189,-2.186 -0.111151,-0.14821 -0.444611,-0.66692 -0.444611,-0.66692 z"
             id="path7103"
             sodipodi:nodetypes="ccsssssscscsssscssc" /><path
             style="opacity:1;fill:#818386;fill-opacity:1;stroke-width:0.220983"
             d="m 31.90978,109.2631 c -0.05692,-0.12968 -0.256648,-0.27599 -0.510531,0.0741 -1.020597,1.57158 -2.115378,3.31371 -3.107315,5.07592 -0.996796,1.77084 -1.887536,3.60438 -2.67826,5.47234 -0.171665,0.40553 -0.251934,1.08114 0.429044,1.05205 0.995209,-0.0425 1.958284,-0.11189 2.813348,-0.32594 1.351828,-2.08872 2.60139,-4.00144 4.025888,-5.9888 0.469858,-0.65551 1.048904,-1.43387 1.593906,-2.06021 -0.787107,-1.32714 -1.732485,-2.38658 -2.56608,-3.29946 z"
             id="path7105"
             sodipodi:nodetypes="ccssscscc" /></g></g></g></g></svg>
