<?xml version="1.0" encoding="UTF-8" standalone="no"?>
<!-- Created with Inkscape (http://www.inkscape.org/) -->

<svg
   width="210mm"
   height="297mm"
   viewBox="0 0 210 297"
   version="1.1"
   id="svg5"
   xml:space="preserve"
   inkscape:version="1.2.1 (9c6d41e410, 2022-07-14)"
   sodipodi:docname="(simpsons) maggie.svg"
   xmlns:inkscape="http://www.inkscape.org/namespaces/inkscape"
   xmlns:sodipodi="http://sodipodi.sourceforge.net/DTD/sodipodi-0.dtd"
   xmlns="http://www.w3.org/2000/svg"
   xmlns:svg="http://www.w3.org/2000/svg"><sodipodi:namedview
     id="namedview7"
     pagecolor="#ffffff"
     bordercolor="#666666"
     borderopacity="1.0"
     inkscape:showpageshadow="2"
     inkscape:pageopacity="0.0"
     inkscape:pagecheckerboard="0"
     inkscape:deskcolor="#d1d1d1"
     inkscape:document-units="mm"
     showgrid="false"
     inkscape:zoom="2.0377309"
     inkscape:cx="209.79218"
     inkscape:cy="220.34313"
     inkscape:window-width="2560"
     inkscape:window-height="1377"
     inkscape:window-x="1272"
     inkscape:window-y="-8"
     inkscape:window-maximized="1"
     inkscape:current-layer="g8555" /><defs
     id="defs2"><clipPath
       clipPathUnits="userSpaceOnUse"
       id="clipPath2496"><path
         id="path2498"
         style="opacity:0.498978;fill:#cd6868;fill-opacity:1;stroke:none;stroke-width:0.264583px;stroke-linecap:butt;stroke-linejoin:miter;stroke-opacity:1"
         d="m 61.16211,27.419922 c -2.26744,2.831909 -3.983128,6.072505 -5.446453,9.379971 -0.992807,2.280859 -1.771523,4.655365 -2.299642,7.086825 -5.965608,0.417475 -11.688064,2.134875 -17.399114,3.856728 -0.923888,-0.0033 -0.602909,0.677315 -0.414438,1.285113 1.462228,5.444432 3.418864,10.784544 6.403396,15.604252 0.341251,0.584147 -0.02855,1.020659 -0.543476,1.316244 -4.087196,3.334678 -7.863255,7.130682 -11.499493,10.884929 -0.511257,0.547947 -1.009213,1.109231 -1.466797,1.703126 2.828436,2.801908 6.273268,4.865126 9.580528,7.041882 1.932036,1.223532 3.895776,2.39567 5.868692,3.551868 -1.747391,5.035801 -3.150275,10.189403 -4.345626,15.38173 -0.122806,0.587 -0.225708,1.17929 -0.283281,1.77647 2.435392,0.66957 4.934402,0.56287 7.446087,0.61035 3.207374,-0.004 6.385017,-0.19704 9.573445,-0.4248 1.022427,4.54855 1.829252,9.17408 3.644532,13.49805 0.280223,0.30355 0.923772,-0.1847 1.326171,-0.16602 3.956079,-1.09807 7.708702,-2.84427 11.451797,-4.46486 6.204391,-2.84064 12.393837,-5.70989 18.619851,-8.50308 5.859581,-2.65978 11.719161,-5.31955 17.578741,-7.979326 1.29657,-3.55745 3.30505,-7.120736 2.85973,-11.037162 -0.49061,-4.376616 -2.92734,-8.192535 -5.25573,-11.815112 -0.85324,-1.275291 -1.74451,-2.524366 -2.63915,-3.770773 3.29086,-1.869532 5.29004,-5.230145 7.02407,-8.468333 2.43902,-4.732282 4.38711,-9.807284 5.20062,-15.028863 -0.021,-0.412226 0.32436,-1.154586 -0.10671,-1.322755 -5.25242,-1.28102 -10.65356,-2.0145 -16.02145,-1.289492 -0.294015,-0.182054 0.0539,-0.970804 -0.07806,-1.394836 -0.237699,-1.770292 -0.972143,-3.429486 -1.541709,-5.111345 -1.325581,-3.568837 -2.676004,-7.039853 -4.687705,-10.284764 -0.317793,-0.372642 -0.971806,0.242692 -1.411115,0.228558 -3.942152,1.311055 -7.707358,3.135997 -11.280177,5.247018 -1.155208,0.701455 -2.201437,1.574784 -3.093866,2.590829 -1.912779,-3.233314 -4.918937,-5.679072 -8.24734,-7.350707 -2.596372,-1.319702 -5.358323,-2.313345 -8.188206,-2.996949 -0.109376,0.121743 -0.21875,0.243488 -0.328126,0.365234 z" /></clipPath><filter
       inkscape:collect="always"
       style="color-interpolation-filters:sRGB"
       id="filter4274"
       x="-0.023587756"
       y="-0.024854906"
       width="1.0471755"
       height="1.0497098"><feGaussianBlur
         inkscape:collect="always"
         stdDeviation="0.27221461"
         id="feGaussianBlur4276" /></filter><filter
       inkscape:collect="always"
       style="color-interpolation-filters:sRGB"
       id="filter6219"
       x="-0.066196775"
       y="-0.039056096"
       width="1.1323935"
       height="1.0781122"><feGaussianBlur
         inkscape:collect="always"
         stdDeviation="0.10564848"
         id="feGaussianBlur6221" /></filter><filter
       inkscape:collect="always"
       style="color-interpolation-filters:sRGB"
       id="filter6226"
       x="-0.21360488"
       y="-0.22072507"
       width="1.4272098"
       height="1.4414501"><feGaussianBlur
         inkscape:collect="always"
         stdDeviation="0.089560663"
         id="feGaussianBlur6228" /></filter><filter
       inkscape:collect="always"
       style="color-interpolation-filters:sRGB"
       id="filter6258"
       x="-0.0568285"
       y="-0.025724357"
       width="1.113657"
       height="1.0514487"><feGaussianBlur
         inkscape:collect="always"
         stdDeviation="0.13875641"
         id="feGaussianBlur6260" /></filter><filter
       inkscape:collect="always"
       style="color-interpolation-filters:sRGB"
       id="filter7084"
       x="-0.0044550397"
       y="-0.002634701"
       width="1.0089101"
       height="1.0052694"><feGaussianBlur
         inkscape:collect="always"
         stdDeviation="0.0046867684"
         id="feGaussianBlur7086" /></filter><filter
       inkscape:collect="always"
       style="color-interpolation-filters:sRGB"
       id="filter7125"
       x="-0.019645322"
       y="-0.019927309"
       width="1.0392906"
       height="1.0398546"><feGaussianBlur
         inkscape:collect="always"
         stdDeviation="0.22531983"
         id="feGaussianBlur7127" /></filter><filter
       inkscape:collect="always"
       style="color-interpolation-filters:sRGB"
       id="filter8436"
       x="-0.042522291"
       y="-0.03650484"
       width="1.0850446"
       height="1.0730097"><feGaussianBlur
         inkscape:collect="always"
         stdDeviation="0.30588065"
         id="feGaussianBlur8438" /></filter><filter
       inkscape:collect="always"
       style="color-interpolation-filters:sRGB"
       id="filter8442"
       x="-0.04318663"
       y="-0.039010164"
       width="1.0863733"
       height="1.0780203"><feGaussianBlur
         inkscape:collect="always"
         stdDeviation="0.24672196"
         id="feGaussianBlur8444" /></filter><filter
       inkscape:collect="always"
       style="color-interpolation-filters:sRGB"
       id="filter10949"
       x="-0.01737792"
       y="-0.016449727"
       width="1.0347558"
       height="1.0328995"><feGaussianBlur
         inkscape:collect="always"
         stdDeviation="0.65306566"
         id="feGaussianBlur10951" /></filter></defs><g
     inkscape:label="Layer 1"
     inkscape:groupmode="layer"
     id="layer1"
     style="display:inline"><g
       id="g8555"
       style="display:inline"
       inkscape:label="Maggie"
       transform="matrix(0.47122517,0,0,0.47122517,-2.9802945,-4.3510386)"><path
         id="path10852"
         style="display:inline;opacity:0.570039;fill:#000000;fill-opacity:1;stroke:none;stroke-width:0.264583px;stroke-linecap:butt;stroke-linejoin:miter;stroke-opacity:1;filter:url(#filter10949)"
         d="m 60.925479,28.271844 c -1.037424,0.518712 -6.710038,8.559634 -8.636683,17.007231 -6.89146,0.44461 -18.505847,4.370792 -18.505847,4.370792 0,0 2.248482,10.300374 6.916891,17.710547 -2.609593,1.922858 -12.008019,10.912635 -13.862203,13.590902 2.609592,3.571021 15.538586,11.036019 15.538586,11.036019 -0.454859,0.985529 -4.856141,15.804345 -4.401282,17.396355 2.880778,1.74363 17.244426,0.59945 17.244426,0.59945 0,0 2.477511,12.35262 4.069519,13.56558 2.200061,0.14667 9.781786,-3.09733 14.919503,-5.43171 -0.106458,0.62831 -0.130964,1.32082 0.15968,1.69808 1.809505,2.34877 5.757428,1.79533 8.721948,1.74408 3.993086,-0.069 7.996696,-1.16447 11.66027,-2.75435 6.815013,-2.95751 12.284413,-8.13841 17.995283,-12.76149 l -8.52403,-1.26246 c -0.1301,-0.0565 -0.26002,-0.11287 -0.39067,-0.16898 l 5.68337,-2.57969 c 3.18113,-8.569573 6.67146,-11.870074 -4.36511,-27.12651 6.22455,-3.853289 12.43447,-20.919393 11.84166,-25.884208 0,0 -8.90687,-2.566122 -16.24294,-1.6769 0.29641,-1.482035 -5.217822,-15.822012 -7.070365,-16.859436 -1.778442,-0.148203 -13.36071,4.895496 -15.880168,7.637259 -4.2979,-6.520951 -13.691625,-9.116666 -16.871838,-9.850561 z" /><g
         id="g3479"
         style="display:inline"><path
           style="opacity:1;fill:#000000;fill-opacity:1;stroke:none;stroke-width:0.264583px;stroke-linecap:butt;stroke-linejoin:miter;stroke-opacity:1"
           d="m 79.43058,113.42329 c 0,0 -16.455004,7.96588 -19.866454,7.73845 -1.59201,-1.21296 -4.069194,-13.56548 -4.069194,-13.56548 0,0 -14.363697,1.14384 -17.244477,-0.59979 -0.45486,-1.59201 3.94656,-16.410563 4.40142,-17.396093 0,0 -12.929159,-7.46508 -15.538754,-11.036105 1.854186,-2.678269 11.252429,-11.668038 13.862024,-13.590898 -4.668413,-7.41018 -6.916521,-17.710483 -6.916521,-17.710483 0,0 11.613975,-3.926119 18.505442,-4.37073 1.926647,-8.447605 7.599234,-16.488894 8.636659,-17.007607 3.180217,0.733896 12.574215,3.329843 16.872119,9.850801 2.519461,-2.741766 14.10184,-7.785579 15.880283,-7.637376 1.852545,1.037426 7.366403,15.377368 7.069993,16.859404 7.33608,-0.889222 16.24334,1.676733 16.24334,1.676733 0.59281,4.96482 -5.61737,22.03126 -11.84192,25.884553 11.03658,15.256451 7.54629,18.556691 4.36516,27.126272 z"
           id="path1645"
           sodipodi:nodetypes="ccccccccccccccccc" /><path
           id="path2481"
           style="opacity:1;fill:#af9618;fill-opacity:1;stroke:none;stroke-width:0.264583px;stroke-linecap:butt;stroke-linejoin:miter;stroke-opacity:1"
           d="m 61.162109,27.419922 c -2.267439,2.831908 -3.983126,6.072505 -5.446452,9.37997 -0.992807,2.28086 -1.771524,4.655366 -2.299641,7.086827 -5.965609,0.417474 -11.688065,2.134873 -17.399114,3.856727 -0.923889,-0.0033 -0.60291,0.677314 -0.414438,1.285112 1.462226,5.444433 3.418864,10.784545 6.403395,15.604254 0.34125,0.584147 -0.02855,1.020658 -0.543477,1.316244 -4.087196,3.334678 -7.863254,7.130681 -11.499491,10.884928 -0.511257,0.547948 -1.009213,1.109232 -1.466797,1.703125 2.828434,2.80191 6.273268,4.865127 9.580527,7.041883 1.932035,1.223532 3.895775,2.395671 5.868691,3.551867 -1.747389,5.035803 -3.150273,10.189403 -4.345625,15.381731 -0.122806,0.587 -0.225707,1.17929 -0.283281,1.77647 2.435391,0.66957 4.934402,0.56287 7.446088,0.61035 3.207374,-0.004 6.385017,-0.19704 9.573444,-0.4248 1.022427,4.54855 1.829253,9.17408 3.644531,13.49805 0.280223,0.30355 0.923772,-0.1847 1.326172,-0.16602 3.956079,-1.09807 7.708702,-2.84427 11.451797,-4.46486 6.204392,-2.84064 12.393836,-5.70989 18.619851,-8.50308 5.859581,-2.65978 11.719161,-5.31955 17.578741,-7.979325 1.29657,-3.557451 3.30505,-7.120737 2.85973,-11.037163 -0.49061,-4.376617 -2.92734,-8.192534 -5.25573,-11.815111 -0.85324,-1.275293 -1.74451,-2.524367 -2.63915,-3.770773 3.29086,-1.869532 5.29004,-5.230146 7.02407,-8.468335 2.43902,-4.732281 4.38711,-9.807283 5.20062,-15.028863 -0.021,-0.412225 0.32436,-1.154584 -0.10671,-1.322754 -5.25242,-1.281021 -10.65356,-2.014501 -16.02145,-1.289492 -0.294016,-0.182054 0.0539,-0.970805 -0.07806,-1.394835 -0.237697,-1.770294 -0.972142,-3.429487 -1.541708,-5.111347 -1.32558,-3.568836 -2.676003,-7.039852 -4.687705,-10.284764 -0.317794,-0.372641 -0.971806,0.242693 -1.411116,0.228558 -3.942151,1.311057 -7.707356,3.135999 -11.280175,5.247019 -1.155209,0.701456 -2.201437,1.574785 -3.093866,2.590829 -1.912779,-3.233313 -4.918938,-5.679073 -8.247341,-7.350708 -2.596372,-1.3197 -5.358323,-2.313344 -8.188206,-2.996948 -0.109375,0.121744 -0.21875,0.243489 -0.328125,0.365234 z" /><path
           style="opacity:1;fill:#f6cf10;fill-opacity:1;stroke:none;stroke-width:0.26077px;stroke-linecap:butt;stroke-linejoin:miter;stroke-opacity:1"
           d="m 82.676633,111.43756 c 0,0 -16.455004,7.73792 -19.866454,7.51699 -1.59201,-1.17824 -4.069194,-13.17727 -4.069194,-13.17727 0,0 -14.363697,1.11111 -17.244477,-0.58262 -0.45486,-1.54645 3.94656,-15.940944 4.40142,-16.898271 0,0 -12.929159,-7.251452 -15.538754,-10.720285 1.854186,-2.601625 11.252429,-11.334133 13.862024,-13.201967 -4.668413,-7.198123 -6.916521,-17.203662 -6.916521,-17.203662 0,0 10.964764,-3.034712 17.856231,-3.4666 1.926647,-8.205859 8.248445,-16.796084 9.28587,-17.299953 3.180217,0.712895 9.458004,3.883764 13.755908,10.218112 4.337251,-0.975358 17.218051,-8.211991 18.996494,-8.068028 1.852545,1.007737 7.3664,14.937313 7.06999,16.376938 7.33608,-0.863775 16.24334,1.628749 16.24334,1.628749 0.59281,4.822742 -5.61737,21.400792 -11.84192,25.143815 11.03658,14.819857 7.54629,18.025655 4.36516,26.349999 z"
           id="path2492"
           sodipodi:nodetypes="ccccccccccccccccc"
           clip-path="url(#clipPath2496)" /><path
           style="display:inline;mix-blend-mode:normal;fill:#000000;fill-opacity:1;stroke:none;stroke-width:0.264583px;stroke-linecap:butt;stroke-linejoin:miter;stroke-opacity:1;filter:url(#filter6258)"
           d="m 90.105852,30.290167 c 2.433025,3.442959 5.837953,12.494344 5.837953,12.494344 0.321343,-1.193559 -2.937991,-9.686193 -5.279203,-12.945528 z"
           id="path6256"
           sodipodi:nodetypes="cccc" /><path
           style="display:inline;mix-blend-mode:normal;fill:#000000;fill-opacity:1;stroke:none;stroke-width:0.264583px;stroke-linecap:butt;stroke-linejoin:miter;stroke-opacity:1;filter:url(#filter6258)"
           d="m 59.528029,28.796982 c 2.433025,3.442959 5.837953,12.494344 5.837953,12.494344 0.321343,-1.193559 -2.937991,-9.686193 -5.279203,-12.945528 z"
           id="path6988"
           sodipodi:nodetypes="cccc"
           transform="matrix(0.31590835,-0.66284755,0.58922618,0.58756746,23.898958,51.865199)" /><path
           style="display:inline;mix-blend-mode:normal;fill:#000000;fill-opacity:1;stroke:none;stroke-width:0.264583px;stroke-linecap:butt;stroke-linejoin:miter;stroke-opacity:1;filter:url(#filter6258)"
           d="m 38.94805,46.325671 c 2.433025,3.442959 5.837953,12.494344 5.837953,12.494344 0.321343,-1.193559 -2.937991,-9.686193 -5.279203,-12.945528 z"
           id="path6990"
           sodipodi:nodetypes="cccc"
           transform="matrix(-0.33979088,0.38633506,0.36100658,0.36363082,35.144355,14.746099)" /><path
           style="display:inline;mix-blend-mode:normal;fill:#000000;fill-opacity:1;stroke:none;stroke-width:0.293839;stroke-linecap:butt;stroke-linejoin:miter;stroke-dasharray:none;stroke-opacity:1;filter:url(#filter6258)"
           d="m 38.94805,46.325671 c 2.433025,3.442959 5.837953,12.494344 5.837953,12.494344 0.321343,-1.193559 -2.937991,-9.686193 -5.279203,-12.945528 z"
           id="path6992"
           sodipodi:nodetypes="cccc"
           transform="matrix(-0.04953074,0.47028722,0.44679275,0.08274547,12.117204,52.7431)" /><path
           style="display:inline;fill:#000000;fill-opacity:1;stroke:none;stroke-width:0.264583px;stroke-linecap:butt;stroke-linejoin:miter;stroke-opacity:1"
           d="m 72.715304,109.3484 2.111682,5.04967 c 0,0 -0.801112,2.22829 -0.183623,3.0298 1.809507,2.34877 5.757641,1.79569 8.722164,1.74444 3.99309,-0.069 7.996577,-1.16449 11.660155,-2.75437 6.815018,-2.95751 12.284338,-8.13881 17.995208,-12.7619 L 94.0926,100.8525 c -3.887991,1.6123 -7.212741,3.15925 -10.57528,4.59164 -3.36254,1.43239 -6.762868,2.75022 -10.802016,3.90426 z"
           id="path8557"
           sodipodi:nodetypes="ccsssccsc" /><path
           id="path8559"
           style="display:inline;fill:#f6cf10;fill-opacity:1;stroke:none;stroke-width:0.264583px;stroke-linecap:butt;stroke-linejoin:miter;stroke-opacity:1"
           d="m 90.659728,101.0676 c -6.496187,2.54448 -10.783931,4.10361 -17.420185,6.56157 0.600177,1.43819 2.109923,5.27817 2.709676,6.71653 -0.180251,0.8257 -0.716072,1.74825 -0.341655,2.57464 1.42098,1.44968 3.629089,1.2594 5.490395,1.26665 3.244511,-0.0305 6.555101,-0.29361 9.593042,-1.30159 5.480071,-1.60201 10.329889,-4.77322 14.726159,-8.34016 1.71626,-1.37721 3.4004,-2.79393 5.09846,-4.19368 -4.63085,-0.69466 -6.92455,-3.01235 -11.555415,-3.70701 z"
           sodipodi:nodetypes="cccccccccc" /><path
           style="opacity:1;fill:#000000;fill-opacity:1;stroke:none;stroke-width:0.264583px;stroke-linecap:butt;stroke-linejoin:miter;stroke-opacity:1"
           d="m 74.872894,108.20074 c -1.062329,1.1994 -2.978518,2.12183 -4.705379,2.2494 -1.805255,0.13336 -3.815963,-0.39909 -5.164439,-1.60671 -1.342636,-1.20239 -2.106943,-3.15625 -2.157587,-4.95787 -0.03347,-1.19053 0.666886,-2.95824 1.58376,-3.71839 1.409867,-1.168877 3.854052,-1.102131 5.072627,-0.550874 0.388224,0.175624 0.539408,0.813194 0.137719,0.780404 -0.958733,-0.0783 -2.636725,-0.32903 -3.649536,0.25248 -0.913245,0.52434 -1.468834,1.60704 -1.675574,2.63961 -0.255792,1.27757 0.12301,2.74424 0.872214,3.81021 0.700498,0.99668 1.887047,1.70726 3.075713,1.97396 1.159328,0.26012 2.424802,0.0597 3.557725,-0.29839 0.883671,-0.27928 1.522331,-0.67939 2.501884,-0.94108 0.480176,-0.12828 0.697198,0.20205 0.550873,0.36725 z"
           id="path10494"
           sodipodi:nodetypes="ssssssssssssss" /><path
           style="opacity:1;fill:#000000;fill-opacity:1;stroke:none;stroke-width:0.264583px;stroke-linecap:butt;stroke-linejoin:miter;stroke-opacity:1"
           d="m 68.037278,102.70513 c -0.292145,0.1623 -0.925217,1.04335 -1.136118,1.68795 -0.252549,0.7719 -0.324604,2.07747 -0.09738,2.43454 0.454447,0.12984 0.421985,-0.97382 0.843972,-1.39581 0.714131,-0.0325 2.109934,0.19477 2.759145,0.35707 0.389526,0.1298 0.486909,-0.55183 10e-7,-0.64921 -1.298422,0.0325 -1.882711,-0.32461 -2.531922,-0.38953 -0.519368,-0.48691 0.714131,-1.81778 0.162302,-2.04501 z"
           id="path10562"
           sodipodi:nodetypes="cscccccc" /><path
           style="display:inline;opacity:1;fill:#000000;fill-opacity:1;stroke:none;stroke-width:0.264583px;stroke-linecap:butt;stroke-linejoin:miter;stroke-opacity:1"
           d="m 99.718692,105.39259 c -6.135041,1.88271 -11.601041,1.67029 -14.652331,0.72893 -0.06492,-0.74659 1.007629,-1.36374 1.007629,-1.36374 0,0 -0.350807,-0.0671 -0.669579,0.0649 -0.407355,0.16875 -1.144483,0.55806 -1.533916,1.03683 -0.407036,0.50041 -0.795634,1.63751 -0.7345,1.79034 0.194764,0.4869 0.451187,-0.0301 0.451187,-0.0301 0.194763,-0.48691 0.780404,-0.82074 0.780404,-0.82074 4.349712,1.52564 7.092681,1.32857 15.499959,-0.26199 z"
           id="path10631"
           sodipodi:nodetypes="cccssscccc" /></g><g
         id="g4283"
         style="display:inline"><path
           id="path4271"
           style="opacity:0.599222;mix-blend-mode:normal;fill:#4d5943;fill-opacity:1;stroke:none;stroke-width:0.264583px;stroke-linecap:butt;stroke-linejoin:miter;stroke-opacity:1;filter:url(#filter4274)"
           d="m 77.23822,33.338075 c -3.280704,2.813891 -5.537014,6.635233 -7.232647,10.564808 -0.268353,0.649301 -0.517116,1.309556 -0.695088,1.98988 -4.591147,-1.149709 -8.663392,-2.200711 -13.416892,-2.277344 -0.105118,4.252672 0.02588,8.713243 2.423704,12.308224 0.983783,1.453236 2.351264,2.651414 3.965845,3.353885 3.314258,-2.068462 5.575872,-5.411921 7.435874,-8.769305 0.391006,-0.738659 0.771231,-1.485882 1.073891,-2.265851 3.645482,1.426382 7.609516,1.759475 11.489774,1.527048 0.469261,-0.130436 1.495263,0.279378 1.244556,-0.548517 0.213754,-5.383301 -1.45002,-10.86343 -4.88914,-15.04382 -0.320334,-0.404847 -0.66711,-0.788069 -0.997534,-1.184711 z"
           sodipodi:nodetypes="ccccccccccccc"
           transform="matrix(1,0,0,0.96672478,0,1.4892442)" /><path
           style="opacity:1;fill:#000000;fill-opacity:1;stroke:none;stroke-width:0.264583px;stroke-linecap:butt;stroke-linejoin:miter;stroke-opacity:1"
           d="m 77.948605,32.639257 c 5.416923,6.151421 5.481068,12.781889 5.416922,15.470364 -5.138559,0.262055 -8.217196,1e-6 -12.532372,-1.65262 -0.275437,1.19356 -3.764303,8.354915 -8.217197,11.109283 -4.957862,-2.2494 -6.564577,-9.594382 -6.426858,-14.506338 5.416923,0.04591 13.909556,2.387119 13.909556,2.387119 0,-1.193559 3.167523,-8.951693 7.849949,-12.807808 z"
           id="path3481"
           sodipodi:nodetypes="ccccccc" /><path
           id="path3483"
           style="opacity:1;fill:#72d5f5;fill-opacity:1;stroke:none;stroke-width:0.264583px;stroke-linecap:butt;stroke-linejoin:miter;stroke-opacity:1"
           d="m 77.738281,34.259766 c -2.918508,2.934059 -4.980207,6.637652 -6.404297,10.498046 -0.406479,0.678651 0.136803,0.9046 0.748623,1.036973 2.936825,1.0243 5.897748,1.451713 8.975937,1.331963 0.442631,-0.109775 1.431493,0.275145 1.255909,-0.449014 -0.09751,-4.502533 -1.627027,-9.005427 -4.472656,-12.515625 l -0.07274,0.06862 z M 57.28125,44.886719 c 0.255475,3.531471 1.093946,7.251087 3.466797,9.992187 0.519362,0.569481 1.114871,1.076937 1.791015,1.451172 3.134972,-2.32839 5.227817,-5.762719 6.911917,-9.221043 0.483924,-0.61709 0.09132,-0.819521 -0.546682,-0.878566 -3.85222,-0.958251 -7.800053,-1.811711 -11.654297,-2.070313 0.01042,0.242188 0.02083,0.484375 0.03125,0.726563 z" /><ellipse
           style="opacity:1;fill:#000000;fill-opacity:1;fill-rule:evenodd;stroke-width:0.343157"
           id="path3539"
           cx="70.552063"
           cy="45.561832"
           rx="3.9422719"
           ry="3.9708798" /><path
           id="ellipse4267"
           style="opacity:1;fill:#72d5f5;fill-opacity:1;fill-rule:evenodd;stroke-width:0.343157"
           d="m 70.253906,42.673828 c -2.03378,0.140037 -3.274099,2.72645 -2.144265,4.413512 0.912198,1.575659 3.363536,1.843572 4.560281,0.441957 1.282559,-1.366129 0.847356,-3.918584 -0.946014,-4.621229 -0.456489,-0.211666 -0.971502,-0.273489 -1.470002,-0.23424 z" /><path
           style="fill:#c2f0ff;fill-opacity:1;stroke:none;stroke-width:0.264583px;stroke-linecap:butt;stroke-linejoin:miter;stroke-opacity:1;filter:url(#filter6219)"
           d="m 77.126229,36.290877 c 2.045014,2.369619 3.246053,5.161225 3.830343,6.492107 -0.324605,-1.395803 -0.55529,-2.82709 -1.298421,-4.025106 -0.621141,-1.001354 -1.752869,-1.947632 -2.531922,-2.467001 z"
           id="path6217"
           sodipodi:nodetypes="ccsc" /><ellipse
           style="mix-blend-mode:normal;fill:#e2fffd;fill-opacity:1;fill-rule:evenodd;stroke-width:0.264583;filter:url(#filter6226)"
           id="path6224"
           cx="71.234642"
           cy="44.146328"
           rx="0.5031383"
           ry="0.48690799"
           transform="matrix(0.64265487,1.0244988,-0.85124502,0.29172929,63.359488,-41.631103)"
           inkscape:label="path6224" /></g><g
         id="g7107"
         transform="translate(20.6449,-8.0502125)"
         style="display:inline"><ellipse
           style="opacity:1;fill:#000000;fill-opacity:1;fill-rule:evenodd;stroke-width:0.357016"
           id="ellipse7095"
           cx="78.684341"
           cy="81.995323"
           rx="13.763267"
           ry="13.568505" /><path
           id="path7097"
           style="opacity:1;fill:#ffffff;fill-opacity:1;fill-rule:evenodd;stroke-width:0.357016"
           d="m 78.263672,69.511719 c -4.919516,0.100812 -9.635651,3.3279 -11.392888,7.946159 -1.889288,4.556942 -0.621705,10.157077 2.987877,13.503774 3.677862,3.596637 9.605232,4.555172 14.238598,2.326857 4.074882,-1.834409 6.97357,-5.985577 7.241035,-10.452806 0.270351,-3.551164 -1.041164,-7.063272 -3.56305,-9.571064 -2.474193,-2.482534 -5.992575,-3.948815 -9.511572,-3.75292 z" /><path
           id="path7099"
           style="opacity:1;fill:#000000;fill-opacity:1;fill-rule:evenodd;stroke-width:0.0541546"
           d="m 82.024799,72.214257 c -0.78052,0.01463 -1.528771,0.482621 -1.80757,1.152373 -0.299751,0.66086 -0.09864,1.473006 0.474049,1.958353 0.583522,0.521594 1.523945,0.660603 2.259065,0.337447 0.646512,-0.266031 1.106412,-0.868045 1.148846,-1.515894 0.04289,-0.514998 -0.165188,-1.024334 -0.565305,-1.38802 -0.39255,-0.360024 -0.950769,-0.572669 -1.509085,-0.544259 z" /><path
           style="fill:#000000;fill-opacity:1;stroke:none;stroke-width:0.264583px;stroke-linecap:butt;stroke-linejoin:miter;stroke-opacity:1;filter:url(#filter7084)"
           d="m 77.122294,64.72764 c 1.147653,2.111682 1.652619,4.223364 1.652619,4.223364 l 0.872217,0.0459 c 0,0 -1.331277,-3.580676 -2.524836,-4.269268 z"
           id="path7101"
           sodipodi:nodetypes="cccc"
           transform="rotate(15.979538,78.129068,63.360797)" /><path
           style="fill:#000000;fill-opacity:1;stroke:none;stroke-width:0.264583px;stroke-linecap:butt;stroke-linejoin:miter;stroke-opacity:1;filter:url(#filter7084)"
           d="m 67.20657,68.859192 c 1.147653,2.111682 1.652619,4.223364 1.652619,4.223364 l 0.872217,0.0459 c 0,0 -1.331277,-3.580676 -2.524836,-4.269268 z"
           id="path7103"
           sodipodi:nodetypes="cccc"
           transform="rotate(-28.034959,65.955133,68.175837)" /><path
           style="fill:#000000;fill-opacity:1;stroke:none;stroke-width:0.264583px;stroke-linecap:butt;stroke-linejoin:miter;stroke-opacity:1;filter:url(#filter7084)"
           d="m 67.20657,68.859192 c 1.147653,2.111682 1.652619,4.223364 1.652619,4.223364 l 0.872217,0.0459 c 0,0 -1.331277,-3.580676 -2.524836,-4.269268 z"
           id="path7105"
           sodipodi:nodetypes="cccc"
           transform="rotate(30.295562,81.549073,103.70373)" /></g><g
         id="g10847"
         style="display:inline"><path
           style="opacity:1;fill:#000000;fill-opacity:1;stroke:none;stroke-width:0.264583px;stroke-linecap:butt;stroke-linejoin:miter;stroke-opacity:1"
           d="m 91.538704,83.423571 c 0,0 2.226021,-0.107945 3.375898,-0.421986 1.858065,-0.507452 3.399155,-2.352682 5.323528,-2.43454 1.52177,-0.06473 3.26256,0.568159 4.21987,1.75287 1.05108,1.300751 1.29123,3.305955 0.90889,4.934 -0.32159,1.369367 -1.38545,2.56092 -2.53192,3.375895 -1.27739,0.908037 -3.317113,1.386899 -4.869077,1.168579 -2.142507,-0.301395 -2.099052,-1.069493 -4.171181,-1.89894 z"
           id="path10701"
           sodipodi:nodetypes="csssssscc" /><path
           id="path10703"
           style="opacity:1;fill:#f6cf10;fill-opacity:1;stroke:none;stroke-width:0.264583px;stroke-linecap:butt;stroke-linejoin:miter;stroke-opacity:1"
           d="m 99.994141,81.675781 c -2.007223,0.487899 -3.487688,2.297639 -5.605789,2.536084 -0.583376,0.06567 -3.514533,0.42699 -4.180177,0.215127 l 2.359137,6.542868 c 2.349041,0.976908 5.475654,0.387226 8.071358,-0.464001 2.18126,-0.621199 4.07714,-2.693644 3.83525,-5.063489 -0.0261,-1.577243 -0.98559,-3.179256 -2.58069,-3.578902 -0.60495,-0.202363 -1.26719,-0.305283 -1.899089,-0.187687 z"
           sodipodi:nodetypes="cscccccc" /></g><g
         id="g7080"
         style="display:inline"><ellipse
           style="display:inline;opacity:0.498054;mix-blend-mode:normal;fill:#000000;fill-opacity:1;fill-rule:evenodd;stroke-width:0.357016;filter:url(#filter7125)"
           id="ellipse7121"
           cx="78.684341"
           cy="82.913445"
           rx="13.763267"
           ry="13.568505" /><ellipse
           style="opacity:1;fill:#000000;fill-opacity:1;fill-rule:evenodd;stroke-width:0.357016"
           id="path7069"
           cx="78.684341"
           cy="81.995323"
           rx="13.763267"
           ry="13.568505" /><path
           id="ellipse7071"
           style="opacity:1;fill:#ffffff;fill-opacity:1;fill-rule:evenodd;stroke-width:0.357016"
           d="m 78.263672,69.511719 c -4.919516,0.100812 -9.635651,3.3279 -11.392888,7.946159 -1.889288,4.556942 -0.621705,10.157077 2.987877,13.503774 3.677862,3.596637 9.605232,4.555172 14.238598,2.326857 4.074882,-1.834409 6.97357,-5.985577 7.241035,-10.452806 0.270351,-3.551164 -1.041164,-7.063272 -3.56305,-9.571064 -2.474193,-2.482534 -5.992575,-3.948815 -9.511572,-3.75292 z" /><path
           id="path7075"
           style="opacity:1;fill:#000000;fill-opacity:1;fill-rule:evenodd;stroke-width:0.0587789"
           d="m 80.36912,73.1327 c -0.816122,0.01648 -1.598502,0.54376 -1.890018,1.298357 -0.313424,0.744579 -0.103139,1.659609 0.495672,2.206441 0.610138,0.58767 1.593456,0.744289 2.362107,0.380195 0.676001,-0.299732 1.156878,-0.97801 1.201248,-1.70793 0.04485,-0.580239 -0.172723,-1.154098 -0.59109,-1.563857 C 81.536584,73.340274 80.952903,73.100691 80.36912,73.1327 Z" /><path
           style="fill:#000000;fill-opacity:1;stroke:none;stroke-width:0.264583px;stroke-linecap:butt;stroke-linejoin:miter;stroke-opacity:1;filter:url(#filter7084)"
           d="m 77.122294,64.72764 c 1.147653,2.111682 1.652619,4.223364 1.652619,4.223364 l 0.872217,0.0459 c 0,0 -1.331277,-3.580676 -2.524836,-4.269268 z"
           id="path7082"
           sodipodi:nodetypes="cccc" /><path
           style="fill:#000000;fill-opacity:1;stroke:none;stroke-width:0.264583px;stroke-linecap:butt;stroke-linejoin:miter;stroke-opacity:1;filter:url(#filter7084)"
           d="m 67.20657,68.859192 c 1.147653,2.111682 1.652619,4.223364 1.652619,4.223364 l 0.872217,0.0459 c 0,0 -1.331277,-3.580676 -2.524836,-4.269268 z"
           id="path7088"
           sodipodi:nodetypes="cccc"
           transform="rotate(-28.034959,68.10187,72.855582)" /><path
           style="fill:#000000;fill-opacity:1;stroke:none;stroke-width:0.264583px;stroke-linecap:butt;stroke-linejoin:miter;stroke-opacity:1;filter:url(#filter7084)"
           d="m 67.20657,68.859192 c 1.147653,2.111682 1.652619,4.223364 1.652619,4.223364 l 0.872217,0.0459 c 0,0 -1.331277,-3.580676 -2.524836,-4.269268 z"
           id="path7090"
           sodipodi:nodetypes="cccc"
           transform="matrix(0.30648362,0.95187593,0.95187593,-0.30648362,-25.372151,38.366224)" /></g><g
         id="g8454"><path
           id="path8434"
           style="display:inline;opacity:0.492218;fill:#000000;fill-opacity:1;fill-rule:evenodd;stroke-width:0.311281;filter:url(#filter8436)"
           d="m 112.77923,104.48235 c -3.84455,8.78352 -5.69412,9.778 -10.23181,9.31894 -4.331973,-0.43824 -7.443683,-5.16297 -5.719321,-11.43062 1.470151,-5.343742 5.510491,-8.400828 10.690891,-8.58445 4.35134,-0.154236 7.71432,5.08938 5.26024,10.69613 z"
           sodipodi:nodetypes="sssss" /><path
           style="opacity:0.455253;fill:#000000;fill-opacity:1;stroke:none;stroke-width:0.264583px;stroke-linecap:butt;stroke-linejoin:miter;stroke-opacity:1;filter:url(#filter8442)"
           d="m 107.69578,96.586492 c 1.99994,0.31604 5.56639,0.615525 7.29907,2.295307 1.60944,1.560321 1.94725,3.843981 1.60672,6.059601 -0.37158,2.41764 -1.57597,4.87933 -3.7184,6.05962 -2.57346,1.41775 -8.13797,0.55779 -9.18122,-0.13771 -0.65046,-0.43364 -1.52826,-4.60809 1.00993,-5.50874 0.56408,-0.20015 3.44296,0.7345 5.83008,0.59678 0.73449,-0.64268 1.05583,-2.01987 -0.13773,-2.9839 -0.55087,-0.27544 -1.88215,-0.7345 -5.09558,-1.00994 -0.27543,-1.14765 0.38718,-4.493498 2.38713,-5.371018 z"
           id="path8440"
           sodipodi:nodetypes="cssssscccc" /><path
           id="path7179"
           style="display:inline;opacity:1;fill:#000000;fill-opacity:1;fill-rule:evenodd;stroke-width:0.316839"
           transform="matrix(1,0,-0.26143021,0.96522238,0,0)"
           d="m 141.92844,106.58231 c -1.46554,9.1 -3.04575,10.13031 -7.70778,9.65471 -4.45067,-0.45403 -8.84207,-5.34899 -8.8153,-11.84247 0.0228,-5.536281 3.23513,-8.703516 8.36579,-8.893754 4.30957,-0.159793 9.09278,5.272754 8.15729,11.081514 z"
           sodipodi:nodetypes="sssss" /><path
           id="path7182"
           style="display:inline;opacity:1;fill:#e05c43;fill-opacity:1;fill-rule:evenodd;stroke-width:0.311281"
           d="m 108.34376,93.711014 c -3.33069,0.124042 -6.24956,1.652741 -7.79275,4.650106 -1.483852,2.88211 -2.321972,6.57302 -0.908417,9.57835 0.947307,2.01406 3.059687,2.89756 5.291207,2.99764 1.65948,0.0744 3.30854,-0.0778 4.35476,-1.45178 1.60018,-2.10155 2.80578,-4.47073 3.78566,-6.89939 2.35974,-5.848713 -0.79396,-9.021529 -4.73046,-8.874926 z"
           sodipodi:nodetypes="sssssss" /><path
           style="opacity:1;fill:#000000;fill-opacity:1;stroke:none;stroke-width:0.264583px;stroke-linecap:butt;stroke-linejoin:miter;stroke-opacity:1"
           d="m 108.6139,95.209308 c 1.99994,0.31604 5.56639,0.615525 7.29907,2.295307 1.60944,1.560317 1.94725,3.843985 1.60672,6.059605 -0.37158,2.41764 -1.57597,4.87933 -3.7184,6.05962 -2.57346,1.41775 -8.13797,0.55779 -9.18122,-0.13771 -0.65046,-0.43364 -1.52826,-4.60809 1.00993,-5.50874 0.56408,-0.20015 3.44296,0.7345 5.83008,0.59678 0.73449,-0.64268 1.05583,-2.01987 -0.13773,-2.9839 -0.55087,-0.27544 -1.88215,-0.7345 -5.09558,-1.00994 -0.27543,-1.147649 0.38718,-4.493502 2.38713,-5.371022 z"
           id="path7669"
           sodipodi:nodetypes="cssssscccc" /><path
           id="path7671"
           style="opacity:1;fill:#e75d44;fill-opacity:1;stroke:none;stroke-width:0.264583px;stroke-linecap:butt;stroke-linejoin:miter;stroke-opacity:1"
           d="m 108.73438,96.375 c -0.9674,0.781249 -1.37571,2.051961 -1.47657,3.251953 1.68604,0.229298 3.52947,0.334256 4.96485,1.332027 1.36119,1.17943 1.24528,3.75142 -0.40821,4.59766 -0.92769,0.2201 -1.85039,0.0151 -2.79687,-0.0508 -1.07225,-0.12294 -2.15577,-0.46144 -3.22266,-0.4375 -1.08272,0.76733 -0.87769,2.34141 -0.55469,3.45117 0.38962,0.43853 1.12772,0.35737 1.67064,0.53586 2.06334,0.35815 4.30412,0.497 6.27496,-0.32328 2.35166,-1.26077 3.31975,-4.08814 3.40206,-6.61766 0.0696,-1.96331 -0.92672,-4.124449 -2.91135,-4.748226 -1.59858,-0.625117 -3.21647,-0.820159 -4.86599,-1.045912 z" /></g></g></g></svg>
