<?xml version="1.0" encoding="UTF-8" standalone="no"?>
<!-- Created with Inkscape (http://www.inkscape.org/) -->

<svg
   width="210mm"
   height="297mm"
   viewBox="0 0 210 297"
   version="1.1"
   id="svg5"
   inkscape:version="1.2.1 (9c6d41e410, 2022-07-14)"
   sodipodi:docname="(tom &amp; jerry) jerry.svg"
   xml:space="preserve"
   xmlns:inkscape="http://www.inkscape.org/namespaces/inkscape"
   xmlns:sodipodi="http://sodipodi.sourceforge.net/DTD/sodipodi-0.dtd"
   xmlns="http://www.w3.org/2000/svg"
   xmlns:svg="http://www.w3.org/2000/svg"><sodipodi:namedview
     id="namedview7"
     pagecolor="#ffffff"
     bordercolor="#666666"
     borderopacity="1.0"
     inkscape:showpageshadow="2"
     inkscape:pageopacity="0.0"
     inkscape:pagecheckerboard="0"
     inkscape:deskcolor="#d1d1d1"
     inkscape:document-units="mm"
     showgrid="false"
     inkscape:zoom="0.788472"
     inkscape:cx="484.48138"
     inkscape:cy="404.58"
     inkscape:window-width="1819"
     inkscape:window-height="1205"
     inkscape:window-x="1884"
     inkscape:window-y="96"
     inkscape:window-maximized="0"
     inkscape:current-layer="layer1" /><defs
     id="defs2"><inkscape:path-effect
       effect="mirror_symmetry"
       start_point="71.599251,49.176289"
       end_point="71.599251,63.116491"
       center_point="71.599251,56.14639"
       id="path-effect2474"
       is_visible="true"
       lpeversion="1.2"
       lpesatellites=""
       mode="free"
       discard_orig_path="false"
       fuse_paths="false"
       oposite_fuse="false"
       split_items="false"
       split_open="false"
       link_styles="false" /><inkscape:path-effect
       effect="mirror_symmetry"
       start_point="71.717891,44.312048"
       end_point="71.717891,50.066088"
       center_point="71.717891,47.189068"
       id="path-effect2406"
       is_visible="true"
       lpeversion="1.2"
       lpesatellites=""
       mode="free"
       discard_orig_path="false"
       fuse_paths="false"
       oposite_fuse="false"
       split_items="false"
       split_open="false"
       link_styles="false" /><inkscape:path-effect
       effect="mirror_symmetry"
       start_point="71.182885,44.353854"
       end_point="71.182885,66.585014"
       center_point="71.182885,55.469434"
       id="path-effect1778"
       is_visible="true"
       lpeversion="1.2"
       lpesatellites=""
       mode="free"
       discard_orig_path="false"
       fuse_paths="false"
       oposite_fuse="false"
       split_items="false"
       split_open="false"
       link_styles="false" /><inkscape:path-effect
       effect="mirror_symmetry"
       start_point="71.818099,16.728243"
       end_point="71.818099,66.438411"
       center_point="71.818099,41.583327"
       id="path-effect1016"
       is_visible="true"
       lpeversion="1.2"
       lpesatellites=""
       mode="free"
       discard_orig_path="false"
       fuse_paths="false"
       oposite_fuse="false"
       split_items="false"
       split_open="false"
       link_styles="false" /><inkscape:path-effect
       effect="mirror_symmetry"
       start_point="71.97862,69.461884"
       end_point="71.97862,98.152664"
       center_point="71.97862,83.807274"
       id="path-effect6109"
       is_visible="true"
       lpeversion="1.2"
       lpesatellites=""
       mode="free"
       discard_orig_path="false"
       fuse_paths="false"
       oposite_fuse="false"
       split_items="false"
       split_open="false"
       link_styles="false" /><inkscape:path-effect
       effect="mirror_symmetry"
       start_point="71.915641,62.98751"
       end_point="71.915641,115.04969"
       center_point="71.915641,89.018601"
       id="path-effect3205"
       is_visible="true"
       lpeversion="1.2"
       lpesatellites=""
       mode="free"
       discard_orig_path="false"
       fuse_paths="false"
       oposite_fuse="false"
       split_items="false"
       split_open="false"
       link_styles="false" /><filter
       inkscape:collect="always"
       style="color-interpolation-filters:sRGB"
       id="filter7211"
       x="-0.013709622"
       y="-0.0098923728"
       width="1.0274192"
       height="1.0197847"><feGaussianBlur
         inkscape:collect="always"
         stdDeviation="0.40840685"
         id="feGaussianBlur7213" /></filter></defs><g
     inkscape:label="Layer 1"
     inkscape:groupmode="layer"
     id="layer1"><g
       id="g7262"
       transform="translate(-17.784927,-0.33556465)"><path
         id="path5572"
         style="mix-blend-mode:normal;fill:#000000;fill-opacity:1;stroke:none;stroke-width:0.865;stroke-linecap:round;stroke-linejoin:round;stroke-dasharray:none;stroke-opacity:1;paint-order:markers stroke fill;filter:url(#filter7211)"
         d="m 90.789062,16.902344 c -1.733131,0.92484 -3.16535,2.349009 -4.480468,3.794922 -1.540502,1.786352 -2.913837,3.729369 -4.14207,5.73448 -0.285377,0.375639 -0.942731,-0.473782 -1.38837,-0.552287 -1.768893,-0.948415 -3.656327,-1.70669 -5.63167,-2.090397 0.788003,-0.953651 1.495963,-1.979379 2.298727,-2.928214 0.700821,-0.590562 0.261569,-1.829944 -0.667801,-1.80594 -0.841018,-0.01569 -1.481114,0.664801 -2.199818,1.017723 -1.192136,0.760334 -2.276766,1.676691 -3.31392,2.6344 0.192614,-1.099937 0.727855,-2.172487 0.652344,-3.298828 -0.251933,-1.058629 -1.79699,-0.848469 -2.126954,0.04687 -0.806135,1.427901 -1.61637,2.875372 -2.152343,4.435547 -2.072446,0.589687 -4.11856,1.313726 -5.968679,2.43868 -0.445151,0.274341 -0.522473,-0.68653 -0.814524,-0.921102 -2.29977,-3.397655 -4.828745,-6.920561 -8.576172,-8.830078 -1.599908,-0.762486 -3.521602,-0.464472 -4.939391,0.551638 -2.68227,1.723787 -4.361687,4.673064 -5.224672,7.678831 -0.714701,3.105431 -0.209072,6.369931 0.72461,9.373047 1.149205,3.552642 3.461349,6.615799 6.263854,9.040698 0.791131,0.607601 1.381351,1.451992 2.221245,1.980251 0.580393,0.255497 0.980721,0.759188 1.473885,1.139207 -0.620085,1.499454 -0.530136,3.202601 -0.164063,4.748047 -0.214597,0.937953 0.841323,1.377903 1.055243,2.179833 2.480408,4.363468 6.54728,7.517387 10.622492,10.308448 0.690835,0.549399 1.554581,0.896221 2.177734,1.507813 0.226469,0.864203 -0.857727,1.170017 -1.265503,1.762607 -5.670222,5.503446 -11.896124,10.402328 -18.334106,14.971767 -0.351084,-1.05529 -0.606224,-2.196694 -1.139346,-3.158593 -0.669787,-0.652916 -2.168692,-0.264142 -2.137998,0.793359 -0.216617,0.868862 -0.02852,1.774542 0.226563,2.613281 -1.51871,-0.879476 -2.963372,-1.957273 -4.494516,-2.77521 -1.009073,-0.165472 -1.971605,1.254339 -1.130484,2.042789 0.755027,1.033131 1.945164,1.617085 2.958984,2.328124 -1.539993,0.05775 -3.255886,-0.351685 -4.657289,0.464288 -1.051064,0.885082 -0.0086,2.685761 1.265003,2.484397 3.666614,-0.162942 7.349475,-0.373359 11.011427,-0.01314 -0.05838,1.659863 -0.270094,3.526235 0.702326,4.984486 0.710481,0.945709 2.333074,0.100805 2.075017,-1.013783 0.115446,-1.545839 -0.48502,-3.177828 0.125,-4.658203 0.805547,-0.752621 1.911942,-1.063149 2.787462,-1.727451 1.683799,-1.012809 3.36663,-2.02554 5.04457,-3.047939 -1.294333,5.828649 -2.145972,11.884803 -1.217857,17.839534 0.492283,3.053104 1.373964,6.036874 2.536216,8.900694 -2.218288,0.11097 -4.425664,0.6034 -6.531347,1.31188 -2.315933,0.82784 -4.566597,2.05765 -6.222559,3.90297 -0.578794,0.92767 0.405455,2.16979 1.441406,1.94726 0.61222,0.15878 1.233424,0.1619 1.849508,0.12332 0.933948,0.0211 1.921331,0.2494 2.773539,-0.24246 4.206635,-0.45189 8.482986,-0.50046 12.632812,-1.39062 1.085752,-0.47638 0.838203,-1.77631 0.994141,-2.71875 0.445522,-3.08832 0.857331,-6.45329 2.790283,-9.0523 0.61653,-0.72377 1.827553,-0.81172 2.41096,2.9e-4 1.41986,1.50192 1.796698,3.6375 2.316311,5.56571 0.432707,1.75526 0.561315,3.57306 0.835064,5.34574 0.608893,1.09396 2.046866,0.84514 3.089631,1.09788 3.545554,0.50783 7.144445,0.62834 10.690563,1.05635 0.723299,0.35303 1.566219,0.11556 2.326172,0.0801 0.501735,-0.14056 1.057485,0.23062 1.527463,-0.15686 0.437015,-0.28163 1.052193,0.0154 1.452803,-0.41698 0.749694,-0.51867 0.5764,-1.6088 -0.07391,-2.13079 -1.592668,-1.49951 -3.639091,-2.44707 -5.688237,-3.16225 -2.149372,-0.71636 -4.398187,-1.09292 -6.651711,-1.28156 1.06722,-2.37263 1.766279,-4.91248 2.28125,-7.46289 0.917867,-4.638217 0.782496,-9.421779 -0.0033,-14.067619 -0.252092,-1.664938 -0.649305,-3.431868 -0.95964,-5.002692 2.656267,1.482139 5.289941,3.014143 7.945312,4.503906 0.55767,1.170632 -0.07322,2.372397 -0.08935,3.588815 -0.0166,0.785495 -0.416578,1.738068 0.134837,2.400623 0.590975,0.613304 1.728155,0.608281 2.112243,-0.209483 1.026443,-1.395652 0.436837,-3.211968 0.762188,-4.783861 0.224419,-0.412034 0.863933,-0.269023 1.255058,-0.409881 2.264447,-0.269114 4.54177,-0.03338 6.77991,0.108497 1.10512,0.0461 2.24162,0.329954 3.33222,0.115837 1.11102,-0.382284 1.76641,-2.151562 0.6214,-2.869206 -1.30451,-0.491555 -2.75864,-0.251138 -4.11944,-0.148372 1.24834,-0.805007 2.85043,-1.563672 3.23242,-3.134765 0.18282,-1.054288 -1.14267,-2.00464 -2.0186,-1.278288 -1.35474,0.908458 -2.70906,1.817531 -4.06539,2.7236 0.33324,-1.015557 0.53252,-2.286418 -0.104836,-3.206525 -0.742723,-0.658003 -2.112958,-0.121907 -2.205698,0.88728 -0.356726,0.845217 -0.634619,1.723488 -0.912122,2.594636 -1.937629,-1.525289 -3.944293,-2.977182 -5.826172,-4.580078 -4.759468,-3.979469 -9.282534,-8.242197 -13.83789,-12.44336 0.01674,-0.900428 1.125115,-1.038491 1.673562,-1.547617 4.212156,-2.719024 8.259161,-5.979019 10.910753,-10.299231 0.293705,-0.801615 1.299022,-1.31268 1.048497,-2.270339 0.245715,-0.986888 0.395768,-2.056565 0.244141,-3.09375 0.02658,-0.463899 -0.330583,-1.001251 -0.201091,-1.406727 0.521676,-0.478954 1.088011,-0.917038 1.68156,-1.308117 0.738739,-0.356162 1.09521,-1.133477 1.779579,-1.5716 3.503295,-3.024618 6.418927,-7.006274 7.217207,-11.651411 0.6922,-3.10739 0.74785,-6.488109 -0.67842,-9.407848 -1.221732,-2.708208 -3.292752,-5.284457 -6.197273,-6.240235 -1.270097,-0.282639 -2.89181,0.04038 -3.810495,0.617175 z"
         sodipodi:nodetypes="cccccccccccccccccccccccccccccccccccccccccccccccccccccccccccccccccccccccccccccccccccccccccccccc"
         inkscape:label="Shadow" /><g
         id="g6105"
         inkscape:label="Body"
         style="display:inline"><path
           style="opacity:1;fill:#af6e1f;fill-opacity:1;stroke:#000000;stroke-width:0.865;stroke-linecap:round;stroke-linejoin:round;stroke-dasharray:none;stroke-opacity:1;paint-order:markers stroke fill"
           d="m 76.61847,112.78574 c 1.521577,0.57832 12.246593,1.3698 12.246593,1.3698 l 1.632014,0.13365 c 1.182079,0.48157 2.867931,-0.22478 2.867931,-0.22478 0,0 2.243301,0.37676 1.871165,-1.02422 0,0 -3.266669,-4.23013 -13.270412,-4.82294 l 1.001332,-28.284931 c 0,0 7.757022,4.473027 9.461363,5.362249 1.037425,0.963323 -0.333096,4.18915 -0.02352,6.665761 0.81512,-0.148204 1.693528,-0.681038 1.767628,-1.57026 0.370507,-0.889222 -0.06654,-3.970513 0.546389,-4.233197 1.741319,-1.104723 10.987337,-0.01686 10.987337,-0.01686 1.03742,0 1.88952,-1.515761 1.0003,-2.108575 -1.17639,-0.371492 -5.47772,0.185746 -5.47772,0.185746 1.23503,-1.67964 5.54661,-2.597327 3.99568,-5.076463 -0.48159,0.04378 -6.365953,4.115978 -6.365953,4.115978 0,0 2.064643,-3.853295 0.0639,-4.89072 -0.666916,0.518713 -1.84036,4.562445 -1.84036,4.562445 C 89.161998,77.317085 82.646362,70.789777 73.423676,62.430272 h -3.01607 C 61.814104,71.377015 54.636515,76.990433 46.716377,82.601769 46.21303,82.014531 45.626824,78.873678 44.959908,78.354965 42.95916,79.39239 44.87044,83.371522 44.87044,83.371522 l -6.263708,-3.979131 c -1.341202,2.143572 2.826189,3.229041 4.061219,4.908681 0,0 -4.408815,-0.34751 -5.585205,0.02398 -0.88922,0.592814 -0.476764,1.742075 0.560656,1.742075 0,0 10.413416,-0.518712 11.673147,0.148204 0,0 -0.199937,3.215744 0.17057,4.104966 0.0741,0.889222 0.662703,1.240153 1.477823,1.388357 0.309576,-2.476611 -0.583025,-5.399643 0.4544,-6.362966 1.704341,-0.889222 9.143887,-5.462395 9.143887,-5.462395 l 1.218401,28.417847 c -10.003743,0.59281 -13.354303,5.20045 -13.354303,5.20045 -0.372136,1.40098 2.038947,0.98228 2.038947,0.98228 0,0 1.685852,0.45467 2.867931,-0.0269 l 1.661674,-0.18279 c 0,0 9.814499,-0.57455 12.091096,-1.3626 0.06567,-2.86763 1.313209,-12.29173 4.702829,-12.29173 3.38962,0 4.631653,9.03557 4.828666,12.16589 z"
           id="path3101"
           sodipodi:nodetypes="ccccccccccccccccccccccccccccccccccccccsc" /><path
           style="fill:#af6e1f;fill-opacity:1;stroke:#000000;stroke-width:0.465;stroke-linecap:butt;stroke-linejoin:miter;stroke-dasharray:none;stroke-opacity:1"
           d="m 81.332483,72.481965 c 4.404287,15.939322 5.788492,24.496219 0.209729,36.996005"
           id="path5951"
           sodipodi:nodetypes="cc" /><path
           style="fill:#af6e1f;fill-opacity:1;stroke:#000000;stroke-width:0.465;stroke-linecap:butt;stroke-linejoin:miter;stroke-dasharray:none;stroke-opacity:1"
           d="M 62.305351,72.481965 C 57.901064,88.421287 56.516859,96.978184 62.095622,109.47797"
           id="path6091"
           sodipodi:nodetypes="cc" /><path
           style="fill:#000000;fill-opacity:1;stroke:none;stroke-width:0.264583px;stroke-linecap:butt;stroke-linejoin:miter;stroke-opacity:1"
           d="m 77.506131,98.063683 c 2.214962,-1.180802 3.150023,-1.309372 4.329701,-6.160912 0.478117,-1.966302 -1.510043,-14.63901 -1.510043,-14.63901 0,0 -1.319636,-6.883973 -4.320394,-7.801877 C 73.914523,68.822306 72.230294,71.685 71.97862,72.020565 71.726946,71.685 70.042717,68.822306 67.951845,69.461884 c -3.000758,0.917904 -4.320394,7.801877 -4.320394,7.801877 0,0 -1.937706,12.661121 -1.510043,14.63901 1.209338,5.59304 3.455465,5.609104 4.211061,6.131252 1.236967,0.854795 5.853771,0.14321 5.853771,0.14321 0,0 3.754711,0.720852 5.319891,-0.11355 z"
           id="path6107"
           sodipodi:nodetypes="ascscscssca" /><path
           id="path6939"
           style="fill:#f8ca8c;fill-opacity:1;stroke:none;stroke-width:0.264583px;stroke-linecap:butt;stroke-linejoin:miter;stroke-opacity:1"
           d="m 68.396484,69.90625 c -1.580804,0.345286 -2.335045,2.005758 -2.966796,3.332031 -0.905415,2.090674 -1.367822,4.221731 -1.625953,6.50744 -0.492084,3.798426 -1.127149,7.627472 -1.207095,11.480833 0.151042,1.543304 0.669062,3.089039 1.512096,4.396122 0.753991,1.227439 1.608787,1.441409 2.786062,2.111516 1.50969,0.477946 4.6253,0.04644 5.202858,-0.01349 0.623157,0.133606 4.105418,0.460312 5.056961,-0.07978 0.551417,-0.324058 1.948322,-0.852344 2.737246,-2.080007 0.806567,-1.273597 1.292591,-2.767299 1.468382,-4.258518 -0.06234,-3.805174 -0.693033,-7.578315 -1.176316,-11.338547 -0.247477,-2.070399 -0.601094,-4.062937 -1.348571,-5.961757 -0.619971,-1.495985 -1.303142,-3.238641 -2.852786,-3.98451 -1.313545,-0.480604 -2.434243,0.754074 -3.148588,1.701216 -0.327887,0.278756 -0.637726,1.325009 -0.968496,1.075235 -0.835245,-1.164021 -1.795506,-2.911183 -3.469004,-2.887735 z"
           sodipodi:nodetypes="ccccccccccccccccc" /><path
           style="color:#000000;fill:#000000;stroke-linecap:round;-inkscape-stroke:none"
           d="m 72.541967,68.080039 c -0.498431,1.91892 -0.822909,4.056775 -1.044195,5.906545 -0.31358,2.784887 -0.228861,5.955208 0.344339,8.10858 0.047,0.177382 0.323198,0.272666 0.40625,0.236328 0.103977,-0.03651 0.283152,-0.22882 0.236328,-0.40625 -0.52422,-1.969365 -0.901027,-4.74699 -0.591748,-7.49369 0.312391,-1.96917 0.510869,-4.310831 1.254495,-6.074169 0.07688,-0.167185 -0.06343,-0.409507 -0.171477,-0.456236 -0.125332,-0.03903 -0.355107,0.02578 -0.433992,0.178892 z"
           id="path8324"
           sodipodi:nodetypes="ccccccccc" /><path
           style="color:#000000;fill:#000000"
           d="m 85.131371,110.97545 c -0.626449,-0.0126 -0.505974,0.32566 -0.194894,0.5923 1.448553,0.37785 3.825553,1.10985 4.962054,1.94908 0.135943,0.18427 0.349203,0.49548 0.329985,1.11041 0.167782,0.31459 0.685035,0.14533 0.685035,0.0195 -0.05155,-0.75064 -0.09279,-1.17701 -0.833473,-1.73271 -2.220498,-1.17491 -3.257093,-1.38392 -4.948707,-1.93858 z"
           id="path8345"
           sodipodi:nodetypes="ccccccc" /><path
           style="color:#000000;fill:#000000;-inkscape-stroke:none"
           d="m 88.194196,110.29329 c -0.356537,-0.021 -0.489537,0.31915 -0.174945,0.67569 0,0 2.847649,0.74874 4.185501,1.83064 0.50966,0.41216 0.687826,1.66522 0.687826,1.66522 0.14681,0.0839 0.558176,0.11436 0.621094,-0.24218 0.06292,-0.52432 -0.38303,-1.32893 -0.634766,-1.62696 -0.64704,-0.76602 -3.111751,-1.84101 -4.68471,-2.30241 z"
           id="path8347"
           sodipodi:nodetypes="ccsccsc" /><path
           style="color:#000000;fill:#000000"
           d="m 58.634839,111.18307 c 0.626449,-0.0126 0.505974,0.32566 0.194894,0.5923 -1.448553,0.37785 -3.825553,1.10985 -4.962054,1.94908 -0.135943,0.18427 -0.349203,0.49548 -0.329985,1.11041 -0.167782,0.31459 -0.685035,0.14533 -0.685035,0.0195 0.05155,-0.75064 0.09279,-1.17701 0.833473,-1.73271 2.220498,-1.17491 3.257093,-1.38392 4.948707,-1.93858 z"
           id="path8357"
           sodipodi:nodetypes="ccccccc" /><path
           style="color:#000000;fill:#000000;-inkscape-stroke:none"
           d="m 55.483034,110.58989 c 0.356537,-0.021 0.489537,0.31915 0.174945,0.67569 0,0 -2.847649,0.74874 -4.185501,1.83064 -0.50966,0.41216 -0.687826,1.66522 -0.687826,1.66522 -0.14681,0.0839 -0.558176,0.11436 -0.621094,-0.24218 -0.06292,-0.52432 0.56099,-1.32893 0.812726,-1.62696 0.64704,-0.76602 2.933791,-1.84101 4.50675,-2.30241 z"
           id="path8359"
           sodipodi:nodetypes="ccsccsc" /></g><g
         id="g5466"
         inkscape:label="Neck"
         style="display:inline"><path
           style="opacity:1;fill:#000000;fill-opacity:1;stroke:none;stroke-width:0.264583px;stroke-linecap:butt;stroke-linejoin:miter;stroke-opacity:1"
           d="M 67.322657,67.700168 C 67.029038,63.421719 65.644834,60.65331 65.644834,60.65331 l 12.877294,0.08389 c 0,0 -2.265061,2.600626 -2.18117,6.92102 z"
           id="path5460"
           sodipodi:nodetypes="ccccc" /><path
           style="opacity:1;fill:#af6e1f;fill-opacity:1;stroke:none;stroke-width:0.253131px;stroke-linecap:butt;stroke-linejoin:miter;stroke-opacity:1"
           d="m 67.600017,67.951841 c -0.01708,-4.36234 -1.40989,-7.298531 -1.40989,-7.298531 l 11.786708,0.08389 c 0,0 -2.199068,2.852299 -1.912554,7.172693 z"
           id="path5462"
           sodipodi:nodetypes="ccccc" /></g><g
         id="g1574"
         inkscape:label="Head"
         style="display:inline"><path
           style="opacity:1;fill:#f5a89e;fill-opacity:1;stroke:#000000;stroke-width:0.865;stroke-linecap:round;stroke-linejoin:round;stroke-dasharray:none;stroke-opacity:1;paint-order:markers stroke fill"
           d="m 56.948904,22.126364 c -0.237281,-0.11864 -3.967433,-5.907599 -7.059082,-5.457441 -4.136467,0.602288 -7.681944,6.676422 -7.592964,10.85556 0.24864,11.678522 7.474325,15.304563 13.287686,20.465404 l 9.84712,-9.016641 z"
           id="path1772"
           sodipodi:nodetypes="cssccc" /><path
           style="opacity:1;fill:#f5a89e;fill-opacity:1;stroke:#000000;stroke-width:0.865;stroke-linecap:round;stroke-linejoin:round;stroke-dasharray:none;stroke-opacity:1;paint-order:markers stroke fill"
           d="m 86.785174,22.126364 c 0.237281,-0.11864 3.967433,-5.907599 7.059082,-5.457441 4.136467,0.602288 7.681944,6.676422 7.592964,10.85556 -0.24864,11.678522 -7.474325,15.304563 -13.287686,20.465404 l -9.847121,-9.016641 z"
           id="path1601"
           sodipodi:nodetypes="cssccc" /><path
           style="opacity:1;fill:#af6e1f;fill-opacity:1;stroke:#000000;stroke-width:0.865;stroke-linecap:round;stroke-linejoin:round;stroke-dasharray:none;stroke-opacity:1;paint-order:markers stroke fill"
           d="m 90.107096,51.193169 c 1.680785,-4.544273 -2.135522,-8.482763 -2.135522,-8.482763 0,0 3.121776,-1.911315 1.42368,-6.287921 0,0 -0.934629,4.055982 -3.321921,3.915122 -2.683545,-0.15834 -1.83892,-17.084163 6.465883,-23.609364 -5.042201,1.30504 -10.321683,10.618282 -10.321683,10.618282 -1.483,-0.94912 -5.457441,-3.440561 -10.399436,-3.321921 -4.941996,-0.11864 -9.035077,2.194841 -10.518077,3.143961 0,0 -5.160842,-9.135282 -10.203043,-10.440322 7.770923,7.474321 8.818019,23.031725 6.287923,23.431404 -1.501195,0.237143 -3.025321,-4.152402 -3.025321,-4.152402 -2.054016,5.088446 1.30504,6.703161 1.30504,6.703161 0,0 -4.036641,3.792365 -2.432122,8.364123 2.730473,7.779936 15.719803,15.304562 18.5856,15.363882 2.094636,-0.05932 15.499206,-7.702586 18.288999,-15.245242 z"
           id="path918"
           sodipodi:nodetypes="scsscccccsccscs" /><path
           style="fill:#af6e1f;fill-opacity:1;stroke:#000000;stroke-width:0.865;stroke-linecap:round;stroke-linejoin:miter;stroke-dasharray:none;stroke-opacity:1;paint-order:markers stroke fill"
           d="m 73.675453,24.795764 c 1.06776,-1.89824 5.0422,-6.050641 5.0422,-6.050641 -5.694721,1.72028 -8.601401,6.228601 -8.601401,6.228601 0,0 1.245719,-5.160841 2.016879,-7.533641 -1.89824,1.66096 -3.559199,5.338801 -3.974439,6.525201"
           id="path1570"
           sodipodi:nodetypes="ccccc" /><path
           style="fill:#af6e1f;fill-opacity:1;stroke:none;stroke-width:0.865;stroke-linecap:round;stroke-linejoin:miter;stroke-dasharray:none;stroke-opacity:1;paint-order:markers stroke fill"
           d="m 73.082253,25.922844 c 1.06776,-1.89824 4.92356,-6.643841 4.92356,-6.643841 -5.220161,1.83892 -7.711601,5.220161 -7.711601,5.220161 0,0 1.067759,-4.686281 1.838919,-7.059081 -1.89824,1.66096 -3.737159,5.872681 -4.330359,7.592961 z"
           id="path1576"
           sodipodi:nodetypes="cccccc" /><g
           id="g2402"
           inkscape:label="Face"
           style="display:inline"><g
             id="g3495"
             inkscape:label="Eye"
             style="display:inline"
             transform="matrix(-1,0,0,1,142.76239,0)"><path
               style="opacity:1;fill:#000000;fill-opacity:1;stroke:none;stroke-width:0.264583px;stroke-linecap:butt;stroke-linejoin:miter;stroke-opacity:1"
               d="m 78.186562,45.972356 c 0.251674,-0.503346 3.122877,-4.990746 3.562396,-7.934911 0.566666,-3.795872 -0.364903,-5.889197 -2.404058,-6.302014 -2.269386,-0.459426 -3.63492,1.518849 -4.647016,3.601359 -1.381442,2.842484 -0.425418,10.3695 -0.425418,10.3695 z"
               id="path3489"
               sodipodi:nodetypes="cssscc" /><path
               id="path3491"
               style="opacity:1;fill:#ffffff;fill-opacity:1;stroke:none;stroke-width:0.264583px;stroke-linecap:butt;stroke-linejoin:miter;stroke-opacity:1"
               d="m 78.255859,32.240234 c -1.700099,0.441403 -2.538062,2.202813 -3.221257,3.66249 -0.782063,2.562808 -0.565611,5.301361 -0.408406,7.939727 0.150841,0.510069 -0.206191,1.572691 0.622641,1.400615 0.881898,0.06025 1.763796,0.120508 2.645694,0.180762 1.536787,-2.761018 3.356141,-5.597903 3.472138,-8.853849 0.06939,-1.491522 -0.07299,-3.458679 -1.62757,-4.157687 -0.462754,-0.199082 -0.987328,-0.254752 -1.48324,-0.172058 z" /><path
               id="path3493"
               style="fill:#000000;fill-opacity:1;fill-rule:evenodd;stroke:none;stroke-width:0.262394"
               d="m 83.821157,18.529955 a 5.1537938,2.2240827 90 0 0 -1.596036,2.384694 c 0.331594,1.640919 0.896759,3.255462 1.42892,4.837712 0.281082,0.462792 0.218623,1.58005 0.972597,1.22381 0.417034,-0.06826 0.834093,-0.136663 1.251127,-0.204918 a 5.1537938,2.2240827 90 0 0 0.45791,-3.131562 5.1537938,2.2240827 90 0 0 -2.223998,-5.153573 5.1537938,2.2240827 90 0 0 -0.29052,0.04384 z"
               transform="matrix(0.97382536,0.22729749,-0.26552803,0.96410314,0,0)" /></g><g
             id="g3477"
             inkscape:label="Eye"
             style="display:inline"><path
               style="opacity:1;fill:#000000;fill-opacity:1;stroke:none;stroke-width:0.264583px;stroke-linecap:butt;stroke-linejoin:miter;stroke-opacity:1"
               d="m 78.186562,45.972356 c 0.251674,-0.503346 3.122877,-4.990746 3.562396,-7.934911 0.566666,-3.795872 -0.364903,-5.889197 -2.404058,-6.302014 -2.269386,-0.459426 -3.63492,1.518849 -4.647016,3.601359 -1.381442,2.842484 -0.425418,10.3695 -0.425418,10.3695 z"
               id="path3470"
               sodipodi:nodetypes="cssscc" /><path
               id="path3472"
               style="opacity:1;fill:#ffffff;fill-opacity:1;stroke:none;stroke-width:0.264583px;stroke-linecap:butt;stroke-linejoin:miter;stroke-opacity:1"
               d="m 78.255859,32.240234 c -1.700099,0.441403 -2.538062,2.202813 -3.221257,3.66249 -0.782063,2.562808 -0.565611,5.301361 -0.408406,7.939727 0.150841,0.510069 -0.206191,1.572691 0.622641,1.400615 0.881898,0.06025 1.763796,0.120508 2.645694,0.180762 1.536787,-2.761018 3.356141,-5.597903 3.472138,-8.853849 0.06939,-1.491522 -0.07299,-3.458679 -1.62757,-4.157687 -0.462754,-0.199082 -0.987328,-0.254752 -1.48324,-0.172058 z" /><path
               id="path3479"
               style="fill:#000000;fill-opacity:1;fill-rule:evenodd;stroke:none;stroke-width:0.262394"
               d="m 83.821157,18.529955 a 5.1537938,2.2240827 90 0 0 -1.596036,2.384694 c 0.331594,1.640919 0.896759,3.255462 1.42892,4.837712 0.281082,0.462792 0.218623,1.58005 0.972597,1.22381 0.417034,-0.06826 0.834093,-0.136663 1.251127,-0.204918 a 5.1537938,2.2240827 90 0 0 0.45791,-3.131562 5.1537938,2.2240827 90 0 0 -2.223998,-5.153573 5.1537938,2.2240827 90 0 0 -0.29052,0.04384 z"
               transform="matrix(0.97382536,0.22729749,-0.26552803,0.96410314,0,0)" /></g><g
             id="g2470"
             inkscape:label="Mouth"
             style="display:inline"><path
               style="opacity:1;fill:#f7c984;fill-opacity:1;stroke:#000000;stroke-width:0.865;stroke-linecap:round;stroke-linejoin:round;stroke-dasharray:none;stroke-opacity:1;paint-order:markers stroke fill"
               d="m 79.301509,61.790779 c 3.674048,-4.061742 7.358061,-12.211104 7.693626,-14.518111 0,0 -7.112316,-3.255852 -10.989742,-2.978135 -1.461353,0.104668 -4.822508,1.761715 -4.822508,1.761715 0,0 -3.361155,-1.657047 -4.822508,-1.761715 -3.877426,-0.277717 -10.989742,2.978135 -10.989742,2.978135 0.335565,2.307007 4.019578,10.456369 7.693626,14.518111 2.616242,2.892313 8.118624,4.675593 8.830464,4.556953 1.12708,0 4.790542,-1.66464 7.406784,-4.556953 z"
               id="path1776"
               sodipodi:nodetypes="scscscscs" /><path
               style="fill:#000000;fill-opacity:1;stroke:none;stroke-width:0.264583px;stroke-linecap:butt;stroke-linejoin:miter;stroke-opacity:1"
               d="M 81.980253,49.235609 C 76.226212,62.404652 73.616132,63.116491 71.599251,63.294451 69.58237,63.116491 66.97229,62.404652 61.218249,49.235609 c 5.042201,3.499881 9.253922,1.482999 10.381002,0.830479 1.12708,0.65252 5.338801,2.669402 10.381002,-0.830479 z"
               id="path2472"
               sodipodi:nodetypes="ccccc" /><path
               id="path2476"
               style="display:inline;fill:#e63535;fill-opacity:1;stroke:none;stroke-width:0.264583px;stroke-linecap:butt;stroke-linejoin:miter;stroke-opacity:1"
               d="m 74.55979,55.750602 c -0.969316,0.0031 -2.67485,0.807539 -2.841687,1.196826 0.2966,0.77116 0.771012,1.127063 0.771012,1.127063 0.5932,1.364359 -0.296475,0.592745 -1.067635,-0.534334 0,0 -0.399098,-1.664044 -2.195215,-1.30483 -1.036381,0.207272 -1.887587,1.510729 -2.442228,2.656686 0.524365,0.772347 1.091452,1.515487 1.716175,2.217435 1.043178,1.189803 3.052709,2.03891 4.618839,1.321367 1.967332,-0.916662 2.83129,-2.836662 3.966683,-4.590418 0.03749,-0.06228 0.07392,-0.125136 0.111104,-0.187585 -0.687845,-0.867792 -1.600459,-1.783675 -2.453597,-1.891875 -0.0574,-0.0073 -0.11883,-0.01054 -0.183451,-0.01033 z"
               inkscape:label="Tongue" /></g><g
             id="g2464"
             inkscape:label="Nose"><path
               style="opacity:1;fill:#000000;fill-opacity:1;stroke:none;stroke-width:0.264583px;stroke-linecap:butt;stroke-linejoin:miter;stroke-opacity:1"
               d="m 75.395732,46.388249 c 0.356298,2.245479 -3.677841,3.677839 -3.677841,3.677839 0,0 -4.034139,-1.43236 -3.677841,-3.677839 0.284732,-1.79445 3.677841,-1.720281 3.677841,-1.720281 0,0 3.393109,-0.07417 3.677841,1.720281 z"
               id="path2404"
               sodipodi:nodetypes="scscs" /><ellipse
               style="fill:#ffffff;fill-opacity:1;fill-rule:evenodd;stroke-width:0.292599"
               id="path2460"
               cx="71.599251"
               cy="46.061993"
               rx="1.8389202"
               ry="0.68218017" /></g><g
             id="g5440"
             inkscape:label="Cheak"
             style="display:inline"><path
               style="opacity:1;fill:#000000;fill-opacity:1;stroke:none;stroke-width:0.264583px;stroke-linecap:butt;stroke-linejoin:miter;stroke-opacity:1"
               d="m 82.381121,41.442235 c -2.19484,1.30504 -4.079786,4.061011 -2.93619,5.95627 1.54218,2.555823 5.709536,2.481263 7.904377,0.345743"
               id="path3571"
               sodipodi:nodetypes="csc" /><path
               style="opacity:1;fill:#af6e1f;fill-opacity:1;stroke:none;stroke-width:0.248709px;stroke-linecap:butt;stroke-linejoin:miter;stroke-opacity:1"
               d="m 82.820624,41.738835 c -2.13171,1.187296 -3.983663,3.708479 -2.851736,5.418882 1.735101,2.621832 5.07075,2.020121 7.55838,-0.100688"
               id="path5022"
               sodipodi:nodetypes="csc" /></g><g
             id="g5446"
             inkscape:label="Cheak"
             transform="matrix(-1,0,0,1,142.42465,0)"
             style="display:inline"><path
               style="opacity:1;fill:#000000;fill-opacity:1;stroke:none;stroke-width:0.264583px;stroke-linecap:butt;stroke-linejoin:miter;stroke-opacity:1"
               d="m 82.381121,41.442235 c -2.19484,1.30504 -4.079786,4.061011 -2.93619,5.95627 1.54218,2.555823 5.709536,2.481263 7.904377,0.345743"
               id="path5442"
               sodipodi:nodetypes="csc" /><path
               style="opacity:1;fill:#af6e1f;fill-opacity:1;stroke:none;stroke-width:0.248709px;stroke-linecap:butt;stroke-linejoin:miter;stroke-opacity:1"
               d="m 82.820624,41.738835 c -2.13171,1.187296 -3.975292,3.702968 -2.851736,5.418882 1.794421,2.740472 5.60463,1.842161 7.73634,-0.100688"
               id="path5444"
               sodipodi:nodetypes="csc" /></g><path
             id="path3450"
             style="color:#000000;display:inline;fill:#000000;stroke-linecap:round;stroke-linejoin:round;-inkscape-stroke:none"
             d="m 94.692411,44.214872 c -15.600942,0.162666 -18.336865,3.55844 -18.336865,3.558439 -0.16377,0.08438 -0.227759,0.286204 -0.142627,0.449585 0.08438,0.163769 0.285687,0.227241 0.449068,0.142111 0,0 7.12061,-4.487833 20.336227,-3.654041 0.184137,0.01197 1.55922,0.03952 1.56993,-0.144694 0.01087,-0.182679 -3.693109,-0.339641 -3.875733,-0.3514 z m -16.498734,4.745964 c -1.371163,-0.005 -2.084111,0.119372 -2.084111,0.119372 -0.183397,-0.01085 -0.341186,0.128723 -0.351916,0.312126 -0.01085,0.183397 0.129239,0.341186 0.312642,0.351916 0,0 10.492282,0.379998 20.580656,4.215247 0.171499,0.06438 0.908095,0.313388 0.973067,0.14211 0.06458,-0.170951 -4.59303,-1.872112 -4.763533,-1.937866 -7.032765,-2.713197 -12.049131,-3.19342 -14.666805,-3.202905 z" /><path
             id="path3464"
             style="color:#000000;display:inline;fill:#000000;stroke-linecap:round;stroke-linejoin:round;-inkscape-stroke:none"
             d="m 48.905052,44.214872 c 15.600942,0.162666 18.336865,3.55844 18.336865,3.558439 0.16377,0.08438 0.227759,0.286204 0.142627,0.449585 -0.08438,0.163769 -0.285687,0.227241 -0.449068,0.142111 0,0 -7.12061,-4.487833 -20.336227,-3.654041 -0.184137,0.01197 -1.55922,0.03952 -1.56993,-0.144694 -0.01087,-0.182679 3.693109,-0.339641 3.875733,-0.3514 z m 16.498734,4.745964 c 1.371163,-0.005 2.084111,0.119372 2.084111,0.119372 0.183397,-0.01085 0.341186,0.128723 0.351916,0.312126 0.01085,0.183397 -0.129239,0.341186 -0.312642,0.351916 0,0 -10.492282,0.379998 -20.580656,4.215247 -0.171499,0.06438 -0.908095,0.313388 -0.973067,0.14211 -0.06458,-0.170951 4.59303,-1.872112 4.763533,-1.937866 7.032765,-2.713197 12.049131,-3.19342 14.666805,-3.202905 z" /><path
             id="path5523"
             style="color:#000000;fill:#000000;stroke-linecap:round;stroke-linejoin:round;-inkscape-stroke:none"
             d="m 78.392847,25.990879 c -0.158331,0.09281 -0.09289,0.414984 -2.16e-4,0.573393 0.252792,0.433357 0.337335,1.034461 0.320394,1.669149 -0.567685,-0.198805 -1.055504,-0.304258 -1.369426,-0.332796 -0.183329,-0.01659 -0.552872,0.08926 -0.568838,0.272647 -0.01692,0.182968 0.325394,0.374634 0.508377,0.391395 0.241699,0.02197 0.762546,0.138568 1.374593,0.364319 -0.03018,0.236876 -0.07087,0.472011 -0.118856,0.698148 -0.224957,1.060173 -0.576192,2.054127 -0.576192,2.054127 -0.02408,0.528504 0.470922,0.359911 0.734106,0.137675 0,0 0.253487,-0.925992 0.492693,-2.053309 0.03923,-0.184898 0.07545,-0.37673 0.106453,-0.572575 0.210383,0.09691 0.423542,0.205483 0.633553,0.326595 0.36777,0.212091 0.726552,0.459935 1.051616,0.746208 -0.004,0.01752 -0.0081,0.0353 -0.0124,0.05271 -0.140676,0.573743 -0.573056,1.250733 -0.928926,1.499843 -0.303072,0.432079 0.04003,0.561625 0.380855,0.515526 0.447196,-0.313037 0.897415,-0.95586 1.094808,-1.521342 0.371869,0.446599 0.656713,0.964904 0.793233,1.560628 0.04112,0.178928 0.249144,0.438963 0.428085,0.397897 0.179138,-0.04089 0.261492,-0.367622 0.220454,-0.546725 -0.20346,-0.887829 -0.674658,-1.614032 -1.260905,-2.199866 0.066,-0.577538 -0.0075,-1.184509 -0.274402,-1.731677 -0.08075,-0.165291 -0.369341,-0.411565 -0.53443,-0.330406 -0.164103,0.08072 -0.143233,0.456775 -0.06347,0.621344 0.131931,0.270459 0.203586,0.571385 0.222726,0.877983 -0.255196,-0.193016 -0.519878,-0.365441 -0.784965,-0.518315 -0.298446,-0.172112 -0.596689,-0.320684 -0.884701,-0.447518 0.05629,-0.793777 -0.02302,-1.603638 -0.410311,-2.267562 -0.09197,-0.11662 -0.27457,-0.374263 -0.573908,-0.237496 z"
             sodipodi:nodetypes="cccccccsccscscscccccccccccsccc"
             inkscape:label="Brow" /><path
             id="path5542"
             style="color:#000000;fill:#000000;stroke-linecap:round;stroke-linejoin:round;-inkscape-stroke:none"
             d="m 64.486762,25.990879 c 0.158331,0.09281 0.09289,0.414984 2.16e-4,0.573393 -0.252792,0.433357 -0.337335,1.034461 -0.320394,1.669149 0.567685,-0.198805 1.055504,-0.304258 1.369426,-0.332796 0.183329,-0.01659 0.552872,0.08926 0.568838,0.272647 0.01692,0.182968 -0.325394,0.374634 -0.508377,0.391395 -0.241699,0.02197 -0.762546,0.138568 -1.374593,0.364319 0.03018,0.236876 0.07087,0.472011 0.118856,0.698148 0.224957,1.060173 0.576192,2.054127 0.576192,2.054127 0.02408,0.528504 -0.470922,0.359911 -0.734106,0.137675 0,0 -0.253487,-0.925992 -0.492693,-2.053309 -0.03923,-0.184898 -0.07545,-0.37673 -0.106453,-0.572575 -0.210383,0.09691 -0.423542,0.205483 -0.633553,0.326595 -0.36777,0.212091 -0.726552,0.459935 -1.051616,0.746208 0.004,0.01752 0.0081,0.0353 0.0124,0.05271 0.140676,0.573743 0.573056,1.250733 0.928926,1.499843 0.303072,0.432079 -0.04003,0.561625 -0.380855,0.515526 -0.447196,-0.313037 -0.897415,-0.95586 -1.094808,-1.521342 -0.371869,0.446599 -0.656713,0.964904 -0.793233,1.560628 -0.04112,0.178928 -0.249144,0.438963 -0.428085,0.397897 -0.179138,-0.04089 -0.261492,-0.367622 -0.220454,-0.546725 0.20346,-0.887829 0.674658,-1.614032 1.260905,-2.199866 -0.066,-0.577538 0.0075,-1.184509 0.274402,-1.731677 0.08075,-0.165291 0.369341,-0.411565 0.53443,-0.330406 0.164103,0.08072 0.143233,0.456775 0.06347,0.621344 -0.131931,0.270459 -0.203586,0.571385 -0.222726,0.877983 0.255196,-0.193016 0.519878,-0.365441 0.784965,-0.518315 0.298446,-0.172112 0.596689,-0.320684 0.884701,-0.447518 -0.05629,-0.793777 0.02302,-1.603638 0.410311,-2.267562 0.09197,-0.11662 0.27457,-0.374263 0.573908,-0.237496 z"
             sodipodi:nodetypes="cccccccsccscscscccccccccccsccc"
             inkscape:label="Brow" /></g></g></g></g></svg>
