<?xml version="1.0" encoding="UTF-8" standalone="no"?>
<!-- Created with Inkscape (http://www.inkscape.org/) -->

<svg
   width="210mm"
   height="297mm"
   viewBox="0 0 210 297"
   version="1.1"
   id="svg5"
   xml:space="preserve"
   inkscape:version="1.2.2 (732a01da63, 2022-12-09)"
   sodipodi:docname="(wednesday) wednesday.svg"
   xmlns:inkscape="http://www.inkscape.org/namespaces/inkscape"
   xmlns:sodipodi="http://sodipodi.sourceforge.net/DTD/sodipodi-0.dtd"
   xmlns:xlink="http://www.w3.org/1999/xlink"
   xmlns="http://www.w3.org/2000/svg"
   xmlns:svg="http://www.w3.org/2000/svg"><sodipodi:namedview
     id="namedview7"
     pagecolor="#ffffff"
     bordercolor="#000000"
     borderopacity="0.25"
     inkscape:showpageshadow="2"
     inkscape:pageopacity="0.0"
     inkscape:pagecheckerboard="0"
     inkscape:deskcolor="#d1d1d1"
     inkscape:document-units="mm"
     showgrid="false"
     inkscape:zoom="1.2572914"
     inkscape:cx="-72.775492"
     inkscape:cy="125.66697"
     inkscape:window-width="2560"
     inkscape:window-height="1377"
     inkscape:window-x="1272"
     inkscape:window-y="-8"
     inkscape:window-maximized="1"
     inkscape:current-layer="layer1" /><defs
     id="defs2"><linearGradient
       inkscape:collect="always"
       id="linearGradient37210"><stop
         style="stop-color:#000000;stop-opacity:1;"
         offset="0"
         id="stop37206" /><stop
         style="stop-color:#000000;stop-opacity:0.32554519;"
         offset="1"
         id="stop37208" /></linearGradient><filter
       inkscape:collect="always"
       style="color-interpolation-filters:sRGB"
       id="filter53292"
       x="-0.022481393"
       y="-0.043413005"
       width="1.0449628"
       height="1.086826"><feGaussianBlur
         inkscape:collect="always"
         stdDeviation="0.04687085"
         id="feGaussianBlur53294" /></filter><filter
       inkscape:collect="always"
       style="color-interpolation-filters:sRGB"
       id="filter53296"
       x="-0.0085056499"
       y="-0.017829193"
       width="1.0170113"
       height="1.0356584"><feGaussianBlur
         inkscape:collect="always"
         stdDeviation="0.015960692"
         id="feGaussianBlur53298" /></filter><filter
       inkscape:collect="always"
       style="color-interpolation-filters:sRGB"
       id="filter56476"
       x="-0.035390055"
       y="-0.059370154"
       width="1.0707801"
       height="1.1187403"><feGaussianBlur
         inkscape:collect="always"
         stdDeviation="0.10588781"
         id="feGaussianBlur56478" /></filter><filter
       inkscape:collect="always"
       style="color-interpolation-filters:sRGB"
       id="filter4411"
       x="-0.024621456"
       y="-0.05158623"
       width="1.0492429"
       height="1.1031725"><feGaussianBlur
         inkscape:collect="always"
         stdDeviation="0.040013407"
         id="feGaussianBlur4413" /></filter><filter
       inkscape:collect="always"
       style="color-interpolation-filters:sRGB"
       id="filter5446"
       x="-0.0026836614"
       y="-0.0053151318"
       width="1.0053673"
       height="1.0106303"><feGaussianBlur
         inkscape:collect="always"
         stdDeviation="0.0022848011"
         id="feGaussianBlur5448" /></filter><filter
       inkscape:collect="always"
       style="color-interpolation-filters:sRGB"
       id="filter36411"
       x="-0.02636685"
       y="-0.054315793"
       width="1.0527337"
       height="1.1086316"><feGaussianBlur
         inkscape:collect="always"
         stdDeviation="0.020562663"
         id="feGaussianBlur36413" /></filter><filter
       inkscape:collect="always"
       style="color-interpolation-filters:sRGB"
       id="filter36415"
       x="-0.0392348"
       y="-0.11442985"
       width="1.0784696"
       height="1.2288597"><feGaussianBlur
         inkscape:collect="always"
         stdDeviation="0.028717887"
         id="feGaussianBlur36417" /></filter><filter
       inkscape:collect="always"
       style="color-interpolation-filters:sRGB"
       id="filter36419"
       x="-0.024948012"
       y="-0.040539448"
       width="1.049896"
       height="1.0810789"><feGaussianBlur
         inkscape:collect="always"
         stdDeviation="0.048431782"
         id="feGaussianBlur36421" /></filter><filter
       inkscape:collect="always"
       style="color-interpolation-filters:sRGB"
       id="filter36423"
       x="-0.012731294"
       y="-0.021322429"
       width="1.0254626"
       height="1.0426449"><feGaussianBlur
         inkscape:collect="always"
         stdDeviation="0.022369834"
         id="feGaussianBlur36425" /></filter><radialGradient
       inkscape:collect="always"
       xlink:href="#linearGradient37210"
       id="radialGradient37212"
       cx="75.968529"
       cy="120.58163"
       fx="75.968529"
       fy="120.58163"
       r="40.220774"
       gradientTransform="matrix(0.78201601,0.00562739,-2.8966364e-4,0.1248943,16.594852,105.09417)"
       gradientUnits="userSpaceOnUse" /><filter
       inkscape:collect="always"
       style="color-interpolation-filters:sRGB"
       id="filter1129"
       x="-0.037886827"
       y="-0.19808515"
       width="1.0757737"
       height="1.3961703"><feGaussianBlur
         inkscape:collect="always"
         stdDeviation="1.0995919"
         id="feGaussianBlur1131" /></filter></defs><g
     inkscape:label="Layer 1"
     inkscape:groupmode="layer"
     id="layer1"><g
       id="g27317"
       inkscape:label="Wednesday"
       style="display:inline"
       transform="matrix(1.0442646,0,0,1.0442646,-41.986827,-22.603111)"><ellipse
         style="opacity:1;mix-blend-mode:normal;fill:url(#radialGradient37212);fill-opacity:1;stroke-width:0.519999;filter:url(#filter1129)"
         id="path36812"
         transform="matrix(0.82946884,0,0,0.371429,13.007611,77.425018)"
         ry="6.6613283"
         rx="34.827679"
         cy="120.58163"
         cx="75.968529" /><g
         id="g15903"
         inkscape:label="Body"
         style="display:inline"><g
           id="g29919"
           transform="matrix(-1,0,0,1,152.64729,0)"
           style="display:inline"><path
             style="display:inline;opacity:1;fill:#000000;fill-opacity:1;stroke:none;stroke-width:0.519999"
             d="m 71.417782,116.08349 c -0.03507,0.719 -0.07015,1.438 -0.105219,2.157 -0.775625,-0.3479 -1.618138,-0.51315 -2.437079,-0.72336 -0.767891,-0.0935 -1.542571,0.0469 -2.299565,0.16578 -0.669883,0.18379 -1.311045,0.48952 -1.888697,0.87198 -0.613982,0.51093 -1.020711,1.2247 -1.392564,1.9191 -0.218214,0.52871 -0.249678,1.10657 -0.373355,1.65959 0.567117,0.7526 1.485909,1.08336 2.333505,1.41046 0.79207,0.2525 1.636869,0.26535 2.460947,0.28007 1.270932,-0.0515 2.544931,-0.30858 3.702027,-0.84875 0.300814,0.57572 1.036639,0.6509 1.612566,0.72464 0.636202,0.0134 1.279924,0.0357 1.911416,-0.0372 0.511563,-0.1549 1.4434,-0.17544 1.396783,-0.97342 0.0082,-2.19334 0.01637,-4.38667 0.02455,-6.58001 -1.648289,-0.009 -3.297763,-0.0181 -4.945313,-0.0259 z"
             id="path29909"
             inkscape:label="path27402"
             sodipodi:nodetypes="scccccccccccccss" /><path
             id="path29911"
             style="display:inline;opacity:1;fill:#2d2e23;fill-opacity:1;stroke:none;stroke-width:0.519999"
             d="m 71.576172,118.25391 c 0.104439,0.74334 -0.723446,-0.0569 -1.138917,-0.0513 -1.110126,-0.38186 -2.285961,-0.59828 -3.447347,-0.31617 -1.361611,0.2086 -2.645988,1.01574 -3.231419,2.29498 -0.350147,0.56545 -0.540309,1.33565 -0.487628,1.95057 1.513131,1.43293 3.796279,1.61331 5.765427,1.29172 0.857916,-0.14068 1.690407,-0.41016 2.477384,-0.7772 0.554716,1.01989 1.904935,0.76076 2.878382,0.7924 0.56524,-0.0619 1.22498,-0.14841 1.674352,-0.51505 0.02515,-2.17732 0.01787,-4.36979 0.03125,-6.55274 -1.475911,-0.007 -2.951823,-0.0143 -4.427734,-0.0215 -0.03125,0.63476 -0.0625,1.26953 -0.09375,1.9043 z"
             inkscape:label="path27405" /><path
             style="opacity:1;fill:#000000;fill-opacity:1;stroke:none;stroke-width:0.519999"
             d="m 71.165007,118.48434 c 0,0 0.325507,0.13951 0.465011,0.26041 0.139501,0.1209 0.306906,0.32551 0.409207,0.37201 0.102301,0.0465 0.241805,0.1023 0.316206,0.0744 0.0744,-0.0279 0.195305,-0.1116 0.111602,-0.186 -0.0837,-0.0744 -0.241803,-0.17671 -0.362707,-0.26971 -0.120902,-0.093 -0.139502,-0.1302 -0.306906,-0.24181 -0.167402,-0.1116 -0.344107,-0.2046 -0.344107,-0.2046 z"
             id="path29913"
             inkscape:label="path27890" /><path
             style="opacity:1;fill:#000000;fill-opacity:1;stroke:none;stroke-width:0.485047"
             d="m 63.222652,121.46519 c 1.363745,0.73526 3.012035,1.27182 4.641902,1.13059 0.953613,-0.0279 1.897827,-0.17111 2.825574,-0.35019 0.488335,-0.13094 1.00784,-0.3976 1.524933,-0.20651 1.046923,0.27707 2.161184,0.28235 3.235072,0.14056 0.252483,-0.0382 0.956632,-0.10094 0.67426,-0.45104 -1.058486,0.41814 -2.261379,0.29636 -3.37166,0.13115 -0.533434,-0.22618 -1.1924,-0.27106 -1.724226,-0.0164 -1.289621,0.29598 -2.62621,0.47503 -3.961915,0.45734 -0.661982,-0.0187 -1.332538,-0.0686 -1.945615,-0.30433 -0.499308,-0.16786 -1.007924,-0.32825 -1.427903,-0.62696 -0.41908,-0.16564 -0.588347,-0.0983 -0.470422,0.0958 z"
             id="path29915"
             sodipodi:nodetypes="cccccccccccc"
             inkscape:label="path27892" /><path
             style="opacity:1;fill:#000000;fill-opacity:1;stroke:none;stroke-width:0.519999"
             d="m 71.602118,123.02283 c 0.107919,-0.044 0.221257,-0.0899 0.300411,-0.17917 0.07649,-0.0717 0.150999,-0.14751 0.20381,-0.23893 -0.07188,-0.27523 -0.223076,-0.17873 -0.422762,-0.0418 -0.0809,0.0497 -0.163175,0.0973 -0.241539,0.15088 0.01088,0.0999 0.106798,0.21925 0.160079,0.30899 z"
             id="path29917"
             sodipodi:nodetypes="csccccc" /></g><g
           id="g29907"><path
             style="display:inline;opacity:1;fill:#000000;fill-opacity:1;stroke:none;stroke-width:0.519999"
             d="m 71.417782,116.08349 c -0.03507,0.719 -0.07015,1.438 -0.105219,2.157 -0.775625,-0.3479 -1.618138,-0.51315 -2.437079,-0.72336 -0.767891,-0.0935 -1.542571,0.0469 -2.299565,0.16578 -0.669883,0.18379 -1.311045,0.48952 -1.888697,0.87198 -0.613982,0.51093 -1.020711,1.2247 -1.392564,1.9191 -0.218214,0.52871 -0.249678,1.10657 -0.373355,1.65959 0.567117,0.7526 1.485909,1.08336 2.333505,1.41046 0.79207,0.2525 1.636869,0.26535 2.460947,0.28007 1.270932,-0.0515 2.544931,-0.30858 3.702027,-0.84875 0.300814,0.57572 1.036639,0.6509 1.612566,0.72464 0.636202,0.0134 1.279924,0.0357 1.911416,-0.0372 0.511563,-0.1549 1.4434,-0.17544 1.396783,-0.97342 0.0082,-2.19334 0.01637,-4.38667 0.02455,-6.58001 -1.648289,-0.009 -3.297763,-0.0181 -4.945313,-0.0259 z"
             id="path27402"
             inkscape:label="path27402"
             sodipodi:nodetypes="scccccccccccccss" /><path
             id="path27405"
             style="display:inline;opacity:1;fill:#2d2e23;fill-opacity:1;stroke:none;stroke-width:0.519999"
             d="m 71.576172,118.25391 c 0.104439,0.74334 -0.723446,-0.0569 -1.138917,-0.0513 -1.110126,-0.38186 -2.285961,-0.59828 -3.447347,-0.31617 -1.361611,0.2086 -2.645988,1.01574 -3.231419,2.29498 -0.350147,0.56545 -0.540309,1.33565 -0.487628,1.95057 1.513131,1.43293 3.796279,1.61331 5.765427,1.29172 0.857916,-0.14068 1.690407,-0.41016 2.477384,-0.7772 0.554716,1.01989 1.904935,0.76076 2.878382,0.7924 0.56524,-0.0619 1.22498,-0.14841 1.674352,-0.51505 0.02515,-2.17732 0.01787,-4.36979 0.03125,-6.55274 -1.475911,-0.007 -2.951823,-0.0143 -4.427734,-0.0215 -0.03125,0.63476 -0.0625,1.26953 -0.09375,1.9043 z"
             inkscape:label="path27405" /><path
             style="opacity:1;fill:#000000;fill-opacity:1;stroke:none;stroke-width:0.519999"
             d="m 71.165007,118.48434 c 0,0 0.325507,0.13951 0.465011,0.26041 0.139501,0.1209 0.306906,0.32551 0.409207,0.37201 0.102301,0.0465 0.241805,0.1023 0.316206,0.0744 0.0744,-0.0279 0.195305,-0.1116 0.111602,-0.186 -0.0837,-0.0744 -0.241803,-0.17671 -0.362707,-0.26971 -0.120902,-0.093 -0.139502,-0.1302 -0.306906,-0.24181 -0.167402,-0.1116 -0.344107,-0.2046 -0.344107,-0.2046 z"
             id="path27890"
             inkscape:label="path27890" /><path
             style="opacity:1;fill:#000000;fill-opacity:1;stroke:none;stroke-width:0.485047"
             d="m 63.222652,121.46519 c 1.363745,0.73526 3.012035,1.27182 4.641902,1.13059 0.953613,-0.0279 1.897827,-0.17111 2.825574,-0.35019 0.488335,-0.13094 1.00784,-0.3976 1.524933,-0.20651 1.046923,0.27707 2.161184,0.28235 3.235072,0.14056 0.252483,-0.0382 0.956632,-0.10094 0.67426,-0.45104 -1.058486,0.41814 -2.261379,0.29636 -3.37166,0.13115 -0.533434,-0.22618 -1.1924,-0.27106 -1.724226,-0.0164 -1.289621,0.29598 -2.62621,0.47503 -3.961915,0.45734 -0.661982,-0.0187 -1.332538,-0.0686 -1.945615,-0.30433 -0.499308,-0.16786 -1.007924,-0.32825 -1.427903,-0.62696 -0.41908,-0.16564 -0.588347,-0.0983 -0.470422,0.0958 z"
             id="path27892"
             sodipodi:nodetypes="cccccccccccc"
             inkscape:label="path27892" /><path
             style="opacity:1;fill:#000000;fill-opacity:1;stroke:none;stroke-width:0.519999"
             d="m 71.602118,123.02283 c 0.107919,-0.044 0.221257,-0.0899 0.300411,-0.17917 0.07649,-0.0717 0.150999,-0.14751 0.20381,-0.23893 -0.07188,-0.27523 -0.223076,-0.17873 -0.422762,-0.0418 -0.0809,0.0497 -0.163175,0.0973 -0.241539,0.15088 0.01088,0.0999 0.106798,0.21925 0.160079,0.30899 z"
             id="path27894"
             sodipodi:nodetypes="csccccc" /></g><g
           id="g7646"
           style="display:inline"
           inkscape:label="g7646"><path
             style="opacity:1;fill:#000000;fill-opacity:1;stroke:none;stroke-width:0.521546"
             d="m 67.522209,83.142891 c -0.287733,5.025082 -2.078944,9.788184 -3.25096,14.644541 -1.44787,5.424698 -2.846756,10.876908 -3.682885,16.435028 4.980513,3.16107 11.107042,3.05289 16.789207,3.05312 5.037139,0.0455 10.317723,-0.39799 14.745104,-3.0202 -1.394892,-9.4639 -4.518778,-18.610952 -6.483512,-27.951403 -0.505572,-2.811672 -0.787356,-3.166752 -1.329436,-2.95887 -1.961559,0.460951 -5.59346,1.191644 -7.43712,1.271712 -3.122999,-0.416908 -2.039119,0.05711 -9.350398,-1.473928 z"
             id="path4123"
             sodipodi:nodetypes="ccccccccc"
             inkscape:label="path4123" /><path
             id="path6183"
             style="display:inline;opacity:1;fill:#183c55;fill-opacity:1;stroke:none;stroke-width:0.521546"
             d="m 67.714844,84.101562 c -0.502143,5.074149 -2.300749,9.880095 -3.466514,14.81598 -1.333175,5.006448 -2.582033,10.045228 -3.369424,15.170348 3.503543,2.19417 7.81608,2.76347 11.904943,2.88058 5.47073,0.0517 11.143011,0.37463 16.358909,-1.58889 0.929702,-0.34489 1.830725,-0.76797 2.689273,-1.26435 -1.515635,-10.0095 -4.870291,-19.606666 -6.822103,-29.525918 -0.144303,-0.344633 -0.180244,-1.222565 -0.740403,-0.964302 -2.485665,0.521981 -4.984445,1.130312 -7.527,1.241852 -2.240647,-0.22026 -4.515236,-0.449478 -6.733909,-0.947002 -0.750007,-0.146368 -1.497725,-0.305766 -2.246897,-0.456969 -0.01563,0.21289 -0.03125,0.425781 -0.04687,0.638671 z"
             inkscape:label="path6183" /><path
             id="path8610"
             style="opacity:1;fill:#132d40;fill-opacity:1;stroke:none;stroke-width:0.519999"
             d="m 67.761755,83.463123 c -0.01563,0.212889 -0.0314,0.425314 -0.04702,0.638203 -0.502143,5.074144 -2.300691,9.88027 -3.466455,14.81615 -1.333174,5.006444 -2.581913,10.045534 -3.369304,15.170654 0.593316,0.37157 1.210147,0.69519 1.844849,0.97927 l 6.557739,-31.294219 c -0.50668,-0.103226 -1.012951,-0.207762 -1.519804,-0.310058 z" /><path
             id="path8615"
             style="opacity:1;fill:#162734;fill-opacity:1;stroke:none;stroke-width:0.519999"
             d="m 84.456344,83.578361 c -0.05487,3.8e-5 -0.117049,0.01423 -0.187069,0.04651 -0.343483,0.07213 -0.687914,0.146769 -1.031978,0.220658 l 7.668782,30.767631 c 0.313367,-0.15688 0.622673,-0.32277 0.926042,-0.49816 -1.515634,-10.00949 -4.870513,-19.606605 -6.822323,-29.525847 -0.126265,-0.301554 -0.16934,-1.011054 -0.553454,-1.010792 z" /><path
             id="path8631"
             style="opacity:0.99;fill:#112d40;fill-opacity:1;stroke:none;stroke-width:0.519999"
             d="m 69.750781,83.867749 -5.972245,31.629591 c 0.930862,0.34368 1.893067,0.61093 2.872176,0.81752 l 4.166154,-32.225419 c -0.270083,-0.05283 -0.539616,-0.109266 -0.808219,-0.169499 -0.08604,-0.01679 -0.171876,-0.03509 -0.257866,-0.05219 z" /><path
             id="path8636"
             style="opacity:1;fill:#112d40;fill-opacity:1;stroke:none;stroke-width:0.519999"
             d="m 82.100415,84.08634 c -0.461401,0.09668 -0.923379,0.190175 -1.386479,0.277503 l 6.582028,31.613577 c 0.621108,-0.17112 1.237228,-0.36838 1.846915,-0.5979 0.231556,-0.0859 0.461063,-0.17681 0.688847,-0.27233 z" /><path
             id="path8641"
             style="opacity:1;fill:#112d40;fill-opacity:1;stroke:none;stroke-width:0.519999"
             d="m 71.47264,84.208813 -3.45767,32.354097 c 1.16677,0.18179 2.346882,0.2902 3.518131,0.35295 l 1.782837,-32.425927 c -0.616149,-0.08103 -1.230737,-0.173722 -1.843298,-0.28112 z" /><path
             id="path8646"
             style="opacity:1;fill:#112d41;fill-opacity:1;stroke:none;stroke-width:0.519999"
             d="m 73.708679,84.539543 0.09663,32.442467 c 0.66711,0.009 1.334889,0.0184 2.005562,0.0263 V 84.772603 C 75.111017,84.701728 74.41,84.626921 73.708679,84.539543 Z" /><path
             id="path8651"
             style="opacity:1;fill:#0e2e44;fill-opacity:1;stroke:none;stroke-width:0.519999"
             d="m 79.865926,84.514221 c -0.31548,0.05301 -0.631222,0.103518 -0.947746,0.147278 l 4.982125,31.999601 c 0.573522,-0.0781 1.144641,-0.17199 1.71204,-0.28526 z" /><path
             id="path8656"
             style="opacity:0.996;fill:#112d40;fill-opacity:1;stroke:none;stroke-width:0.519999"
             d="m 78.342505,84.73488 c -0.531597,0.06206 -1.064713,0.108296 -1.599902,0.131774 -0.01253,-0.0012 -0.02519,-0.0024 -0.03772,-0.0036 l 1.592667,32.151016 c 0.932038,-0.009 1.863162,-0.0324 2.791044,-0.0863 z" /></g><g
           id="g30973"><path
             style="opacity:1;fill:#000000;fill-opacity:1;stroke:none;stroke-width:0.519999"
             d="m 67.814015,77.678348 c -0.151008,1.713128 -0.45193,3.420103 -0.394576,5.144746 v 1.168429 c 0.926192,0.923598 2.286396,0.985616 3.491926,1.251924 2.098046,0.380084 4.232228,0.554254 6.362598,0.575089 1.713619,-0.0711 3.437961,-0.190114 5.104901,-0.619609 0.822234,-0.147669 1.527653,-0.445723 2.325213,-0.851878 0.179101,-0.11227 0.44325,-0.25157 0.530153,-0.367437 0.0276,-0.278038 0.04812,-0.519069 0.03141,-0.812534 C 85.163682,81.782554 85.18945,80.927167 85.120424,79.646381 79.511508,78.126027 73.60277,77.678348 67.814011,77.678348 Z"
             id="path30038"
             sodipodi:nodetypes="ccccccccccc"
             inkscape:label="path30038" /><path
             id="path30071"
             style="opacity:1;fill:#183a54;fill-opacity:1;stroke:none;stroke-width:0.519999"
             d="m 67.943359,78.990234 c -0.218621,1.619521 -0.30432,3.251386 -0.259765,4.884766 1.175812,0.977301 2.849074,0.956905 4.250694,1.268725 3.835427,0.55528 7.821975,0.648419 11.532509,-0.526537 0.519652,-0.216925 1.053833,-0.428681 1.511719,-0.759766 0.03417,-1.333079 -0.0929,-2.668972 -0.113282,-4.003906 -5.476658,-1.457422 -11.149759,-1.891039 -16.8125,-1.910157 -0.03646,0.348959 -0.07292,0.697917 -0.109375,1.046875 z"
             inkscape:label="path30071" /></g><g
           id="g33505"
           transform="translate(0.10521957,-0.05260979)"><path
             style="opacity:1;fill:#000000;fill-opacity:1;stroke:none;stroke-width:0.519999"
             d="m 73.798376,82.755191 c 0,0 1.223177,1.22318 1.367854,1.407314 0.144679,0.184134 1.157417,1.236329 1.157417,1.236329 0,0 0.460335,-0.394573 0.683927,-0.670774 0.223591,-0.276202 0.960127,-1.025891 1.052194,-1.117958 0.09207,-0.09207 0.434031,-0.407725 0.434031,-0.407725 0,0 -0.10522,-0.591863 -0.144677,-1.06535 -0.03946,-0.473488 -0.09207,-1.223177 -0.09207,-1.223177 l -4.761185,0.512945 z"
             id="path31081" /><path
             id="path31083"
             style="opacity:1;fill:#201f21;fill-opacity:1;stroke:none;stroke-width:0.519999"
             d="m 73.820312,81.660156 c 0.08307,0.614958 0.263122,1.179476 0.796876,1.544922 0.593557,0.590964 1.138568,1.22566 1.722656,1.826172 0.63739,-0.621528 1.193312,-1.32725 1.86914,-1.925781 -0.103661,-0.628232 -0.150697,-1.26352 -0.193359,-1.898438 -1.398437,0.151042 -2.796875,0.302084 -4.195313,0.453125 z" /></g><g
           id="g49842"
           style="display:inline"><path
             style="opacity:1;fill:#000000;fill-opacity:1;stroke:none;stroke-width:0.519999"
             d="m 72.20663,66.124309 c 0,0 -1.116023,0.837017 -1.48803,1.11602 -0.372007,0.279006 -1.023022,0.725416 -1.339228,1.078823 -0.316207,0.353406 -1.209022,1.376426 -1.432227,1.748435 -0.223205,0.372007 -1.078823,2.139043 -1.246225,2.56685 -0.167404,0.427807 -0.595212,1.878637 -0.706815,2.418048 -0.111602,0.539412 -0.502209,2.083242 -0.57661,2.54825 -0.0744,0.46501 -0.279005,1.041622 -0.260405,1.413629 0.0186,0.372007 0.148802,1.09742 0.353406,1.50663 0.204605,0.409207 0.818418,1.06022 1.116021,1.302025 0.297606,0.241806 1.209024,0.874218 1.562433,1.004419 0.353407,0.130204 1.581031,0.520812 1.934438,0.576612 0.353406,0.0558 1.376426,0.130202 2.139042,0.093 0.762614,-0.0372 2.008839,-0.0744 2.473849,-0.186002 0.465008,-0.111604 1.599631,-0.372009 1.860037,-0.483611 0.260405,-0.111601 0.837017,-0.334806 1.023019,-0.446407 0.186005,-0.111604 0.781217,-0.316206 0.781217,-0.316206 0,0 0.502208,0.260402 0.948618,0.390607 0.446408,0.130201 1.283425,0.390607 1.674032,0.483608 0.39061,0.093 1.134624,0.279005 1.43223,0.279005 0.297606,0 1.09742,0 1.283425,-0.0558 0.186004,-0.0558 0.706813,-0.297606 1.023019,-0.427808 0.316206,-0.130204 1.060222,-0.632412 1.302028,-0.855617 0.241802,-0.223205 0.781214,-0.855618 0.948618,-1.07882 0.167402,-0.223205 0.502209,-0.874218 0.539409,-1.190424 0.0372,-0.316206 -0.0744,-1.153224 -0.130202,-1.50663 -0.0558,-0.353407 -0.372006,-1.915837 -0.539411,-2.622653 C 86.714916,74.773479 86.231306,73.248249 86.0081,72.690238 85.784898,72.132226 85.412891,71.258011 85.152486,70.7744 84.89208,70.29079 84.389869,69.583976 84.073663,69.156169 83.757457,68.728359 83.273849,68.20755 82.901839,67.909944 82.529832,67.612339 81.91602,66.924123 81.413812,66.552116 c -0.502211,-0.372007 -1.48803,-0.985819 -1.48803,-0.985819 z"
             id="path48941"
             inkscape:label="path48941" /><path
             id="path48943"
             style="opacity:1;fill:#163a54;fill-opacity:1;stroke:none;stroke-width:0.519999"
             d="m 72.302734,66.382812 c -1.285562,0.99618 -2.71939,1.846036 -3.663964,3.209253 -0.841957,1.063973 -1.349737,2.339079 -1.849708,3.603247 -0.573879,1.869739 -1.014052,3.839822 -1.36914,5.798829 -0.0085,1.230171 0.781262,2.264782 1.769871,2.916076 1.63711,1.229059 3.781708,1.455486 5.767204,1.288423 1.752827,-6.6e-4 3.470788,-0.493955 5.031284,-1.265046 0.559496,-0.372163 1.06387,0.273858 1.638904,0.328709 1.577944,0.448266 3.377884,1.163731 4.935817,0.271004 1.227792,-0.586349 2.334015,-1.63161 2.72606,-2.959088 -0.114039,-2.05632 -0.632541,-4.08316 -1.263275,-6.038831 -0.71713,-2.236566 -1.923438,-4.368225 -3.769044,-5.860094 -0.725189,-0.731183 -1.57583,-1.422077 -2.49906,-1.832137 -2.484983,0.179885 -4.969966,0.35977 -7.454949,0.539655 z" /></g><g
           id="g42554"
           inkscape:label="g42554"
           transform="translate(-0.02797178,0.09301873)"><path
             style="opacity:1;fill:#000000;fill-opacity:1;stroke:none;stroke-width:0.519999"
             d="m 75.442433,70.076234 c 0,0 -0.184136,2.025478 -0.289356,2.788319 -0.105219,0.762841 -0.105219,0.762841 -0.105219,0.762841 0,0 -0.289354,2.972454 -0.341964,3.393332 -0.05261,0.420878 -0.210439,1.104805 -0.210439,1.104805 l 3.840515,-0.10522 c 0,0 -0.131525,-0.736536 -0.263049,-1.420463 -0.131524,-0.683927 -0.341963,-2.919844 -0.394573,-3.419636 -0.05261,-0.499793 -0.236744,-1.815039 -0.236744,-2.078088 0,-0.263049 -0.184134,-0.946976 -0.184134,-1.262634 0,-0.315659 -1.02589,-0.0263 -1.02589,-0.0263 z"
             id="path39444" /><path
             id="path39446"
             style="opacity:1;fill:#1e1e1e;fill-opacity:1;stroke:none;stroke-width:0.519999"
             d="m 76.777344,69.96875 c -0.535718,0.115955 -1.098487,0.05925 -1.143176,0.899998 -0.253841,2.21614 -0.468192,4.43867 -0.743213,6.651266 -0.11539,0.612543 0.842119,0.256199 1.232772,0.295804 0.631935,-0.01738 1.26387,-0.03476 1.895804,-0.05215 -0.523093,-2.583771 -0.593131,-5.207857 -1.015625,-7.800781 -0.07553,-0.01071 -0.151042,0.0036 -0.226562,0.0059 z"
             sodipodi:nodetypes="cccccccc" /><path
             style="opacity:1;fill:#000000;fill-opacity:1;stroke:none;stroke-width:0.519999"
             d="m 74.103867,67.110128 c 0.253174,0.898588 0.779905,1.890013 1.06022,2.58545 0.158101,0.288305 0.390609,0.613812 0.390609,0.613812 0,0 0.446408,-0.0372 0.539409,-0.0558 0.093,-0.0186 0.892818,-0.093 0.892818,-0.093 0,0 0.46501,-0.093 0.651012,-0.558009 0.186005,-0.465011 0.44641,-1.171826 0.465011,-1.320628 0.0186,-0.148804 -0.0186,-1.190424 -0.0186,-1.190424 z"
             id="path41579"
             sodipodi:nodetypes="cccscsscc" /><path
             id="path41581"
             style="opacity:1;fill:#212120;fill-opacity:1;stroke:none;stroke-width:0.519999"
             d="m 74.486328,67.371094 c 0.361207,0.899478 1.071909,2.600541 1.183594,2.660156 0.154811,0.0433 1.506398,-0.08135 1.659565,-0.407111 0.0676,-0.170256 0.612124,-1.619722 0.531519,-2.266717 -1.113932,0.0046 -2.260746,0.0091 -3.374678,0.01367 z"
             sodipodi:nodetypes="scccss" /></g><g
           id="g48491"><path
             style="opacity:1;fill:#212120;fill-opacity:1;stroke:none;stroke-width:0.519999"
             d="m 70.244289,66.561416 c 0,0 0.939319,1.52523 1.050922,1.720535 0.111602,0.195305 0.548709,1.134624 0.725414,1.43223 0.176705,0.297606 0.911418,1.757732 0.976519,1.841436 0.0651,0.0837 0.195305,0.455708 0.269705,0.492908 0.0744,0.0372 0.139505,0.0465 0.167405,-0.0186 0.0279,-0.0651 0.269706,-0.641712 0.334806,-0.837017 0.0651,-0.195302 0.409208,-0.939319 0.492908,-1.171821 0.0837,-0.232506 0.446411,-1.004422 0.539412,-1.218325 0.093,-0.213905 0.45571,-1.376428 0.45571,-1.376428 z"
             id="path42667" /><path
             id="path43494"
             style="opacity:1;fill:#ffffff;fill-opacity:1;stroke:none;stroke-width:0.519999"
             d="m 71.521484,68.142578 c 0.562195,1.175029 1.203663,2.310099 1.800782,3.466797 0.487479,-1.342739 1.185649,-2.602149 1.591796,-3.974609 -1.379557,-0.238282 -2.759114,-0.476563 -4.138671,-0.714844 0.248698,0.407552 0.497395,0.815104 0.746093,1.222656 z"
             inkscape:label="path43494" /><path
             style="opacity:1;fill:#000000;fill-opacity:1;stroke:none;stroke-width:0.519999"
             d="m 77.200828,67.100828 c 0,0 0.474308,0.995119 0.585912,1.264824 0.111601,0.269706 0.492908,1.246225 0.604512,1.49733 0.111601,0.251106 0.604512,1.49733 0.632412,1.590331 0.0279,0.093 0.158102,0.455711 0.223205,0.520811 0.0651,0.0651 0.213903,0.176702 0.269703,0.0651 0.0558,-0.111601 0.43711,-0.920718 0.539412,-1.08812 0.102301,-0.167405 0.651012,-1.181124 0.781216,-1.404329 0.130202,-0.223205 0.483608,-1.05092 0.651013,-1.348526 0.167402,-0.297606 0.799814,-1.608934 0.799814,-1.608934 z"
             id="path47690" /><path
             id="path48070"
             style="opacity:1;fill:#ffffff;fill-opacity:1;stroke:none;stroke-width:0.519999"
             d="m 77.601562,67.328125 c 0.667797,1.424925 1.221143,2.894469 1.791016,4.359375 0.827193,-1.589708 1.680318,-3.165904 2.449219,-4.787109 -1.413412,0.142578 -2.826823,0.285156 -4.240235,0.427734 z" /></g><g
           id="g36331"
           style="display:inline"><path
             style="display:inline;opacity:1;fill:#000000;fill-opacity:1;stroke-width:0.519999"
             d="m 70.830201,74.606075 c -0.02813,0.628572 -0.107267,1.233889 -0.249587,1.879996 -0.205708,0.933872 -0.351609,1.575366 -0.56163,2.405718 -0.05306,0.214652 -0.115279,0.332261 -0.171866,0.545684 0.0332,0.129364 0.25525,5.52e-4 0.333707,-0.0496 0.220101,-0.185477 0.256077,-0.482328 0.336407,-0.741019 0.115496,-0.403168 0.207249,-0.812471 0.290797,-1.223109 0.184909,-0.788604 0.201327,-1.589459 0.189584,-2.334062"
             id="path34977"
             sodipodi:nodetypes="cscccccc" /><path
             style="display:inline;opacity:1;mix-blend-mode:normal;fill:#000000;fill-opacity:1;stroke-width:0.519999;filter:url(#filter36419)"
             d="m 74.001563,78.223847 c 0.07693,-0.26903 0.24036,-0.561528 0.113664,-0.84102 -0.201062,-0.398613 -0.616678,-0.63935 -1.02905,-0.770333 -0.407502,-0.113954 -0.836228,-0.112405 -1.254594,-0.08745 -0.513858,0.03065 -1.038426,0.08353 -1.508422,0.309117 -0.186465,0.09384 -0.263504,0.34585 -0.142359,0.520815 0.01136,0.157329 -0.207674,0.22185 -0.327838,0.284604 -0.202596,0.07671 -0.376993,0.28371 -0.346862,0.509001 0.02002,0.163281 0.184404,0.286187 0.346877,0.258352 -0.252148,0.130521 -0.381478,0.462611 -0.299503,0.730481 0.117309,0.22458 0.404206,0.216117 0.622562,0.222773 0.333217,0.02425 0.689457,0.05198 0.993933,-0.114319 0.94473,-0.33827 1.887414,-0.682218 2.831592,-1.022021 z"
             id="path35290"
             sodipodi:nodetypes="cccsccccccccc" /><path
             style="opacity:1;mix-blend-mode:normal;fill:#f9e5d4;fill-opacity:1;stroke-width:0.519999;filter:url(#filter36423)"
             d="m 73.927162,78.298248 c -0.02423,-0.282358 0.09631,-0.589081 -0.05055,-0.852103 -0.31581,-0.510856 -0.963372,-0.668736 -1.538837,-0.702934 -0.669336,0.0018 -1.360653,0.03226 -1.922594,0.3077 -0.08121,0.18626 0.186242,0.285333 0.168459,0.459871 -0.179312,0.128576 -0.369078,0.174105 -0.541548,0.259685 -0.293073,0.145424 -0.437456,0.421615 -0.158411,0.461727 0.300901,0.04298 0.583284,-0.01019 0.42445,0.142733 -0.111905,0.159151 -0.372919,0.235333 -0.444826,0.432706 -0.112503,0.210502 0.193237,0.337186 0.378445,0.381774 0.250504,0.07123 0.539859,0.10869 0.796936,0.01927 0.906934,-0.201698 1.77981,-0.526216 2.656895,-0.827295 0.07724,-0.02757 0.154442,-0.0553 0.231576,-0.08313 z"
             id="path35292"
             sodipodi:nodetypes="sccccsccccccss" /><path
             style="opacity:1;mix-blend-mode:normal;fill:#000000;fill-opacity:1;stroke-width:0.519999;filter:url(#filter36415)"
             d="m 71.558439,76.991404 c 0.177772,-0.03523 0.373077,-0.06596 0.543168,0.01555 0.04681,0.01539 0.131407,0.09666 0.04254,0.114467 -0.06482,0.01489 -0.129087,-0.01273 -0.19396,-5.82e-4 -0.327924,0.02661 -0.633802,0.142378 -0.950421,0.227808 -0.154893,0.04542 -0.212225,0.116729 -0.493677,0.208889 -0.0826,-0.02572 -0.102247,-0.18839 -0.05297,-0.210294 0.36328,-0.172206 0.77606,-0.255686 1.105324,-0.355838 z"
             id="path36396"
             sodipodi:nodetypes="ccccccccc" /><path
             style="opacity:1;mix-blend-mode:normal;fill:#000000;fill-opacity:1;stroke-width:0.519999;filter:url(#filter36411)"
             d="m 70.337293,78.209898 c 0.23683,-0.09219 0.424159,-0.28087 0.659599,-0.383234 0.263723,-0.114661 0.519056,-0.234482 0.819454,-0.271419 0.07443,-0.02299 0.125838,-0.01378 0.147085,0.07308 -0.02638,0.05254 -0.08268,0.08373 -0.136583,0.08087 -0.348404,0.0926 -0.631483,0.172669 -0.910975,0.314397 -0.159459,0.06662 -0.537909,0.314802 -0.680285,0.429463 -0.04063,-2.1e-4 -0.176401,-0.134899 -0.136624,-0.150383 z"
             id="path36398"
             sodipodi:nodetypes="sscccccss" /></g><g
           id="g34106"
           style="display:inline"><path
             id="path31225"
             style="display:inline;opacity:1;fill:#183855;fill-opacity:1;stroke:none;stroke-width:0.519999"
             d="m 76.284233,77.152397 c -0.605012,0.05261 -1.525523,0.157764 -1.814877,0.236678 -0.289352,0.07891 -0.68433,0.184169 -1.026294,0.289388 -0.69227,0.193888 -1.308053,0.388928 -1.946134,0.710034 -0.49757,0.273363 -0.955396,0.620458 -1.39423,0.868164 -0.481729,0.284789 -0.893179,0.651792 -1.315165,1.025777 l -0.447518,1.28881 0.107487,1.05885 c 1.400061,0.594844 3.000449,0.695397 4.509285,0.568441 1.752825,-6.6e-4 3.47124,-0.493949 5.031734,-1.265039 0.205831,-0.136914 0.403824,-0.135557 0.600997,-0.077 0.07378,-0.04172 0.14765,-0.08363 0.220142,-0.127124 0.394575,-0.236744 0.894403,-0.552305 1.104842,-0.762744 0.210439,-0.210439 0.683513,-0.763095 0.867647,-0.947229 0.500486,-0.519979 0.824791,-1.145876 1.078487,-1.762166 0.131524,-0.315658 0.236678,-0.710551 0.236678,-0.710551 0,0 -0.604769,-0.289021 -1.499133,-0.367936 -0.894365,-0.07891 -1.52567,-0.05281 -1.893941,-0.10542 -0.832342,-0.09392 -1.768842,0.02124 -2.420007,0.07906 z"
             sodipodi:nodetypes="cscccccccccsscccscc" /><path
             id="path31235"
             style="display:inline;opacity:1;fill:#ffffff;fill-opacity:1;stroke-width:0.519999"
             d="m 76.934322,77.092455 c 0.211221,0.148366 0.436689,0.315766 0.555005,0.434082 0.470366,0.563114 0.949423,1.142941 1.190108,1.804024 0.122851,0.650085 0.191649,1.378925 0.09302,1.971456 -0.01859,0.105318 -0.05689,0.299434 -0.09819,0.505912 0.04538,-0.02593 0.09071,-0.05174 0.135392,-0.07855 0.394574,-0.236744 0.894403,-0.552305 1.104842,-0.762744 0.210439,-0.210439 0.683513,-0.763095 0.867647,-0.947229 0.500486,-0.519978 0.824792,-1.145877 1.078487,-1.762166 0.131524,-0.315658 0.111125,-0.757052 0.111125,-0.757052 0,0 -0.485793,-0.196486 -1.380156,-0.275401 -0.894364,-0.07891 -1.519094,-0.05281 -1.887365,-0.10542 -0.725581,-0.0041 -1.356739,-0.0016 -1.769915,-0.02691 z"
             sodipodi:nodetypes="cccccsscccscc" /><path
             id="path31230"
             style="display:inline;opacity:1;fill:#000000;fill-opacity:1;stroke-width:0.519999"
             d="m 76.284233,77.152397 c -0.964855,0.04563 -1.975553,0.261216 -2.841171,0.526066 -0.692269,0.193888 -1.308054,0.388928 -1.946134,0.710034 -0.49757,0.273363 -0.955397,0.620458 -1.39423,0.868164 -0.09892,0.05848 -0.190011,0.08356 -0.265105,0.185518 0.04324,0.259066 0.185943,0.1225 0.404128,-0.0129 1.240052,-0.885246 2.529276,-1.338439 3.875212,-1.745629 1.969747,-0.41246 3.801513,-0.407545 5.631171,-0.365875 0.780327,-0.01452 1.354758,0.175076 2.113597,0.326079 0.02915,-0.09771 0.08681,-0.09716 0.08681,-0.09716 0,0 -0.455967,-0.289021 -1.35033,-0.367936 -0.894364,-0.07891 -1.469869,-0.09001 -1.893941,-0.10542 -0.804281,-0.08338 -1.647014,0.0095 -2.420007,0.07906 z"
             sodipodi:nodetypes="ccccccccccscc" /><path
             id="path31935"
             style="opacity:1;fill:#000000;fill-opacity:1;stroke-width:0.519999"
             d="m 77.423698,77.056278 c -0.141053,0.0083 -0.279146,0.01872 -0.413412,0.02997 -0.0067,0.0245 -0.0063,0.0228 -0.01395,0.05064 0.19209,0.136664 0.386214,0.282861 0.492993,0.38964 0.470366,0.563113 0.949423,1.142942 1.190108,1.804024 0.122851,0.650085 0.191647,1.378926 0.09302,1.971456 -0.01859,0.105318 -0.05688,0.299435 -0.09819,0.505912 0.04538,-0.02593 0.09071,-0.05174 0.135392,-0.07855 0.05611,-0.03367 0.114399,-0.06909 0.173633,-0.10542 0.155808,-1.06324 0.290707,-2.168735 -0.568441,-3.380155 -0.211078,-0.343722 -0.553071,-0.820228 -0.991154,-1.187525 z" /><path
             id="path31940"
             style="opacity:1;fill:#f8e6cf;fill-opacity:1;stroke-width:0.519999"
             d="m 79.218937,77.108472 c 0.31643,0.237496 0.624824,0.507903 0.871265,0.773596 0.5017,0.380416 0.502632,1.057466 0.425297,1.623157 -0.0063,0.191906 -0.06072,0.539395 -0.07493,0.88625 0.136347,-0.15236 0.265249,-0.295737 0.341581,-0.37207 0.500486,-0.519978 0.824792,-1.145877 1.078487,-1.762166 0.131524,-0.315658 0.133716,-0.731407 0.133716,-0.731407 0,0 -0.501808,-0.268165 -1.396171,-0.34708 -0.564772,-0.04983 -1.024264,-0.05794 -1.379245,-0.07028 z"
             sodipodi:nodetypes="cccccccsc" /><path
             id="path32094"
             style="opacity:1;fill:#000000;fill-opacity:1;stroke-width:0.519999"
             d="m 79.218937,77.108472 c 0.31643,0.237495 0.624824,0.507903 0.871265,0.773596 0.487749,0.431566 0.43687,1.083771 0.425297,1.623157 -0.0063,0.191905 -0.06072,0.539396 -0.07493,0.88625 0.126627,-0.141499 0.246373,-0.274489 0.324011,-0.353983 0.01731,-0.180605 0.03101,-0.07 0.03101,-0.267684 0.101158,-0.666498 0.01038,-1.337365 -0.289237,-1.86787 -0.204198,-0.321248 -0.522967,-0.538216 -0.763411,-0.775896 -0.194129,-0.0076 -0.369518,-0.0122 -0.523999,-0.01757 z"
             sodipodi:nodetypes="cccccccccc" /><path
             id="path33335"
             style="opacity:1;fill:#000000;fill-opacity:1;stroke-width:0.519999"
             d="m 81.848756,77.447468 c -0.0013,0.148647 -0.01408,0.282175 -0.06305,0.469223 -0.09098,0.347521 -0.260477,0.706974 -0.409281,0.948779 -0.148802,0.241805 -0.316282,0.465122 -0.446484,0.651123 -0.130201,0.186005 -0.459978,0.503805 -0.776185,0.875812 -0.316205,0.372006 -0.516295,0.509667 -0.813901,0.732871 -0.2168,0.162599 -0.413106,0.228867 -0.599445,0.346754 -0.0189,0.09784 -0.04164,0.213375 -0.06615,0.335896 0.04538,-0.02593 0.09071,-0.05174 0.135392,-0.07855 0.394573,-0.236744 0.894403,-0.552305 1.104842,-0.762744 0.210439,-0.210439 0.683513,-0.763095 0.867647,-0.947229 0.500486,-0.519977 0.824793,-1.145878 1.078487,-1.762166 0.131524,-0.315658 0.143661,-0.766362 0.143661,-0.766362 -0.04345,0.007 -0.114539,-0.02739 -0.155534,-0.04341 z"
             sodipodi:nodetypes="csssssccsscccc" /><path
             id="path34341"
             style="display:inline;opacity:1;fill:#000000;fill-opacity:1;stroke:none;stroke-width:0.519999"
             d="m 79.155375,77.105888 0.119373,0.197404 c 0.566869,0.05567 1.073438,0.08784 1.653644,0.157591 0.393052,0.04725 0.647232,0.07494 1.03458,0.180891 0.02117,-0.07253 0.0367,-0.155541 0.0367,-0.155541 0,0 -0.507119,-0.22857 -1.401482,-0.307485 -0.600395,-0.05297 -1.079502,-0.05896 -1.442806,-0.07286 z"
             sodipodi:nodetypes="ccsccscc" /><path
             style="display:inline;opacity:1;fill:#000000;fill-opacity:1;stroke-width:0.519999"
             d="m 81.516113,77.451933 c 0.02374,-0.180703 0.04559,-0.337125 0.08823,-0.527684 0.07851,-0.345292 0.120718,-0.734761 0.18147,-1.071947 0.02311,-0.164687 0.06547,-0.271503 0.09251,-0.435516 0.01735,-0.09685 0.02526,-0.328113 0.07127,-0.237259 0.03538,0.209607 0.03158,0.361142 0.03068,0.4658 0.0025,0.526074 -0.0095,1.042591 0.0327,1.488675 0.008,0.158104 -0.0023,0.269306 -0.0097,0.397779 z"
             id="path34497"
             sodipodi:nodetypes="ccccccccc" /></g></g><g
         id="g15859"
         inkscape:label="Head"
         style="display:inline"><g
           id="g31077"
           style="display:inline"
           transform="matrix(-1,0,0,1,152.68584,0)"><g
             id="g31041"
             style="display:inline"><path
               style="opacity:1;fill:#000000;fill-opacity:1;stroke-width:0.519999"
               d="m 58.479557,80.8558 c -0.374334,0.179733 -0.776702,0.362243 -0.980434,0.749696 -0.461388,0.559016 -0.703992,1.3514 -0.419898,2.048169 0.17405,0.680336 0.418566,1.339869 0.756824,1.9563 0.773238,1.244507 1.153255,2.469067 1.536216,3.761062 0.139678,0.466386 0.0017,0.944019 -0.174957,1.378025 -0.09863,0.432611 0.500201,0.390132 0.602531,0.04142 0.429714,-0.448036 0.891543,-0.872813 1.202544,-1.417902 0.391101,-0.585195 0.757094,-1.189274 0.994007,-1.855582 0.328095,-0.884116 0.726112,-1.758491 0.861147,-2.698382 0.173844,-1.188664 -0.194059,-2.213922 -0.49686,-3.251342 -0.81813,-1.515078 -2.646751,-1.322311 -3.88112,-0.711464 z"
               id="path31035"
               sodipodi:nodetypes="cssccssssccc" /><path
               id="path31037"
               style="opacity:1;fill:#2d2d2d;fill-opacity:1;stroke-width:0.519999"
               d="m 60.052734,80.675781 c -1.119389,0.131511 -2.406888,0.630829 -2.741407,1.820457 -0.248984,0.97047 0.299856,1.934688 0.667543,2.810673 0.79825,1.365929 1.422212,2.864322 1.712536,4.419651 0.06121,0.331454 -0.218384,0.909644 -0.164062,1.015626 0.89921,-0.938485 1.70584,-2.001388 2.184717,-3.227616 0.625457,-1.505179 1.271434,-3.170424 0.703157,-4.802488 -0.146941,-0.855476 -0.555547,-1.795489 -1.506317,-1.972887 -0.277779,-0.07361 -0.570688,-0.08275 -0.856167,-0.06342 z" /><path
               id="path31039"
               style="display:inline;opacity:1;fill:#212120;fill-opacity:1;stroke-width:0.519999"
               d="m 60.267639,80.667428 c -0.06295,6.22e-4 -0.125559,0.0029 -0.188102,0.0067 -1.093094,0.15353 -1.253855,1.590687 -1.48053,2.374532 0.0025,0.851226 0.394762,1.632317 0.59893,2.446362 0.234717,1.050318 0.643094,2.07748 0.655774,3.165181 -0.02144,0.654467 -0.0901,1.30858 -0.206189,1.954403 0.235187,-0.250855 0.463083,-0.510622 0.679545,-0.779797 0.04133,-0.112262 0.08439,-0.223669 0.129708,-0.334347 0.334156,-0.903973 0.773913,-1.760311 1.188041,-2.627746 0.206697,-0.77174 0.533931,-1.542327 0.499711,-2.354895 0.02349,-1.201251 -0.397562,-2.860791 -1.385962,-3.792534 -0.103526,-0.02598 -0.201363,-0.04351 -0.294039,-0.05374 -0.06549,-0.0037 -0.131312,-0.0048 -0.196887,-0.0041 z" /></g><g
             id="g31049"
             style="display:inline"><path
               style="opacity:1;fill:#000000;fill-opacity:1;stroke-width:0.519999"
               d="m 58.340255,77.833014 c -0.778512,1.112578 -0.537363,2.27533 -0.110928,3.381044 0.162149,0.50323 0.465218,0.943218 0.735373,1.392706 0.22065,0.270535 0.433567,0.55554 0.699404,0.783764 0.238771,-0.01557 0.367103,-0.292616 0.532817,-0.442944 0.445145,-0.554849 0.992582,-1.210989 1.048882,-1.872411 0.05984,-0.430806 0.194215,-0.860942 0.129504,-1.299144 -0.07373,-0.863642 -0.225945,-1.762281 -0.900364,-2.283254 -0.83489,-0.450717 -1.54308,-0.252307 -2.134688,0.340239 z"
               id="path31043"
               sodipodi:nodetypes="ccccccccc" /><path
               id="path31045"
               style="opacity:1;fill:#2e2e2e;fill-opacity:1;stroke-width:0.519999"
               d="m 59.361328,77.533203 c -1.325796,0.319014 -1.472195,2.003375 -1.060196,3.076965 0.272231,0.915316 0.741787,1.78474 1.417618,2.464051 0.751416,-0.754771 1.371487,-1.693235 1.387092,-2.790891 0.0083,-0.938888 -0.05927,-2.215752 -1.021858,-2.677859 -0.233119,-0.07709 -0.478654,-0.116473 -0.722656,-0.07227 z" /><path
               id="path31047"
               style="display:inline;opacity:1;fill:#1e1e1e;fill-opacity:1;stroke-width:0.519999"
               d="m 59.590161,77.514648 c -0.05485,-8.01e-4 -0.109868,0.0026 -0.164848,0.0093 -0.09136,0.295131 -0.25491,0.800638 -0.436666,1.259355 -0.276198,0.69708 -0.197173,0.710252 -0.210323,0.960148 -0.01315,0.249896 0.02641,0.749293 0.05271,1.012341 0.02631,0.263049 0.170688,0.762963 0.249598,1.012858 0.07891,0.249897 0.236678,0.684196 0.236678,0.684196 l 0.106453,0.297657 c 0.09353,0.111961 0.191978,0.219868 0.295072,0.323494 0.178272,-0.179068 0.348745,-0.368505 0.505913,-0.567924 0.02011,-0.104504 0.0418,-0.210785 0.06615,-0.31626 0.07891,-0.341962 0.170863,-0.934129 0.210323,-1.381311 0.03946,-0.447182 -0.02641,-1.236168 -0.05271,-1.407149 -0.02631,-0.170982 -0.367904,-1.0524 -0.486276,-1.328601 -0.06561,-0.153082 -0.199237,-0.380511 -0.305924,-0.555005 -0.02209,-0.0014 -0.044,-0.0028 -0.06615,-0.0031 z" /></g><g
             id="g31057"
             style="display:inline"><path
               style="opacity:1;fill:#000000;fill-opacity:1;stroke-width:0.519999"
               d="m 59.372375,72.671637 c 0.565167,0.123745 1.211501,0.310952 1.507769,0.85593 0.389715,0.926449 0.455605,1.959439 0.356546,2.95092 -0.168311,0.91849 -0.514061,1.731717 -0.97918,2.543923 -0.51333,0.607481 -0.808517,0.594357 -1.115875,0.222193 -1.225404,-1.466606 -1.840455,-3.140231 -1.88049,-4.835462 0.01659,-0.601968 0.292207,-1.244408 0.836218,-1.545222 0.393152,-0.195403 0.846277,-0.194594 1.275012,-0.192282 z"
               id="path31051"
               sodipodi:nodetypes="cccccccc" /><path
               id="path31053"
               style="opacity:1;fill:#2c2c2c;fill-opacity:1;stroke-width:0.519999"
               d="m 59.0625,72.9375 c -1.02899,-0.14227 -1.725543,0.941323 -1.510123,1.871872 0.139278,1.632868 0.828149,3.274927 1.992545,4.425003 0.758806,-0.340534 0.935823,-1.333185 1.241926,-2.04226 0.361413,-1.188522 0.31768,-2.562975 -0.236067,-3.680396 C 60.182294,73.113826 59.590722,72.935473 59.0625,72.9375 Z" /><path
               id="path31055"
               style="display:inline;opacity:1;fill:#1d1d1d;fill-opacity:1;stroke-width:0.519999"
               d="m 59.643905,73.193465 c -0.03343,3.84e-4 -0.06798,0.0037 -0.103353,0.01085 -0.231088,0.05123 -0.612568,-0.04297 -0.691948,0.250631 -0.284995,0.781744 -0.486048,1.614594 -0.433048,2.452047 0.06731,0.560973 0.184475,1.118681 0.361735,1.655713 0.110117,0.390123 0.296366,0.749415 0.476457,1.110009 0.04957,0.138653 0.09927,0.277453 0.149344,0.415996 0.04656,0.04926 0.0934,0.09812 0.141594,0.145727 0.679523,-0.304954 0.892887,-1.132352 1.1498,-1.811259 -0.0031,-0.206324 -0.0069,-0.412591 -0.0072,-0.618567 0.0348,-0.624034 -0.175592,-1.221075 -0.271301,-1.829862 -0.01816,-0.47813 -0.19056,-0.92755 -0.347783,-1.37356 -0.01156,-0.252026 -0.190268,-0.410416 -0.424263,-0.407727 z" /></g><g
             id="g31065"><path
               style="opacity:1;fill:#000000;fill-opacity:1;stroke-width:0.519999"
               d="m 58.739963,66.142909 c -0.650236,0.117356 -1.101768,0.692848 -1.296162,1.292251 -1.101663,2.176638 -0.962165,3.965601 -0.169243,6.016543 0.285291,0.685003 0.750225,1.28508 1.281869,1.796781 0.237109,0.189986 0.61363,0.623753 0.868703,0.21797 0.331612,-0.442445 0.699594,-0.855672 0.994183,-1.326812 0.675811,-1.028526 1.214234,-2.104068 1.259937,-3.264036 0.08352,-0.746639 0.03553,-1.510722 -0.216691,-2.222451 -0.188844,-0.49279 -0.277448,-1.03433 -0.57965,-1.475935 -0.569163,-0.659871 -1.396568,-0.848716 -2.142946,-1.034311 z"
               id="path31059"
               sodipodi:nodetypes="cccccccccc" /><path
               id="path31061"
               style="opacity:1;fill:#303030;fill-opacity:1;stroke-width:0.519999"
               d="m 58.595703,66.457031 c -0.892919,0.425674 -1.063172,1.525021 -1.422143,2.350019 -0.564632,1.849898 -0.157424,3.961686 0.930529,5.538128 0.315871,0.367762 0.620574,0.795379 1.059973,1.018103 1.306212,-1.536924 2.490163,-3.42486 2.273082,-5.529585 -0.09754,-0.846605 -0.373919,-1.804314 -0.83598,-2.564563 -0.511986,-0.493641 -1.312621,-0.819722 -2.005461,-0.812102 z" /><path
               id="path31063"
               style="display:inline;opacity:1;fill:#212120;fill-opacity:1;stroke-width:0.519999"
               d="m 58.745251,66.460543 c -0.142899,0.346959 -0.405749,0.986735 -0.506429,1.248502 -0.131523,0.341963 -0.289388,0.867648 -0.289388,0.867648 0,0 -0.0788,0.237063 -0.210323,0.710551 -0.13153,0.473486 -0.157613,0.946732 -0.157613,1.499133 0,0.552402 0.05244,1.104646 0.183968,1.814876 0.131525,0.710232 0.421163,1.079004 0.421163,1.079004 l 0.236678,0.551904 c 0.08869,0.206948 0.254669,0.561887 0.427881,0.924492 0.09711,0.07923 0.200384,0.149804 0.312643,0.206706 0.205736,-0.242075 0.408907,-0.492927 0.60358,-0.751893 0.08102,-0.570643 0.314665,-0.98924 0.497128,-1.562695 0.184133,-0.578706 0.262767,-1.157619 0.394291,-1.736328 0.13152,-0.578706 0.105365,-1.236104 0.07906,-2.051554 C 60.720365,68.71747 60.353276,67.63839 60.063,66.868787 59.656861,66.634344 59.185665,66.484908 58.745251,66.460543 Z" /></g><g
             id="g31073"
             style="display:inline"
             inkscape:label="g19306"><path
               style="opacity:1;fill:#000000;fill-opacity:1;stroke-width:0.519999"
               d="m 58.609758,58.832964 c -1.22233,0.583741 -2.051414,1.765934 -2.476784,3.023013 -0.228544,0.543981 -0.201343,1.146231 -0.276505,1.720638 0.0025,0.699769 0.204224,1.381909 0.409301,2.044421 0.27331,0.628999 0.791425,1.102085 1.195837,1.642963 0.42384,0.445897 0.823415,0.929588 1.333248,1.280016 0.488872,0.257685 0.963513,-0.153992 1.256851,-0.513768 0.523915,-0.603974 0.913985,-1.318792 1.213948,-2.055928 0.272426,-0.795176 0.359753,-1.64496 0.265944,-2.479451 -0.01408,-0.715862 -0.07596,-1.446442 -0.390455,-2.10149 -0.399782,-0.869023 -0.908988,-1.745109 -1.71155,-2.299278 -0.244729,-0.15836 -0.534508,-0.224149 -0.819835,-0.261136 z"
               id="path31067" /><path
               id="path31069"
               style="opacity:1;fill:#2d2d2d;fill-opacity:1;stroke-width:0.519999"
               d="m 58.521484,59.175781 c -2.262273,1.327333 -3.088507,4.59748 -1.72367,6.832302 0.673021,0.835955 1.321072,1.76292 2.235389,2.341526 0.77454,-0.06811 1.13439,-0.96434 1.532989,-1.527899 0.921667,-1.467865 0.852681,-3.311073 0.482483,-4.936182 -0.45884,-1.084069 -1.055539,-2.414255 -2.286956,-2.760528 -0.09251,-0.05735 -0.162891,0.01506 -0.240235,0.05078 z" /><path
               id="path31071"
               style="opacity:1;fill:#1f1f1f;fill-opacity:1;stroke-width:0.385829"
               d="m 58.696159,59.103886 c -0.06245,-0.0022 -0.116659,0.04504 -0.174666,0.07183 -0.138812,0.08144 -0.272153,0.170232 -0.399976,0.265617 -0.758556,1.492488 -0.913509,4.168049 -0.575676,5.865275 0.408046,1.084581 0.912135,2.486867 1.494483,3.042192 0.09017,-0.0086 0.174634,-0.02866 0.254248,-0.05788 0.96852,-1.877384 1.410068,-4.571403 1.095024,-6.376872 -0.213473,-0.620464 -0.525699,-1.752525 -0.973068,-2.480468 -0.196474,-0.134381 -0.41316,-0.240577 -0.65474,-0.308509 -0.02313,-0.01434 -0.04481,-0.02047 -0.06563,-0.02119 z"
               sodipodi:nodetypes="sccccccccss" /></g><path
             style="opacity:1;fill:#000000;fill-opacity:1;stroke-width:0.519999"
             d="m 58.219151,58.219151 c -0.203211,1.794756 -0.319048,3.663149 0.419992,5.36104 0.761382,1.903357 0.489099,4.019789 0.127317,5.979645 -0.303085,1.488224 0.782466,2.821569 0.489964,4.313051 -0.501383,1.229195 -0.401111,2.540675 0.0358,3.780266 0.414869,1.00961 0.139129,2.101279 0.31327,3.138772 0.212348,0.516795 -0.102549,2.319386 0.137704,2.125503 0.377864,-1.227278 -0.05593,-2.482644 0.118328,-3.719453 0.254853,-1.400026 -0.864624,-2.654396 -0.545734,-4.068261 0.491143,-1.480335 0.255339,-3.066585 -0.166414,-4.52935 -0.09921,-1.855795 0.693485,-3.679875 0.260306,-5.537651 -0.301174,-1.696045 -1.354073,-3.301553 -1.007448,-5.084807 0.113405,-0.606167 0.05052,-1.190681 -0.183081,-1.758755 z"
             id="path31075" /></g><g
           id="g20981"
           style="display:inline"><g
             id="g29319"
             style="display:inline"><path
               style="opacity:1;fill:#000000;fill-opacity:1;stroke-width:0.519999"
               d="m 58.479557,80.8558 c -0.374334,0.179733 -0.776702,0.362243 -0.980434,0.749696 -0.461388,0.559016 -0.703992,1.3514 -0.419898,2.048169 0.17405,0.680336 0.418566,1.339869 0.756824,1.9563 0.773238,1.244507 1.153255,2.469067 1.536216,3.761062 0.139678,0.466386 0.0017,0.944019 -0.174957,1.378025 -0.09863,0.432611 0.500201,0.390132 0.602531,0.04142 0.429714,-0.448036 0.891543,-0.872813 1.202544,-1.417902 0.391101,-0.585195 0.757094,-1.189274 0.994007,-1.855582 0.328095,-0.884116 0.726112,-1.758491 0.861147,-2.698382 0.173844,-1.188664 -0.194059,-2.213922 -0.49686,-3.251342 -0.81813,-1.515078 -2.646751,-1.322311 -3.88112,-0.711464 z"
               id="path29095"
               sodipodi:nodetypes="cssccssssccc" /><path
               id="path29097"
               style="opacity:1;fill:#2d2d2d;fill-opacity:1;stroke-width:0.519999"
               d="m 60.052734,80.675781 c -1.119389,0.131511 -2.406888,0.630829 -2.741407,1.820457 -0.248984,0.97047 0.299856,1.934688 0.667543,2.810673 0.79825,1.365929 1.422212,2.864322 1.712536,4.419651 0.06121,0.331454 -0.218384,0.909644 -0.164062,1.015626 0.89921,-0.938485 1.70584,-2.001388 2.184717,-3.227616 0.625457,-1.505179 1.271434,-3.170424 0.703157,-4.802488 -0.146941,-0.855476 -0.555547,-1.795489 -1.506317,-1.972887 -0.277779,-0.07361 -0.570688,-0.08275 -0.856167,-0.06342 z" /><path
               id="path29315"
               style="display:inline;opacity:1;fill:#212120;fill-opacity:1;stroke-width:0.519999"
               d="m 60.267639,80.667428 c -0.06295,6.22e-4 -0.125559,0.0029 -0.188102,0.0067 -1.093094,0.15353 -1.253855,1.590687 -1.48053,2.374532 0.0025,0.851226 0.394762,1.632317 0.59893,2.446362 0.234717,1.050318 0.643094,2.07748 0.655774,3.165181 -0.02144,0.654467 -0.0901,1.30858 -0.206189,1.954403 0.235187,-0.250855 0.463083,-0.510622 0.679545,-0.779797 0.04133,-0.112262 0.08439,-0.223669 0.129708,-0.334347 0.334156,-0.903973 0.773913,-1.760311 1.188041,-2.627746 0.206697,-0.77174 0.533931,-1.542327 0.499711,-2.354895 0.02349,-1.201251 -0.397562,-2.860791 -1.385962,-3.792534 -0.103526,-0.02598 -0.201363,-0.04351 -0.294039,-0.05374 -0.06549,-0.0037 -0.131312,-0.0048 -0.196887,-0.0041 z" /></g><g
             id="g27521"
             style="display:inline"><path
               style="opacity:1;fill:#000000;fill-opacity:1;stroke-width:0.519999"
               d="m 58.340255,77.833014 c -0.778512,1.112578 -0.537363,2.27533 -0.110928,3.381044 0.162149,0.50323 0.465218,0.943218 0.735373,1.392706 0.22065,0.270535 0.433567,0.55554 0.699404,0.783764 0.238771,-0.01557 0.367103,-0.292616 0.532817,-0.442944 0.445145,-0.554849 0.992582,-1.210989 1.048882,-1.872411 0.05984,-0.430806 0.194215,-0.860942 0.129504,-1.299144 -0.07373,-0.863642 -0.225945,-1.762281 -0.900364,-2.283254 -0.83489,-0.450717 -1.54308,-0.252307 -2.134688,0.340239 z"
               id="path25986"
               sodipodi:nodetypes="ccccccccc" /><path
               id="path25988"
               style="opacity:1;fill:#2e2e2e;fill-opacity:1;stroke-width:0.519999"
               d="m 59.361328,77.533203 c -1.325796,0.319014 -1.472195,2.003375 -1.060196,3.076965 0.272231,0.915316 0.741787,1.78474 1.417618,2.464051 0.751416,-0.754771 1.371487,-1.693235 1.387092,-2.790891 0.0083,-0.938888 -0.05927,-2.215752 -1.021858,-2.677859 -0.233119,-0.07709 -0.478654,-0.116473 -0.722656,-0.07227 z" /><path
               id="path27517"
               style="display:inline;opacity:1;fill:#1e1e1e;fill-opacity:1;stroke-width:0.519999"
               d="m 59.590161,77.514648 c -0.05485,-8.01e-4 -0.109868,0.0026 -0.164848,0.0093 -0.09136,0.295131 -0.25491,0.800638 -0.436666,1.259355 -0.276198,0.69708 -0.197173,0.710252 -0.210323,0.960148 -0.01315,0.249896 0.02641,0.749293 0.05271,1.012341 0.02631,0.263049 0.170688,0.762963 0.249598,1.012858 0.07891,0.249897 0.236678,0.684196 0.236678,0.684196 l 0.106453,0.297657 c 0.09353,0.111961 0.191978,0.219868 0.295072,0.323494 0.178272,-0.179068 0.348745,-0.368505 0.505913,-0.567924 0.02011,-0.104504 0.0418,-0.210785 0.06615,-0.31626 0.07891,-0.341962 0.170863,-0.934129 0.210323,-1.381311 0.03946,-0.447182 -0.02641,-1.236168 -0.05271,-1.407149 -0.02631,-0.170982 -0.367904,-1.0524 -0.486276,-1.328601 -0.06561,-0.153082 -0.199237,-0.380511 -0.305924,-0.555005 -0.02209,-0.0014 -0.044,-0.0028 -0.06615,-0.0031 z" /></g><g
             id="g24915"
             style="display:inline"><path
               style="opacity:1;fill:#000000;fill-opacity:1;stroke-width:0.519999"
               d="m 59.372375,72.671637 c 0.565167,0.123745 1.211501,0.310952 1.507769,0.85593 0.389715,0.926449 0.455605,1.959439 0.356546,2.95092 -0.168311,0.91849 -0.514061,1.731717 -0.97918,2.543923 -0.51333,0.607481 -0.808517,0.594357 -1.115875,0.222193 -1.225404,-1.466606 -1.840455,-3.140231 -1.88049,-4.835462 0.01659,-0.601968 0.292207,-1.244408 0.836218,-1.545222 0.393152,-0.195403 0.846277,-0.194594 1.275012,-0.192282 z"
               id="path24285"
               sodipodi:nodetypes="cccccccc" /><path
               id="path24287"
               style="opacity:1;fill:#2c2c2c;fill-opacity:1;stroke-width:0.519999"
               d="m 59.0625,72.9375 c -1.02899,-0.14227 -1.725543,0.941323 -1.510123,1.871872 0.139278,1.632868 0.828149,3.274927 1.992545,4.425003 0.758806,-0.340534 0.935823,-1.333185 1.241926,-2.04226 0.361413,-1.188522 0.31768,-2.562975 -0.236067,-3.680396 C 60.182294,73.113826 59.590722,72.935473 59.0625,72.9375 Z" /><path
               id="path24911"
               style="display:inline;opacity:1;fill:#1d1d1d;fill-opacity:1;stroke-width:0.519999"
               d="m 59.643905,73.193465 c -0.03343,3.84e-4 -0.06798,0.0037 -0.103353,0.01085 -0.231088,0.05123 -0.612568,-0.04297 -0.691948,0.250631 -0.284995,0.781744 -0.486048,1.614594 -0.433048,2.452047 0.06731,0.560973 0.184475,1.118681 0.361735,1.655713 0.110117,0.390123 0.296366,0.749415 0.476457,1.110009 0.04957,0.138653 0.09927,0.277453 0.149344,0.415996 0.04656,0.04926 0.0934,0.09812 0.141594,0.145727 0.679523,-0.304954 0.892887,-1.132352 1.1498,-1.811259 -0.0031,-0.206324 -0.0069,-0.412591 -0.0072,-0.618567 0.0348,-0.624034 -0.175592,-1.221075 -0.271301,-1.829862 -0.01816,-0.47813 -0.19056,-0.92755 -0.347783,-1.37356 -0.01156,-0.252026 -0.190268,-0.410416 -0.424263,-0.407727 z" /></g><g
             id="g21477"><path
               style="opacity:1;fill:#000000;fill-opacity:1;stroke-width:0.519999"
               d="m 58.739963,66.142909 c -0.650236,0.117356 -1.101768,0.692848 -1.296162,1.292251 -1.101663,2.176638 -0.962165,3.965601 -0.169243,6.016543 0.285291,0.685003 0.750225,1.28508 1.281869,1.796781 0.237109,0.189986 0.61363,0.623753 0.868703,0.21797 0.331612,-0.442445 0.699594,-0.855672 0.994183,-1.326812 0.675811,-1.028526 1.214234,-2.104068 1.259937,-3.264036 0.08352,-0.746639 0.03553,-1.510722 -0.216691,-2.222451 -0.188844,-0.49279 -0.277448,-1.03433 -0.57965,-1.475935 -0.569163,-0.659871 -1.396568,-0.848716 -2.142946,-1.034311 z"
               id="path21046"
               sodipodi:nodetypes="cccccccccc" /><path
               id="path21048"
               style="opacity:1;fill:#303030;fill-opacity:1;stroke-width:0.519999"
               d="m 58.595703,66.457031 c -0.892919,0.425674 -1.063172,1.525021 -1.422143,2.350019 -0.564632,1.849898 -0.157424,3.961686 0.930529,5.538128 0.315871,0.367762 0.620574,0.795379 1.059973,1.018103 1.306212,-1.536924 2.490163,-3.42486 2.273082,-5.529585 -0.09754,-0.846605 -0.373919,-1.804314 -0.83598,-2.564563 -0.511986,-0.493641 -1.312621,-0.819722 -2.005461,-0.812102 z" /><path
               id="path21473"
               style="display:inline;opacity:1;fill:#212120;fill-opacity:1;stroke-width:0.519999"
               d="m 58.745251,66.460543 c -0.142899,0.346959 -0.405749,0.986735 -0.506429,1.248502 -0.131523,0.341963 -0.289388,0.867648 -0.289388,0.867648 0,0 -0.0788,0.237063 -0.210323,0.710551 -0.13153,0.473486 -0.157613,0.946732 -0.157613,1.499133 0,0.552402 0.05244,1.104646 0.183968,1.814876 0.131525,0.710232 0.421163,1.079004 0.421163,1.079004 l 0.236678,0.551904 c 0.08869,0.206948 0.254669,0.561887 0.427881,0.924492 0.09711,0.07923 0.200384,0.149804 0.312643,0.206706 0.205736,-0.242075 0.408907,-0.492927 0.60358,-0.751893 0.08102,-0.570643 0.314665,-0.98924 0.497128,-1.562695 0.184133,-0.578706 0.262767,-1.157619 0.394291,-1.736328 0.13152,-0.578706 0.105365,-1.236104 0.07906,-2.051554 C 60.720365,68.71747 60.353276,67.63839 60.063,66.868787 59.656861,66.634344 59.185665,66.484908 58.745251,66.460543 Z" /></g><g
             id="g19306"
             style="display:inline"
             inkscape:label="g19306"><path
               style="opacity:1;fill:#000000;fill-opacity:1;stroke-width:0.519999"
               d="m 58.609758,58.832964 c -1.22233,0.583741 -2.051414,1.765934 -2.476784,3.023013 -0.228544,0.543981 -0.201343,1.146231 -0.276505,1.720638 0.0025,0.699769 0.204224,1.381909 0.409301,2.044421 0.27331,0.628999 0.791425,1.102085 1.195837,1.642963 0.42384,0.445897 0.823415,0.929588 1.333248,1.280016 0.488872,0.257685 0.963513,-0.153992 1.256851,-0.513768 0.523915,-0.603974 0.913985,-1.318792 1.213948,-2.055928 0.272426,-0.795176 0.359753,-1.64496 0.265944,-2.479451 -0.01408,-0.715862 -0.07596,-1.446442 -0.390455,-2.10149 -0.399782,-0.869023 -0.908988,-1.745109 -1.71155,-2.299278 -0.244729,-0.15836 -0.534508,-0.224149 -0.819835,-0.261136 z"
               id="path16680" /><path
               id="path16682"
               style="opacity:1;fill:#2d2d2d;fill-opacity:1;stroke-width:0.519999"
               d="m 58.521484,59.175781 c -2.262273,1.327333 -3.088507,4.59748 -1.72367,6.832302 0.673021,0.835955 1.321072,1.76292 2.235389,2.341526 0.77454,-0.06811 1.13439,-0.96434 1.532989,-1.527899 0.921667,-1.467865 0.852681,-3.311073 0.482483,-4.936182 -0.45884,-1.084069 -1.055539,-2.414255 -2.286956,-2.760528 -0.09251,-0.05735 -0.162891,0.01506 -0.240235,0.05078 z" /><path
               id="path20696"
               style="opacity:1;fill:#1f1f1f;fill-opacity:1;stroke-width:0.385829"
               d="m 58.696159,59.103886 c -0.06245,-0.0022 -0.116659,0.04504 -0.174666,0.07183 -0.138812,0.08144 -0.272153,0.170232 -0.399976,0.265617 -0.758556,1.492488 -0.913509,4.168049 -0.575676,5.865275 0.408046,1.084581 0.912135,2.486867 1.494483,3.042192 0.09017,-0.0086 0.174634,-0.02866 0.254248,-0.05788 0.96852,-1.877384 1.410068,-4.571403 1.095024,-6.376872 -0.213473,-0.620464 -0.525699,-1.752525 -0.973068,-2.480468 -0.196474,-0.134381 -0.41316,-0.240577 -0.65474,-0.308509 -0.02313,-0.01434 -0.04481,-0.02047 -0.06563,-0.02119 z"
               sodipodi:nodetypes="sccccccccss" /></g><path
             style="opacity:1;fill:#000000;fill-opacity:1;stroke-width:0.519999"
             d="m 58.219151,58.219151 c -0.203211,1.794756 -0.319048,3.663149 0.419992,5.36104 0.761382,1.903357 0.489099,4.019789 0.127317,5.979645 -0.303085,1.488224 0.782466,2.821569 0.489964,4.313051 -0.501383,1.229195 -0.401111,2.540675 0.0358,3.780266 0.414869,1.00961 0.139129,2.101279 0.31327,3.138772 0.212348,0.516795 -0.102549,2.319386 0.137704,2.125503 0.377864,-1.227278 -0.05593,-2.482644 0.118328,-3.719453 0.254853,-1.400026 -0.864624,-2.654396 -0.545734,-4.068261 0.491143,-1.480335 0.255339,-3.066585 -0.166414,-4.52935 -0.09921,-1.855795 0.693485,-3.679875 0.260306,-5.537651 -0.301174,-1.696045 -1.354073,-3.301553 -1.007448,-5.084807 0.113405,-0.606167 0.05052,-1.190681 -0.183081,-1.758755 z"
             id="path29813" /></g><g
           id="g50452"
           style="display:inline"><path
             style="opacity:1;fill:#000000;fill-opacity:1;stroke:none;stroke-width:0.519999"
             d="m 57.995946,47.654143 c 0.124087,2.948897 -0.0019,5.983744 1.072002,8.787157 0.618848,2.309152 1.835306,4.453287 3.353797,6.282265 1.996924,2.331807 4.743142,3.972667 7.728744,4.670655 2.466123,0.627808 5.04791,1.059472 7.594544,0.854745 3.490786,-0.507408 7.106922,-1.224979 10.076751,-3.228907 2.868143,-2.128142 4.804056,-5.247854 6.001378,-8.570848 0.763311,-1.843538 0.347338,-3.899987 0.432507,-5.843579 -0.08727,-1.587844 0.08572,-3.264737 -0.213726,-4.791358 -1.276612,-1.826265 -2.480313,-3.726613 -3.802366,-5.506706 -3.208527,-2.114432 -6.417055,-4.228864 -9.625582,-6.343296 -6.001719,1.364028 -12.003438,2.728055 -18.005157,4.092083 -1.636833,1.785635 -3.273665,3.57127 -4.910498,5.356905 0.0992,1.413628 0.198404,2.827256 0.297606,4.240884 z"
             id="path49899" /><path
             id="path49901"
             style="opacity:1;fill:#fee5d1;fill-opacity:1;stroke:none;stroke-width:0.519999"
             d="m 62.75,38.294922 c -1.593099,1.738281 -3.186198,3.476562 -4.779297,5.214844 0.243405,2.751689 0.323652,5.511231 0.450293,8.269145 0.09007,2.298807 0.770288,4.519432 1.627423,6.635776 1.529517,3.540172 4.341193,6.58049 7.961844,8.014907 2.570912,0.961562 5.287764,1.487445 8.035436,1.59901 2.27796,0.04381 4.532464,-0.501036 6.707821,-1.046191 2.574951,-0.703124 5.132379,-1.921729 6.924772,-3.992229 1.971157,-2.162255 3.393371,-4.815096 4.200614,-7.642528 0.294206,-1.781558 0.05588,-3.699382 0.08986,-5.539834 -0.04846,-1.31955 0.114286,-2.698154 -0.236197,-3.974316 C 92.470329,44.046331 91.32843,42.153809 89.971177,40.446944 86.8343,38.380645 83.697424,36.314346 80.560547,34.248047 74.623698,35.597005 68.686849,36.945964 62.75,38.294922 Z" /><path
             style="display:inline;opacity:1;fill:#edd0b4;fill-opacity:1;stroke-width:0.519999"
             d="m 56.55552,51.768028 c 0,0 2.314829,0.157829 3.156585,0 0.841759,-0.15783 0.57871,0.05261 2.051783,-0.420878 1.473073,-0.473488 3.314417,-2.05178 3.314417,-2.05178 0,0 1.210024,-0.736537 1.893951,-1.052198 0.683929,-0.315659 1.683515,-0.789146 2.420051,-1.104805 0.736536,-0.315658 1.315244,-0.578707 1.893951,-0.894366 0.57871,-0.315658 0.57871,-0.315658 0.57871,-0.315658 0,0 0.526097,-0.157829 0.789146,-0.526098 0.263049,-0.368268 1.104805,-1.104807 1.104805,-1.104807 0,0 0.157829,0.315661 -0.10522,0.894368 -0.263048,0.578708 -0.263048,0.683927 -0.736536,1.315244 -0.473488,0.631317 -1.315244,1.420463 -1.315244,1.420463 0,0 0.420878,0.368271 1.262634,0.420881 0.841756,0.05261 1.841341,-0.05261 2.472661,-0.263051 0.631317,-0.210439 1.525683,-0.789147 1.99917,-1.157415 0.473488,-0.368268 1.104805,-0.999585 1.210025,-1.210024 0.105219,-0.210439 0.57871,-1.104805 0.57871,-1.104805 0,0 0.263048,0.526098 0.631317,1.104805 0.368268,0.578707 0.999585,1.630902 1.473073,2.10439 0.473487,0.47349 1.262634,0.789149 1.893953,1.210027 0.631317,0.420878 2.20961,0.946975 2.998756,1.157414 0.789149,0.210439 2.63049,0.526098 3.367026,0.841756 0.736537,0.315659 1.525686,0.473488 2.209613,0.683927 0.683926,0.210439 2.367438,0.368268 3.156587,0.63132 0.789146,0.263048 1.104805,-4.577054 1.104805,-4.577054 L 89.120976,34.880288 71.970187,32.460237 60.553864,39.878216 Z"
             id="path16166" /></g><g
           id="g56487"
           style="display:inline"><path
             id="path55780"
             style="opacity:1;fill:#eddacc;fill-opacity:1;stroke:none;stroke-width:0.519999;filter:url(#filter56476)"
             d="m 77.119141,61.185547 c -0.379888,-0.0354 -0.670497,0.286897 -0.935547,0.443359 -0.664676,-0.745504 -1.876381,-0.384258 -2.508753,0.235721 -0.466968,0.4405 -1.116142,1.008803 -1.036169,1.707639 0.278887,0.636671 0.851065,-0.317992 1.011093,0.382814 0.788227,1.279259 2.54527,1.939336 3.918594,1.197264 0.697582,-0.270748 1.175023,-0.941862 1.566407,-1.494141 0.432284,0.258301 0.828569,-0.05635 0.621385,-0.524775 -0.456465,-1.050316 -1.456074,-1.906733 -2.63701,-1.947881 z" /><path
             style="opacity:1;fill:#000000;fill-opacity:1;stroke:none;stroke-width:0.519999"
             d="m 74.8703,64.782375 c 0.265744,0.178889 0.627584,0.30559 0.878133,0.370232 0.346959,0.06927 0.629315,0.05998 0.940394,0.01264 0.342207,-0.08216 0.68579,-0.180881 0.984855,-0.372314 0.209748,-0.107884 0.417456,-0.229211 0.561281,-0.4216 0.270551,-0.310445 0.575761,-0.61502 0.706019,-1.016002 -0.0098,-0.220206 -0.200833,-0.382928 -0.326493,-0.550714 -0.05961,-0.116142 -0.165746,-0.14634 -0.285355,-0.148471 -0.604443,-0.07474 -1.208362,-0.158757 -1.813132,-0.227711 -0.613646,0.01116 -1.228926,0.01253 -1.841553,0.02979 l -1.112817,0.36443 c -0.198669,0.18544 -0.09261,0.444493 0.05785,0.619192 0.17862,0.270594 0.36254,0.52991 0.5587,0.788038 0.224357,0.209158 0.473418,0.407966 0.692118,0.55249 z"
             id="path54739"
             sodipodi:nodetypes="cccccccccccccc" /><path
             id="path54741"
             style="opacity:1;fill:#b08684;fill-opacity:1;stroke:none;stroke-width:0.519999"
             d="m 74.722656,62.722656 c -0.196217,0.216626 -1.242472,0.09006 -0.910086,0.531584 0.603863,1.193363 2.081242,2.114159 3.397274,1.475725 0.643616,-0.252643 1.190149,-0.798956 1.450312,-1.423324 -0.26161,-0.675613 -1.104106,-0.36668 -1.653069,-0.551298 -0.754338,-0.12564 -1.523604,-0.01935 -2.284431,-0.03269 z" /><path
             style="opacity:1;fill:#000000;fill-opacity:1;stroke:none;stroke-width:0.519999"
             d="m 75.089686,61.483517 c 0.220264,0.01239 0.447809,0.0041 0.65203,0.101719 0.209261,0.09052 0.315594,0.454455 0.570944,0.307488 0.215719,-0.119049 0.342334,-0.361198 0.598156,-0.411408 0.29985,-0.09033 0.612145,0.03089 0.90383,0.101017 0.378367,0.118888 0.681886,0.384533 0.996796,0.613511 0.192657,0.184014 0.31823,0.425865 0.480511,0.635908 0.112156,0.175482 0.315916,0.442609 0.224619,0.632703 -0.284769,0.02308 -0.501147,-0.210898 -0.781214,-0.232504 -0.363998,-0.09678 -0.741991,-0.165715 -1.119317,-0.151481 -0.290573,0.07724 -0.580938,0.158439 -0.876684,0.217155 -0.219152,0.115628 -0.458243,0.21155 -0.694229,0.06854 -0.306034,-0.105697 -0.617763,-0.189743 -0.938313,-0.237255 -0.471057,-0.104407 -0.93755,0.08464 -1.409069,0.0886 -0.255121,0.03304 -0.450486,0.223226 -0.668197,0.335294 -0.322071,-0.07787 -0.07075,-0.392541 0.01529,-0.566909 0.171954,-0.308584 0.417395,-0.572427 0.669149,-0.817365 0.244504,-0.175114 0.470493,-0.381414 0.73644,-0.523815 0.19538,-0.126791 0.42578,-0.1117 0.63926,-0.161198 z"
             id="path53360"
             sodipodi:nodetypes="scccccccccccccccccss" /><path
             id="path53362"
             style="opacity:1;fill:#b96c6e;fill-opacity:1;stroke:none;stroke-width:0.519999"
             d="m 77.066406,61.71875 c -0.401565,0.123138 -0.824538,0.78799 -1.25,0.289062 -0.547359,-0.583868 -1.458623,-0.100347 -1.929687,0.361329 -0.195572,0.215705 -0.910485,0.894393 -0.259766,0.59375 0.882976,-0.166436 1.803836,-0.176072 2.638672,0.207031 0.810025,-0.264529 1.687111,-0.50892 2.533203,-0.195313 0.518276,0.220928 0.197133,-0.102564 -0.0126,-0.400707 -0.425892,-0.48177 -1.060673,-0.860228 -1.719827,-0.855152 z" /></g><g
           id="g8269"
           style="display:inline"><path
             style="opacity:1;mix-blend-mode:normal;fill:#e8d3b9;fill-opacity:1;stroke:none;stroke-width:0.519999;filter:url(#filter53292)"
             d="m 76.362807,58.321349 c 0.298944,0.0093 0.610293,-0.03272 0.861717,-0.206741 0.38384,-0.218474 0.7662,-0.510256 0.938355,-0.92995 0.03468,-0.219825 0.145807,-0.488649 0.41292,-0.472466 0.296263,-0.04583 0.35438,0.289006 0.296373,0.507471 -0.101452,0.560653 -0.447847,1.045801 -0.842367,1.442916 -0.338192,0.328053 -0.783202,0.559859 -1.257286,0.594151 -0.344141,0.06749 -0.70242,0.05542 -1.037341,-0.05145 -0.324275,-0.07339 -0.648495,-0.187932 -0.89907,-0.414513 -0.284678,-0.20753 -0.528683,-0.475288 -0.668129,-0.801903 -0.111836,-0.247575 -0.209997,-0.505044 -0.269572,-0.769904 -0.04852,-0.224329 0.08711,-0.455389 0.31836,-0.496221 0.286324,-0.09396 0.309333,0.267912 0.419072,0.437051 0.171235,0.35312 0.439595,0.649785 0.760886,0.872659 0.265752,0.23052 0.660244,0.302914 0.966082,0.2889 z"
             id="path50454"
             sodipodi:nodetypes="ccccccccccccccc" /><path
             id="path52319"
             style="opacity:1;fill:#000000;fill-opacity:1;stroke:none;stroke-width:0.527034;filter:url(#filter53296)"
             d="m 78.435796,57.013456 c -0.326121,1.036869 -1.307896,1.642919 -2.395491,1.456172 -0.42733,-0.04761 -0.81508,-0.243465 -1.101559,-0.541028 -0.571396,-0.593504 -0.551134,-1.006378 -0.704371,-0.935986 -0.302641,0.138143 0.106006,0.958104 0.306154,1.263659 0.874083,1.259395 2.902917,0.931511 3.772057,-0.132841 0.177912,-0.269221 0.395756,-0.876869 0.289174,-1.160022 -0.131524,-0.118372 -0.165964,0.05005 -0.165964,0.05005 z"
             sodipodi:nodetypes="ccsccccc" /><path
             id="path57346"
             style="opacity:1;fill:#eddacc;fill-opacity:1;stroke:none;stroke-width:0.499324;filter:url(#filter4411)"
             d="m 76.203915,54.204436 c -0.807333,0.0821 -1.541794,0.708845 -1.776825,1.396791 -0.08421,0.482488 0.394408,0.612582 0.773779,0.190442 0.476263,-0.64199 1.42372,-1.072802 2.066958,-0.437387 0.244258,0.23486 0.678116,1.036571 1.027219,0.546441 0.197404,-1.035452 -0.929021,-1.800356 -2.091131,-1.696287 z"
             sodipodi:nodetypes="cccccc" /><path
             style="opacity:1;fill:#201107;fill-opacity:1;stroke:none;stroke-width:0.519999"
             d="m 75.161564,54.891599 c 0.340431,-0.350356 0.853589,-0.513581 1.381988,-0.493393 0.348443,0.01238 0.692883,0.128928 0.966457,0.347313 0.180994,0.141658 0.351449,0.307853 0.464162,0.50978 0.05292,0.12423 0.09988,0.252074 0.138794,0.381 0.05012,0.08763 -5.29e-4,0.346032 -0.115365,0.187686 -0.15414,-0.175058 -0.261303,-0.389681 -0.442168,-0.541925 -0.28217,-0.300282 -0.635487,-0.382533 -0.97579,-0.46791 -0.871091,0.0065 -1.274334,0.531463 -1.776866,1.071578 -0.452046,-0.22381 0.160156,-0.76472 0.358788,-0.994129 z"
             id="path57350"
             sodipodi:nodetypes="cccccccccc" /><path
             style="fill:#fff4ea;fill-opacity:1;stroke-width:0.519999;filter:url(#filter5446)"
             d="m 77.178555,56.06888 c 0.144677,-0.118372 0.289354,-0.09207 0.118372,-0.328814 -0.170982,-0.236743 -0.447183,-0.48664 -0.749689,-0.499792 -0.476308,-0.0076 -0.67612,0.05914 -0.960127,0.355113 -0.197287,0.210442 -0.341964,0.328814 -0.197287,0.486643 0.609534,0.272867 1.299402,0.235249 1.788731,-0.01315 z"
             id="path4478"
             sodipodi:nodetypes="cscccc"
             inkscape:label="path4478" /></g><g
           id="g8273"
           style="display:inline"><path
             style="fill:#eacfb7;fill-opacity:1;stroke-width:0.519999"
             d="m 81.413643,56.239862 c 0.341963,0.552402 0.631317,0.999585 0.946975,1.341548 0.315659,0.341964 0.68393,0.657622 1.025893,0.894366 0.341963,0.236744 0.97328,0.499793 1.473073,0.605012 0.499793,0.10522 1.262634,0.236744 1.867646,0.210439 0.605015,-0.0263 1.420466,-0.263049 1.815039,-0.420878 0.394573,-0.157829 0.815451,-0.447183 1.104805,-0.736536 0.289353,-0.289354 0.815451,-1.052195 0.97328,-1.473073 0.157832,-0.420878 0.289356,-0.868064 0.315661,-1.262637 0.0263,-0.394573 0.05261,-0.999585 -0.05261,-1.420463 -0.105219,-0.420878 -0.07891,-0.526098 -0.184134,-0.920671 -0.105222,-0.394573 -0.289356,-0.762841 -0.394575,-1.104807 -0.10522,-0.341964 -0.631317,-0.710232 0,-0.578707 0.631319,0.131524 0.578709,0.131524 1.288941,0.210439 0.710232,0.07891 1.0785,0.07891 1.525683,0.131524 0.447183,0.05261 0.683927,0.131524 1.052195,0.131524 0.368271,0 0.605015,-0.07891 0.894368,-0.0263 0.289354,0.05261 0.07891,-2.709402 0.07891,-2.709402 l -3.840515,-1.920259 -6.076431,0.815451 c 0,0 -2.52527,1.841344 -2.57788,1.972869 -0.05261,0.131524 -1.210024,1.341548 -1.341549,1.788731 -0.131524,0.447186 -0.131524,0.447186 -0.131524,0.447186 0,0 -0.184134,0.157829 -0.210439,0.710231 -0.0263,0.552403 -0.131525,0.605012 -0.05261,1.210024 0.07892,0.605013 0.499793,2.104393 0.499793,2.104393 z"
             id="path7648" /><path
             style="fill:#000000;fill-opacity:1;stroke-width:0.519999"
             d="m 81.432412,50.630203 c 0.595212,-0.781217 0.930019,-1.190424 1.562431,-1.52523 0.632412,-0.334809 1.413626,-0.595212 2.120442,-0.744017 0.706813,-0.148801 1.636832,-0.148801 2.269244,-0.0744 0.632412,0.0744 1.413629,0.260405 1.860037,0.446407 0.446407,0.186005 1.041619,0.558012 1.264824,0.669616 0.223206,0.111601 0.706814,0.297603 0.483611,0.483608 -0.223205,0.186004 -0.40921,0.111601 -0.892818,0.0744 -0.48361,-0.0372 -0.892818,-0.186003 -1.450829,-0.223203 -0.558012,-0.0372 -1.190424,-0.111604 -1.897237,-0.111604 -0.706814,0 -1.227625,0.0744 -1.822837,0.297606 -0.595212,0.223205 -1.153223,0.334807 -1.599631,0.558012 -0.44641,0.223205 -1.078822,0.558011 -1.339228,0.706813 -0.260403,0.148804 -0.446408,0.297606 -0.632412,0.372009 -0.186002,0.0744 -0.409207,0.111602 -0.409207,-0.148804 0,-0.260406 0.48361,-0.781214 0.48361,-0.781214 z"
             id="path5513" /><path
             style="opacity:1;fill:#000000;fill-opacity:1;stroke-width:0.519999"
             d="m 82.386923,56.108337 c 0.582572,0.730462 1.263806,1.440344 2.166456,1.757495 1.645688,0.685027 3.280861,0.195506 4.66624,-0.620015 0.854432,-0.774569 1.199482,-1.802776 1.415586,-2.822484 0.04427,-0.566063 0.107755,-1.143634 -0.0576,-1.698463 -0.123434,-0.506316 -0.246776,-1.058157 -0.61595,-1.444516 -1.429459,-0.283112 -2.909872,0.02157 -4.227957,0.209163 -1.552405,0.237681 -2.967887,0.918696 -4.241146,1.593759 -0.488649,0.08338 -0.48223,0.796187 -0.251083,1.139452 0.287269,0.723295 0.750335,1.371572 1.145454,1.885609 z"
             id="path8884"
             sodipodi:nodetypes="cccccccccc" /><path
             id="path8886"
             style="opacity:1;fill:#ffffff;fill-opacity:1;stroke-width:0.519999"
             d="m 88.365149,51.17207 c -0.905958,0.03487 -1.800936,0.199105 -2.631364,0.317294 -1.552403,0.23768 -2.967827,0.918638 -4.241085,1.593701 -0.488648,0.08338 -0.482294,0.7962 -0.251147,1.139465 0.287268,0.723294 0.750031,1.371637 1.145149,1.885673 0.582572,0.730461 1.264144,1.440365 2.166793,1.757516 0.226323,0.09421 0.452176,0.165571 0.677478,0.217557 0.283164,-0.03668 0.479558,-0.06873 0.479558,-0.06873 0.543947,-0.176769 1.160283,-0.270133 1.599385,-0.502295 0.818703,-0.425095 1.426778,-1.025372 1.767334,-1.766817 0.290071,-0.871279 0.285052,-1.900817 0.186035,-2.696993 -0.217978,-0.715484 -0.50158,-1.319338 -0.898136,-1.876371 z"
             sodipodi:nodetypes="cccccccccccc" /><path
             id="path8891"
             style="opacity:1;fill:#010000;fill-opacity:1;stroke-width:0.519999"
             d="m 86.932678,51.311597 c -0.410075,0.05747 -0.811452,0.122625 -1.198893,0.177767 -1.552403,0.23768 -2.967827,0.918638 -4.241085,1.593701 -0.101236,0.01727 -0.181221,0.06212 -0.242362,0.12454 0.01608,0.264114 0.04921,0.529687 0.112138,0.784448 0.241424,0.65619 0.593808,1.289502 1.105358,1.774052 0.367817,0.389779 0.918965,0.513378 1.435572,0.536918 0.521243,-5.58e-4 1.06508,0.02199 1.558044,-0.176216 0.509525,-0.232054 1.03864,-0.501668 1.378727,-0.963249 0.464497,-0.563285 0.769085,-1.295576 0.694015,-2.034501 -0.08067,-0.536824 -0.178835,-1.092597 -0.468189,-1.562179 -0.04088,-0.08713 -0.08551,-0.172185 -0.133325,-0.255281 z" /><path
             style="opacity:1;fill:#ffffff;fill-opacity:1;stroke-width:0.519999"
             d="m 81.439948,53.214798 c 0.147459,0.170785 0.332281,0.302772 0.527536,0.41348 0.46886,0.274699 0.976287,0.329393 1.46357,0.19667 0.279156,-0.159893 0.536868,-0.394597 0.694553,-0.612791 0.149076,-0.295312 0.227773,-0.566222 0.186528,-0.847333 -0.05332,-0.101568 -0.197512,-0.04968 -0.291682,-0.0509 -0.309602,0.02832 -0.619259,0.08344 -0.907296,0.204252 -0.60736,0.231447 -1.14723,0.477688 -1.673188,0.696626 z"
             id="path8896"
             sodipodi:nodetypes="ccccccccc" /><path
             style="display:inline;fill:#010000;fill-opacity:1;stroke-width:0.519999"
             d="m 81.229509,52.89914 c 0.54699,-0.332745 1.054163,-0.651255 1.699417,-0.971661 0.507514,-0.219813 1.29076,-0.565869 1.840775,-0.665131 1.881551,-0.392328 3.336945,-0.519248 5.087812,-0.862174 0.349066,0.461221 0.86112,0.749689 1.325943,1.074823 0.247063,0.21951 -0.01278,0.536916 -0.285615,0.346597 -0.884598,-0.07393 -1.792029,-0.11186 -2.6737,-0.205361 -1.53038,-0.01676 -2.957472,0.07699 -4.209002,0.627287 -0.587735,0.234078 -1.179585,0.465533 -1.788034,0.635237 -0.30581,0.214024 -0.760057,0.494222 -0.997596,0.02038 z"
             id="path8335"
             sodipodi:nodetypes="sccccccccss" /></g><g
           id="g9001"
           style="display:inline;opacity:1"
           transform="matrix(-1,0,0,1,152.96484,0)"><path
             style="fill:#eacfb7;fill-opacity:1;stroke-width:0.519999"
             d="m 81.413643,56.239862 c 0.341963,0.552402 0.631317,0.999585 0.946975,1.341548 0.315659,0.341964 0.68393,0.657622 1.025893,0.894366 0.341963,0.236744 0.97328,0.499793 1.473073,0.605012 0.499793,0.10522 1.262634,0.236744 1.867646,0.210439 0.605015,-0.0263 1.420466,-0.263049 1.815039,-0.420878 0.394573,-0.157829 0.815451,-0.447183 1.104805,-0.736536 0.289353,-0.289354 0.815451,-1.052195 0.97328,-1.473073 0.157832,-0.420878 0.289356,-0.868064 0.315661,-1.262637 0.0263,-0.394573 0.05261,-0.999585 -0.05261,-1.420463 -0.105219,-0.420878 -0.07891,-0.526098 -0.184134,-0.920671 -0.105222,-0.394573 -0.289356,-0.762841 -0.394575,-1.104807 -0.10522,-0.341964 -0.631317,-0.710232 0,-0.578707 0.631319,0.131524 0.578709,0.131524 1.288941,0.210439 0.710232,0.07891 1.0785,0.07891 1.525683,0.131524 0.447183,0.05261 0.683927,0.131524 1.052195,0.131524 0.368271,0 0.605015,-0.07891 0.894368,-0.0263 0.289354,0.05261 0.07891,-2.709402 0.07891,-2.709402 l -3.840515,-1.920259 -6.076431,0.815451 c 0,0 -2.52527,1.841344 -2.57788,1.972869 -0.05261,0.131524 -1.210024,1.341548 -1.341549,1.788731 -0.131524,0.447186 -0.131524,0.447186 -0.131524,0.447186 0,0 -0.184134,0.157829 -0.210439,0.710231 -0.0263,0.552403 -0.131525,0.605012 -0.05261,1.210024 0.07892,0.605013 0.499793,2.104393 0.499793,2.104393 z"
             id="path8987" /><path
             style="fill:#000000;fill-opacity:1;stroke-width:0.519999"
             d="m 81.432412,50.630203 c 0.595212,-0.781217 0.930019,-1.190424 1.562431,-1.52523 0.632412,-0.334809 1.413626,-0.595212 2.120442,-0.744017 0.706813,-0.148801 1.636832,-0.148801 2.269244,-0.0744 0.632412,0.0744 1.413629,0.260405 1.860037,0.446407 0.446407,0.186005 1.041619,0.558012 1.264824,0.669616 0.223206,0.111601 0.706814,0.297603 0.483611,0.483608 -0.223205,0.186004 -0.40921,0.111601 -0.892818,0.0744 -0.48361,-0.0372 -0.892818,-0.186003 -1.450829,-0.223203 -0.558012,-0.0372 -1.190424,-0.111604 -1.897237,-0.111604 -0.706814,0 -1.227625,0.0744 -1.822837,0.297606 -0.595212,0.223205 -1.153223,0.334807 -1.599631,0.558012 -0.44641,0.223205 -1.078822,0.558011 -1.339228,0.706813 -0.260403,0.148804 -0.446408,0.297606 -0.632412,0.372009 -0.186002,0.0744 -0.409207,0.111602 -0.409207,-0.148804 0,-0.260406 0.48361,-0.781214 0.48361,-0.781214 z"
             id="path8989" /><path
             style="opacity:1;fill:#000000;fill-opacity:1;stroke-width:0.519999"
             d="m 82.386923,56.108337 c 0.582572,0.730462 1.263806,1.440344 2.166456,1.757495 1.645688,0.685027 3.280861,0.195506 4.66624,-0.620015 0.854432,-0.774569 1.199482,-1.802776 1.415586,-2.822484 0.04427,-0.566063 0.107755,-1.143634 -0.0576,-1.698463 -0.123434,-0.506316 -0.246776,-1.058157 -0.61595,-1.444516 -1.429459,-0.283112 -2.909872,0.02157 -4.227957,0.209163 -1.552405,0.237681 -2.967887,0.918696 -4.241146,1.593759 -0.488649,0.08338 -0.48223,0.796187 -0.251083,1.139452 0.287269,0.723295 0.750335,1.371572 1.145454,1.885609 z"
             id="path8991"
             sodipodi:nodetypes="cccccccccc" /><path
             id="path8993"
             style="opacity:1;fill:#ffffff;fill-opacity:1;stroke-width:0.519999"
             d="m 88.365149,51.17207 c -0.905958,0.03487 -1.800936,0.199105 -2.631364,0.317294 -1.552403,0.23768 -2.967827,0.918638 -4.241085,1.593701 -0.488648,0.08338 -0.482294,0.7962 -0.251147,1.139465 0.287268,0.723294 0.750031,1.371637 1.145149,1.885673 0.582572,0.730461 1.264144,1.440365 2.166793,1.757516 0.226323,0.09421 0.452176,0.165571 0.677478,0.217557 0.283164,-0.03668 0.479558,-0.06873 0.479558,-0.06873 0.543947,-0.176769 1.160283,-0.270133 1.599385,-0.502295 0.818703,-0.425095 1.426778,-1.025372 1.767334,-1.766817 0.290071,-0.871279 0.285052,-1.900817 0.186035,-2.696993 -0.217978,-0.715484 -0.50158,-1.319338 -0.898136,-1.876371 z"
             sodipodi:nodetypes="cccccccccccc" /><path
             id="path8995"
             style="opacity:1;fill:#010000;fill-opacity:1;stroke-width:0.519999"
             d="m 86.932678,51.311597 c -0.410075,0.05747 -0.811452,0.122625 -1.198893,0.177767 -1.552403,0.23768 -2.967827,0.918638 -4.241085,1.593701 -0.101236,0.01727 -0.181221,0.06212 -0.242362,0.12454 0.01608,0.264114 0.04921,0.529687 0.112138,0.784448 0.241424,0.65619 0.593808,1.289502 1.105358,1.774052 0.367817,0.389779 0.918965,0.513378 1.435572,0.536918 0.521243,-5.58e-4 1.06508,0.02199 1.558044,-0.176216 0.509525,-0.232054 1.03864,-0.501668 1.378727,-0.963249 0.464497,-0.563285 0.769085,-1.295576 0.694015,-2.034501 -0.08067,-0.536824 -0.178835,-1.092597 -0.468189,-1.562179 -0.04088,-0.08713 -0.08551,-0.172185 -0.133325,-0.255281 z" /><path
             style="opacity:1;fill:#ffffff;fill-opacity:1;stroke-width:0.519999"
             d="m 81.439948,53.214798 c 0.147459,0.170785 0.332281,0.302772 0.527536,0.41348 0.46886,0.274699 0.976287,0.329393 1.46357,0.19667 0.279156,-0.159893 0.536868,-0.394597 0.694553,-0.612791 0.149076,-0.295312 0.227773,-0.566222 0.186528,-0.847333 -0.05332,-0.101568 -0.197512,-0.04968 -0.291682,-0.0509 -0.309602,0.02832 -0.619259,0.08344 -0.907296,0.204252 -0.60736,0.231447 -1.14723,0.477688 -1.673188,0.696626 z"
             id="path8997"
             sodipodi:nodetypes="ccccccccc" /><path
             style="display:inline;fill:#010000;fill-opacity:1;stroke-width:0.519999"
             d="m 81.229509,52.89914 c 0.54699,-0.332745 1.054163,-0.651255 1.699417,-0.971661 0.507514,-0.219813 1.29076,-0.565869 1.840775,-0.665131 1.881551,-0.392328 3.336945,-0.519248 5.087812,-0.862174 0.349066,0.461221 0.86112,0.749689 1.325943,1.074823 0.247063,0.21951 -0.01278,0.536916 -0.285615,0.346597 -0.884598,-0.07393 -1.792029,-0.11186 -2.6737,-0.205361 -1.53038,-0.01676 -2.957472,0.07699 -4.209002,0.627287 -0.587735,0.234078 -1.179585,0.465533 -1.788034,0.635237 -0.30581,0.214024 -0.760057,0.494222 -0.997596,0.02038 z"
             id="path8999"
             sodipodi:nodetypes="sccccccccss" /></g><g
           id="g15819"
           inkscape:label="g15819"><path
             style="display:inline;opacity:1;fill:#000000;fill-opacity:1;stroke-width:0.519999"
             d="m 94.697615,60.36973 c 0.386795,-4.043792 2.726502,-7.541881 3.745961,-11.42443 1.15558,-3.766352 1.373096,-7.983877 -0.124262,-11.682274 -1.040984,-2.24495 -2.140875,-4.537067 -4.124782,-6.114745 -2.68338,-2.708665 -6.277181,-4.390279 -9.979418,-5.183296 -2.618387,-0.411532 -5.433638,-0.419915 -7.852011,0.813396 -4.087799,-1.719922 -8.834773,-1.090508 -12.78315,0.736844 -4.662195,2.226076 -8.479075,6.38785 -9.710963,11.470488 -1.246668,4.358478 -0.07585,8.985658 1.44691,13.120581 0.854935,2.410052 1.855034,4.782583 2.624324,7.210416 -0.197319,2.067105 1.626966,-0.684089 2.404317,-0.338907 -0.881531,-1.84835 -1.567308,-3.885442 -1.632844,-5.935938 0.160145,-2.715133 0.604602,-5.57211 2.424161,-7.715246 0.7757,-0.770959 1.948084,-2.554282 2.78873,-2.533902 0.997958,1.539593 -0.749923,3.004449 -0.618291,4.289242 2.510702,-0.08359 5.251483,-0.375639 7.450576,-1.788217 1.79081,-0.578525 3.28502,-3.059513 4.327153,-3.58733 0.125738,1.810043 -0.430708,3.789252 -1.593162,5.20022 -1.212824,1.266192 2.037694,0.190613 2.536852,-0.337104 1.585368,-0.875314 2.213546,-3.229217 3.132338,-4.197685 0.597653,2.364166 2.265893,4.494578 4.41059,5.634589 0.839747,-0.808767 -0.9242,-2.776347 -0.499793,-4.156173 0.151011,-1.428932 -0.281912,-4.661223 1.884498,-2.736118 2.129365,0.260814 4.204794,1.137408 5.479637,2.947791 2.28877,2.16502 3.555605,5.345814 3.510933,8.484664 0.213977,2.305762 -0.717482,4.467201 -1.668356,6.507891 1.078686,0.100757 1.678749,0.452401 2.420052,1.315243 z"
             id="path9066" /><path
             id="path11080"
             style="display:inline;opacity:0.299065;fill:#000000;fill-opacity:1;stroke-width:0.51698"
             d="m 80.698211,26.148037 c -1.493537,0.05486 -2.991955,0.374886 -4.323312,1.071146 -4.530282,-1.918531 -9.865957,-0.982671 -14.04771,1.467128 -4.221287,2.461306 -7.452258,6.710548 -8.306941,11.571521 -0.895203,4.732596 0.762503,9.393677 2.41651,13.772528 0.648866,1.759077 1.368872,3.50319 1.892337,5.299881 -0.210558,0.791626 0.438245,0.265994 0.736079,0.0046 0.311537,-0.227513 0.615739,-0.482323 0.986264,-0.60723 -1.06637,-2.324548 -1.786805,-4.925952 -1.315697,-7.492284 0.262131,-2.435535 1.09841,-4.902329 2.877602,-6.651308 0.727482,-0.766452 1.372417,-1.93088 2.544175,-1.991641 0.769481,1.015516 0.311817,2.316021 -0.198927,3.329008 -0.164651,0.388473 -0.580692,1.187647 0.200317,0.922463 2.294491,-0.112465 4.637567,-0.509842 6.635246,-1.764338 1.897385,-0.736246 2.773369,-2.816581 4.541133,-3.741016 0.203837,2.108622 -0.34878,4.335728 -1.753376,5.952541 1.718008,-0.198141 3.269572,-1.291406 4.028497,-2.851854 0.491618,-0.879298 0.931899,-1.805959 1.650578,-2.529149 0.530107,2.405934 2.018275,4.566712 4.177844,5.800907 0.138275,-1.288569 -1.017134,-2.44457 -0.686952,-3.76993 0.174895,-1.111314 -0.157851,-2.405666 0.537605,-3.374285 0.580659,-0.564558 1.313725,0.09392 1.810953,0.397045 2.170767,0.264097 4.285046,1.321704 5.569585,3.132449 2.357635,2.301554 3.511939,5.637674 3.442289,8.902412 0.108943,2.050567 -0.803603,4.080198 -1.518688,5.849508 0.677148,0.107909 1.309885,0.439312 1.786349,0.933122 0.585626,-4.074411 2.92592,-7.598804 3.861693,-11.566824 1.110585,-4.037479 1.033649,-8.572575 -1.055208,-12.289817 -0.865501,-1.766125 -1.924157,-3.381442 -3.440061,-4.592179 -2.373842,-2.35104 -5.588535,-3.961909 -8.863071,-4.769433 -1.361089,-0.343707 -2.78414,-0.447495 -4.185113,-0.41496 z" /><path
             id="path12605"
             style="opacity:1;fill:#1f1f1f;fill-opacity:1;stroke-width:0.519999"
             d="m 81.2245,26.14259 c -0.175648,-3.95e-4 -0.350945,0.0016 -0.526067,0.0057 -1.493535,0.05486 -2.992411,0.374476 -4.323767,1.070735 -4.530277,-1.918529 -9.865972,-0.982702 -14.047721,1.467094 -4.221283,2.461304 -7.451788,6.710936 -8.30647,11.571904 -0.811782,4.291581 0.477135,8.52193 1.957504,12.538769 l 2.739367,-1.440739 c 0.0068,-0.04028 0.01121,-0.08066 0.0186,-0.120922 0.26213,-2.435533 1.098153,-4.902297 2.877343,-6.651274 0.727482,-0.766451 1.372274,-1.930849 2.544031,-1.99161 0.76948,1.015515 0.311789,2.31601 -0.198954,3.328996 -0.164651,0.388473 -0.580504,1.187608 0.200505,0.922424 2.294488,-0.112465 4.637576,-0.509738 6.635253,-1.764233 1.897384,-0.736245 2.773563,-2.816423 4.541325,-3.740857 0.203837,2.10862 -0.348786,4.335797 -1.753381,5.952608 1.718006,-0.198141 3.269254,-1.291576 4.028178,-2.852022 0.491617,-0.879297 0.931867,-1.805855 1.650545,-2.529045 0.530107,2.405932 2.018473,4.566486 4.17804,5.80068 0.138274,-1.288568 -1.016962,-2.444437 -0.68678,-3.769796 0.174895,-1.111313 -0.158021,-2.405853 0.537435,-3.374471 0.580658,-0.564557 1.313514,0.09427 1.810742,0.397392 2.170765,0.264097 4.285148,1.321365 5.569686,3.132108 2.084921,2.035328 3.227249,4.879903 3.415812,7.768519 0.517096,0.652112 1.088015,1.369165 1.950785,2.445845 0.816049,-2.00596 1.708055,-3.988381 2.205034,-6.095752 1.110584,-4.037475 1.033622,-8.572968 -1.055233,-12.290206 -0.8655,-1.766123 -1.924198,-3.381232 -3.4401,-4.591968 C 91.372376,28.981417 88.157724,27.37076 84.883191,26.563236 83.692239,26.262493 82.45403,26.145359 81.2245,26.14259 Z" /><path
             id="path12600"
             style="opacity:1;fill:#181818;fill-opacity:1;stroke-width:0.519999"
             d="m 76.224288,38.688595 c 0,0 -0.37209,0.483734 -0.483691,0.74414 -0.111601,0.260405 -1.004137,1.116269 -1.376144,1.451074 -0.372009,0.334807 -1.67438,1.487829 -2.046387,1.859835 -0.372006,0.372007 -1.562242,0.893013 -1.934248,1.153418 -0.372009,0.260403 -2.455272,0.743661 -3.199288,0.966866 -0.744013,0.223202 -1.897042,0.186035 -1.897042,0.186035 0,0 0.66924,-1.525062 0.855245,-2.04587 0.186005,-0.520811 0.446501,-1.59948 0.558105,-2.157491 0.111602,-0.558011 -0.22332,-1.562712 -0.669726,-1.674316 -0.446411,-0.111601 -1.227461,0.223286 -2.083077,0.483691 -0.855617,0.260406 -1.562293,0.855826 -2.231905,1.227832 -0.669615,0.372007 -1.487917,1.19021 -2.380734,1.785421 -0.892816,0.595212 -1.972087,1.934383 -2.641699,2.715597 -0.669612,0.781215 -1.115852,1.599664 -2.04587,3.236495 -0.0094,0.01648 -0.01716,0.03265 -0.02636,0.04909 0.49861,1.822375 1.155887,3.613889 1.815393,5.35988 0.416853,1.13009 0.862506,2.254327 1.267106,3.389974 0.223527,0.168268 0.388105,0.225151 0.403593,0.05478 0.0372,-0.40921 0.148821,-1.041357 0.111621,-1.487765 -0.0372,-0.446409 0.111604,-1.636751 0,-2.566768 -0.111601,-0.930017 0.260464,-1.93486 0.334864,-2.492871 0.05865,-0.439858 0.392827,-1.451098 0.641821,-2.08101 0.456227,-1.593029 1.223994,-3.089626 2.417423,-4.262789 0.727482,-0.766451 1.372274,-1.930849 2.544031,-1.99161 0.76948,1.015515 0.311789,2.31601 -0.198954,3.328996 -0.164651,0.388473 -0.580504,1.187608 0.200505,0.922424 2.294488,-0.112465 4.637576,-0.509738 6.635253,-1.764233 1.897384,-0.736245 2.773563,-2.816423 4.541325,-3.740857 0.203837,2.10862 -0.348786,4.335797 -1.753381,5.952608 1.718006,-0.198141 3.269254,-1.291576 4.028178,-2.852022 0.491617,-0.879297 0.931867,-1.805855 1.650545,-2.529045 0.530107,2.405932 2.018473,4.566486 4.17804,5.80068 0.138274,-1.288568 -1.016962,-2.444437 -0.68678,-3.769796 0.174895,-1.111313 -0.158021,-2.405853 0.537435,-3.374471 0.147364,-0.143278 0.304437,-0.20706 0.465088,-0.218591 -0.296619,-0.585943 -0.662787,-1.238833 -0.834058,-1.324467 -0.223202,-0.111604 -0.409277,0.148828 -0.409277,0.148828 L 82.288,39.432735 c -0.223201,0.260405 -0.334882,0.744238 -0.446484,1.302246 -0.111604,0.558012 -0.148828,0.78096 -0.148828,1.524972 0,0.744016 0.07441,1.488281 0.07441,1.488281 0,0 -0.55813,-0.334914 -0.706934,-0.632519 -0.148801,-0.297606 -0.780861,-1.22792 -0.966866,-1.748731 -0.186001,-0.520807 -0.558145,-1.190226 -0.781347,-1.897042 -0.223206,-0.706812 -0.297656,-0.74414 -0.297656,-0.74414 0,0 -0.59535,1.302334 -0.818555,1.823144 -0.223205,0.520808 -0.446025,0.743726 -0.780831,1.338936 -0.334809,0.595212 -0.892969,0.892969 -0.892969,0.892969 0,0 7e-6,-0.63259 0.03721,-1.041797 0.0372,-0.409209 -0.111607,-1.041394 -0.03721,-1.711006 0.0744,-0.669613 -0.297656,-1.339453 -0.297656,-1.339453 z m 12.119157,3.058728 c -0.157976,-8.11e-4 -0.319309,0.0086 -0.480074,0.02119 1.105486,0.534612 2.086393,1.312345 2.806547,2.327506 2.280478,2.226233 3.431555,5.420638 3.44165,8.581906 0.153419,0.358685 0.246032,0.634761 0.229444,0.74259 -0.0744,0.483607 0.07442,1.897136 0.111621,2.455147 0.0372,0.558009 0.111621,1.376221 0.111621,1.822628 0,0.105759 0.05314,0.285773 0.132808,0.497127 0.397944,-1.580645 1.009803,-3.09429 1.634009,-4.60437 0.04758,-0.554973 0.139951,-0.761196 0.204639,-1.472778 0.0744,-0.818413 0.03721,-1.971531 0.03721,-2.41794 0,-0.446408 -0.818072,-3.013315 -1.004073,-3.385324 -0.186005,-0.372006 -1.041898,-1.376257 -1.63711,-2.04587 -0.595211,-0.669612 -1.636764,-1.079087 -2.641182,-1.562695 -1.004421,-0.48361 -1.525103,-0.706967 -2.306319,-0.892969 -0.195304,-0.0465 -0.414097,-0.06498 -0.640788,-0.06614 z" /><path
             id="path12595"
             style="display:inline;opacity:1;fill:#434343;fill-opacity:1;stroke-width:0.519999"
             d="m 81.2245,26.14259 c -0.175648,-3.95e-4 -0.350945,0.0016 -0.526067,0.0057 -1.493535,0.05486 -2.992411,0.374476 -4.323767,1.070735 -4.530277,-1.918529 -9.865972,-0.982702 -14.047721,1.467094 -4.221283,2.461304 -7.451788,6.710936 -8.30647,11.571904 -0.357363,1.889245 -0.307092,3.766764 -0.01344,5.619812 0.36602,1.21282 0.828157,2.747502 0.86403,2.855123 0.111604,0.334806 0.297651,0.372033 0.26045,0.148828 -0.0372,-0.223206 -0.148839,-1.26461 -0.223243,-1.785421 -0.0744,-0.52081 -0.297639,-2.046021 -0.186035,-2.938839 0.111601,-0.892814 0.223276,-2.901746 0.409278,-3.571358 0.186004,-0.669611 1.04185,-3.571459 1.339453,-4.166671 0.297605,-0.595211 1.301793,-2.343607 1.673799,-2.827217 0.372006,-0.483608 1.636694,-1.748311 2.231905,-2.306319 0.595212,-0.558012 1.897224,-1.376748 2.976046,-1.897559 1.078819,-0.520807 4.612773,-1.376156 5.393986,-1.450557 0.781216,-0.0744 3.459828,-0.07441 3.980636,-0.07441 0.52081,0 2.790071,0.297675 3.162081,0.409277 0.372005,0.111601 0.223444,0.111594 1.413867,-0.03721 1.190423,-0.148804 2.046111,-0.223249 3.459737,-0.260449 1.413628,-0.0372 3.64538,0.148864 4.389396,0.37207 0.744012,0.223205 3.013358,0.855295 3.645772,1.152901 0.632412,0.297606 2.901719,1.488365 3.422531,1.971973 0.520807,0.48361 2.045957,2.008797 2.566768,2.79001 0.520811,0.781217 1.078558,1.748379 1.487764,2.715597 0.409207,0.967218 0.744186,2.678585 1.00459,3.831807 0.260406,1.15322 0.372064,3.19891 0.334864,4.017326 -0.0372,0.818413 -0.334884,2.790139 -0.446485,3.534151 -0.111604,0.744017 -0.29768,2.269277 -0.446484,3.236495 -0.05553,0.360968 -0.130859,0.945514 -0.204639,1.542542 0.666917,-1.612571 1.32421,-3.228147 1.724443,-4.925281 1.110584,-4.037475 1.033622,-8.572968 -1.055233,-12.290206 -0.8655,-1.766123 -1.924198,-3.381232 -3.4401,-4.591968 C 91.372376,28.981417 88.157724,27.37076 84.883191,26.563236 83.692239,26.262493 82.45403,26.145359 81.2245,26.14259 Z" /><path
             style="opacity:1;fill:#282827;fill-opacity:1;stroke-width:0.519999"
             d="m 63.215403,32.83024 c -2.127339,1.219305 -3.748456,3.155491 -4.95433,5.258628 -0.646452,1.203156 -1.133588,2.527248 -1.297828,3.876478 0.376055,1.089343 1.287586,-1.111072 1.960382,-1.217115 1.760812,-1.46854 3.798589,-2.555594 5.906168,-3.429551 1.146393,-0.377336 3.119924,-0.789959 3.476408,0.812677 0.217288,0.931487 -0.0829,2.494159 1.439011,1.755236 1.333801,-0.579334 2.019402,-2.007567 2.995213,-2.996446 0.966148,-0.432851 0.147864,2.731988 1.302091,1.055488 0.619978,-0.612725 1.469251,-2.242208 2.238384,-1.947387 0.171432,0.952081 0.101888,2.901363 1.634185,2.038632 0.67053,-0.627133 1.278786,-2.213502 1.848589,-0.578039 0.628771,1.294148 2.238596,1.361293 2.993566,0.157166 0.454826,-0.473173 0.731007,-2.160559 1.421699,-0.854503 0.633352,1.035765 2.350649,3.019651 3.016432,0.934235 1.130358,-0.489309 1.804148,1.40639 2.743105,1.896006 0.86007,1.114582 2.033708,2.112172 3.499784,2.229752 1.258094,-0.349192 0.847716,-2.266806 0.889689,-3.294786 -0.231477,-1.975411 -1.309505,-3.793677 -2.772954,-5.104741 -1.778175,-1.330823 -3.77756,-2.349288 -5.894711,-3.012115 -2.727259,-0.695376 -5.513416,-1.165517 -8.333693,-1.191852 -2.214105,-0.07571 -4.474664,0.221913 -6.597262,0.561608 -2.560336,0.856517 -5.483876,1.697076 -7.513928,3.050629 z"
             id="path12610"
             sodipodi:nodetypes="ccccccccccccccccccccccc" /></g></g></g></g></svg>
