<?xml version="1.0" encoding="UTF-8" standalone="no"?>
<!-- Created with Inkscape (http://www.inkscape.org/) -->

<svg
   width="210mm"
   height="297mm"
   viewBox="0 0 210 297"
   version="1.1"
   id="svg5"
   xml:space="preserve"
   inkscape:version="1.2.2 (732a01da63, 2022-12-09)"
   sodipodi:docname="apple-2.svg"
   xmlns:inkscape="http://www.inkscape.org/namespaces/inkscape"
   xmlns:sodipodi="http://sodipodi.sourceforge.net/DTD/sodipodi-0.dtd"
   xmlns:xlink="http://www.w3.org/1999/xlink"
   xmlns="http://www.w3.org/2000/svg"
   xmlns:svg="http://www.w3.org/2000/svg"><sodipodi:namedview
     id="namedview7"
     pagecolor="#ffffff"
     bordercolor="#666666"
     borderopacity="1.0"
     inkscape:showpageshadow="2"
     inkscape:pageopacity="0.0"
     inkscape:pagecheckerboard="0"
     inkscape:deskcolor="#d1d1d1"
     inkscape:document-units="mm"
     showgrid="false"
     showguides="true"
     inkscape:zoom="0.5946522"
     inkscape:cx="-83.241935"
     inkscape:cy="561.67286"
     inkscape:window-width="2560"
     inkscape:window-height="1377"
     inkscape:window-x="1272"
     inkscape:window-y="-8"
     inkscape:window-maximized="1"
     inkscape:current-layer="layer1" /><defs
     id="defs2"><linearGradient
       inkscape:collect="always"
       id="linearGradient1160"><stop
         style="stop-color:#ffffff;stop-opacity:1;"
         offset="0"
         id="stop1156" /><stop
         style="stop-color:#6f00ff;stop-opacity:1;"
         offset="1"
         id="stop1158" /></linearGradient><linearGradient
       inkscape:collect="always"
       id="linearGradient16775"><stop
         style="stop-color:#ffffff;stop-opacity:0;"
         offset="0"
         id="stop16771" /><stop
         style="stop-color:#ffffff;stop-opacity:0.71467394;"
         offset="1"
         id="stop16773" /></linearGradient><linearGradient
       inkscape:collect="always"
       id="linearGradient16767"><stop
         style="stop-color:#fa0001;stop-opacity:0.0951087;"
         offset="0"
         id="stop16763" /><stop
         style="stop-color:#ffffff;stop-opacity:0.63858694;"
         offset="1"
         id="stop16765" /></linearGradient><linearGradient
       inkscape:collect="always"
       id="linearGradient3317"><stop
         style="stop-color:#227b22;stop-opacity:1;"
         offset="0"
         id="stop3313" /><stop
         style="stop-color:#36c134;stop-opacity:1;"
         offset="1"
         id="stop3315" /></linearGradient><inkscape:path-effect
       effect="mirror_symmetry"
       start_point="73.848518,65.414594"
       end_point="73.848518,151.97077"
       center_point="73.848518,108.69268"
       id="path-effect465"
       is_visible="true"
       lpeversion="1.2"
       lpesatellites=""
       mode="free"
       discard_orig_path="false"
       fuse_paths="false"
       oposite_fuse="false"
       split_items="false"
       split_open="false"
       link_styles="false" /><linearGradient
       inkscape:collect="always"
       xlink:href="#linearGradient3317"
       id="linearGradient3319"
       x1="80.699684"
       y1="59.620232"
       x2="125.84745"
       y2="38.540783"
       gradientUnits="userSpaceOnUse" /><linearGradient
       inkscape:collect="always"
       xlink:href="#linearGradient3317"
       id="linearGradient6620"
       gradientUnits="userSpaceOnUse"
       x1="80.699684"
       y1="59.620232"
       x2="125.84745"
       y2="38.540783" /><linearGradient
       inkscape:collect="always"
       xlink:href="#linearGradient16767"
       id="linearGradient16769"
       x1="89.432518"
       y1="84.760681"
       x2="83.425873"
       y2="71.635017"
       gradientUnits="userSpaceOnUse" /><linearGradient
       inkscape:collect="always"
       xlink:href="#linearGradient16775"
       id="linearGradient16777"
       x1="55.617241"
       y1="103.44807"
       x2="25.806402"
       y2="91.21228"
       gradientUnits="userSpaceOnUse" /><filter
       inkscape:collect="always"
       style="color-interpolation-filters:sRGB"
       id="filter977"
       x="-0.090007577"
       y="-0.47954431"
       width="1.1800152"
       height="1.9590886"><feGaussianBlur
         inkscape:collect="always"
         stdDeviation="2.8249537"
         id="feGaussianBlur979" /></filter><filter
       inkscape:collect="always"
       style="color-interpolation-filters:sRGB"
       id="filter1032"
       x="-0.23208407"
       y="-1.2365025"
       width="1.4641681"
       height="3.473005"><feGaussianBlur
         inkscape:collect="always"
         stdDeviation="7.2841285"
         id="feGaussianBlur1030" /></filter><radialGradient
       inkscape:collect="always"
       xlink:href="#linearGradient1160"
       id="radialGradient1164"
       cx="74.304634"
       cy="95.216728"
       fx="74.304634"
       fy="95.216728"
       r="69.410316"
       gradientTransform="matrix(1,0,0,1.0769232,0,-7.3243756)"
       gradientUnits="userSpaceOnUse" /></defs><g
     inkscape:label="Layer 1"
     inkscape:groupmode="layer"
     id="layer1"><g
       id="g1362"
       inkscape:label="Apple"
       transform="translate(-2.6696277,-19.132332)"><rect
         style="opacity:1;fill:url(#radialGradient1164);fill-opacity:1;stroke-width:0.4;stroke-linecap:round;stroke-linejoin:round;stroke-dashoffset:5.21575"
         id="rect1131"
         width="138.82063"
         height="149.49916"
         x="4.8943176"
         y="20.467146" /><path
         style="opacity:1;fill:#250f04;fill-opacity:1;stroke-width:0.4;stroke-linecap:round;stroke-linejoin:round;stroke-dashoffset:5.21575"
         d="m 71.412541,146.99638 c 0,0 0.500555,1.44604 -0.500555,3.94882 -1.001112,2.50278 -1.668518,3.67074 -1.668518,3.67074 0,0 0.111234,0.44494 0.889876,0.11123 0.778642,-0.3337 2.335924,-2.22469 2.335924,-2.22469 0,0 0.166852,1.55728 0.389321,2.39154 0.22247,0.83426 0.556173,1.77976 0.556173,1.77976 0,0 0.444937,-0.88988 0.723024,-1.6129 0.278085,-0.72303 0.834258,-2.2247 0.834258,-2.2247 0,0 -0.333703,-0.22246 0.83426,0.55618 1.167961,0.77864 1.946603,1.6129 1.946603,1.6129 0,0 -0.111236,-0.11124 -0.278087,-1.33481 -0.166852,-1.22359 -1.056728,-7.00778 -1.056728,-7.00778 z"
         id="path16897" /><g
         id="g6600"><path
           style="opacity:1;fill:#3fd640;fill-opacity:1;stroke-width:0.4;stroke-linecap:round;stroke-linejoin:round;stroke-dashoffset:5.21575"
           d="m 129.40658,37.911547 c -4.46529,-2.150237 -9.79128,-2.498335 -14.64654,-2.156412 -4.45696,0.313874 -8.95723,1.293628 -12.99391,3.389485 -5.102582,2.649279 -10.620541,7.001964 -13.005397,10.604815 -3.080325,4.65351 -4.092379,7.180407 -5.31291,10.704238 2.77735,0.769829 4.061026,1.250565 6.119848,1.557766 4.690944,0.699946 9.558037,0.62643 14.197339,-0.365306 3.95074,-0.844543 7.78499,-2.436959 11.22485,-4.572384 4.89927,-3.76061 9.5177,-8.230068 12.23021,-13.825907 0.81813,-1.68777 1.51977,-3.584177 2.18651,-5.336295 z"
           id="path467"
           sodipodi:nodetypes="cssscsscsc" /><path
           style="opacity:1;fill:url(#linearGradient3319);fill-opacity:1;stroke-width:0.4;stroke-linecap:round;stroke-linejoin:round;stroke-dashoffset:5.21575"
           d="m 84.239141,59.777542 c 1.562869,-3.345057 2.974649,-6.836171 5.462585,-9.630128 8.017666,-8.614791 17.138154,-12.961998 28.066554,-11.665151 2.39158,0.181347 5.20632,0.588854 7.47451,1.415312 -0.37782,2.390505 -1.32754,3.458339 -1.9844,5.062163 -2.39244,4.336324 -5.61053,8.263571 -9.71199,11.083257 -8.75921,5.121172 -20.629517,7.818123 -29.307259,3.734547 z"
           id="path477"
           sodipodi:nodetypes="ccccccc" /><path
           id="rect542"
           style="opacity:1;fill:#227823;fill-opacity:1;stroke-width:0.4;stroke-linecap:round;stroke-linejoin:round;stroke-dashoffset:5.21575"
           d="M 125.21871,40.033215 84.273926,59.703333 c -0.01154,0.02475 -0.02307,0.04968 -0.03462,0.07441 8.677733,4.083571 20.548057,1.386511 29.307257,-3.734656 4.10145,-2.819683 7.31963,-6.747242 9.71207,-11.083561 0.64402,-1.572481 1.56806,-2.632516 1.96008,-4.926315 z" /></g><g
         id="g6618"
         transform="matrix(-0.19074213,-0.62317939,0.62317939,-0.19074213,52.819537,130.4916)"
         style="opacity:1;stroke-width:1.53441"><path
           style="opacity:1;fill:#3fd640;fill-opacity:1;stroke-width:0.613763;stroke-linecap:round;stroke-linejoin:round;stroke-dashoffset:5.21575"
           d="m 129.40658,37.911547 c -4.46529,-2.150237 -9.79128,-2.498335 -14.64654,-2.156412 -4.45696,0.313874 -8.95723,1.293628 -12.99391,3.389485 -5.102582,2.649279 -10.620541,7.001964 -13.005397,10.604815 -3.080325,4.65351 -4.092379,7.180407 -5.31291,10.704238 2.77735,0.769829 4.061026,1.250565 6.119848,1.557766 4.690944,0.699946 9.558037,0.62643 14.197339,-0.365306 3.95074,-0.844543 7.78499,-2.436959 11.22485,-4.572384 4.89927,-3.76061 9.5177,-8.230068 12.23021,-13.825907 0.81813,-1.68777 1.51977,-3.584177 2.18651,-5.336295 z"
           id="path6612"
           sodipodi:nodetypes="cssscsscsc" /><path
           style="opacity:1;fill:url(#linearGradient6620);fill-opacity:1;stroke-width:0.613763;stroke-linecap:round;stroke-linejoin:round;stroke-dashoffset:5.21575"
           d="m 84.239141,59.777542 c 1.562869,-3.345057 2.974649,-6.836171 5.462585,-9.630128 8.017666,-8.614791 17.138154,-12.961998 28.066554,-11.665151 2.39158,0.181347 5.20632,0.588854 7.47451,1.415312 -0.37782,2.390505 -1.32754,3.458339 -1.9844,5.062163 -2.39244,4.336324 -5.61053,8.263571 -9.71199,11.083257 -8.75921,5.121172 -20.629517,7.818123 -29.307259,3.734547 z"
           id="path6614"
           sodipodi:nodetypes="ccccccc" /><path
           id="path6616"
           style="opacity:1;fill:#227823;fill-opacity:1;stroke-width:0.613763;stroke-linecap:round;stroke-linejoin:round;stroke-dashoffset:5.21575"
           d="M 125.21871,40.033215 84.273926,59.703333 c -0.01154,0.02475 -0.02307,0.04968 -0.03462,0.07441 8.677733,4.083571 20.548054,1.386511 29.307254,-3.734656 4.10145,-2.819683 7.31963,-6.747242 9.71207,-11.083561 0.64402,-1.572481 1.56806,-2.632516 1.96008,-4.926315 z" /></g><g
         id="g16832"><path
           style="opacity:1;fill:#fa0001;fill-opacity:1;stroke-width:0.4;stroke-linecap:round;stroke-linejoin:round;stroke-dashoffset:5.21575"
           d="M 60.292173,152.01981 C 57.318209,151.61714 48.244426,146.78466 43.801778,141.79187 35.949722,133.39581 30.732162,122.7054 28.581321,111.58313 27.101717,103.93192 25.659808,96.652525 27.080617,89.313226 c 1.535401,-6.711919 4.209564,-14.574385 9.638903,-19.434534 5.405918,-4.008299 10.476065,-5.518119 18.39319,-4.157661 6.135998,1.054394 12.008852,3.021883 18.735808,3.021883 6.726956,0 12.651088,-1.703397 18.735808,-3.021883 6.582311,-0.91552 12.319864,-0.851748 18.393194,4.157661 5.42933,4.860149 7.6112,12.710236 9.02875,19.448029 1.53907,7.315412 0.68451,15.167959 -1.20518,22.728339 -2.30815,9.23456 -7.05378,21.34075 -14.90583,29.73681 -4.44265,4.99279 -11.991309,9.15797 -16.647706,9.99198 -3.968945,0.71087 -10.597139,0.54153 -13.399036,-2.39034 -3.037861,2.69591 -9.560699,3.1673 -13.556345,2.6263 z"
           id="path367"
           sodipodi:nodetypes="sssssssccsscscs" /><path
           id="path13752"
           style="opacity:1;fill:#9f0002;fill-opacity:1;stroke-width:0.4;stroke-linecap:round;stroke-linejoin:round;stroke-dashoffset:5.21575"
           d="m 120.77764,96.019979 c -1.65995,3.493058 -3.69831,7.062841 -5.46995,10.163721 -11.57523,20.25992 -18.479514,31.46999 -34.1359,34.45061 -7.850861,1.49462 -19.034557,2.04547 -25.484233,1.57355 -3.480876,-0.2547 -8.762719,-1.14614 -13.238468,-1.9172 0.442185,0.50768 0.892502,1.00892 1.352889,1.5012 4.442643,4.99279 13.515988,9.82513 16.489949,10.2278 3.995642,0.541 10.518937,0.0697 13.556795,-2.62619 2.801895,2.93186 9.429725,3.10142 13.398666,2.39055 4.656392,-0.83401 12.205434,-4.99937 16.648082,-9.99216 7.85204,-8.39605 12.5974,-20.50213 14.90555,-29.73668 1.32394,-5.29692 2.13608,-10.73666 1.97662,-16.035201 z"
           sodipodi:nodetypes="csssccscscsc" /><path
           style="opacity:1;fill:#ffffff;fill-opacity:0.398649;stroke-width:0.4;stroke-linecap:round;stroke-linejoin:round;stroke-dashoffset:5.21575"
           d="m 106.57707,69.058791 c 6.21725,7.031706 11.09311,19.358095 11.7982,29.18088 1.35126,-6.296721 -0.0675,-13.149117 -3.53947,-19.820974 -2.22287,-4.271534 -8.25873,-9.359906 -8.25873,-9.359906 z"
           id="path13757"
           sodipodi:nodetypes="ccsc" /><path
           style="opacity:1;fill:url(#linearGradient16769);fill-opacity:1;stroke-width:0.4;stroke-linecap:round;stroke-linejoin:round;stroke-dashoffset:5.21575"
           d="m 63.395655,74.014035 c 1.900607,2.332642 3.291863,5.358815 6.153195,6.663571 1.734805,0.791065 3.705802,0.974519 5.591123,0.962281 6.240273,-0.04051 10.685303,-1.174472 14.875862,-4.968431 1.762135,-1.595365 2.809174,-4.647564 3.00168,-7.082163 -1.207496,0.35802 -2.3044,1.497002 -3.285896,2.158647 -1.186298,0.956342 -2.322662,1.762884 -3.613224,2.562382 -2.93548,1.81852 -7.293436,3.797709 -10.770489,3.767842 -5.442601,-0.04675 -7.764181,-2.402726 -11.952251,-4.064129 z"
           id="path13759"
           sodipodi:nodetypes="csssccssc" /><path
           style="opacity:1;fill:url(#linearGradient16777);fill-opacity:1;stroke-width:0.4;stroke-linecap:round;stroke-linejoin:round;stroke-dashoffset:5.21575"
           d="m 57.260592,72.834216 c 1.125725,3.733085 -1.687916,6.966675 -3.758153,9.740597 -2.969188,4.176171 -4.491601,9.188587 -5.851501,14.075329 -1.861111,7.117788 -2.365226,14.492098 -2.53604,21.818218 -0.267969,2.64917 -0.792836,6.17547 -3.688749,7.17231 -3.008655,0.68505 -5.629631,-1.88293 -6.974216,-4.31481 -1.818224,-3.67349 -3.032666,-7.6354 -4.052202,-11.59816 -1.967138,-8.60846 -2.093384,-17.807489 0.518338,-26.292893 1.751679,-5.355813 4.619127,-10.853282 9.714211,-13.686322 3.818757,-1.886698 8.607798,-2.761513 12.47572,-0.514983 1.681705,0.7506 3.516367,1.744137 4.152592,3.600714 z"
           id="path15241" /><path
           style="opacity:1;fill:#ffffff;fill-opacity:1;stroke-width:0.4;stroke-linecap:round;stroke-linejoin:round;stroke-dashoffset:5.21575"
           d="m 43.158981,70.188962 c -6.411943,4.196492 -11.176251,12.660272 -11.315315,19.04991 -0.05501,2.527439 -1.37325,7.444336 0.835497,9.583733 2.280983,-2.863144 3.315308,-7.487245 4.454674,-10.989251 1.05415,-3.240082 4.621376,-10.260668 7.35739,-15.694796 0.316418,-0.91398 -0.308105,-1.963487 -1.332246,-1.949596 z"
           id="path15243"
           sodipodi:nodetypes="cscscc" /></g><path
         style="opacity:1;fill:#940001;fill-opacity:1;stroke-width:0.4;stroke-linecap:round;stroke-linejoin:round;stroke-dashoffset:5.21575"
         d="m 62.068844,71.635011 c 0,0 8.555723,5.785706 12.124558,5.672958 6.123936,-0.19347 17.686285,-8.008883 17.686285,-8.008883 0,0 -5.784195,1.668516 -9.454931,2.669626 -3.670739,1.001111 -10.122339,1.334816 -12.12456,1.001113 -2.002222,-0.333703 -8.231352,-1.334814 -8.231352,-1.334814 z"
         id="path9202"
         sodipodi:nodetypes="cscssc" /><g
         id="g9137"><path
           style="opacity:1;fill:#813302;fill-opacity:1;stroke-width:0.4;stroke-linecap:round;stroke-linejoin:round;stroke-dashoffset:5.21575"
           d="m 78.969279,48.765888 10.067795,-5.505826 -11.840339,33.3805 c 0,0 -1.279197,0.500555 -1.890988,0.500555 -0.611788,0 -2.725245,-0.444937 -2.725245,-0.444937 z"
           id="path6706" /><path
           id="rect6760"
           style="opacity:1;fill:#612603;fill-opacity:1;stroke-width:0.4;stroke-linecap:round;stroke-linejoin:round;stroke-dashoffset:5.21575"
           d="m 89.036943,43.259892 -5.09323,2.785359 -9.517248,30.995525 c 0.362861,0.05742 0.693172,0.100252 0.879533,0.100252 0.61179,0 1.89084,-0.500228 1.89084,-0.500228 z" /></g><ellipse
         style="opacity:0.510274;fill:#000000;fill-opacity:1;stroke-width:0.4;stroke-linecap:round;stroke-linejoin:round;stroke-dashoffset:5.21575;filter:url(#filter977)"
         id="path421"
         ry="7.0690956"
         rx="37.66288"
         cy="153.14159"
         cx="72.373474" /><ellipse
         style="opacity:0.596886;fill:#000000;fill-opacity:1;stroke-width:0.737075;stroke-linecap:round;stroke-linejoin:round;stroke-dashoffset:5.21575;filter:url(#filter1032)"
         id="ellipse981"
         ry="7.0690956"
         rx="37.66288"
         cy="152.02924"
         cx="72.59594"
         transform="matrix(0.52293971,0,0,0.56317754,34.410172,67.522129)" /></g></g></svg>
