<?xml version="1.0" encoding="UTF-8" standalone="no"?>
<!-- Created with Inkscape (http://www.inkscape.org/) -->

<svg
   width="210mm"
   height="297mm"
   viewBox="0 0 210 297"
   version="1.1"
   id="svg5"
   inkscape:version="1.2 (dc2aedaf03, 2022-05-15)"
   sodipodi:docname="apple.svg"
   xml:space="preserve"
   xmlns:inkscape="http://www.inkscape.org/namespaces/inkscape"
   xmlns:sodipodi="http://sodipodi.sourceforge.net/DTD/sodipodi-0.dtd"
   xmlns:xlink="http://www.w3.org/1999/xlink"
   xmlns="http://www.w3.org/2000/svg"
   xmlns:svg="http://www.w3.org/2000/svg"><sodipodi:namedview
     id="namedview7"
     pagecolor="#ffffff"
     bordercolor="#666666"
     borderopacity="1.0"
     inkscape:showpageshadow="2"
     inkscape:pageopacity="0.0"
     inkscape:pagecheckerboard="0"
     inkscape:deskcolor="#d1d1d1"
     inkscape:document-units="mm"
     showgrid="false"
     inkscape:zoom="0.84096522"
     inkscape:cx="89.777791"
     inkscape:cy="274.08981"
     inkscape:window-width="1920"
     inkscape:window-height="1058"
     inkscape:window-x="-8"
     inkscape:window-y="-8"
     inkscape:window-maximized="1"
     inkscape:current-layer="layer1" /><defs
     id="defs2"><linearGradient
       inkscape:collect="always"
       id="linearGradient14485"><stop
         style="stop-color:#ffbbbc;stop-opacity:0.76322418;"
         offset="0"
         id="stop14481" /><stop
         style="stop-color:#db1b36;stop-opacity:0;"
         offset="1"
         id="stop14483" /></linearGradient><linearGradient
       inkscape:collect="always"
       id="linearGradient14473"><stop
         style="stop-color:#ffab98;stop-opacity:0.86901766;"
         offset="0"
         id="stop14469" /><stop
         style="stop-color:#db1b36;stop-opacity:0;"
         offset="1"
         id="stop14471" /></linearGradient><linearGradient
       inkscape:collect="always"
       id="linearGradient14463"><stop
         style="stop-color:#e57d7d;stop-opacity:0.46599498;"
         offset="0"
         id="stop14459" /><stop
         style="stop-color:#cd0010;stop-opacity:0.37279597;"
         offset="1"
         id="stop14461" /></linearGradient><linearGradient
       inkscape:collect="always"
       id="linearGradient14452"><stop
         style="stop-color:#901102;stop-opacity:0.14105794;"
         offset="0"
         id="stop14448" /><stop
         style="stop-color:#a9141c;stop-opacity:0.7581864;"
         offset="1"
         id="stop14450" /></linearGradient><linearGradient
       inkscape:collect="always"
       id="linearGradient14299"><stop
         style="stop-color:#8d0f02;stop-opacity:0.96221662;"
         offset="0"
         id="stop14295" /><stop
         style="stop-color:#ca151c;stop-opacity:0.31234261;"
         offset="1"
         id="stop14297" /></linearGradient><linearGradient
       inkscape:collect="always"
       id="linearGradient2670"><stop
         style="stop-color:#ff696c;stop-opacity:1;"
         offset="0"
         id="stop2666" /><stop
         style="stop-color:#ce0006;stop-opacity:0.96977323;"
         offset="1"
         id="stop2668" /></linearGradient><radialGradient
       inkscape:collect="always"
       xlink:href="#linearGradient2670"
       id="radialGradient2672"
       cx="104.44188"
       cy="62.596436"
       fx="104.44188"
       fy="62.596436"
       r="15.209249"
       gradientTransform="matrix(0.61407837,1.0607515,-1.0087335,0.58396469,103.44951,-83.329013)"
       gradientUnits="userSpaceOnUse" /><linearGradient
       inkscape:collect="always"
       xlink:href="#linearGradient14299"
       id="linearGradient14301"
       x1="121.13435"
       y1="82.313522"
       x2="114.08487"
       y2="71.746246"
       gradientUnits="userSpaceOnUse" /><filter
       inkscape:collect="always"
       style="color-interpolation-filters:sRGB"
       id="filter14306"
       x="-0.043285148"
       y="-0.14222075"
       width="1.0865703"
       height="1.2844415"><feGaussianBlur
         inkscape:collect="always"
         stdDeviation="0.13332829"
         id="feGaussianBlur14308" /></filter><filter
       inkscape:collect="always"
       style="color-interpolation-filters:sRGB"
       id="filter14310"
       x="-0.11375446"
       y="-0.47757551"
       width="1.2275089"
       height="1.955151"><feGaussianBlur
         inkscape:collect="always"
         stdDeviation="0.35035175"
         id="feGaussianBlur14312" /></filter><linearGradient
       inkscape:collect="always"
       xlink:href="#linearGradient14452"
       id="linearGradient14322"
       x1="126.80732"
       y1="70.300209"
       x2="113.12546"
       y2="81.757355"
       gradientUnits="userSpaceOnUse" /><radialGradient
       inkscape:collect="always"
       xlink:href="#linearGradient14463"
       id="radialGradient14465"
       cx="103.85466"
       cy="60.881046"
       fx="103.85466"
       fy="60.881046"
       r="11.850548"
       gradientTransform="matrix(1.2110845,0.27669199,-0.30664161,1.3421744,-3.9081818,-45.841203)"
       gradientUnits="userSpaceOnUse" /><radialGradient
       inkscape:collect="always"
       xlink:href="#linearGradient14473"
       id="radialGradient14475"
       cx="118.77457"
       cy="60.631706"
       fx="118.77457"
       fy="60.631706"
       r="3.895907"
       gradientTransform="matrix(1.0082524,-0.40427623,0.24231048,0.60431488,-15.360789,71.678138)"
       gradientUnits="userSpaceOnUse" /><radialGradient
       inkscape:collect="always"
       xlink:href="#linearGradient14485"
       id="radialGradient14479"
       gradientUnits="userSpaceOnUse"
       gradientTransform="matrix(-0.72207935,-0.46824799,-0.36959055,0.56994098,212.0115,82.138585)"
       cx="118.31711"
       cy="61.236763"
       fx="118.31711"
       fy="61.236763"
       r="3.895907" /><filter
       inkscape:collect="always"
       style="color-interpolation-filters:sRGB"
       id="filter16096"
       x="-0.031465036"
       y="-0.028303412"
       width="1.0629301"
       height="1.0566068"><feGaussianBlur
         inkscape:collect="always"
         stdDeviation="0.40705013"
         id="feGaussianBlur16098" /></filter></defs><g
     inkscape:label="Layer 1"
     inkscape:groupmode="layer"
     id="layer1"><g
       id="g16118"
       transform="matrix(2.1849705,0,0,2.1849705,-151.97869,-84.458411)"><path
         id="path16087"
         style="opacity:1;fill:#000000;fill-opacity:1;stroke:none;stroke-width:0.264583px;stroke-linecap:butt;stroke-linejoin:miter;stroke-opacity:1;filter:url(#filter16096)"
         d="m 120.99313,49.347375 c -2.12581,-0.02478 -3.86647,1.443764 -5.32215,2.458765 -0.79892,0.46049 -1.25735,0.673816 -1.70326,0.86403 0.005,-0.583241 0.003,-1.177957 -0.008,-1.780253 -0.21899,-0.281562 -0.63307,-0.503633 -1.05162,-0.489376 -0.32553,0.01109 -0.65382,0.164898 -0.89503,0.54467 0.37057,3.261034 0.41156,5.896012 0.34313,7.818127 -2.35176,-1.002478 -6.58821,-1.345599 -9.84953,0.345716 -4.062248,2.568358 -5.283178,6.540262 -5.52576,9.63507 -0.308293,3.933141 1.153969,8.517542 4.16874,11.090279 3.37407,2.87937 7.81007,4.196265 12.03441,4.011642 4.08252,-0.178425 8.99362,-2.343371 11.24737,-4.876705 2.49282,-2.724679 3.83545,-7.905196 3.50831,-10.727511 -0.44944,-3.877416 -2.795,-8.223618 -6.82128,-9.578743 -2.96626,-0.998354 -6.03577,-0.341299 -7.44968,0.07441 0.12534,-1.440931 0.24022,-3.198646 0.28319,-5.114933 1.02017,0.855825 2.92731,2.349584 4.34547,2.828768 1.61594,0.54601 3.47371,-0.512445 5.117,-0.05529 0.93433,0.259923 2.47478,1.529105 2.47478,1.529105 0,0 -1.59374,-3.684655 -3.11454,-4.866369 -0.17657,-0.137203 -0.3626,-0.26106 -0.55655,-0.373104 1.10451,-0.470692 2.20886,-0.780669 3.56826,-0.525549 1.72772,0.811189 -1.63996,-1.741404 -1.88723,-1.836064 -1.04222,-0.689565 -2.00872,-0.966221 -2.90628,-0.976685 z"
         inkscape:label="shadow" /><path
         style="fill:#68c632;fill-opacity:1;stroke:none;stroke-width:0.264583px;stroke-linecap:butt;stroke-linejoin:miter;stroke-opacity:1"
         d="m 113.37575,52.919807 c 0.70724,-0.301381 1.15399,-0.455713 2.29505,-1.11341 2.07031,-1.443559 4.71785,-3.805004 8.2285,-1.482257 0.24727,0.09466 3.61507,2.647333 1.88735,1.836143 -1.71019,-0.320954 -3.01665,0.251561 -4.4277,0.91466 -2.46226,0.631829 -5.89691,1.085556 -7.9832,-0.155136 z"
         id="path14626"
         sodipodi:nodetypes="cccccc" /><path
         id="path14628"
         style="fill:#619d3f;fill-opacity:1;stroke:none;stroke-width:0.264583px;stroke-linecap:butt;stroke-linejoin:miter;stroke-opacity:1"
         d="m 120.99313,49.347375 c -2.12581,-0.02478 -3.86647,1.443764 -5.32215,2.458765 -1.14106,0.657696 -1.58823,0.812247 -2.29547,1.113627 0.13579,0.08075 0.27768,0.154359 0.42426,0.221175 0.81311,-0.141609 1.6301,-0.449817 2.16214,-0.666109 0.72344,-0.294101 2.98962,-2.025155 4.69946,-2.057755 1.89424,-0.03611 3.55315,0.584952 5.36973,1.654519 0.58338,0.296486 -1.27826,-1.221584 -2.13169,-1.747537 -1.04222,-0.689565 -2.00872,-0.966221 -2.90628,-0.976685 z"
         sodipodi:nodetypes="scccssccs" /><path
         style="opacity:1;fill:#6ed236;fill-opacity:1;stroke:none;stroke-width:0.264583px;stroke-linecap:butt;stroke-linejoin:miter;stroke-opacity:1"
         d="m 113.23671,53.003233 c 0,0 3.03397,2.763296 5.06117,3.448269 1.61594,0.546011 3.47349,-0.512771 5.11678,-0.05562 0.93433,0.259923 2.47497,1.529474 2.47497,1.529474 0,0 -1.59377,-3.684793 -3.11457,-4.866508 -1.11798,-0.86871 -2.62211,-1.20813 -4.03225,-1.334815 -1.84619,-0.16586 -5.5061,1.2792 -5.5061,1.2792 z"
         id="path14681"
         sodipodi:nodetypes="csscssc" /><path
         style="fill:#ae0007;fill-opacity:1;stroke:none;stroke-width:0.264583px;stroke-linecap:butt;stroke-linejoin:miter;stroke-opacity:1"
         d="m 112.86466,59.004491 c -2.20233,-1.17982 -6.84631,-1.716655 -10.35797,0.104487 -4.062253,2.568361 -5.282913,6.540384 -5.525495,9.635195 -0.308294,3.933145 1.153923,8.517567 4.168695,11.090307 3.37408,2.879372 7.80982,4.19601 12.03416,4.011387 4.08253,-0.178425 8.99387,-2.343251 11.24762,-4.876588 2.49282,-2.724682 3.83542,-7.90532 3.50828,-10.727637 -0.44944,-3.87742 -2.79478,-8.223633 -6.82107,-9.578759 -4.02628,-1.355126 -8.25422,0.341608 -8.25422,0.341608 z"
         id="path555"
         sodipodi:nodetypes="ccssacszc" /><path
         style="fill:url(#radialGradient2672);fill-opacity:1;stroke:none;stroke-width:0.258289px;stroke-linecap:butt;stroke-linejoin:miter;stroke-opacity:1"
         d="m 112.85655,59.328992 c -2.15769,-1.14762 -6.70755,-1.669803 -10.14805,0.101636 -3.979918,2.498264 -5.17584,6.361881 -5.413506,9.372226 -0.302045,3.825801 1.130538,8.285103 4.084206,10.787626 3.3057,2.800787 7.65154,4.08149 11.79027,3.901906 3.99979,-0.173555 8.81159,-2.279298 11.01966,-4.743494 2.4423,-2.650319 3.75769,-7.689563 3.43719,-10.434853 -0.44034,-3.771595 -2.73815,-7.999189 -6.68284,-9.317331 -3.94467,-1.318141 -8.08693,0.332285 -8.08693,0.332284 z"
         id="path2664"
         sodipodi:nodetypes="ccssacszc" /><path
         style="opacity:1;fill:#c32c2f;fill-opacity:0.786469;stroke:none;stroke-width:0.264583px;stroke-linecap:butt;stroke-linejoin:miter;stroke-opacity:1;filter:url(#filter14306)"
         d="m 109.29065,59.698888 c -1.65175,0.314616 0.98977,1.801203 3.10686,2.005692 2.34275,0.226285 4.8644,-0.979433 3.26416,-1.533767 -2.46953,-0.855461 -5.15188,-0.786544 -6.37102,-0.471925 z"
         id="path2674"
         sodipodi:nodetypes="cssc" /><path
         id="path4194"
         style="fill:#a4121b;fill-opacity:0.676533;stroke:none;stroke-width:0.264583px;stroke-linecap:butt;stroke-linejoin:miter;stroke-opacity:1"
         d="m 108.78716,59.97205 c -0.20478,0.539688 1.87781,1.565388 3.61011,1.732711 2.01778,0.194896 4.16829,-0.672683 3.70365,-1.27124 -1.1562,0.466409 -2.19126,0.630763 -3.15278,0.563273 -1.48297,-0.104092 -2.58328,-0.285833 -4.16098,-1.024744 z" /><path
         id="path15166"
         style="fill:#6ab73f;fill-opacity:1;stroke:none;stroke-width:0.264583px;stroke-linecap:butt;stroke-linejoin:miter;stroke-opacity:1"
         d="m 118.18038,51.704854 c -1.9377,0.022 -4.91607,1.270631 -4.91607,1.270631 0,0 0.21479,-0.213837 0.60006,0.168041 1.12506,-0.06107 2.70103,-0.123304 3.65507,-0.05684 1.60384,0.111726 3.0748,0.126884 4.50464,0.861963 0.95398,0.490442 2.29997,1.72945 3.22771,2.645317 -0.60406,-1.178128 -1.55292,-2.817252 -2.47686,-3.535185 -1.11797,-0.868709 -2.62217,-1.208118 -4.03231,-1.334802 -0.17308,-0.01555 -0.36178,-0.0214 -0.56224,-0.01912 z"
         sodipodi:nodetypes="sccsscsss" /><path
         id="path7869"
         style="fill:#9e3b00;fill-opacity:0.786469;stroke:none;stroke-width:0.264583px;stroke-linecap:butt;stroke-linejoin:miter;stroke-opacity:1"
         d="m 112.90835,50.400541 c -0.32553,0.01109 -0.65382,0.164898 -0.89503,0.54467 0.62321,5.484249 0.31555,9.198795 0.11989,10.72751 0.0885,0.01259 0.17695,0.02362 0.26406,0.03204 0.31868,0.03078 0.64055,0.03457 0.95498,0.01757 0.22452,-1.759205 0.69289,-6.062645 0.60772,-10.832414 -0.21899,-0.281562 -0.63307,-0.503633 -1.05162,-0.489376 z" /><path
         id="path14202"
         style="fill:#6e2900;fill-opacity:0.786469;stroke:none;stroke-width:0.264583px;stroke-linecap:butt;stroke-linejoin:miter;stroke-opacity:1"
         d="m 113.961,50.990169 c -0.81481,2.441058 0.12148,6.374073 -1.58078,10.712525 0.006,5.63e-4 0.0114,0.0015 0.0171,0.0021 0.3185,0.03076 0.6402,0.03454 0.95447,0.01757 0.2229,-1.747281 0.68612,-6.003043 0.60926,-10.732162 z" /><path
         id="path14271"
         style="fill:#892f2f;fill-opacity:0.524313;stroke:none;stroke-width:0.264583px;stroke-linecap:butt;stroke-linejoin:miter;stroke-opacity:1;filter:url(#filter14310)"
         d="m 108.78716,59.97205 c -0.20478,0.539688 1.87781,1.565388 3.61011,1.732711 2.01778,0.194896 4.16829,-0.672683 3.70365,-1.27124 -1.1562,0.466409 -2.19126,0.630763 -3.15278,0.563273 -1.48297,-0.104092 -2.58328,-0.285833 -4.16098,-1.024744 z" /><path
         id="path14293"
         style="fill:url(#linearGradient14301);fill-opacity:1;stroke:none;stroke-width:0.264583px;stroke-linecap:butt;stroke-linejoin:miter;stroke-opacity:1"
         d="m 123.74749,60.613871 c -0.13191,2.783399 -0.56946,8.275669 -2.00143,10.075871 -2.99685,3.767457 -6.74766,5.323581 -10.06657,5.728333 -4.87928,0.59504 -9.80062,-0.316672 -12.569777,-2.16886 -0.463064,-0.309726 -0.936949,-0.621385 -1.412834,-0.930176 0.613017,2.430145 1.856903,4.724729 3.682461,6.271452 3.3057,2.800784 7.65125,4.081671 11.78998,3.902087 3.99979,-0.173555 8.81193,-2.279703 11.02,-4.743896 2.4423,-2.650317 3.7575,-7.689218 3.437,-10.434506 -0.32268,-2.763811 -1.64413,-5.771082 -3.87883,-7.700305 z" /><path
         id="path14314"
         style="fill:url(#linearGradient14322);fill-opacity:1;stroke:none;stroke-width:0.264583px;stroke-linecap:butt;stroke-linejoin:miter;stroke-opacity:1"
         d="m 127.51418,71.105737 c -3.34617,6.242179 -7.79537,9.269341 -11.10733,10.373527 -4.17817,1.552228 -10.90834,1.302323 -16.36644,-3.279903 0.40431,0.509208 0.85044,0.977249 1.33893,1.39113 3.3057,2.800784 7.65125,4.081671 11.78998,3.902087 3.99979,-0.173555 8.81193,-2.279703 11.02,-4.743896 1.74766,-1.896513 2.91778,-5.015795 3.32486,-7.642945 z" /><path
         style="fill:url(#radialGradient14465);fill-opacity:1;stroke:none;stroke-width:0.264583px;stroke-linecap:butt;stroke-linejoin:miter;stroke-opacity:1"
         d="m 104.28233,60.289092 c -2.08044,0.09204 -3.4853,0.570801 -3.72636,4.616231 0.35309,3.997869 5.78544,6.972139 9.39931,7.230241 1.96619,0.133769 7.67056,-1.389788 9.39932,-2.335926 1.92094,-1.051317 3.9086,-3.743411 3.11457,-5.784191 -0.6548,-1.682928 -3.43659,-2.441498 -5.11679,-1.779751 -1.54953,0.610282 -3.50289,0.225293 -4.61623,0.556172 -2.99186,0.04685 -5.56907,-1.644774 -8.45382,-2.502776 z"
         id="path14457"
         sodipodi:nodetypes="cccssscc" /><path
         style="fill:url(#radialGradient14475);fill-opacity:1;stroke:none;stroke-width:0.264583px;stroke-linecap:butt;stroke-linejoin:miter;stroke-opacity:1"
         d="m 114.32454,59.226957 3.89341,-0.393271 c 0,0 2.55565,0.04602 3.38215,0.865201 0.47201,0.467827 0.6896,1.07817 0.35395,1.651748 -0.42395,0.724467 -2.66081,0.697321 -3.50014,0.707892 -2.17515,0.02739 -5.45016,1.997971 -1.37645,-1.769731 0.79456,-0.734874 -2.75292,-1.061839 -2.75292,-1.061839 z"
         id="path14467"
         sodipodi:nodetypes="ccssssc" /><path
         style="opacity:1;fill:url(#radialGradient14479);fill-opacity:1;stroke:none;stroke-width:0.264583px;stroke-linecap:butt;stroke-linejoin:miter;stroke-opacity:1"
         d="m 108.39111,58.794357 c -2.33699,-0.265298 -5.19797,0.489349 -6.92161,2.045023 -0.472,0.467827 -1.40025,1.694879 -1.02251,2.241658 0.9352,1.353704 3.68671,1.71157 5.26986,1.848384 3.23373,0.279454 8.83231,-1.22687 2.83156,-3.539461 -1.0099,-0.389197 -0.1573,-2.595604 -0.1573,-2.595604 z"
         id="path14477"
         sodipodi:nodetypes="ccsssc" /><path
         style="fill:#fea664;fill-opacity:0.524313;stroke:none;stroke-width:0.264583px;stroke-linecap:butt;stroke-linejoin:miter;stroke-opacity:1"
         d="m 112.12436,50.889776 c 0,0 0.39839,0.602071 1.72414,0.08342 0,0 -0.61854,-1.107073 -1.72414,-0.08342 z"
         id="path14532"
         sodipodi:nodetypes="sss" /></g></g></svg>
