<?xml version="1.0" encoding="UTF-8" standalone="no"?>
<!-- Created with Inkscape (http://www.inkscape.org/) -->

<svg
   width="210mm"
   height="297mm"
   viewBox="0 0 210 297"
   version="1.1"
   id="svg5"
   inkscape:version="1.2 (dc2aedaf03, 2022-05-15)"
   sodipodi:docname="barbell.svg"
   xmlns:inkscape="http://www.inkscape.org/namespaces/inkscape"
   xmlns:sodipodi="http://sodipodi.sourceforge.net/DTD/sodipodi-0.dtd"
   xmlns="http://www.w3.org/2000/svg"
   xmlns:svg="http://www.w3.org/2000/svg">
  <sodipodi:namedview
     id="namedview7"
     pagecolor="#ffffff"
     bordercolor="#666666"
     borderopacity="1.0"
     inkscape:showpageshadow="2"
     inkscape:pageopacity="0.0"
     inkscape:pagecheckerboard="0"
     inkscape:deskcolor="#d1d1d1"
     inkscape:document-units="mm"
     showgrid="false"
     inkscape:zoom="3.5705387"
     inkscape:cx="333.28304"
     inkscape:cy="198.28941"
     inkscape:window-width="2560"
     inkscape:window-height="1377"
     inkscape:window-x="1912"
     inkscape:window-y="-8"
     inkscape:window-maximized="1"
     inkscape:current-layer="layer1" />
  <defs
     id="defs2">
    <inkscape:path-effect
       effect="bend_path"
       id="path-effect12949"
       is_visible="true"
       lpeversion="1"
       bendpath="m 40.328697,85.826656 c 25.012896,-15.42612 45.384745,-10.929068 64.258273,0"
       prop_scale="1"
       scale_y_rel="false"
       vertical="false"
       hide_knot="false"
       bendpath-nodetypes="cc" />
    <inkscape:path-effect
       effect="bend_path"
       id="path-effect12827"
       is_visible="true"
       lpeversion="1"
       bendpath="m 40.328697,85.826656 c 25.012896,-15.42612 45.384745,-10.929068 64.258273,0"
       prop_scale="1"
       scale_y_rel="false"
       vertical="false"
       hide_knot="false"
       bendpath-nodetypes="cc" />
    <inkscape:path-effect
       effect="bend_path"
       id="path-effect12781"
       is_visible="true"
       lpeversion="1"
       bendpath="M 40.328697,89.913933 H 152.41372"
       prop_scale="1"
       scale_y_rel="false"
       vertical="false"
       hide_knot="false" />
  </defs>
  <g
     inkscape:label="Layer 1"
     inkscape:groupmode="layer"
     id="layer1">
    <g
       id="g1689">
      <ellipse
         style="display:inline;fill:#ff2c00;fill-opacity:1;fill-rule:evenodd;stroke-width:0.103761"
         id="path12779"
         cx="55.072739"
         cy="45.484245"
         rx="21.860291"
         ry="21.021925" />
      <path
         id="path12892"
         style="fill:#9b9b9b;fill-opacity:0.32653061;stroke:none;stroke-width:0.132564px;stroke-linecap:butt;stroke-linejoin:miter;stroke-opacity:1"
         d="M 46.077808 40.51639 L 46.730998 44.524414 C 44.420536 46.464174 42.045167 47.001528 39.22913 47.955729 L 57.04303 66.410933 A 21.860291 21.021925 0 0 0 76.702812 48.499365 L 69.897542 41.619165 C 69.948142 44.536586 69.655884 46.812262 67.367464 48.800639 L 63.803857 44.716134 L 59.571041 43.60199 L 52.999866 42.971021 L 49.571651 43.632996 L 46.077808 40.51639 z " />
      <g
         id="g12825"
         transform="matrix(0.50059994,0,0,0.50059994,18.853106,5.0791761)"
         class="UnoptimicedTransforms"
         style="display:inline">
        <path
           id="path8324"
           style="fill:#8c8d95;fill-opacity:1;fill-rule:evenodd;stroke-width:0.112119"
           d="m 43.002117,72.584837 c -2.671015,1.275445 -2.476857,6.506363 0.304493,11.494065 2.78135,4.987702 6.625127,8.144569 8.625065,7.187337 0.65459,-0.3133 1.312021,-0.615233 1.971773,-0.904927 L 45.654129,71.380103 c -0.893604,0.385401 -1.777781,0.78727 -2.652012,1.204734 z"
           sodipodi:nodetypes="cccccc" />
        <path
           id="ellipse8326"
           d="m 54.138755,79.152903 c 1.893814,5.358131 1.631422,10.388954 -0.229765,11.205984 -1.879556,0.825094 -5.746205,-2.406541 -8.357311,-7.483157 -2.609321,-5.073145 -2.76093,-10.261064 0.109948,-11.498872 2.888808,-1.245538 6.581969,2.414109 8.477128,7.776045 z"
           style="fill:#413e56;fill-opacity:1;fill-rule:evenodd;stroke-width:0.112119" />
        <path
           id="path8320"
           style="fill:#8c8d95;fill-opacity:1;fill-rule:evenodd;stroke-width:0.112119"
           d="m 46.045373,71.212673 c -2.738564,1.162763 -2.760335,6.400951 -0.170309,11.497725 2.590026,5.096775 6.299205,8.399212 8.316946,7.525054 0.660418,-0.286109 1.323081,-0.559853 1.987471,-0.820358 L 48.761931,70.12158 c -0.914525,0.346521 -1.820217,0.71051 -2.716558,1.091093 z"
           sodipodi:nodetypes="cccccc" />
        <path
           id="ellipse8322"
           d="m 56.89539,78.249324 c 1.639252,5.426627 1.15468,10.432545 -0.710326,11.163589 -1.885189,0.738956 -5.610067,-2.636675 -8.0181,-7.817386 -2.405969,-5.176272 -2.340943,-10.36189 0.602645,-11.476867 2.963195,-1.122404 6.485043,2.699115 8.125781,8.130664 z"
           style="fill:#413e56;fill-opacity:1;fill-rule:evenodd;stroke-width:0.112119" />
        <path
           id="path739"
           style="fill:#8c8d95;fill-opacity:1;fill-rule:evenodd;stroke-width:0.0949644"
           d="m 50.292125,71.239897 c -2.332239,0.847694 -2.589662,5.255054 -0.650567,9.690626 1.939095,4.435571 4.930982,7.393367 6.703824,6.727545 0.580263,-0.21792 1.162021,-0.425887 1.74496,-0.623372 L 52.599306,70.445612 c -0.774663,0.251886 -1.543829,0.516824 -2.307181,0.794285 z"
           sodipodi:nodetypes="cccccc" />
        <path
           id="ellipse5983"
           d="m 59.137795,77.619061 c 1.207022,4.642452 0.613057,8.853277 -1.042583,9.413993 -1.668966,0.56523 -4.667407,-2.44497 -6.463918,-6.935448 -1.79523,-4.487274 -1.507293,-8.84741 0.974479,-9.654106 2.494727,-0.810908 5.324088,2.529604 6.532022,7.175561 z"
           style="fill:#413e56;fill-opacity:1;fill-rule:evenodd;stroke-width:0.0949644" />
        <path
           id="ellipse8318"
           d="m 55.901308,78.55884 c 0.215686,0.672688 0.146188,1.296623 -0.14875,1.394512 -0.294979,0.0979 -0.723086,-0.36113 -0.95142,-1.030485 -0.22833,-0.669345 -0.165354,-1.296512 0.147289,-1.399665 0.312685,-0.103167 0.737192,0.362939 0.952881,1.035638 z"
           style="fill:#ffffff;fill-opacity:1;fill-rule:evenodd;stroke-width:0.013911" />
        <path
           id="path12704"
           style="fill:#8c8d95;fill-opacity:1;fill-rule:evenodd;stroke-width:0.112119"
           d="m 101.5486,72.572229 c 2.63874,1.222762 2.50484,6.426979 -0.17372,11.470658 -2.678554,5.043678 -6.504481,8.25189 -8.556953,7.291694 -0.671786,-0.31427 -1.344325,-0.617848 -2.017348,-0.909623 L 98.92846,71.411261 c 0.883001,0.373386 1.75647,0.760746 2.62014,1.160968 z"
           sodipodi:nodetypes="cccccc" />
        <path
           id="ellipse12706"
           transform="scale(-1,1)"
           d="m -90.504418,79.21433 c 1.89134,5.35141 1.621789,10.379337 -0.290508,11.208182 -1.949467,0.844955 -5.907017,-2.689226 -8.31445,-7.543209 -2.535294,-5.111783 -2.629204,-10.280091 0.188325,-11.47119 2.845215,-1.202805 6.523317,2.449216 8.416633,7.806217 z"
           style="fill:#413e56;fill-opacity:1;fill-rule:evenodd;stroke-width:0.112119" />
        <path
           id="path12708"
           style="fill:#8c8d95;fill-opacity:1;fill-rule:evenodd;stroke-width:0.112119"
           d="m 98.541837,71.248923 c 2.706293,1.128263 2.760183,6.339226 0.241922,11.469722 -2.518263,5.130497 -6.220755,8.460405 -8.277432,7.579515 -0.673159,-0.288312 -1.346765,-0.564659 -2.020552,-0.827931 l 7.370524,-19.285662 c 0.904496,0.33991 1.799764,0.695066 2.685538,1.064356 z"
           sodipodi:nodetypes="cccccc" />
        <path
           id="ellipse12710"
           transform="scale(-1,1)"
           d="m -87.752406,78.308337 c 1.650684,5.416716 1.173589,10.41699 -0.727715,11.159687 -1.931118,0.754345 -5.638674,-2.63536 -8.000352,-7.837666 -2.359019,-5.196452 -2.263309,-10.361022 0.631758,-11.448656 2.92422,-1.098585 6.443629,2.70337 8.096309,8.126635 z"
           style="fill:#413e56;fill-opacity:1;fill-rule:evenodd;stroke-width:0.112119" />
        <path
           id="path12712"
           style="fill:#8c8d95;fill-opacity:1;fill-rule:evenodd;stroke-width:0.0949644"
           d="m 94.338755,71.307822 c 2.31067,0.836179 2.572934,5.225449 0.663234,9.669208 -1.909699,4.443757 -4.902853,7.406105 -6.693663,6.734468 -0.586146,-0.219825 -1.172849,-0.429865 -1.759948,-0.629446 l 5.503491,-16.561324 c 0.768243,0.250812 1.530592,0.513402 2.286886,0.787094 z"
           sodipodi:nodetypes="cccccc" />
        <path
           id="ellipse12714"
           transform="scale(-1,1)"
           d="m -85.514439,77.67173 c 1.223587,4.634714 0.642996,8.840429 -1.029033,9.408659 -1.691039,0.574689 -4.685661,-2.433281 -6.466871,-6.926236 -1.779655,-4.489033 -1.487416,-8.83516 0.964888,-9.635532 2.470897,-0.80644 5.306291,2.514081 6.531016,7.153109 z"
           style="fill:#413e56;fill-opacity:1;fill-rule:evenodd;stroke-width:0.0949644" />
        <path
           id="ellipse12716"
           transform="scale(-1,1)"
           d="m -88.744604,78.619511 c 0.216531,0.671477 0.148036,1.29477 -0.146876,1.393034 -0.29497,0.09828 -0.722981,-0.359828 -0.951466,-1.028178 -0.228481,-0.668338 -0.166138,-1.294669 0.145499,-1.397902 0.311696,-0.103252 0.736308,0.361557 0.952843,1.033046 z"
           style="fill:#ffffff;fill-opacity:1;fill-rule:evenodd;stroke-width:0.013911" />
        <path
           id="rect12722"
           d="m 54.936233,77.525569 c 6.401395,-2.113436 13.114932,-3.206359 19.891806,-2.860719 5.104848,0.281071 10.092065,1.33485 14.906848,2.932879 l -0.808084,2.427758 c -4.629859,-1.54564 -9.393001,-2.556421 -14.234624,-2.803886 -6.409116,-0.355028 -12.808934,0.696345 -18.950651,2.736068 z"
           style="fill:#ffffff;fill-opacity:1;fill-rule:evenodd;stroke-width:0.236709" />
        <g
           id="g12741"
           transform="matrix(0.71610164,0,0,0.71610164,11.449251,21.439383)">
          <path
             id="ellipse12731"
             d="m 41.585207,89.150456 c 0.507377,0.847554 0.60956,1.718368 0.236208,1.944862 -0.373385,0.226514 -1.099761,-0.265059 -1.618476,-1.103654 -0.518716,-0.838595 -0.629736,-1.711517 -0.239699,-1.949619 0.390068,-0.238121 1.114592,0.260859 1.621967,1.108411 z"
             style="fill:#ffffff;fill-opacity:1;fill-rule:evenodd;stroke-width:0.019426" />
          <path
             id="rect12733"
             style="fill:#ffffff;fill-opacity:1;fill-rule:evenodd;stroke-width:0.120623"
             d="m 39.919232,88.066122 1.861093,3.055022 c 1.193359,-0.72466 2.401948,-1.427924 3.624505,-2.107668 -0.314152,-0.497408 -0.622131,-1.010261 -0.917803,-1.540478 -0.296267,-0.531284 -0.570305,-1.062102 -0.827376,-1.592657 -1.262981,0.704719 -2.510209,1.434021 -3.740419,2.185781 z" />
        </g>
        <g
           id="g12747"
           transform="matrix(-0.71610164,0,0,0.71610164,133.46642,21.438906)">
          <path
             id="ellipse12743"
             d="m 41.862594,89.038028 c 0.484633,0.860969 0.563024,1.734768 0.181311,1.951798 -0.381773,0.217064 -1.093819,-0.29593 -1.587221,-1.149969 -0.493399,-0.854035 -0.578678,-1.729687 -0.183977,-1.955492 0.39476,-0.225839 1.105252,0.292689 1.589887,1.153663 z"
             style="fill:#ffffff;fill-opacity:1;fill-rule:evenodd;stroke-width:0.019426" />
          <path
             id="path12745"
             style="fill:#ffffff;fill-opacity:1;fill-rule:evenodd;stroke-width:0.120623"
             d="m 40.228178,87.907094 1.773754,3.107478 c 1.218302,-0.693222 2.447781,-1.369708 3.687788,-2.026753 -0.304106,-0.503686 -0.601501,-1.022603 -0.886323,-1.558798 -0.285339,-0.537169 -0.548543,-1.073564 -0.794851,-1.609126 -1.27314,0.676648 -2.533479,1.373283 -3.780368,2.087199 z" />
        </g>
      </g>
    </g>
  </g>
</svg>
