<?xml version="1.0" encoding="UTF-8" standalone="no"?>
<!-- Created with Inkscape (http://www.inkscape.org/) -->

<svg
   width="210mm"
   height="297mm"
   viewBox="0 0 210 297"
   version="1.1"
   id="svg5"
   xml:space="preserve"
   inkscape:version="1.2.1 (9c6d41e410, 2022-07-14)"
   sodipodi:docname="beach-ball.svg"
   xmlns:inkscape="http://www.inkscape.org/namespaces/inkscape"
   xmlns:sodipodi="http://sodipodi.sourceforge.net/DTD/sodipodi-0.dtd"
   xmlns:xlink="http://www.w3.org/1999/xlink"
   xmlns="http://www.w3.org/2000/svg"
   xmlns:svg="http://www.w3.org/2000/svg"><sodipodi:namedview
     id="namedview7"
     pagecolor="#ffffff"
     bordercolor="#666666"
     borderopacity="1.0"
     inkscape:showpageshadow="2"
     inkscape:pageopacity="0.0"
     inkscape:pagecheckerboard="0"
     inkscape:deskcolor="#d1d1d1"
     inkscape:document-units="mm"
     showgrid="false"
     inkscape:zoom="0.83610817"
     inkscape:cx="-25.714376"
     inkscape:cy="476.01496"
     inkscape:window-width="2560"
     inkscape:window-height="1377"
     inkscape:window-x="1272"
     inkscape:window-y="-8"
     inkscape:window-maximized="1"
     inkscape:current-layer="layer1" /><defs
     id="defs2"><linearGradient
       inkscape:collect="always"
       id="linearGradient21280"><stop
         style="stop-color:#000000;stop-opacity:1;"
         offset="0"
         id="stop21276" /><stop
         style="stop-color:#f4f4f4;stop-opacity:0;"
         offset="1"
         id="stop21278" /></linearGradient><linearGradient
       inkscape:collect="always"
       id="linearGradient21247"><stop
         style="stop-color:#ffffff;stop-opacity:0.71847504;"
         offset="0"
         id="stop21243" /><stop
         style="stop-color:#fafafa;stop-opacity:0.03519062;"
         offset="1"
         id="stop21245" /></linearGradient><linearGradient
       inkscape:collect="always"
       id="linearGradient20823"><stop
         style="stop-color:#000000;stop-opacity:1;"
         offset="0"
         id="stop20819" /><stop
         style="stop-color:#0076b4;stop-opacity:0;"
         offset="1"
         id="stop20821" /></linearGradient><linearGradient
       inkscape:collect="always"
       id="linearGradient17390"><stop
         style="stop-color:#783815;stop-opacity:0.34310853;"
         offset="0"
         id="stop17386" /><stop
         style="stop-color:#ffc9aa;stop-opacity:0.81231672;"
         offset="1"
         id="stop17388" /></linearGradient><linearGradient
       id="linearGradient2525"
       inkscape:swatch="solid"><stop
         style="stop-color:#a63151;stop-opacity:1;"
         offset="0"
         id="stop2523" /></linearGradient><linearGradient
       inkscape:collect="always"
       xlink:href="#linearGradient17390"
       id="linearGradient17392"
       x1="140.32715"
       y1="19.825552"
       x2="141.55722"
       y2="-5.7908535"
       gradientUnits="userSpaceOnUse" /><linearGradient
       inkscape:collect="always"
       xlink:href="#linearGradient20823"
       id="linearGradient20825"
       x1="72.76796"
       y1="137.68114"
       x2="97.814377"
       y2="109.52246"
       gradientUnits="userSpaceOnUse" /><radialGradient
       inkscape:collect="always"
       xlink:href="#linearGradient21247"
       id="radialGradient21249"
       cx="135.03041"
       cy="37.494221"
       fx="135.03041"
       fy="37.494221"
       r="22.590477"
       gradientTransform="matrix(1,0,0,0.78004901,0,8.2468908)"
       gradientUnits="userSpaceOnUse" /><filter
       inkscape:collect="always"
       style="color-interpolation-filters:sRGB"
       id="filter21254"
       x="-0.16203892"
       y="-0.35510357"
       width="1.3240778"
       height="1.7102071"><feGaussianBlur
         inkscape:collect="always"
         stdDeviation="2.7160436"
         id="feGaussianBlur21256" /></filter><filter
       inkscape:collect="always"
       style="color-interpolation-filters:sRGB"
       id="filter21258"
       x="-0.10963533"
       y="-0.14054928"
       width="1.2192707"
       height="1.2810986"><feGaussianBlur
         inkscape:collect="always"
         stdDeviation="2.0639285"
         id="feGaussianBlur21260" /></filter><filter
       inkscape:collect="always"
       style="color-interpolation-filters:sRGB"
       id="filter21270"
       x="-0.13092077"
       y="-0.1395912"
       width="1.2618415"
       height="1.2791824"><feGaussianBlur
         inkscape:collect="always"
         stdDeviation="3.9234935"
         id="feGaussianBlur21272" /></filter><radialGradient
       inkscape:collect="always"
       xlink:href="#linearGradient21280"
       id="radialGradient21282"
       cx="109.00449"
       cy="151.4393"
       fx="109.00449"
       fy="151.4393"
       r="47.5"
       gradientTransform="matrix(1,0,0,0.05549169,0,143.03568)"
       gradientUnits="userSpaceOnUse" /><filter
       inkscape:collect="always"
       style="color-interpolation-filters:sRGB"
       id="filter21284"
       x="-0.017125549"
       y="-0.30861466"
       width="1.0342511"
       height="1.6172293"><feGaussianBlur
         inkscape:collect="always"
         stdDeviation="0.67788628"
         id="feGaussianBlur21286" /></filter><filter
       inkscape:collect="always"
       style="color-interpolation-filters:sRGB"
       id="filter21288"
       x="-0.043828149"
       y="-0.043828149"
       width="1.0876563"
       height="1.0876563"><feGaussianBlur
         inkscape:collect="always"
         stdDeviation="1.7348642"
         id="feGaussianBlur21290" /></filter></defs><g
     inkscape:label="Layer 1"
     inkscape:groupmode="layer"
     id="layer1"><g
       id="g21306"
       transform="matrix(0.47595968,0,0,0.47595968,-11.114996,-12.641459)"><ellipse
         style="display:inline;opacity:0.917778;fill:url(#radialGradient21282);fill-opacity:1;fill-rule:evenodd;stroke-width:0.0683118;stroke-dasharray:none;filter:url(#filter21284)"
         id="circle21274"
         cx="109.00449"
         cy="151.4393"
         rx="47.5"
         ry="2.6358552"
         transform="matrix(0.99089048,0,0,1,0.99297843,0)" /><circle
         style="display:inline;opacity:0.44;fill:#000000;fill-opacity:1;fill-rule:evenodd;stroke-width:0.292011;filter:url(#filter21288)"
         id="path2360"
         cx="109.00449"
         cy="104.11377"
         r="47.5" /><path
         id="path2425"
         style="opacity:1;fill:#0076b4;fill-opacity:1;stroke:none;stroke-width:0.264583px;stroke-linecap:butt;stroke-linejoin:miter;stroke-opacity:1"
         inkscape:label="path2425"
         d="M 119.89656,73.953625 C 105.93615,76.579853 65.030417,94.180714 63.155835,116.40168 a 47.5,47.5 0 0 0 36.161617,34.18809 C 110.34535,141.57686 117.90236,88.910125 119.89656,73.953625 Z" /><path
         id="path4043"
         style="opacity:1;fill:#734292;fill-opacity:1;stroke:none;stroke-width:0.265;stroke-linecap:butt;stroke-linejoin:miter;stroke-dasharray:none;stroke-opacity:1"
         d="m 119.88622,74.090568 c -1.74929,12.278675 -6.00932,36.436982 -7.73183,42.697652 -1.97493,7.17812 -5.60408,26.85136 -12.947009,33.75195 1.056689,0.21839 2.114909,0.41345 3.172929,0.59427 a 47.5,47.5 0 0 0 6.62441,0.47956 47.5,47.5 0 0 0 40.6802,-23.02547 c 0.0677,-0.1806 0.13728,-0.35849 0.20361,-0.54157 3.50847,-9.08589 1.85448,-13.63364 -1.61593,-22.48596 -3.65355,-9.31948 -15.6537,-23.55836 -28.38638,-31.470432 z" /><path
         id="path5875"
         style="opacity:1;fill:#f60001;fill-opacity:1;stroke:none;stroke-width:0.264583px;stroke-linecap:butt;stroke-linejoin:miter;stroke-opacity:1"
         d="m 134.58455,71.693298 c -4.00266,0.01549 -8.70072,0.808714 -14.69833,2.39727 5.32341,3.062784 40.27448,32.401782 29.87311,54.379622 a 47.5,47.5 0 0 0 6.74533,-24.35665 47.5,47.5 0 0 0 -10.39368,-29.649868 c -3.53753,-1.854062 -7.10855,-2.787468 -11.52643,-2.770374 z" /><path
         id="path5901"
         style="opacity:1;fill:#f99024;fill-opacity:1;stroke:none;stroke-width:0.264583px;stroke-linecap:butt;stroke-linejoin:miter;stroke-opacity:1"
         d="m 118.49303,57.573747 c 2.05539,6.030828 1.18647,9.14829 1.40353,16.52819 11.44684,-3.72367 20.81228,-2.382131 26.14362,0.274402 A 47.5,47.5 0 0 0 118.49303,57.573747 Z" /><path
         id="path6642"
         style="opacity:1;fill:#ffc61a;fill-opacity:1;stroke:none;stroke-width:0.264583px;stroke-linecap:butt;stroke-linejoin:miter;stroke-opacity:1"
         d="m 109.00472,56.613599 a 47.5,47.5 0 0 0 -28.298535,9.391158 c 16.402309,-6.892099 32.973305,5.344506 39.180035,8.085811 0.56947,-7.144252 0.26835,-12.599415 -1.40663,-16.519405 a 47.5,47.5 0 0 0 -9.47487,-0.957564 z" /><path
         id="path7384"
         style="opacity:1;fill:#87cf3e;fill-opacity:1;stroke:none;stroke-width:0.264583px;stroke-linecap:butt;stroke-linejoin:miter;stroke-opacity:1"
         d="m 91.211487,63.820394 c -5.402284,0 -8.641529,1.555814 -10.507886,2.185913 a 47.5,47.5 0 0 0 -19.199345,38.107233 47.5,47.5 0 0 0 1.655713,12.30364 c 0.04647,0.10865 0.08898,0.21612 0.136426,0.32505 C 66.230673,93.372792 110.24502,75.557599 119.88622,73.985665 106.62957,65.916399 97.473029,63.820394 91.211487,63.820394 Z" /><ellipse
         style="display:inline;opacity:1;fill:#ff7625;fill-opacity:1;fill-rule:evenodd;stroke:none;stroke-width:0.230511"
         id="ellipse12630"
         cx="141.42899"
         cy="8.829217"
         rx="10.054199"
         ry="8.1875086"
         transform="matrix(0.88263281,0.47006311,-0.53616675,0.84411209,0,0)" /><ellipse
         style="display:inline;opacity:1;fill:url(#linearGradient17392);fill-opacity:1;fill-rule:evenodd;stroke:none;stroke-width:0.216709"
         id="path7386"
         cx="141.42899"
         cy="8.829217"
         rx="9.4521875"
         ry="7.6972685"
         transform="matrix(0.88263281,0.47006311,-0.53616675,0.84411209,0,0)" /><ellipse
         style="display:inline;opacity:1;fill:#ff7625;fill-opacity:1;fill-rule:evenodd;stroke:none;stroke-width:0.204469"
         id="ellipse17324"
         cx="141.42899"
         cy="8.829217"
         rx="8.9182787"
         ry="7.2624865"
         transform="matrix(0.88263281,0.47006311,-0.53616675,0.84411209,0,0)" /><path
         id="path20814"
         style="opacity:0.42;fill:url(#linearGradient20825);fill-opacity:1;stroke:none;stroke-width:0.26472831;stroke-linecap:butt;stroke-linejoin:miter;stroke-opacity:1;filter:url(#filter21270);stroke-dasharray:none"
         d="m 65.923625,84.157137 a 47.5,47.5 0 0 0 -4.419369,19.956403 47.5,47.5 0 0 0 47.500464,47.50046 47.5,47.5 0 0 0 24.42383,-6.78718 C 111.29346,141.11105 75.800084,128.22586 65.923625,84.157137 Z" /><ellipse
         style="opacity:0.551111;mix-blend-mode:normal;fill:url(#radialGradient21249);fill-opacity:1;fill-rule:evenodd;stroke-width:0.291066;filter:url(#filter21258)"
         id="path21241"
         cx="135.03041"
         cy="37.494221"
         rx="22.590477"
         ry="17.621679"
         transform="matrix(1.5286678,0.64778358,-0.47337703,2.0918757,-70.88326,-76.047434)" /><path
         id="path21251"
         style="opacity:0.395556;mix-blend-mode:normal;fill:#ffffff;fill-opacity:0.278177;fill-rule:evenodd;stroke:none;stroke-width:0.233655;stroke-dasharray:none;filter:url(#filter21254)"
         transform="matrix(1.3516669,0.71205308,-0.87644819,1.0258372,-54.952644,-35.440901)"
         d="m 157.35739,14.642925 c -0.0493,9.475246 -17.5913,16.688632 -23.78712,16.688631 -6.19582,-4e-6 -18.63663,-8.938371 -16.1059,-14.766896 2.19204,-5.04852 13.93516,1.794223 20.13098,1.794219 6.19582,-1e-6 19.78962,-9.0131132 19.76204,-3.715954 z"
         sodipodi:nodetypes="sssss" /></g></g></svg>
