<?xml version="1.0" encoding="UTF-8" standalone="no"?>
<!-- Created with Inkscape (http://www.inkscape.org/) -->

<svg
   width="210mm"
   height="297mm"
   viewBox="0 0 210 297"
   version="1.1"
   id="svg5"
   inkscape:version="1.2 (dc2aedaf03, 2022-05-15)"
   sodipodi:docname="bee.svg"
   xml:space="preserve"
   xmlns:inkscape="http://www.inkscape.org/namespaces/inkscape"
   xmlns:sodipodi="http://sodipodi.sourceforge.net/DTD/sodipodi-0.dtd"
   xmlns:xlink="http://www.w3.org/1999/xlink"
   xmlns="http://www.w3.org/2000/svg"
   xmlns:svg="http://www.w3.org/2000/svg"><sodipodi:namedview
     id="namedview7"
     pagecolor="#ffffff"
     bordercolor="#666666"
     borderopacity="1.0"
     inkscape:showpageshadow="2"
     inkscape:pageopacity="0.0"
     inkscape:pagecheckerboard="0"
     inkscape:deskcolor="#d1d1d1"
     inkscape:document-units="mm"
     showgrid="false"
     inkscape:zoom="0.4204826"
     inkscape:cx="-550.55785"
     inkscape:cy="412.62111"
     inkscape:window-width="1920"
     inkscape:window-height="1058"
     inkscape:window-x="-8"
     inkscape:window-y="-8"
     inkscape:window-maximized="1"
     inkscape:current-layer="layer1" /><defs
     id="defs2"><linearGradient
       inkscape:collect="always"
       id="linearGradient5560"><stop
         style="stop-color:#777777;stop-opacity:1;"
         offset="0"
         id="stop5556" /><stop
         style="stop-color:#141414;stop-opacity:1;"
         offset="1"
         id="stop5558" /></linearGradient><radialGradient
       inkscape:collect="always"
       xlink:href="#linearGradient5560"
       id="radialGradient5562"
       cx="80.615417"
       cy="147.89189"
       fx="80.615417"
       fy="147.89189"
       r="4.0195083"
       gradientTransform="matrix(1.1766911,-0.30547223,0.2185582,0.84189458,-41.96806,-48.377181)"
       gradientUnits="userSpaceOnUse" /><filter
       inkscape:collect="always"
       style="color-interpolation-filters:sRGB"
       id="filter7703"
       x="-0.089210895"
       y="-0.10017008"
       width="1.1784218"
       height="1.2003402"><feGaussianBlur
         inkscape:collect="always"
         stdDeviation="2.4725163"
         id="feGaussianBlur7705" /></filter></defs><g
     inkscape:label="Layer 1"
     inkscape:groupmode="layer"
     id="layer1"><g
       id="g9458"
       transform="matrix(0.71341461,0,0,0.71341461,6.504703,5.194922)"><rect
         style="fill:#beffbc;fill-opacity:1;stroke:none;stroke-width:0.264999;stroke-linecap:round;stroke-linejoin:round;stroke-dasharray:none;stroke-opacity:1;paint-order:markers stroke fill"
         id="rect7701"
         width="114.04926"
         height="103.19491"
         x="22.69726"
         y="18.126961"
         rx="0.80620956"
         ry="0.21629682" /><path
         id="path7528"
         style="mix-blend-mode:normal;fill:#636363;fill-opacity:1;stroke:none;stroke-width:0.260964;stroke-linecap:round;stroke-linejoin:miter;stroke-dasharray:none;stroke-opacity:1;filter:url(#filter7703)"
         d="m 39.80733,148.73283 c -0.08127,-4.6e-4 -0.163666,0.006 -0.247211,0.0185 -4.30029,2.04854 -3.628066,9.72763 -3.055359,12.68534 0.03147,0.16285 0.06532,0.33076 0.101397,0.50202 -6.070115,-4.55209 -14.069514,-9.22473 -16.182709,-8.33923 l -0.07921,-0.0725 c 0.0081,0.0185 0.0278,0.0492 0.05285,0.0859 -0.117142,0.0532 -0.216792,0.12248 -0.294235,0.21277 -1.923801,2.24117 -0.988999,7.55078 0.161113,10.14825 1.446346,3.2666 6.705329,6.35692 9.647826,8.43241 1.793467,1.26501 11.118991,4.86788 15.865232,5.82129 a 5.2253299,5.0606157 0 0 0 -0.194926,1.357 5.2253299,5.0606157 0 0 0 1.641773,3.68134 c -0.918364,1.09366 -1.382713,2.40008 -1.522921,3.79211 -8.2e-5,8.3e-4 8.3e-5,0.001 0,0.001 -0.04999,0.49811 -0.05918,1.00725 -0.0322,1.52126 4.81e-4,0.01 0.0021,0.0185 0.0021,0.0274 0.0073,0.12105 0.01488,0.24224 0.02535,0.3638 4.21e-4,0.003 0.001,0.009 0.0021,0.0142 0.01108,0.12706 0.02393,0.25414 0.03905,0.38143 2.1e-5,1.7e-4 -2e-5,8e-4 0,9.5e-4 0.01503,0.12595 0.032,0.25188 0.0507,0.37799 0.001,0.006 0.0021,0.0142 0.0032,0.0206 0.07706,0.51294 0.184498,1.02622 0.316425,1.53449 0.0062,0.0255 0.01345,0.0505 0.02005,0.0756 0.02842,0.10728 0.05774,0.21434 0.08822,0.32112 0.0021,0.009 0.0051,0.0165 0.0073,0.0252 0.06921,0.24091 0.143345,0.48048 0.222392,0.71772 0.0062,0.0185 0.01313,0.0385 0.01953,0.0574 0.02831,0.084 0.05725,0.16758 0.08657,0.251 0.01696,0.0483 0.03343,0.0964 0.0507,0.14415 0.03896,0.1076 0.07871,0.21498 0.119388,0.3216 10e-4,10e-4 0.0021,0.006 0.0041,0.009 0.09241,0.2419 0.188772,0.48031 0.288948,0.71529 0.01869,0.044 0.03812,0.0869 0.05704,0.13039 0.0032,0.009 0.0062,0.0164 0.01013,0.0242 0.05244,0.12041 0.10586,0.23966 0.160059,0.35791 0.0062,0.0127 0.01155,0.0255 0.01737,0.0385 0.01424,0.0309 0.02851,0.0614 0.04283,0.0919 0.03864,0.0828 0.07788,0.16448 0.117253,0.24607 0.0125,0.0261 0.02484,0.0524 0.03752,0.0785 0.03271,0.0673 0.06562,0.13387 0.09875,0.20009 0.01282,0.0255 0.02576,0.0506 0.03853,0.0761 0.08752,0.17292 0.175811,0.34317 0.265704,0.50936 0.02312,0.0426 0.04651,0.0839 0.0697,0.12596 0.03057,0.0555 0.06062,0.11203 0.0914,0.16676 0.0021,0.003 0.0051,0.01 0.0073,0.0127 0.05038,0.0896 0.101302,0.17745 0.152143,0.26475 0.0041,0.006 0.0073,0.0127 0.01108,0.0206 0.0021,0.003 0.0051,0.009 0.0073,0.0127 10e-4,0.001 0.0032,0.003 0.0051,0.009 0.0041,0.006 0.0073,0.0142 0.01171,0.0206 0.01831,0.031 0.03711,0.0612 0.05551,0.0922 0.04774,0.0801 0.09516,0.15976 0.143155,0.23775 0.02312,0.0375 0.04651,0.0741 0.0697,0.1114 7.06e-4,9.5e-4 10e-4,0.001 0.0021,0.003 0.01044,0.0165 0.02075,0.0335 0.03119,0.05 0.03078,0.0487 0.06163,0.0967 0.09241,0.14478 0.0228,0.0354 0.04529,0.0703 0.06818,0.10539 0.03874,0.0592 0.07747,0.11772 0.116208,0.17561 0.0062,0.009 0.01297,0.0207 0.01953,0.0296 0.0041,0.006 0.0081,0.0127 0.01218,0.0185 0.01994,0.0296 0.03986,0.0578 0.0597,0.0869 0.03557,0.0519 0.07114,0.10254 0.106714,0.15302 0.02586,0.0367 0.05132,0.0744 0.07706,0.11029 0.02033,0.0283 0.041,0.0565 0.06122,0.0845 0.0073,0.009 0.01519,0.0206 0.02269,0.0309 0.02075,0.0285 0.0416,0.0565 0.06234,0.0845 0.01535,0.0206 0.03065,0.0421 0.046,0.0622 0.06359,0.0847 0.126857,0.16718 0.189642,0.24661 0.09516,0.11836 0.194812,0.23736 0.297401,0.35641 0.0188,0.0218 0.03752,0.044 0.05654,0.0657 0.09076,0.10428 0.18502,0.20887 0.281027,0.31328 0.0323,0.0353 0.06541,0.0703 0.09823,0.10538 0.0032,0.001 0.0051,0.006 0.0081,0.01 0.05632,0.0601 0.113297,0.1201 0.17115,0.18034 0.166652,0.17374 0.337268,0.34755 0.516093,0.52111 0.133408,0.12944 0.270458,0.25866 0.409917,0.38779 0.278922,0.25834 0.568984,0.5158 0.86843,0.77118 0.149723,0.12769 0.30142,0.25484 0.455344,0.38143 0.154027,0.12658 0.309884,0.2527 0.467499,0.37799 0.157524,0.12516 0.316508,0.2495 0.477005,0.37307 1.604933,1.23566 3.343111,2.38255 4.905788,3.31118 0.31252,0.1857 0.617823,0.36277 0.913856,0.52996 0.217373,0.12279 0.427724,0.23824 0.633894,0.35006 0.01911,0.01 0.03802,0.0206 0.05704,0.0309 0.05519,0.0299 0.112063,0.0612 0.166396,0.09 0.367311,0.196 0.710907,0.37068 1.029541,0.52554 0.03853,0.0185 0.07902,0.0394 0.116746,0.0574 h 5.23e-4 c 0.05541,0.0266 0.106967,0.0505 0.16059,0.0756 0.04151,0.0185 0.08372,0.0391 0.124136,0.0578 0.04467,0.0207 0.08769,0.0404 0.131003,0.0597 0.0032,9.5e-4 0.0051,10e-4 0.0081,0.003 0.06235,0.0282 0.123392,0.0555 0.182772,0.0813 0.03986,0.0165 0.07779,0.0337 0.116224,0.05 0.04703,0.0206 0.0925,0.0385 0.137348,0.0568 0.037,0.0142 0.07431,0.0304 0.109863,0.0446 5.41e-4,2.1e-4 10e-4,2.5e-4 0.0021,4.9e-4 0.05869,0.0229 0.11423,0.044 0.168512,0.0642 0.02166,0.01 0.04446,0.0165 0.06553,0.0245 0.07472,0.0267 0.145941,0.0511 0.211289,0.0717 0.04948,0.0142 0.09926,0.029 0.148963,0.0435 0.162071,0.0478 0.324429,0.0926 0.488095,0.13244 h 5.3e-4 c 0.02597,0.006 0.05212,0.0127 0.0782,0.0185 0.188129,0.0443 0.376748,0.0842 0.566276,0.1182 0.107869,0.0185 0.215655,0.0369 0.323815,0.053 h 5.32e-4 c 0.01345,0.001 0.02709,0.003 0.0407,0.006 0.310979,0.0451 0.622681,0.0775 0.933935,0.0965 1.817369,0.11139 3.61419,-0.20899 5.101764,-0.83786 4.525433,0.34604 15.030607,0.0353 15.030607,0.0353 0,0 -7.49197,-2.88541 -11.403166,-4.43142 0.298893,-1.31812 0.335385,-2.83671 -0.001,-4.33482 l 5.33e-4,4.9e-4 c -0.01519,-0.0676 -0.03138,-0.13513 -0.04804,-0.20257 -0.01519,-0.0609 -0.03067,-0.12185 -0.04703,-0.18281 -0.0021,-0.006 -0.0041,-0.0127 -0.0051,-0.0185 -0.01582,-0.0581 -0.03169,-0.11614 -0.04856,-0.17395 -0.001,-0.003 -0.0032,-0.009 -0.0041,-0.0142 -0.01749,-0.0595 -0.03516,-0.11867 -0.05386,-0.17785 -0.0237,-0.0753 -0.04864,-0.15049 -0.07451,-0.22554 -0.0179,-0.0519 -0.03609,-0.1038 -0.05489,-0.15538 -0.02904,-0.0797 -0.05989,-0.15935 -0.0914,-0.23877 -0.01698,-0.0429 -0.03353,-0.0856 -0.05122,-0.12848 -0.04231,-0.10207 -0.0872,-0.20379 -0.133646,-0.30492 -0.01013,-0.0223 -0.02024,-0.0445 -0.03067,-0.0666 -0.04978,-0.10618 -0.102014,-0.21105 -0.156352,-0.31574 -0.01123,-0.0215 -0.02187,-0.0434 -0.03333,-0.0646 -0.0553,-0.10428 -0.11374,-0.20761 -0.173787,-0.31034 -0.01013,-0.0164 -0.01983,-0.0348 -0.03016,-0.0519 -0.07105,-0.11962 -0.145181,-0.23819 -0.222914,-0.35544 -0.07769,-0.11725 -0.159383,-0.23783 -0.244583,-0.36084 -0.0032,-0.003 -0.0051,-0.01 -0.0081,-0.0127 l -5.32e-4,-4.8e-4 c -0.08831,-0.12753 -0.180452,-0.25773 -0.276273,-0.39074 l -5.32e-4,-5.1e-4 c -0.02503,-0.0348 -0.05212,-0.0712 -0.07769,-0.10649 -0.01809,-0.0248 -0.0366,-0.0505 -0.05489,-0.0756 -0.112664,-0.15396 -0.229988,-0.31133 -0.351283,-0.47162 -0.02138,-0.0282 -0.04231,-0.0559 -0.0639,-0.0845 -0.131478,-0.17273 -0.265927,-0.34777 -0.406217,-0.52651 -0.0073,-0.009 -0.01456,-0.0185 -0.02166,-0.0269 -0.0021,-0.001 -0.0041,-0.003 -0.0062,-0.009 -0.144279,-0.18343 -0.293928,-0.37024 -0.446369,-0.55888 -0.03179,-0.0392 -0.06348,-0.0791 -0.09557,-0.11867 -0.152428,-0.18754 -0.307778,-0.3769 -0.466967,-0.56821 -0.0051,-0.006 -0.01108,-0.0127 -0.01635,-0.0206 -0.171537,-0.20601 -0.346449,-0.41371 -0.524546,-0.62264 -0.01666,-0.0185 -0.03404,-0.0394 -0.0507,-0.0589 -0.09209,-0.10791 -0.184275,-0.21572 -0.277857,-0.32405 l -5.22e-4,-4.7e-4 c -0.07646,-0.0886 -0.153995,-0.17745 -0.231377,-0.26622 -0.01171,-0.0127 -0.0237,-0.0267 -0.03537,-0.0402 -0.17808,-0.20401 -0.357558,-0.4082 -0.539338,-0.61232 -0.0275,-0.0309 -0.0554,-0.0612 -0.0829,-0.0919 -0.831844,-0.93148 -1.693927,-1.85648 -2.532396,-2.716 v -4.9e-4 c -0.28542,-0.2926 -0.568544,-0.57734 -0.846238,-0.85254 v -5.1e-4 c -0.277785,-0.2753 -0.550409,-0.54039 -0.816133,-0.79373 -0.13287,-0.12659 -0.263965,-0.25033 -0.393019,-0.37063 -0.258079,-0.24063 -0.508427,-0.46822 -0.747985,-0.67999 -0.119689,-0.1057 -0.236508,-0.20768 -0.350759,-0.30542 -0.277306,-0.23723 -0.535599,-0.44653 -0.77546,-0.63046 -0.02402,-0.0185 -0.04714,-0.0359 -0.07075,-0.054 -0.04641,-0.035 -0.09314,-0.0707 -0.13787,-0.10333 -0.07614,-0.0559 -0.149739,-0.10839 -0.220807,-0.15728 -0.02249,-0.0165 -0.04302,-0.0288 -0.065,-0.0437 -0.05929,-0.0399 -0.116335,-0.0775 -0.171681,-0.11203 -0.0081,-0.003 -0.01767,-0.0127 -0.02587,-0.0165 -0.01519,-0.009 -0.02943,-0.0164 -0.04435,-0.0266 -0.01408,-0.009 -0.0279,-0.0165 -0.04171,-0.0255 -0.04742,-0.0279 -0.09383,-0.0541 -0.137871,-0.0774 h -5.2e-4 c -0.0092,-0.003 -0.01717,-0.01 -0.02587,-0.0142 -0.0021,-9.5e-4 -0.0041,-0.001 -0.0062,-0.001 -0.113929,-0.0609 -0.226144,-0.12485 -0.338077,-0.19022 -0.02014,-0.0127 -0.04018,-0.0237 -0.06021,-0.0358 -0.04057,-0.0242 -0.08106,-0.0486 -0.121493,-0.0731 -0.06542,-0.0397 -0.131368,-0.0788 -0.19651,-0.11963 -0.07973,-0.0498 -0.15922,-0.10032 -0.238768,-0.15159 -0.04774,-0.0307 -0.09546,-0.0612 -0.143156,-0.0923 -0.171284,-0.11108 -0.343137,-0.22384 -0.516628,-0.33679 -0.01234,-0.009 -0.02514,-0.0165 -0.03752,-0.0242 -0.263812,-0.1715 -0.532072,-0.34266 -0.810316,-0.50692 -0.01329,-0.01 -0.02731,-0.0143 -0.0407,-0.023 -0.132838,-0.0778 -0.267165,-0.15459 -0.405163,-0.22846 -0.0062,-10e-4 -0.01171,-0.006 -0.01748,-0.009 -0.07023,-0.0375 -0.141083,-0.0747 -0.212876,-0.11077 -0.0041,-0.001 -0.0081,-0.003 -0.01266,-0.006 -0.07369,-0.0369 -0.147951,-0.0731 -0.223454,-0.10839 -0.0021,-9.8e-4 -0.0051,-0.001 -0.0073,-0.003 -0.07738,-0.0362 -0.156084,-0.0712 -0.235599,-0.10539 -0.0062,-0.001 -0.01282,-0.003 -0.019,-0.009 -0.06992,-0.0299 -0.140703,-0.059 -0.212354,-0.0873 -0.01707,-0.006 -0.03454,-0.0127 -0.05171,-0.0206 -0.06235,-0.0242 -0.125354,-0.0478 -0.189109,-0.0707 -0.02187,-0.009 -0.04396,-0.0142 -0.06605,-0.0231 -0.05888,-0.0206 -0.118376,-0.0402 -0.17855,-0.0592 -0.0276,-0.009 -0.05499,-0.0185 -0.0829,-0.0264 -0.06307,-0.0185 -0.127253,-0.037 -0.191747,-0.0549 -0.02207,-0.006 -0.04375,-0.0127 -0.06605,-0.0185 -0.08341,-0.0223 -0.167624,-0.0435 -0.25356,-0.0631 -0.03383,-0.009 -0.0688,-0.0142 -0.102996,-0.0215 -0.05652,-0.0127 -0.113423,-0.0239 -0.171147,-0.0348 a 5.2253299,5.0606157 0 0 0 0.07135,-0.64908 5.4527401,5.0606157 0 0 0 1.031657,-2.95673 5.4527401,5.0606157 0 0 0 -0.883221,-2.76015 c 0.150261,0.01 0.298292,0.0165 0.438436,0.0211 0.08159,0.001 0.16339,0.009 0.244055,0.0164 0.0021,1.6e-4 0.0032,3.2e-4 0.0051,4.8e-4 0.887156,0.0813 1.719882,0.39877 2.489086,0.82021 0.07002,0.0386 0.139121,0.0775 0.208123,0.11773 0.276159,0.16017 0.543805,0.33218 0.802403,0.51036 0.06461,0.0445 0.12825,0.0896 0.191748,0.13481 h 5.3e-4 c 0.0106,0.009 0.02106,0.0165 0.03169,0.0229 0.748821,0.53521 1.418001,1.10475 1.995694,1.54382 0.09762,0.0741 0.192869,0.14495 0.285247,0.21081 0.05276,0.0377 0.106192,0.0747 0.160058,0.11139 0.01994,0.0142 0.04018,0.0264 0.06021,0.0399 0.04916,0.0327 0.09853,0.065 0.148441,0.0965 0.0062,0.003 0.01313,0.01 0.01953,0.0127 0.06234,0.0391 0.125117,0.0774 0.188577,0.11456 l 5.32e-4,4.9e-4 c 8.69e-4,5.3e-4 0.0021,9.9e-4 0.0032,10e-4 0.06266,0.0369 0.126082,0.0726 0.189639,0.10729 0.0051,0.001 0.01092,0.006 0.01636,0.009 0.06103,0.0332 0.122174,0.065 0.183824,0.0962 0.0041,0.001 0.0092,0.003 0.01313,0.006 0.130323,0.0653 0.2619,0.12532 0.394073,0.17993 0.0081,0.003 0.01717,0.009 0.02587,0.009 0.05785,0.0234 0.115813,0.0456 0.173799,0.0666 0.0092,10e-4 0.01758,0.006 0.02636,0.009 0.169331,0.0608 0.338986,0.11188 0.50764,0.15049 0.03435,0.009 0.0688,0.0142 0.102996,0.022 0.0322,0.005 0.06409,0.0127 0.09619,0.0185 0.0051,8.9e-4 0.01013,0.001 0.01535,0.001 0.09445,0.0165 0.188394,0.0277 0.281558,0.0353 0.01108,9e-4 0.02218,10e-4 0.03321,10e-4 0.721332,0.0511 1.395533,-0.15831 1.908019,-0.77656 0.121129,-0.14621 0.216759,-0.33139 0.288947,-0.54811 v -4.9e-4 c 0.0092,-0.0282 0.01831,-0.057 0.02699,-0.0864 4.61e-4,-0.001 5.92e-4,-0.003 0.001,-0.003 0.0041,-0.0142 0.0081,-0.029 0.01218,-0.0435 0.01013,-0.0372 0.019,-0.0763 0.02801,-0.11457 0.0073,-0.0327 0.01551,-0.0649 0.02218,-0.0986 0.0073,-0.0358 0.01329,-0.0729 0.01953,-0.10966 0.0062,-0.0359 0.01282,-0.0717 0.01799,-0.10886 0.02005,-0.14241 0.03351,-0.29294 0.04119,-0.45006 10e-4,-0.0301 0.0021,-0.0612 0.0032,-0.0918 0.0021,-0.0529 0.0032,-0.10555 0.0041,-0.15976 2.96e-4,-0.0313 -4.1e-4,-0.0634 -5.32e-4,-0.0951 -1.94e-4,-0.0516 -2.86e-4,-0.10348 -0.0021,-0.15649 -0.001,-0.0411 -0.0021,-0.0832 -0.0041,-0.12501 -0.0021,-0.0472 -0.0041,-0.0942 -0.0073,-0.14225 -0.0021,-0.0389 -0.0041,-0.0783 -0.0073,-0.11773 -0.0041,-0.0554 -0.0081,-0.1114 -0.01313,-0.16757 -0.0032,-0.0386 -0.0073,-0.0775 -0.01044,-0.11678 -0.0051,-0.0506 -0.0106,-0.10174 -0.01635,-0.15301 -0.0051,-0.0445 -0.01013,-0.0886 -0.01535,-0.13339 -0.01076,-0.0877 -0.02239,-0.17644 -0.03537,-0.26571 -5.43e-4,-0.003 -10e-4,-0.01 -0.0021,-0.01 -0.02851,-0.19496 -0.06216,-0.39309 -0.100385,-0.5937 -0.0062,-0.0313 -0.01218,-0.0631 -0.01851,-0.0945 -0.03486,-0.17724 -0.07341,-0.35535 -0.115148,-0.53489 -0.0073,-0.0327 -0.01551,-0.0657 -0.02321,-0.0986 -0.01687,-0.0703 -0.03394,-0.1413 -0.05171,-0.2118 -0.0081,-0.0326 -0.01646,-0.065 -0.02484,-0.0976 -0.01767,-0.0685 -0.03587,-0.13687 -0.05438,-0.20547 -0.0106,-0.0392 -0.02138,-0.0785 -0.0322,-0.11772 -0.02514,-0.0905 -0.05102,-0.18074 -0.07769,-0.27111 -0.0021,-0.009 -0.0051,-0.0142 -0.0073,-0.0215 -0.02964,-0.10016 -0.05948,-0.20052 -0.09088,-0.30005 -0.0021,-0.006 -0.0041,-0.0127 -0.0062,-0.0185 -0.09936,-0.31445 -0.207007,-0.62486 -0.321167,-0.92756 -0.0021,-0.003 -0.0041,-0.01 -0.0062,-0.0142 -0.03334,-0.0881 -0.06706,-0.17558 -0.101397,-0.26228 -0.01266,-0.0318 -0.02576,-0.0631 -0.03853,-0.0945 -0.02608,-0.0644 -0.05203,-0.12865 -0.07871,-0.19228 -0.01377,-0.0326 -0.02741,-0.0649 -0.04119,-0.0971 -0.0276,-0.0644 -0.05592,-0.12817 -0.08404,-0.19167 -0.01092,-0.0247 -0.02168,-0.0494 -0.03271,-0.0739 -0.03842,-0.0853 -0.07697,-0.16923 -0.116224,-0.25201 -0.0032,-0.009 -0.0073,-0.0142 -0.01044,-0.0217 -0.04068,-0.0851 -0.08148,-0.16903 -0.123092,-0.25152 -0.0021,-0.003 -0.0041,-0.009 -0.0062,-0.0127 -0.02954,-0.0582 -0.05939,-0.11519 -0.08924,-0.1721 -0.01861,-0.0354 -0.03668,-0.0712 -0.05551,-0.1057 -0.04111,-0.0763 -0.08239,-0.15064 -0.124136,-0.22354 -0.191297,-0.33375 -0.392611,-0.67603 -0.603779,-1.02218 -0.351959,-0.57695 -0.731454,-1.16534 -1.138898,-1.74434 -0.08136,-0.11568 -0.164116,-0.23082 -0.247743,-0.34562 v -5.1e-4 c -0.418492,-0.57444 -0.865272,-1.13556 -1.339618,-1.66344 v -4.7e-4 c -0.09488,-0.10554 -0.190766,-0.20954 -0.287895,-0.31231 -0.09711,-0.10269 -0.195376,-0.20442 -0.294755,-0.30394 -0.596276,-0.59754 -1.233206,-1.13485 -1.910657,-1.57766 -0.105037,-0.0688 -0.211015,-0.13513 -0.318,-0.19907 0.724605,-0.78953 1.523698,-1.23859 1.762211,-1.40458 1.052234,-0.7323 3.07564,-1.39599 5.671209,-0.98248 0.495874,0.48027 0.795004,0.83738 0.795004,0.83738 0,0 -0.286934,-0.34549 -0.744293,-0.82952 0.08668,0.0142 0.174073,0.0296 0.262013,0.0462 0,0 -0.135292,-0.0308 -0.278389,-0.0631 -0.988009,-1.0436 -2.755708,-2.71417 -4.184208,-2.99592 -1.813045,-0.35763 -3.640471,0.0655 -5.346338,1.41779 -0.964661,0.76475 -2.118126,1.98674 -2.839826,3.04056 -0.02097,0.003 -0.04192,0.009 -0.06287,0.0127 -0.01758,0.003 -0.03526,0.009 -0.05285,0.009 -0.1392,0.0304 -0.27836,0.0649 -0.416788,0.10349 -0.0228,0.006 -0.0454,0.0127 -0.06818,0.0206 -0.144153,0.0416 -0.288234,0.087 -0.431047,0.13735 -5.2e-4,1.9e-4 -0.001,3.1e-4 -0.0021,5e-4 -0.06245,0.0218 -0.124389,0.0451 -0.186471,0.0688 -0.0636,0.0242 -0.126921,0.0494 -0.190172,0.075 -0.03997,0.0165 -0.08004,0.0321 -0.119911,0.0489 -0.07728,0.0328 -0.154185,0.0665 -0.230847,0.10159 -0.03802,0.0165 -0.07573,0.0354 -0.113566,0.0533 -0.05397,0.0255 -0.108027,0.0511 -0.161642,0.078 -0.04302,0.0214 -0.08606,0.0426 -0.128883,0.0646 -0.0021,9.5e-4 -0.0051,0.001 -0.0073,0.003 -1.153227,0.59683 -2.209181,1.44498 -3.040557,2.41594 -0.946578,-3.78564 -3.43698,-7.70745 -5.133462,-10.07915 -1.884417,-2.63441 -3.085998,-5.30676 -4.737809,-5.3163 z m 22.989107,8.26374 c 1.720003,0.13039 3.434098,1.52128 4.408716,2.46107 -0.624214,-0.14067 -1.946507,-0.43223 -2.238164,-0.44614 -2.213219,-0.10555 -4.808246,1.03582 -6.039399,2.40273 -0.07462,-0.0336 -0.149532,-0.0662 -0.225028,-0.097 -0.426937,-0.17539 -0.86788,-0.31064 -1.322722,-0.3986 -0.129958,-0.0252 -0.260767,-0.0465 -0.393009,-0.0638 -0.01567,-0.001 -0.03138,-0.003 -0.04703,-0.006 0.05583,-0.13893 0.116999,-0.26868 0.188057,-0.38288 1.365776,-2.19547 2.682415,-3.31701 5.668559,-3.47003 z"
         transform="matrix(1.0634253,0,0,0.22447606,24.102285,58.883816)" /><g
         id="g7337"
         transform="translate(4.4493795,-96.551536)"><path
           style="opacity:1;fill:none;stroke:#777777;stroke-width:0.265;stroke-linecap:round;stroke-linejoin:miter;stroke-dasharray:none;stroke-opacity:1"
           d="m 67.54469,129.48524 c 0,0 -0.192575,2.69711 0.01966,4.07037 0.25203,1.63072 0.770957,3.23626 1.494438,4.71928 0.97569,2.00001 2.82135,3.49542 3.775424,5.50583 0.679391,1.4316 0.902698,3.03805 1.337127,4.56197 0.740263,2.59674 2.163004,7.80647 2.163004,7.80647"
           id="path7303"
           sodipodi:nodetypes="csaaac" /><path
           style="opacity:1;fill:none;stroke:#777777;stroke-width:0.265;stroke-linecap:round;stroke-linejoin:miter;stroke-dasharray:none;stroke-opacity:1"
           d="m 67.574951,133.39796 c -1.096918,0.36713 -2.271583,-0.96178 -3.244885,-0.43342"
           id="path7377"
           sodipodi:nodetypes="cc" /><path
           style="opacity:1;fill:none;stroke:#777777;stroke-width:0.265;stroke-linecap:round;stroke-linejoin:miter;stroke-dasharray:none;stroke-opacity:1"
           d="m 69.200767,130.79744 c 0,0 -1.233927,1.06893 -1.73705,1.82187"
           id="path7307" /><path
           style="opacity:1;fill:none;stroke:#777777;stroke-width:0.265;stroke-linecap:round;stroke-linejoin:miter;stroke-dasharray:none;stroke-opacity:1"
           d="m 68.63168,137.51363 c -2.121561,1.08745 -2.705003,-0.80307 -4.929693,-0.19128"
           id="path7381"
           sodipodi:nodetypes="cc" /><path
           style="opacity:1;fill:none;stroke:#777777;stroke-width:0.265;stroke-linecap:round;stroke-linejoin:miter;stroke-dasharray:none;stroke-opacity:1"
           d="m 70.761425,133.36398 c 0,0 -2.149261,1.92179 -2.380023,3.14854"
           id="path7309" /><path
           style="opacity:1;fill:none;stroke:#777777;stroke-width:0.265;stroke-linecap:round;stroke-linejoin:miter;stroke-dasharray:none;stroke-opacity:1"
           d="m 70.578282,140.6004 c -3.408104,1.66392 -4.552468,-0.71489 -6.749349,-0.24214"
           id="path7385"
           sodipodi:nodetypes="cc" /><path
           style="opacity:1;fill:none;stroke:#777777;stroke-width:0.265;stroke-linecap:round;stroke-linejoin:miter;stroke-dasharray:none;stroke-opacity:1"
           d="m 73.077683,137.2701 c 0,0 -2.229765,0.82288 -3.11119,2.3848"
           id="path7311" /><path
           style="opacity:1;fill:none;stroke:#777777;stroke-width:0.265;stroke-linecap:round;stroke-linejoin:miter;stroke-dasharray:none;stroke-opacity:1"
           d="m 72.802972,143.90962 c -2.916529,2.07182 -5.302723,-1.29901 -8.58414,-0.49256"
           id="path7389"
           sodipodi:nodetypes="cc" /><path
           style="opacity:1;fill:none;stroke:#777777;stroke-width:0.265;stroke-linecap:round;stroke-linejoin:miter;stroke-dasharray:none;stroke-opacity:1"
           d="m 74.821483,140.36839 c 0,0 -2.185959,0.47202 -2.380023,2.56792"
           id="path7313"
           sodipodi:nodetypes="cc" /><path
           style="opacity:1;fill:none;stroke:#777777;stroke-width:0.265;stroke-linecap:round;stroke-linejoin:miter;stroke-dasharray:none;stroke-opacity:1"
           d="m 73.915318,147.63598 c -5.034889,3.51387 -6.135582,-0.78542 -8.554932,-0.0902"
           id="path7393"
           sodipodi:nodetypes="cc" /><path
           style="opacity:1;fill:none;stroke:#777777;stroke-width:0.265;stroke-linecap:round;stroke-linejoin:miter;stroke-dasharray:none;stroke-opacity:1"
           d="m 76.411344,144.94528 c 0,0 -1.746394,0.13225 -2.523836,1.4115"
           id="path7315" /><path
           style="opacity:1;fill:none;stroke:#777777;stroke-width:0.265;stroke-linecap:round;stroke-linejoin:miter;stroke-dasharray:none;stroke-opacity:1"
           d="m 77.042798,148.88794 c 0,0 -0.786482,2.98912 -1.818499,3.52808 -2.368415,1.23689 -4.352459,-1.29443 -7.77292,-0.90511"
           id="path7317"
           sodipodi:nodetypes="csc" /><path
           style="opacity:1;fill:#4d4d4d;fill-opacity:0.392931;stroke:#474747;stroke-width:0.264583px;stroke-linecap:butt;stroke-linejoin:miter;stroke-opacity:1"
           d="m 75.115199,156.36546 c 3.159242,0.72904 2.250514,-5.91995 1.966369,-8.96663 -0.423264,-4.53836 -3.414374,-9.67129 -5.348518,-12.58475 -1.934144,-2.91346 -3.132929,-5.8708 -4.876589,-5.58447 -4.20685,2.15929 -3.549139,10.25363 -2.988876,13.37128 0.481147,2.68506 1.518751,6.5415 3.146187,8.73068 2.228862,2.49613 4.888713,4.29251 8.101427,5.03389 z"
           id="path7238"
           sodipodi:nodetypes="sazcccs" /></g><path
         style="fill:#fdbf00;fill-opacity:1;stroke:#000000;stroke-width:0.264583px;stroke-linecap:butt;stroke-linejoin:miter;stroke-opacity:1"
         d="m 80.978706,58.731814 c 0,0 -2.25798,-3.58797 -1.334812,-6.89654 0.929101,-3.32984 4.665649,-6.58464 8.120118,-6.4516 4.247115,0.16357 7.347571,4.92393 9.343696,8.67629 1.462953,2.7501 2.558394,7.78641 1.446049,9.23246 -1.112346,1.44605 -3.003333,0.77864 -4.449382,-0.33371 -1.446045,-1.11234 -3.559504,-3.44827 -6.117894,-3.5595 -2.558394,-0.11123 -7.007775,-0.6674 -7.007775,-0.6674 z"
         id="path4787"
         sodipodi:nodetypes="csaasssc" /><path
         id="path5978"
         style="opacity:0.64786;fill:#ae8300;fill-opacity:1;stroke:none;stroke-width:0.264583px;stroke-linecap:butt;stroke-linejoin:miter;stroke-opacity:1"
         d="m 79.431882,53.871844 c 0.12134,2.59206 1.546677,4.86016 1.546677,4.86016 0,0 4.449449,0.55592 7.007841,0.66715 2.558387,0.11123 4.671929,2.44713 6.117973,3.55947 0.970655,0.74666 2.141417,1.29168 3.14296,1.13275 -0.590737,-1.15637 -1.775658,-2.50109 -2.266528,-3.17604 -0.629236,-0.86519 -2.552184,-2.5754 -4.168738,-3.30367 -1.566094,-0.70554 -2.084199,-0.70771 -5.073075,-0.90434 -2.988873,-0.19664 -2.634921,-0.15754 -4.208012,-0.59014 -0.788825,-0.21693 -1.528171,-1.2347 -2.099098,-2.24534 z"
         sodipodi:nodetypes="ccsscsassc" /><g
         id="g7474"
         transform="translate(4.4493795,-96.551536)"><path
           style="opacity:1;fill:#cecece;fill-opacity:0.419958;stroke:#000000;stroke-width:0.264583px;stroke-linecap:butt;stroke-linejoin:miter;stroke-opacity:1"
           d="m 74.407309,160.53416 c -3.796461,-0.2838 -15.023042,-4.87659 -16.989406,-6.37103 -2.878555,-2.18771 -8.023632,-5.44476 -9.43856,-8.88797 -1.12512,-2.73797 -2.039307,-8.33467 -0.157309,-10.69704 1.78867,-2.24522 14.791587,6.71762 20.528865,12.42744 2.973649,2.95942 6.545647,6.44776 7.000266,10.61838 0.110511,1.01381 0.07312,2.98624 -0.943856,2.91022 z"
           id="path7435"
           sodipodi:nodetypes="sssssss" /><path
           style="fill:none;stroke:#000000;stroke-width:0.264583px;stroke-linecap:butt;stroke-linejoin:miter;stroke-opacity:1"
           d="m 48.057998,134.2635 c 0.235963,0.55059 7.000264,8.80933 7.865464,9.2026 0.865204,0.39327 8.887979,4.71928 9.674524,5.26986 0.786548,0.55059 8.966631,11.7982 8.966631,11.7982"
           id="path7437" /><path
           style="fill:none;stroke:#000000;stroke-width:0.264583px;stroke-linecap:round;stroke-linejoin:miter;stroke-opacity:1"
           d="m 47.114143,140.96882 c 0.648901,-0.90453 3.755759,-1.00285 4.326005,-2.12368"
           id="path7439"
           sodipodi:nodetypes="cc" /><path
           style="fill:none;stroke:#000000;stroke-width:0.264583px;stroke-linecap:round;stroke-linejoin:miter;stroke-opacity:1"
           d="m 50.621021,134.87489 c -0.353946,0.70789 0.317413,1.41257 -0.351151,1.92383"
           id="path7441"
           sodipodi:nodetypes="cc" /><path
           style="fill:none;stroke:#000000;stroke-width:0.264583px;stroke-linecap:round;stroke-linejoin:miter;stroke-opacity:1"
           d="m 55.166411,137.1639 c -0.820354,0.79254 -0.419444,2.94454 -1.337129,3.83441"
           id="path7443"
           sodipodi:nodetypes="cc" /><path
           style="fill:none;stroke:#000000;stroke-width:0.264583px;stroke-linecap:round;stroke-linejoin:miter;stroke-opacity:1"
           d="m 55.294227,143.11216 c -0.550583,1.53376 -4.679952,1.17982 -6.685646,3.06753"
           id="path7445"
           sodipodi:nodetypes="cc" /><path
           style="fill:none;stroke:#000000;stroke-width:0.264583px;stroke-linecap:round;stroke-linejoin:miter;stroke-opacity:1"
           d="m 60.249469,145.94373 c -1.494438,2.26132 -6.135062,3.20517 -7.000263,4.87658"
           id="path7447"
           sodipodi:nodetypes="cc" /><path
           style="fill:none;stroke:#000000;stroke-width:0.264583px;stroke-linecap:round;stroke-linejoin:miter;stroke-opacity:1"
           d="m 58.499403,144.5476 c 0.983183,-0.77671 0.816042,-3.74593 1.464943,-4.29651"
           id="path7449"
           sodipodi:nodetypes="cc" /><path
           style="fill:none;stroke:#000000;stroke-width:0.264583px;stroke-linecap:round;stroke-linejoin:miter;stroke-opacity:1"
           d="m 66.171607,145.24775 c -0.862068,0.61179 -0.146541,2.48315 -0.966895,3.01151"
           id="path7451"
           sodipodi:nodetypes="cc" /><path
           style="fill:none;stroke:#000000;stroke-width:0.264583px;stroke-linecap:round;stroke-linejoin:miter;stroke-opacity:1"
           d="m 67.643007,151.50854 c -0.688228,1.49444 -6.941274,2.3793 -7.88513,3.7361"
           id="path7453"
           sodipodi:nodetypes="cc" /><path
           style="fill:none;stroke:#000000;stroke-width:0.264583px;stroke-linecap:round;stroke-linejoin:miter;stroke-opacity:1"
           d="m 70.120629,154.85136 c -0.806211,1.39612 -3.244504,2.28099 -3.775423,3.20518"
           id="path7455"
           sodipodi:nodetypes="cc" /><path
           style="fill:none;stroke:#000000;stroke-width:0.264583px;stroke-linecap:round;stroke-linejoin:miter;stroke-opacity:1"
           d="m 71.418431,155.91616 c 0.820354,-0.51446 -0.409223,-3.23983 0.717026,-4.63026"
           id="path7457"
           sodipodi:nodetypes="cc" /><path
           style="fill:none;stroke:#000000;stroke-width:0.264583px;stroke-linecap:round;stroke-linejoin:miter;stroke-opacity:1"
           d="m 72.408363,157.92029 c -0.862067,1.08454 -2.224959,0.90568 -2.266672,1.44795"
           id="path7459"
           sodipodi:nodetypes="cc" /></g><circle
         style="fill:#000000;fill-opacity:1;stroke-width:0;stroke-linecap:round;stroke-linejoin:round;paint-order:markers stroke fill"
         id="path367"
         cx="83.087158"
         cy="62.286308"
         r="5.3342586" /><ellipse
         style="fill:#313236;fill-opacity:1;stroke:#000000;stroke-width:0.5;stroke-linecap:round;stroke-linejoin:round;stroke-dasharray:none;stroke-opacity:1;paint-order:markers stroke fill"
         id="circle423"
         cx="82.308517"
         cy="65.178413"
         rx="5.1117897"
         ry="5.3342586" /><path
         style="fill:#fdbf00;fill-opacity:1;stroke:#000000;stroke-width:0.264583px;stroke-linecap:butt;stroke-linejoin:miter;stroke-opacity:1"
         d="m 80.980364,84.747464 c 3.224841,4.326 10.873361,9.10038 13.056675,9.83182 3.302765,1.10648 7.024441,0.33643 9.202591,-1.41578 2.08192,-1.67479 3.14619,-7.23623 0.62924,-11.32627 -2.51695,-4.09004 -9.202594,-11.71954 -11.404925,-12.97802 -2.202331,-1.25847 -3.932734,-3.53946 -8.258741,-2.75291 -10.956162,2.11288 -6.444516,14.25477 -3.22484,18.64116 z"
         id="path425"
         sodipodi:nodetypes="csssscc" /><path
         id="path531"
         style="fill:#000000;fill-opacity:1;stroke:#000000;stroke-width:0.264583px;stroke-linecap:butt;stroke-linejoin:miter;stroke-opacity:1"
         d="m 90.26688,67.387814 c -1.402597,0.34778 -2.99296,1.04055 -4.645711,2.33681 -1.519067,1.34378 -4.383882,3.60199 -7.594369,8.96069 0.745013,2.42928 1.915707,4.64856 2.953308,6.06216 0.476531,0.63925 1.052009,1.28785 1.68982,1.93218 0.01461,-0.0422 0.0302,-0.0853 0.04082,-0.12299 1.299309,-4.61254 5.28214,-12.22954 13.365592,-14.43116 -1.506224,-1.58627 -2.838062,-2.82411 -3.612182,-3.26646 -0.74624,-0.42643 -1.440072,-0.96913 -2.197282,-1.47123 z m 9.496061,8.9116 c -2.578243,1.13839 -5.415043,2.8685 -7.534941,5.4591 -2.165459,2.64627 -2.932612,6.64179 -3.149678,10.05933 2.131631,1.41692 4.03505,2.4521 4.958871,2.76159 0.04842,0.0162 0.09713,0.0306 0.145728,0.046 1.415277,-7.38115 2.154109,-9.0231 8.270299,-12.63075 0.33905,-0.19999 0.73779,-0.37754 1.17615,-0.53744 -0.94606,-1.47172 -2.35081,-3.3239 -3.866428,-5.15782 z" /><path
         id="path4720"
         style="opacity:0.559289;fill:#202023;fill-opacity:1;stroke:none;stroke-width:0.264583px;stroke-linecap:butt;stroke-linejoin:miter;stroke-opacity:1"
         d="m 77.31315,73.055684 c -0.395609,4.23033 1.842425,9.2061 3.666959,11.69179 3.224838,4.326 10.873772,9.10052 13.057084,9.83196 3.302762,1.10648 7.024387,0.33627 9.202537,-1.41594 0.25148,-0.20229 0.48761,-0.46267 0.70487,-0.76894 -0.66675,-0.60127 -1.69982,-0.9463 -3.28972,-1.02629 -3.643195,-0.15369 -8.430044,-1.99413 -11.091832,-3.77393 -3.036935,-2.03065 -8.079074,-6.1913 -9.742558,-8.31009 -0.843992,-1.075 -1.807921,-3.89698 -2.50734,-6.22856 z" /><path
         style="fill:#7f7f7f;fill-opacity:1;stroke:#000000;stroke-width:0.264583px;stroke-linecap:butt;stroke-linejoin:miter;stroke-opacity:1"
         d="m 102.84636,88.562204 c -4.490587,0.0659 -3.623244,4.62298 -2.08435,5.54516 3.82634,0.49004 15.49497,0.11798 15.49497,0.11798 0,0 -12.95483,-5.37548 -13.41062,-5.66314 z"
         id="path545"
         sodipodi:nodetypes="cccc" /><path
         id="path4737"
         style="opacity:0.444664;fill:#9d9d9d;fill-opacity:1;stroke:none;stroke-width:0.264583px;stroke-linecap:butt;stroke-linejoin:miter;stroke-opacity:1"
         d="m 86.054735,65.946554 c -0.560901,-0.0113 -1.173562,0.0368 -1.8495,0.15968 -0.950374,0.18328 -1.7819,0.44325 -2.510441,0.76585 1.887152,0.60709 3.875302,1.34249 5.179529,2.09341 3.902412,2.24683 9.8644,6.7757 13.125297,10.45569 2.27525,2.56768 3.87346,4.34882 5.1015,5.56452 -0.22611,-1.08499 -0.62405,-2.15993 -1.23249,-3.14865 -2.51694,-4.09003 -9.202138,-11.71954 -11.404467,-12.97801 -1.858215,-1.06184 -3.380561,-2.85157 -6.409428,-2.91249 z" /><path
         id="path4742"
         style="opacity:0.533597;fill:#484848;fill-opacity:1;stroke:none;stroke-width:0.264583px;stroke-linecap:butt;stroke-linejoin:miter;stroke-opacity:1"
         d="m 99.576098,91.265984 c -0.0037,1.18042 0.654172,2.52258 1.185752,2.84113 3.82633,0.49004 15.12157,0.079 15.12157,0.079 0,0 -0.12145,-0.0346 -0.38589,-0.14441 -3.3995,-0.0974 -7.90626,-0.46119 -8.95306,-0.58652 -1.292,-0.1547 -5.37102,-0.18202 -6.968372,-2.18921 z"
         sodipodi:nodetypes="ccccsc" /><path
         id="path4752"
         style="opacity:0.387352;fill:#cacaca;fill-opacity:1;stroke:none;stroke-width:0.256572px;stroke-linecap:butt;stroke-linejoin:miter;stroke-opacity:1"
         d="m 102.83457,88.701274 c -0.13184,0.002 -1.59353,-0.007 -2.34795,0.72811 1.815,-0.31294 7.89762,1.93559 10.64528,3.01386 0.24495,0.1019 1.661,0.5689 2.21012,0.7016 -3.67927,-1.53215 -10.19031,-4.24346 -10.50745,-4.44361 z"
         sodipodi:nodetypes="cccccc" /><path
         style="fill:url(#radialGradient5562);fill-opacity:1;stroke:#000000;stroke-width:0.264583px;stroke-linecap:butt;stroke-linejoin:miter;stroke-opacity:1"
         d="m 85.984259,50.055524 c -1.44589,-0.36359 -3.636894,0.46157 -4.053312,1.89098 -0.489223,1.67932 0.486288,3.28507 1.383684,3.28142 2.123414,-0.009 5.74321,0.11339 6.117898,-0.55618 0.743766,-2.28248 -1.58561,-4.14783 -3.44827,-4.61622 z"
         id="path5531"
         sodipodi:nodetypes="assca" /><path
         id="path5983"
         style="fill:#000000;fill-opacity:1;stroke:none;stroke-width:0.264583px;stroke-linecap:butt;stroke-linejoin:miter;stroke-opacity:1"
         d="m 94.605117,59.621874 c 0,0 2.12025,2.48765 2.774892,4.41989 0.223338,-0.0789 0.646,-0.2211 0.885867,-0.4377 -1.475906,-2.30978 -3.660759,-3.98219 -3.660759,-3.98219 z"
         sodipodi:nodetypes="cccc" /><path
         id="path5988"
         style="fill:#fcff49;fill-opacity:0.45666;stroke:none;stroke-width:0.264583px;stroke-linecap:butt;stroke-linejoin:miter;stroke-opacity:1"
         d="m 87.601927,45.379854 c -1.230045,-0.01 -2.489541,0.40164 -3.640089,1.0852 1.974993,-0.10179 4.105989,-0.0339 5.860108,0.80977 2.694453,1.29594 4.543267,4.00058 6.173266,6.5071 1.105538,1.70004 2.336292,5.61723 2.336292,5.61723 0.425503,1.036 0.437879,2.38556 0.504879,3.31556 0.592209,-1.91588 -0.421479,-6.19765 -1.728577,-8.65477 -1.996123,-3.75236 -5.096504,-8.5129 -9.343616,-8.67647 -0.05398,-0.002 -0.108161,-0.003 -0.162263,-0.004 z" /><path
         style="fill:#000000;fill-opacity:1;stroke:none;stroke-width:0.264583px;stroke-linecap:butt;stroke-linejoin:miter;stroke-opacity:1"
         d="m 90.123969,46.187014 c 1.143999,-1.51098 3.791347,-2.80948 6.036743,-2.69393 0.375686,0.0193 2.516952,0.55059 2.516952,0.55059 -2.685917,-0.54898 -4.78351,0.17605 -5.853843,0.97864 -0.269727,0.20226 -1.272335,0.80269 -2.047955,1.89593 -0.298877,0.42127 -1.26174,0.39855 -0.651897,-0.73123 z"
         id="path6017"
         sodipodi:nodetypes="cscssc" /><path
         style="fill:#000000;fill-opacity:1;stroke:none;stroke-width:0.264583px;stroke-linecap:butt;stroke-linejoin:miter;stroke-opacity:1"
         d="m 85.699645,47.465144 c -0.53294,-0.7926 1.713348,-3.72641 3.382149,-5.15188 1.668802,-1.42547 3.456873,-1.8714 5.230536,-1.49444 2.057156,0.43722 4.837261,4.05072 4.837261,4.05072 0,0 -2.549953,-3.29082 -5.112554,-3.50013 -2.921268,0.16129 -4.209056,1.34325 -5.545153,3.65744 -0.467399,0.80956 -0.50458,2.34682 -1.376457,2.79223 -0.428134,0.21872 -0.882842,0.43866 -1.415782,-0.35394 z"
         id="path6044"
         sodipodi:nodetypes="zzaccssz" /></g></g></svg>
