<?xml version="1.0" encoding="UTF-8" standalone="no"?>
<!-- Created with Inkscape (http://www.inkscape.org/) -->

<svg
   width="210mm"
   height="297mm"
   viewBox="0 0 210 297"
   version="1.1"
   id="svg5"
   inkscape:version="1.2 (dc2aedaf03, 2022-05-15)"
   sodipodi:docname="bomb.svg"
   xmlns:inkscape="http://www.inkscape.org/namespaces/inkscape"
   xmlns:sodipodi="http://sodipodi.sourceforge.net/DTD/sodipodi-0.dtd"
   xmlns="http://www.w3.org/2000/svg"
   xmlns:svg="http://www.w3.org/2000/svg">
  <sodipodi:namedview
     id="namedview7"
     pagecolor="#ffffff"
     bordercolor="#666666"
     borderopacity="1.0"
     inkscape:showpageshadow="2"
     inkscape:pageopacity="0.0"
     inkscape:pagecheckerboard="0"
     inkscape:deskcolor="#d1d1d1"
     inkscape:document-units="mm"
     showgrid="false"
     inkscape:zoom="0.5946522"
     inkscape:cx="332.96774"
     inkscape:cy="417.89133"
     inkscape:window-width="1336"
     inkscape:window-height="1042"
     inkscape:window-x="2254"
     inkscape:window-y="136"
     inkscape:window-maximized="0"
     inkscape:current-layer="layer1" />
  <defs
     id="defs2">
    <inkscape:path-effect
       effect="bend_path"
       id="path-effect6026"
       is_visible="true"
       lpeversion="1"
       bendpath="m 85.873024,39.154539 c 9.419923,-2.091069 12.904291,-10.387489 34.260226,0"
       prop_scale="1"
       scale_y_rel="false"
       vertical="false"
       hide_knot="false"
       bendpath-nodetypes="cc" />
    <inkscape:path-effect
       effect="bend_path"
       id="path-effect6013"
       is_visible="true"
       lpeversion="1"
       bendpath="m 85.873024,39.154539 c 9.419923,-2.091069 12.904291,-10.387489 34.260226,0"
       prop_scale="1"
       scale_y_rel="false"
       vertical="false"
       hide_knot="false"
       bendpath-nodetypes="cc" />
    <inkscape:path-effect
       effect="bend_path"
       id="path-effect5996"
       is_visible="true"
       lpeversion="1"
       bendpath="m 85.873024,39.154539 c 9.419923,-2.091069 12.904291,-10.387489 34.260226,0"
       prop_scale="1"
       scale_y_rel="false"
       vertical="false"
       hide_knot="false"
       bendpath-nodetypes="cc" />
    <inkscape:path-effect
       effect="bend_path"
       id="path-effect4400"
       is_visible="true"
       lpeversion="1"
       bendpath="m 70.317268,38.147511 c 15.107932,-6.352569 31.070742,-9.456618 50.338982,0"
       prop_scale="1"
       scale_y_rel="false"
       vertical="false"
       hide_knot="false"
       bendpath-nodetypes="cc" />
    <inkscape:path-effect
       effect="bend_path"
       id="path-effect4390"
       is_visible="true"
       lpeversion="1"
       bendpath="m 70.317268,38.147511 c 15.107932,-6.352569 31.070742,-9.456618 50.338982,0"
       prop_scale="1"
       scale_y_rel="false"
       vertical="false"
       hide_knot="false"
       bendpath-nodetypes="cc" />
    <inkscape:path-effect
       effect="bend_path"
       id="path-effect4382"
       is_visible="true"
       lpeversion="1"
       bendpath="m 70.317268,38.147511 c 15.107932,-6.352569 31.070742,-9.456618 50.338982,0"
       prop_scale="1"
       scale_y_rel="false"
       vertical="false"
       hide_knot="false"
       bendpath-nodetypes="cc" />
    <inkscape:path-effect
       effect="bend_path"
       id="path-effect3650"
       is_visible="true"
       lpeversion="1"
       bendpath="m 70.317268,38.147511 c 15.107932,-6.352569 31.070742,-9.456618 50.338982,0"
       prop_scale="1"
       scale_y_rel="false"
       vertical="false"
       hide_knot="false"
       bendpath-nodetypes="cc" />
    <inkscape:path-effect
       effect="bend_path"
       id="path-effect2878"
       is_visible="true"
       lpeversion="1"
       bendpath="m 72.991524,37.125 c 21.876017,-13.34185 35.112736,-7.823047 47.822026,0"
       prop_scale="1"
       scale_y_rel="false"
       vertical="false"
       hide_knot="false"
       bendpath-nodetypes="cc" />
    <inkscape:path-effect
       effect="bend_path"
       id="path-effect2870"
       is_visible="true"
       lpeversion="1"
       bendpath="m 72.991524,37.125 c 21.876017,-13.34185 35.112736,-7.823047 47.822026,0"
       prop_scale="1"
       scale_y_rel="false"
       vertical="false"
       hide_knot="false"
       bendpath-nodetypes="cc" />
    <inkscape:path-effect
       effect="bend_path"
       id="path-effect2860"
       is_visible="true"
       lpeversion="1"
       bendpath="m 72.991524,37.125 c 21.876017,-13.34185 35.112736,-7.823047 47.822026,0"
       prop_scale="1"
       scale_y_rel="false"
       vertical="false"
       hide_knot="false"
       bendpath-nodetypes="cc" />
    <inkscape:path-effect
       effect="bend_path"
       id="path-effect2511"
       is_visible="true"
       lpeversion="1"
       bendpath="m 72.991524,37.125 c 21.876017,-13.34185 35.112736,-7.823047 47.822026,0"
       prop_scale="1"
       scale_y_rel="false"
       vertical="false"
       hide_knot="false"
       bendpath-nodetypes="cc" />
    <inkscape:path-effect
       effect="bend_path"
       id="path-effect2402"
       is_visible="true"
       lpeversion="1"
       bendpath="m 72.991524,37.125 c 21.876017,-13.34185 35.112736,-7.823047 47.822026,0"
       prop_scale="1"
       scale_y_rel="false"
       vertical="false"
       hide_knot="false"
       bendpath-nodetypes="cc" />
  </defs>
  <g
     inkscape:label="Layer 1"
     inkscape:groupmode="layer"
     id="layer1">
    <g
       id="g6070"
       transform="rotate(32.096264,165.41087,77.224734)">
      <path
         style="fill:#d99268;fill-opacity:1;fill-rule:evenodd;stroke:#000000;stroke-width:5.65536;stroke-dasharray:none;stroke-opacity:1;paint-order:stroke markers fill"
         id="rect5994"
         width="34.260223"
         height="12.013325"
         x="85.873024"
         y="33.147877"
         rx="6.9002113"
         inkscape:path-effect="#path-effect5996"
         class="UnoptimicedTransforms"
         d="m 90.066016,31.176312 c 2.014606,-0.9399 4.379732,-1.90847 7.17161,-2.567847 l 10e-7,0 c 3.796473,-0.789334 7.526723,-0.710005 10.961833,-0.0345 l 0,0 c 2.52423,0.493059 4.92888,1.188823 7.22126,2.012292 4.34424,1.560537 6.06204,5.546474 4.65505,8.445771 l -0.0743,0.153072 c -1.44268,2.972821 -5.44635,3.889576 -8.68777,2.691756 -1.79756,-0.664264 -3.56936,-1.187365 -5.32272,-1.494306 -2.21869,-0.381874 -4.35312,-0.486322 -6.17436,-0.04086 l -1e-6,0 c -1.353637,0.251825 -2.918035,0.956683 -4.769424,1.77671 -0.115688,0.05124 -0.232921,0.09998 -0.351626,0.146174 0,0 -10e-7,0 -10e-7,0 -1.833447,0.776316 -3.973046,0.916513 -5.718581,0.346266 -1.767772,-0.577512 -2.849226,-1.774732 -3.188838,-3.350638 l -0.03585,-0.166367 c -0.32297,-1.498684 0.0504,-3.142878 0.649715,-4.396661 0.621153,-1.299474 1.632322,-2.513414 3.296452,-3.338499 0,0 0,0 0,0 0.119146,-0.06279 0.241654,-0.123639 0.367533,-0.182367 z"
         sodipodi:type="rect"
         transform="matrix(0.38730608,-1.0297116,0.84352372,0.38483064,36.436545,162.33001)"
         ry="5.9216022" />
      <path
         id="rect5998"
         style="fill:#aa5d09;fill-rule:evenodd;stroke-width:0.173094"
         d="m 107.37277,54.727409 c -0.14621,0.167091 -0.2911,0.339664 -0.43304,0.522965 -0.85902,1.109328 -1.69792,2.2692 -2.50941,3.481442 h 12.57132 c 0.18309,-1.425157 0.0369,-2.829821 -0.51159,-4.004407 z m -5.44876,8.119918 c -0.77309,1.430276 -1.47097,2.953564 -2.06964,4.560962 h 12.47831 c 0.76107,-1.219188 1.61532,-2.409233 2.54041,-3.583761 0.24294,-0.30844 0.46771,-0.636252 0.6749,-0.977201 z m -3.189985,8.120434 c -0.189864,0.734786 -0.359379,1.48294 -0.504879,2.244824 -0.11346,0.675991 -0.206339,1.336241 -0.283187,1.981792 h 11.155911 c 0.008,-0.04053 0.0149,-0.08199 0.0232,-0.121957 0.21471,-1.333221 0.67901,-2.713522 1.30225,-4.104659 z" />
      <path
         style="opacity:1;fill:#000000;fill-opacity:1;fill-rule:evenodd;stroke-width:0.264583"
         id="rect3648"
         width="50.338982"
         height="23.12447"
         x="70.317268"
         y="26.585276"
         rx="16.508669"
         ry="11.562235"
         inkscape:path-effect="#path-effect3650"
         class="UnoptimicedTransforms"
         d="m 84.413823,21.751515 c 2.913309,-0.53372 5.906061,-0.906043 8.972104,-1.082034 4.349073,-0.167619 8.642943,0.112562 12.829543,0.788756 5.76048,0.930396 10.25343,3.75084 12.76797,7.000924 2.53025,3.270389 2.98163,6.77463 1.57977,9.64278 -1.39621,2.856579 -4.35991,4.656722 -7.57535,5.611082 -3.25168,0.965116 -6.91669,1.134439 -10.5187,0.525609 -2.691697,-0.454966 -5.376322,-0.628889 -8.0018,-0.469982 -1.909751,0.05696 -3.854331,0.291205 -5.827585,0.667798 -3.718571,0.709684 -7.570842,0.626045 -10.950474,-0.378829 -3.357267,-0.998223 -6.224443,-2.921116 -7.467511,-5.86991 -1.237138,-2.934727 -0.616036,-6.400391 1.845559,-9.538734 2.451603,-3.125606 6.804958,-5.882252 12.346474,-6.89746 z"
         sodipodi:type="rect"
         transform="matrix(0.55237481,0,0,0.70000465,49.37145,58.693837)" />
      <path
         style="opacity:1;fill:#ffffff;fill-opacity:1;fill-rule:evenodd;stroke-width:0.264583"
         id="path4378"
         width="50.338982"
         height="23.12447"
         x="70.317268"
         y="26.585276"
         rx="16.508669"
         ry="11.562235"
         inkscape:path-effect="#path-effect4382"
         class="UnoptimicedTransforms"
         d="m 84.413823,21.751515 c 2.913309,-0.53372 5.906061,-0.906043 8.972104,-1.082034 4.349073,-0.167619 8.642943,0.112562 12.829543,0.788756 5.76048,0.930396 10.25343,3.75084 12.76797,7.000924 2.53025,3.270389 2.98163,6.77463 1.57977,9.64278 -1.39621,2.856579 -4.35991,4.656722 -7.57535,5.611082 -3.25168,0.965116 -6.91669,1.134439 -10.5187,0.525609 -2.691697,-0.454966 -5.376322,-0.628889 -8.0018,-0.469982 -1.909751,0.05696 -3.854331,0.291205 -5.827585,0.667798 -3.718571,0.709684 -7.570842,0.626045 -10.950474,-0.378829 -3.357267,-0.998223 -6.224443,-2.921116 -7.467511,-5.86991 -1.237138,-2.934727 -0.616036,-6.400391 1.845559,-9.538734 2.451603,-3.125606 6.804958,-5.882252 12.346474,-6.89746 z"
         sodipodi:type="rect"
         transform="matrix(0.44045036,0,0,0.47851567,60.057445,65.950238)" />
      <path
         id="rect4384"
         style="fill:#2f3146;fill-opacity:1;fill-rule:evenodd;stroke-width:0.176062"
         d="m 102.55868,75.7948 c -0.48499,-0.0064 -0.97211,3.34e-4 -1.46058,0.02048 -1.110204,0.06818 -2.198575,0.198494 -3.264556,0.380488 v 11.213661 c 0.378451,-0.03745 0.75695,-0.09396 1.132425,-0.170622 0.886498,-0.181011 1.759981,-0.293393 2.617951,-0.320771 1.17952,-0.07638 2.38588,0.0072 3.59514,0.225905 1.61823,0.292637 3.26465,0.211024 4.72549,-0.252863 1.44456,-0.458717 2.7759,-1.323834 3.40317,-2.696862 0.62979,-1.378589 0.42706,-3.062866 -0.70967,-4.634794 -1.12968,-1.562168 -3.14801,-2.917819 -5.73594,-3.365019 -1.41065,-0.243761 -2.84844,-0.380476 -4.30343,-0.399598 z" />
      <path
         id="path4394"
         style="fill:#484d71;fill-opacity:1;fill-rule:evenodd;stroke-width:0.182872"
         d="m 102.62118,75.768957 c -0.47549,-0.0064 -0.95306,3.34e-4 -1.43195,0.02057 -1.350438,0.08497 -2.668529,0.264709 -3.951696,0.522398 -0.537836,0.10801 -1.048514,0.258929 -1.532166,0.441501 a 6.2537236,8.1627699 81.436653 0 0 -2.888013,4.731399 6.2537236,8.1627699 81.436653 0 0 5.674109,5.888627 c 0.202985,-0.03046 0.405734,-0.06681 0.607431,-0.109004 0.869119,-0.181826 1.725485,-0.294712 2.566635,-0.322214 0.67541,-0.04481 1.35993,-0.03345 2.04855,0.0264 a 6.2537236,8.1627699 81.436653 0 0 5.34118,-5.983233 6.2537236,8.1627699 81.436653 0 0 -2.99503,-4.940154 c -1.13181,-0.165963 -2.27972,-0.26067 -3.43905,-0.276281 z" />
      <circle
         style="fill:#393c57;fill-opacity:1;stroke:none;stroke-width:2.89261;stroke-linecap:round;stroke-linejoin:round;stroke-dasharray:none;stroke-opacity:1;paint-order:fill markers stroke"
         id="path184"
         cx="37.983154"
         cy="148.61737"
         r="32.870533"
         transform="rotate(-27.396874)" />
      <path
         id="circle14239"
         style="opacity:0.997579;fill:#2f3146;fill-opacity:1;stroke:none;stroke-width:2.89261;stroke-linecap:round;stroke-linejoin:round;stroke-dasharray:none;stroke-opacity:1;paint-order:fill markers stroke"
         d="m 104.49504,90.256895 a 32.702709,32.702709 0 0 0 -13.98661,44.083025 32.702709,32.702709 0 0 0 11.86754,12.76804 32.702709,32.702709 0 0 0 14.64577,-3.64935 32.702709,32.702709 0 0 0 13.98661,-44.08303 32.702709,32.702709 0 0 0 -11.86352,-12.783065 32.702709,32.702709 0 0 0 -14.64979,3.66438 z" />
      <path
         style="fill:none;fill-opacity:1;stroke:#484d71;stroke-width:5.71947;stroke-linecap:round;stroke-linejoin:round;stroke-dasharray:none;stroke-opacity:1;paint-order:fill markers stroke"
         id="circle3299"
         sodipodi:type="arc"
         sodipodi:cx="37.983154"
         sodipodi:cy="148.61737"
         sodipodi:rx="28.673273"
         sodipodi:ry="28.673273"
         sodipodi:start="5.8174905"
         sodipodi:end="1.9435043"
         sodipodi:open="true"
         sodipodi:arc-type="arc"
         d="m 63.603004,135.74182 a 28.673273,28.673273 0 0 1 -4.424376,32.18639 28.673273,28.673273 0 0 1 -31.636526,7.39386"
         transform="rotate(-27.396874)" />
      <circle
         style="fill:none;fill-opacity:1;stroke:#000000;stroke-width:2.5639;stroke-linecap:round;stroke-linejoin:round;stroke-dasharray:none;stroke-opacity:1;paint-order:fill markers stroke"
         id="circle14247"
         cx="102.10947"
         cy="114.47053"
         r="32.870533" />
      <path
         style="fill:none;fill-opacity:1;stroke:#ffffff;stroke-width:4.99632;stroke-linecap:round;stroke-linejoin:round;stroke-dasharray:none;stroke-opacity:1;paint-order:fill markers stroke"
         id="circle14395"
         sodipodi:type="arc"
         sodipodi:cx="37.983154"
         sodipodi:cy="148.61737"
         sodipodi:rx="26.040712"
         sodipodi:ry="26.040712"
         sodipodi:start="3.5667115"
         sodipodi:end="4.6487674"
         sodipodi:arc-type="arc"
         d="M 14.260333,137.87742 A 26.040712,26.040712 0 0 1 36.32752,122.62934"
         sodipodi:open="true"
         transform="rotate(-27.396874)" />
      <path
         style="fill:none;fill-opacity:1;stroke:#ffffff;stroke-width:4.99632;stroke-linecap:round;stroke-linejoin:round;stroke-dasharray:none;stroke-opacity:1;paint-order:fill markers stroke"
         id="path15588"
         sodipodi:type="arc"
         sodipodi:cx="37.983154"
         sodipodi:cy="148.61737"
         sodipodi:rx="26.040712"
         sodipodi:ry="26.040712"
         sodipodi:start="3.0825423"
         sodipodi:end="3.2938672"
         sodipodi:arc-type="arc"
         d="m 11.98783,150.15419 a 26.040712,26.040712 0 0 1 0.255939,-5.48685"
         sodipodi:open="true"
         transform="rotate(-27.396874)" />
    </g>
  </g>
</svg>
