<?xml version="1.0" encoding="UTF-8" standalone="no"?>
<!-- Created with Inkscape (http://www.inkscape.org/) -->

<svg
   width="210mm"
   height="297mm"
   viewBox="0 0 210 297"
   version="1.1"
   id="svg5"
   inkscape:version="1.2 (dc2aedaf03, 2022-05-15)"
   sodipodi:docname="bomb.svg"
   xmlns:inkscape="http://www.inkscape.org/namespaces/inkscape"
   xmlns:sodipodi="http://sodipodi.sourceforge.net/DTD/sodipodi-0.dtd"
   xmlns="http://www.w3.org/2000/svg"
   xmlns:svg="http://www.w3.org/2000/svg">
  <sodipodi:namedview
     id="namedview7"
     pagecolor="#ffffff"
     bordercolor="#666666"
     borderopacity="1.0"
     inkscape:showpageshadow="2"
     inkscape:pageopacity="0.0"
     inkscape:pagecheckerboard="0"
     inkscape:deskcolor="#d1d1d1"
     inkscape:document-units="mm"
     showgrid="false"
     inkscape:zoom="0.5946522"
     inkscape:cx="166.48387"
     inkscape:cy="419.57299"
     inkscape:window-width="1336"
     inkscape:window-height="1042"
     inkscape:window-x="2254"
     inkscape:window-y="136"
     inkscape:window-maximized="0"
     inkscape:current-layer="layer1" />
  <defs
     id="defs2">
    <inkscape:path-effect
       effect="bend_path"
       id="path-effect903"
       is_visible="true"
       lpeversion="1"
       bendpath="m 70.317268,38.147511 c 15.107932,-6.352569 31.070742,-9.456618 50.338982,0"
       prop_scale="1"
       scale_y_rel="false"
       vertical="false"
       hide_knot="false"
       bendpath-nodetypes="cc" />
    <inkscape:path-effect
       effect="bend_path"
       id="path-effect899"
       is_visible="true"
       lpeversion="1"
       bendpath="m 70.317268,38.147511 c 15.107932,-6.352569 31.070742,-9.456618 50.338982,0"
       prop_scale="1"
       scale_y_rel="false"
       vertical="false"
       hide_knot="false"
       bendpath-nodetypes="cc" />
    <inkscape:path-effect
       effect="bend_path"
       id="path-effect895"
       is_visible="true"
       lpeversion="1"
       bendpath="m 85.873024,39.154539 c 9.419923,-2.091069 12.904291,-10.387489 34.260226,0"
       prop_scale="1"
       scale_y_rel="false"
       vertical="false"
       hide_knot="false"
       bendpath-nodetypes="cc" />
    <inkscape:path-effect
       effect="bend_path"
       id="path-effect6026"
       is_visible="true"
       lpeversion="1"
       bendpath="m 85.873024,39.154539 c 9.419923,-2.091069 12.904291,-10.387489 34.260226,0"
       prop_scale="1"
       scale_y_rel="false"
       vertical="false"
       hide_knot="false"
       bendpath-nodetypes="cc" />
    <inkscape:path-effect
       effect="bend_path"
       id="path-effect6013"
       is_visible="true"
       lpeversion="1"
       bendpath="m 85.873024,39.154539 c 9.419923,-2.091069 12.904291,-10.387489 34.260226,0"
       prop_scale="1"
       scale_y_rel="false"
       vertical="false"
       hide_knot="false"
       bendpath-nodetypes="cc" />
    <inkscape:path-effect
       effect="bend_path"
       id="path-effect5996"
       is_visible="true"
       lpeversion="1"
       bendpath="m 85.873024,39.154539 c 9.419923,-2.091069 12.904291,-10.387489 34.260226,0"
       prop_scale="1"
       scale_y_rel="false"
       vertical="false"
       hide_knot="false"
       bendpath-nodetypes="cc" />
    <inkscape:path-effect
       effect="bend_path"
       id="path-effect4400"
       is_visible="true"
       lpeversion="1"
       bendpath="m 70.317268,38.147511 c 15.107932,-6.352569 31.070742,-9.456618 50.338982,0"
       prop_scale="1"
       scale_y_rel="false"
       vertical="false"
       hide_knot="false"
       bendpath-nodetypes="cc" />
    <inkscape:path-effect
       effect="bend_path"
       id="path-effect4390"
       is_visible="true"
       lpeversion="1"
       bendpath="m 70.317268,38.147511 c 15.107932,-6.352569 31.070742,-9.456618 50.338982,0"
       prop_scale="1"
       scale_y_rel="false"
       vertical="false"
       hide_knot="false"
       bendpath-nodetypes="cc" />
    <inkscape:path-effect
       effect="bend_path"
       id="path-effect4382"
       is_visible="true"
       lpeversion="1"
       bendpath="m 70.317268,38.147511 c 15.107932,-6.352569 31.070742,-9.456618 50.338982,0"
       prop_scale="1"
       scale_y_rel="false"
       vertical="false"
       hide_knot="false"
       bendpath-nodetypes="cc" />
    <inkscape:path-effect
       effect="bend_path"
       id="path-effect3650"
       is_visible="true"
       lpeversion="1"
       bendpath="m 70.317268,38.147511 c 15.107932,-6.352569 31.070742,-9.456618 50.338982,0"
       prop_scale="1"
       scale_y_rel="false"
       vertical="false"
       hide_knot="false"
       bendpath-nodetypes="cc" />
    <inkscape:path-effect
       effect="bend_path"
       id="path-effect2878"
       is_visible="true"
       lpeversion="1"
       bendpath="m 72.991524,37.125 c 21.876017,-13.34185 35.112736,-7.823047 47.822026,0"
       prop_scale="1"
       scale_y_rel="false"
       vertical="false"
       hide_knot="false"
       bendpath-nodetypes="cc" />
    <inkscape:path-effect
       effect="bend_path"
       id="path-effect2870"
       is_visible="true"
       lpeversion="1"
       bendpath="m 72.991524,37.125 c 21.876017,-13.34185 35.112736,-7.823047 47.822026,0"
       prop_scale="1"
       scale_y_rel="false"
       vertical="false"
       hide_knot="false"
       bendpath-nodetypes="cc" />
    <inkscape:path-effect
       effect="bend_path"
       id="path-effect2860"
       is_visible="true"
       lpeversion="1"
       bendpath="m 72.991524,37.125 c 21.876017,-13.34185 35.112736,-7.823047 47.822026,0"
       prop_scale="1"
       scale_y_rel="false"
       vertical="false"
       hide_knot="false"
       bendpath-nodetypes="cc" />
    <inkscape:path-effect
       effect="bend_path"
       id="path-effect2511"
       is_visible="true"
       lpeversion="1"
       bendpath="m 72.991524,37.125 c 21.876017,-13.34185 35.112736,-7.823047 47.822026,0"
       prop_scale="1"
       scale_y_rel="false"
       vertical="false"
       hide_knot="false"
       bendpath-nodetypes="cc" />
    <inkscape:path-effect
       effect="bend_path"
       id="path-effect2402"
       is_visible="true"
       lpeversion="1"
       bendpath="m 72.991524,37.125 c 21.876017,-13.34185 35.112736,-7.823047 47.822026,0"
       prop_scale="1"
       scale_y_rel="false"
       vertical="false"
       hide_knot="false"
       bendpath-nodetypes="cc" />
    <filter
       inkscape:collect="always"
       style="color-interpolation-filters:sRGB"
       id="filter929"
       x="-0.021757"
       y="-0.026334227"
       width="1.043514"
       height="1.0526685">
      <feGaussianBlur
         inkscape:collect="always"
         stdDeviation="0.77949084"
         id="feGaussianBlur931" />
    </filter>
  </defs>
  <g
     inkscape:label="Layer 1"
     inkscape:groupmode="layer"
     id="layer1">
    <path
       id="path867"
       style="mix-blend-mode:normal;fill:#a4a4a4;fill-opacity:1;fill-rule:evenodd;stroke:none;stroke-width:5.65536;stroke-dasharray:none;stroke-opacity:1;paint-order:stroke markers fill;filter:url(#filter929)"
       class="UnoptimicedTransforms"
       d="m 118.17866,32.156617 c -0.74997,-0.638433 -1.67189,-1.179936 -2.75795,-1.57007 -2.29238,-0.823468 -4.69694,-1.519386 -7.22117,-2.012445 -3.43511,-0.675504 -7.16527,-0.755092 -10.961737,0.03424 -0.08319,0.01965 -0.164916,0.04053 -0.24735,0.06071 -0.377805,-0.699909 -0.771806,-1.383365 -1.182342,-2.047808 -1.746614,-2.826852 -4.255271,-4.525404 -6.580975,-5.062962 -2.099311,-0.485231 -4.039668,-0.06591 -5.460031,1.093669 a 35.73027,29.715692 79.180275 0 0 -0.06795,-0.07385 35.73027,29.715692 79.180275 0 0 -0.061,-0.06654 A 35.73027,29.715692 79.180275 0 0 82.976592,21.825213 35.73027,29.715692 79.180275 0 0 82.431355,21.31309 35.73027,29.715692 79.180275 0 0 81.519044,20.456245 35.73027,29.715692 79.180275 0 0 80.583609,19.652246 35.73027,29.715692 79.180275 0 0 79.629647,18.87902 35.73027,29.715692 79.180275 0 0 78.657663,18.161029 35.73027,29.715692 79.180275 0 0 77.657591,17.466916 35.73027,29.715692 79.180275 0 0 76.643035,16.831085 35.73027,29.715692 79.180275 0 0 75.611919,16.22772 35.73027,29.715692 79.180275 0 0 74.5616,15.678575 35.73027,29.715692 79.180275 0 0 73.505058,15.167458 35.73027,29.715692 79.180275 0 0 72.430753,14.711132 35.73027,29.715692 79.180275 0 0 71.345516,14.290783 35.73027,29.715692 79.180275 0 0 70.245919,13.927489 35.73027,29.715692 79.180275 0 0 69.150295,13.604993 35.73027,29.715692 79.180275 0 0 68.038479,13.338641 35.73027,29.715692 79.180275 0 0 66.925407,13.111925 35.73027,29.715692 79.180275 0 0 65.805294,12.94389 a 35.73027,29.715692 79.180275 0 0 -1.113926,-0.127999 35.73027,29.715692 79.180275 0 0 -1.127231,-0.0687 35.73027,29.715692 79.180275 0 0 -1.10917,-0.02979 35.73027,29.715692 79.180275 0 0 -1.116596,0.03056 35.73027,29.715692 79.180275 0 0 -1.115895,0.06988 35.73027,29.715692 79.180275 0 0 -1.101262,0.129868 35.73027,29.715692 79.180275 0 0 -1.099256,0.168973 35.73027,29.715692 79.180275 0 0 -1.07837,0.226336 35.73027,29.715692 79.180275 0 0 -1.091355,0.269888 35.73027,29.715692 79.180275 0 0 -1.051305,0.321723 35.73027,29.715692 79.180275 0 0 -1.066889,0.367711 35.73027,29.715692 79.180275 0 0 -1.021507,0.415459 35.73027,29.715692 79.180275 0 0 -0.636748,0.258783 35.73027,29.715692 79.180275 0 0 -0.395251,0.203043 35.73027,29.715692 79.180275 0 0 -0.998739,0.513154 35.73027,29.715692 79.180275 0 0 -0.983957,0.548574 35.73027,29.715692 79.180275 0 0 -0.958256,0.602739 35.73027,29.715692 79.180275 0 0 -0.946984,0.641144 35.73027,29.715692 79.180275 0 0 -0.908794,0.686038 35.73027,29.715692 79.180275 0 0 -0.902588,0.730094 35.73027,29.715692 79.180275 0 0 -0.858939,0.769675 35.73027,29.715692 79.180275 0 0 -0.839342,0.801897 35.73027,29.715692 79.180275 0 0 -0.81532,0.859958 35.73027,29.715692 79.180275 0 0 -0.779223,0.875015 35.73027,29.715692 79.180275 0 0 -0.750126,0.929433 35.73027,29.715692 79.180275 0 0 -0.724035,0.954566 35.73027,29.715692 79.180275 0 0 -0.281826,0.372111 35.73027,29.715692 79.180275 0 0 -0.395594,0.613909 35.73027,29.715692 79.180275 0 0 -0.661182,1.026031 35.73027,29.715692 79.180275 0 0 -0.61522,1.057591 35.73027,29.715692 79.180275 0 0 -0.586921,1.079951 35.73027,29.715692 79.180275 0 0 -0.545882,1.119956 35.73027,29.715692 79.180275 0 0 -0.508929,1.122401 35.73027,29.715692 79.180275 0 0 -0.473827,1.176648 35.73027,29.715692 79.180275 0 0 -0.437394,1.179982 35.73027,29.715692 79.180275 0 0 -0.392208,1.212875 35.73027,29.715692 79.180275 0 0 -0.358766,1.218305 35.73027,29.715692 79.180275 0 0 -0.312938,1.249082 35.73027,29.715692 79.180275 0 0 -0.281791,1.266553 35.73027,29.715692 79.180275 0 0 -0.229425,1.270918 35.73027,29.715692 79.180275 0 0 -0.198797,1.289279 35.73027,29.715692 79.180275 0 0 -0.14862,1.300438 35.73027,29.715692 79.180275 0 0 -0.116436,1.316131 35.73027,29.715692 79.180275 0 0 -0.06426,1.307652 35.73027,29.715692 79.180275 0 0 -0.03259,1.326245 35.73027,29.715692 79.180275 0 0 0.01873,1.330378 35.73027,29.715692 79.180275 0 0 0.05133,1.323068 35.73027,29.715692 79.180275 0 0 0.102557,1.334461 35.73027,29.715692 79.180275 0 0 0.134467,1.319216 35.73027,29.715692 79.180275 0 0 0.185136,1.323456 35.73027,29.715692 79.180275 0 0 0.218013,1.319723 35.73027,29.715692 79.180275 0 0 0.265846,1.3035 35.73027,29.715692 79.180275 0 0 0.301379,1.309394 35.73027,29.715692 79.180275 0 0 0.344966,1.27817 35.73027,29.715692 79.180275 0 0 0.379837,1.28216 35.73027,29.715692 79.180275 0 0 0.427258,1.261578 35.73027,29.715692 79.180275 0 0 0.258295,0.764357 35.73027,29.715692 79.180275 0 0 0.197873,0.482062 35.73027,29.715692 79.180275 0 0 0.50241,1.224823 35.73027,29.715692 79.180275 0 0 0.530658,1.207758 35.73027,29.715692 79.180275 0 0 0.573737,1.179434 35.73027,29.715692 79.180275 0 0 0.609223,1.175276 35.73027,29.715692 79.180275 0 0 0.640452,1.124735 35.73027,29.715692 79.180275 0 0 0.673043,1.115415 35.73027,29.715692 79.180275 0 0 0.719401,1.09058 35.73027,29.715692 79.180275 0 0 0.729241,1.044319 35.73027,29.715692 79.180275 0 0 0.780066,1.026002 35.73027,29.715692 79.180275 0 0 0.794518,0.98905 35.73027,29.715692 79.180275 0 0 0.839418,0.959623 35.73027,29.715692 79.180275 0 0 0.845873,0.91512 35.73027,29.715692 79.180275 0 0 0.339899,0.368049 35.73027,29.715692 79.180275 0 0 0.554806,0.521029 35.73027,29.715692 79.180275 0 0 0.901034,0.845803 35.73027,29.715692 79.180275 0 0 0.937401,0.805691 35.73027,29.715692 79.180275 0 0 0.953962,0.773226 35.73027,29.715692 79.180275 0 0 0.972771,0.718668 35.73027,29.715692 79.180275 0 0 0.999285,0.693436 35.73027,29.715692 79.180275 0 0 1.012983,0.634477 35.73027,29.715692 79.180275 0 0 1.036353,0.606538 35.73027,29.715692 79.180275 0 0 1.036452,0.542547 35.73027,29.715692 79.180275 0 0 1.07224,0.518624 35.73027,29.715692 79.180275 0 0 1.069203,0.453936 35.73027,29.715692 79.180275 0 0 1.081315,0.418975 35.73027,29.715692 79.180275 0 0 1.107048,0.365704 35.73027,29.715692 79.180275 0 0 1.090657,0.32089 35.73027,29.715692 79.180275 0 0 1.114952,0.267049 35.73027,29.715692 79.180275 0 0 1.107979,0.226337 35.73027,29.715692 79.180275 0 0 1.125858,0.168307 35.73027,29.715692 79.180275 0 0 1.111576,0.127979 35.73027,29.715692 79.180275 0 0 1.124229,0.06879 35.73027,29.715692 79.180275 0 0 1.115827,0.02951 35.73027,29.715692 79.180275 0 0 1.109547,-0.03062 35.73027,29.715692 79.180275 0 0 1.120201,-0.07018 35.73027,29.715692 79.180275 0 0 1.095651,-0.129358 35.73027,29.715692 79.180275 0 0 1.103562,-0.169271 35.73027,29.715692 79.180275 0 0 1.086455,-0.228052 35.73027,29.715692 79.180275 0 0 1.075971,-0.265779 35.73027,29.715692 79.180275 0 0 1.070727,-0.327696 35.73027,29.715692 79.180275 0 0 1.047208,-0.361293 35.73027,29.715692 79.180275 0 0 1.041573,-0.423548 35.73027,29.715692 79.180275 0 0 0.624241,-0.253532 35.73027,29.715692 79.180275 0 0 0.769518,-0.370085 35.73027,29.715692 79.180275 0 0 0.06655,-0.03415 35.73027,29.715692 79.180275 0 0 1.917653,-1.069667 35.73027,29.715692 79.180275 0 0 0.03449,-0.0217 35.73027,29.715692 79.180275 0 0 1.856618,-1.25771 35.73027,29.715692 79.180275 0 0 0.0069,-0.0047 35.73027,29.715692 79.180275 0 0 0.0035,-0.003 35.73027,29.715692 79.180275 0 0 1.749128,-1.41366 35.73027,29.715692 79.180275 0 0 0.06072,-0.05252 35.73027,29.715692 79.180275 0 0 1.616687,-1.545036 35.73027,29.715692 79.180275 0 0 0.07588,-0.07751 35.73027,29.715692 79.180275 0 0 1.496495,-1.681218 35.73027,29.715692 79.180275 0 0 0.07438,-0.09015 35.73027,29.715692 79.180275 0 0 1.372291,-1.809505 35.73027,29.715692 79.180275 0 0 0.04295,-0.05647 35.73027,29.715692 79.180275 0 0 0.09829,-0.144324 35.73027,29.715692 79.180275 0 0 0.240918,-0.3546 35.73027,29.715692 79.180275 0 0 0.221952,-0.334217 35.73027,29.715692 79.180275 0 0 0.236547,-0.368374 35.73027,29.715692 79.180275 0 0 0.209811,-0.334658 35.73027,29.715692 79.180275 0 0 0.225825,-0.372265 35.73027,29.715692 79.180275 0 0 0.218526,-0.369872 35.73027,29.715692 79.180275 0 0 0.190888,-0.333595 35.73027,29.715692 79.180275 0 0 0.222311,-0.398652 35.73027,29.715692 79.180275 0 0 0.19662,-0.364703 35.73027,29.715692 79.180275 0 0 0.200066,-0.38176 35.73027,29.715692 79.180275 0 0 0.178021,-0.350012 35.73027,29.715692 79.180275 0 0 0.214703,-0.435238 35.73027,29.715692 79.180275 0 0 0.158126,-0.333099 35.73027,29.715692 79.180275 0 0 0.1917,-0.412991 35.73027,29.715692 79.180275 0 0 0.18206,-0.408609 35.73027,29.715692 79.180275 0 0 0.162508,-0.374047 35.73027,29.715692 79.180275 0 0 0.167471,-0.401811 35.73027,29.715692 79.180275 0 0 0.163808,-0.403631 35.73027,29.715692 79.180275 0 0 0.153535,-0.395121 35.73027,29.715692 79.180275 0 0 0.16393,-0.43423 35.73027,29.715692 79.180275 0 0 0.133417,-0.369722 35.73027,29.715692 79.180275 0 0 0.153342,-0.437338 35.73027,29.715692 79.180275 0 0 0.134575,-0.402099 35.73027,29.715692 79.180275 0 0 0.140432,-0.434435 35.73027,29.715692 79.180275 0 0 0.120023,-0.387261 35.73027,29.715692 79.180275 0 0 0.138847,-0.467171 35.73027,29.715692 79.180275 0 0 0.106114,-0.374539 35.73027,29.715692 79.180275 0 0 0.124285,-0.454344 35.73027,29.715692 79.180275 0 0 0.111717,-0.433792 35.73027,29.715692 79.180275 0 0 0.104598,-0.420565 35.73027,29.715692 79.180275 0 0 0.09795,-0.418277 35.73027,29.715692 79.180275 0 0 0.103235,-0.461787 35.73027,29.715692 79.180275 0 0 0.08521,-0.406551 35.73027,29.715692 79.180275 0 0 0.09483,-0.473697 35.73027,29.715692 79.180275 0 0 0.07263,-0.390021 35.73027,29.715692 79.180275 0 0 0.085,-0.48216 35.73027,29.715692 79.180275 0 0 0.07098,-0.436828 35.73027,29.715692 79.180275 0 0 0.06503,-0.424596 35.73027,29.715692 79.180275 0 0 0.06839,-0.489117 35.73027,29.715692 79.180275 0 0 0.05007,-0.384745 35.73027,29.715692 79.180275 0 0 0.05969,-0.506616 35.73027,29.715692 79.180275 0 0 0.0447,-0.416062 35.73027,29.715692 79.180275 0 0 0.0436,-0.457728 35.73027,29.715692 79.180275 0 0 0.03742,-0.439021 35.73027,29.715692 79.180275 0 0 0.03437,-0.478358 35.73027,29.715692 79.180275 0 0 0.02727,-0.431738 35.73027,29.715692 79.180275 0 0 0.02325,-0.455226 35.73027,29.715692 79.180275 0 0 0.01867,-0.456494 35.73027,29.715692 79.180275 0 0 0.01301,-0.468047 35.73027,29.715692 79.180275 0 0 0.0085,-0.449212 35.73027,29.715692 79.180275 0 0 0.0012,-0.04768 c 1.755934,-0.195916 3.453337,-1.358825 4.687349,-3.418885 1.170453,-1.95396 1.849613,-4.642162 1.594443,-7.562745 1.60479,-0.228898 3.40199,-0.105177 5.2591,0.214464 1.75336,0.306941 3.52521,0.829822 5.32277,1.494086 3.24141,1.197818 7.24487,0.281176 8.68755,-2.691642 l 0.0744,-0.15291 c 1.05524,-2.17447 0.3529,-4.96018 -1.897,-6.875479 z"
       transform="matrix(1.1167853,-0.34576055,0.42415208,0.57887216,13.399147,82.041292)" />
    <g
       id="g6070"
       transform="rotate(32.096264,165.41087,77.224734)">
      <path
         style="fill:#d99268;fill-opacity:1;fill-rule:evenodd;stroke:#000000;stroke-width:5.65536;stroke-dasharray:none;stroke-opacity:1;paint-order:stroke markers fill"
         id="rect5994"
         width="34.260223"
         height="12.013325"
         x="85.873024"
         y="33.147877"
         rx="6.9002113"
         inkscape:path-effect="#path-effect5996"
         class="UnoptimicedTransforms"
         d="m 90.066016,31.176312 c 2.014606,-0.9399 4.379732,-1.90847 7.17161,-2.567847 l 10e-7,0 c 3.796473,-0.789334 7.526723,-0.710005 10.961833,-0.0345 l 0,0 c 2.52423,0.493059 4.92888,1.188823 7.22126,2.012292 4.34424,1.560537 6.06204,5.546474 4.65505,8.445771 l -0.0743,0.153072 c -1.44268,2.972821 -5.44635,3.889576 -8.68777,2.691756 -1.79756,-0.664264 -3.56936,-1.187365 -5.32272,-1.494306 -2.21869,-0.381874 -4.35312,-0.486322 -6.17436,-0.04086 l -1e-6,0 c -1.353637,0.251825 -2.918035,0.956683 -4.769424,1.77671 -0.115688,0.05124 -0.232921,0.09998 -0.351626,0.146174 0,0 -10e-7,0 -10e-7,0 -1.833447,0.776316 -3.973046,0.916513 -5.718581,0.346266 -1.767772,-0.577512 -2.849226,-1.774732 -3.188838,-3.350638 l -0.03585,-0.166367 c -0.32297,-1.498684 0.0504,-3.142878 0.649715,-4.396661 0.621153,-1.299474 1.632322,-2.513414 3.296452,-3.338499 0,0 0,0 0,0 0.119146,-0.06279 0.241654,-0.123639 0.367533,-0.182367 z"
         sodipodi:type="rect"
         transform="matrix(0.38730608,-1.0297116,0.84352372,0.38483064,36.436545,162.33001)"
         ry="5.9216022" />
      <path
         id="rect5998"
         style="fill:#aa5d09;fill-rule:evenodd;stroke-width:0.173094"
         d="m 107.37277,54.727409 c -0.14621,0.167091 -0.2911,0.339664 -0.43304,0.522965 -0.85902,1.109328 -1.69792,2.2692 -2.50941,3.481442 h 12.57132 c 0.18309,-1.425157 0.0369,-2.829821 -0.51159,-4.004407 z m -5.44876,8.119918 c -0.77309,1.430276 -1.47097,2.953564 -2.06964,4.560962 h 12.47831 c 0.76107,-1.219188 1.61532,-2.409233 2.54041,-3.583761 0.24294,-0.30844 0.46771,-0.636252 0.6749,-0.977201 z m -3.189985,8.120434 c -0.189864,0.734786 -0.359379,1.48294 -0.504879,2.244824 -0.11346,0.675991 -0.206339,1.336241 -0.283187,1.981792 h 11.155911 c 0.008,-0.04053 0.0149,-0.08199 0.0232,-0.121957 0.21471,-1.333221 0.67901,-2.713522 1.30225,-4.104659 z" />
      <path
         style="opacity:1;fill:#000000;fill-opacity:1;fill-rule:evenodd;stroke-width:0.264583"
         id="rect3648"
         width="50.338982"
         height="23.12447"
         x="70.317268"
         y="26.585276"
         rx="16.508669"
         ry="11.562235"
         inkscape:path-effect="#path-effect3650"
         class="UnoptimicedTransforms"
         d="m 84.413823,21.751515 c 2.913309,-0.53372 5.906061,-0.906043 8.972104,-1.082034 4.349073,-0.167619 8.642943,0.112562 12.829543,0.788756 5.76048,0.930396 10.25343,3.75084 12.76797,7.000924 2.53025,3.270389 2.98163,6.77463 1.57977,9.64278 -1.39621,2.856579 -4.35991,4.656722 -7.57535,5.611082 -3.25168,0.965116 -6.91669,1.134439 -10.5187,0.525609 -2.691697,-0.454966 -5.376322,-0.628889 -8.0018,-0.469982 -1.909751,0.05696 -3.854331,0.291205 -5.827585,0.667798 -3.718571,0.709684 -7.570842,0.626045 -10.950474,-0.378829 -3.357267,-0.998223 -6.224443,-2.921116 -7.467511,-5.86991 -1.237138,-2.934727 -0.616036,-6.400391 1.845559,-9.538734 2.451603,-3.125606 6.804958,-5.882252 12.346474,-6.89746 z"
         sodipodi:type="rect"
         transform="matrix(0.55237481,0,0,0.70000465,49.37145,58.693837)" />
      <path
         style="opacity:1;fill:#ffffff;fill-opacity:1;fill-rule:evenodd;stroke-width:0.264583"
         id="path4378"
         width="50.338982"
         height="23.12447"
         x="70.317268"
         y="26.585276"
         rx="16.508669"
         ry="11.562235"
         inkscape:path-effect="#path-effect4382"
         class="UnoptimicedTransforms"
         d="m 84.413823,21.751515 c 2.913309,-0.53372 5.906061,-0.906043 8.972104,-1.082034 4.349073,-0.167619 8.642943,0.112562 12.829543,0.788756 5.76048,0.930396 10.25343,3.75084 12.76797,7.000924 2.53025,3.270389 2.98163,6.77463 1.57977,9.64278 -1.39621,2.856579 -4.35991,4.656722 -7.57535,5.611082 -3.25168,0.965116 -6.91669,1.134439 -10.5187,0.525609 -2.691697,-0.454966 -5.376322,-0.628889 -8.0018,-0.469982 -1.909751,0.05696 -3.854331,0.291205 -5.827585,0.667798 -3.718571,0.709684 -7.570842,0.626045 -10.950474,-0.378829 -3.357267,-0.998223 -6.224443,-2.921116 -7.467511,-5.86991 -1.237138,-2.934727 -0.616036,-6.400391 1.845559,-9.538734 2.451603,-3.125606 6.804958,-5.882252 12.346474,-6.89746 z"
         sodipodi:type="rect"
         transform="matrix(0.44045036,0,0,0.47851567,60.057445,65.950238)" />
      <path
         id="rect4384"
         style="fill:#2f3146;fill-opacity:1;fill-rule:evenodd;stroke-width:0.176062"
         d="m 102.55868,75.7948 c -0.48499,-0.0064 -0.97211,3.34e-4 -1.46058,0.02048 -1.110204,0.06818 -2.198575,0.198494 -3.264556,0.380488 v 11.213661 c 0.378451,-0.03745 0.75695,-0.09396 1.132425,-0.170622 0.886498,-0.181011 1.759981,-0.293393 2.617951,-0.320771 1.17952,-0.07638 2.38588,0.0072 3.59514,0.225905 1.61823,0.292637 3.26465,0.211024 4.72549,-0.252863 1.44456,-0.458717 2.7759,-1.323834 3.40317,-2.696862 0.62979,-1.378589 0.42706,-3.062866 -0.70967,-4.634794 -1.12968,-1.562168 -3.14801,-2.917819 -5.73594,-3.365019 -1.41065,-0.243761 -2.84844,-0.380476 -4.30343,-0.399598 z" />
      <path
         id="path4394"
         style="fill:#484d71;fill-opacity:1;fill-rule:evenodd;stroke-width:0.182872"
         d="m 102.62118,75.768957 c -0.47549,-0.0064 -0.95306,3.34e-4 -1.43195,0.02057 -1.350438,0.08497 -2.668529,0.264709 -3.951696,0.522398 -0.537836,0.10801 -1.048514,0.258929 -1.532166,0.441501 a 6.2537236,8.1627699 81.436653 0 0 -2.888013,4.731399 6.2537236,8.1627699 81.436653 0 0 5.674109,5.888627 c 0.202985,-0.03046 0.405734,-0.06681 0.607431,-0.109004 0.869119,-0.181826 1.725485,-0.294712 2.566635,-0.322214 0.67541,-0.04481 1.35993,-0.03345 2.04855,0.0264 a 6.2537236,8.1627699 81.436653 0 0 5.34118,-5.983233 6.2537236,8.1627699 81.436653 0 0 -2.99503,-4.940154 c -1.13181,-0.165963 -2.27972,-0.26067 -3.43905,-0.276281 z" />
      <circle
         style="fill:#393c57;fill-opacity:1;stroke:none;stroke-width:2.89261;stroke-linecap:round;stroke-linejoin:round;stroke-dasharray:none;stroke-opacity:1;paint-order:fill markers stroke"
         id="path184"
         cx="37.983154"
         cy="148.61737"
         r="32.870533"
         transform="rotate(-27.396874)" />
      <path
         id="circle14239"
         style="opacity:0.997579;fill:#2f3146;fill-opacity:1;stroke:none;stroke-width:2.89261;stroke-linecap:round;stroke-linejoin:round;stroke-dasharray:none;stroke-opacity:1;paint-order:fill markers stroke"
         d="m 104.49504,90.256895 a 32.702709,32.702709 0 0 0 -13.98661,44.083025 32.702709,32.702709 0 0 0 11.86754,12.76804 32.702709,32.702709 0 0 0 14.64577,-3.64935 32.702709,32.702709 0 0 0 13.98661,-44.08303 32.702709,32.702709 0 0 0 -11.86352,-12.783065 32.702709,32.702709 0 0 0 -14.64979,3.66438 z" />
      <path
         style="fill:none;fill-opacity:1;stroke:#484d71;stroke-width:5.71947;stroke-linecap:round;stroke-linejoin:round;stroke-dasharray:none;stroke-opacity:1;paint-order:fill markers stroke"
         id="circle3299"
         sodipodi:type="arc"
         sodipodi:cx="37.983154"
         sodipodi:cy="148.61737"
         sodipodi:rx="28.673273"
         sodipodi:ry="28.673273"
         sodipodi:start="5.8174905"
         sodipodi:end="1.9435043"
         sodipodi:open="true"
         sodipodi:arc-type="arc"
         d="m 63.603004,135.74182 a 28.673273,28.673273 0 0 1 -4.424376,32.18639 28.673273,28.673273 0 0 1 -31.636526,7.39386"
         transform="rotate(-27.396874)" />
      <circle
         style="fill:none;fill-opacity:1;stroke:#000000;stroke-width:2.5639;stroke-linecap:round;stroke-linejoin:round;stroke-dasharray:none;stroke-opacity:1;paint-order:fill markers stroke"
         id="circle14247"
         cx="102.10947"
         cy="114.47053"
         r="32.870533" />
      <path
         style="fill:none;fill-opacity:1;stroke:#ffffff;stroke-width:4.99632;stroke-linecap:round;stroke-linejoin:round;stroke-dasharray:none;stroke-opacity:1;paint-order:fill markers stroke"
         id="circle14395"
         sodipodi:type="arc"
         sodipodi:cx="37.983154"
         sodipodi:cy="148.61737"
         sodipodi:rx="26.040712"
         sodipodi:ry="26.040712"
         sodipodi:start="3.5667115"
         sodipodi:end="4.6487674"
         sodipodi:arc-type="arc"
         d="M 14.260333,137.87742 A 26.040712,26.040712 0 0 1 36.32752,122.62934"
         sodipodi:open="true"
         transform="rotate(-27.396874)" />
      <path
         style="fill:none;fill-opacity:1;stroke:#ffffff;stroke-width:4.99632;stroke-linecap:round;stroke-linejoin:round;stroke-dasharray:none;stroke-opacity:1;paint-order:fill markers stroke"
         id="path15588"
         sodipodi:type="arc"
         sodipodi:cx="37.983154"
         sodipodi:cy="148.61737"
         sodipodi:rx="26.040712"
         sodipodi:ry="26.040712"
         sodipodi:start="3.0825423"
         sodipodi:end="3.2938672"
         sodipodi:arc-type="arc"
         d="m 11.98783,150.15419 a 26.040712,26.040712 0 0 1 0.255939,-5.48685"
         sodipodi:open="true"
         transform="rotate(-27.396874)" />
    </g>
  </g>
</svg>
