<?xml version="1.0" encoding="UTF-8" standalone="no"?>
<!-- Created with Inkscape (http://www.inkscape.org/) -->

<svg
   width="210mm"
   height="297mm"
   viewBox="0 0 210 297"
   version="1.1"
   id="svg5"
   inkscape:version="1.2 (dc2aedaf03, 2022-05-15)"
   sodipodi:docname="bowling-pin.svg"
   xml:space="preserve"
   xmlns:inkscape="http://www.inkscape.org/namespaces/inkscape"
   xmlns:sodipodi="http://sodipodi.sourceforge.net/DTD/sodipodi-0.dtd"
   xmlns:xlink="http://www.w3.org/1999/xlink"
   xmlns="http://www.w3.org/2000/svg"
   xmlns:svg="http://www.w3.org/2000/svg"><sodipodi:namedview
     id="namedview7"
     pagecolor="#ffffff"
     bordercolor="#666666"
     borderopacity="1.0"
     inkscape:showpageshadow="2"
     inkscape:pageopacity="0.0"
     inkscape:pagecheckerboard="0"
     inkscape:deskcolor="#d1d1d1"
     inkscape:document-units="mm"
     showgrid="false"
     inkscape:zoom="0.8926347"
     inkscape:cx="36.96921"
     inkscape:cy="442.51024"
     inkscape:window-width="2394"
     inkscape:window-height="1361"
     inkscape:window-x="2000"
     inkscape:window-y="17"
     inkscape:window-maximized="1"
     inkscape:current-layer="layer1" /><defs
     id="defs2"><linearGradient
       inkscape:collect="always"
       id="linearGradient12547"><stop
         style="stop-color:#ffffff;stop-opacity:1;"
         offset="0"
         id="stop12543" /><stop
         style="stop-color:#b0b0b0;stop-opacity:0;"
         offset="1"
         id="stop12545" /></linearGradient><linearGradient
       inkscape:collect="always"
       id="linearGradient12527"><stop
         style="stop-color:#ffffff;stop-opacity:1;"
         offset="0"
         id="stop12523" /><stop
         style="stop-color:#ffffff;stop-opacity:0;"
         offset="1"
         id="stop12525" /></linearGradient><linearGradient
       inkscape:collect="always"
       id="linearGradient8899"><stop
         style="stop-color:#400001;stop-opacity:1;"
         offset="0"
         id="stop8895" /><stop
         style="stop-color:#ff0003;stop-opacity:1;"
         offset="1"
         id="stop8897" /></linearGradient><linearGradient
       inkscape:collect="always"
       id="linearGradient6329"><stop
         style="stop-color:#ffffff;stop-opacity:1;"
         offset="0"
         id="stop6325" /><stop
         style="stop-color:#ffffff;stop-opacity:0.15416667;"
         offset="1"
         id="stop6327" /></linearGradient><linearGradient
       inkscape:collect="always"
       id="linearGradient6323"><stop
         style="stop-color:#ffffff;stop-opacity:1;"
         offset="0"
         id="stop6319" /><stop
         style="stop-color:#ffffff;stop-opacity:0.15833333;"
         offset="1"
         id="stop6321" /></linearGradient><linearGradient
       inkscape:collect="always"
       id="linearGradient4683"><stop
         style="stop-color:#ffffff;stop-opacity:1;"
         offset="0"
         id="stop4679" /><stop
         style="stop-color:#ffffff;stop-opacity:0;"
         offset="1"
         id="stop4681" /></linearGradient><inkscape:path-effect
       effect="mirror_symmetry"
       start_point="88.447624,42.442289"
       end_point="88.342828,185.51238"
       center_point="88.395226,113.97733"
       id="path-effect4556"
       is_visible="true"
       lpeversion="1.2"
       lpesatellites=""
       mode="free"
       discard_orig_path="false"
       fuse_paths="false"
       oposite_fuse="false"
       split_items="false"
       split_open="false"
       link_styles="false" /><radialGradient
       inkscape:collect="always"
       xlink:href="#linearGradient4683"
       id="radialGradient4815"
       gradientUnits="userSpaceOnUse"
       gradientTransform="matrix(0.05694641,3.4520177,-2.1267228,0.03508407,366.56488,-250.68332)"
       cx="107.07218"
       cy="130.61746"
       fx="107.07218"
       fy="130.61746"
       r="22.736479" /><radialGradient
       inkscape:collect="always"
       xlink:href="#linearGradient6329"
       id="radialGradient5565"
       gradientUnits="userSpaceOnUse"
       gradientTransform="matrix(-0.0221903,1.6299824,-0.91317691,-0.01243169,115.80715,-85.516459)"
       cx="87.27005"
       cy="23.096718"
       fx="87.27005"
       fy="23.096718"
       r="22.736479" /><radialGradient
       inkscape:collect="always"
       xlink:href="#linearGradient6323"
       id="radialGradient6317"
       gradientUnits="userSpaceOnUse"
       gradientTransform="matrix(0.05694641,3.8527082,-2.1267798,0.03143619,366.57233,-293.10965)"
       cx="107.07218"
       cy="130.61746"
       fx="107.07218"
       fy="130.61746"
       r="22.736479" /><linearGradient
       inkscape:collect="always"
       xlink:href="#linearGradient8899"
       id="linearGradient8850"
       x1="79.839569"
       y1="90.15419"
       x2="91.960266"
       y2="90.15419"
       gradientUnits="userSpaceOnUse"
       gradientTransform="matrix(0.93951188,0,0,1,5.348058,0)" /><linearGradient
       inkscape:collect="always"
       xlink:href="#linearGradient8899"
       id="linearGradient8860"
       gradientUnits="userSpaceOnUse"
       x1="79.485071"
       y1="76.530729"
       x2="93.428528"
       y2="76.514381"
       gradientTransform="matrix(0.94194673,0,0,1,5.1330808,0)" /><filter
       inkscape:collect="always"
       style="color-interpolation-filters:sRGB"
       id="filter10976"
       x="-0.028081193"
       y="-0.0087434436"
       width="1.0561624"
       height="1.0174869"><feGaussianBlur
         inkscape:collect="always"
         stdDeviation="0.51652514"
         id="feGaussianBlur10978" /></filter><filter
       inkscape:collect="always"
       style="color-interpolation-filters:sRGB"
       id="filter10981"
       x="-0.44786796"
       y="-0.13716217"
       width="1.8957359"
       height="1.2743243"><feGaussianBlur
         inkscape:collect="always"
         stdDeviation="8.0425492"
         id="feGaussianBlur10983" /></filter><linearGradient
       inkscape:collect="always"
       xlink:href="#linearGradient12527"
       id="linearGradient12529"
       x1="81.215569"
       y1="45.718254"
       x2="95.443108"
       y2="59.66983"
       gradientUnits="userSpaceOnUse"
       gradientTransform="matrix(1,0,0,1.08,0,-3.6043108)" /><linearGradient
       inkscape:collect="always"
       xlink:href="#linearGradient12547"
       id="linearGradient12535"
       x1="77.065865"
       y1="106.41017"
       x2="77.658684"
       y2="173.10179"
       gradientUnits="userSpaceOnUse" /></defs><g
     inkscape:label="Layer 1"
     inkscape:groupmode="layer"
     id="layer1"><g
       id="g12599"><path
         id="path4554"
         style="opacity:1;mix-blend-mode:normal;fill:#000000;fill-opacity:1;stroke:none;stroke-width:0;stroke-linecap:butt;stroke-linejoin:miter;stroke-dasharray:none;stroke-opacity:1;filter:url(#filter10976)"
         class="UnoptimicedTransforms"
         d="m 88.162109,43.208984 c -3.858921,0.241837 -7.735591,2.427655 -9.340942,6.048221 -1.677471,3.333312 -1.691603,7.213974 -1.078502,10.818054 0.873988,6.824225 1.985963,13.594708 2.340158,20.477072 0.304733,4.280242 0.658204,8.624401 -0.270409,12.85957 -0.759433,2.455421 -2.008994,4.700157 -2.869477,7.122379 -3.028764,7.49354 -6.100624,14.98264 -8.586561,22.67855 -2.292983,7.79266 -2.54993,16.08235 -1.336072,24.08599 1.365593,9.15257 4.436168,17.92782 7.605028,26.58549 0.906467,2.41431 1.555048,4.93851 2.605105,7.28855 1.785937,2.58934 5.072616,3.48514 8.049445,3.72271 3.394824,0.11658 6.918191,0.32677 10.177608,-0.80962 2.038249,-0.71962 4.046961,-2.15295 4.63474,-4.33568 2.37487,-7.42515 5.43364,-14.63065 7.41526,-22.18259 2.69983,-9.67038 3.94828,-19.96432 1.98388,-29.89648 -1.22462,-6.26322 -3.79826,-12.13825 -6.02065,-18.08807 -2.02123,-5.25956 -4.190595,-10.463755 -6.321977,-15.676526 -1.170613,-4.300147 -0.63094,-8.826771 -0.414745,-13.181197 0.330241,-5.256791 0.945269,-10.465605 1.73072,-15.679886 0.416624,-3.23104 0.983673,-6.46152 1.041257,-9.723493 -0.117602,-3.855699 -1.618838,-7.962031 -4.952226,-10.158709 -1.881821,-1.24818 -4.134944,-1.931514 -6.39164,-1.954335 z" /><path
         id="path4813"
         style="fill:url(#radialGradient6317);fill-opacity:1;stroke:none;stroke-width:0.265;stroke-linecap:butt;stroke-linejoin:miter;stroke-dasharray:none;stroke-opacity:1"
         class="UnoptimicedTransforms"
         d="m 88.210938,43.736328 c -3.547995,0.232454 -7.135262,2.122329 -8.736864,5.401571 -1.667401,3.094386 -1.854376,6.754038 -1.295937,10.165775 0.811329,6.661755 1.978787,13.295622 2.344385,20.01187 0.345056,4.655517 0.792597,9.400959 -0.133588,14.017575 -0.609025,2.245523 -1.799061,4.274737 -2.576747,6.461238 -3.066832,7.546653 -6.124688,15.072803 -8.723301,22.799603 -1.686033,5.54826 -2.430937,11.26487 -2.227558,17.0369 0.158529,5.87542 1.2359,11.76193 2.779231,17.44032 1.52304,5.82916 3.620728,11.45625 5.6519,17.10719 0.787917,2.19295 1.440559,4.44688 2.309615,6.60329 1.6199,2.46502 4.726964,3.30143 7.501442,3.57576 2.34768,0.13225 4.715273,0.16328 7.057623,-0.0586 2.58554,-0.31404 5.40456,-1.21422 6.91797,-3.48122 0.687927,-1.3649 0.952931,-2.8964 1.531751,-4.30865 2.06216,-6.00804 4.43025,-11.91397 6.0907,-18.02363 2.60317,-9.02008 4.02863,-18.48142 2.74727,-27.81955 -0.61741,-4.80673 -2.10132,-9.51107 -3.87266,-14.06029 -2.79973,-7.51062 -5.759401,-14.94744 -8.873423,-22.324598 -1.129655,-3.822291 -0.807674,-7.868838 -0.613925,-11.794505 0.31821,-5.129776 0.762348,-10.25419 1.550421,-15.33446 0.499327,-3.736074 1.11062,-7.450183 1.350991,-11.218313 -0.003,-3.671283 -1.201015,-7.637327 -4.203621,-9.959617 -1.874212,-1.417615 -4.233564,-2.198342 -6.575675,-2.237649 z" /><path
         id="path5563"
         style="fill:url(#radialGradient5565);fill-opacity:1;stroke:none;stroke-width:0.264583px;stroke-linecap:butt;stroke-linejoin:miter;stroke-opacity:1"
         class="UnoptimicedTransforms"
         d="m 88.210938,43.736328 c -3.547995,0.232454 -7.135262,2.122329 -8.736864,5.401571 -1.667401,3.094386 -1.854376,6.754038 -1.295937,10.165775 0.811329,6.661755 1.978787,13.295622 2.344385,20.01187 0.345056,4.655517 0.792597,9.400959 -0.133588,14.017575 -0.609025,2.245523 -1.799061,4.274737 -2.576747,6.461238 -3.066832,7.546653 -6.124688,15.072803 -8.723301,22.799603 -1.686033,5.54826 -2.430937,11.26487 -2.227558,17.0369 0.158529,5.87542 1.2359,11.76193 2.779231,17.44032 1.52304,5.82916 3.620728,11.45625 5.6519,17.10719 0.787917,2.19295 1.440559,4.44688 2.309615,6.60329 1.6199,2.46502 4.726964,3.30143 7.501442,3.57576 2.34768,0.13225 4.715273,0.16328 7.057623,-0.0586 2.58554,-0.31404 5.40456,-1.21422 6.91797,-3.48122 0.687927,-1.3649 0.952931,-2.8964 1.531751,-4.30865 2.06216,-6.00804 4.43025,-11.91397 6.0907,-18.02363 2.60317,-9.02008 4.02863,-18.48142 2.74727,-27.81955 -0.61741,-4.80673 -2.10132,-9.51107 -3.87266,-14.06029 -2.79973,-7.51062 -5.759401,-14.94744 -8.873423,-22.324598 -1.129655,-3.822291 -0.807674,-7.868838 -0.613925,-11.794505 0.31821,-5.129776 0.762348,-10.25419 1.550421,-15.33446 0.499327,-3.736074 1.11062,-7.450183 1.350991,-11.218313 -0.003,-3.671283 -1.201015,-7.637327 -4.203621,-9.959617 -1.874212,-1.417615 -4.233564,-2.198342 -6.575675,-2.237649 z" /><path
         id="path6315"
         style="fill:url(#radialGradient4815);fill-opacity:1;stroke:none;stroke-width:0.265;stroke-linecap:butt;stroke-linejoin:miter;stroke-dasharray:none;stroke-opacity:1;opacity:0.53581662;filter:url(#filter10981)"
         class="UnoptimicedTransforms"
         d="m 88.210938,43.736328 c -3.547995,0.232454 -7.135262,2.122329 -8.736864,5.401571 -1.667401,3.094386 -1.854376,6.754038 -1.295937,10.165775 0.811329,6.661755 1.978787,13.295622 2.344385,20.01187 0.345056,4.655517 0.792597,9.400959 -0.133588,14.017575 -0.609025,2.245523 -1.799061,4.274737 -2.576747,6.461238 -3.066832,7.546653 -6.124688,15.072803 -8.723301,22.799603 -1.686033,5.54826 -2.430937,11.26487 -2.227558,17.0369 0.158529,5.87542 1.2359,11.76193 2.779231,17.44032 1.52304,5.82916 3.620728,11.45625 5.6519,17.10719 0.787917,2.19295 1.440559,4.44688 2.309615,6.60329 1.6199,2.46502 4.726964,3.30143 7.501442,3.57576 2.34768,0.13225 4.715273,0.16328 7.057623,-0.0586 2.58554,-0.31404 5.40456,-1.21422 6.91797,-3.48122 0.687927,-1.3649 0.952931,-2.8964 1.531751,-4.30865 2.06216,-6.00804 4.43025,-11.91397 6.0907,-18.02363 2.60317,-9.02008 4.02863,-18.48142 2.74727,-27.81955 -0.61741,-4.80673 -2.10132,-9.51107 -3.87266,-14.06029 -2.79973,-7.51062 -5.759401,-14.94744 -8.873423,-22.324598 -1.129655,-3.822291 -0.807674,-7.868838 -0.613925,-11.794505 0.31821,-5.129776 0.762348,-10.25419 1.550421,-15.33446 0.499327,-3.736074 1.11062,-7.450183 1.350991,-11.218313 -0.003,-3.671283 -1.201015,-7.637327 -4.203621,-9.959617 -1.874212,-1.417615 -4.233564,-2.198342 -6.575675,-2.237649 z" /><path
         id="rect6409"
         style="opacity:1;fill:url(#linearGradient8860);fill-opacity:1;fill-rule:evenodd;stroke-width:0.375773"
         d="m 80.003784,73.357279 c 0.09604,0.927917 0.186142,1.856629 0.259931,2.787427 0.06947,1.184208 0.158134,2.371274 0.246304,3.559473 h 15.814003 c 0.137143,-1.955426 0.290377,-3.910204 0.458045,-5.861658 0.01709,-0.161955 0.03688,-0.323385 0.05452,-0.485242 z" /><path
         id="rect6411"
         style="opacity:1;fill:url(#linearGradient8850);fill-opacity:1;fill-rule:evenodd;stroke-width:0.375287"
         d="m 80.889913,86.980737 c 0.0041,1.768 -0.08096,3.533519 -0.324319,5.2927 -0.04621,0.359147 -0.121287,0.708584 -0.20731,1.0542 h 16.113465 c -0.474664,-2.068027 -0.549714,-4.21156 -0.522404,-6.3469 z" /><ellipse
         style="opacity:0.719198;fill:url(#linearGradient12529);fill-opacity:1;fill-rule:evenodd;stroke-width:0.274963"
         id="path11795"
         cx="88.377495"
         cy="53.056877"
         rx="7.4101796"
         ry="8.0029936" /><path
         style="fill:url(#linearGradient12535);stroke:none;stroke-width:0.264583px;stroke-linecap:butt;stroke-linejoin:miter;stroke-opacity:1;fill-opacity:1"
         d="m 80.029938,107.89222 c 0,0 -17.784431,26.97305 -0.592814,62.83832 0,0 -10.670659,-23.11976 0.592814,-62.83832 z"
         id="path12533"
         sodipodi:nodetypes="ccc" /></g></g></svg>
