<?xml version="1.0" encoding="UTF-8" standalone="no"?>
<!-- Created with Inkscape (http://www.inkscape.org/) -->

<svg
   width="210mm"
   height="297mm"
   viewBox="0 0 210 297"
   version="1.1"
   id="svg5"
   inkscape:version="1.2 (dc2aedaf03, 2022-05-15)"
   sodipodi:docname="button-13(replay).svg"
   xmlns:inkscape="http://www.inkscape.org/namespaces/inkscape"
   xmlns:sodipodi="http://sodipodi.sourceforge.net/DTD/sodipodi-0.dtd"
   xmlns:xlink="http://www.w3.org/1999/xlink"
   xmlns="http://www.w3.org/2000/svg"
   xmlns:svg="http://www.w3.org/2000/svg">
  <sodipodi:namedview
     id="namedview7"
     pagecolor="#ffffff"
     bordercolor="#666666"
     borderopacity="1.0"
     inkscape:showpageshadow="2"
     inkscape:pageopacity="0.0"
     inkscape:pagecheckerboard="0"
     inkscape:deskcolor="#d1d1d1"
     inkscape:document-units="mm"
     showgrid="false"
     inkscape:zoom="1.2623761"
     inkscape:cx="369.9373"
     inkscape:cy="294.68239"
     inkscape:window-width="1823"
     inkscape:window-height="1205"
     inkscape:window-x="2445"
     inkscape:window-y="140"
     inkscape:window-maximized="0"
     inkscape:current-layer="layer1" />
  <defs
     id="defs2">
    <linearGradient
       inkscape:collect="always"
       id="linearGradient4073">
      <stop
         style="stop-color:#fffefc;stop-opacity:0;"
         offset="0"
         id="stop4069" />
      <stop
         style="stop-color:#ffffff;stop-opacity:1;"
         offset="0.46875495"
         id="stop4075" />
      <stop
         style="stop-color:#ffffff;stop-opacity:0;"
         offset="1"
         id="stop4071" />
    </linearGradient>
    <linearGradient
       inkscape:collect="always"
       id="linearGradient4023">
      <stop
         style="stop-color:#ffd88a;stop-opacity:1;"
         offset="0"
         id="stop4019" />
      <stop
         style="stop-color:#eb5d15;stop-opacity:1;"
         offset="1"
         id="stop4021" />
    </linearGradient>
    <linearGradient
       inkscape:collect="always"
       id="linearGradient3998">
      <stop
         style="stop-color:#ffdc9f;stop-opacity:1;"
         offset="0"
         id="stop3994" />
      <stop
         style="stop-color:#b13500;stop-opacity:1;"
         offset="1"
         id="stop3996" />
    </linearGradient>
    <linearGradient
       inkscape:collect="always"
       xlink:href="#linearGradient3998"
       id="linearGradient3247"
       x1="60.318863"
       y1="69.952095"
       x2="60.170658"
       y2="90.7006"
       gradientUnits="userSpaceOnUse"
       gradientTransform="translate(-9.850802,-52.00849)" />
    <linearGradient
       inkscape:collect="always"
       xlink:href="#linearGradient4023"
       id="linearGradient4012"
       gradientUnits="userSpaceOnUse"
       gradientTransform="translate(-9.8508441,-52.836324)"
       x1="59.270905"
       y1="72.886375"
       x2="59.227497"
       y2="87.975906" />
    <linearGradient
       inkscape:collect="always"
       xlink:href="#linearGradient4073"
       id="linearGradient4067"
       x1="33.115463"
       y1="74.195404"
       x2="39.612797"
       y2="74.090607"
       gradientUnits="userSpaceOnUse"
       gradientTransform="translate(-9.850802,-51.798899)" />
    <filter
       inkscape:collect="always"
       style="color-interpolation-filters:sRGB"
       id="filter7754"
       x="-0.030428979"
       y="-0.092749193"
       width="1.060858"
       height="1.1854984">
      <feGaussianBlur
         inkscape:collect="always"
         stdDeviation="0.73658167"
         id="feGaussianBlur7756" />
    </filter>
    <filter
       inkscape:collect="always"
       style="color-interpolation-filters:sRGB"
       id="filter2130"
       x="-0.030706146"
       y="-0.10989137"
       width="1.0614123"
       height="1.2197827">
      <feGaussianBlur
         inkscape:collect="always"
         stdDeviation="0.50305008"
         id="feGaussianBlur2132" />
    </filter>
  </defs>
  <g
     inkscape:label="Layer 1"
     inkscape:groupmode="layer"
     id="layer1">
    <g
       id="g2198">
      <rect
         style="mix-blend-mode:normal;fill:#282828;fill-opacity:1;fill-rule:evenodd;stroke-width:0.32363;filter:url(#filter7754)"
         id="rect4015"
         width="58.095806"
         height="19.059961"
         x="32.011936"
         y="70.693108"
         ry="8.4710941"
         rx="7.6441851"
         transform="matrix(1,0,0,0.99515819,-9.850802,-51.462872)" />
      <path
         id="rect739"
         style="fill:url(#linearGradient3247);fill-opacity:1;fill-rule:evenodd;stroke-width:0.309997"
         d="m 22.842293,24.27781 c -0.436433,0.979554 -0.681095,2.067841 -0.681095,3.216858 v 1.943033 c 0,4.305936 3.409103,7.772136 7.643977,7.772136 h 42.807723 c 4.234875,0 7.643978,-3.4662 7.643978,-7.772136 v -1.943033 c 0,-1.149017 -0.244662,-2.237304 -0.681095,-3.216858 0.154549,0.622417 0.236678,1.275167 0.236678,1.948718 v 1.943034 c 0,4.305936 -3.357135,7.772652 -7.527189,7.772652 H 30.132804 c -4.170055,0 -7.527189,-3.466716 -7.527189,-7.772652 v -1.943034 c 0,-0.673551 0.08213,-1.326301 0.236678,-1.948718 z" />
      <path
         id="rect3989"
         style="fill:#f8eabf;fill-opacity:1;fill-rule:evenodd;stroke-width:0.309997"
         d="m 29.805176,18.076948 c -4.234874,0 -7.643978,3.46672 -7.643978,7.77265 v 1.94304 c 0,0.02202 0.0014,0.04365 0.0016,0.06563 0.0349,-4.27507 3.429382,-7.70651 7.642428,-7.70651 h 42.807723 c 4.213046,0 7.60753,3.43144 7.642427,7.70651 1.78e-4,-0.02198 0.0016,-0.04361 0.0016,-0.06563 v -1.94304 c 0,-4.30593 -3.409104,-7.77265 -7.643978,-7.77265 z" />
      <path
         id="path4065"
         style="fill:url(#linearGradient4067);fill-opacity:1;fill-rule:evenodd;stroke-width:0.309997"
         d="m 29.805176,18.076948 c -4.234874,0 -7.643978,3.46672 -7.643978,7.77265 v 1.94304 c 0,0.02202 0.0014,0.04365 0.0016,0.06563 0.0349,-4.27507 3.429382,-7.70651 7.642428,-7.70651 h 42.807723 c 4.213046,0 7.60753,3.43144 7.642427,7.70651 1.78e-4,-0.02198 0.0016,-0.04361 0.0016,-0.06563 v -1.94304 c 0,-4.30593 -3.409104,-7.77265 -7.643978,-7.77265 z" />
      <rect
         style="fill:url(#linearGradient4012);fill-opacity:1;fill-rule:evenodd;stroke-width:0.309997"
         id="rect4010"
         width="58.095806"
         height="17.488024"
         x="22.161135"
         y="18.894209"
         ry="7.7724552"
         rx="7.6441851" />
      <g
         id="g2148"
         transform="translate(7.9512807,-41.126496)">
        <g
           aria-label="Replay"
           id="g1024"
           style="font-weight:bold;font-size:11.861px;line-height:1.25;font-family:Arial;-inkscape-font-specification:'Arial Bold';letter-spacing:0.296525px;stroke-width:0.296525;filter:url(#filter2130)"
           transform="translate(1.3338323,12.004491)">
          <path
             d="m 22.264664,61.381668 v -8.490345 h 3.608107 q 1.361004,0 1.974903,0.23166 0.619691,0.225869 0.990347,0.810811 0.370657,0.584942 0.370657,1.337837 0,0.955599 -0.561776,1.581081 -0.561776,0.619691 -1.679536,0.781853 0.555984,0.324324 0.915057,0.712355 0.364865,0.388031 0.978764,1.378378 l 1.03668,1.65637 h -2.050193 l -1.239382,-1.84749 q -0.660231,-0.990347 -0.903474,-1.245173 -0.243243,-0.260618 -0.515444,-0.353282 -0.272201,-0.09846 -0.862934,-0.09846 h -0.34749 v 3.5444 z m 1.714286,-4.899612 h 1.268339 q 1.23359,0 1.54054,-0.104247 0.30695,-0.104247 0.480695,-0.359074 0.173745,-0.254826 0.173745,-0.637065 0,-0.428571 -0.23166,-0.689189 -0.225869,-0.266409 -0.642857,-0.335907 -0.208494,-0.02896 -1.250965,-0.02896 H 23.97895 Z"
             id="path1012" />
          <path
             d="m 34.671225,59.42414 1.621621,0.2722 q -0.312742,0.891892 -0.990347,1.361004 -0.671815,0.46332 -1.685328,0.46332 -1.604247,0 -2.374517,-1.048262 -0.608108,-0.839768 -0.608108,-2.11969 0,-1.528958 0.799228,-2.391892 0.799227,-0.868725 2.021235,-0.868725 1.372586,0 2.166022,0.909266 0.793436,0.903475 0.758687,2.77413 h -4.077219 q 0.01738,0.723938 0.393823,1.129344 0.376448,0.399613 0.938223,0.399613 0.38224,0 0.642857,-0.208494 0.260618,-0.208494 0.393823,-0.671814 z m 0.09266,-1.644787 q -0.01738,-0.706564 -0.364865,-1.071429 -0.34749,-0.370656 -0.84556,-0.370656 -0.532818,0 -0.880308,0.388031 -0.34749,0.388031 -0.341699,1.054054 z"
             id="path1014" />
          <path
             d="m 37.956165,55.231091 h 1.517374 v 0.903475 q 0.295367,-0.463321 0.799228,-0.752896 0.50386,-0.289575 1.11776,-0.289575 1.071428,0 1.818532,0.839768 0.747104,0.839768 0.747104,2.339767 0,1.540541 -0.752895,2.397683 -0.752896,0.851351 -1.824324,0.851351 -0.509653,0 -0.926641,-0.202702 -0.411197,-0.202703 -0.868725,-0.694981 v 3.098455 h -1.627413 z m 1.610038,2.971041 q 0,1.03668 0.411197,1.534749 0.411197,0.492278 1.00193,0.492278 0.567567,0 0.944015,-0.451737 0.376448,-0.457529 0.376448,-1.494209 0,-0.967181 -0.388031,-1.436292 -0.388031,-0.469112 -0.961389,-0.469112 -0.596525,0 -0.990348,0.46332 -0.393822,0.457529 -0.393822,1.361003 z"
             id="path1016" />
          <path
             d="m 45.544194,61.381668 v -8.490345 h 1.627412 v 8.490345 z"
             id="path1018" />
          <path
             d="m 50.3523,57.107538 -1.476834,-0.266409 q 0.249035,-0.891892 0.857143,-1.320463 0.608108,-0.428571 1.806949,-0.428571 1.088803,0 1.621621,0.260617 0.532818,0.254827 0.747104,0.65444 0.220077,0.393823 0.220077,1.453668 l -0.01737,1.899613 q 0,0.810811 0.07529,1.198842 0.08108,0.382239 0.295367,0.822393 h -1.610038 q -0.06371,-0.162162 -0.156371,-0.480695 -0.04054,-0.144787 -0.05792,-0.191119 -0.416988,0.405405 -0.891891,0.608108 -0.474904,0.202702 -1.013514,0.202702 -0.949806,0 -1.499999,-0.515444 -0.544401,-0.515444 -0.544401,-1.303088 0,-0.521235 0.249034,-0.926641 0.249035,-0.411196 0.694981,-0.625482 0.451737,-0.220077 1.297297,-0.382239 1.140926,-0.214286 1.58108,-0.399614 v -0.162162 q 0,-0.469112 -0.23166,-0.666023 -0.23166,-0.202703 -0.874517,-0.202703 -0.434363,0 -0.677606,0.173745 -0.243243,0.167954 -0.393822,0.596525 z m 2.177605,1.320463 q -0.312741,0.104247 -0.990347,0.249035 -0.677606,0.144787 -0.8861,0.283783 -0.318533,0.225869 -0.318533,0.573359 0,0.341699 0.254826,0.590734 0.254827,0.249034 0.648649,0.249034 0.440154,0 0.839768,-0.289575 0.295367,-0.220077 0.388031,-0.53861 0.06371,-0.208494 0.06371,-0.793436 z"
             id="path1020" />
          <path
             d="m 55.258861,55.231091 h 1.73166 l 1.471042,4.366794 1.436293,-4.366794 h 1.685328 l -2.171814,5.918917 -0.388031,1.071428 q -0.214286,0.53861 -0.411197,0.822394 -0.19112,0.283783 -0.445946,0.457529 -0.249034,0.179536 -0.619691,0.277992 -0.364864,0.09846 -0.828185,0.09846 -0.469112,0 -0.920849,-0.09846 L 55.652683,62.50522 q 0.38224,0.07529 0.689189,0.07529 0.567568,0 0.839769,-0.335907 0.2722,-0.330116 0.416988,-0.845559 z"
             id="path1022" />
        </g>
        <g
           aria-label="Replay"
           id="text947"
           style="font-weight:bold;font-size:11.861px;line-height:1.25;font-family:Arial;-inkscape-font-specification:'Arial Bold';letter-spacing:0.296525px;fill:#fff599;fill-opacity:1;stroke-width:0.296525"
           transform="translate(1.3338323,11.11527)">
          <path
             d="m 22.264664,61.381668 v -8.490345 h 3.608107 q 1.361004,0 1.974903,0.23166 0.619691,0.225869 0.990347,0.810811 0.370657,0.584942 0.370657,1.337837 0,0.955599 -0.561776,1.581081 -0.561776,0.619691 -1.679536,0.781853 0.555984,0.324324 0.915057,0.712355 0.364865,0.388031 0.978764,1.378378 l 1.03668,1.65637 h -2.050193 l -1.239382,-1.84749 q -0.660231,-0.990347 -0.903474,-1.245173 -0.243243,-0.260618 -0.515444,-0.353282 -0.272201,-0.09846 -0.862934,-0.09846 h -0.34749 v 3.5444 z m 1.714286,-4.899612 h 1.268339 q 1.23359,0 1.54054,-0.104247 0.30695,-0.104247 0.480695,-0.359074 0.173745,-0.254826 0.173745,-0.637065 0,-0.428571 -0.23166,-0.689189 -0.225869,-0.266409 -0.642857,-0.335907 -0.208494,-0.02896 -1.250965,-0.02896 H 23.97895 Z"
             id="path999"
             style="fill:#fff599;fill-opacity:1" />
          <path
             d="m 34.671225,59.42414 1.621621,0.2722 q -0.312742,0.891892 -0.990347,1.361004 -0.671815,0.46332 -1.685328,0.46332 -1.604247,0 -2.374517,-1.048262 -0.608108,-0.839768 -0.608108,-2.11969 0,-1.528958 0.799228,-2.391892 0.799227,-0.868725 2.021235,-0.868725 1.372586,0 2.166022,0.909266 0.793436,0.903475 0.758687,2.77413 h -4.077219 q 0.01738,0.723938 0.393823,1.129344 0.376448,0.399613 0.938223,0.399613 0.38224,0 0.642857,-0.208494 0.260618,-0.208494 0.393823,-0.671814 z m 0.09266,-1.644787 q -0.01738,-0.706564 -0.364865,-1.071429 -0.34749,-0.370656 -0.84556,-0.370656 -0.532818,0 -0.880308,0.388031 -0.34749,0.388031 -0.341699,1.054054 z"
             id="path1001"
             style="fill:#fff599;fill-opacity:1" />
          <path
             d="m 37.956165,55.231091 h 1.517374 v 0.903475 q 0.295367,-0.463321 0.799228,-0.752896 0.50386,-0.289575 1.11776,-0.289575 1.071428,0 1.818532,0.839768 0.747104,0.839768 0.747104,2.339767 0,1.540541 -0.752895,2.397683 -0.752896,0.851351 -1.824324,0.851351 -0.509653,0 -0.926641,-0.202702 -0.411197,-0.202703 -0.868725,-0.694981 v 3.098455 h -1.627413 z m 1.610038,2.971041 q 0,1.03668 0.411197,1.534749 0.411197,0.492278 1.00193,0.492278 0.567567,0 0.944015,-0.451737 0.376448,-0.457529 0.376448,-1.494209 0,-0.967181 -0.388031,-1.436292 -0.388031,-0.469112 -0.961389,-0.469112 -0.596525,0 -0.990348,0.46332 -0.393822,0.457529 -0.393822,1.361003 z"
             id="path1003"
             style="fill:#fff599;fill-opacity:1" />
          <path
             d="m 45.544194,61.381668 v -8.490345 h 1.627412 v 8.490345 z"
             id="path1005"
             style="fill:#fff599;fill-opacity:1" />
          <path
             d="m 50.3523,57.107538 -1.476834,-0.266409 q 0.249035,-0.891892 0.857143,-1.320463 0.608108,-0.428571 1.806949,-0.428571 1.088803,0 1.621621,0.260617 0.532818,0.254827 0.747104,0.65444 0.220077,0.393823 0.220077,1.453668 l -0.01737,1.899613 q 0,0.810811 0.07529,1.198842 0.08108,0.382239 0.295367,0.822393 h -1.610038 q -0.06371,-0.162162 -0.156371,-0.480695 -0.04054,-0.144787 -0.05792,-0.191119 -0.416988,0.405405 -0.891891,0.608108 -0.474904,0.202702 -1.013514,0.202702 -0.949806,0 -1.499999,-0.515444 -0.544401,-0.515444 -0.544401,-1.303088 0,-0.521235 0.249034,-0.926641 0.249035,-0.411196 0.694981,-0.625482 0.451737,-0.220077 1.297297,-0.382239 1.140926,-0.214286 1.58108,-0.399614 v -0.162162 q 0,-0.469112 -0.23166,-0.666023 -0.23166,-0.202703 -0.874517,-0.202703 -0.434363,0 -0.677606,0.173745 -0.243243,0.167954 -0.393822,0.596525 z m 2.177605,1.320463 q -0.312741,0.104247 -0.990347,0.249035 -0.677606,0.144787 -0.8861,0.283783 -0.318533,0.225869 -0.318533,0.573359 0,0.341699 0.254826,0.590734 0.254827,0.249034 0.648649,0.249034 0.440154,0 0.839768,-0.289575 0.295367,-0.220077 0.388031,-0.53861 0.06371,-0.208494 0.06371,-0.793436 z"
             id="path1007"
             style="fill:#fff599;fill-opacity:1" />
          <path
             d="m 55.258861,55.231091 h 1.73166 l 1.471042,4.366794 1.436293,-4.366794 h 1.685328 l -2.171814,5.918917 -0.388031,1.071428 q -0.214286,0.53861 -0.411197,0.822394 -0.19112,0.283783 -0.445946,0.457529 -0.249034,0.179536 -0.619691,0.277992 -0.364864,0.09846 -0.828185,0.09846 -0.469112,0 -0.920849,-0.09846 L 55.652683,62.50522 q 0.38224,0.07529 0.689189,0.07529 0.567568,0 0.839769,-0.335907 0.2722,-0.330116 0.416988,-0.845559 z"
             id="path1009"
             style="fill:#fff599;fill-opacity:1" />
        </g>
      </g>
    </g>
  </g>
</svg>
