<?xml version="1.0" encoding="UTF-8" standalone="no"?>
<!-- Created with Inkscape (http://www.inkscape.org/) -->

<svg
   width="210mm"
   height="297mm"
   viewBox="0 0 210 297"
   version="1.1"
   id="svg5"
   inkscape:version="1.2 (dc2aedaf03, 2022-05-15)"
   sodipodi:docname="button-13(start).svg"
   xmlns:inkscape="http://www.inkscape.org/namespaces/inkscape"
   xmlns:sodipodi="http://sodipodi.sourceforge.net/DTD/sodipodi-0.dtd"
   xmlns:xlink="http://www.w3.org/1999/xlink"
   xmlns="http://www.w3.org/2000/svg"
   xmlns:svg="http://www.w3.org/2000/svg">
  <sodipodi:namedview
     id="namedview7"
     pagecolor="#ffffff"
     bordercolor="#666666"
     borderopacity="1.0"
     inkscape:showpageshadow="2"
     inkscape:pageopacity="0.0"
     inkscape:pagecheckerboard="0"
     inkscape:deskcolor="#d1d1d1"
     inkscape:document-units="mm"
     showgrid="false"
     inkscape:zoom="1.7852694"
     inkscape:cx="190.44745"
     inkscape:cy="168.04187"
     inkscape:window-width="1823"
     inkscape:window-height="1205"
     inkscape:window-x="2445"
     inkscape:window-y="140"
     inkscape:window-maximized="0"
     inkscape:current-layer="layer1" />
  <defs
     id="defs2">
    <linearGradient
       inkscape:collect="always"
       id="linearGradient4073">
      <stop
         style="stop-color:#fffefc;stop-opacity:0;"
         offset="0"
         id="stop4069" />
      <stop
         style="stop-color:#ffffff;stop-opacity:1;"
         offset="0.46875495"
         id="stop4075" />
      <stop
         style="stop-color:#ffffff;stop-opacity:0;"
         offset="1"
         id="stop4071" />
    </linearGradient>
    <linearGradient
       inkscape:collect="always"
       id="linearGradient4023">
      <stop
         style="stop-color:#ffd88a;stop-opacity:1;"
         offset="0"
         id="stop4019" />
      <stop
         style="stop-color:#eb5d15;stop-opacity:1;"
         offset="1"
         id="stop4021" />
    </linearGradient>
    <linearGradient
       inkscape:collect="always"
       id="linearGradient3998">
      <stop
         style="stop-color:#ffdc9f;stop-opacity:1;"
         offset="0"
         id="stop3994" />
      <stop
         style="stop-color:#b13500;stop-opacity:1;"
         offset="1"
         id="stop3996" />
    </linearGradient>
    <linearGradient
       inkscape:collect="always"
       xlink:href="#linearGradient3998"
       id="linearGradient3247"
       x1="60.318863"
       y1="69.952095"
       x2="60.170658"
       y2="90.7006"
       gradientUnits="userSpaceOnUse"
       gradientTransform="translate(-9.850802,-49.044418)" />
    <linearGradient
       inkscape:collect="always"
       xlink:href="#linearGradient4023"
       id="linearGradient4012"
       gradientUnits="userSpaceOnUse"
       gradientTransform="translate(-9.8508441,-49.872252)"
       x1="59.270905"
       y1="72.886375"
       x2="59.227497"
       y2="87.975906" />
    <linearGradient
       inkscape:collect="always"
       xlink:href="#linearGradient4073"
       id="linearGradient4067"
       x1="33.115463"
       y1="74.195404"
       x2="39.612797"
       y2="74.090607"
       gradientUnits="userSpaceOnUse"
       gradientTransform="translate(-9.850802,-48.834827)" />
    <filter
       inkscape:collect="always"
       style="color-interpolation-filters:sRGB"
       id="filter7754"
       x="-0.030428979"
       y="-0.092749193"
       width="1.060858"
       height="1.1854984">
      <feGaussianBlur
         inkscape:collect="always"
         stdDeviation="0.73658167"
         id="feGaussianBlur7756" />
    </filter>
    <filter
       inkscape:collect="always"
       style="color-interpolation-filters:sRGB"
       id="filter2562"
       x="-0.031629825"
       y="-0.099493218"
       width="1.0632596"
       height="1.1989864">
      <feGaussianBlur
         inkscape:collect="always"
         stdDeviation="0.37220305"
         id="feGaussianBlur2564" />
    </filter>
  </defs>
  <g
     inkscape:label="Layer 1"
     inkscape:groupmode="layer"
     id="layer1">
    <g
       id="g2641">
      <g
         id="g8489"
         transform="translate(0,-2.9640719)">
        <rect
           style="mix-blend-mode:normal;fill:#282828;fill-opacity:1;fill-rule:evenodd;stroke-width:0.32363;filter:url(#filter7754)"
           id="rect4015"
           width="58.095806"
           height="19.059961"
           x="32.011936"
           y="70.693108"
           ry="8.4710941"
           rx="7.6441851"
           transform="matrix(1,0,0,0.99515819,-9.850802,-48.4988)" />
        <path
           id="rect739"
           style="fill:url(#linearGradient3247);fill-opacity:1;fill-rule:evenodd;stroke-width:0.309997"
           d="m 22.842293,27.241882 c -0.436433,0.979554 -0.681095,2.067841 -0.681095,3.216858 v 1.943033 c 0,4.305936 3.409103,7.772136 7.643977,7.772136 h 42.807723 c 4.234875,0 7.643978,-3.4662 7.643978,-7.772136 V 30.45874 c 0,-1.149017 -0.244662,-2.237304 -0.681095,-3.216858 0.154549,0.622417 0.236678,1.275167 0.236678,1.948718 v 1.943034 c 0,4.305936 -3.357135,7.772652 -7.527189,7.772652 H 30.132804 c -4.170055,0 -7.527189,-3.466716 -7.527189,-7.772652 V 29.1906 c 0,-0.673551 0.08213,-1.326301 0.236678,-1.948718 z" />
        <path
           id="rect3989"
           style="fill:#f8eabf;fill-opacity:1;fill-rule:evenodd;stroke-width:0.309997"
           d="m 29.805176,21.04102 c -4.234874,0 -7.643978,3.46672 -7.643978,7.77265 v 1.94304 c 0,0.02202 0.0014,0.04365 0.0016,0.06563 0.0349,-4.27507 3.429382,-7.70651 7.642428,-7.70651 h 42.807723 c 4.213046,0 7.60753,3.43144 7.642427,7.70651 1.78e-4,-0.02198 0.0016,-0.04361 0.0016,-0.06563 v -1.94304 c 0,-4.30593 -3.409104,-7.77265 -7.643978,-7.77265 z" />
        <path
           id="path4065"
           style="fill:url(#linearGradient4067);fill-opacity:1;fill-rule:evenodd;stroke-width:0.309997"
           d="m 29.805176,21.04102 c -4.234874,0 -7.643978,3.46672 -7.643978,7.77265 v 1.94304 c 0,0.02202 0.0014,0.04365 0.0016,0.06563 0.0349,-4.27507 3.429382,-7.70651 7.642428,-7.70651 h 42.807723 c 4.213046,0 7.60753,3.43144 7.642427,7.70651 1.78e-4,-0.02198 0.0016,-0.04361 0.0016,-0.06563 v -1.94304 c 0,-4.30593 -3.409104,-7.77265 -7.643978,-7.77265 z" />
        <rect
           style="fill:url(#linearGradient4012);fill-opacity:1;fill-rule:evenodd;stroke-width:0.309997"
           id="rect4010"
           width="58.095806"
           height="17.488024"
           x="22.161135"
           y="21.85828"
           ry="7.7724552"
           rx="7.6441851" />
      </g>
      <g
         id="g2604"
         transform="translate(0.99556709,-19.492013)">
        <g
           aria-label="Start"
           id="g1732"
           style="font-weight:bold;font-size:12.1211px;line-height:1.25;font-family:Arial;-inkscape-font-specification:'Arial Bold';letter-spacing:0.303029px;stroke-width:0.303029;filter:url(#filter2562)"
           transform="translate(2.7246898,-6.078154)">
          <path
             d="m 33.367817,54.809006 1.70453,-0.165718 q 0.153881,0.858183 0.621443,1.260642 0.473481,0.402458 1.272479,0.402458 0.846346,0 1.272479,-0.35511 0.432051,-0.361029 0.432051,-0.840428 0,-0.307762 -0.183474,-0.520829 -0.177555,-0.218984 -0.627362,-0.378784 -0.307762,-0.106533 -1.402686,-0.378784 -1.408604,-0.349192 -1.976781,-0.858184 -0.798998,-0.716139 -0.798998,-1.745959 0,-0.662873 0.372866,-1.236968 0.378784,-0.580013 1.083086,-0.881857 0.710221,-0.301844 1.710449,-0.301844 1.633507,0 2.45618,0.716139 0.828591,0.716139 0.87002,1.911678 l -1.751878,0.07694 Q 38.30977,50.843607 37.936904,50.5536 q -0.366948,-0.295925 -1.106761,-0.295925 -0.763487,0 -1.195538,0.313681 -0.27817,0.201229 -0.27817,0.538584 0,0.307762 0.260414,0.526747 0.331437,0.27817 1.609834,0.580013 1.278397,0.301844 1.888004,0.627362 0.615524,0.319599 0.958798,0.881857 0.349191,0.55634 0.349191,1.379012 0,0.745732 -0.414295,1.396768 -0.414295,0.651035 -1.171864,0.970635 -0.757569,0.313681 -1.888004,0.313681 -1.645344,0 -2.527202,-0.757569 -0.881857,-0.763487 -1.053494,-2.21944 z"
             id="path1722" />
          <path
             d="m 45.069889,51.34668 v 1.325745 h -1.136353 v 2.533121 q 0,0.769406 0.02959,0.899613 0.03551,0.124289 0.147962,0.207148 0.11837,0.08286 0.284089,0.08286 0.230821,0 0.668791,-0.1598 l 0.142044,1.290234 q -0.580014,0.248578 -1.313908,0.248578 -0.449807,0 -0.810836,-0.147963 -0.361029,-0.153881 -0.532665,-0.390621 -0.165719,-0.242659 -0.230822,-0.651036 -0.05327,-0.290007 -0.05327,-1.171864 v -2.74027 H 41.50103 V 51.34668 h 0.763487 v -1.248805 l 1.669019,-0.970635 v 2.21944 z"
             id="path1724" />
          <path
             d="m 47.769913,53.264276 -1.509219,-0.272251 q 0.254496,-0.91145 0.875939,-1.34942 0.621443,-0.437969 1.846574,-0.437969 1.112679,0 1.657181,0.266333 0.544503,0.260414 0.763488,0.668791 0.224903,0.402458 0.224903,1.485545 l -0.01776,1.94127 q 0,0.828591 0.07694,1.225131 0.08286,0.390621 0.301844,0.840427 h -1.645345 q -0.0651,-0.165718 -0.1598,-0.491236 -0.04143,-0.147962 -0.05918,-0.19531 -0.426132,0.414295 -0.91145,0.621443 -0.485317,0.207148 -1.035738,0.207148 -0.970635,0 -1.532893,-0.526747 -0.55634,-0.526747 -0.55634,-1.331664 0,-0.532666 0.254496,-0.946961 0.254496,-0.420214 0.710221,-0.639199 0.461643,-0.224903 1.325745,-0.390621 1.165946,-0.218985 1.615752,-0.408377 v -0.165718 q 0,-0.479399 -0.23674,-0.680629 -0.23674,-0.207147 -0.893694,-0.207147 -0.443888,0 -0.692466,0.177555 -0.248577,0.171637 -0.402458,0.609606 z m 2.225358,1.349419 q -0.319599,0.106533 -1.012064,0.254496 -0.692466,0.147963 -0.905532,0.290007 -0.325518,0.230822 -0.325518,0.585932 0,0.349192 0.260415,0.603688 0.260414,0.254495 0.662872,0.254495 0.449807,0 0.858184,-0.295925 0.301844,-0.224903 0.39654,-0.550421 0.0651,-0.213066 0.0651,-0.810835 z"
             id="path1726" />
          <path
             d="m 55.163312,57.632133 h -1.6631 V 51.34668 h 1.54473 v 0.893694 q 0.39654,-0.63328 0.710221,-0.834509 0.319599,-0.201229 0.722058,-0.201229 0.568176,0 1.094923,0.313681 l -0.51491,1.450034 q -0.420214,-0.272252 -0.781242,-0.272252 -0.349192,0 -0.591851,0.195311 -0.242659,0.189392 -0.384703,0.692465 -0.136126,0.503073 -0.136126,2.106988 z"
             id="path1728" />
          <path
             d="m 61.473625,51.34668 v 1.325745 h -1.136353 v 2.533121 q 0,0.769406 0.02959,0.899613 0.03551,0.124289 0.147962,0.207148 0.11837,0.08286 0.284089,0.08286 0.230821,0 0.668791,-0.1598 l 0.142044,1.290234 q -0.580014,0.248578 -1.313908,0.248578 -0.449807,0 -0.810836,-0.147963 -0.361029,-0.153881 -0.532665,-0.390621 -0.165718,-0.242659 -0.230822,-0.651036 -0.05327,-0.290007 -0.05327,-1.171864 v -2.74027 H 57.904766 V 51.34668 h 0.763487 v -1.248805 l 1.669019,-0.970635 v 2.21944 z"
             id="path1730" />
        </g>
        <g
           aria-label="Start"
           id="text1659"
           style="font-weight:bold;font-size:12.1211px;line-height:1.25;font-family:Arial;-inkscape-font-specification:'Arial Bold';letter-spacing:0.303029px;fill:#fff599;fill-opacity:1;stroke-width:0.303029"
           transform="translate(2.7246898,-6.7069285)">
          <path
             d="m 33.367817,54.809006 1.70453,-0.165718 q 0.153881,0.858183 0.621443,1.260642 0.473481,0.402458 1.272479,0.402458 0.846346,0 1.272479,-0.35511 0.432051,-0.361029 0.432051,-0.840428 0,-0.307762 -0.183474,-0.520829 -0.177555,-0.218984 -0.627362,-0.378784 -0.307762,-0.106533 -1.402686,-0.378784 -1.408604,-0.349192 -1.976781,-0.858184 -0.798998,-0.716139 -0.798998,-1.745959 0,-0.662873 0.372866,-1.236968 0.378784,-0.580013 1.083086,-0.881857 0.710221,-0.301844 1.710449,-0.301844 1.633507,0 2.45618,0.716139 0.828591,0.716139 0.87002,1.911678 l -1.751878,0.07694 Q 38.30977,50.843607 37.936904,50.5536 q -0.366948,-0.295925 -1.106761,-0.295925 -0.763487,0 -1.195538,0.313681 -0.27817,0.201229 -0.27817,0.538584 0,0.307762 0.260414,0.526747 0.331437,0.27817 1.609834,0.580013 1.278397,0.301844 1.888004,0.627362 0.615524,0.319599 0.958798,0.881857 0.349191,0.55634 0.349191,1.379012 0,0.745732 -0.414295,1.396768 -0.414295,0.651035 -1.171864,0.970635 -0.757569,0.313681 -1.888004,0.313681 -1.645344,0 -2.527202,-0.757569 -0.881857,-0.763487 -1.053494,-2.21944 z"
             id="path1711"
             style="fill:#fff599;fill-opacity:1" />
          <path
             d="m 45.069889,51.34668 v 1.325745 h -1.136353 v 2.533121 q 0,0.769406 0.02959,0.899613 0.03551,0.124289 0.147962,0.207148 0.11837,0.08286 0.284089,0.08286 0.230821,0 0.668791,-0.1598 l 0.142044,1.290234 q -0.580014,0.248578 -1.313908,0.248578 -0.449807,0 -0.810836,-0.147963 -0.361029,-0.153881 -0.532665,-0.390621 -0.165719,-0.242659 -0.230822,-0.651036 -0.05327,-0.290007 -0.05327,-1.171864 v -2.74027 H 41.50103 V 51.34668 h 0.763487 v -1.248805 l 1.669019,-0.970635 v 2.21944 z"
             id="path1713"
             style="fill:#fff599;fill-opacity:1" />
          <path
             d="m 47.769913,53.264276 -1.509219,-0.272251 q 0.254496,-0.91145 0.875939,-1.34942 0.621443,-0.437969 1.846574,-0.437969 1.112679,0 1.657181,0.266333 0.544503,0.260414 0.763488,0.668791 0.224903,0.402458 0.224903,1.485545 l -0.01776,1.94127 q 0,0.828591 0.07694,1.225131 0.08286,0.390621 0.301844,0.840427 h -1.645345 q -0.0651,-0.165718 -0.1598,-0.491236 -0.04143,-0.147962 -0.05918,-0.19531 -0.426132,0.414295 -0.91145,0.621443 -0.485317,0.207148 -1.035738,0.207148 -0.970635,0 -1.532893,-0.526747 -0.55634,-0.526747 -0.55634,-1.331664 0,-0.532666 0.254496,-0.946961 0.254496,-0.420214 0.710221,-0.639199 0.461643,-0.224903 1.325745,-0.390621 1.165946,-0.218985 1.615752,-0.408377 v -0.165718 q 0,-0.479399 -0.23674,-0.680629 -0.23674,-0.207147 -0.893694,-0.207147 -0.443888,0 -0.692466,0.177555 -0.248577,0.171637 -0.402458,0.609606 z m 2.225358,1.349419 q -0.319599,0.106533 -1.012064,0.254496 -0.692466,0.147963 -0.905532,0.290007 -0.325518,0.230822 -0.325518,0.585932 0,0.349192 0.260415,0.603688 0.260414,0.254495 0.662872,0.254495 0.449807,0 0.858184,-0.295925 0.301844,-0.224903 0.39654,-0.550421 0.0651,-0.213066 0.0651,-0.810835 z"
             id="path1715"
             style="fill:#fff599;fill-opacity:1" />
          <path
             d="m 55.163312,57.632133 h -1.6631 V 51.34668 h 1.54473 v 0.893694 q 0.39654,-0.63328 0.710221,-0.834509 0.319599,-0.201229 0.722058,-0.201229 0.568176,0 1.094923,0.313681 l -0.51491,1.450034 q -0.420214,-0.272252 -0.781242,-0.272252 -0.349192,0 -0.591851,0.195311 -0.242659,0.189392 -0.384703,0.692465 -0.136126,0.503073 -0.136126,2.106988 z"
             id="path1717"
             style="fill:#fff599;fill-opacity:1" />
          <path
             d="m 61.473625,51.34668 v 1.325745 h -1.136353 v 2.533121 q 0,0.769406 0.02959,0.899613 0.03551,0.124289 0.147962,0.207148 0.11837,0.08286 0.284089,0.08286 0.230821,0 0.668791,-0.1598 l 0.142044,1.290234 q -0.580014,0.248578 -1.313908,0.248578 -0.449807,0 -0.810836,-0.147963 -0.361029,-0.153881 -0.532665,-0.390621 -0.165718,-0.242659 -0.230822,-0.651036 -0.05327,-0.290007 -0.05327,-1.171864 v -2.74027 H 57.904766 V 51.34668 h 0.763487 v -1.248805 l 1.669019,-0.970635 v 2.21944 z"
             id="path1719"
             style="fill:#fff599;fill-opacity:1" />
        </g>
      </g>
    </g>
  </g>
</svg>
