<?xml version="1.0" encoding="UTF-8" standalone="no"?>
<!-- Created with Inkscape (http://www.inkscape.org/) -->

<svg
   width="210mm"
   height="297mm"
   viewBox="0 0 210 297"
   version="1.1"
   id="svg5"
   inkscape:version="1.2 (dc2aedaf03, 2022-05-15)"
   sodipodi:docname="button-4.svg"
   xmlns:inkscape="http://www.inkscape.org/namespaces/inkscape"
   xmlns:sodipodi="http://sodipodi.sourceforge.net/DTD/sodipodi-0.dtd"
   xmlns:xlink="http://www.w3.org/1999/xlink"
   xmlns="http://www.w3.org/2000/svg"
   xmlns:svg="http://www.w3.org/2000/svg">
  <sodipodi:namedview
     id="namedview7"
     pagecolor="#ffffff"
     bordercolor="#666666"
     borderopacity="1.0"
     inkscape:showpageshadow="2"
     inkscape:pageopacity="0.0"
     inkscape:pagecheckerboard="0"
     inkscape:deskcolor="#d1d1d1"
     inkscape:document-units="mm"
     showgrid="false"
     inkscape:zoom="0.89263468"
     inkscape:cx="354.56834"
     inkscape:cy="382.01518"
     inkscape:window-width="1350"
     inkscape:window-height="1205"
     inkscape:window-x="2154"
     inkscape:window-y="156"
     inkscape:window-maximized="0"
     inkscape:current-layer="layer1" />
  <defs
     id="defs2">
    <linearGradient
       inkscape:collect="always"
       id="linearGradient1844">
      <stop
         style="stop-color:#ff0c00;stop-opacity:1;"
         offset="0"
         id="stop1840" />
      <stop
         style="stop-color:#ff00ef;stop-opacity:1"
         offset="1"
         id="stop1842" />
    </linearGradient>
    <linearGradient
       inkscape:collect="always"
       id="linearGradient926">
      <stop
         style="stop-color:#ff0c00;stop-opacity:1;"
         offset="0"
         id="stop922" />
      <stop
         style="stop-color:#ff00ef;stop-opacity:1;"
         offset="1"
         id="stop924" />
    </linearGradient>
    <linearGradient
       inkscape:collect="always"
       xlink:href="#linearGradient926"
       id="linearGradient928"
       x1="107.1512"
       y1="42.682632"
       x2="107.1512"
       y2="71.730537"
       gradientUnits="userSpaceOnUse" />
    <linearGradient
       inkscape:collect="always"
       xlink:href="#linearGradient1844"
       id="linearGradient1791"
       gradientUnits="userSpaceOnUse"
       x1="95.591324"
       y1="42.682632"
       x2="152.20509"
       y2="71.730537" />
    <filter
       inkscape:collect="always"
       style="color-interpolation-filters:sRGB"
       id="filter1850"
       x="-0.060544726"
       y="-0.23538308"
       width="1.1210895"
       height="1.4707662">
      <feGaussianBlur
         inkscape:collect="always"
         stdDeviation="2.8489104"
         id="feGaussianBlur1852" />
    </filter>
  </defs>
  <g
     inkscape:label="Layer 1"
     inkscape:groupmode="layer"
     id="layer1">
    <g
       id="g3070">
      <rect
         style="opacity:0.6232687;mix-blend-mode:normal;fill:#010101;fill-opacity:1;fill-rule:evenodd;stroke:none;stroke-width:0.28301;filter:url(#filter1850)"
         id="rect1846"
         width="112.93114"
         height="29.047903"
         x="56.020962"
         y="81.215561"
         ry="14.523952"
         transform="matrix(0.84542475,0,0,0.53969085,12.052304,13.749454)" />
      <rect
         style="fill:url(#linearGradient928);fill-rule:evenodd;stroke-width:0.28301;stroke:none;fill-opacity:1"
         id="rect184"
         width="112.93114"
         height="29.047903"
         x="50.685631"
         y="42.682632"
         ry="14.523952" />
      <rect
         style="fill:url(#linearGradient1791);fill-opacity:1;fill-rule:evenodd;stroke:none;stroke-width:0.28301;opacity:0.3434903"
         id="rect1789"
         width="112.93114"
         height="29.047903"
         x="50.685631"
         y="42.682632"
         ry="14.523952" />
      <g
         aria-label="Load"
         transform="scale(1.0829674,0.92338882)"
         id="text2651"
         style="font-weight:bold;font-size:20.0875px;line-height:1.25;font-family:Cambria;-inkscape-font-specification:'Cambria Bold';fill:#ffffff;stroke-width:0.502191">
        <path
           d="m 82.238599,55.559067 v 0.647351 q -0.353101,0.09808 -0.559076,0.215784 -0.205976,0.107892 -0.323676,0.304059 -0.107892,0.196167 -0.147125,0.510034 -0.02942,0.304059 -0.02942,0.774859 v 9.769116 h 1.90282 q 0.568884,0 0.912176,-0.17655 0.343292,-0.17655 0.588501,-0.539459 0.255017,-0.372717 0.431567,-0.961218 0.186359,-0.59831 0.294251,-1.118152 h 1.343744 l -0.215784,3.962573 h -9.347357 v -0.647351 q 0.362909,-0.09808 0.568884,-0.215784 0.215784,-0.1177 0.313868,-0.313867 0.107891,-0.205975 0.137316,-0.510034 0.02942,-0.313867 0.02942,-0.784668 v -8.444989 q 0,-0.460992 -0.02942,-0.77486 -0.01962,-0.313867 -0.127508,-0.510034 -0.09808,-0.196167 -0.313867,-0.313867 -0.205976,-0.127508 -0.578693,-0.225592 v -0.647351 z"
           id="path3053" />
        <path
           d="m 92.811999,69.104398 q -1.441827,0 -2.491321,-0.500226 -1.039685,-0.510034 -1.628186,-1.618378 -0.588501,-1.118152 -0.588501,-2.834613 0,-1.314319 0.362909,-2.275537 0.362909,-0.961218 1.01026,-1.588953 0.647351,-0.627734 1.539911,-0.921984 0.902368,-0.304059 1.951862,-0.304059 2.37362,0 3.580047,1.255468 1.206427,1.245661 1.206427,3.658515 0,1.706653 -0.598309,2.864038 -0.598309,1.147577 -1.706653,1.706653 -1.108343,0.559076 -2.638446,0.559076 z M 91.08573,63.935397 q 0,2.079371 0.460992,3.119056 0.470801,1.029876 1.412402,1.029876 0.519843,0 0.863135,-0.264825 0.353101,-0.264826 0.559076,-0.765051 0.215784,-0.500226 0.304059,-1.196619 0.08827,-0.706201 0.08827,-1.579144 0,-2.108795 -0.470801,-3.148481 -0.460992,-1.049493 -1.373169,-1.049493 -0.666968,0 -1.06911,0.421759 -0.402142,0.421759 -0.588501,1.265277 -0.186358,0.843518 -0.186358,2.167645 z"
           id="path3055" />
        <path
           d="m 105.28822,67.66257 -0.14712,-0.04904 q -0.80429,0.784668 -1.56934,1.137769 -0.75524,0.353101 -1.60857,0.353101 -0.84352,0 -1.47125,-0.304059 -0.617928,-0.313867 -0.941604,-0.863135 -0.313867,-0.549268 -0.313867,-1.265277 0,-1.441827 1.412401,-2.265729 1.42221,-0.833709 4.30587,-1.049493 v -0.931793 q 0,-0.912177 -0.20598,-1.402594 -0.20597,-0.500226 -0.52965,-0.696393 -0.32367,-0.205975 -0.77486,-0.205975 -0.45118,0 -0.78467,0.156933 -0.32367,0.156934 -0.5885,0.598309 -0.26482,0.431568 -0.39233,1.206427 H 99.82497 V 60.2965 q 0.90237,-0.402143 1.50068,-0.617926 0.59831,-0.215784 1.177,-0.353101 0.5885,-0.147125 1.04949,-0.205975 0.461,-0.05885 0.92199,-0.05885 1.18681,0 1.89301,0.313867 0.71601,0.313867 1.06911,1.020068 0.3531,0.706201 0.3531,1.951862 v 3.825256 q 0,0.647351 0.0294,1.000452 0.0294,0.3531 0.0883,0.529651 0.0687,0.166742 0.16674,0.274633 0.0981,0.09808 0.2354,0.166742 0.14713,0.05885 0.53946,0.156934 v 0.647351 h -3.6487 z m -0.32367,-3.344647 q -1.5203,0.03923 -2.25593,0.568884 -0.72581,0.529651 -0.72581,1.54972 0,0.608117 0.33348,0.931793 0.33348,0.313867 0.92199,0.313867 0.45118,0 0.85332,-0.2354 0.40214,-0.245209 0.63754,-0.647352 0.23541,-0.402142 0.23541,-0.853326 z"
           id="path3057" />
        <path
           d="m 119.7163,66.083426 q 0,0.745435 0.0196,1.088727 0.0294,0.343292 0.1177,0.549267 0.0883,0.205976 0.28444,0.343293 0.19617,0.127508 0.65716,0.225592 v 0.657159 l -2.66787,0.08828 h -1.18681 l 0.0883,-1.412402 -0.14712,-0.0098 q -0.7062,0.71601 -1.49087,1.108344 -0.77486,0.382526 -1.49087,0.382526 -1.78512,0 -2.67768,-1.226044 -0.88275,-1.226044 -0.88275,-3.687939 0,-1.66742 0.53946,-2.805188 0.53946,-1.147577 1.59876,-1.736078 1.06911,-0.588501 2.56979,-0.588501 0.43157,0 0.84352,0.05885 0.42176,0.04904 0.99064,0.205975 v -0.89256 q 0,-1.049493 -0.0294,-1.48106 -0.0294,-0.441376 -0.1275,-0.666968 -0.0883,-0.235401 -0.27464,-0.362909 -0.18636,-0.127509 -0.67677,-0.225592 v -0.657159 l 2.71691,-0.137317 h 1.22604 z m -2.83461,-3.648706 q 0,-1.196619 -0.40214,-1.775311 -0.40215,-0.578693 -1.23586,-0.578693 -0.60811,0 -1.04949,0.441376 -0.43157,0.431567 -0.65716,1.255469 -0.21578,0.823901 -0.21578,1.951861 0,1.932245 0.42176,2.883655 0.42176,0.95141 1.31432,0.95141 0.42176,0 0.83371,-0.205976 0.42176,-0.215783 0.7062,-0.647351 0.28444,-0.441375 0.28444,-1.01026 z"
           id="path3059" />
      </g>
    </g>
  </g>
</svg>
