<?xml version="1.0" encoding="UTF-8" standalone="no"?>
<!-- Created with Inkscape (http://www.inkscape.org/) -->

<svg
   width="210mm"
   height="297mm"
   viewBox="0 0 210 297"
   version="1.1"
   id="svg5"
   inkscape:version="1.2 (dc2aedaf03, 2022-05-15)"
   sodipodi:docname="button-13(resume).svg"
   xmlns:inkscape="http://www.inkscape.org/namespaces/inkscape"
   xmlns:sodipodi="http://sodipodi.sourceforge.net/DTD/sodipodi-0.dtd"
   xmlns:xlink="http://www.w3.org/1999/xlink"
   xmlns="http://www.w3.org/2000/svg"
   xmlns:svg="http://www.w3.org/2000/svg">
  <sodipodi:namedview
     id="namedview7"
     pagecolor="#ffffff"
     bordercolor="#666666"
     borderopacity="1.0"
     inkscape:showpageshadow="2"
     inkscape:pageopacity="0.0"
     inkscape:pagecheckerboard="0"
     inkscape:deskcolor="#d1d1d1"
     inkscape:document-units="mm"
     showgrid="false"
     inkscape:zoom="2.5247522"
     inkscape:cx="123.57648"
     inkscape:cy="52.678437"
     inkscape:window-width="1823"
     inkscape:window-height="1205"
     inkscape:window-x="2206"
     inkscape:window-y="66"
     inkscape:window-maximized="0"
     inkscape:current-layer="layer1" />
  <defs
     id="defs2">
    <linearGradient
       inkscape:collect="always"
       id="linearGradient4073">
      <stop
         style="stop-color:#fffefc;stop-opacity:0;"
         offset="0"
         id="stop4069" />
      <stop
         style="stop-color:#ffffff;stop-opacity:1;"
         offset="0.46875495"
         id="stop4075" />
      <stop
         style="stop-color:#ffffff;stop-opacity:0;"
         offset="1"
         id="stop4071" />
    </linearGradient>
    <linearGradient
       inkscape:collect="always"
       id="linearGradient4023">
      <stop
         style="stop-color:#ffd88a;stop-opacity:1;"
         offset="0"
         id="stop4019" />
      <stop
         style="stop-color:#eb5d15;stop-opacity:1;"
         offset="1"
         id="stop4021" />
    </linearGradient>
    <linearGradient
       inkscape:collect="always"
       id="linearGradient3998">
      <stop
         style="stop-color:#ffdc9f;stop-opacity:1;"
         offset="0"
         id="stop3994" />
      <stop
         style="stop-color:#b13500;stop-opacity:1;"
         offset="1"
         id="stop3996" />
    </linearGradient>
    <linearGradient
       inkscape:collect="always"
       xlink:href="#linearGradient3998"
       id="linearGradient3247"
       x1="60.318863"
       y1="69.952095"
       x2="60.170658"
       y2="90.7006"
       gradientUnits="userSpaceOnUse"
       gradientTransform="translate(-9.850802,-52.00849)" />
    <linearGradient
       inkscape:collect="always"
       xlink:href="#linearGradient4023"
       id="linearGradient4012"
       gradientUnits="userSpaceOnUse"
       gradientTransform="translate(-9.8508441,-52.836324)"
       x1="59.270905"
       y1="72.886375"
       x2="59.227497"
       y2="87.975906" />
    <linearGradient
       inkscape:collect="always"
       xlink:href="#linearGradient4073"
       id="linearGradient4067"
       x1="33.115463"
       y1="74.195404"
       x2="39.612797"
       y2="74.090607"
       gradientUnits="userSpaceOnUse"
       gradientTransform="translate(-9.850802,-51.798899)" />
    <filter
       inkscape:collect="always"
       style="color-interpolation-filters:sRGB"
       id="filter7754"
       x="-0.030428979"
       y="-0.092749193"
       width="1.060858"
       height="1.1854984">
      <feGaussianBlur
         inkscape:collect="always"
         stdDeviation="0.73658167"
         id="feGaussianBlur7756" />
    </filter>
    <filter
       inkscape:collect="always"
       style="color-interpolation-filters:sRGB"
       id="filter1501"
       x="-0.028474335"
       y="-0.15273426"
       width="1.0569487"
       height="1.3054685">
      <feGaussianBlur
         inkscape:collect="always"
         stdDeviation="0.54627583"
         id="feGaussianBlur1503" />
    </filter>
  </defs>
  <g
     inkscape:label="Layer 1"
     inkscape:groupmode="layer"
     id="layer1">
    <g
       id="g1616">
      <rect
         style="mix-blend-mode:normal;fill:#282828;fill-opacity:1;fill-rule:evenodd;stroke-width:0.32363;filter:url(#filter7754)"
         id="rect4015"
         width="58.095806"
         height="19.059961"
         x="32.011936"
         y="70.693108"
         ry="8.4710941"
         rx="7.6441851"
         transform="matrix(1,0,0,0.99515819,-9.850802,-51.462872)" />
      <path
         id="rect739"
         style="fill:url(#linearGradient3247);fill-opacity:1;fill-rule:evenodd;stroke-width:0.309997"
         d="m 22.842293,24.27781 c -0.436433,0.979554 -0.681095,2.067841 -0.681095,3.216858 v 1.943033 c 0,4.305936 3.409103,7.772136 7.643977,7.772136 h 42.807723 c 4.234875,0 7.643978,-3.4662 7.643978,-7.772136 v -1.943033 c 0,-1.149017 -0.244662,-2.237304 -0.681095,-3.216858 0.154549,0.622417 0.236678,1.275167 0.236678,1.948718 v 1.943034 c 0,4.305936 -3.357135,7.772652 -7.527189,7.772652 H 30.132804 c -4.170055,0 -7.527189,-3.466716 -7.527189,-7.772652 v -1.943034 c 0,-0.673551 0.08213,-1.326301 0.236678,-1.948718 z" />
      <path
         id="rect3989"
         style="fill:#f8eabf;fill-opacity:1;fill-rule:evenodd;stroke-width:0.309997"
         d="m 29.805176,18.076948 c -4.234874,0 -7.643978,3.46672 -7.643978,7.77265 v 1.94304 c 0,0.02202 0.0014,0.04365 0.0016,0.06563 0.0349,-4.27507 3.429382,-7.70651 7.642428,-7.70651 h 42.807723 c 4.213046,0 7.60753,3.43144 7.642427,7.70651 1.78e-4,-0.02198 0.0016,-0.04361 0.0016,-0.06563 v -1.94304 c 0,-4.30593 -3.409104,-7.77265 -7.643978,-7.77265 z" />
      <path
         id="path4065"
         style="fill:url(#linearGradient4067);fill-opacity:1;fill-rule:evenodd;stroke-width:0.309997"
         d="m 29.805176,18.076948 c -4.234874,0 -7.643978,3.46672 -7.643978,7.77265 v 1.94304 c 0,0.02202 0.0014,0.04365 0.0016,0.06563 0.0349,-4.27507 3.429382,-7.70651 7.642428,-7.70651 h 42.807723 c 4.213046,0 7.60753,3.43144 7.642427,7.70651 1.78e-4,-0.02198 0.0016,-0.04361 0.0016,-0.06563 v -1.94304 c 0,-4.30593 -3.409104,-7.77265 -7.643978,-7.77265 z" />
      <rect
         style="fill:url(#linearGradient4012);fill-opacity:1;fill-rule:evenodd;stroke-width:0.309997"
         id="rect4010"
         width="58.095806"
         height="17.488024"
         x="22.161135"
         y="18.894209"
         ry="7.7724552"
         rx="7.6441851" />
      <g
         id="g1551"
         transform="translate(-1.574382,-31.419161)">
        <g
           aria-label="Resume"
           id="g1012"
           style="font-weight:bold;font-size:11.7986px;line-height:1.25;font-family:Arial;-inkscape-font-specification:'Arial Bold';letter-spacing:0.294965px;fill:#000000;fill-opacity:1;stroke-width:0.294965;filter:url(#filter1501)"
           transform="translate(-0.44461077,10.818862)">
          <path
             d="m 30.20621,52.82972 v -8.445678 h 3.589125 q 1.353843,0 1.964513,0.230441 0.61643,0.224681 0.985137,0.806545 0.368706,0.581865 0.368706,1.330799 0,0.950571 -0.55882,1.572763 -0.558821,0.616431 -1.670701,0.77774 0.55306,0.322618 0.910244,0.708607 0.362945,0.385989 0.973615,1.371126 l 1.031225,1.647657 h -2.039406 l -1.232862,-1.837771 q -0.656758,-0.985137 -0.898721,-1.238622 -0.241964,-0.259247 -0.512733,-0.351423 -0.270768,-0.09794 -0.858394,-0.09794 h -0.345662 v 3.525754 z m 1.705266,-4.873836 h 1.261667 q 1.2271,0 1.532435,-0.103699 0.305335,-0.103699 0.478166,-0.357184 0.172831,-0.253486 0.172831,-0.633714 0,-0.426317 -0.230441,-0.685563 -0.224681,-0.265008 -0.639475,-0.33414 -0.207397,-0.0288 -1.244384,-0.0288 h -1.330799 z"
             id="path1000"
             style="fill:#000000;fill-opacity:1" />
          <path
             d="m 42.547499,50.88249 1.61309,0.270768 q -0.311096,0.8872 -0.985137,1.353844 -0.66828,0.460882 -1.676462,0.460882 -1.595806,0 -2.362024,-1.042747 -0.604909,-0.83535 -0.604909,-2.108539 0,-1.520913 0.795023,-2.379307 0.795023,-0.864156 2.010601,-0.864156 1.365366,0 2.154628,0.904483 0.789261,0.898721 0.754695,2.759536 h -4.055769 q 0.01728,0.720129 0.391751,1.123402 0.374467,0.397511 0.933287,0.397511 0.380229,0 0.639475,-0.207397 0.259247,-0.207398 0.391751,-0.66828 z m 0.09218,-1.636134 q -0.01728,-0.702847 -0.362945,-1.065792 -0.345662,-0.368706 -0.841111,-0.368706 -0.530015,0 -0.875677,0.385989 -0.345663,0.38599 -0.339901,1.048509 z"
             id="path1002"
             style="fill:#000000;fill-opacity:1" />
          <path
             d="m 45.290903,51.084126 1.624612,-0.247725 q 0.103699,0.472405 0.420556,0.72013 0.316857,0.241963 0.887199,0.241963 0.627953,0 0.94481,-0.230441 0.213159,-0.161309 0.213159,-0.432078 0,-0.184353 -0.115221,-0.305335 -0.120982,-0.11522 -0.541538,-0.213158 -1.958752,-0.432078 -2.483006,-0.789262 -0.72589,-0.495449 -0.72589,-1.376887 0,-0.795023 0.627953,-1.33656 0.627953,-0.541538 1.94723,-0.541538 1.255905,0 1.866575,0.409034 0.61067,0.409033 0.841111,1.209817 l -1.526674,0.282291 q -0.09794,-0.357184 -0.374467,-0.547298 -0.270769,-0.190115 -0.77774,-0.190115 -0.639475,0 -0.916005,0.178592 -0.184353,0.126743 -0.184353,0.328379 0,0.172832 0.161309,0.293813 0.218919,0.161309 1.509391,0.455122 1.296233,0.293813 1.808965,0.720129 0.506971,0.432078 0.506971,1.204057 0,0.841111 -0.702846,1.44602 -0.702846,0.604908 -2.079734,0.604908 -1.250144,0 -1.981796,-0.506971 -0.72589,-0.506971 -0.950571,-1.376887 z"
             id="path1004"
             style="fill:#000000;fill-opacity:1" />
          <path
             d="m 56.744994,52.82972 v -0.916005 q -0.33414,0.489688 -0.881438,0.771979 -0.541537,0.28229 -1.146446,0.28229 -0.616431,0 -1.106119,-0.270768 -0.489688,-0.270769 -0.708607,-0.760457 -0.218919,-0.489688 -0.218919,-1.353843 V 46.7115 h 1.61885 v 2.811385 q 0,1.290472 0.08642,1.584285 0.09218,0.288052 0.328379,0.460883 0.236202,0.16707 0.599148,0.16707 0.414794,0 0.743173,-0.224681 0.328379,-0.230441 0.449361,-0.564581 0.120982,-0.339901 0.120982,-1.653417 V 46.7115 h 1.618851 v 6.11822 z"
             id="path1006"
             style="fill:#000000;fill-opacity:1" />
          <path
             d="m 60.099069,46.7115 h 1.492108 v 0.83535 q 0.800784,-0.973615 1.906903,-0.973615 0.587625,0 1.019703,0.241964 0.432078,0.241963 0.708607,0.731651 0.403273,-0.489688 0.869917,-0.731651 0.466643,-0.241964 0.996659,-0.241964 0.674041,0 1.140685,0.27653 0.466644,0.270769 0.697085,0.800784 0.16707,0.39175 0.16707,1.267428 v 3.911743 h -1.618851 v -3.496949 q 0,-0.910243 -0.16707,-1.175251 -0.22468,-0.345662 -0.691324,-0.345662 -0.339901,0 -0.639475,0.207397 -0.299574,0.207397 -0.432078,0.61067 -0.132504,0.397511 -0.132504,1.261667 v 2.938128 h -1.61885 v -3.352923 q 0,-0.89296 -0.08642,-1.152207 -0.08642,-0.259247 -0.270769,-0.385989 -0.178592,-0.126743 -0.489688,-0.126743 -0.374467,0 -0.674041,0.201636 -0.299574,0.201636 -0.432077,0.581865 -0.126743,0.380228 -0.126743,1.261666 v 2.972695 h -1.618851 z"
             id="path1008"
             style="fill:#000000;fill-opacity:1" />
          <path
             d="m 74.548896,50.88249 1.61309,0.270768 q -0.311096,0.8872 -0.985137,1.353844 -0.66828,0.460882 -1.676462,0.460882 -1.595806,0 -2.362024,-1.042747 -0.604909,-0.83535 -0.604909,-2.108539 0,-1.520913 0.795023,-2.379307 0.795023,-0.864156 2.010602,-0.864156 1.365365,0 2.154627,0.904483 0.789262,0.898721 0.754695,2.759536 h -4.055769 q 0.01728,0.720129 0.391751,1.123402 0.374467,0.397511 0.933288,0.397511 0.380228,0 0.639475,-0.207397 0.259246,-0.207398 0.39175,-0.66828 z m 0.09218,-1.636134 q -0.01728,-0.702847 -0.362945,-1.065792 -0.345662,-0.368706 -0.841111,-0.368706 -0.530015,0 -0.875677,0.385989 -0.345662,0.38599 -0.339901,1.048509 z"
             id="path1010"
             style="fill:#000000;fill-opacity:1" />
        </g>
        <g
           aria-label="Resume"
           id="text934"
           style="font-weight:bold;font-size:11.7986px;line-height:1.25;font-family:Arial;-inkscape-font-specification:'Arial Bold';letter-spacing:0.294965px;fill:#fff599;fill-opacity:1;stroke-width:0.294965"
           transform="translate(-0.44461077,10.003742)">
          <path
             d="m 30.20621,52.82972 v -8.445678 h 3.589125 q 1.353843,0 1.964513,0.230441 0.61643,0.224681 0.985137,0.806545 0.368706,0.581865 0.368706,1.330799 0,0.950571 -0.55882,1.572763 -0.558821,0.616431 -1.670701,0.77774 0.55306,0.322618 0.910244,0.708607 0.362945,0.385989 0.973615,1.371126 l 1.031225,1.647657 h -2.039406 l -1.232862,-1.837771 q -0.656758,-0.985137 -0.898721,-1.238622 -0.241964,-0.259247 -0.512733,-0.351423 -0.270768,-0.09794 -0.858394,-0.09794 h -0.345662 v 3.525754 z m 1.705266,-4.873836 h 1.261667 q 1.2271,0 1.532435,-0.103699 0.305335,-0.103699 0.478166,-0.357184 0.172831,-0.253486 0.172831,-0.633714 0,-0.426317 -0.230441,-0.685563 -0.224681,-0.265008 -0.639475,-0.33414 -0.207397,-0.0288 -1.244384,-0.0288 h -1.330799 z"
             id="path986"
             style="fill:#fff599;fill-opacity:1" />
          <path
             d="m 42.547499,50.88249 1.61309,0.270768 q -0.311096,0.8872 -0.985137,1.353844 -0.66828,0.460882 -1.676462,0.460882 -1.595806,0 -2.362024,-1.042747 -0.604909,-0.83535 -0.604909,-2.108539 0,-1.520913 0.795023,-2.379307 0.795023,-0.864156 2.010601,-0.864156 1.365366,0 2.154628,0.904483 0.789261,0.898721 0.754695,2.759536 h -4.055769 q 0.01728,0.720129 0.391751,1.123402 0.374467,0.397511 0.933287,0.397511 0.380229,0 0.639475,-0.207397 0.259247,-0.207398 0.391751,-0.66828 z m 0.09218,-1.636134 q -0.01728,-0.702847 -0.362945,-1.065792 -0.345662,-0.368706 -0.841111,-0.368706 -0.530015,0 -0.875677,0.385989 -0.345663,0.38599 -0.339901,1.048509 z"
             id="path988"
             style="fill:#fff599;fill-opacity:1" />
          <path
             d="m 45.290903,51.084126 1.624612,-0.247725 q 0.103699,0.472405 0.420556,0.72013 0.316857,0.241963 0.887199,0.241963 0.627953,0 0.94481,-0.230441 0.213159,-0.161309 0.213159,-0.432078 0,-0.184353 -0.115221,-0.305335 -0.120982,-0.11522 -0.541538,-0.213158 -1.958752,-0.432078 -2.483006,-0.789262 -0.72589,-0.495449 -0.72589,-1.376887 0,-0.795023 0.627953,-1.33656 0.627953,-0.541538 1.94723,-0.541538 1.255905,0 1.866575,0.409034 0.61067,0.409033 0.841111,1.209817 l -1.526674,0.282291 q -0.09794,-0.357184 -0.374467,-0.547298 -0.270769,-0.190115 -0.77774,-0.190115 -0.639475,0 -0.916005,0.178592 -0.184353,0.126743 -0.184353,0.328379 0,0.172832 0.161309,0.293813 0.218919,0.161309 1.509391,0.455122 1.296233,0.293813 1.808965,0.720129 0.506971,0.432078 0.506971,1.204057 0,0.841111 -0.702846,1.44602 -0.702846,0.604908 -2.079734,0.604908 -1.250144,0 -1.981796,-0.506971 -0.72589,-0.506971 -0.950571,-1.376887 z"
             id="path990"
             style="fill:#fff599;fill-opacity:1" />
          <path
             d="m 56.744994,52.82972 v -0.916005 q -0.33414,0.489688 -0.881438,0.771979 -0.541537,0.28229 -1.146446,0.28229 -0.616431,0 -1.106119,-0.270768 -0.489688,-0.270769 -0.708607,-0.760457 -0.218919,-0.489688 -0.218919,-1.353843 V 46.7115 h 1.61885 v 2.811385 q 0,1.290472 0.08642,1.584285 0.09218,0.288052 0.328379,0.460883 0.236202,0.16707 0.599148,0.16707 0.414794,0 0.743173,-0.224681 0.328379,-0.230441 0.449361,-0.564581 0.120982,-0.339901 0.120982,-1.653417 V 46.7115 h 1.618851 v 6.11822 z"
             id="path992"
             style="fill:#fff599;fill-opacity:1" />
          <path
             d="m 60.099069,46.7115 h 1.492108 v 0.83535 q 0.800784,-0.973615 1.906903,-0.973615 0.587625,0 1.019703,0.241964 0.432078,0.241963 0.708607,0.731651 0.403273,-0.489688 0.869917,-0.731651 0.466643,-0.241964 0.996659,-0.241964 0.674041,0 1.140685,0.27653 0.466644,0.270769 0.697085,0.800784 0.16707,0.39175 0.16707,1.267428 v 3.911743 h -1.618851 v -3.496949 q 0,-0.910243 -0.16707,-1.175251 -0.22468,-0.345662 -0.691324,-0.345662 -0.339901,0 -0.639475,0.207397 -0.299574,0.207397 -0.432078,0.61067 -0.132504,0.397511 -0.132504,1.261667 v 2.938128 h -1.61885 v -3.352923 q 0,-0.89296 -0.08642,-1.152207 -0.08642,-0.259247 -0.270769,-0.385989 -0.178592,-0.126743 -0.489688,-0.126743 -0.374467,0 -0.674041,0.201636 -0.299574,0.201636 -0.432077,0.581865 -0.126743,0.380228 -0.126743,1.261666 v 2.972695 h -1.618851 z"
             id="path994"
             style="fill:#fff599;fill-opacity:1" />
          <path
             d="m 74.548896,50.88249 1.61309,0.270768 q -0.311096,0.8872 -0.985137,1.353844 -0.66828,0.460882 -1.676462,0.460882 -1.595806,0 -2.362024,-1.042747 -0.604909,-0.83535 -0.604909,-2.108539 0,-1.520913 0.795023,-2.379307 0.795023,-0.864156 2.010602,-0.864156 1.365365,0 2.154627,0.904483 0.789262,0.898721 0.754695,2.759536 h -4.055769 q 0.01728,0.720129 0.391751,1.123402 0.374467,0.397511 0.933288,0.397511 0.380228,0 0.639475,-0.207397 0.259246,-0.207398 0.39175,-0.66828 z m 0.09218,-1.636134 q -0.01728,-0.702847 -0.362945,-1.065792 -0.345662,-0.368706 -0.841111,-0.368706 -0.530015,0 -0.875677,0.385989 -0.345662,0.38599 -0.339901,1.048509 z"
             id="path996"
             style="fill:#fff599;fill-opacity:1" />
        </g>
      </g>
    </g>
  </g>
</svg>
