<?xml version="1.0" encoding="UTF-8" standalone="no"?>
<!-- Created with Inkscape (http://www.inkscape.org/) -->

<svg
   width="210mm"
   height="297mm"
   viewBox="0 0 210 297"
   version="1.1"
   id="svg5"
   inkscape:version="1.2 (dc2aedaf03, 2022-05-15)"
   sodipodi:docname="button-13(next).svg"
   xmlns:inkscape="http://www.inkscape.org/namespaces/inkscape"
   xmlns:sodipodi="http://sodipodi.sourceforge.net/DTD/sodipodi-0.dtd"
   xmlns:xlink="http://www.w3.org/1999/xlink"
   xmlns="http://www.w3.org/2000/svg"
   xmlns:svg="http://www.w3.org/2000/svg">
  <sodipodi:namedview
     id="namedview7"
     pagecolor="#ffffff"
     bordercolor="#666666"
     borderopacity="1.0"
     inkscape:showpageshadow="2"
     inkscape:pageopacity="0.0"
     inkscape:pagecheckerboard="0"
     inkscape:deskcolor="#d1d1d1"
     inkscape:document-units="mm"
     showgrid="false"
     inkscape:zoom="1.7852694"
     inkscape:cx="245.90126"
     inkscape:cy="207.25163"
     inkscape:window-width="1823"
     inkscape:window-height="1205"
     inkscape:window-x="2572"
     inkscape:window-y="43"
     inkscape:window-maximized="0"
     inkscape:current-layer="layer1" />
  <defs
     id="defs2">
    <linearGradient
       inkscape:collect="always"
       id="linearGradient4073">
      <stop
         style="stop-color:#fffefc;stop-opacity:0;"
         offset="0"
         id="stop4069" />
      <stop
         style="stop-color:#ffffff;stop-opacity:1;"
         offset="0.46875495"
         id="stop4075" />
      <stop
         style="stop-color:#ffffff;stop-opacity:0;"
         offset="1"
         id="stop4071" />
    </linearGradient>
    <linearGradient
       inkscape:collect="always"
       id="linearGradient4023">
      <stop
         style="stop-color:#ffd88a;stop-opacity:1;"
         offset="0"
         id="stop4019" />
      <stop
         style="stop-color:#eb5d15;stop-opacity:1;"
         offset="1"
         id="stop4021" />
    </linearGradient>
    <linearGradient
       inkscape:collect="always"
       id="linearGradient3998">
      <stop
         style="stop-color:#ffdc9f;stop-opacity:1;"
         offset="0"
         id="stop3994" />
      <stop
         style="stop-color:#b13500;stop-opacity:1;"
         offset="1"
         id="stop3996" />
    </linearGradient>
    <linearGradient
       inkscape:collect="always"
       xlink:href="#linearGradient3998"
       id="linearGradient3247"
       x1="60.318863"
       y1="69.952095"
       x2="60.170658"
       y2="90.7006"
       gradientUnits="userSpaceOnUse"
       gradientTransform="translate(-9.850802,-49.044418)" />
    <linearGradient
       inkscape:collect="always"
       xlink:href="#linearGradient4023"
       id="linearGradient4012"
       gradientUnits="userSpaceOnUse"
       gradientTransform="translate(-9.8508441,-49.872252)"
       x1="59.270905"
       y1="72.886375"
       x2="59.227497"
       y2="87.975906" />
    <linearGradient
       inkscape:collect="always"
       xlink:href="#linearGradient4073"
       id="linearGradient4067"
       x1="33.115463"
       y1="74.195404"
       x2="39.612797"
       y2="74.090607"
       gradientUnits="userSpaceOnUse"
       gradientTransform="translate(-9.850802,-48.834827)" />
    <filter
       inkscape:collect="always"
       style="color-interpolation-filters:sRGB"
       id="filter7754"
       x="-0.030428979"
       y="-0.092749193"
       width="1.060858"
       height="1.1854984">
      <feGaussianBlur
         inkscape:collect="always"
         stdDeviation="0.73658167"
         id="feGaussianBlur7756" />
    </filter>
    <filter
       inkscape:collect="always"
       style="color-interpolation-filters:sRGB"
       id="filter2820"
       x="-0.032099334"
       y="-0.095116963"
       width="1.0641987"
       height="1.1902339">
      <feGaussianBlur
         inkscape:collect="always"
         stdDeviation="0.34982711"
         id="feGaussianBlur2822" />
    </filter>
  </defs>
  <g
     inkscape:label="Layer 1"
     inkscape:groupmode="layer"
     id="layer1">
    <g
       id="g2862">
      <g
         id="g8489"
         transform="translate(0,-2.9640719)">
        <rect
           style="mix-blend-mode:normal;fill:#282828;fill-opacity:1;fill-rule:evenodd;stroke-width:0.32363;filter:url(#filter7754)"
           id="rect4015"
           width="58.095806"
           height="19.059961"
           x="32.011936"
           y="70.693108"
           ry="8.4710941"
           rx="7.6441851"
           transform="matrix(1,0,0,0.99515819,-9.850802,-48.4988)" />
        <path
           id="rect739"
           style="fill:url(#linearGradient3247);fill-opacity:1;fill-rule:evenodd;stroke-width:0.309997"
           d="m 22.842293,27.241882 c -0.436433,0.979554 -0.681095,2.067841 -0.681095,3.216858 v 1.943033 c 0,4.305936 3.409103,7.772136 7.643977,7.772136 h 42.807723 c 4.234875,0 7.643978,-3.4662 7.643978,-7.772136 V 30.45874 c 0,-1.149017 -0.244662,-2.237304 -0.681095,-3.216858 0.154549,0.622417 0.236678,1.275167 0.236678,1.948718 v 1.943034 c 0,4.305936 -3.357135,7.772652 -7.527189,7.772652 H 30.132804 c -4.170055,0 -7.527189,-3.466716 -7.527189,-7.772652 V 29.1906 c 0,-0.673551 0.08213,-1.326301 0.236678,-1.948718 z" />
        <path
           id="rect3989"
           style="fill:#f8eabf;fill-opacity:1;fill-rule:evenodd;stroke-width:0.309997"
           d="m 29.805176,21.04102 c -4.234874,0 -7.643978,3.46672 -7.643978,7.77265 v 1.94304 c 0,0.02202 0.0014,0.04365 0.0016,0.06563 0.0349,-4.27507 3.429382,-7.70651 7.642428,-7.70651 h 42.807723 c 4.213046,0 7.60753,3.43144 7.642427,7.70651 1.78e-4,-0.02198 0.0016,-0.04361 0.0016,-0.06563 v -1.94304 c 0,-4.30593 -3.409104,-7.77265 -7.643978,-7.77265 z" />
        <path
           id="path4065"
           style="fill:url(#linearGradient4067);fill-opacity:1;fill-rule:evenodd;stroke-width:0.309997"
           d="m 29.805176,21.04102 c -4.234874,0 -7.643978,3.46672 -7.643978,7.77265 v 1.94304 c 0,0.02202 0.0014,0.04365 0.0016,0.06563 0.0349,-4.27507 3.429382,-7.70651 7.642428,-7.70651 h 42.807723 c 4.213046,0 7.60753,3.43144 7.642427,7.70651 1.78e-4,-0.02198 0.0016,-0.04361 0.0016,-0.06563 v -1.94304 c 0,-4.30593 -3.409104,-7.77265 -7.643978,-7.77265 z" />
        <rect
           style="fill:url(#linearGradient4012);fill-opacity:1;fill-rule:evenodd;stroke-width:0.309997"
           id="rect4010"
           width="58.095806"
           height="17.488024"
           x="22.161135"
           y="21.85828"
           ry="7.7724552"
           rx="7.6441851" />
      </g>
      <g
         aria-label="Next"
         id="text947"
         style="font-weight:bold;font-size:12.1325px;line-height:1.25;font-family:Arial;-inkscape-font-specification:'Arial Bold';letter-spacing:0.302482px;fill:#000000;fill-opacity:1;stroke-width:0.303311;filter:url(#filter2820)"
         transform="translate(-7.8974196,-38.143472)">
        <path
           d="m 46.028537,70.266296 v -8.684689 h 1.706133 l 3.554443,5.799666 v -5.799666 h 1.62912 v 8.684689 h -1.759449 l -3.501127,-5.663413 v 5.663413 z"
           id="path1766"
           style="fill:#000000;fill-opacity:1" />
        <path
           d="m 58.706406,68.26396 1.65874,0.278431 q -0.3199,0.912308 -1.013017,1.392157 -0.687192,0.473926 -1.723905,0.473926 -1.640967,0 -2.428869,-1.072257 -0.622028,-0.85899 -0.622028,-2.16821 0,-1.563955 0.817522,-2.446642 0.817522,-0.888611 2.067501,-0.888611 1.404006,0 2.215603,0.930079 0.811598,0.924156 0.776054,2.837631 H 56.28346 q 0.01777,0.740509 0.402837,1.155194 0.385065,0.408761 0.9597,0.408761 0.390988,0 0.657572,-0.213267 0.266583,-0.213266 0.402837,-0.687192 z m 0.09479,-1.682436 q -0.01777,-0.722737 -0.373217,-1.095954 -0.355444,-0.37914 -0.864914,-0.37914 -0.545015,0 -0.900459,0.396912 -0.355445,0.396913 -0.349521,1.078182 z"
           id="path1768"
           style="fill:#000000;fill-opacity:1" />
        <path
           d="m 61.313353,70.266296 2.268919,-3.240467 -2.174134,-3.050897 h 2.031957 l 1.113725,1.729829 1.172966,-1.729829 h 1.954944 l -2.132666,2.979808 2.328161,3.311556 H 65.83342 l -1.2796,-1.949019 -1.291448,1.949019 z"
           id="path1770"
           style="fill:#000000;fill-opacity:1" />
        <path
           d="m 72.048125,63.974932 v 1.326992 h -1.137422 v 2.535503 q 0,0.770129 0.02962,0.900459 0.03554,0.124405 0.148102,0.207342 0.118482,0.08294 0.284356,0.08294 0.231038,0 0.66942,-0.15995 l 0.142177,1.291448 q -0.580559,0.248811 -1.315144,0.248811 -0.450229,0 -0.811597,-0.148102 -0.361369,-0.154026 -0.533167,-0.390988 -0.165874,-0.242887 -0.231039,-0.651648 -0.05332,-0.29028 -0.05332,-1.172967 v -2.742845 h -0.764206 v -1.326992 h 0.764206 v -1.249979 l 1.670588,-0.971548 v 2.221527 z"
           id="path1772"
           style="fill:#000000;fill-opacity:1" />
      </g>
      <g
         aria-label="Next"
         id="g1783"
         style="font-weight:bold;font-size:12.1325px;line-height:1.25;font-family:Arial;-inkscape-font-specification:'Arial Bold';letter-spacing:0.302482px;fill:#fff599;fill-opacity:1;stroke-width:0.303311"
         transform="translate(-7.8974196,-38.829341)">
        <path
           d="m 46.028537,70.266296 v -8.684689 h 1.706133 l 3.554443,5.799666 v -5.799666 h 1.62912 v 8.684689 h -1.759449 l -3.501127,-5.663413 v 5.663413 z"
           id="path1775"
           style="fill:#fff599;fill-opacity:1" />
        <path
           d="m 58.706406,68.26396 1.65874,0.278431 q -0.3199,0.912308 -1.013017,1.392157 -0.687192,0.473926 -1.723905,0.473926 -1.640967,0 -2.428869,-1.072257 -0.622028,-0.85899 -0.622028,-2.16821 0,-1.563955 0.817522,-2.446642 0.817522,-0.888611 2.067501,-0.888611 1.404006,0 2.215603,0.930079 0.811598,0.924156 0.776054,2.837631 H 56.28346 q 0.01777,0.740509 0.402837,1.155194 0.385065,0.408761 0.9597,0.408761 0.390988,0 0.657572,-0.213267 0.266583,-0.213266 0.402837,-0.687192 z m 0.09479,-1.682436 q -0.01777,-0.722737 -0.373217,-1.095954 -0.355444,-0.37914 -0.864914,-0.37914 -0.545015,0 -0.900459,0.396912 -0.355445,0.396913 -0.349521,1.078182 z"
           id="path1777"
           style="fill:#fff599;fill-opacity:1" />
        <path
           d="m 61.313353,70.266296 2.268919,-3.240467 -2.174134,-3.050897 h 2.031957 l 1.113725,1.729829 1.172966,-1.729829 h 1.954944 l -2.132666,2.979808 2.328161,3.311556 H 65.83342 l -1.2796,-1.949019 -1.291448,1.949019 z"
           id="path1779"
           style="fill:#fff599;fill-opacity:1" />
        <path
           d="m 72.048125,63.974932 v 1.326992 h -1.137422 v 2.535503 q 0,0.770129 0.02962,0.900459 0.03554,0.124405 0.148102,0.207342 0.118482,0.08294 0.284356,0.08294 0.231038,0 0.66942,-0.15995 l 0.142177,1.291448 q -0.580559,0.248811 -1.315144,0.248811 -0.450229,0 -0.811597,-0.148102 -0.361369,-0.154026 -0.533167,-0.390988 -0.165874,-0.242887 -0.231039,-0.651648 -0.05332,-0.29028 -0.05332,-1.172967 v -2.742845 h -0.764206 v -1.326992 h 0.764206 v -1.249979 l 1.670588,-0.971548 v 2.221527 z"
           id="path1781"
           style="fill:#fff599;fill-opacity:1" />
      </g>
    </g>
  </g>
</svg>
