<?xml version="1.0" encoding="UTF-8" standalone="no"?>
<!-- Created with Inkscape (http://www.inkscape.org/) -->

<svg
   width="210mm"
   height="297mm"
   viewBox="0 0 210 297"
   version="1.1"
   id="svg5"
   inkscape:version="1.2.1 (9c6d41e410, 2022-07-14)"
   sodipodi:docname="button-13(settings).svg"
   xmlns:inkscape="http://www.inkscape.org/namespaces/inkscape"
   xmlns:sodipodi="http://sodipodi.sourceforge.net/DTD/sodipodi-0.dtd"
   xmlns:xlink="http://www.w3.org/1999/xlink"
   xmlns="http://www.w3.org/2000/svg"
   xmlns:svg="http://www.w3.org/2000/svg">
  <sodipodi:namedview
     id="namedview7"
     pagecolor="#ffffff"
     bordercolor="#666666"
     borderopacity="1.0"
     inkscape:showpageshadow="2"
     inkscape:pageopacity="0.0"
     inkscape:pagecheckerboard="0"
     inkscape:deskcolor="#d1d1d1"
     inkscape:document-units="mm"
     showgrid="false"
     inkscape:zoom="3.5705388"
     inkscape:cx="241.98029"
     inkscape:cy="150.1174"
     inkscape:window-width="2560"
     inkscape:window-height="1377"
     inkscape:window-x="1912"
     inkscape:window-y="-8"
     inkscape:window-maximized="1"
     inkscape:current-layer="layer1"
     showguides="true" />
  <defs
     id="defs2">
    <linearGradient
       inkscape:collect="always"
       id="linearGradient4073">
      <stop
         style="stop-color:#fffefc;stop-opacity:0;"
         offset="0"
         id="stop4069" />
      <stop
         style="stop-color:#ffffff;stop-opacity:1;"
         offset="0.46875495"
         id="stop4075" />
      <stop
         style="stop-color:#ffffff;stop-opacity:0;"
         offset="1"
         id="stop4071" />
    </linearGradient>
    <linearGradient
       inkscape:collect="always"
       id="linearGradient4023">
      <stop
         style="stop-color:#ffd88a;stop-opacity:1;"
         offset="0"
         id="stop4019" />
      <stop
         style="stop-color:#eb5d15;stop-opacity:1;"
         offset="1"
         id="stop4021" />
    </linearGradient>
    <linearGradient
       inkscape:collect="always"
       id="linearGradient3998">
      <stop
         style="stop-color:#ffdc9f;stop-opacity:1;"
         offset="0"
         id="stop3994" />
      <stop
         style="stop-color:#b13500;stop-opacity:1;"
         offset="1"
         id="stop3996" />
    </linearGradient>
    <linearGradient
       inkscape:collect="always"
       xlink:href="#linearGradient3998"
       id="linearGradient3247"
       x1="60.318863"
       y1="69.952095"
       x2="60.170658"
       y2="90.7006"
       gradientUnits="userSpaceOnUse"
       gradientTransform="translate(-9.850802,-52.00849)" />
    <linearGradient
       inkscape:collect="always"
       xlink:href="#linearGradient4023"
       id="linearGradient4012"
       gradientUnits="userSpaceOnUse"
       gradientTransform="translate(-9.8508441,-52.836324)"
       x1="59.270905"
       y1="72.886375"
       x2="59.227497"
       y2="87.975906" />
    <linearGradient
       inkscape:collect="always"
       xlink:href="#linearGradient4073"
       id="linearGradient4067"
       x1="33.115463"
       y1="74.195404"
       x2="39.612797"
       y2="74.090607"
       gradientUnits="userSpaceOnUse"
       gradientTransform="translate(-9.850802,-51.798899)" />
    <filter
       inkscape:collect="always"
       style="color-interpolation-filters:sRGB"
       id="filter7754"
       x="-0.030428979"
       y="-0.092749193"
       width="1.060858"
       height="1.1854984">
      <feGaussianBlur
         inkscape:collect="always"
         stdDeviation="0.73658167"
         id="feGaussianBlur7756" />
    </filter>
    <filter
       inkscape:collect="always"
       style="color-interpolation-filters:sRGB"
       id="filter945"
       x="-0.0012761606"
       y="-0.0042394486"
       width="1.0025523"
       height="1.0084789">
      <feGaussianBlur
         inkscape:collect="always"
         stdDeviation="0.030891492"
         id="feGaussianBlur947" />
    </filter>
    <filter
       inkscape:collect="always"
       style="color-interpolation-filters:sRGB"
       id="filter949"
       x="-0.0012761612"
       y="-0.007579711"
       width="1.0025523"
       height="1.0151594">
      <feGaussianBlur
         inkscape:collect="always"
         stdDeviation="0.030891492"
         id="feGaussianBlur951" />
    </filter>
    <filter
       inkscape:collect="always"
       style="color-interpolation-filters:sRGB"
       id="filter953"
       x="-0.0012761634"
       y="-0.0057330207"
       width="1.0025523"
       height="1.011466">
      <feGaussianBlur
         inkscape:collect="always"
         stdDeviation="0.030891492"
         id="feGaussianBlur955" />
    </filter>
    <filter
       inkscape:collect="always"
       style="color-interpolation-filters:sRGB"
       id="filter1988"
       x="-0.029834555"
       y="-0.12272215"
       width="1.0596691"
       height="1.2454443">
      <feGaussianBlur
         inkscape:collect="always"
         stdDeviation="0.56519636"
         id="feGaussianBlur1990" />
    </filter>
    <filter
       inkscape:collect="always"
       style="color-interpolation-filters:sRGB"
       id="filter1992"
       x="-0.0011933823"
       y="-0.0049088866"
       width="1.0023868"
       height="1.0098178">
      <feGaussianBlur
         inkscape:collect="always"
         stdDeviation="0.022607855"
         id="feGaussianBlur1994" />
    </filter>
  </defs>
  <g
     inkscape:label="Layer 1"
     inkscape:groupmode="layer"
     id="layer1">
    <g
       id="g2061">
      <rect
         style="mix-blend-mode:normal;fill:#282828;fill-opacity:1;fill-rule:evenodd;stroke-width:0.32363;filter:url(#filter7754)"
         id="rect4015"
         width="58.095806"
         height="19.059961"
         x="32.011936"
         y="70.693108"
         ry="8.4710941"
         rx="7.6441851"
         transform="matrix(1,0,0,0.99515819,-9.850802,-51.462872)" />
      <path
         id="rect739"
         style="fill:url(#linearGradient3247);fill-opacity:1;fill-rule:evenodd;stroke-width:0.309997;filter:url(#filter953)"
         d="m 22.842293,24.27781 c -0.436433,0.979554 -0.681095,2.067841 -0.681095,3.216858 v 1.943033 c 0,4.305936 3.409103,7.772136 7.643977,7.772136 h 42.807723 c 4.234875,0 7.643978,-3.4662 7.643978,-7.772136 v -1.943033 c 0,-1.149017 -0.244662,-2.237304 -0.681095,-3.216858 0.154549,0.622417 0.236678,1.275167 0.236678,1.948718 v 1.943034 c 0,4.305936 -3.357135,7.772652 -7.527189,7.772652 H 30.132804 c -4.170055,0 -7.527189,-3.466716 -7.527189,-7.772652 v -1.943034 c 0,-0.673551 0.08213,-1.326301 0.236678,-1.948718 z" />
      <path
         id="rect3989"
         style="fill:#f8eabf;fill-opacity:1;fill-rule:evenodd;stroke-width:0.309997"
         d="m 29.805176,18.076948 c -4.234874,0 -7.643978,3.46672 -7.643978,7.77265 v 1.94304 c 0,0.02202 0.0014,0.04365 0.0016,0.06563 0.0349,-4.27507 3.429382,-7.70651 7.642428,-7.70651 h 42.807723 c 4.213046,0 7.60753,3.43144 7.642427,7.70651 1.78e-4,-0.02198 0.0016,-0.04361 0.0016,-0.06563 v -1.94304 c 0,-4.30593 -3.409104,-7.77265 -7.643978,-7.77265 z" />
      <path
         id="path4065"
         style="fill:url(#linearGradient4067);fill-opacity:1;fill-rule:evenodd;stroke-width:0.309997;filter:url(#filter949)"
         d="m 29.805176,18.076948 c -4.234874,0 -7.643978,3.46672 -7.643978,7.77265 v 1.94304 c 0,0.02202 0.0014,0.04365 0.0016,0.06563 0.0349,-4.27507 3.429382,-7.70651 7.642428,-7.70651 h 42.807723 c 4.213046,0 7.60753,3.43144 7.642427,7.70651 1.78e-4,-0.02198 0.0016,-0.04361 0.0016,-0.06563 v -1.94304 c 0,-4.30593 -3.409104,-7.77265 -7.643978,-7.77265 z" />
      <rect
         style="fill:url(#linearGradient4012);fill-opacity:1;fill-rule:evenodd;stroke-width:0.309997;filter:url(#filter945)"
         id="rect4010"
         width="58.095806"
         height="17.488024"
         x="22.161135"
         y="18.894209"
         ry="7.7724552"
         rx="7.6441851" />
      <g
         id="g2014"
         transform="translate(-5.0220528,20.348486)">
        <g
           aria-label="Settings"
           id="text994"
           style="font-weight:bold;font-size:11.7778px;line-height:1.25;font-family:Arial;-inkscape-font-specification:'Arial Bold';fill:#000000;fill-opacity:1;stroke-width:0.294444;filter:url(#filter1988)">
          <path
             d="M 33.497865,9.1299826 35.154118,8.968958 q 0.149523,0.8338774 0.603842,1.224937 0.460071,0.39106 1.236439,0.39106 0.822376,0 1.236439,-0.345053 0.419814,-0.3508034 0.419814,-0.8166246 0,-0.2990456 -0.178277,-0.5060773 Q 38.299849,8.7044176 37.862782,8.5491439 37.563736,8.4456281 36.499824,8.1810876 35.131115,7.8417858 34.57903,7.3472102 33.802662,6.6513539 33.802662,5.650701 q 0,-0.6440984 0.362305,-1.2019336 0.368056,-0.5635862 1.052411,-0.856881 0.690105,-0.2932948 1.662004,-0.2932948 1.587242,0 2.386614,0.6958563 0.805123,0.6958564 0.84538,1.8575339 l -1.702261,0.074761 Q 38.299849,5.2768939 37.937543,4.9951008 37.580989,4.7075569 36.862129,4.7075569 q -0.741863,0 -1.161677,0.3047966 -0.270292,0.1955298 -0.270292,0.5233299 0,0.2990457 0.253039,0.5118282 0.322049,0.2702913 1.564239,0.5635862 1.24219,0.2932948 1.83453,0.6095931 0.598092,0.3105475 0.931643,0.8568809 0.339301,0.5405826 0.339301,1.3399548 0,0.7246104 -0.402561,1.3572074 -0.402562,0.632597 -1.138674,0.943144 -0.736113,0.304797 -1.83453,0.304797 -1.598745,0 -2.455626,-0.736113 -0.856881,-0.741863 -1.023656,-2.1565794 z"
             id="path1121"
             style="fill:#000000;fill-opacity:1" />
          <path
             d="m 45.31017,9.9293548 1.610246,0.2702912 q -0.310547,0.885635 -0.9834,1.351457 -0.667102,0.46007 -1.673506,0.46007 -1.592993,0 -2.35786,-1.040909 -0.603842,-0.833878 -0.603842,-2.1048218 0,-1.518232 0.793621,-2.3751129 0.793621,-0.8626318 2.007057,-0.8626318 1.362958,0 2.150828,0.902888 0.787871,0.897137 0.753365,2.7546709 h -4.048618 q 0.01725,0.7188596 0.391059,1.1214216 0.373808,0.39681 0.931643,0.39681 0.379558,0 0.638347,-0.207031 0.25879,-0.207032 0.39106,-0.6671022 z M 45.40218,8.2961052 Q 45.384931,7.594498 45.039879,7.2321927 44.694826,6.8641364 44.20025,6.8641364 q -0.52908,0 -0.874133,0.3853089 -0.345053,0.3853089 -0.339302,1.0466599 z"
             id="path1123"
             style="fill:#000000;fill-opacity:1" />
          <path
             d="M 51.124309,5.7657186 V 7.0539154 H 50.02014 v 2.4613761 q 0,0.7476145 0.02875,0.8741335 0.03451,0.120769 0.143772,0.201281 0.115018,0.08051 0.276042,0.08051 0.224285,0 0.64985,-0.155274 l 0.138021,1.253692 q -0.563586,0.241537 -1.276695,0.241537 -0.437067,0 -0.787871,-0.143772 Q 48.84121,11.717878 48.674434,11.487843 48.51341,11.252057 48.45015,10.855246 48.398392,10.573453 48.398392,9.7165723 V 7.0539154 H 47.656529 V 5.7657186 h 0.741863 V 4.5522832 L 50.02014,3.6091391 v 2.1565795 z"
             id="path1125"
             style="fill:#000000;fill-opacity:1" />
          <path
             d="m 55.046408,5.7657186 v 1.2881968 h -1.104169 v 2.4613761 q 0,0.7476145 0.02875,0.8741335 0.03451,0.120769 0.143772,0.201281 0.115018,0.08051 0.276043,0.08051 0.224284,0 0.649849,-0.155274 l 0.138021,1.253692 q -0.563586,0.241537 -1.276695,0.241537 -0.437067,0 -0.787871,-0.143772 -0.350803,-0.149523 -0.517579,-0.379558 -0.161024,-0.235786 -0.224284,-0.632597 -0.05176,-0.281793 -0.05176,-1.1386737 V 7.0539154 H 51.578628 V 5.7657186 h 0.741863 V 4.5522832 l 1.621748,-0.9431441 v 2.1565795 z"
             id="path1127"
             style="fill:#000000;fill-opacity:1" />
          <path
             d="M 56.16783,4.9375921 V 3.4423636 h 1.615997 v 1.4952285 z m 0,6.9355599 V 5.7657186 h 1.615997 v 6.1074334 z"
             id="path1129"
             style="fill:#000000;fill-opacity:1" />
          <path
             d="M 64.995428,11.873152 H 63.379431 V 8.7561755 q 0,-0.9891511 -0.103516,-1.2766951 Q 63.172399,7.1861856 62.936613,7.025161 62.706578,6.8641364 62.378778,6.8641364 q -0.419814,0 -0.753365,0.2300352 -0.333551,0.2300351 -0.46007,0.6095931 -0.120769,0.379558 -0.120769,1.4032144 V 11.873152 H 59.428577 V 5.7657186 h 1.50098 v 0.8971371 q 0.799372,-1.0351582 2.012807,-1.0351582 0.534832,0 0.97765,0.1955299 0.442817,0.189779 0.667101,0.4888247 0.230036,0.2990457 0.316299,0.6786037 0.09201,0.3795579 0.09201,1.086916 z"
             id="path1131"
             style="fill:#000000;fill-opacity:1" />
          <path
             d="m 66.484907,12.275713 1.846032,0.224285 q 0.04601,0.322049 0.212783,0.442817 0.230035,0.172527 0.724611,0.172527 0.632596,0 0.948895,-0.189779 0.212782,-0.12652 0.322049,-0.408313 0.07476,-0.201281 0.07476,-0.741863 v -0.891386 q -0.72461,0.989151 -1.828779,0.989151 -1.230688,0 -1.949548,-1.040909 -0.563586,-0.822376 -0.563586,-2.0473131 0,-1.5354846 0.736112,-2.3463585 0.741864,-0.8108739 1.840282,-0.8108739 1.132923,0 1.869035,0.994902 V 5.7657186 h 1.512481 v 5.4805874 q 0,1.081165 -0.178277,1.615997 -0.178277,0.534832 -0.500326,0.839628 -0.32205,0.304797 -0.862632,0.477323 -0.534832,0.172527 -1.357208,0.172527 -1.552737,0 -2.202586,-0.534832 -0.649849,-0.529081 -0.649849,-1.345706 0,-0.08051 0.0058,-0.19553 z m 1.443471,-3.5827971 q 0,0.9718985 0.373807,1.4262181 0.379558,0.448568 0.931642,0.448568 0.592341,0 1.000653,-0.46007 0.408313,-0.4658212 0.408313,-1.37446 0,-0.948895 -0.39106,-1.4089653 -0.39106,-0.4600703 -0.989151,-0.4600703 -0.580839,0 -0.960397,0.4543194 -0.373807,0.4485686 -0.373807,1.3744601 z"
             id="path1133"
             style="fill:#000000;fill-opacity:1" />
          <path
             d="m 73.259441,10.130636 1.621747,-0.2472883 q 0.103516,0.4715723 0.419815,0.7188603 0.316298,0.241536 0.885635,0.241536 0.626846,0 0.943144,-0.230035 0.212783,-0.161024 0.212783,-0.431316 0,-0.1840277 -0.115018,-0.3047961 Q 77.106778,9.7625793 76.686964,9.6648144 74.731666,9.2334984 74.208336,8.876944 73.483725,8.3823684 73.483725,7.502484 q 0,-0.7936213 0.626846,-1.3342039 0.626845,-0.5405826 1.943797,-0.5405826 1.253691,0 1.863284,0.4083124 0.609594,0.4083124 0.839629,1.2076845 L 77.233298,7.5254875 Q 77.135533,7.168933 76.859491,6.979154 76.589199,6.789375 76.083122,6.789375 q -0.638347,0 -0.91439,0.1782772 -0.184028,0.1265194 -0.184028,0.3278001 0,0.1725264 0.161025,0.2932948 0.218533,0.1610246 1.50673,0.4543195 1.293948,0.2932948 1.805776,0.7188598 0.506077,0.4313159 0.506077,1.2019336 0,0.839628 -0.701607,1.443471 -0.701607,0.603842 -2.076067,0.603842 -1.247941,0 -1.978302,-0.506077 -0.724611,-0.506078 -0.948895,-1.37446 z"
             id="path1135"
             style="fill:#000000;fill-opacity:1" />
        </g>
        <g
           aria-label="Settings"
           id="g1154"
           style="font-weight:bold;font-size:11.7778px;line-height:1.25;font-family:Arial;-inkscape-font-specification:'Arial Bold';fill:#fff599;fill-opacity:1;stroke-width:0.294444;filter:url(#filter1992)"
           transform="translate(0,-0.8383661)">
          <path
             d="M 33.497865,9.1299826 35.154118,8.968958 q 0.149523,0.8338774 0.603842,1.224937 0.460071,0.39106 1.236439,0.39106 0.822376,0 1.236439,-0.345053 0.419814,-0.3508034 0.419814,-0.8166246 0,-0.2990456 -0.178277,-0.5060773 Q 38.299849,8.7044176 37.862782,8.5491439 37.563736,8.4456281 36.499824,8.1810876 35.131115,7.8417858 34.57903,7.3472102 33.802662,6.6513539 33.802662,5.650701 q 0,-0.6440984 0.362305,-1.2019336 0.368056,-0.5635862 1.052411,-0.856881 0.690105,-0.2932948 1.662004,-0.2932948 1.587242,0 2.386614,0.6958563 0.805123,0.6958564 0.84538,1.8575339 l -1.702261,0.074761 Q 38.299849,5.2768939 37.937543,4.9951008 37.580989,4.7075569 36.862129,4.7075569 q -0.741863,0 -1.161677,0.3047966 -0.270292,0.1955298 -0.270292,0.5233299 0,0.2990457 0.253039,0.5118282 0.322049,0.2702913 1.564239,0.5635862 1.24219,0.2932948 1.83453,0.6095931 0.598092,0.3105475 0.931643,0.8568809 0.339301,0.5405826 0.339301,1.3399548 0,0.7246104 -0.402561,1.3572074 -0.402562,0.632597 -1.138674,0.943144 -0.736113,0.304797 -1.83453,0.304797 -1.598745,0 -2.455626,-0.736113 -0.856881,-0.741863 -1.023656,-2.1565794 z"
             id="path1138"
             style="fill:#fff599;fill-opacity:1" />
          <path
             d="m 45.31017,9.9293548 1.610246,0.2702912 q -0.310547,0.885635 -0.9834,1.351457 -0.667102,0.46007 -1.673506,0.46007 -1.592993,0 -2.35786,-1.040909 -0.603842,-0.833878 -0.603842,-2.1048218 0,-1.518232 0.793621,-2.3751129 0.793621,-0.8626318 2.007057,-0.8626318 1.362958,0 2.150828,0.902888 0.787871,0.897137 0.753365,2.7546709 h -4.048618 q 0.01725,0.7188596 0.391059,1.1214216 0.373808,0.39681 0.931643,0.39681 0.379558,0 0.638347,-0.207031 0.25879,-0.207032 0.39106,-0.6671022 z M 45.40218,8.2961052 Q 45.384931,7.594498 45.039879,7.2321927 44.694826,6.8641364 44.20025,6.8641364 q -0.52908,0 -0.874133,0.3853089 -0.345053,0.3853089 -0.339302,1.0466599 z"
             id="path1140"
             style="fill:#fff599;fill-opacity:1" />
          <path
             d="M 51.124309,5.7657186 V 7.0539154 H 50.02014 v 2.4613761 q 0,0.7476145 0.02875,0.8741335 0.03451,0.120769 0.143772,0.201281 0.115018,0.08051 0.276042,0.08051 0.224285,0 0.64985,-0.155274 l 0.138021,1.253692 q -0.563586,0.241537 -1.276695,0.241537 -0.437067,0 -0.787871,-0.143772 Q 48.84121,11.717878 48.674434,11.487843 48.51341,11.252057 48.45015,10.855246 48.398392,10.573453 48.398392,9.7165723 V 7.0539154 H 47.656529 V 5.7657186 h 0.741863 V 4.5522832 L 50.02014,3.6091391 v 2.1565795 z"
             id="path1142"
             style="fill:#fff599;fill-opacity:1" />
          <path
             d="m 55.046408,5.7657186 v 1.2881968 h -1.104169 v 2.4613761 q 0,0.7476145 0.02875,0.8741335 0.03451,0.120769 0.143772,0.201281 0.115018,0.08051 0.276043,0.08051 0.224284,0 0.649849,-0.155274 l 0.138021,1.253692 q -0.563586,0.241537 -1.276695,0.241537 -0.437067,0 -0.787871,-0.143772 -0.350803,-0.149523 -0.517579,-0.379558 -0.161024,-0.235786 -0.224284,-0.632597 -0.05176,-0.281793 -0.05176,-1.1386737 V 7.0539154 H 51.578628 V 5.7657186 h 0.741863 V 4.5522832 l 1.621748,-0.9431441 v 2.1565795 z"
             id="path1144"
             style="fill:#fff599;fill-opacity:1" />
          <path
             d="M 56.16783,4.9375921 V 3.4423636 h 1.615997 v 1.4952285 z m 0,6.9355599 V 5.7657186 h 1.615997 v 6.1074334 z"
             id="path1146"
             style="fill:#fff599;fill-opacity:1" />
          <path
             d="M 64.995428,11.873152 H 63.379431 V 8.7561755 q 0,-0.9891511 -0.103516,-1.2766951 Q 63.172399,7.1861856 62.936613,7.025161 62.706578,6.8641364 62.378778,6.8641364 q -0.419814,0 -0.753365,0.2300352 -0.333551,0.2300351 -0.46007,0.6095931 -0.120769,0.379558 -0.120769,1.4032144 V 11.873152 H 59.428577 V 5.7657186 h 1.50098 v 0.8971371 q 0.799372,-1.0351582 2.012807,-1.0351582 0.534832,0 0.97765,0.1955299 0.442817,0.189779 0.667101,0.4888247 0.230036,0.2990457 0.316299,0.6786037 0.09201,0.3795579 0.09201,1.086916 z"
             id="path1148"
             style="fill:#fff599;fill-opacity:1" />
          <path
             d="m 66.484907,12.275713 1.846032,0.224285 q 0.04601,0.322049 0.212783,0.442817 0.230035,0.172527 0.724611,0.172527 0.632596,0 0.948895,-0.189779 0.212782,-0.12652 0.322049,-0.408313 0.07476,-0.201281 0.07476,-0.741863 v -0.891386 q -0.72461,0.989151 -1.828779,0.989151 -1.230688,0 -1.949548,-1.040909 -0.563586,-0.822376 -0.563586,-2.0473131 0,-1.5354846 0.736112,-2.3463585 0.741864,-0.8108739 1.840282,-0.8108739 1.132923,0 1.869035,0.994902 V 5.7657186 h 1.512481 v 5.4805874 q 0,1.081165 -0.178277,1.615997 -0.178277,0.534832 -0.500326,0.839628 -0.32205,0.304797 -0.862632,0.477323 -0.534832,0.172527 -1.357208,0.172527 -1.552737,0 -2.202586,-0.534832 -0.649849,-0.529081 -0.649849,-1.345706 0,-0.08051 0.0058,-0.19553 z m 1.443471,-3.5827971 q 0,0.9718985 0.373807,1.4262181 0.379558,0.448568 0.931642,0.448568 0.592341,0 1.000653,-0.46007 0.408313,-0.4658212 0.408313,-1.37446 0,-0.948895 -0.39106,-1.4089653 -0.39106,-0.4600703 -0.989151,-0.4600703 -0.580839,0 -0.960397,0.4543194 -0.373807,0.4485686 -0.373807,1.3744601 z"
             id="path1150"
             style="fill:#fff599;fill-opacity:1" />
          <path
             d="m 73.259441,10.130636 1.621747,-0.2472883 q 0.103516,0.4715723 0.419815,0.7188603 0.316298,0.241536 0.885635,0.241536 0.626846,0 0.943144,-0.230035 0.212783,-0.161024 0.212783,-0.431316 0,-0.1840277 -0.115018,-0.3047961 Q 77.106778,9.7625793 76.686964,9.6648144 74.731666,9.2334984 74.208336,8.876944 73.483725,8.3823684 73.483725,7.502484 q 0,-0.7936213 0.626846,-1.3342039 0.626845,-0.5405826 1.943797,-0.5405826 1.253691,0 1.863284,0.4083124 0.609594,0.4083124 0.839629,1.2076845 L 77.233298,7.5254875 Q 77.135533,7.168933 76.859491,6.979154 76.589199,6.789375 76.083122,6.789375 q -0.638347,0 -0.91439,0.1782772 -0.184028,0.1265194 -0.184028,0.3278001 0,0.1725264 0.161025,0.2932948 0.218533,0.1610246 1.50673,0.4543195 1.293948,0.2932948 1.805776,0.7188598 0.506077,0.4313159 0.506077,1.2019336 0,0.839628 -0.701607,1.443471 -0.701607,0.603842 -2.076067,0.603842 -1.247941,0 -1.978302,-0.506077 -0.724611,-0.506078 -0.948895,-1.37446 z"
             id="path1152"
             style="fill:#fff599;fill-opacity:1" />
        </g>
      </g>
    </g>
  </g>
</svg>
