<?xml version="1.0" encoding="UTF-8" standalone="no"?>
<!-- Created with Inkscape (http://www.inkscape.org/) -->

<svg
   width="210mm"
   height="297mm"
   viewBox="0 0 210 297"
   version="1.1"
   id="svg5"
   inkscape:version="1.2 (dc2aedaf03, 2022-05-15)"
   sodipodi:docname="button-13(play).svg"
   xmlns:inkscape="http://www.inkscape.org/namespaces/inkscape"
   xmlns:sodipodi="http://sodipodi.sourceforge.net/DTD/sodipodi-0.dtd"
   xmlns:xlink="http://www.w3.org/1999/xlink"
   xmlns="http://www.w3.org/2000/svg"
   xmlns:svg="http://www.w3.org/2000/svg">
  <sodipodi:namedview
     id="namedview7"
     pagecolor="#ffffff"
     bordercolor="#666666"
     borderopacity="1.0"
     inkscape:showpageshadow="2"
     inkscape:pageopacity="0.0"
     inkscape:pagecheckerboard="0"
     inkscape:deskcolor="#d1d1d1"
     inkscape:document-units="mm"
     showgrid="false"
     inkscape:zoom="1.7852694"
     inkscape:cx="301.07501"
     inkscape:cy="177.56424"
     inkscape:window-width="1823"
     inkscape:window-height="1205"
     inkscape:window-x="2445"
     inkscape:window-y="140"
     inkscape:window-maximized="0"
     inkscape:current-layer="layer1" />
  <defs
     id="defs2">
    <linearGradient
       inkscape:collect="always"
       id="linearGradient4073">
      <stop
         style="stop-color:#fffefc;stop-opacity:0;"
         offset="0"
         id="stop4069" />
      <stop
         style="stop-color:#ffffff;stop-opacity:1;"
         offset="0.46875495"
         id="stop4075" />
      <stop
         style="stop-color:#ffffff;stop-opacity:0;"
         offset="1"
         id="stop4071" />
    </linearGradient>
    <linearGradient
       inkscape:collect="always"
       id="linearGradient4023">
      <stop
         style="stop-color:#ffd88a;stop-opacity:1;"
         offset="0"
         id="stop4019" />
      <stop
         style="stop-color:#eb5d15;stop-opacity:1;"
         offset="1"
         id="stop4021" />
    </linearGradient>
    <linearGradient
       inkscape:collect="always"
       id="linearGradient3998">
      <stop
         style="stop-color:#ffdc9f;stop-opacity:1;"
         offset="0"
         id="stop3994" />
      <stop
         style="stop-color:#b13500;stop-opacity:1;"
         offset="1"
         id="stop3996" />
    </linearGradient>
    <linearGradient
       inkscape:collect="always"
       xlink:href="#linearGradient3998"
       id="linearGradient3247"
       x1="60.318863"
       y1="69.952095"
       x2="60.170658"
       y2="90.7006"
       gradientUnits="userSpaceOnUse"
       gradientTransform="translate(-9.850802,-49.044418)" />
    <linearGradient
       inkscape:collect="always"
       xlink:href="#linearGradient4023"
       id="linearGradient4012"
       gradientUnits="userSpaceOnUse"
       gradientTransform="translate(-9.8508441,-49.872252)"
       x1="59.270905"
       y1="72.886375"
       x2="59.227497"
       y2="87.975906" />
    <linearGradient
       inkscape:collect="always"
       xlink:href="#linearGradient4073"
       id="linearGradient4067"
       x1="33.115463"
       y1="74.195404"
       x2="39.612797"
       y2="74.090607"
       gradientUnits="userSpaceOnUse"
       gradientTransform="translate(-9.850802,-48.834827)" />
    <filter
       inkscape:collect="always"
       style="color-interpolation-filters:sRGB"
       id="filter7754"
       x="-0.030428979"
       y="-0.092749193"
       width="1.060858"
       height="1.1854984">
      <feGaussianBlur
         inkscape:collect="always"
         stdDeviation="0.73658167"
         id="feGaussianBlur7756" />
    </filter>
    <filter
       inkscape:collect="always"
       style="color-interpolation-filters:sRGB"
       id="filter992"
       x="-0.035080064"
       y="-0.077383257"
       width="1.0701601"
       height="1.1547665">
      <feGaussianBlur
         inkscape:collect="always"
         stdDeviation="0.36156946"
         id="feGaussianBlur994" />
    </filter>
  </defs>
  <g
     inkscape:label="Layer 1"
     inkscape:groupmode="layer"
     id="layer1">
    <g
       id="g1012">
      <g
         id="g8489"
         transform="translate(0,-2.9640719)">
        <rect
           style="mix-blend-mode:normal;fill:#282828;fill-opacity:1;fill-rule:evenodd;stroke-width:0.32363;filter:url(#filter7754)"
           id="rect4015"
           width="58.095806"
           height="19.059961"
           x="32.011936"
           y="70.693108"
           ry="8.4710941"
           rx="7.6441851"
           transform="matrix(1,0,0,0.99515819,-9.850802,-48.4988)" />
        <path
           id="rect739"
           style="fill:url(#linearGradient3247);fill-opacity:1;fill-rule:evenodd;stroke-width:0.309997"
           d="m 22.842293,27.241882 c -0.436433,0.979554 -0.681095,2.067841 -0.681095,3.216858 v 1.943033 c 0,4.305936 3.409103,7.772136 7.643977,7.772136 h 42.807723 c 4.234875,0 7.643978,-3.4662 7.643978,-7.772136 V 30.45874 c 0,-1.149017 -0.244662,-2.237304 -0.681095,-3.216858 0.154549,0.622417 0.236678,1.275167 0.236678,1.948718 v 1.943034 c 0,4.305936 -3.357135,7.772652 -7.527189,7.772652 H 30.132804 c -4.170055,0 -7.527189,-3.466716 -7.527189,-7.772652 V 29.1906 c 0,-0.673551 0.08213,-1.326301 0.236678,-1.948718 z" />
        <path
           id="rect3989"
           style="fill:#f8eabf;fill-opacity:1;fill-rule:evenodd;stroke-width:0.309997"
           d="m 29.805176,21.04102 c -4.234874,0 -7.643978,3.46672 -7.643978,7.77265 v 1.94304 c 0,0.02202 0.0014,0.04365 0.0016,0.06563 0.0349,-4.27507 3.429382,-7.70651 7.642428,-7.70651 h 42.807723 c 4.213046,0 7.60753,3.43144 7.642427,7.70651 1.78e-4,-0.02198 0.0016,-0.04361 0.0016,-0.06563 v -1.94304 c 0,-4.30593 -3.409104,-7.77265 -7.643978,-7.77265 z" />
        <path
           id="path4065"
           style="fill:url(#linearGradient4067);fill-opacity:1;fill-rule:evenodd;stroke-width:0.309997"
           d="m 29.805176,21.04102 c -4.234874,0 -7.643978,3.46672 -7.643978,7.77265 v 1.94304 c 0,0.02202 0.0014,0.04365 0.0016,0.06563 0.0349,-4.27507 3.429382,-7.70651 7.642428,-7.70651 h 42.807723 c 4.213046,0 7.60753,3.43144 7.642427,7.70651 1.78e-4,-0.02198 0.0016,-0.04361 0.0016,-0.06563 v -1.94304 c 0,-4.30593 -3.409104,-7.77265 -7.643978,-7.77265 z" />
        <rect
           style="fill:url(#linearGradient4012);fill-opacity:1;fill-rule:evenodd;stroke-width:0.309997"
           id="rect4010"
           width="58.095806"
           height="17.488024"
           x="22.161135"
           y="21.85828"
           ry="7.7724552"
           rx="7.6441851" />
      </g>
      <g
         aria-label="Play"
         id="g990"
         style="font-weight:bold;font-size:12.1065px;line-height:1.25;font-family:Arial;-inkscape-font-specification:'Arial Bold';letter-spacing:0.302663px;stroke-width:0.302663;fill:#000000;fill-opacity:0.80696195;filter:url(#filter992);opacity:1"
         transform="translate(0,0.74101795)">
        <path
           d="m 38.840665,31.430929 v -8.666078 h 2.807904 q 1.596071,0 2.080804,0.13005 0.744834,0.195076 1.247301,0.851238 0.502467,0.650252 0.502467,1.684743 0,0.798036 -0.289658,1.341882 -0.289657,0.543847 -0.738922,0.85715 -0.443353,0.307391 -0.904441,0.407885 -0.626605,0.124139 -1.814792,0.124139 h -1.140896 v 3.268991 z m 1.749767,-7.200057 v 2.459133 h 0.957643 q 1.034491,0 1.383262,-0.135962 0.348771,-0.135961 0.543847,-0.425619 0.200987,-0.289657 0.200987,-0.673897 0,-0.47291 -0.277835,-0.780301 -0.277835,-0.307392 -0.703454,-0.38424 -0.313303,-0.05911 -1.259123,-0.05911 z"
           id="path982"
           style="fill:#000000;fill-opacity:0.80696195" />
        <path
           d="m 47.206445,31.430929 v -8.666078 h 1.661097 v 8.666078 z"
           id="path984"
           style="fill:#000000;fill-opacity:0.80696195" />
        <path
           d="M 52.114071,27.068333 50.60667,26.79641 q 0.254189,-0.910352 0.874884,-1.347794 0.620695,-0.437442 1.84435,-0.437442 1.111338,0 1.655185,0.266012 0.543847,0.260101 0.762568,0.667986 0.224632,0.401973 0.224632,1.483755 l -0.01773,1.938932 q 0,0.827592 0.07685,1.223655 0.08276,0.390151 0.30148,0.839415 H 54.68552 q -0.06502,-0.165518 -0.159607,-0.490644 -0.04138,-0.147785 -0.05911,-0.195076 -0.425619,0.413797 -0.910352,0.620695 -0.484733,0.206898 -1.034491,0.206898 -0.969465,0 -1.531046,-0.526112 -0.55567,-0.526113 -0.55567,-1.33006 0,-0.532024 0.25419,-0.94582 0.254189,-0.419708 0.709365,-0.638429 0.461087,-0.224632 1.324148,-0.390151 1.164541,-0.218721 1.613806,-0.407885 v -0.165518 q 0,-0.478822 -0.236455,-0.679809 -0.236455,-0.206898 -0.892618,-0.206898 -0.443353,0 -0.691631,0.177341 -0.248278,0.17143 -0.401974,0.608872 z m 2.222678,1.347794 q -0.319214,0.106405 -1.010845,0.254189 -0.691632,0.147785 -0.904441,0.289658 -0.325126,0.230543 -0.325126,0.585226 0,0.348771 0.260101,0.60296 0.2601,0.25419 0.662074,0.25419 0.449265,0 0.85715,-0.295569 0.30148,-0.224633 0.396062,-0.549758 0.06502,-0.21281 0.06502,-0.809859 z"
           id="path986"
           style="fill:#000000;fill-opacity:0.80696195" />
        <path
           d="m 57.12219,25.153047 h 1.767502 l 1.501489,4.457178 1.466022,-4.457178 h 1.72021 l -2.216766,6.041427 -0.396062,1.093605 q -0.218721,0.549758 -0.419708,0.839415 -0.195075,0.289658 -0.455176,0.466999 -0.254189,0.183253 -0.632517,0.283746 -0.372417,0.100494 -0.845327,0.100494 -0.478822,0 -0.939909,-0.100494 l -0.147784,-1.300503 q 0.39015,0.07685 0.703453,0.07685 0.579315,0 0.85715,-0.34286 0.277835,-0.336948 0.425619,-0.863061 z"
           id="path988"
           style="fill:#000000;fill-opacity:0.80696195" />
      </g>
      <g
         aria-label="Play"
         id="text917"
         style="font-weight:bold;font-size:12.1065px;line-height:1.25;font-family:Arial;-inkscape-font-specification:'Arial Bold';letter-spacing:0.302663px;stroke-width:0.302663;fill:#fff599;fill-opacity:1">
        <path
           d="m 38.840665,31.430929 v -8.666078 h 2.807904 q 1.596071,0 2.080804,0.13005 0.744834,0.195076 1.247301,0.851238 0.502467,0.650252 0.502467,1.684743 0,0.798036 -0.289658,1.341882 -0.289657,0.543847 -0.738922,0.85715 -0.443353,0.307391 -0.904441,0.407885 -0.626605,0.124139 -1.814792,0.124139 h -1.140896 v 3.268991 z m 1.749767,-7.200057 v 2.459133 h 0.957643 q 1.034491,0 1.383262,-0.135962 0.348771,-0.135961 0.543847,-0.425619 0.200987,-0.289657 0.200987,-0.673897 0,-0.47291 -0.277835,-0.780301 -0.277835,-0.307392 -0.703454,-0.38424 -0.313303,-0.05911 -1.259123,-0.05911 z"
           id="path973"
           style="fill:#fff599;fill-opacity:1" />
        <path
           d="m 47.206445,31.430929 v -8.666078 h 1.661097 v 8.666078 z"
           id="path975"
           style="fill:#fff599;fill-opacity:1" />
        <path
           d="M 52.114071,27.068333 50.60667,26.79641 q 0.254189,-0.910352 0.874884,-1.347794 0.620695,-0.437442 1.84435,-0.437442 1.111338,0 1.655185,0.266012 0.543847,0.260101 0.762568,0.667986 0.224632,0.401973 0.224632,1.483755 l -0.01773,1.938932 q 0,0.827592 0.07685,1.223655 0.08276,0.390151 0.30148,0.839415 H 54.68552 q -0.06502,-0.165518 -0.159607,-0.490644 -0.04138,-0.147785 -0.05911,-0.195076 -0.425619,0.413797 -0.910352,0.620695 -0.484733,0.206898 -1.034491,0.206898 -0.969465,0 -1.531046,-0.526112 -0.55567,-0.526113 -0.55567,-1.33006 0,-0.532024 0.25419,-0.94582 0.254189,-0.419708 0.709365,-0.638429 0.461087,-0.224632 1.324148,-0.390151 1.164541,-0.218721 1.613806,-0.407885 v -0.165518 q 0,-0.478822 -0.236455,-0.679809 -0.236455,-0.206898 -0.892618,-0.206898 -0.443353,0 -0.691631,0.177341 -0.248278,0.17143 -0.401974,0.608872 z m 2.222678,1.347794 q -0.319214,0.106405 -1.010845,0.254189 -0.691632,0.147785 -0.904441,0.289658 -0.325126,0.230543 -0.325126,0.585226 0,0.348771 0.260101,0.60296 0.2601,0.25419 0.662074,0.25419 0.449265,0 0.85715,-0.295569 0.30148,-0.224633 0.396062,-0.549758 0.06502,-0.21281 0.06502,-0.809859 z"
           id="path977"
           style="fill:#fff599;fill-opacity:1" />
        <path
           d="m 57.12219,25.153047 h 1.767502 l 1.501489,4.457178 1.466022,-4.457178 h 1.72021 l -2.216766,6.041427 -0.396062,1.093605 q -0.218721,0.549758 -0.419708,0.839415 -0.195075,0.289658 -0.455176,0.466999 -0.254189,0.183253 -0.632517,0.283746 -0.372417,0.100494 -0.845327,0.100494 -0.478822,0 -0.939909,-0.100494 l -0.147784,-1.300503 q 0.39015,0.07685 0.703453,0.07685 0.579315,0 0.85715,-0.34286 0.277835,-0.336948 0.425619,-0.863061 z"
           id="path979"
           style="fill:#fff599;fill-opacity:1" />
      </g>
    </g>
  </g>
</svg>
