<?xml version="1.0" encoding="UTF-8" standalone="no"?>
<!-- Created with Inkscape (http://www.inkscape.org/) -->

<svg
   width="210mm"
   height="297mm"
   viewBox="0 0 210 297"
   version="1.1"
   id="svg5"
   inkscape:version="1.2 (dc2aedaf03, 2022-05-15)"
   sodipodi:docname="button-13(skip).svg"
   xmlns:inkscape="http://www.inkscape.org/namespaces/inkscape"
   xmlns:sodipodi="http://sodipodi.sourceforge.net/DTD/sodipodi-0.dtd"
   xmlns:xlink="http://www.w3.org/1999/xlink"
   xmlns="http://www.w3.org/2000/svg"
   xmlns:svg="http://www.w3.org/2000/svg">
  <sodipodi:namedview
     id="namedview7"
     pagecolor="#ffffff"
     bordercolor="#666666"
     borderopacity="1.0"
     inkscape:showpageshadow="2"
     inkscape:pageopacity="0.0"
     inkscape:pagecheckerboard="0"
     inkscape:deskcolor="#d1d1d1"
     inkscape:document-units="mm"
     showgrid="false"
     inkscape:zoom="1.2623761"
     inkscape:cx="309.73337"
     inkscape:cy="277.25493"
     inkscape:window-width="1823"
     inkscape:window-height="1205"
     inkscape:window-x="2116"
     inkscape:window-y="156"
     inkscape:window-maximized="0"
     inkscape:current-layer="layer1" />
  <defs
     id="defs2">
    <linearGradient
       inkscape:collect="always"
       id="linearGradient4073">
      <stop
         style="stop-color:#fffefc;stop-opacity:0;"
         offset="0"
         id="stop4069" />
      <stop
         style="stop-color:#ffffff;stop-opacity:1;"
         offset="0.46875495"
         id="stop4075" />
      <stop
         style="stop-color:#ffffff;stop-opacity:0;"
         offset="1"
         id="stop4071" />
    </linearGradient>
    <linearGradient
       inkscape:collect="always"
       id="linearGradient4023">
      <stop
         style="stop-color:#ffd88a;stop-opacity:1;"
         offset="0"
         id="stop4019" />
      <stop
         style="stop-color:#eb5d15;stop-opacity:1;"
         offset="1"
         id="stop4021" />
    </linearGradient>
    <linearGradient
       inkscape:collect="always"
       id="linearGradient3998">
      <stop
         style="stop-color:#ffdc9f;stop-opacity:1;"
         offset="0"
         id="stop3994" />
      <stop
         style="stop-color:#b13500;stop-opacity:1;"
         offset="1"
         id="stop3996" />
    </linearGradient>
    <linearGradient
       inkscape:collect="always"
       xlink:href="#linearGradient3998"
       id="linearGradient3247"
       x1="60.318863"
       y1="69.952095"
       x2="60.170658"
       y2="90.7006"
       gradientUnits="userSpaceOnUse"
       gradientTransform="translate(-9.850802,-52.00849)" />
    <linearGradient
       inkscape:collect="always"
       xlink:href="#linearGradient4023"
       id="linearGradient4012"
       gradientUnits="userSpaceOnUse"
       gradientTransform="translate(-9.8508441,-52.836324)"
       x1="59.270905"
       y1="72.886375"
       x2="59.227497"
       y2="87.975906" />
    <linearGradient
       inkscape:collect="always"
       xlink:href="#linearGradient4073"
       id="linearGradient4067"
       x1="33.115463"
       y1="74.195404"
       x2="39.612797"
       y2="74.090607"
       gradientUnits="userSpaceOnUse"
       gradientTransform="translate(-9.850802,-51.798899)" />
    <filter
       inkscape:collect="always"
       style="color-interpolation-filters:sRGB"
       id="filter7754"
       x="-0.030428979"
       y="-0.092749193"
       width="1.060858"
       height="1.1854984">
      <feGaussianBlur
         inkscape:collect="always"
         stdDeviation="0.73658167"
         id="feGaussianBlur7756" />
    </filter>
    <filter
       inkscape:collect="always"
       style="color-interpolation-filters:sRGB"
       id="filter3452"
       x="-0.034506862"
       y="-0.07882131"
       width="1.0690137"
       height="1.1576426">
      <feGaussianBlur
         inkscape:collect="always"
         stdDeviation="0.36229674"
         id="feGaussianBlur3454" />
    </filter>
  </defs>
  <g
     inkscape:label="Layer 1"
     inkscape:groupmode="layer"
     id="layer1">
    <g
       id="g3538">
      <rect
         style="mix-blend-mode:normal;fill:#282828;fill-opacity:1;fill-rule:evenodd;stroke-width:0.32363;filter:url(#filter7754)"
         id="rect4015"
         width="58.095806"
         height="19.059961"
         x="32.011936"
         y="70.693108"
         ry="8.4710941"
         rx="7.6441851"
         transform="matrix(1,0,0,0.99515819,-9.850802,-51.462872)" />
      <path
         id="rect739"
         style="fill:url(#linearGradient3247);fill-opacity:1;fill-rule:evenodd;stroke-width:0.309997"
         d="m 22.842293,24.27781 c -0.436433,0.979554 -0.681095,2.067841 -0.681095,3.216858 v 1.943033 c 0,4.305936 3.409103,7.772136 7.643977,7.772136 h 42.807723 c 4.234875,0 7.643978,-3.4662 7.643978,-7.772136 v -1.943033 c 0,-1.149017 -0.244662,-2.237304 -0.681095,-3.216858 0.154549,0.622417 0.236678,1.275167 0.236678,1.948718 v 1.943034 c 0,4.305936 -3.357135,7.772652 -7.527189,7.772652 H 30.132804 c -4.170055,0 -7.527189,-3.466716 -7.527189,-7.772652 v -1.943034 c 0,-0.673551 0.08213,-1.326301 0.236678,-1.948718 z" />
      <path
         id="rect3989"
         style="fill:#f8eabf;fill-opacity:1;fill-rule:evenodd;stroke-width:0.309997"
         d="m 29.805176,18.076948 c -4.234874,0 -7.643978,3.46672 -7.643978,7.77265 v 1.94304 c 0,0.02202 0.0014,0.04365 0.0016,0.06563 0.0349,-4.27507 3.429382,-7.70651 7.642428,-7.70651 h 42.807723 c 4.213046,0 7.60753,3.43144 7.642427,7.70651 1.78e-4,-0.02198 0.0016,-0.04361 0.0016,-0.06563 v -1.94304 c 0,-4.30593 -3.409104,-7.77265 -7.643978,-7.77265 z" />
      <path
         id="path4065"
         style="fill:url(#linearGradient4067);fill-opacity:1;fill-rule:evenodd;stroke-width:0.309997"
         d="m 29.805176,18.076948 c -4.234874,0 -7.643978,3.46672 -7.643978,7.77265 v 1.94304 c 0,0.02202 0.0014,0.04365 0.0016,0.06563 0.0349,-4.27507 3.429382,-7.70651 7.642428,-7.70651 h 42.807723 c 4.213046,0 7.60753,3.43144 7.642427,7.70651 1.78e-4,-0.02198 0.0016,-0.04361 0.0016,-0.06563 v -1.94304 c 0,-4.30593 -3.409104,-7.77265 -7.643978,-7.77265 z" />
      <rect
         style="fill:url(#linearGradient4012);fill-opacity:1;fill-rule:evenodd;stroke-width:0.309997"
         id="rect4010"
         width="58.095806"
         height="17.488024"
         x="22.161135"
         y="18.894209"
         ry="7.7724552"
         rx="7.6441851" />
      <g
         aria-label="Skip"
         id="g2415"
         style="font-weight:bold;font-size:11.9221px;line-height:1.25;font-family:Arial;-inkscape-font-specification:'Arial Bold';letter-spacing:0.298051px;mix-blend-mode:normal;fill:#000000;fill-opacity:1;stroke-width:0.298051;filter:url(#filter3452)"
         transform="translate(12.447751,-34.268214)">
        <path
           d="m 26.162167,63.590402 1.676545,-0.162998 q 0.151355,0.844094 0.611241,1.239945 0.465707,0.395851 1.251588,0.395851 0.832451,0 1.251587,-0.34928 0.424958,-0.355102 0.424958,-0.82663 0,-0.30271 -0.180462,-0.512278 -0.17464,-0.215389 -0.617061,-0.372565 -0.30271,-0.104785 -1.379658,-0.372566 -1.385478,-0.343459 -1.944326,-0.844094 -0.785881,-0.704382 -0.785881,-1.717295 0,-0.65199 0.366744,-1.216659 0.372566,-0.570492 1.065305,-0.86738 0.698561,-0.296888 1.682367,-0.296888 1.606689,0 2.415855,0.704382 0.814987,0.704382 0.855737,1.880292 l -1.723116,0.07568 q -0.110606,-0.657811 -0.47735,-0.943056 -0.360923,-0.291067 -1.08859,-0.291067 -0.750953,0 -1.17591,0.308531 -0.273603,0.197925 -0.273603,0.529741 0,0.30271 0.256139,0.5181 0.325994,0.273602 1.583403,0.570491 1.257409,0.296888 1.857007,0.617061 0.605419,0.314353 0.943057,0.86738 0.343459,0.547206 0.343459,1.356372 0,0.733488 -0.407494,1.373835 -0.407493,0.640347 -1.152625,0.9547 -0.745131,0.308531 -1.857006,0.308531 -1.618332,0 -2.485712,-0.745132 -0.867379,-0.750952 -1.036198,-2.183001 z"
           id="path2407"
           style="fill:#000000;fill-opacity:1" />
        <path
           d="m 34.77891,66.36718 v -8.534082 h 1.635796 v 4.529001 l 1.915221,-2.17718 h 2.014182 l -2.113145,2.258679 2.2645,3.923582 h -1.763865 l -1.554297,-2.776778 -0.762596,0.797523 v 1.979255 z"
           id="path2409"
           style="fill:#000000;fill-opacity:1" />
        <path
           d="m 41.765678,59.346646 v -1.513548 h 1.635796 v 1.513548 z m 0,7.020534 v -6.182261 h 1.635796 v 6.182261 z"
           id="path2411"
           style="fill:#000000;fill-opacity:1" />
        <path
           d="m 45.3295,60.184919 h 1.525191 v 0.908129 q 0.296888,-0.465707 0.803344,-0.756774 0.506457,-0.291067 1.123519,-0.291067 1.076947,0 1.8279,0.844094 0.750952,0.844094 0.750952,2.35182 0,1.548476 -0.756774,2.410034 -0.756774,0.855737 -1.833721,0.855737 -0.512278,0 -0.931414,-0.203747 -0.413315,-0.203747 -0.873201,-0.69856 V 68.719 H 45.3295 Z m 1.618332,2.986346 q 0,1.04202 0.413315,1.542655 0.413315,0.494814 1.007092,0.494814 0.570491,0 0.948878,-0.454065 0.378387,-0.459885 0.378387,-1.501905 0,-0.972163 -0.39003,-1.443692 -0.39003,-0.471528 -0.966342,-0.471528 -0.599598,0 -0.995449,0.465707 -0.395851,0.459886 -0.395851,1.368014 z"
           id="path2413"
           style="fill:#000000;fill-opacity:1" />
      </g>
      <g
         aria-label="Skip"
         id="text2396"
         style="font-weight:bold;font-size:11.9221px;line-height:1.25;font-family:Arial;-inkscape-font-specification:'Arial Bold';letter-spacing:0.298051px;fill:#fff599;fill-opacity:1;stroke-width:0.298051"
         transform="translate(12.447751,-34.896989)">
        <path
           d="m 26.162167,63.590402 1.676545,-0.162998 q 0.151355,0.844094 0.611241,1.239945 0.465707,0.395851 1.251588,0.395851 0.832451,0 1.251587,-0.34928 0.424958,-0.355102 0.424958,-0.82663 0,-0.30271 -0.180462,-0.512278 -0.17464,-0.215389 -0.617061,-0.372565 -0.30271,-0.104785 -1.379658,-0.372566 -1.385478,-0.343459 -1.944326,-0.844094 -0.785881,-0.704382 -0.785881,-1.717295 0,-0.65199 0.366744,-1.216659 0.372566,-0.570492 1.065305,-0.86738 0.698561,-0.296888 1.682367,-0.296888 1.606689,0 2.415855,0.704382 0.814987,0.704382 0.855737,1.880292 l -1.723116,0.07568 q -0.110606,-0.657811 -0.47735,-0.943056 -0.360923,-0.291067 -1.08859,-0.291067 -0.750953,0 -1.17591,0.308531 -0.273603,0.197925 -0.273603,0.529741 0,0.30271 0.256139,0.5181 0.325994,0.273602 1.583403,0.570491 1.257409,0.296888 1.857007,0.617061 0.605419,0.314353 0.943057,0.86738 0.343459,0.547206 0.343459,1.356372 0,0.733488 -0.407494,1.373835 -0.407493,0.640347 -1.152625,0.9547 -0.745131,0.308531 -1.857006,0.308531 -1.618332,0 -2.485712,-0.745132 -0.867379,-0.750952 -1.036198,-2.183001 z"
           id="path2398"
           style="fill:#fff599;fill-opacity:1" />
        <path
           d="m 34.77891,66.36718 v -8.534082 h 1.635796 v 4.529001 l 1.915221,-2.17718 h 2.014182 l -2.113145,2.258679 2.2645,3.923582 h -1.763865 l -1.554297,-2.776778 -0.762596,0.797523 v 1.979255 z"
           id="path2400"
           style="fill:#fff599;fill-opacity:1" />
        <path
           d="m 41.765678,59.346646 v -1.513548 h 1.635796 v 1.513548 z m 0,7.020534 v -6.182261 h 1.635796 v 6.182261 z"
           id="path2402"
           style="fill:#fff599;fill-opacity:1" />
        <path
           d="m 45.3295,60.184919 h 1.525191 v 0.908129 q 0.296888,-0.465707 0.803344,-0.756774 0.506457,-0.291067 1.123519,-0.291067 1.076947,0 1.8279,0.844094 0.750952,0.844094 0.750952,2.35182 0,1.548476 -0.756774,2.410034 -0.756774,0.855737 -1.833721,0.855737 -0.512278,0 -0.931414,-0.203747 -0.413315,-0.203747 -0.873201,-0.69856 V 68.719 H 45.3295 Z m 1.618332,2.986346 q 0,1.04202 0.413315,1.542655 0.413315,0.494814 1.007092,0.494814 0.570491,0 0.948878,-0.454065 0.378387,-0.459885 0.378387,-1.501905 0,-0.972163 -0.39003,-1.443692 -0.39003,-0.471528 -0.966342,-0.471528 -0.599598,0 -0.995449,0.465707 -0.395851,0.459886 -0.395851,1.368014 z"
           id="path2404"
           style="fill:#fff599;fill-opacity:1" />
      </g>
    </g>
  </g>
</svg>
