<?xml version="1.0" encoding="UTF-8" standalone="no"?>
<!-- Created with Inkscape (http://www.inkscape.org/) -->

<svg
   width="210mm"
   height="297mm"
   viewBox="0 0 210 297"
   version="1.1"
   id="svg5"
   inkscape:version="1.2 (dc2aedaf03, 2022-05-15)"
   sodipodi:docname="button-7.svg"
   xmlns:inkscape="http://www.inkscape.org/namespaces/inkscape"
   xmlns:sodipodi="http://sodipodi.sourceforge.net/DTD/sodipodi-0.dtd"
   xmlns="http://www.w3.org/2000/svg"
   xmlns:svg="http://www.w3.org/2000/svg">
  <sodipodi:namedview
     id="namedview7"
     pagecolor="#ffffff"
     bordercolor="#666666"
     borderopacity="1.0"
     inkscape:showpageshadow="2"
     inkscape:pageopacity="0.0"
     inkscape:pagecheckerboard="0"
     inkscape:deskcolor="#d1d1d1"
     inkscape:document-units="mm"
     showgrid="false"
     inkscape:zoom="0.84096521"
     inkscape:cx="737.84265"
     inkscape:cy="397.75724"
     inkscape:window-width="1920"
     inkscape:window-height="1058"
     inkscape:window-x="-8"
     inkscape:window-y="-8"
     inkscape:window-maximized="1"
     inkscape:current-layer="layer1" />
  <defs
     id="defs2" />
  <g
     inkscape:label="Layer 1"
     inkscape:groupmode="layer"
     id="layer1">
    <g
       id="g10600">
      <rect
         style="fill:#2869c4;fill-opacity:1;stroke:#60655f;stroke-width:0;stroke-linecap:round;stroke-linejoin:round;paint-order:stroke fill markers"
         id="rect543"
         width="60"
         height="60"
         x="35.150101"
         y="24.471586"
         ry="8.9763784" />
      <path
         id="rect5315"
         style="fill:#92bfff;fill-opacity:1;stroke:#60655f;stroke-width:0;stroke-linecap:round;stroke-linejoin:round;paint-order:stroke fill markers"
         d="m 47.099797,25.858552 c -3.000167,0 -5.610563,1.622245 -7.028,4.049202 H 79.04474 c 6.026966,0 10.87926,4.906695 10.87926,11.001823 v 38.672639 c 2.148938,-1.483145 3.554867,-3.979188 3.554867,-6.820085 V 34.110393 c 0,-4.571346 -3.638869,-8.251841 -8.159094,-8.251841 z" />
      <path
         id="path9742"
         style="fill:#253d5f;fill-opacity:1;stroke:#60655f;stroke-width:0;stroke-linecap:round;stroke-linejoin:round;paint-order:stroke fill markers"
         d="m 82.402226,83.515893 c 2.982493,0 5.577512,-1.603303 6.986599,-4.001918 H 50.645469 c -5.99146,0 -10.815169,-4.849399 -10.815169,-10.873353 V 30.419579 c -2.13628,1.465825 -3.533927,3.932722 -3.533927,6.740444 v 38.200389 c 0,4.517963 3.617433,8.155481 8.111029,8.155481 z" />
      <g
         aria-label="Save"
         transform="scale(0.97916655,1.0212767)"
         id="text10531"
         style="font-size:12.8599px;line-height:1.25;font-family:Arial;-inkscape-font-specification:Arial;letter-spacing:0px;word-spacing:0px;fill:#ffffff;stroke-width:0.321497">
        <path
           d="m 52.43623,54.98192 1.149103,-0.100468 q 0.08163,0.690717 0.376755,1.136544 0.301404,0.439547 0.929328,0.715834 0.627925,0.270008 1.412831,0.270008 0.696997,0 1.230733,-0.207216 0.533736,-0.207215 0.791185,-0.565132 0.263729,-0.364196 0.263729,-0.791185 0,-0.433268 -0.25117,-0.75351 -0.25117,-0.326521 -0.828861,-0.546295 -0.370476,-0.144422 -1.638884,-0.445826 -1.268408,-0.307684 -1.777027,-0.577691 -0.659321,-0.345359 -0.985842,-0.853978 -0.320242,-0.514898 -0.320242,-1.149102 0,-0.696997 0.395593,-1.299805 0.395593,-0.609087 1.155382,-0.923049 0.759789,-0.313963 1.689117,-0.313963 1.023518,0 1.802145,0.3328 0.784906,0.326521 1.205615,0.967005 0.42071,0.640483 0.452106,1.450506 l -1.16794,0.08791 q -0.09419,-0.872816 -0.640483,-1.318643 -0.540016,-0.445826 -1.601209,-0.445826 -1.105147,0 -1.613766,0.408151 -0.50234,0.401872 -0.50234,0.973283 0,0.496061 0.357917,0.816303 0.351638,0.320241 1.83354,0.659321 1.488182,0.3328 2.040756,0.58397 0.803744,0.370475 1.186778,0.941887 0.383034,0.565132 0.383034,1.306084 0,0.734672 -0.420709,1.387714 -0.42071,0.646762 -1.211895,1.010959 -0.784906,0.357917 -1.770748,0.357917 -1.249571,0 -2.097269,-0.364197 -0.84142,-0.364196 -1.324922,-1.092589 -0.477223,-0.734672 -0.50234,-1.657721 z"
           id="path10583" />
        <path
           d="m 65.635211,57.116864 q -0.627925,0.533736 -1.211895,0.75351 -0.577691,0.219773 -1.243291,0.219773 -1.098869,0 -1.689118,-0.533736 -0.590249,-0.540015 -0.590249,-1.375155 0,-0.489781 0.219773,-0.891653 0.226053,-0.408151 0.58397,-0.653042 0.364197,-0.244891 0.816303,-0.370476 0.3328,-0.08791 1.004679,-0.169539 1.368876,-0.163261 2.015639,-0.389314 0.0063,-0.232332 0.0063,-0.295125 0,-0.690717 -0.320241,-0.973283 -0.433269,-0.383034 -1.287246,-0.383034 -0.797465,0 -1.180499,0.282566 -0.376755,0.276287 -0.558853,0.985842 l -1.105148,-0.150702 q 0.150702,-0.709555 0.496061,-1.142823 0.345359,-0.439548 0.9984,-0.67188 0.653042,-0.238611 1.513299,-0.238611 0.853978,0 1.387714,0.200936 0.533736,0.200936 0.784906,0.508619 0.25117,0.301404 0.351638,0.766068 0.05651,0.288846 0.05651,1.042355 v 1.50702 q 0,1.576091 0.06907,1.996801 0.07535,0.41443 0.288845,0.797464 h -1.180498 q -0.175819,-0.351637 -0.226053,-0.822581 z m -0.09419,-2.524258 q -0.615366,0.25117 -1.846099,0.426989 -0.696997,0.100468 -0.985842,0.226053 -0.288845,0.125585 -0.445827,0.370476 -0.156981,0.238611 -0.156981,0.533736 0,0.452106 0.33908,0.75351 0.345358,0.301403 1.004679,0.301403 0.653042,0 1.161661,-0.282566 0.508619,-0.288845 0.747231,-0.784906 0.182098,-0.383034 0.182098,-1.130264 z"
           id="path10585" />
        <path
           d="m 70.288133,57.939445 -2.536816,-6.668561 h 1.193057 l 1.431669,3.993602 q 0.232332,0.646762 0.426989,1.343759 0.150702,-0.527457 0.420709,-1.268408 l 1.481903,-4.068953 h 1.161661 l -2.524258,6.668561 z"
           id="path10587" />
        <path
           d="m 79.430719,55.791943 1.16794,0.144422 q -0.276286,1.023518 -1.023517,1.58865 -0.747231,0.565132 -1.908891,0.565132 -1.463065,0 -2.323322,-0.897932 -0.853978,-0.904212 -0.853978,-2.530537 0,-1.682839 0.866536,-2.612167 0.866536,-0.929329 2.247971,-0.929329 1.33748,0 2.185178,0.910491 0.847699,0.910491 0.847699,2.561933 0,0.100468 -0.0063,0.301404 h -4.973165 q 0.06279,1.098869 0.621646,1.682839 0.558853,0.58397 1.393993,0.58397 0.621645,0 1.061193,-0.326521 0.439547,-0.326521 0.696996,-1.042355 z m -3.711035,-1.827262 h 3.723594 q -0.07535,-0.841419 -0.426989,-1.262129 -0.540015,-0.653041 -1.400272,-0.653041 -0.778627,0 -1.312363,0.521177 -0.527457,0.521178 -0.58397,1.393993 z"
           id="path10589" />
      </g>
    </g>
  </g>
</svg>
