<?xml version="1.0" encoding="UTF-8" standalone="no"?>
<!-- Created with Inkscape (http://www.inkscape.org/) -->

<svg
   width="210mm"
   height="297mm"
   viewBox="0 0 210 297"
   version="1.1"
   id="svg5"
   inkscape:version="1.2 (dc2aedaf03, 2022-05-15)"
   sodipodi:docname="button-13(back).svg"
   xmlns:inkscape="http://www.inkscape.org/namespaces/inkscape"
   xmlns:sodipodi="http://sodipodi.sourceforge.net/DTD/sodipodi-0.dtd"
   xmlns:xlink="http://www.w3.org/1999/xlink"
   xmlns="http://www.w3.org/2000/svg"
   xmlns:svg="http://www.w3.org/2000/svg">
  <sodipodi:namedview
     id="namedview7"
     pagecolor="#ffffff"
     bordercolor="#666666"
     borderopacity="1.0"
     inkscape:showpageshadow="2"
     inkscape:pageopacity="0.0"
     inkscape:pagecheckerboard="0"
     inkscape:deskcolor="#d1d1d1"
     inkscape:document-units="mm"
     showgrid="false"
     inkscape:zoom="2.5247522"
     inkscape:cx="177.83924"
     inkscape:cy="164.76865"
     inkscape:window-width="1823"
     inkscape:window-height="1205"
     inkscape:window-x="2116"
     inkscape:window-y="160"
     inkscape:window-maximized="0"
     inkscape:current-layer="layer1" />
  <defs
     id="defs2">
    <linearGradient
       inkscape:collect="always"
       id="linearGradient4073">
      <stop
         style="stop-color:#fffefc;stop-opacity:0;"
         offset="0"
         id="stop4069" />
      <stop
         style="stop-color:#ffffff;stop-opacity:1;"
         offset="0.46875495"
         id="stop4075" />
      <stop
         style="stop-color:#ffffff;stop-opacity:0;"
         offset="1"
         id="stop4071" />
    </linearGradient>
    <linearGradient
       inkscape:collect="always"
       id="linearGradient4023">
      <stop
         style="stop-color:#ffd88a;stop-opacity:1;"
         offset="0"
         id="stop4019" />
      <stop
         style="stop-color:#eb5d15;stop-opacity:1;"
         offset="1"
         id="stop4021" />
    </linearGradient>
    <linearGradient
       inkscape:collect="always"
       id="linearGradient3998">
      <stop
         style="stop-color:#ffdc9f;stop-opacity:1;"
         offset="0"
         id="stop3994" />
      <stop
         style="stop-color:#b13500;stop-opacity:1;"
         offset="1"
         id="stop3996" />
    </linearGradient>
    <linearGradient
       inkscape:collect="always"
       xlink:href="#linearGradient3998"
       id="linearGradient3247"
       x1="60.318863"
       y1="69.952095"
       x2="60.170658"
       y2="90.7006"
       gradientUnits="userSpaceOnUse"
       gradientTransform="translate(-9.850802,-52.00849)" />
    <linearGradient
       inkscape:collect="always"
       xlink:href="#linearGradient4023"
       id="linearGradient4012"
       gradientUnits="userSpaceOnUse"
       gradientTransform="translate(-9.8508441,-52.836324)"
       x1="59.270905"
       y1="72.886375"
       x2="59.227497"
       y2="87.975906" />
    <linearGradient
       inkscape:collect="always"
       xlink:href="#linearGradient4073"
       id="linearGradient4067"
       x1="33.115463"
       y1="74.195404"
       x2="39.612797"
       y2="74.090607"
       gradientUnits="userSpaceOnUse"
       gradientTransform="translate(-9.850802,-51.798899)" />
    <filter
       inkscape:collect="always"
       style="color-interpolation-filters:sRGB"
       id="filter7754"
       x="-0.030428979"
       y="-0.092749193"
       width="1.060858"
       height="1.1854984">
      <feGaussianBlur
         inkscape:collect="always"
         stdDeviation="0.73658167"
         id="feGaussianBlur7756" />
    </filter>
    <filter
       inkscape:collect="always"
       style="color-interpolation-filters:sRGB"
       id="filter2263"
       x="-0.030587931"
       y="-0.1001724"
       width="1.0611759"
       height="1.2003448">
      <feGaussianBlur
         inkscape:collect="always"
         stdDeviation="0.35064068"
         id="feGaussianBlur2265" />
    </filter>
  </defs>
  <g
     inkscape:label="Layer 1"
     inkscape:groupmode="layer"
     id="layer1">
    <g
       id="g2348">
      <rect
         style="mix-blend-mode:normal;fill:#282828;fill-opacity:1;fill-rule:evenodd;stroke-width:0.32363;filter:url(#filter7754)"
         id="rect4015"
         width="58.095806"
         height="19.059961"
         x="32.011936"
         y="70.693108"
         ry="8.4710941"
         rx="7.6441851"
         transform="matrix(1,0,0,0.99515819,-9.850802,-51.462872)" />
      <path
         id="rect739"
         style="fill:url(#linearGradient3247);fill-opacity:1;fill-rule:evenodd;stroke-width:0.309997"
         d="m 22.842293,24.27781 c -0.436433,0.979554 -0.681095,2.067841 -0.681095,3.216858 v 1.943033 c 0,4.305936 3.409103,7.772136 7.643977,7.772136 h 42.807723 c 4.234875,0 7.643978,-3.4662 7.643978,-7.772136 v -1.943033 c 0,-1.149017 -0.244662,-2.237304 -0.681095,-3.216858 0.154549,0.622417 0.236678,1.275167 0.236678,1.948718 v 1.943034 c 0,4.305936 -3.357135,7.772652 -7.527189,7.772652 H 30.132804 c -4.170055,0 -7.527189,-3.466716 -7.527189,-7.772652 v -1.943034 c 0,-0.673551 0.08213,-1.326301 0.236678,-1.948718 z" />
      <path
         id="rect3989"
         style="fill:#f8eabf;fill-opacity:1;fill-rule:evenodd;stroke-width:0.309997"
         d="m 29.805176,18.076948 c -4.234874,0 -7.643978,3.46672 -7.643978,7.77265 v 1.94304 c 0,0.02202 0.0014,0.04365 0.0016,0.06563 0.0349,-4.27507 3.429382,-7.70651 7.642428,-7.70651 h 42.807723 c 4.213046,0 7.60753,3.43144 7.642427,7.70651 1.78e-4,-0.02198 0.0016,-0.04361 0.0016,-0.06563 v -1.94304 c 0,-4.30593 -3.409104,-7.77265 -7.643978,-7.77265 z" />
      <path
         id="path4065"
         style="fill:url(#linearGradient4067);fill-opacity:1;fill-rule:evenodd;stroke-width:0.309997"
         d="m 29.805176,18.076948 c -4.234874,0 -7.643978,3.46672 -7.643978,7.77265 v 1.94304 c 0,0.02202 0.0014,0.04365 0.0016,0.06563 0.0349,-4.27507 3.429382,-7.70651 7.642428,-7.70651 h 42.807723 c 4.213046,0 7.60753,3.43144 7.642427,7.70651 1.78e-4,-0.02198 0.0016,-0.04361 0.0016,-0.06563 v -1.94304 c 0,-4.30593 -3.409104,-7.77265 -7.643978,-7.77265 z" />
      <rect
         style="fill:url(#linearGradient4012);fill-opacity:1;fill-rule:evenodd;stroke-width:0.309997"
         id="rect4010"
         width="58.095806"
         height="17.488024"
         x="22.161135"
         y="18.894209"
         ry="7.7724552"
         rx="7.6441851" />
      <g
         aria-label="Back"
         transform="matrix(0.95463297,0,0,1.047523,1.5445395,-22.740681)"
         id="g950"
         style="font-weight:bold;font-size:11.547px;line-height:1.25;font-family:Arial;-inkscape-font-specification:'Arial Bold';letter-spacing:0.288675px;fill:#000000;fill-opacity:1;stroke-width:0.288675;filter:url(#filter2263)">
        <path
           d="m 38.268663,43.939116 h 3.303976 q 0.981044,0 1.460289,0.08457 0.484884,0.07894 0.862642,0.338292 0.383397,0.259356 0.637115,0.693496 0.253718,0.428502 0.253718,0.964129 0,0.580733 -0.315738,1.065617 -0.3101,0.484884 -0.845728,0.727326 0.755517,0.219889 1.161466,0.749878 0.405949,0.52999 0.405949,1.246039 0,0.563818 -0.264994,1.099446 -0.259357,0.529989 -0.71605,0.851365 -0.451054,0.315739 -1.11636,0.389035 -0.417225,0.0451 -2.012831,0.05638 h -2.813454 z m 1.668902,1.375717 v 1.911344 h 1.093808 q 0.975406,0 1.212209,-0.02819 0.428502,-0.05074 0.670944,-0.293186 0.24808,-0.24808 0.24808,-0.648391 0,-0.383396 -0.214251,-0.6202 -0.208612,-0.242442 -0.625838,-0.293186 -0.24808,-0.02819 -1.42646,-0.02819 z m 0,3.287061 v 2.210168 h 1.544863 q 0.902109,0 1.144551,-0.05074 0.37212,-0.06766 0.603286,-0.327015 0.236803,-0.264994 0.236803,-0.704773 0,-0.37212 -0.180422,-0.631476 -0.180421,-0.259357 -0.524351,-0.377759 -0.338291,-0.118401 -1.477204,-0.118401 z"
           id="path942"
           style="fill:#000000;fill-opacity:1" />
        <path
           d="m 48.063316,48.043713 -1.437737,-0.259356 q 0.242442,-0.86828 0.834452,-1.285506 0.592009,-0.417226 1.759113,-0.417226 1.059978,0 1.578691,0.253719 0.518713,0.24808 0.727326,0.637114 0.214251,0.383397 0.214251,1.415185 l -0.01692,1.849324 q 0,0.789345 0.0733,1.167104 0.07893,0.37212 0.287547,0.800622 h -1.567415 q -0.06202,-0.157869 -0.152231,-0.467969 -0.03947,-0.140955 -0.05638,-0.18606 -0.405949,0.394672 -0.86828,0.592009 -0.462331,0.197336 -0.986682,0.197336 -0.924662,0 -1.46029,-0.501798 -0.529989,-0.501798 -0.529989,-1.268591 0,-0.507437 0.242442,-0.90211 0.242442,-0.400311 0.676582,-0.608924 0.439778,-0.214251 1.262953,-0.37212 1.110722,-0.208612 1.539224,-0.389034 v -0.15787 q 0,-0.456692 -0.225527,-0.648391 -0.225527,-0.197336 -0.851366,-0.197336 -0.422864,0 -0.659667,0.169145 -0.236804,0.163508 -0.383397,0.580733 z m 2.119957,1.285506 q -0.304462,0.101488 -0.964129,0.242442 -0.659668,0.140955 -0.862642,0.276271 -0.3101,0.219889 -0.3101,0.55818 0,0.332653 0.24808,0.575095 0.24808,0.242442 0.631476,0.242442 0.428502,0 0.817537,-0.281909 0.287547,-0.214251 0.377758,-0.524351 0.06202,-0.202975 0.06202,-0.772431 z"
           id="path944"
           style="fill:#000000;fill-opacity:1" />
        <path
           d="m 58.810821,47.987332 -1.561777,0.281909 q -0.07893,-0.46797 -0.360843,-0.704773 -0.276271,-0.236804 -0.721688,-0.236804 -0.592009,0 -0.947215,0.411587 -0.349567,0.40595 -0.349567,1.364441 0,1.065617 0.355205,1.505395 0.360844,0.439778 0.96413,0.439778 0.451055,0 0.738602,-0.253718 0.287547,-0.259356 0.405949,-0.885195 l 1.556139,0.264995 q -0.242442,1.071255 -0.930301,1.618158 -0.687858,0.546904 -1.843686,0.546904 -1.313696,0 -2.097404,-0.828813 -0.778069,-0.828813 -0.778069,-2.29474 0,-1.482843 0.783707,-2.306018 0.783708,-0.828813 2.119957,-0.828813 1.093808,0 1.736561,0.473608 0.648391,0.467969 0.9303,1.432099 z"
           id="path946"
           style="fill:#000000;fill-opacity:1" />
        <path
           d="m 60.244048,52.204693 v -8.265577 h 1.584329 v 4.386507 l 1.854963,-2.108681 h 1.950811 l -2.04666,2.187615 2.193253,3.800136 H 64.072375 L 62.56698,49.515279 61.828377,50.28771 v 1.916983 z"
           id="path948"
           style="fill:#000000;fill-opacity:1" />
      </g>
      <g
         aria-label="Back"
         transform="matrix(0.95463297,0,0,1.047523,1.5445395,-23.26466)"
         id="text931"
         style="font-weight:bold;font-size:11.547px;line-height:1.25;font-family:Arial;-inkscape-font-specification:'Arial Bold';letter-spacing:0.288675px;fill:#fff599;fill-opacity:1;stroke-width:0.288675">
        <path
           d="m 38.268663,43.939116 h 3.303976 q 0.981044,0 1.460289,0.08457 0.484884,0.07894 0.862642,0.338292 0.383397,0.259356 0.637115,0.693496 0.253718,0.428502 0.253718,0.964129 0,0.580733 -0.315738,1.065617 -0.3101,0.484884 -0.845728,0.727326 0.755517,0.219889 1.161466,0.749878 0.405949,0.52999 0.405949,1.246039 0,0.563818 -0.264994,1.099446 -0.259357,0.529989 -0.71605,0.851365 -0.451054,0.315739 -1.11636,0.389035 -0.417225,0.0451 -2.012831,0.05638 h -2.813454 z m 1.668902,1.375717 v 1.911344 h 1.093808 q 0.975406,0 1.212209,-0.02819 0.428502,-0.05074 0.670944,-0.293186 0.24808,-0.24808 0.24808,-0.648391 0,-0.383396 -0.214251,-0.6202 -0.208612,-0.242442 -0.625838,-0.293186 -0.24808,-0.02819 -1.42646,-0.02819 z m 0,3.287061 v 2.210168 h 1.544863 q 0.902109,0 1.144551,-0.05074 0.37212,-0.06766 0.603286,-0.327015 0.236803,-0.264994 0.236803,-0.704773 0,-0.37212 -0.180422,-0.631476 -0.180421,-0.259357 -0.524351,-0.377759 -0.338291,-0.118401 -1.477204,-0.118401 z"
           id="path933"
           style="fill:#fff599;fill-opacity:1" />
        <path
           d="m 48.063316,48.043713 -1.437737,-0.259356 q 0.242442,-0.86828 0.834452,-1.285506 0.592009,-0.417226 1.759113,-0.417226 1.059978,0 1.578691,0.253719 0.518713,0.24808 0.727326,0.637114 0.214251,0.383397 0.214251,1.415185 l -0.01692,1.849324 q 0,0.789345 0.0733,1.167104 0.07893,0.37212 0.287547,0.800622 h -1.567415 q -0.06202,-0.157869 -0.152231,-0.467969 -0.03947,-0.140955 -0.05638,-0.18606 -0.405949,0.394672 -0.86828,0.592009 -0.462331,0.197336 -0.986682,0.197336 -0.924662,0 -1.46029,-0.501798 -0.529989,-0.501798 -0.529989,-1.268591 0,-0.507437 0.242442,-0.90211 0.242442,-0.400311 0.676582,-0.608924 0.439778,-0.214251 1.262953,-0.37212 1.110722,-0.208612 1.539224,-0.389034 v -0.15787 q 0,-0.456692 -0.225527,-0.648391 -0.225527,-0.197336 -0.851366,-0.197336 -0.422864,0 -0.659667,0.169145 -0.236804,0.163508 -0.383397,0.580733 z m 2.119957,1.285506 q -0.304462,0.101488 -0.964129,0.242442 -0.659668,0.140955 -0.862642,0.276271 -0.3101,0.219889 -0.3101,0.55818 0,0.332653 0.24808,0.575095 0.24808,0.242442 0.631476,0.242442 0.428502,0 0.817537,-0.281909 0.287547,-0.214251 0.377758,-0.524351 0.06202,-0.202975 0.06202,-0.772431 z"
           id="path935"
           style="fill:#fff599;fill-opacity:1" />
        <path
           d="m 58.810821,47.987332 -1.561777,0.281909 q -0.07893,-0.46797 -0.360843,-0.704773 -0.276271,-0.236804 -0.721688,-0.236804 -0.592009,0 -0.947215,0.411587 -0.349567,0.40595 -0.349567,1.364441 0,1.065617 0.355205,1.505395 0.360844,0.439778 0.96413,0.439778 0.451055,0 0.738602,-0.253718 0.287547,-0.259356 0.405949,-0.885195 l 1.556139,0.264995 q -0.242442,1.071255 -0.930301,1.618158 -0.687858,0.546904 -1.843686,0.546904 -1.313696,0 -2.097404,-0.828813 -0.778069,-0.828813 -0.778069,-2.29474 0,-1.482843 0.783707,-2.306018 0.783708,-0.828813 2.119957,-0.828813 1.093808,0 1.736561,0.473608 0.648391,0.467969 0.9303,1.432099 z"
           id="path937"
           style="fill:#fff599;fill-opacity:1" />
        <path
           d="m 60.244048,52.204693 v -8.265577 h 1.584329 v 4.386507 l 1.854963,-2.108681 h 1.950811 l -2.04666,2.187615 2.193253,3.800136 H 64.072375 L 62.56698,49.515279 61.828377,50.28771 v 1.916983 z"
           id="path939"
           style="fill:#fff599;fill-opacity:1" />
      </g>
    </g>
  </g>
</svg>
