<?xml version="1.0" encoding="UTF-8" standalone="no"?>
<!-- Created with Inkscape (http://www.inkscape.org/) -->

<svg
   width="210mm"
   height="297mm"
   viewBox="0 0 210 297"
   version="1.1"
   id="svg5"
   inkscape:version="1.2.1 (9c6d41e410, 2022-07-14)"
   sodipodi:docname="button-13(achievements).svg"
   xmlns:inkscape="http://www.inkscape.org/namespaces/inkscape"
   xmlns:sodipodi="http://sodipodi.sourceforge.net/DTD/sodipodi-0.dtd"
   xmlns:xlink="http://www.w3.org/1999/xlink"
   xmlns="http://www.w3.org/2000/svg"
   xmlns:svg="http://www.w3.org/2000/svg">
  <sodipodi:namedview
     id="namedview7"
     pagecolor="#ffffff"
     bordercolor="#666666"
     borderopacity="1.0"
     inkscape:showpageshadow="2"
     inkscape:pageopacity="0.0"
     inkscape:pagecheckerboard="0"
     inkscape:deskcolor="#d1d1d1"
     inkscape:document-units="mm"
     showgrid="false"
     inkscape:zoom="3.5705388"
     inkscape:cx="155.85883"
     inkscape:cy="198.84954"
     inkscape:window-width="2560"
     inkscape:window-height="1377"
     inkscape:window-x="1912"
     inkscape:window-y="-8"
     inkscape:window-maximized="1"
     inkscape:current-layer="layer1"
     showguides="true" />
  <defs
     id="defs2">
    <linearGradient
       inkscape:collect="always"
       id="linearGradient4073">
      <stop
         style="stop-color:#fffefc;stop-opacity:0;"
         offset="0"
         id="stop4069" />
      <stop
         style="stop-color:#ffffff;stop-opacity:1;"
         offset="0.46875495"
         id="stop4075" />
      <stop
         style="stop-color:#ffffff;stop-opacity:0;"
         offset="1"
         id="stop4071" />
    </linearGradient>
    <linearGradient
       inkscape:collect="always"
       id="linearGradient4023">
      <stop
         style="stop-color:#ffd88a;stop-opacity:1;"
         offset="0"
         id="stop4019" />
      <stop
         style="stop-color:#eb5d15;stop-opacity:1;"
         offset="1"
         id="stop4021" />
    </linearGradient>
    <linearGradient
       inkscape:collect="always"
       id="linearGradient3998">
      <stop
         style="stop-color:#ffdc9f;stop-opacity:1;"
         offset="0"
         id="stop3994" />
      <stop
         style="stop-color:#b13500;stop-opacity:1;"
         offset="1"
         id="stop3996" />
    </linearGradient>
    <linearGradient
       inkscape:collect="always"
       xlink:href="#linearGradient3998"
       id="linearGradient3247"
       x1="60.318863"
       y1="69.952095"
       x2="60.170658"
       y2="90.7006"
       gradientUnits="userSpaceOnUse"
       gradientTransform="translate(-9.850802,-52.00849)" />
    <linearGradient
       inkscape:collect="always"
       xlink:href="#linearGradient4023"
       id="linearGradient4012"
       gradientUnits="userSpaceOnUse"
       gradientTransform="translate(-9.8508441,-52.836324)"
       x1="59.270905"
       y1="72.886375"
       x2="59.227497"
       y2="87.975906" />
    <linearGradient
       inkscape:collect="always"
       xlink:href="#linearGradient4073"
       id="linearGradient4067"
       x1="33.115463"
       y1="74.195404"
       x2="39.612797"
       y2="74.090607"
       gradientUnits="userSpaceOnUse"
       gradientTransform="translate(-9.850802,-51.798899)" />
    <filter
       inkscape:collect="always"
       style="color-interpolation-filters:sRGB"
       id="filter7754"
       x="-0.030428979"
       y="-0.092749193"
       width="1.060858"
       height="1.1854984">
      <feGaussianBlur
         inkscape:collect="always"
         stdDeviation="0.73658167"
         id="feGaussianBlur7756" />
    </filter>
    <filter
       inkscape:collect="always"
       style="color-interpolation-filters:sRGB"
       id="filter945"
       x="-0.0012761606"
       y="-0.0042394486"
       width="1.0025523"
       height="1.0084789">
      <feGaussianBlur
         inkscape:collect="always"
         stdDeviation="0.030891492"
         id="feGaussianBlur947" />
    </filter>
    <filter
       inkscape:collect="always"
       style="color-interpolation-filters:sRGB"
       id="filter949"
       x="-0.0012761612"
       y="-0.007579711"
       width="1.0025523"
       height="1.0151594">
      <feGaussianBlur
         inkscape:collect="always"
         stdDeviation="0.030891492"
         id="feGaussianBlur951" />
    </filter>
    <filter
       inkscape:collect="always"
       style="color-interpolation-filters:sRGB"
       id="filter953"
       x="-0.0012761634"
       y="-0.0057330207"
       width="1.0025523"
       height="1.011466">
      <feGaussianBlur
         inkscape:collect="always"
         stdDeviation="0.030891492"
         id="feGaussianBlur955" />
    </filter>
    <filter
       inkscape:collect="always"
       style="color-interpolation-filters:sRGB"
       id="filter1706"
       x="-0.023119109"
       y="-0.19626417"
       width="1.0462382"
       height="1.3925283">
      <feGaussianBlur
         inkscape:collect="always"
         stdDeviation="0.5942717"
         id="feGaussianBlur1708" />
    </filter>
    <filter
       inkscape:collect="always"
       style="color-interpolation-filters:sRGB"
       id="filter1710"
       x="-0.00092476436"
       y="-0.0078505666"
       width="1.0018495"
       height="1.0157011">
      <feGaussianBlur
         inkscape:collect="always"
         stdDeviation="0.023770868"
         id="feGaussianBlur1712" />
    </filter>
  </defs>
  <g
     inkscape:label="Layer 1"
     inkscape:groupmode="layer"
     id="layer1">
    <g
       id="g1941"
       inkscape:export-filename=".\button-13(achievements).png"
       inkscape:export-xdpi="105.5"
       inkscape:export-ydpi="105.5">
      <rect
         style="mix-blend-mode:normal;fill:#282828;fill-opacity:1;fill-rule:evenodd;stroke-width:0.32363;filter:url(#filter7754)"
         id="rect4015"
         width="58.095806"
         height="19.059961"
         x="32.011936"
         y="70.693108"
         ry="8.4710941"
         rx="7.6441851"
         transform="matrix(1,0,0,0.99515819,-9.850802,-51.462872)" />
      <path
         id="rect739"
         style="fill:url(#linearGradient3247);fill-opacity:1;fill-rule:evenodd;stroke-width:0.309997;filter:url(#filter953)"
         d="m 22.842293,24.27781 c -0.436433,0.979554 -0.681095,2.067841 -0.681095,3.216858 v 1.943033 c 0,4.305936 3.409103,7.772136 7.643977,7.772136 h 42.807723 c 4.234875,0 7.643978,-3.4662 7.643978,-7.772136 v -1.943033 c 0,-1.149017 -0.244662,-2.237304 -0.681095,-3.216858 0.154549,0.622417 0.236678,1.275167 0.236678,1.948718 v 1.943034 c 0,4.305936 -3.357135,7.772652 -7.527189,7.772652 H 30.132804 c -4.170055,0 -7.527189,-3.466716 -7.527189,-7.772652 v -1.943034 c 0,-0.673551 0.08213,-1.326301 0.236678,-1.948718 z" />
      <path
         id="rect3989"
         style="fill:#f8eabf;fill-opacity:1;fill-rule:evenodd;stroke-width:0.309997"
         d="m 29.805176,18.076948 c -4.234874,0 -7.643978,3.46672 -7.643978,7.77265 v 1.94304 c 0,0.02202 0.0014,0.04365 0.0016,0.06563 0.0349,-4.27507 3.429382,-7.70651 7.642428,-7.70651 h 42.807723 c 4.213046,0 7.60753,3.43144 7.642427,7.70651 1.78e-4,-0.02198 0.0016,-0.04361 0.0016,-0.06563 v -1.94304 c 0,-4.30593 -3.409104,-7.77265 -7.643978,-7.77265 z" />
      <path
         id="path4065"
         style="fill:url(#linearGradient4067);fill-opacity:1;fill-rule:evenodd;stroke-width:0.309997;filter:url(#filter949)"
         d="m 29.805176,18.076948 c -4.234874,0 -7.643978,3.46672 -7.643978,7.77265 v 1.94304 c 0,0.02202 0.0014,0.04365 0.0016,0.06563 0.0349,-4.27507 3.429382,-7.70651 7.642428,-7.70651 h 42.807723 c 4.213046,0 7.60753,3.43144 7.642427,7.70651 1.78e-4,-0.02198 0.0016,-0.04361 0.0016,-0.06563 v -1.94304 c 0,-4.30593 -3.409104,-7.77265 -7.643978,-7.77265 z" />
      <rect
         style="fill:url(#linearGradient4012);fill-opacity:1;fill-rule:evenodd;stroke-width:0.309997;filter:url(#filter945)"
         id="rect4010"
         width="58.095806"
         height="17.488024"
         x="22.161135"
         y="18.894209"
         ry="7.7724552"
         rx="7.6441851" />
      <g
         id="g1738"
         transform="translate(1.0524157,22.008233)">
        <g
           aria-label="Achivements"
           transform="scale(0.81956672,1.2201569)"
           id="text928"
           style="font-weight:bold;font-size:9.98847px;line-height:1.25;font-family:Arial;-inkscape-font-specification:'Arial Bold';stroke-width:0.249713;filter:url(#filter1706)">
          <path
             d="M 37.527542,8.3383026 H 35.95709 L 35.33281,6.7142008 h -2.858029 l -0.590139,1.6241018 h -1.531435 l 2.784871,-7.1499498 h 1.526558 z M 34.869478,5.5095367 33.884287,2.8563493 32.918605,5.5095367 Z"
             id="path1038" />
          <path
             d="m 42.799777,4.69017 -1.35098,0.2438591 Q 41.380517,4.529223 41.136657,4.3243813 40.897676,4.1195396 40.512378,4.1195396 q -0.512104,0 -0.819367,0.3560343 -0.302385,0.3511572 -0.302385,1.1802783 0,0.9217875 0.307263,1.3022077 0.312139,0.3804203 0.833998,0.3804203 0.390174,0 0.638911,-0.2194733 0.248736,-0.2243504 0.351157,-0.7657176 l 1.346102,0.2292276 q -0.209719,0.9266647 -0.804735,1.3997514 -0.595016,0.4730867 -1.594839,0.4730867 -1.136383,0 -1.814311,-0.7169459 -0.673052,-0.7169458 -0.673052,-1.9850133 0,-1.282699 0.677929,-1.9947677 0.677928,-0.7169459 1.83382,-0.7169459 0.946174,0 1.502173,0.4096834 0.560876,0.4048062 0.804735,1.2388044 z"
             id="path1040" />
          <path
             d="m 45.204228,1.1883528 v 2.6288015 q 0.663297,-0.7754721 1.585084,-0.7754721 0.473087,0 0.853507,0.1755786 0.38042,0.1755786 0.57063,0.4487008 0.195088,0.2731223 0.263368,0.6047707 0.07316,0.3316484 0.07316,1.0290855 v 3.0384848 h -1.37049 V 5.6022031 q 0,-0.8144895 -0.07803,-1.0339627 -0.07803,-0.2194732 -0.278,-0.3462799 -0.195087,-0.131684 -0.492595,-0.131684 -0.341403,0 -0.609648,0.1658242 -0.268245,0.1658242 -0.395052,0.5023498 -0.121929,0.3316485 -0.121929,0.9851909 V 8.3383026 H 43.833739 V 1.1883528 Z"
             id="path1042" />
          <path
             d="M 49.939972,2.4564203 V 1.1883528 h 1.370488 v 1.2680675 z m 0,5.8818823 v -5.179568 h 1.370488 v 5.179568 z"
             id="path1044" />
          <path
             d="m 54.139225,8.3383026 -2.087434,-5.179568 h 1.438769 l 0.975437,2.643433 0.282876,0.8827701 q 0.112175,-0.3365256 0.141439,-0.4438236 0.06828,-0.2194732 0.146315,-0.4389465 l 0.985191,-2.643433 h 1.409506 l -2.058171,5.179568 z"
             id="path1046" />
          <path
             d="m 61.269666,6.6898149 1.365612,0.2292276 q -0.263368,0.7510861 -0.833999,1.1461379 -0.565753,0.3901746 -1.41926,0.3901746 -1.350979,0 -1.999645,-0.8827701 -0.512104,-0.7071914 -0.512104,-1.7850488 0,-1.2875762 0.673051,-2.0142765 0.673051,-0.7315774 1.702137,-0.7315774 1.155892,0 1.824066,0.7657177 0.668174,0.7608405 0.638911,2.3361705 h -3.433536 q 0.01463,0.6096478 0.331648,0.9510506 0.317017,0.3365256 0.790104,0.3365256 0.321894,0 0.541367,-0.1755785 0.219473,-0.1755786 0.331648,-0.5657532 z M 61.347701,5.304695 Q 61.33307,4.7096787 61.040439,4.4024162 60.747808,4.0902765 60.32837,4.0902765 q -0.448701,0 -0.741332,0.3267713 -0.292631,0.3267712 -0.287753,0.8876472 z"
             id="path1048" />
          <path
             d="m 63.722889,3.1587346 h 1.26319 v 0.7071915 q 0.677929,-0.8242439 1.614348,-0.8242439 0.497473,0 0.863261,0.2048417 0.365789,0.2048417 0.599894,0.6194022 0.341402,-0.4145605 0.736454,-0.6194022 0.395052,-0.2048417 0.843753,-0.2048417 0.57063,0 0.965682,0.2341048 0.395052,0.2292276 0.590139,0.6779284 0.141438,0.3316484 0.141438,1.0729802 v 3.311607 H 69.97056 V 5.3778527 q 0,-0.7705948 -0.141438,-0.9949452 -0.19021,-0.292631 -0.585262,-0.292631 -0.287754,0 -0.541367,0.1755786 -0.253614,0.1755786 -0.365789,0.5169814 -0.112175,0.3365256 -0.112175,1.068103 V 8.3383026 H 66.85404 V 5.4997823 q 0,-0.7559633 -0.07316,-0.9754365 -0.07316,-0.2194732 -0.229228,-0.3267713 -0.151193,-0.107298 -0.41456,-0.107298 -0.317017,0 -0.570631,0.1707014 -0.253613,0.1707014 -0.365789,0.4925955 -0.107298,0.321894 -0.107298,1.068103 v 2.5166262 h -1.370488 z"
             id="path1050" />
          <path
             d="m 75.706129,6.6898149 1.365611,0.2292276 q -0.263368,0.7510861 -0.833998,1.1461379 -0.565754,0.3901746 -1.41926,0.3901746 -1.35098,0 -1.999645,-0.8827701 -0.512105,-0.7071914 -0.512105,-1.7850488 0,-1.2875762 0.673052,-2.0142765 0.673051,-0.7315774 1.702136,-0.7315774 1.155893,0 1.824067,0.7657177 0.668174,0.7608405 0.638911,2.3361705 h -3.433537 q 0.01463,0.6096478 0.331648,0.9510506 0.317017,0.3365256 0.790104,0.3365256 0.321894,0 0.541367,-0.1755785 0.219474,-0.1755786 0.331649,-0.5657532 z M 75.784164,5.304695 Q 75.769532,4.7096787 75.476901,4.4024162 75.18427,4.0902765 74.764833,4.0902765 q -0.448701,0 -0.741332,0.3267713 Q 73.73087,4.743819 73.735747,5.304695 Z"
             id="path1052" />
          <path
             d="m 82.973131,8.3383026 h -1.370489 v -2.643433 q 0,-0.8388754 -0.08779,-1.0827345 -0.08779,-0.2487364 -0.287754,-0.3852975 -0.195087,-0.1365611 -0.473086,-0.1365611 -0.356035,0 -0.638911,0.1950873 -0.282877,0.1950873 -0.390175,0.5169814 -0.102421,0.321894 -0.102421,1.1900326 v 2.3459248 h -1.370488 v -5.179568 h 1.272945 v 0.7608405 q 0.677928,-0.8778929 1.707014,-0.8778929 0.453578,0 0.829121,0.1658243 0.375543,0.160947 0.565753,0.4145605 0.195087,0.2536135 0.268245,0.5755075 0.07803,0.3218941 0.07803,0.9217876 z"
             id="path1054" />
          <path
             d="m 86.738317,3.1587346 v 1.0924889 h -0.936419 v 2.0874342 q 0,0.6340338 0.02439,0.7413318 0.02926,0.1024208 0.121929,0.1707014 0.09754,0.06828 0.234105,0.06828 0.19021,0 0.551122,-0.1316839 l 0.117052,1.0632258 q -0.477964,0.2048417 -1.082735,0.2048417 -0.370665,0 -0.668174,-0.1219296 -0.297508,-0.1268067 -0.438946,-0.321894 -0.136561,-0.1999645 -0.19021,-0.5364901 -0.0439,-0.238982 -0.0439,-0.9656822 V 4.2512235 H 83.797376 V 3.1587346 h 0.629156 V 2.1296491 l 1.375366,-0.799858 v 1.8289435 z"
             id="path1056" />
          <path
             d="M 87.206525,6.8605163 88.58189,6.6507974 q 0.08779,0.399929 0.356034,0.6096478 0.268245,0.2048417 0.751086,0.2048417 0.531613,0 0.799858,-0.1950873 0.180456,-0.1365611 0.180456,-0.3657887 0,-0.1560698 -0.09754,-0.2584907 Q 90.46936,6.5483766 90.113325,6.4654645 88.455083,6.0996758 88.01126,5.7972904 87.396735,5.3778527 87.396735,4.6316438 q 0,-0.6730512 0.531613,-1.1315064 0.531612,-0.4584552 1.648487,-0.4584552 1.063226,0 1.580207,0.34628 0.516982,0.34628 0.712069,1.0242084 l -1.292453,0.2389819 q -0.08291,-0.3023853 -0.317017,-0.4633323 -0.229228,-0.1609471 -0.65842,-0.1609471 -0.541367,0 -0.775472,0.1511927 -0.15607,0.107298 -0.15607,0.2779994 0,0.1463155 0.136561,0.2487363 0.185333,0.1365611 1.277822,0.3852975 1.097366,0.2487363 1.531436,0.6096478 0.429192,0.3657887 0.429192,1.0193312 0,0.7120686 -0.595017,1.2241728 -0.595016,0.5121042 -1.760663,0.5121042 -1.058348,0 -1.67775,-0.4291921 -0.614525,-0.4291921 -0.804735,-1.1656466 z"
             id="path1058" />
        </g>
        <g
           aria-label="Achivements"
           transform="matrix(0.81956672,0,0,1.2201569,0,-0.81511974)"
           id="g1083"
           style="font-weight:bold;font-size:9.98847px;line-height:1.25;font-family:Arial;-inkscape-font-specification:'Arial Bold';fill:#fff599;fill-opacity:1;stroke-width:0.249713;filter:url(#filter1710)">
          <path
             d="M 37.527542,8.3383026 H 35.95709 L 35.33281,6.7142008 h -2.858029 l -0.590139,1.6241018 h -1.531435 l 2.784871,-7.1499498 h 1.526558 z M 34.869478,5.5095367 33.884287,2.8563493 32.918605,5.5095367 Z"
             id="path1061"
             style="fill:#fff599;fill-opacity:1" />
          <path
             d="m 42.799777,4.69017 -1.35098,0.2438591 Q 41.380517,4.529223 41.136657,4.3243813 40.897676,4.1195396 40.512378,4.1195396 q -0.512104,0 -0.819367,0.3560343 -0.302385,0.3511572 -0.302385,1.1802783 0,0.9217875 0.307263,1.3022077 0.312139,0.3804203 0.833998,0.3804203 0.390174,0 0.638911,-0.2194733 0.248736,-0.2243504 0.351157,-0.7657176 l 1.346102,0.2292276 q -0.209719,0.9266647 -0.804735,1.3997514 -0.595016,0.4730867 -1.594839,0.4730867 -1.136383,0 -1.814311,-0.7169459 -0.673052,-0.7169458 -0.673052,-1.9850133 0,-1.282699 0.677929,-1.9947677 0.677928,-0.7169459 1.83382,-0.7169459 0.946174,0 1.502173,0.4096834 0.560876,0.4048062 0.804735,1.2388044 z"
             id="path1063"
             style="fill:#fff599;fill-opacity:1" />
          <path
             d="m 45.204228,1.1883528 v 2.6288015 q 0.663297,-0.7754721 1.585084,-0.7754721 0.473087,0 0.853507,0.1755786 0.38042,0.1755786 0.57063,0.4487008 0.195088,0.2731223 0.263368,0.6047707 0.07316,0.3316484 0.07316,1.0290855 v 3.0384848 h -1.37049 V 5.6022031 q 0,-0.8144895 -0.07803,-1.0339627 -0.07803,-0.2194732 -0.278,-0.3462799 -0.195087,-0.131684 -0.492595,-0.131684 -0.341403,0 -0.609648,0.1658242 -0.268245,0.1658242 -0.395052,0.5023498 -0.121929,0.3316485 -0.121929,0.9851909 V 8.3383026 H 43.833739 V 1.1883528 Z"
             id="path1065"
             style="fill:#fff599;fill-opacity:1" />
          <path
             d="M 49.939972,2.4564203 V 1.1883528 h 1.370488 v 1.2680675 z m 0,5.8818823 v -5.179568 h 1.370488 v 5.179568 z"
             id="path1067"
             style="fill:#fff599;fill-opacity:1" />
          <path
             d="m 54.139225,8.3383026 -2.087434,-5.179568 h 1.438769 l 0.975437,2.643433 0.282876,0.8827701 q 0.112175,-0.3365256 0.141439,-0.4438236 0.06828,-0.2194732 0.146315,-0.4389465 l 0.985191,-2.643433 h 1.409506 l -2.058171,5.179568 z"
             id="path1069"
             style="fill:#fff599;fill-opacity:1" />
          <path
             d="m 61.269666,6.6898149 1.365612,0.2292276 q -0.263368,0.7510861 -0.833999,1.1461379 -0.565753,0.3901746 -1.41926,0.3901746 -1.350979,0 -1.999645,-0.8827701 -0.512104,-0.7071914 -0.512104,-1.7850488 0,-1.2875762 0.673051,-2.0142765 0.673051,-0.7315774 1.702137,-0.7315774 1.155892,0 1.824066,0.7657177 0.668174,0.7608405 0.638911,2.3361705 h -3.433536 q 0.01463,0.6096478 0.331648,0.9510506 0.317017,0.3365256 0.790104,0.3365256 0.321894,0 0.541367,-0.1755785 0.219473,-0.1755786 0.331648,-0.5657532 z M 61.347701,5.304695 Q 61.33307,4.7096787 61.040439,4.4024162 60.747808,4.0902765 60.32837,4.0902765 q -0.448701,0 -0.741332,0.3267713 -0.292631,0.3267712 -0.287753,0.8876472 z"
             id="path1071"
             style="fill:#fff599;fill-opacity:1" />
          <path
             d="m 63.722889,3.1587346 h 1.26319 v 0.7071915 q 0.677929,-0.8242439 1.614348,-0.8242439 0.497473,0 0.863261,0.2048417 0.365789,0.2048417 0.599894,0.6194022 0.341402,-0.4145605 0.736454,-0.6194022 0.395052,-0.2048417 0.843753,-0.2048417 0.57063,0 0.965682,0.2341048 0.395052,0.2292276 0.590139,0.6779284 0.141438,0.3316484 0.141438,1.0729802 v 3.311607 H 69.97056 V 5.3778527 q 0,-0.7705948 -0.141438,-0.9949452 -0.19021,-0.292631 -0.585262,-0.292631 -0.287754,0 -0.541367,0.1755786 -0.253614,0.1755786 -0.365789,0.5169814 -0.112175,0.3365256 -0.112175,1.068103 V 8.3383026 H 66.85404 V 5.4997823 q 0,-0.7559633 -0.07316,-0.9754365 -0.07316,-0.2194732 -0.229228,-0.3267713 -0.151193,-0.107298 -0.41456,-0.107298 -0.317017,0 -0.570631,0.1707014 -0.253613,0.1707014 -0.365789,0.4925955 -0.107298,0.321894 -0.107298,1.068103 v 2.5166262 h -1.370488 z"
             id="path1073"
             style="fill:#fff599;fill-opacity:1" />
          <path
             d="m 75.706129,6.6898149 1.365611,0.2292276 q -0.263368,0.7510861 -0.833998,1.1461379 -0.565754,0.3901746 -1.41926,0.3901746 -1.35098,0 -1.999645,-0.8827701 -0.512105,-0.7071914 -0.512105,-1.7850488 0,-1.2875762 0.673052,-2.0142765 0.673051,-0.7315774 1.702136,-0.7315774 1.155893,0 1.824067,0.7657177 0.668174,0.7608405 0.638911,2.3361705 h -3.433537 q 0.01463,0.6096478 0.331648,0.9510506 0.317017,0.3365256 0.790104,0.3365256 0.321894,0 0.541367,-0.1755785 0.219474,-0.1755786 0.331649,-0.5657532 z M 75.784164,5.304695 Q 75.769532,4.7096787 75.476901,4.4024162 75.18427,4.0902765 74.764833,4.0902765 q -0.448701,0 -0.741332,0.3267713 Q 73.73087,4.743819 73.735747,5.304695 Z"
             id="path1075"
             style="fill:#fff599;fill-opacity:1" />
          <path
             d="m 82.973131,8.3383026 h -1.370489 v -2.643433 q 0,-0.8388754 -0.08779,-1.0827345 -0.08779,-0.2487364 -0.287754,-0.3852975 -0.195087,-0.1365611 -0.473086,-0.1365611 -0.356035,0 -0.638911,0.1950873 -0.282877,0.1950873 -0.390175,0.5169814 -0.102421,0.321894 -0.102421,1.1900326 v 2.3459248 h -1.370488 v -5.179568 h 1.272945 v 0.7608405 q 0.677928,-0.8778929 1.707014,-0.8778929 0.453578,0 0.829121,0.1658243 0.375543,0.160947 0.565753,0.4145605 0.195087,0.2536135 0.268245,0.5755075 0.07803,0.3218941 0.07803,0.9217876 z"
             id="path1077"
             style="fill:#fff599;fill-opacity:1" />
          <path
             d="m 86.738317,3.1587346 v 1.0924889 h -0.936419 v 2.0874342 q 0,0.6340338 0.02439,0.7413318 0.02926,0.1024208 0.121929,0.1707014 0.09754,0.06828 0.234105,0.06828 0.19021,0 0.551122,-0.1316839 l 0.117052,1.0632258 q -0.477964,0.2048417 -1.082735,0.2048417 -0.370665,0 -0.668174,-0.1219296 -0.297508,-0.1268067 -0.438946,-0.321894 -0.136561,-0.1999645 -0.19021,-0.5364901 -0.0439,-0.238982 -0.0439,-0.9656822 V 4.2512235 H 83.797376 V 3.1587346 h 0.629156 V 2.1296491 l 1.375366,-0.799858 v 1.8289435 z"
             id="path1079"
             style="fill:#fff599;fill-opacity:1" />
          <path
             d="M 87.206525,6.8605163 88.58189,6.6507974 q 0.08779,0.399929 0.356034,0.6096478 0.268245,0.2048417 0.751086,0.2048417 0.531613,0 0.799858,-0.1950873 0.180456,-0.1365611 0.180456,-0.3657887 0,-0.1560698 -0.09754,-0.2584907 Q 90.46936,6.5483766 90.113325,6.4654645 88.455083,6.0996758 88.01126,5.7972904 87.396735,5.3778527 87.396735,4.6316438 q 0,-0.6730512 0.531613,-1.1315064 0.531612,-0.4584552 1.648487,-0.4584552 1.063226,0 1.580207,0.34628 0.516982,0.34628 0.712069,1.0242084 l -1.292453,0.2389819 q -0.08291,-0.3023853 -0.317017,-0.4633323 -0.229228,-0.1609471 -0.65842,-0.1609471 -0.541367,0 -0.775472,0.1511927 -0.15607,0.107298 -0.15607,0.2779994 0,0.1463155 0.136561,0.2487363 0.185333,0.1365611 1.277822,0.3852975 1.097366,0.2487363 1.531436,0.6096478 0.429192,0.3657887 0.429192,1.0193312 0,0.7120686 -0.595017,1.2241728 -0.595016,0.5121042 -1.760663,0.5121042 -1.058348,0 -1.67775,-0.4291921 -0.614525,-0.4291921 -0.804735,-1.1656466 z"
             id="path1081"
             style="fill:#fff599;fill-opacity:1" />
        </g>
      </g>
    </g>
  </g>
</svg>
