<?xml version="1.0" encoding="UTF-8" standalone="no"?>
<!-- Created with Inkscape (http://www.inkscape.org/) -->

<svg
   width="210mm"
   height="297mm"
   viewBox="0 0 210 297"
   version="1.1"
   id="svg5"
   inkscape:version="1.2 (dc2aedaf03, 2022-05-15)"
   sodipodi:docname="button-10 (star).svg"
   xmlns:inkscape="http://www.inkscape.org/namespaces/inkscape"
   xmlns:sodipodi="http://sodipodi.sourceforge.net/DTD/sodipodi-0.dtd"
   xmlns:xlink="http://www.w3.org/1999/xlink"
   xmlns="http://www.w3.org/2000/svg"
   xmlns:svg="http://www.w3.org/2000/svg">
  <sodipodi:namedview
     id="namedview7"
     pagecolor="#ffffff"
     bordercolor="#666666"
     borderopacity="1.0"
     inkscape:showpageshadow="2"
     inkscape:pageopacity="0.0"
     inkscape:pagecheckerboard="0"
     inkscape:deskcolor="#d1d1d1"
     inkscape:document-units="mm"
     showgrid="false"
     inkscape:zoom="0.84096521"
     inkscape:cx="395.37902"
     inkscape:cy="371.59682"
     inkscape:window-width="1833"
     inkscape:window-height="1042"
     inkscape:window-x="2053"
     inkscape:window-y="106"
     inkscape:window-maximized="0"
     inkscape:current-layer="layer1" />
  <defs
     id="defs2">
    <linearGradient
       inkscape:collect="always"
       id="linearGradient1023">
      <stop
         style="stop-color:#ff3f00;stop-opacity:1;"
         offset="0"
         id="stop1017" />
      <stop
         style="stop-color:#eb2f02;stop-opacity:1;"
         offset="0.56260598"
         id="stop1019" />
      <stop
         style="stop-color:#900406;stop-opacity:1;"
         offset="1"
         id="stop1021" />
    </linearGradient>
    <linearGradient
       inkscape:collect="always"
       id="linearGradient6843">
      <stop
         style="stop-color:#f2f2f1;stop-opacity:0.92063493;"
         offset="0"
         id="stop6839" />
      <stop
         style="stop-color:#c84325;stop-opacity:0.28174606;"
         offset="1"
         id="stop6841" />
    </linearGradient>
    <radialGradient
       inkscape:collect="always"
       xlink:href="#linearGradient1023"
       id="radialGradient928"
       cx="88.519066"
       cy="79.395126"
       fx="88.519066"
       fy="79.395126"
       r="30"
       gradientUnits="userSpaceOnUse"
       gradientTransform="translate(-7.2459961e-6,0.11123449)" />
    <filter
       inkscape:collect="always"
       style="color-interpolation-filters:sRGB"
       id="filter6040"
       x="-0.017478646"
       y="-0.033706353"
       width="1.0349573"
       height="1.0674127">
      <feGaussianBlur
         inkscape:collect="always"
         stdDeviation="0.4369658"
         id="feGaussianBlur6042" />
    </filter>
    <linearGradient
       inkscape:collect="always"
       xlink:href="#linearGradient6843"
       id="linearGradient6845"
       x1="88.519066"
       y1="39.956566"
       x2="88.519066"
       y2="66.384529"
       gradientUnits="userSpaceOnUse" />
    <clipPath
       clipPathUnits="userSpaceOnUse"
       id="clipPath13911">
      <path
         sodipodi:type="star"
         style="fill:url(#linearGradient13915);fill-opacity:1;stroke-width:1.79;stroke-linecap:round;stroke-linejoin:round;paint-order:stroke fill markers"
         id="path13913"
         inkscape:flatsided="false"
         sodipodi:sides="3"
         sodipodi:cx="20.467146"
         sodipodi:cy="20.022207"
         sodipodi:r1="18.688719"
         sodipodi:r2="11.942091"
         sodipodi:arg1="0.0119042"
         sodipodi:arg2="1.0591018"
         inkscape:rounded="0.2"
         inkscape:randomized="0"
         inkscape:transform-center-x="-3.6777399"
         inkscape:transform-center-y="-0.097973839"
         transform="translate(64.374427,50.055521)"
         d="m 39.154541,20.244676 c -0.03903,3.278178 -9.981387,8.58474 -12.839885,10.190032 -2.858499,1.605291 -12.564399,7.33291 -15.383871,5.660023 C 8.1113122,34.421845 8.4868752,23.158227 8.5259011,19.880049 8.564927,16.601871 8.457614,5.3325057 11.316112,3.7272143 14.174611,2.1219228 23.741408,8.0789785 26.560881,9.751865 c 2.819472,1.672886 12.632686,7.214633 12.59366,10.492811 z" />
    </clipPath>
    <clipPath
       clipPathUnits="userSpaceOnUse"
       id="clipPath5591">
      <path
         sodipodi:type="star"
         style="fill:#ffb4fe;stroke-width:4.69199;stroke-linecap:round;stroke-linejoin:round;paint-order:markers stroke fill"
         id="path5593"
         inkscape:flatsided="false"
         sodipodi:sides="5"
         sodipodi:cx="28.031092"
         sodipodi:cy="9.7886343"
         sodipodi:r1="13.086018"
         sodipodi:r2="7.8516107"
         sodipodi:arg1="-0.31099831"
         sodipodi:arg2="0.31732025"
         inkscape:rounded="0.15"
         inkscape:randomized="0"
         d="m 40.489354,5.7841924 c 0.374721,1.1657993 -4.61656,5.2909076 -4.998644,6.4543146 -0.382083,1.163407 1.191593,7.444566 0.198647,8.161198 -0.992946,0.716633 -6.458548,-2.755629 -7.683084,-2.759499 -1.224536,-0.0039 -6.71198,3.433769 -7.700375,2.710873 -0.988396,-0.722896 0.624957,-6.99398 0.250236,-8.15978 -0.374721,-1.165799 -5.339824,-5.3223791 -4.95774,-6.4857861 0.382084,-1.163407 6.844793,-1.5668886 7.837739,-2.2835214 0.992945,-0.7166329 3.411787,-6.7231802 4.636323,-6.7193094 1.224536,0.00387 3.605357,6.0255898 4.593752,6.7484856 0.988396,0.7228958 7.448425,1.1672255 7.823146,2.3330247 z"
         inkscape:transform-center-x="-0.69524421"
         inkscape:transform-center-y="-4.0319031"
         transform="matrix(1.3941093,0,0,1.3941093,31.331228,195.40919)" />
    </clipPath>
    <radialGradient
       inkscape:collect="always"
       xlink:href="#linearGradient926"
       id="radialGradient306"
       gradientUnits="userSpaceOnUse"
       cx="88.519066"
       cy="79.395126"
       fx="88.519066"
       fy="79.395126"
       r="30" />
    <linearGradient
       inkscape:collect="always"
       id="linearGradient926">
      <stop
         style="stop-color:#e1f000;stop-opacity:1;"
         offset="0"
         id="stop922" />
      <stop
         style="stop-color:#95ef03;stop-opacity:1;"
         offset="0.56260598"
         id="stop1054" />
      <stop
         style="stop-color:#3ac600;stop-opacity:1;"
         offset="1"
         id="stop924" />
    </linearGradient>
    <filter
       inkscape:collect="always"
       style="color-interpolation-filters:sRGB"
       id="filter6040-6"
       x="-0.017478646"
       y="-0.033706353"
       width="1.0349573"
       height="1.0674127">
      <feGaussianBlur
         inkscape:collect="always"
         stdDeviation="0.4369658"
         id="feGaussianBlur6042-8" />
    </filter>
    <linearGradient
       inkscape:collect="always"
       xlink:href="#linearGradient6843-1"
       id="linearGradient6845-7"
       x1="88.519066"
       y1="39.956566"
       x2="88.519066"
       y2="66.384529"
       gradientUnits="userSpaceOnUse" />
    <linearGradient
       inkscape:collect="always"
       id="linearGradient6843-1">
      <stop
         style="stop-color:#f2f2f1;stop-opacity:0.92063493;"
         offset="0"
         id="stop6839-6" />
      <stop
         style="stop-color:#94c212;stop-opacity:0.28174603;"
         offset="1"
         id="stop6841-3" />
    </linearGradient>
    <linearGradient
       inkscape:collect="always"
       xlink:href="#linearGradient8326-0"
       id="linearGradient4607"
       x1="28.072456"
       y1="-3.297318"
       x2="27.51157"
       y2="20.497118"
       gradientUnits="userSpaceOnUse" />
    <linearGradient
       inkscape:collect="always"
       id="linearGradient8326-0">
      <stop
         style="stop-color:#9c0a15;stop-opacity:1;"
         offset="0"
         id="stop8322-5" />
      <stop
         style="stop-color:#f96303;stop-opacity:1;"
         offset="1"
         id="stop8324-6" />
    </linearGradient>
    <clipPath
       clipPathUnits="userSpaceOnUse"
       id="clipPath5591-5">
      <path
         sodipodi:type="star"
         style="fill:#ffb4fe;stroke-width:4.69199;stroke-linecap:round;stroke-linejoin:round;paint-order:markers stroke fill"
         id="path5593-5"
         inkscape:flatsided="false"
         sodipodi:sides="5"
         sodipodi:cx="28.031092"
         sodipodi:cy="9.7886343"
         sodipodi:r1="13.086018"
         sodipodi:r2="7.8516107"
         sodipodi:arg1="-0.31099831"
         sodipodi:arg2="0.31732025"
         inkscape:rounded="0.15"
         inkscape:randomized="0"
         d="m 40.489354,5.7841924 c 0.374721,1.1657993 -4.61656,5.2909076 -4.998644,6.4543146 -0.382083,1.163407 1.191593,7.444566 0.198647,8.161198 -0.992946,0.716633 -6.458548,-2.755629 -7.683084,-2.759499 -1.224536,-0.0039 -6.71198,3.433769 -7.700375,2.710873 -0.988396,-0.722896 0.624957,-6.99398 0.250236,-8.15978 -0.374721,-1.165799 -5.339824,-5.3223791 -4.95774,-6.4857861 0.382084,-1.163407 6.844793,-1.5668886 7.837739,-2.2835214 0.992945,-0.7166329 3.411787,-6.7231802 4.636323,-6.7193094 1.224536,0.00387 3.605357,6.0255898 4.593752,6.7484856 0.988396,0.7228958 7.448425,1.1672255 7.823146,2.3330247 z"
         inkscape:transform-center-x="-0.69524421"
         inkscape:transform-center-y="-4.0319031"
         transform="matrix(1.3941093,0,0,1.3941093,31.331228,195.40919)" />
    </clipPath>
    <filter
       inkscape:collect="always"
       style="color-interpolation-filters:sRGB"
       id="filter5579"
       x="-0.062066784"
       y="-0.085314638"
       width="1.1241336"
       height="1.1706293">
      <feGaussianBlur
         inkscape:collect="always"
         stdDeviation="2.3013159"
         id="feGaussianBlur5581" />
    </filter>
  </defs>
  <g
     inkscape:label="Layer 1"
     inkscape:groupmode="layer"
     id="layer1">
    <g
       id="g344"
       transform="translate(67.088921,195.3133)">
      <circle
         style="fill:url(#radialGradient306);fill-opacity:1;stroke-width:1.89444;stroke-linecap:round;stroke-linejoin:round;paint-order:stroke fill markers"
         id="path184"
         cx="88.519066"
         cy="69.956566"
         r="30" />
      <path
         id="circle5471-7"
         style="fill:#499402;fill-opacity:1;stroke-width:1.89444;stroke-linecap:round;stroke-linejoin:round;paint-order:stroke fill markers"
         d="M 118.49605,70.573345 A 30,30 0 0 1 88.519066,99.956566 30,30 0 0 1 58.551903,70.821395 a 30,30 0 0 0 -0.03256,0.86558 30,30 0 0 0 29.999719,29.999725 30,30 0 0 0 30.000228,-29.999725 30,30 0 0 0 -0.0233,-1.11363 z" />
      <path
         id="path6038-7"
         style="fill:#b5b5b5;fill-opacity:1;stroke-width:1.89444;stroke-linecap:round;stroke-linejoin:round;paint-order:stroke fill markers;filter:url(#filter6040-6)"
         d="m 118.49605,73.24734 a 30,30 0 0 1 -29.976988,29.38322 30,30 0 0 1 -29.967163,-29.13517 30,30 0 0 0 -0.03256,0.86558 30,30 0 0 0 29.999719,29.99973 30,30 0 0 0 30.000232,-29.99973 30,30 0 0 0 -0.0233,-1.11363 z" />
      <ellipse
         style="fill:url(#linearGradient6845-7);fill-opacity:1;stroke-width:1.76588;stroke-linecap:round;stroke-linejoin:round;paint-order:stroke fill markers"
         id="path6837-1"
         cx="88.519066"
         cy="53.56382"
         rx="19.191736"
         ry="12.820709" />
      <ellipse
         style="fill:#fffec0;fill-opacity:0.518293;stroke-width:2.5676;stroke-linecap:round;stroke-linejoin:round;paint-order:stroke fill markers"
         id="path6867-4"
         cx="109.79839"
         cy="-18.95632"
         rx="4.9850764"
         ry="3.4828677"
         transform="matrix(0.81045473,0.58580127,-0.62434409,0.78114944,0,0)" />
      <ellipse
         style="fill:#fffec0;fill-opacity:0.457317;stroke-width:1.48927;stroke-linecap:round;stroke-linejoin:round;paint-order:stroke fill markers"
         id="ellipse10195-5"
         cx="100.77843"
         cy="-8.3202229"
         rx="2.9800761"
         ry="1.9600739"
         transform="matrix(0.86766784,0.49714437,-0.71001711,0.70418443,0,0)" />
    </g>
    <g
       id="g3816">
      <g
         id="g1917">
        <circle
           style="fill:url(#radialGradient928);fill-opacity:1;stroke:none;stroke-width:1.89444;stroke-linecap:round;stroke-linejoin:round;paint-order:stroke fill markers"
           id="circle5469"
           cx="88.519066"
           cy="70.067802"
           r="30" />
        <path
           id="circle5471"
           style="fill:#861604;fill-opacity:1;stroke-width:1.89444;stroke-linecap:round;stroke-linejoin:round;paint-order:stroke fill markers"
           d="M 118.49605,70.573345 A 30,30 0 0 1 88.519066,99.956566 30,30 0 0 1 58.551903,70.821395 a 30,30 0 0 0 -0.03256,0.86558 30,30 0 0 0 29.999719,29.999725 30,30 0 0 0 30.000228,-29.999725 30,30 0 0 0 -0.0233,-1.11363 z" />
        <path
           id="path6038"
           style="fill:#b5b5b5;fill-opacity:1;stroke-width:1.89444;stroke-linecap:round;stroke-linejoin:round;paint-order:stroke fill markers;filter:url(#filter6040)"
           d="m 118.49605,73.24734 a 30,30 0 0 1 -29.976988,29.38322 30,30 0 0 1 -29.967163,-29.13517 30,30 0 0 0 -0.03256,0.86558 30,30 0 0 0 29.999719,29.99973 30,30 0 0 0 30.000232,-29.99973 30,30 0 0 0 -0.0233,-1.11363 z" />
        <ellipse
           style="fill:url(#linearGradient6845);fill-opacity:1;stroke-width:1.76588;stroke-linecap:round;stroke-linejoin:round;paint-order:stroke fill markers"
           id="path6837"
           cx="88.519066"
           cy="53.56382"
           rx="19.191736"
           ry="12.820709" />
        <ellipse
           style="fill:#ffd0c0;fill-opacity:0.518293;stroke-width:2.5676;stroke-linecap:round;stroke-linejoin:round;paint-order:stroke fill markers"
           id="path6867"
           cx="109.79839"
           cy="-18.95632"
           rx="4.9850764"
           ry="3.4828677"
           transform="matrix(0.81045473,0.58580127,-0.62434409,0.78114944,0,0)" />
        <ellipse
           style="fill:#ffe0c0;fill-opacity:0.457317;stroke-width:1.48927;stroke-linecap:round;stroke-linejoin:round;paint-order:stroke fill markers"
           id="ellipse10195"
           cx="100.77843"
           cy="-8.3202229"
           rx="2.9800761"
           ry="1.9600739"
           transform="matrix(0.86766784,0.49714437,-0.71001711,0.70418443,0,0)" />
      </g>
      <path
         sodipodi:type="star"
         style="fill:#fba86d;fill-opacity:1;stroke-width:4.69199;stroke-linecap:round;stroke-linejoin:round;paint-order:markers stroke fill"
         id="path4609"
         inkscape:flatsided="false"
         sodipodi:sides="5"
         sodipodi:cx="28.031092"
         sodipodi:cy="9.7886343"
         sodipodi:r1="13.086018"
         sodipodi:r2="7.8516107"
         sodipodi:arg1="-0.31099831"
         sodipodi:arg2="0.31732025"
         inkscape:rounded="0.15"
         inkscape:randomized="0"
         d="m 40.489354,5.7841924 c 0.374721,1.1657993 -4.61656,5.2909076 -4.998644,6.4543146 -0.382083,1.163407 1.191593,7.444566 0.198647,8.161198 -0.992946,0.716633 -6.458548,-2.755629 -7.683084,-2.759499 -1.224536,-0.0039 -6.71198,3.433769 -7.700375,2.710873 -0.988396,-0.722896 0.624957,-6.99398 0.250236,-8.15978 -0.374721,-1.165799 -5.339824,-5.3223791 -4.95774,-6.4857861 0.382084,-1.163407 6.844793,-1.5668886 7.837739,-2.2835214 0.992945,-0.7166329 3.411787,-6.7231802 4.636323,-6.7193094 1.224536,0.00387 3.605357,6.0255898 4.593752,6.7484856 0.988396,0.7228958 7.448425,1.1672255 7.823146,2.3330247 z"
         inkscape:transform-center-x="-0.69524421"
         inkscape:transform-center-y="-4.0319031"
         transform="matrix(1.3941093,0,0,1.3941093,49.423455,59.190943)" />
      <path
         sodipodi:type="star"
         style="fill:url(#linearGradient4607);fill-opacity:1;stroke-width:4.69199;stroke-linecap:round;stroke-linejoin:round;paint-order:markers stroke fill"
         id="path935"
         inkscape:flatsided="false"
         sodipodi:sides="5"
         sodipodi:cx="28.031092"
         sodipodi:cy="9.7886343"
         sodipodi:r1="13.086018"
         sodipodi:r2="7.8516107"
         sodipodi:arg1="-0.31099831"
         sodipodi:arg2="0.31732025"
         inkscape:rounded="0.15"
         inkscape:randomized="0"
         d="m 40.489354,5.7841924 c 0.374721,1.1657993 -4.61656,5.2909076 -4.998644,6.4543146 -0.382083,1.163407 1.191593,7.444566 0.198647,8.161198 -0.992946,0.716633 -6.458548,-2.755629 -7.683084,-2.759499 -1.224536,-0.0039 -6.71198,3.433769 -7.700375,2.710873 -0.988396,-0.722896 0.624957,-6.99398 0.250236,-8.15978 -0.374721,-1.165799 -5.339824,-5.3223791 -4.95774,-6.4857861 0.382084,-1.163407 6.844793,-1.5668886 7.837739,-2.2835214 0.992945,-0.7166329 3.411787,-6.7231802 4.636323,-6.7193094 1.224536,0.00387 3.605357,6.0255898 4.593752,6.7484856 0.988396,0.7228958 7.448425,1.1672255 7.823146,2.3330247 z"
         inkscape:transform-center-x="-0.69524421"
         inkscape:transform-center-y="-4.0319031"
         transform="matrix(1.3941093,0,0,1.3941093,49.423455,58.078603)" />
      <path
         id="rect5568"
         style="opacity:0.647059;fill:#000000;fill-opacity:1;fill-rule:evenodd;stroke-width:0.264583;filter:url(#filter5579)"
         d="m 26.028902,177.97518 v 64.73869 h 88.987338 v -64.73869 z m 44.438631,12.83746 c 1.707136,0.005 5.026331,8.40042 6.404261,9.40821 1.377929,1.0078 10.383909,1.62675 10.906311,3.252 0.522401,1.62525 -6.435901,7.3765 -6.968567,8.99842 -0.532666,1.62191 1.661259,10.37854 0.276985,11.3776 -1.384273,0.99906 -9.004355,-3.84192 -10.71149,-3.84731 -1.707136,-0.005 -9.356816,4.78741 -10.734746,3.77961 -1.37793,-1.00779 0.871218,-9.7508 0.348816,-11.37605 -0.522402,-1.62525 -7.444389,-7.41991 -6.911723,-9.04182 0.532666,-1.62192 9.542192,-2.18421 10.926465,-3.18327 1.384274,-0.99906 4.756553,-9.37278 6.463688,-9.36739 z"
         clip-path="url(#clipPath5591-5)"
         transform="translate(18.092235,-137.33058)" />
    </g>
  </g>
</svg>
