<?xml version="1.0" encoding="UTF-8" standalone="no"?>
<!-- Created with Inkscape (http://www.inkscape.org/) -->

<svg
   width="210mm"
   height="297mm"
   viewBox="0 0 210 297"
   version="1.1"
   id="svg5"
   inkscape:version="1.2 (dc2aedaf03, 2022-05-15)"
   sodipodi:docname="button.svg"
   xmlns:inkscape="http://www.inkscape.org/namespaces/inkscape"
   xmlns:sodipodi="http://sodipodi.sourceforge.net/DTD/sodipodi-0.dtd"
   xmlns:xlink="http://www.w3.org/1999/xlink"
   xmlns="http://www.w3.org/2000/svg"
   xmlns:svg="http://www.w3.org/2000/svg">
  <sodipodi:namedview
     id="namedview7"
     pagecolor="#ffffff"
     bordercolor="#666666"
     borderopacity="1.0"
     inkscape:showpageshadow="2"
     inkscape:pageopacity="0.0"
     inkscape:pagecheckerboard="0"
     inkscape:deskcolor="#d1d1d1"
     inkscape:document-units="mm"
     showgrid="false"
     inkscape:zoom="0.72955274"
     inkscape:cx="208.34683"
     inkscape:cy="285.10619"
     inkscape:window-width="1269"
     inkscape:window-height="927"
     inkscape:window-x="233"
     inkscape:window-y="56"
     inkscape:window-maximized="0"
     inkscape:current-layer="layer1" />
  <defs
     id="defs2">
    <linearGradient
       inkscape:collect="always"
       id="linearGradient8468">
      <stop
         style="stop-color:#33be12;stop-opacity:0;"
         offset="0"
         id="stop8464" />
      <stop
         style="stop-color:#79d464;stop-opacity:0.94736844;"
         offset="0.34998879"
         id="stop9874" />
      <stop
         style="stop-color:#fdfdfd;stop-opacity:0.99043059;"
         offset="1"
         id="stop8466" />
    </linearGradient>
    <linearGradient
       inkscape:collect="always"
       id="linearGradient1710">
      <stop
         style="stop-color:#33be12;stop-opacity:0;"
         offset="0"
         id="stop1706" />
      <stop
         style="stop-color:#bee6ab;stop-opacity:1;"
         offset="1"
         id="stop1708" />
    </linearGradient>
    <linearGradient
       inkscape:collect="always"
       xlink:href="#linearGradient1710"
       id="linearGradient1712"
       x1="92.769562"
       y1="55.602562"
       x2="92.992043"
       y2="92.006813"
       gradientUnits="userSpaceOnUse"
       gradientTransform="matrix(0.9380531,0,0,0.30357987,5.9397249,43.440391)" />
    <filter
       inkscape:collect="always"
       style="color-interpolation-filters:sRGB"
       id="filter6991"
       x="-0.0097815417"
       y="-0.11384632"
       width="1.0195631"
       height="1.2276926">
      <feGaussianBlur
         inkscape:collect="always"
         stdDeviation="0.38444248"
         id="feGaussianBlur6993" />
    </filter>
    <linearGradient
       inkscape:collect="always"
       xlink:href="#linearGradient8468"
       id="linearGradient8470"
       x1="95.109764"
       y1="24.021799"
       x2="95.177109"
       y2="7.7752118"
       gradientUnits="userSpaceOnUse"
       gradientTransform="matrix(0.98979896,0,0,0.95445767,-2.0644295,36.737213)" />
    <filter
       inkscape:collect="always"
       style="color-interpolation-filters:sRGB"
       id="filter11348"
       x="-0.011420466"
       y="-0.043017093"
       width="1.0228409"
       height="1.0860342">
      <feGaussianBlur
         inkscape:collect="always"
         stdDeviation="0.47849836"
         id="feGaussianBlur11350" />
    </filter>
    <filter
       inkscape:collect="always"
       style="color-interpolation-filters:sRGB"
       id="filter11506"
       x="-0.010154176"
       y="-0.040600705"
       width="1.0203084"
       height="1.0812014">
      <feGaussianBlur
         inkscape:collect="always"
         stdDeviation="0.22181554"
         id="feGaussianBlur11508" />
    </filter>
    <filter
       inkscape:collect="always"
       style="color-interpolation-filters:sRGB"
       id="filter11526"
       x="-0.01246835"
       y="-0.049853752"
       width="1.0249367"
       height="1.0997075">
      <feGaussianBlur
         inkscape:collect="always"
         stdDeviation="0.2723681"
         id="feGaussianBlur11524" />
    </filter>
  </defs>
  <g
     inkscape:label="Layer 1"
     inkscape:groupmode="layer"
     id="layer1">
    <g
       id="g11599"
       transform="translate(17.951923,-18.677254)">
      <rect
         style="opacity:0.716981;mix-blend-mode:normal;fill:#363636;fill-opacity:1;stroke:none;stroke-width:1.28506;stroke-linecap:round;stroke-linejoin:round;paint-order:stroke fill markers;filter:url(#filter11348)"
         id="rect11346"
         width="100.55598"
         height="26.696274"
         x="45.383671"
         y="45.605354"
         ry="7.5639434"
         inkscape:export-filename="rect11346.png"
         inkscape:export-xdpi="52.0042"
         inkscape:export-ydpi="52.0042" />
      <rect
         style="opacity:1;fill:#33be12;fill-opacity:1;stroke:none;stroke-width:1.28506;stroke-linecap:round;stroke-linejoin:round;paint-order:stroke fill markers"
         id="rect188"
         width="100.55598"
         height="26.696274"
         x="45.383671"
         y="44.938732"
         ry="7.5639434" />
      <rect
         style="opacity:1;mix-blend-mode:normal;fill:url(#linearGradient1712);fill-opacity:1;stroke:none;stroke-width:0.685763;stroke-linecap:round;stroke-linejoin:round;paint-order:stroke fill markers;filter:url(#filter6991)"
         id="rect1681"
         width="94.326843"
         height="8.1044512"
         x="48.720703"
         y="62.688461"
         ry="4.0522223"
         rx="4.0522223"
         transform="matrix(1.002299,0,0,0.80215789,-0.31934074,14.307432)" />
      <path
         id="rect7733"
         style="opacity:1;fill:url(#linearGradient8470);fill-opacity:1;stroke:none;stroke-width:1.24904;stroke-linecap:round;stroke-linejoin:round;paint-order:stroke fill markers"
         d="m 53.408497,45.501904 c -4.147673,0 -7.486719,3.219824 -7.486719,7.219402 v 6.216668 h 99.529852 v -6.216668 c 0,-3.999578 -3.33905,-7.219402 -7.48672,-7.219402 z" />
      <g
         aria-label="Accept"
         id="g11504"
         style="font-weight:bold;font-size:14.1111px;line-height:1.25;font-family:'Century Schoolbook';-inkscape-font-specification:'Century Schoolbook Bold';letter-spacing:0.529167px;word-spacing:0px;opacity:1;mix-blend-mode:normal;fill:#252525;fill-opacity:0.992983;stroke-width:0.264583;filter:url(#filter11506)"
         transform="translate(0.18133256,-0.42488864)">
        <path
           d="m 75.373504,52.66456 3.824053,9.136386 q 0.165365,0.385851 0.35829,0.523654 0.192925,0.137804 0.509874,0.137804 h 0.37207 v 0.640787 h -4.781789 v -0.640787 h 0.447862 q 0.530544,0 0.73036,-0.117133 0.199815,-0.117133 0.199815,-0.310058 0,-0.151584 -0.08268,-0.3514 l -0.792371,-1.887911 h -3.803383 l -0.37207,0.861273 q -0.227376,0.537435 -0.227376,0.799262 0,0.447862 0.330729,0.73036 0.330729,0.275607 0.902614,0.275607 h 0.323839 v 0.640787 h -3.865394 v -0.640787 h 0.220486 q 0.37207,0 0.654567,-0.234266 0.399631,-0.330729 0.620117,-0.847493 l 3.658689,-8.716085 z m -1.109319,2.57693 -1.626084,3.879174 h 3.238387 z"
           id="path11492"
           style="fill:#252525;fill-opacity:0.992983" />
        <path
           d="m 87.822693,60.774309 0.537435,0.254936 q -0.420302,1.08865 -1.295355,1.688096 -0.875054,0.592556 -2.080836,0.592556 -1.632974,0 -2.549369,-0.888834 -0.916395,-0.895724 -0.916395,-2.404675 0,-1.626084 1.081759,-2.673392 1.08865,-1.047308 2.880098,-1.047308 1.288465,0 1.970593,0.523654 0.682128,0.516764 0.682128,1.254014 0,0.537434 -0.303168,0.854383 -0.296278,0.310058 -0.785481,0.310058 -0.427191,0 -0.682128,-0.241156 -0.248047,-0.248047 -0.248047,-0.640788 0,-0.337619 0.275607,-0.785481 0.117134,-0.186035 0.117134,-0.261827 0,-0.137803 -0.213596,-0.248046 -0.303168,-0.172255 -0.792371,-0.172255 -0.909505,0 -1.316026,0.578776 -0.544325,0.76481 -0.544325,2.315102 0,1.550292 0.537435,2.184189 0.544325,0.627007 1.398708,0.627007 0.675238,0 1.267794,-0.447862 0.599446,-0.454753 0.978406,-1.371147 z"
           id="path11494"
           style="fill:#252525;fill-opacity:0.992983" />
        <path
           d="m 96.199781,60.774309 0.537434,0.254936 q -0.420301,1.08865 -1.295355,1.688096 -0.875053,0.592556 -2.080836,0.592556 -1.632974,0 -2.549368,-0.888834 -0.916395,-0.895724 -0.916395,-2.404675 0,-1.626084 1.081759,-2.673392 1.088649,-1.047308 2.880098,-1.047308 1.288464,0 1.970593,0.523654 0.682128,0.516764 0.682128,1.254014 0,0.537434 -0.303168,0.854383 -0.296278,0.310058 -0.785481,0.310058 -0.427192,0 -0.682129,-0.241156 -0.248046,-0.248047 -0.248046,-0.640788 0,-0.337619 0.275607,-0.785481 0.117133,-0.186035 0.117133,-0.261827 0,-0.137803 -0.213596,-0.248046 -0.303168,-0.172255 -0.792371,-0.172255 -0.909504,0 -1.316025,0.578776 -0.544325,0.76481 -0.544325,2.315102 0,1.550292 0.537434,2.184189 0.544325,0.627007 1.398708,0.627007 0.675238,0 1.267794,-0.447862 0.599446,-0.454753 0.978407,-1.371147 z"
           id="path11496"
           style="fill:#252525;fill-opacity:0.992983" />
        <path
           d="m 104.9765,59.919926 h -4.52685 q 0.0207,1.357366 0.54432,2.005044 0.53055,0.640787 1.35737,0.640787 0.59256,0 1.1231,-0.330729 0.53054,-0.330729 1.08865,-1.198892 l 0.50298,0.310058 q -0.58566,1.033528 -1.34358,1.48139 -0.75103,0.440972 -1.83968,0.440972 -1.58475,0 -2.563152,-0.964626 -0.978407,-0.964626 -0.978407,-2.473577 0,-1.50895 0.985297,-2.521808 0.985292,-1.012857 2.418452,-1.012857 0.99219,0 1.70188,0.406521 0.71658,0.406521 1.10932,1.192002 0.39963,0.778591 0.4203,2.025715 z m -4.52685,-0.620117 h 2.15663 q 0.30316,0 0.43408,-0.151584 0.13091,-0.151584 0.13091,-0.551215 0,-0.799262 -0.36518,-1.233343 -0.36518,-0.440972 -0.93017,-0.440972 -0.66835,0 -1.02664,0.592556 -0.3514,0.592556 -0.39963,1.784558 z"
           id="path11498"
           style="fill:#252525;fill-opacity:0.992983" />
        <path
           d="m 106.93194,56.688429 2.62516,-0.165365 q 0.15847,0.633897 0.18603,1.260904 0.40652,-0.654568 1.04042,-1.012857 0.64079,-0.36518 1.41938,-0.36518 1.24712,0 2.01882,0.888834 0.7717,0.888834 0.7717,2.514918 0,1.12999 -0.37207,1.915471 -0.37207,0.785481 -1.04041,1.185112 -0.66146,0.399631 -1.5503,0.399631 -0.70968,0 -1.2609,-0.316949 -0.55121,-0.323838 -1.02664,-1.033527 v 2.308212 q 0,0.454752 0.0689,0.578775 0.0689,0.130914 0.25494,0.192926 0.19293,0.0689 0.75792,0.07579 v 0.661457 h -3.89295 v -0.661457 h 0.2067 q 0.36518,0 0.48921,-0.0689 0.12402,-0.06201 0.19292,-0.220486 0.0482,-0.110243 0.0482,-0.558105 v -6.104705 q 0,-0.447862 -0.0689,-0.592556 -0.0689,-0.151584 -0.2136,-0.213595 -0.1378,-0.0689 -0.65456,-0.08957 z m 4.40972,0.682128 q -0.66835,0 -1.13689,0.640787 -0.46853,0.640787 -0.46853,1.874131 0,1.219563 0.48921,1.86724 0.49609,0.647677 1.12999,0.647677 0.62011,0 0.99907,-0.558105 0.4961,-0.737249 0.4961,-1.984373 0,-1.143771 -0.39963,-1.812119 -0.39964,-0.675238 -1.10932,-0.675238 z"
           id="path11500"
           style="fill:#252525;fill-opacity:0.992983" />
        <path
           d="m 118.86436,54.001256 h 0.62012 v 2.652722 h 2.12907 v 0.74414 h -2.12907 v 4.09966 q 0,0.406521 0.2067,0.633897 0.20671,0.220486 0.54433,0.220486 0.96463,0 1.01975,-1.798338 h 0.62011 q -0.0207,0.957735 -0.30316,1.543401 -0.2825,0.578776 -0.81305,0.895724 -0.52365,0.316949 -1.18511,0.316949 -0.57877,0 -1.00597,-0.234266 -0.4203,-0.234267 -0.67523,-0.695909 -0.24805,-0.468533 -0.24805,-1.012857 v -3.968747 h -1.14377 v -0.633897 q 1.04731,-0.137804 1.63297,-0.806152 0.58567,-0.668348 0.73036,-1.956813 z"
           id="path11502"
           style="fill:#252525;fill-opacity:0.992983" />
      </g>
      <g
         aria-label="Accept"
         id="g11522"
         style="font-weight:bold;font-size:14.1111px;line-height:1.25;font-family:'Century Schoolbook';-inkscape-font-specification:'Century Schoolbook Bold';letter-spacing:0.529167px;word-spacing:0px;opacity:1;mix-blend-mode:normal;fill:#fffcfc;fill-opacity:1;stroke-width:0.264583;filter:url(#filter11526)"
         transform="translate(-0.20333189,0.34444026)">
        <path
           d="m 75.373504,52.66456 3.824053,9.136386 q 0.165365,0.385851 0.35829,0.523654 0.192925,0.137804 0.509874,0.137804 h 0.37207 v 0.640787 h -4.781789 v -0.640787 h 0.447862 q 0.530544,0 0.73036,-0.117133 0.199815,-0.117133 0.199815,-0.310058 0,-0.151584 -0.08268,-0.3514 l -0.792371,-1.887911 h -3.803383 l -0.37207,0.861273 q -0.227376,0.537435 -0.227376,0.799262 0,0.447862 0.330729,0.73036 0.330729,0.275607 0.902614,0.275607 h 0.323839 v 0.640787 h -3.865394 v -0.640787 h 0.220486 q 0.37207,0 0.654567,-0.234266 0.399631,-0.330729 0.620117,-0.847493 l 3.658689,-8.716085 z m -1.109319,2.57693 -1.626084,3.879174 h 3.238387 z"
           id="path11510"
           style="fill:#fffcfc;fill-opacity:1" />
        <path
           d="m 87.822693,60.774309 0.537435,0.254936 q -0.420302,1.08865 -1.295355,1.688096 -0.875054,0.592556 -2.080836,0.592556 -1.632974,0 -2.549369,-0.888834 -0.916395,-0.895724 -0.916395,-2.404675 0,-1.626084 1.081759,-2.673392 1.08865,-1.047308 2.880098,-1.047308 1.288465,0 1.970593,0.523654 0.682128,0.516764 0.682128,1.254014 0,0.537434 -0.303168,0.854383 -0.296278,0.310058 -0.785481,0.310058 -0.427191,0 -0.682128,-0.241156 -0.248047,-0.248047 -0.248047,-0.640788 0,-0.337619 0.275607,-0.785481 0.117134,-0.186035 0.117134,-0.261827 0,-0.137803 -0.213596,-0.248046 -0.303168,-0.172255 -0.792371,-0.172255 -0.909505,0 -1.316026,0.578776 -0.544325,0.76481 -0.544325,2.315102 0,1.550292 0.537435,2.184189 0.544325,0.627007 1.398708,0.627007 0.675238,0 1.267794,-0.447862 0.599446,-0.454753 0.978406,-1.371147 z"
           id="path11512"
           style="fill:#fffcfc;fill-opacity:1" />
        <path
           d="m 96.199781,60.774309 0.537434,0.254936 q -0.420301,1.08865 -1.295355,1.688096 -0.875053,0.592556 -2.080836,0.592556 -1.632974,0 -2.549368,-0.888834 -0.916395,-0.895724 -0.916395,-2.404675 0,-1.626084 1.081759,-2.673392 1.088649,-1.047308 2.880098,-1.047308 1.288464,0 1.970593,0.523654 0.682128,0.516764 0.682128,1.254014 0,0.537434 -0.303168,0.854383 -0.296278,0.310058 -0.785481,0.310058 -0.427192,0 -0.682129,-0.241156 -0.248046,-0.248047 -0.248046,-0.640788 0,-0.337619 0.275607,-0.785481 0.117133,-0.186035 0.117133,-0.261827 0,-0.137803 -0.213596,-0.248046 -0.303168,-0.172255 -0.792371,-0.172255 -0.909504,0 -1.316025,0.578776 -0.544325,0.76481 -0.544325,2.315102 0,1.550292 0.537434,2.184189 0.544325,0.627007 1.398708,0.627007 0.675238,0 1.267794,-0.447862 0.599446,-0.454753 0.978407,-1.371147 z"
           id="path11514"
           style="fill:#fffcfc;fill-opacity:1" />
        <path
           d="m 104.9765,59.919926 h -4.52685 q 0.0207,1.357366 0.54432,2.005044 0.53055,0.640787 1.35737,0.640787 0.59256,0 1.1231,-0.330729 0.53054,-0.330729 1.08865,-1.198892 l 0.50298,0.310058 q -0.58566,1.033528 -1.34358,1.48139 -0.75103,0.440972 -1.83968,0.440972 -1.58475,0 -2.563152,-0.964626 -0.978407,-0.964626 -0.978407,-2.473577 0,-1.50895 0.985297,-2.521808 0.985292,-1.012857 2.418452,-1.012857 0.99219,0 1.70188,0.406521 0.71658,0.406521 1.10932,1.192002 0.39963,0.778591 0.4203,2.025715 z m -4.52685,-0.620117 h 2.15663 q 0.30316,0 0.43408,-0.151584 0.13091,-0.151584 0.13091,-0.551215 0,-0.799262 -0.36518,-1.233343 -0.36518,-0.440972 -0.93017,-0.440972 -0.66835,0 -1.02664,0.592556 -0.3514,0.592556 -0.39963,1.784558 z"
           id="path11516"
           style="fill:#fffcfc;fill-opacity:1" />
        <path
           d="m 106.93194,56.688429 2.62516,-0.165365 q 0.15847,0.633897 0.18603,1.260904 0.40652,-0.654568 1.04042,-1.012857 0.64079,-0.36518 1.41938,-0.36518 1.24712,0 2.01882,0.888834 0.7717,0.888834 0.7717,2.514918 0,1.12999 -0.37207,1.915471 -0.37207,0.785481 -1.04041,1.185112 -0.66146,0.399631 -1.5503,0.399631 -0.70968,0 -1.2609,-0.316949 -0.55121,-0.323838 -1.02664,-1.033527 v 2.308212 q 0,0.454752 0.0689,0.578775 0.0689,0.130914 0.25494,0.192926 0.19293,0.0689 0.75792,0.07579 v 0.661457 h -3.89295 v -0.661457 h 0.2067 q 0.36518,0 0.48921,-0.0689 0.12402,-0.06201 0.19292,-0.220486 0.0482,-0.110243 0.0482,-0.558105 v -6.104705 q 0,-0.447862 -0.0689,-0.592556 -0.0689,-0.151584 -0.2136,-0.213595 -0.1378,-0.0689 -0.65456,-0.08957 z m 4.40972,0.682128 q -0.66835,0 -1.13689,0.640787 -0.46853,0.640787 -0.46853,1.874131 0,1.219563 0.48921,1.86724 0.49609,0.647677 1.12999,0.647677 0.62011,0 0.99907,-0.558105 0.4961,-0.737249 0.4961,-1.984373 0,-1.143771 -0.39963,-1.812119 -0.39964,-0.675238 -1.10932,-0.675238 z"
           id="path11518"
           style="fill:#fffcfc;fill-opacity:1" />
        <path
           d="m 118.86436,54.001256 h 0.62012 v 2.652722 h 2.12907 v 0.74414 h -2.12907 v 4.09966 q 0,0.406521 0.2067,0.633897 0.20671,0.220486 0.54433,0.220486 0.96463,0 1.01975,-1.798338 h 0.62011 q -0.0207,0.957735 -0.30316,1.543401 -0.2825,0.578776 -0.81305,0.895724 -0.52365,0.316949 -1.18511,0.316949 -0.57877,0 -1.00597,-0.234266 -0.4203,-0.234267 -0.67523,-0.695909 -0.24805,-0.468533 -0.24805,-1.012857 v -3.968747 h -1.14377 v -0.633897 q 1.04731,-0.137804 1.63297,-0.806152 0.58567,-0.668348 0.73036,-1.956813 z"
           id="path11520"
           style="fill:#fffcfc;fill-opacity:1" />
      </g>
      <g
         aria-label="Accept"
         id="text11427"
         style="font-weight:bold;font-size:14.1111px;line-height:1.25;font-family:'Century Schoolbook';-inkscape-font-specification:'Century Schoolbook Bold';letter-spacing:0.529167px;word-spacing:0px;fill:#006208;fill-opacity:1;stroke-width:0.264583">
        <path
           d="m 75.373504,52.66456 3.824053,9.136386 q 0.165365,0.385851 0.35829,0.523654 0.192925,0.137804 0.509874,0.137804 h 0.37207 v 0.640787 h -4.781789 v -0.640787 h 0.447862 q 0.530544,0 0.73036,-0.117133 0.199815,-0.117133 0.199815,-0.310058 0,-0.151584 -0.08268,-0.3514 l -0.792371,-1.887911 h -3.803383 l -0.37207,0.861273 q -0.227376,0.537435 -0.227376,0.799262 0,0.447862 0.330729,0.73036 0.330729,0.275607 0.902614,0.275607 h 0.323839 v 0.640787 h -3.865394 v -0.640787 h 0.220486 q 0.37207,0 0.654567,-0.234266 0.399631,-0.330729 0.620117,-0.847493 l 3.658689,-8.716085 z m -1.109319,2.57693 -1.626084,3.879174 h 3.238387 z"
           id="path11479"
           style="fill:#006208;fill-opacity:1" />
        <path
           d="m 87.822693,60.774309 0.537435,0.254936 q -0.420302,1.08865 -1.295355,1.688096 -0.875054,0.592556 -2.080836,0.592556 -1.632974,0 -2.549369,-0.888834 -0.916395,-0.895724 -0.916395,-2.404675 0,-1.626084 1.081759,-2.673392 1.08865,-1.047308 2.880098,-1.047308 1.288465,0 1.970593,0.523654 0.682128,0.516764 0.682128,1.254014 0,0.537434 -0.303168,0.854383 -0.296278,0.310058 -0.785481,0.310058 -0.427191,0 -0.682128,-0.241156 -0.248047,-0.248047 -0.248047,-0.640788 0,-0.337619 0.275607,-0.785481 0.117134,-0.186035 0.117134,-0.261827 0,-0.137803 -0.213596,-0.248046 -0.303168,-0.172255 -0.792371,-0.172255 -0.909505,0 -1.316026,0.578776 -0.544325,0.76481 -0.544325,2.315102 0,1.550292 0.537435,2.184189 0.544325,0.627007 1.398708,0.627007 0.675238,0 1.267794,-0.447862 0.599446,-0.454753 0.978406,-1.371147 z"
           id="path11481"
           style="fill:#006208;fill-opacity:1" />
        <path
           d="m 96.199781,60.774309 0.537434,0.254936 q -0.420301,1.08865 -1.295355,1.688096 -0.875053,0.592556 -2.080836,0.592556 -1.632974,0 -2.549368,-0.888834 -0.916395,-0.895724 -0.916395,-2.404675 0,-1.626084 1.081759,-2.673392 1.088649,-1.047308 2.880098,-1.047308 1.288464,0 1.970593,0.523654 0.682128,0.516764 0.682128,1.254014 0,0.537434 -0.303168,0.854383 -0.296278,0.310058 -0.785481,0.310058 -0.427192,0 -0.682129,-0.241156 -0.248046,-0.248047 -0.248046,-0.640788 0,-0.337619 0.275607,-0.785481 0.117133,-0.186035 0.117133,-0.261827 0,-0.137803 -0.213596,-0.248046 -0.303168,-0.172255 -0.792371,-0.172255 -0.909504,0 -1.316025,0.578776 -0.544325,0.76481 -0.544325,2.315102 0,1.550292 0.537434,2.184189 0.544325,0.627007 1.398708,0.627007 0.675238,0 1.267794,-0.447862 0.599446,-0.454753 0.978407,-1.371147 z"
           id="path11483"
           style="fill:#006208;fill-opacity:1" />
        <path
           d="m 104.9765,59.919926 h -4.52685 q 0.0207,1.357366 0.54432,2.005044 0.53055,0.640787 1.35737,0.640787 0.59256,0 1.1231,-0.330729 0.53054,-0.330729 1.08865,-1.198892 l 0.50298,0.310058 q -0.58566,1.033528 -1.34358,1.48139 -0.75103,0.440972 -1.83968,0.440972 -1.58475,0 -2.563152,-0.964626 -0.978407,-0.964626 -0.978407,-2.473577 0,-1.50895 0.985297,-2.521808 0.985292,-1.012857 2.418452,-1.012857 0.99219,0 1.70188,0.406521 0.71658,0.406521 1.10932,1.192002 0.39963,0.778591 0.4203,2.025715 z m -4.52685,-0.620117 h 2.15663 q 0.30316,0 0.43408,-0.151584 0.13091,-0.151584 0.13091,-0.551215 0,-0.799262 -0.36518,-1.233343 -0.36518,-0.440972 -0.93017,-0.440972 -0.66835,0 -1.02664,0.592556 -0.3514,0.592556 -0.39963,1.784558 z"
           id="path11485"
           style="fill:#006208;fill-opacity:1" />
        <path
           d="m 106.93194,56.688429 2.62516,-0.165365 q 0.15847,0.633897 0.18603,1.260904 0.40652,-0.654568 1.04042,-1.012857 0.64079,-0.36518 1.41938,-0.36518 1.24712,0 2.01882,0.888834 0.7717,0.888834 0.7717,2.514918 0,1.12999 -0.37207,1.915471 -0.37207,0.785481 -1.04041,1.185112 -0.66146,0.399631 -1.5503,0.399631 -0.70968,0 -1.2609,-0.316949 -0.55121,-0.323838 -1.02664,-1.033527 v 2.308212 q 0,0.454752 0.0689,0.578775 0.0689,0.130914 0.25494,0.192926 0.19293,0.0689 0.75792,0.07579 v 0.661457 h -3.89295 v -0.661457 h 0.2067 q 0.36518,0 0.48921,-0.0689 0.12402,-0.06201 0.19292,-0.220486 0.0482,-0.110243 0.0482,-0.558105 v -6.104705 q 0,-0.447862 -0.0689,-0.592556 -0.0689,-0.151584 -0.2136,-0.213595 -0.1378,-0.0689 -0.65456,-0.08957 z m 4.40972,0.682128 q -0.66835,0 -1.13689,0.640787 -0.46853,0.640787 -0.46853,1.874131 0,1.219563 0.48921,1.86724 0.49609,0.647677 1.12999,0.647677 0.62011,0 0.99907,-0.558105 0.4961,-0.737249 0.4961,-1.984373 0,-1.143771 -0.39963,-1.812119 -0.39964,-0.675238 -1.10932,-0.675238 z"
           id="path11487"
           style="fill:#006208;fill-opacity:1" />
        <path
           d="m 118.86436,54.001256 h 0.62012 v 2.652722 h 2.12907 v 0.74414 h -2.12907 v 4.09966 q 0,0.406521 0.2067,0.633897 0.20671,0.220486 0.54433,0.220486 0.96463,0 1.01975,-1.798338 h 0.62011 q -0.0207,0.957735 -0.30316,1.543401 -0.2825,0.578776 -0.81305,0.895724 -0.52365,0.316949 -1.18511,0.316949 -0.57877,0 -1.00597,-0.234266 -0.4203,-0.234267 -0.67523,-0.695909 -0.24805,-0.468533 -0.24805,-1.012857 v -3.968747 h -1.14377 v -0.633897 q 1.04731,-0.137804 1.63297,-0.806152 0.58567,-0.668348 0.73036,-1.956813 z"
           id="path11489"
           style="fill:#006208;fill-opacity:1" />
      </g>
    </g>
  </g>
</svg>
