<?xml version="1.0" encoding="UTF-8" standalone="no"?>
<!-- Created with Inkscape (http://www.inkscape.org/) -->

<svg
   width="210mm"
   height="297mm"
   viewBox="0 0 210 297"
   version="1.1"
   id="svg5"
   inkscape:version="1.2 (dc2aedaf03, 2022-05-15)"
   sodipodi:docname="button-12 (play).svg"
   xmlns:inkscape="http://www.inkscape.org/namespaces/inkscape"
   xmlns:sodipodi="http://sodipodi.sourceforge.net/DTD/sodipodi-0.dtd"
   xmlns:xlink="http://www.w3.org/1999/xlink"
   xmlns="http://www.w3.org/2000/svg"
   xmlns:svg="http://www.w3.org/2000/svg">
  <sodipodi:namedview
     id="namedview7"
     pagecolor="#ffffff"
     bordercolor="#666666"
     borderopacity="1.0"
     inkscape:showpageshadow="2"
     inkscape:pageopacity="0.0"
     inkscape:pagecheckerboard="0"
     inkscape:deskcolor="#d1d1d1"
     inkscape:document-units="mm"
     showgrid="false"
     inkscape:zoom="0.5946522"
     inkscape:cx="99.217661"
     inkscape:cy="520.47231"
     inkscape:window-width="1492"
     inkscape:window-height="1042"
     inkscape:window-x="2233"
     inkscape:window-y="168"
     inkscape:window-maximized="0"
     inkscape:current-layer="layer1" />
  <defs
     id="defs2">
    <linearGradient
       inkscape:collect="always"
       id="linearGradient6843">
      <stop
         style="stop-color:#f2f1f1;stop-opacity:0.92063493;"
         offset="0"
         id="stop6839" />
      <stop
         style="stop-color:#cc003d;stop-opacity:0.28174606;"
         offset="1"
         id="stop6841" />
    </linearGradient>
    <linearGradient
       inkscape:collect="always"
       id="linearGradient926">
      <stop
         style="stop-color:#ff3c7e;stop-opacity:1;"
         offset="0"
         id="stop922" />
      <stop
         style="stop-color:#de03ef;stop-opacity:1;"
         offset="0.56260598"
         id="stop1054" />
      <stop
         style="stop-color:#7200c6;stop-opacity:1;"
         offset="1"
         id="stop924" />
    </linearGradient>
    <filter
       inkscape:collect="always"
       style="color-interpolation-filters:sRGB"
       id="filter6040"
       x="-0.017478646"
       y="-0.033706353"
       width="1.0349573"
       height="1.0674127">
      <feGaussianBlur
         inkscape:collect="always"
         stdDeviation="0.4369658"
         id="feGaussianBlur6042" />
    </filter>
    <linearGradient
       inkscape:collect="always"
       xlink:href="#linearGradient6843"
       id="linearGradient6845"
       x1="88.519066"
       y1="39.956566"
       x2="88.519066"
       y2="66.384529"
       gradientUnits="userSpaceOnUse" />
    <radialGradient
       inkscape:collect="always"
       xlink:href="#linearGradient926"
       id="radialGradient306"
       gradientUnits="userSpaceOnUse"
       cx="88.519066"
       cy="79.395126"
       fx="88.519066"
       fy="79.395126"
       r="30"
       gradientTransform="translate(0,0.15730932)" />
    <linearGradient
       inkscape:collect="always"
       xlink:href="#linearGradient8326"
       id="linearGradient7354"
       x1="21.80196"
       y1="0.66740727"
       x2="21.80196"
       y2="38.042194"
       gradientUnits="userSpaceOnUse" />
    <linearGradient
       inkscape:collect="always"
       id="linearGradient8326">
      <stop
         style="stop-color:#4c0082;stop-opacity:1;"
         offset="0"
         id="stop8322" />
      <stop
         style="stop-color:#ff00e6;stop-opacity:1;"
         offset="1"
         id="stop8324" />
    </linearGradient>
    <clipPath
       clipPathUnits="userSpaceOnUse"
       id="clipPath13911">
      <path
         sodipodi:type="star"
         style="fill:url(#linearGradient13915);fill-opacity:1;stroke-width:1.79;stroke-linecap:round;stroke-linejoin:round;paint-order:stroke fill markers"
         id="path13913"
         inkscape:flatsided="false"
         sodipodi:sides="3"
         sodipodi:cx="20.467146"
         sodipodi:cy="20.022207"
         sodipodi:r1="18.688719"
         sodipodi:r2="11.942091"
         sodipodi:arg1="0.0119042"
         sodipodi:arg2="1.0591018"
         inkscape:rounded="0.2"
         inkscape:randomized="0"
         inkscape:transform-center-x="-3.6777399"
         inkscape:transform-center-y="-0.097973839"
         transform="translate(64.374427,50.055521)"
         d="m 39.154541,20.244676 c -0.03903,3.278178 -9.981387,8.58474 -12.839885,10.190032 -2.858499,1.605291 -12.564399,7.33291 -15.383871,5.660023 C 8.1113122,34.421845 8.4868752,23.158227 8.5259011,19.880049 8.564927,16.601871 8.457614,5.3325057 11.316112,3.7272143 14.174611,2.1219228 23.741408,8.0789785 26.560881,9.751865 c 2.819472,1.672886 12.632686,7.214633 12.59366,10.492811 z" />
    </clipPath>
    <filter
       inkscape:collect="always"
       style="color-interpolation-filters:sRGB"
       id="filter13905"
       x="-0.055592901"
       y="-0.060096809"
       width="1.1111858"
       height="1.1201936">
      <feGaussianBlur
         inkscape:collect="always"
         stdDeviation="1.8689692"
         id="feGaussianBlur13907" />
    </filter>
  </defs>
  <g
     inkscape:label="Layer 1"
     inkscape:groupmode="layer"
     id="layer1">
    <g
       id="g10083">
      <g
         id="g1027">
        <circle
           style="fill:url(#radialGradient306);fill-opacity:1;stroke-width:1.89444;stroke-linecap:round;stroke-linejoin:round;paint-order:stroke fill markers"
           id="path184"
           cx="88.519066"
           cy="70.113876"
           r="30" />
        <path
           id="circle5471"
           style="fill:#74057d;fill-opacity:1;stroke-width:1.89444;stroke-linecap:round;stroke-linejoin:round;paint-order:stroke fill markers"
           d="M 118.49605,70.573345 A 30,30 0 0 1 88.519066,99.956566 30,30 0 0 1 58.551903,70.821395 a 30,30 0 0 0 -0.03256,0.86558 30,30 0 0 0 29.999719,29.999725 30,30 0 0 0 30.000228,-29.999725 30,30 0 0 0 -0.0233,-1.11363 z" />
        <path
           id="path6038"
           style="fill:#b5b5b5;fill-opacity:1;stroke-width:1.89444;stroke-linecap:round;stroke-linejoin:round;paint-order:stroke fill markers;filter:url(#filter6040)"
           d="m 118.49605,73.24734 a 30,30 0 0 1 -29.976988,29.38322 30,30 0 0 1 -29.967163,-29.13517 30,30 0 0 0 -0.03256,0.86558 30,30 0 0 0 29.999719,29.99973 30,30 0 0 0 30.000232,-29.99973 30,30 0 0 0 -0.0233,-1.11363 z" />
        <ellipse
           style="fill:url(#linearGradient6845);fill-opacity:1;stroke-width:1.76588;stroke-linecap:round;stroke-linejoin:round;paint-order:stroke fill markers"
           id="path6837"
           cx="88.519066"
           cy="53.56382"
           rx="19.191736"
           ry="12.820709" />
        <ellipse
           style="fill:#feb9d0;fill-opacity:0.51829302;stroke-width:2.5676;stroke-linecap:round;stroke-linejoin:round;paint-order:stroke fill markers"
           id="path6867"
           cx="109.79839"
           cy="-18.95632"
           rx="4.9850764"
           ry="3.4828677"
           transform="matrix(0.81045473,0.58580127,-0.62434409,0.78114944,0,0)" />
        <ellipse
           style="fill:#ffc0dd;fill-opacity:0.457317;stroke-width:1.48927;stroke-linecap:round;stroke-linejoin:round;paint-order:stroke fill markers"
           id="ellipse10195"
           cx="100.77843"
           cy="-8.3202229"
           rx="2.9800761"
           ry="1.9600739"
           transform="matrix(0.86766784,0.49714437,-0.71001711,0.70418443,0,0)" />
      </g>
      <path
         sodipodi:type="star"
         style="fill:#ffb4fe;fill-opacity:1;stroke-width:1.79;stroke-linecap:round;stroke-linejoin:round;paint-order:stroke fill markers"
         id="path11877"
         inkscape:flatsided="false"
         sodipodi:sides="3"
         sodipodi:cx="20.467146"
         sodipodi:cy="20.022207"
         sodipodi:r1="18.688719"
         sodipodi:r2="11.942091"
         sodipodi:arg1="0.0119042"
         sodipodi:arg2="1.0591018"
         inkscape:rounded="0.2"
         inkscape:randomized="0"
         d="m 39.154541,20.244676 c -0.03903,3.278178 -9.981387,8.58474 -12.839885,10.190032 -2.858499,1.605291 -12.564399,7.33291 -15.383871,5.660023 C 8.1113122,34.421845 8.4868752,23.158227 8.5259011,19.880049 8.564927,16.601871 8.457614,5.3325057 11.316112,3.7272143 14.174611,2.1219228 23.741408,8.0789785 26.560881,9.751865 c 2.819472,1.672886 12.632686,7.214633 12.59366,10.492811 z"
         inkscape:transform-center-x="-3.6777399"
         inkscape:transform-center-y="-0.097973839"
         transform="translate(64.475039,51.077238)" />
      <path
         sodipodi:type="star"
         style="fill:url(#linearGradient7354);fill-opacity:1;stroke-width:1.79;stroke-linecap:round;stroke-linejoin:round;paint-order:stroke fill markers"
         id="path7352"
         inkscape:flatsided="false"
         sodipodi:sides="3"
         sodipodi:cx="20.467146"
         sodipodi:cy="20.022207"
         sodipodi:r1="18.688719"
         sodipodi:r2="11.942091"
         sodipodi:arg1="0.0119042"
         sodipodi:arg2="1.0591018"
         inkscape:rounded="0.2"
         inkscape:randomized="0"
         d="m 39.154541,20.244676 c -0.03903,3.278178 -9.981387,8.58474 -12.839885,10.190032 -2.858499,1.605291 -12.564399,7.33291 -15.383871,5.660023 C 8.1113122,34.421845 8.4868752,23.158227 8.5259011,19.880049 8.564927,16.601871 8.457614,5.3325057 11.316112,3.7272143 14.174611,2.1219228 23.741408,8.0789785 26.560881,9.751865 c 2.819472,1.672886 12.632686,7.214633 12.59366,10.492811 z"
         inkscape:transform-center-x="-3.6777399"
         inkscape:transform-center-y="-0.097973839"
         transform="translate(64.697509,50.187368)" />
      <path
         id="rect13884"
         style="opacity:0.451531;mix-blend-mode:normal;fill:#000000;fill-opacity:1;stroke-width:1.77943;stroke-linecap:round;stroke-linejoin:round;paint-order:stroke fill markers;filter:url(#filter13905)"
         d="m 50.070639,31.92415 v 74.63834 H 130.75587 V 31.92415 Z m 27.36031,21.587829 c 3.665764,-0.0826 11.436596,4.80531 13.918133,6.295223 2.786285,1.672885 12.483898,7.214725 12.445328,10.4929 -0.0386,3.278175 -9.864072,8.584785 -12.688924,10.190075 -2.824852,1.60529 -12.416723,7.333005 -15.203009,5.66012 -2.786286,-1.672885 -2.414771,-12.936339 -2.376204,-16.214514 0.03857,-3.278175 -0.06767,-14.54773 2.757172,-16.153019 0.308969,-0.175579 0.697322,-0.260641 1.147504,-0.270785 z"
         clip-path="url(#clipPath13911)"
         transform="translate(0.32307939,0.13185067)" />
    </g>
  </g>
</svg>
