<?xml version="1.0" encoding="UTF-8" standalone="no"?>
<!-- Created with Inkscape (http://www.inkscape.org/) -->

<svg
   width="210mm"
   height="297mm"
   viewBox="0 0 210 297"
   version="1.1"
   id="svg5"
   inkscape:version="1.2 (dc2aedaf03, 2022-05-15)"
   sodipodi:docname="button-2.svg"
   xmlns:inkscape="http://www.inkscape.org/namespaces/inkscape"
   xmlns:sodipodi="http://sodipodi.sourceforge.net/DTD/sodipodi-0.dtd"
   xmlns:xlink="http://www.w3.org/1999/xlink"
   xmlns="http://www.w3.org/2000/svg"
   xmlns:svg="http://www.w3.org/2000/svg">
  <sodipodi:namedview
     id="namedview7"
     pagecolor="#ffffff"
     bordercolor="#666666"
     borderopacity="1.0"
     inkscape:showpageshadow="2"
     inkscape:pageopacity="0.0"
     inkscape:pagecheckerboard="0"
     inkscape:deskcolor="#d1d1d1"
     inkscape:document-units="mm"
     showgrid="false"
     inkscape:zoom="1.1236784"
     inkscape:cx="317.2616"
     inkscape:cy="359.08852"
     inkscape:window-width="1920"
     inkscape:window-height="1058"
     inkscape:window-x="-8"
     inkscape:window-y="-8"
     inkscape:window-maximized="1"
     inkscape:current-layer="layer1" />
  <defs
     id="defs2">
    <linearGradient
       inkscape:collect="always"
       id="linearGradient1058">
      <stop
         style="stop-color:#7ba1ff;stop-opacity:1;"
         offset="0"
         id="stop1054" />
      <stop
         style="stop-color:#132980;stop-opacity:1;"
         offset="1"
         id="stop1056" />
    </linearGradient>
    <linearGradient
       inkscape:collect="always"
       xlink:href="#linearGradient1058"
       id="linearGradient1060"
       x1="93.492584"
       y1="29.032202"
       x2="93.492584"
       y2="48.83194"
       gradientUnits="userSpaceOnUse" />
    <filter
       style="color-interpolation-filters:sRGB;"
       inkscape:label="Drop Shadow"
       id="filter2823"
       x="-0.01874141"
       y="-0.091812975"
       width="1.0374828"
       height="1.2553548">
      <feFlood
         flood-opacity="1"
         flood-color="rgb(22,22,22)"
         result="flood"
         id="feFlood2813" />
      <feComposite
         in="flood"
         in2="SourceGraphic"
         operator="in"
         result="composite1"
         id="feComposite2815" />
      <feGaussianBlur
         in="composite1"
         stdDeviation="0.8"
         result="blur"
         id="feGaussianBlur2817" />
      <feOffset
         dx="0"
         dy="1.5"
         result="offset"
         id="feOffset2819" />
      <feComposite
         in="SourceGraphic"
         in2="offset"
         operator="over"
         result="composite2"
         id="feComposite2821" />
    </filter>
    <filter
       style="color-interpolation-filters:sRGB;"
       inkscape:label="Drop Shadow"
       id="filter4279"
       x="-0.0067750522"
       y="-0.091468208"
       width="1.0135501"
       height="1.1257688">
      <feFlood
         flood-opacity="0.890196"
         flood-color="rgb(22,22,22)"
         result="flood"
         id="feFlood4269" />
      <feComposite
         in="flood"
         in2="SourceGraphic"
         operator="in"
         result="composite1"
         id="feComposite4271" />
      <feGaussianBlur
         in="composite1"
         stdDeviation="0.1"
         result="blur"
         id="feGaussianBlur4273" />
      <feOffset
         dx="0"
         dy="-0.4"
         result="offset"
         id="feOffset4275" />
      <feComposite
         in="SourceGraphic"
         in2="offset"
         operator="over"
         result="composite2"
         id="feComposite4277" />
    </filter>
    <linearGradient
       inkscape:collect="always"
       xlink:href="#linearGradient1058"
       id="linearGradient4658"
       gradientUnits="userSpaceOnUse"
       x1="93.492584"
       y1="48.831936"
       x2="93.492584"
       y2="29.032202"
       gradientTransform="translate(0,44.149088)" />
  </defs>
  <g
     inkscape:label="Layer 1"
     inkscape:groupmode="layer"
     id="layer1">
    <g
       id="g4763">
      <rect
         style="fill:#9c9c9c;fill-opacity:0.99298298;stroke-width:0;stroke-linecap:round;stroke-linejoin:round;paint-order:stroke fill markers;stroke:#838383;stroke-opacity:1;stroke-dasharray:none;filter:url(#filter2823)"
         id="rect1074"
         width="102.44696"
         height="20.912083"
         x="42.269104"
         y="28.476028"
         ry="1.8909863"
         inkscape:export-filename="rect1074.png"
         inkscape:export-xdpi="52.0042"
         inkscape:export-ydpi="52.0042" />
      <rect
         style="fill:#2654c4;fill-opacity:0.99298298;stroke-width:1.21889;stroke-linecap:round;stroke-linejoin:round;paint-order:stroke fill markers;stroke:#60655f;stroke-opacity:1"
         id="rect188"
         width="102.44696"
         height="20.912083"
         x="42.269104"
         y="28.476028"
         ry="1.8909863" />
      <path
         id="rect896"
         style="fill:#edf2ff;fill-opacity:0.99298298;stroke:none;stroke-width:1.21889;stroke-linecap:round;stroke-linejoin:round;stroke-opacity:1;paint-order:stroke fill markers"
         d="m 44.160194,28.476028 c -1.047605,0 -1.891357,0.843236 -1.891357,1.890841 v 2.447396 H 144.71581 v -2.447396 c 0,-1.047605 -0.84324,-1.890841 -1.89084,-1.890841 z" />
      <path
         id="path1011"
         style="fill:#001955;fill-opacity:0.99298298;stroke:none;stroke-width:1.21889;stroke-linecap:round;stroke-linejoin:round;stroke-opacity:1;paint-order:stroke fill markers"
         d="m 44.160197,49.388111 c -1.047605,0 -1.891357,-0.843236 -1.891357,-1.890841 v -2.447396 h 102.44697 v 2.447396 c 0,1.047605 -0.84324,1.890841 -1.89084,1.890841 z" />
      <rect
         style="fill:url(#linearGradient1060);fill-opacity:1;stroke:none;stroke-width:1.18603;stroke-linecap:round;stroke-linejoin:round;stroke-opacity:1;paint-order:stroke fill markers"
         id="rect1013"
         width="102.44696"
         height="19.799738"
         x="42.269104"
         y="29.032202"
         ry="1.7904019" />
      <g
         aria-label="LOGIN"
         id="text3254"
         style="font-weight:bold;font-size:10.5833px;line-height:1.25;font-family:Garamond;-inkscape-font-specification:'Garamond Bold';letter-spacing:0px;word-spacing:0px;fill:#ffffff;stroke-width:0.264583;filter:url(#filter4279)">
        <path
           d="m 75.816721,42.260021 q 0.160196,-0.04651 0.449583,-0.08785 0.294555,-0.04651 0.346231,-0.04651 0.201538,-0.0052 0.268717,-0.06718 0.03101,-0.124023 0.03101,-0.206705 l -0.01034,-0.661456 0.03101,-0.671792 v -0.428913 l 0.0052,-0.506427 -0.01033,-0.537433 0.02067,-1.152381 0.0052,-0.521931 V 37.2991 q -0.03617,-0.542601 -0.07235,-0.594277 -0.03101,-0.05684 -0.294555,-0.139526 -0.02584,-0.01034 -0.19637,-0.07751 -0.12919,-0.05168 -0.232543,-0.07235 -0.180867,-0.04651 -0.253214,-0.108521 -0.01034,-0.134358 -0.01034,-0.206705 0,-0.04134 0.0052,-0.124023 0.04651,-0.02584 0.09818,-0.02584 0.124023,0 0.899167,0.04134 l 0.73897,-0.0052 0.547769,0.01034 q 0.356566,0 0.91467,-0.04651 0.165364,-0.0155 0.191202,-0.0155 0.07751,0 0.10852,0.04134 0.04134,0.05684 0.04134,0.206705 0,0.118856 -0.05684,0.180867 -0.03101,0.03617 -0.227375,0.06201 l -0.640786,0.149861 q -0.02584,0.01033 -0.08785,0.04134 -0.02067,0.03617 -0.03101,0.06201 l -0.0052,0.144694 -0.0155,0.325561 v 0.09302 l 0.0052,0.05684 q 0,0.02584 -0.0155,0.284219 -0.0052,0.06718 -0.0052,0.134358 0,0.08268 0.01033,0.279052 0.0155,0.310058 0.0155,0.542601 0,0.268717 -0.0155,0.614948 -0.0052,0.12919 -0.0052,0.335895 l -0.02067,2.449456 q 0,0.155028 0.05168,0.201537 l 0.490924,0.02067 0.30489,-0.0052 0.325561,0.01033 q 0.831988,0 1.307409,-0.191202 0.356566,-0.144694 0.465087,-0.289387 0.175699,-0.155029 0.284219,-0.335896 0.113688,-0.180867 0.253214,-0.599445 h 0.165364 q 0.124023,0 0.279052,0.02067 v 0.144693 q 0,0.37207 -0.09302,1.302242 -0.03617,0.37207 -0.07235,0.454752 -0.118856,0.02067 -0.149862,0.02067 h -0.191202 l -0.268716,0.0052 q -0.04651,0 -0.614948,-0.04134 -0.103352,-0.0052 -0.987017,-0.03617 -0.883664,-0.03101 -1.731155,-0.03101 l -1.054195,0.03101 q -0.60978,0.0155 -1.142046,0.05684 h -0.07751 q -0.03101,0 -0.09819,-0.0052 -0.01034,-0.05684 -0.01034,-0.09819 0,-0.217041 0.03617,-0.315226 z"
           id="path4730" />
        <path
           d="m 82.767179,39.25763 q 0,-0.640785 0.248046,-1.286739 0.180867,-0.465086 0.506427,-0.852658 0.325561,-0.387572 0.816486,-0.687295 0.490924,-0.30489 1.002519,-0.43408 0.511595,-0.134359 1.142046,-0.134359 1.074866,0 1.865513,0.403075 0.790647,0.403075 1.245398,1.09037 0.589109,0.893999 0.589109,1.875848 0,1.462438 -0.997352,2.506299 -0.992184,1.043861 -2.76468,1.043861 -0.439248,0 -0.821653,-0.05684 -0.289387,-0.04134 -0.506427,-0.113688 -0.39274,-0.129191 -0.439248,-0.149861 -0.563272,-0.320393 -0.904335,-0.656289 -0.341063,-0.335895 -0.578774,-0.759641 -0.129191,-0.237711 -0.294555,-0.857826 -0.10852,-0.397907 -0.10852,-0.930173 z m 3.519154,-2.883535 q -0.449584,0 -0.795815,0.211872 -0.346231,0.206705 -0.52193,0.459919 -0.294555,0.428913 -0.418578,0.940508 -0.124023,0.506427 -0.124023,1.235063 0,0.444416 0.03617,0.635618 0.01034,0.06201 0.03101,0.211873 0.04651,0.382404 0.10852,0.558103 0.222208,0.656289 0.315226,0.811318 0.155029,0.263549 0.459918,0.52193 0.155029,0.134358 0.449584,0.248046 0.294555,0.10852 0.589109,0.10852 0.558104,0 1.033526,-0.258381 0.480589,-0.263549 0.769976,-0.888832 0.289387,-0.625283 0.289387,-1.627802 0,-0.41341 -0.05684,-1.121375 l -0.02584,-0.09819 q -0.0155,-0.04134 -0.05168,-0.211873 -0.191202,-0.847491 -0.733803,-1.291907 -0.537433,-0.444415 -1.353918,-0.444415 z"
           id="path4732" />
        <path
           d="m 97.365725,36.430938 q 0.03617,0.149862 0.08268,0.594277 0.04651,0.439249 0.04651,0.640786 0,0.07751 -0.03617,0.191202 -0.222208,-0.0052 -0.377237,-0.04134 -0.392739,-0.604612 -0.552936,-0.759641 -0.299722,-0.289387 -0.769976,-0.490924 -0.346231,-0.149861 -0.795815,-0.149861 -0.862993,0 -1.519282,0.775144 -0.656288,0.775144 -0.656288,2.304761 0,0.7183 0.253213,1.395259 0.258382,0.676959 0.769977,1.064531 0.511595,0.382405 1.204057,0.382405 0.335895,0 0.713132,-0.08785 0.191202,-0.04134 0.310058,-0.165364 0.08268,-0.08268 0.10852,-0.248046 0.04134,-0.299722 0.04134,-0.852658 0,-0.537434 -0.0155,-0.738971 -0.03617,-0.07751 -0.07235,-0.09819 -0.031,-0.02584 -0.206705,-0.07751 l -0.459919,-0.124023 q -0.149861,-0.03617 -0.186034,-0.08785 -0.01034,-0.06718 -0.01034,-0.09819 0,-0.07235 0.03617,-0.201537 0.09302,-0.03101 0.129191,-0.03101 0.563271,0 0.976681,0.04134 0.144694,0.01034 0.315225,0.01034 l 0.816485,-0.01034 0.346231,-0.01033 q 0.06201,-0.0052 0.346231,0.01033 0.0052,0.134358 0.0052,0.227375 0,0.05684 -0.03617,0.129191 -0.08785,0.05168 -0.299723,0.129191 -0.211872,0.07751 -0.237711,0.103352 -0.04134,0.04134 -0.05684,0.129191 -0.0155,0.08785 -0.0155,0.614948 0,0.60978 -0.0052,0.728635 -0.02067,0.382404 -0.02067,0.434081 0,0.191202 -0.05168,0.23771 -0.144693,0.144694 -0.899167,0.330729 -0.749306,0.180866 -1.746658,0.180866 -0.697629,0 -1.214392,-0.10852 -0.511595,-0.113687 -0.873329,-0.330728 -0.485757,-0.289387 -0.831988,-0.702797 -0.346231,-0.41341 -0.516762,-0.893999 -0.237711,-0.682127 -0.237711,-1.359086 0,-0.759641 0.351398,-1.539953 0.258382,-0.563271 0.723468,-1.012855 0.470254,-0.454751 1.173051,-0.723468 0.702798,-0.268716 1.529618,-0.268716 0.103352,0 0.335896,0.02584 0.63045,0 1.178219,0.160196 0.547768,0.155029 0.909502,0.372069 z"
           id="path4734" />
        <path
           d="m 98.817828,42.688934 v -0.372069 q 0.103353,-0.03101 0.341064,-0.08785 0.335896,-0.08268 0.50126,-0.170532 0.09302,-0.160196 0.09302,-0.444416 l -0.0052,-0.60978 0.01033,-1.178219 -0.0052,-0.279052 q 0.03617,-1.02319 0.03617,-1.054196 l -0.01034,-0.687294 0.0155,-0.279052 -0.02584,-0.589109 -0.0052,-0.222208 q -0.0052,-0.05168 -0.03617,-0.165364 -0.211873,-0.09819 -0.687295,-0.124023 -0.113687,-0.0052 -0.180867,-0.0155 l -0.0155,-0.454751 1.477943,0.06201 q 0.27388,0.01034 0.34106,0.01034 0.30489,0 0.97668,-0.04134 0.37724,-0.02584 0.47542,-0.03101 0.005,0.09819 0.005,0.165364 0,0.08785 -0.0103,0.227375 -0.20671,0.07235 -0.47542,0.139526 -0.26355,0.06201 -0.43409,0.129191 -0.031,0.134358 -0.031,0.387572 0,0.222208 0.0155,0.361734 -0.0155,0.873329 -0.0155,1.343583 l 0.005,1.364253 -0.0155,0.692462 0.0103,1.033526 -0.005,0.196369 q 0,0.04134 0.0207,0.118856 0.31523,0.06718 0.57361,0.09302 0.0465,0.0052 0.31522,0.04134 0.0207,0.155029 0.0207,0.258381 0,0.05684 -0.005,0.1757 -0.0672,0 -0.10336,0.0052 -0.16536,0.01034 -0.1912,0.01034 -0.0362,0 -0.13436,-0.0155 -0.0723,-0.01034 -0.68729,-0.07235 l -0.91467,-0.01034 q -0.273885,0 -0.795816,0.05168 -0.341063,0.03101 -0.444416,0.03617 z"
           id="path4736" />
        <path
           d="m 102.64187,36.4051 -0.0207,-0.361734 h 0.43925 l 0.14986,-0.0052 q 0.31006,-0.0155 0.42891,-0.0155 0.062,0 0.36174,0.01033 0.0672,0.0052 0.11369,0.0052 0.0465,0 0.32556,-0.01033 0.27905,-0.01034 0.31522,-0.01034 0.0568,0 0.1602,0.0052 0.79581,0.723468 1.29707,1.245398 0.50126,0.52193 3.65868,3.653512 v -0.129191 l -0.0207,-0.599444 q -0.0155,-0.527098 -0.0413,-0.831988 -0.0258,-0.310058 -0.031,-0.733803 -0.005,-0.428913 -0.0362,-0.775144 -0.062,-0.676959 -0.062,-0.780312 -0.005,-0.335896 -0.0723,-0.408242 -0.10852,-0.113688 -0.49609,-0.170532 -0.28422,-0.04651 -0.42375,-0.118855 l 0.005,-0.30489 0.13436,-0.0155 1.01802,-0.03101 1.13688,-0.03101 q 0.11369,-0.0052 0.21704,-0.0052 l 0.005,0.335896 q -0.11886,0.06201 -0.24288,0.09302 -0.33073,0.07751 -0.3824,0.10852 -0.26355,0.149861 -0.28422,0.180867 -0.0465,0.06201 -0.0465,0.191202 0,0.03101 0.0103,0.21704 0.005,0.09302 0.005,0.434081 0.005,0.749306 0.0413,1.183386 0.0103,0.139526 0.0155,0.315226 l 0.0568,1.813837 q 0.005,0.191202 0.005,0.268716 v 0.635618 l 0.0155,0.268717 -0.0155,0.279052 q 0.0207,0.211872 0.0207,0.253213 v 0.273885 l -0.59428,0.02067 -0.61495,-0.635618 -1.25573,-1.245398 -0.8785,-0.878497 -0.64595,-0.661456 q -0.63045,-0.620115 -1.14721,-1.090369 l -0.84233,-0.759641 0.0465,1.922357 q 0.005,0.175699 0.005,0.361734 l -0.005,0.366901 0.031,0.676959 q 0.0155,0.423746 0.0568,0.919838 0.0103,0.134358 0.0258,0.191202 0.0155,0.05168 0.062,0.155029 0.20154,0.07235 0.8785,0.10852 0.0465,0.01033 0.13436,0.03617 l 0.0207,0.418577 -0.20154,0.0052 q -0.16537,0 -1.04386,-0.07751 -0.82165,0.01034 -1.09554,0.03101 -0.27388,0.02067 -0.29972,0.02067 -0.062,0 -0.17053,-0.02067 -0.0103,-0.118855 -0.0103,-0.206705 0,-0.05684 0.005,-0.186034 0.14469,-0.02584 0.23771,-0.02584 0.031,0 0.20154,0.01033 0.43408,0 0.51159,-0.06201 0.0827,-0.06718 0.093,-0.351398 0.0362,-0.821653 0.0362,-1.00252 v -0.284219 l 0.0103,-1.679479 -0.0155,-1.049028 q -0.005,-0.599445 -0.0775,-0.831988 -0.031,-0.118856 -0.11885,-0.206705 -0.18087,-0.186035 -0.40308,-0.279052 -0.13436,-0.05684 -0.69763,-0.144694 z"
           id="path4738" />
      </g>
    </g>
    <g
       id="g4776">
      <rect
         style="fill:#9c9c9c;fill-opacity:0.992983;stroke:#838383;stroke-width:0;stroke-linecap:round;stroke-linejoin:round;stroke-dasharray:none;stroke-opacity:1;paint-order:stroke fill markers;filter:url(#filter2823)"
         id="rect4644"
         width="102.44696"
         height="20.912083"
         x="42.269104"
         y="72.625114"
         ry="1.8909863" />
      <rect
         style="fill:#2654c4;fill-opacity:0.992983;stroke:#60655f;stroke-width:1.21889;stroke-linecap:round;stroke-linejoin:round;stroke-opacity:1;paint-order:stroke fill markers"
         id="rect4646"
         width="102.44696"
         height="20.912083"
         x="42.269104"
         y="72.625114"
         ry="1.8909863" />
      <path
         id="path4648"
         style="fill:#edf2ff;fill-opacity:0.992983;stroke:none;stroke-width:1.21889;stroke-linecap:round;stroke-linejoin:round;stroke-opacity:1;paint-order:stroke fill markers"
         d="m 44.160194,72.625116 c -1.047605,0 -1.891357,0.843236 -1.891357,1.890841 v 2.447396 H 144.71581 v -2.447396 c 0,-1.047605 -0.84324,-1.890841 -1.89084,-1.890841 z" />
      <path
         id="path4650"
         style="fill:#001955;fill-opacity:0.992983;stroke:none;stroke-width:1.21889;stroke-linecap:round;stroke-linejoin:round;stroke-opacity:1;paint-order:stroke fill markers"
         d="m 44.160197,93.537199 c -1.047605,0 -1.891357,-0.843236 -1.891357,-1.890841 v -2.447396 h 102.44697 v 2.447396 c 0,1.047605 -0.84324,1.890841 -1.89084,1.890841 z" />
      <rect
         style="fill:url(#linearGradient4658);fill-opacity:1;stroke:none;stroke-width:1.18603;stroke-linecap:round;stroke-linejoin:round;stroke-opacity:1;paint-order:stroke fill markers"
         id="rect4652"
         width="102.44696"
         height="19.799738"
         x="42.269104"
         y="73.18129"
         ry="1.7904019" />
      <g
         aria-label="LOGIN"
         id="text4656"
         style="font-weight:bold;font-size:10.5833px;line-height:1.25;font-family:Garamond;-inkscape-font-specification:'Garamond Bold';letter-spacing:0px;word-spacing:0px;fill:#ffffff;stroke-width:0.264583;filter:url(#filter4279)">
        <path
           d="m 75.816721,86.409107 q 0.160196,-0.04651 0.449583,-0.08785 0.294555,-0.04651 0.346231,-0.04651 0.201538,-0.0052 0.268717,-0.06718 0.03101,-0.124023 0.03101,-0.206705 l -0.01034,-0.661456 0.03101,-0.671792 v -0.428913 l 0.0052,-0.506427 -0.01033,-0.537433 0.02067,-1.152381 0.0052,-0.521931 v -0.07235 q -0.03617,-0.542601 -0.07235,-0.594277 -0.03101,-0.05684 -0.294555,-0.139526 -0.02584,-0.01034 -0.19637,-0.07751 -0.12919,-0.05168 -0.232543,-0.07235 -0.180867,-0.04651 -0.253214,-0.108521 -0.01034,-0.134358 -0.01034,-0.206705 0,-0.04134 0.0052,-0.124023 0.04651,-0.02584 0.09818,-0.02584 0.124023,0 0.899167,0.04134 l 0.73897,-0.0052 0.547769,0.01034 q 0.356566,0 0.91467,-0.04651 0.165364,-0.0155 0.191202,-0.0155 0.07751,0 0.10852,0.04134 0.04134,0.05684 0.04134,0.206705 0,0.118856 -0.05684,0.180867 -0.03101,0.03617 -0.227375,0.06201 l -0.640786,0.149861 q -0.02584,0.01033 -0.08785,0.04134 -0.02067,0.03617 -0.03101,0.06201 l -0.0052,0.144694 -0.0155,0.325561 v 0.09302 l 0.0052,0.05684 q 0,0.02584 -0.0155,0.284219 -0.0052,0.06718 -0.0052,0.134358 0,0.08268 0.01033,0.279052 0.0155,0.310058 0.0155,0.542601 0,0.268717 -0.0155,0.614948 -0.0052,0.12919 -0.0052,0.335895 l -0.02067,2.449456 q 0,0.155028 0.05168,0.201537 l 0.490924,0.02067 0.30489,-0.0052 0.325561,0.01033 q 0.831988,0 1.307409,-0.191202 0.356566,-0.144694 0.465087,-0.289387 0.175699,-0.155029 0.284219,-0.335896 0.113688,-0.180867 0.253214,-0.599445 h 0.165364 q 0.124023,0 0.279052,0.02067 v 0.144693 q 0,0.37207 -0.09302,1.302242 -0.03617,0.37207 -0.07235,0.454752 -0.118856,0.02067 -0.149862,0.02067 h -0.191202 l -0.268716,0.0052 q -0.04651,0 -0.614948,-0.04134 -0.103352,-0.0052 -0.987017,-0.03617 -0.883664,-0.03101 -1.731155,-0.03101 l -1.054195,0.03101 q -0.60978,0.0155 -1.142046,0.05684 h -0.07751 q -0.03101,0 -0.09819,-0.0052 -0.01034,-0.05684 -0.01034,-0.09819 0,-0.217041 0.03617,-0.315226 z"
           id="path4741" />
        <path
           d="m 82.767179,83.406716 q 0,-0.640785 0.248046,-1.286739 0.180867,-0.465086 0.506427,-0.852658 0.325561,-0.387572 0.816486,-0.687295 0.490924,-0.30489 1.002519,-0.43408 0.511595,-0.134359 1.142046,-0.134359 1.074866,0 1.865513,0.403075 0.790647,0.403075 1.245398,1.09037 0.589109,0.893999 0.589109,1.875848 0,1.462438 -0.997352,2.506299 -0.992184,1.043861 -2.76468,1.043861 -0.439248,0 -0.821653,-0.05684 -0.289387,-0.04134 -0.506427,-0.113688 -0.39274,-0.129191 -0.439248,-0.149861 -0.563272,-0.320393 -0.904335,-0.656289 -0.341063,-0.335895 -0.578774,-0.759641 -0.129191,-0.237711 -0.294555,-0.857826 -0.10852,-0.397907 -0.10852,-0.930173 z m 3.519154,-2.883535 q -0.449584,0 -0.795815,0.211872 -0.346231,0.206705 -0.52193,0.459919 -0.294555,0.428913 -0.418578,0.940508 -0.124023,0.506427 -0.124023,1.235063 0,0.444416 0.03617,0.635618 0.01034,0.06201 0.03101,0.211873 0.04651,0.382404 0.10852,0.558103 0.222208,0.656289 0.315226,0.811318 0.155029,0.263549 0.459918,0.52193 0.155029,0.134358 0.449584,0.248046 0.294555,0.10852 0.589109,0.10852 0.558104,0 1.033526,-0.258381 0.480589,-0.263549 0.769976,-0.888832 0.289387,-0.625283 0.289387,-1.627802 0,-0.41341 -0.05684,-1.121375 l -0.02584,-0.09818 q -0.0155,-0.04134 -0.05168,-0.211873 -0.191202,-0.847491 -0.733803,-1.291907 -0.537433,-0.444415 -1.353918,-0.444415 z"
           id="path4743" />
        <path
           d="m 97.365725,80.580024 q 0.03617,0.149862 0.08268,0.594277 0.04651,0.439249 0.04651,0.640786 0,0.07751 -0.03617,0.191202 -0.222208,-0.0052 -0.377237,-0.04134 -0.392739,-0.604612 -0.552936,-0.759641 -0.299722,-0.289387 -0.769976,-0.490924 -0.346231,-0.149861 -0.795815,-0.149861 -0.862993,0 -1.519282,0.775144 -0.656288,0.775144 -0.656288,2.304761 0,0.7183 0.253213,1.395259 0.258382,0.676959 0.769977,1.064531 0.511595,0.382405 1.204057,0.382405 0.335895,0 0.713132,-0.08785 0.191202,-0.04134 0.310058,-0.165364 0.08268,-0.08268 0.10852,-0.248046 0.04134,-0.299722 0.04134,-0.852658 0,-0.537434 -0.0155,-0.738971 -0.03617,-0.07751 -0.07235,-0.09819 -0.031,-0.02584 -0.206705,-0.07751 l -0.459919,-0.124023 q -0.149861,-0.03617 -0.186034,-0.08785 -0.01034,-0.06718 -0.01034,-0.09819 0,-0.07235 0.03617,-0.201537 0.09302,-0.03101 0.129191,-0.03101 0.563271,0 0.976681,0.04134 0.144694,0.01033 0.315225,0.01033 l 0.816485,-0.01033 0.346231,-0.01033 q 0.06201,-0.0052 0.346231,0.01033 0.0052,0.134358 0.0052,0.227375 0,0.05684 -0.03617,0.129191 -0.08785,0.05168 -0.299723,0.129191 -0.211872,0.07751 -0.237711,0.103352 -0.04134,0.04134 -0.05684,0.129191 -0.0155,0.08785 -0.0155,0.614948 0,0.60978 -0.0052,0.728635 -0.02067,0.382404 -0.02067,0.434081 0,0.191202 -0.05168,0.23771 -0.144693,0.144694 -0.899167,0.330729 -0.749306,0.180866 -1.746658,0.180866 -0.697629,0 -1.214392,-0.10852 -0.511595,-0.113687 -0.873329,-0.330728 -0.485757,-0.289387 -0.831988,-0.702797 -0.346231,-0.41341 -0.516762,-0.893999 -0.237711,-0.682127 -0.237711,-1.359086 0,-0.759641 0.351398,-1.539953 0.258382,-0.563271 0.723468,-1.012855 0.470254,-0.454751 1.173051,-0.723468 0.702798,-0.268716 1.529618,-0.268716 0.103352,0 0.335896,0.02584 0.63045,0 1.178219,0.160196 0.547768,0.155029 0.909502,0.372069 z"
           id="path4745" />
        <path
           d="m 98.817828,86.83802 v -0.372069 q 0.103353,-0.03101 0.341064,-0.08785 0.335896,-0.08268 0.50126,-0.170532 0.09302,-0.160196 0.09302,-0.444416 l -0.0052,-0.60978 0.01033,-1.178219 -0.0052,-0.279052 q 0.03617,-1.02319 0.03617,-1.054196 l -0.01034,-0.687294 0.0155,-0.279052 -0.02584,-0.589109 -0.0052,-0.222208 q -0.0052,-0.05168 -0.03617,-0.165364 -0.211873,-0.09819 -0.687295,-0.124023 -0.113687,-0.0052 -0.180867,-0.0155 l -0.0155,-0.454751 1.477943,0.06201 q 0.27388,0.01034 0.34106,0.01034 0.30489,0 0.97668,-0.04134 0.37724,-0.02584 0.47542,-0.03101 0.005,0.09819 0.005,0.165364 0,0.08785 -0.0103,0.227375 -0.20671,0.07235 -0.47542,0.139526 -0.26355,0.06201 -0.43409,0.129191 -0.031,0.134358 -0.031,0.387572 0,0.222208 0.0155,0.361734 -0.0155,0.873329 -0.0155,1.343583 l 0.005,1.364253 -0.0155,0.692462 0.0103,1.033526 -0.005,0.196369 q 0,0.04134 0.0207,0.118856 0.31523,0.06718 0.57361,0.09302 0.0465,0.0052 0.31522,0.04134 0.0207,0.155029 0.0207,0.258381 0,0.05684 -0.005,0.1757 -0.0672,0 -0.10336,0.0052 -0.16536,0.01034 -0.1912,0.01034 -0.0362,0 -0.13436,-0.0155 -0.0723,-0.01033 -0.68729,-0.07235 l -0.91467,-0.01034 q -0.273885,0 -0.795816,0.05168 -0.341063,0.03101 -0.444416,0.03617 z"
           id="path4747" />
        <path
           d="m 102.64187,80.554186 -0.0207,-0.361734 h 0.43925 l 0.14986,-0.0052 q 0.31006,-0.0155 0.42891,-0.0155 0.062,0 0.36174,0.01034 0.0672,0.0052 0.11369,0.0052 0.0465,0 0.32556,-0.01033 0.27905,-0.01034 0.31522,-0.01034 0.0568,0 0.1602,0.0052 0.79581,0.723468 1.29707,1.245398 0.50126,0.52193 3.65868,3.653512 v -0.129191 l -0.0207,-0.599444 q -0.0155,-0.527098 -0.0413,-0.831988 -0.0258,-0.310058 -0.031,-0.733803 -0.005,-0.428913 -0.0362,-0.775144 -0.062,-0.676959 -0.062,-0.780312 -0.005,-0.335896 -0.0723,-0.408242 -0.10852,-0.113688 -0.49609,-0.170532 -0.28422,-0.04651 -0.42375,-0.118855 l 0.005,-0.30489 0.13436,-0.0155 1.01802,-0.03101 1.13688,-0.03101 q 0.11369,-0.0052 0.21704,-0.0052 l 0.005,0.335896 q -0.11886,0.06201 -0.24288,0.09302 -0.33073,0.07751 -0.3824,0.10852 -0.26355,0.149861 -0.28422,0.180867 -0.0465,0.06201 -0.0465,0.191202 0,0.03101 0.0103,0.21704 0.005,0.09302 0.005,0.434081 0.005,0.749306 0.0413,1.183386 0.0103,0.139526 0.0155,0.315226 l 0.0568,1.813837 q 0.005,0.191202 0.005,0.268716 v 0.635618 l 0.0155,0.268717 -0.0155,0.279052 q 0.0207,0.211872 0.0207,0.253213 v 0.273885 l -0.59428,0.02067 -0.61495,-0.635618 -1.25573,-1.245398 -0.8785,-0.878497 -0.64595,-0.661456 q -0.63045,-0.620115 -1.14721,-1.090369 l -0.84233,-0.759641 0.0465,1.922357 q 0.005,0.175699 0.005,0.361734 l -0.005,0.366901 0.031,0.676959 q 0.0155,0.423746 0.0568,0.919838 0.0103,0.134358 0.0258,0.191202 0.0155,0.05168 0.062,0.155029 0.20154,0.07235 0.8785,0.10852 0.0465,0.01033 0.13436,0.03617 l 0.0207,0.418577 -0.20154,0.0052 q -0.16537,0 -1.04386,-0.07751 -0.82165,0.01033 -1.09554,0.031 -0.27388,0.02067 -0.29972,0.02067 -0.062,0 -0.17053,-0.02067 -0.0103,-0.118855 -0.0103,-0.206705 0,-0.05684 0.005,-0.186034 0.14469,-0.02584 0.23771,-0.02584 0.031,0 0.20154,0.01033 0.43408,0 0.51159,-0.06201 0.0827,-0.06718 0.093,-0.351398 0.0362,-0.821653 0.0362,-1.00252 v -0.284219 l 0.0103,-1.679479 -0.0155,-1.049028 q -0.005,-0.599445 -0.0775,-0.831988 -0.031,-0.118856 -0.11885,-0.206705 -0.18087,-0.186035 -0.40308,-0.279052 -0.13436,-0.05684 -0.69763,-0.144694 z"
           id="path4749" />
      </g>
    </g>
  </g>
</svg>
