<?xml version="1.0" encoding="UTF-8" standalone="no"?>
<!-- Created with Inkscape (http://www.inkscape.org/) -->

<svg
   width="210mm"
   height="297mm"
   viewBox="0 0 210 297"
   version="1.1"
   id="svg5"
   xml:space="preserve"
   inkscape:version="1.2.1 (9c6d41e410, 2022-07-14)"
   sodipodi:docname="cat.svg"
   xmlns:inkscape="http://www.inkscape.org/namespaces/inkscape"
   xmlns:sodipodi="http://sodipodi.sourceforge.net/DTD/sodipodi-0.dtd"
   xmlns:xlink="http://www.w3.org/1999/xlink"
   xmlns="http://www.w3.org/2000/svg"
   xmlns:svg="http://www.w3.org/2000/svg"><sodipodi:namedview
     id="namedview7"
     pagecolor="#ffffff"
     bordercolor="#000000"
     borderopacity="0.25"
     inkscape:showpageshadow="2"
     inkscape:pageopacity="0.0"
     inkscape:pagecheckerboard="0"
     inkscape:deskcolor="#d1d1d1"
     inkscape:document-units="mm"
     showgrid="false"
     inkscape:zoom="0.8409652"
     inkscape:cx="-86.210464"
     inkscape:cy="495.85881"
     inkscape:window-width="2560"
     inkscape:window-height="1377"
     inkscape:window-x="1272"
     inkscape:window-y="-8"
     inkscape:window-maximized="1"
     inkscape:current-layer="layer1" /><defs
     id="defs2"><linearGradient
       inkscape:collect="always"
       id="linearGradient1249"><stop
         style="stop-color:#764e28;stop-opacity:1;"
         offset="0"
         id="stop1245" /><stop
         style="stop-color:#764e28;stop-opacity:0;"
         offset="1"
         id="stop1247" /></linearGradient><linearGradient
       inkscape:collect="always"
       id="linearGradient1241"><stop
         style="stop-color:#764e28;stop-opacity:1;"
         offset="0"
         id="stop1237" /><stop
         style="stop-color:#764e28;stop-opacity:0;"
         offset="1"
         id="stop1239" /></linearGradient><linearGradient
       inkscape:collect="always"
       id="linearGradient1169"><stop
         style="stop-color:#764e28;stop-opacity:1;"
         offset="0"
         id="stop1165" /><stop
         style="stop-color:#764e28;stop-opacity:0;"
         offset="1"
         id="stop1167" /></linearGradient><linearGradient
       inkscape:collect="always"
       id="linearGradient1138"><stop
         style="stop-color:#764e28;stop-opacity:1;"
         offset="0"
         id="stop1134" /><stop
         style="stop-color:#764e28;stop-opacity:0;"
         offset="1"
         id="stop1136" /></linearGradient><linearGradient
       inkscape:collect="always"
       id="linearGradient3551"><stop
         style="stop-color:#624730;stop-opacity:0.68855536;"
         offset="0"
         id="stop3547" /><stop
         style="stop-color:#86796d;stop-opacity:0.22701688;"
         offset="1"
         id="stop3549" /></linearGradient><linearGradient
       inkscape:collect="always"
       id="linearGradient3456"><stop
         style="stop-color:#8c5e31;stop-opacity:0.83677298;"
         offset="0"
         id="stop3452" /><stop
         style="stop-color:#303030;stop-opacity:0.0956848;"
         offset="1"
         id="stop3454" /></linearGradient><linearGradient
       inkscape:collect="always"
       id="linearGradient10443"><stop
         style="stop-color:#4a3119;stop-opacity:0;"
         offset="0"
         id="stop10439" /><stop
         style="stop-color:#543a21;stop-opacity:0;"
         offset="0.14666317"
         id="stop10465" /><stop
         style="stop-color:#593f25;stop-opacity:0.70919329;"
         offset="0.20796941"
         id="stop10463" /><stop
         style="stop-color:#816345;stop-opacity:0.27954972;"
         offset="1"
         id="stop10441" /></linearGradient><linearGradient
       inkscape:collect="always"
       id="linearGradient10356"><stop
         style="stop-color:#bc864f;stop-opacity:0.45403376;"
         offset="0"
         id="stop10352" /><stop
         style="stop-color:#724b24;stop-opacity:0.96060038;"
         offset="1"
         id="stop10354" /></linearGradient><linearGradient
       inkscape:collect="always"
       id="linearGradient9865"><stop
         style="stop-color:#9b7a63;stop-opacity:0.23076926;"
         offset="0"
         id="stop9861" /><stop
         style="stop-color:#a55100;stop-opacity:1;"
         offset="1"
         id="stop9863" /></linearGradient><linearGradient
       inkscape:collect="always"
       id="linearGradient2286"><stop
         style="stop-color:#703f10;stop-opacity:0.44465292;"
         offset="0"
         id="stop2282" /><stop
         style="stop-color:#502800;stop-opacity:1;"
         offset="1"
         id="stop2284" /></linearGradient><linearGradient
       inkscape:collect="always"
       id="linearGradient2269"><stop
         style="stop-color:#f08115;stop-opacity:1;"
         offset="0"
         id="stop2265" /><stop
         style="stop-color:#8b5625;stop-opacity:1;"
         offset="1"
         id="stop2267" /></linearGradient><linearGradient
       inkscape:collect="always"
       xlink:href="#linearGradient2269"
       id="linearGradient2271"
       x1="60.292366"
       y1="59.388039"
       x2="79.768623"
       y2="48.120773"
       gradientUnits="userSpaceOnUse" /><linearGradient
       inkscape:collect="always"
       xlink:href="#linearGradient2286"
       id="linearGradient2288"
       x1="78.142227"
       y1="108.67609"
       x2="85.817413"
       y2="102.94751"
       gradientUnits="userSpaceOnUse" /><linearGradient
       inkscape:collect="always"
       xlink:href="#linearGradient9865"
       id="linearGradient9867"
       x1="85.325912"
       y1="112.84228"
       x2="91.150398"
       y2="108.24022"
       gradientUnits="userSpaceOnUse" /><linearGradient
       inkscape:collect="always"
       xlink:href="#linearGradient10356"
       id="linearGradient10358"
       x1="61.846375"
       y1="143.93742"
       x2="72.302414"
       y2="146.82953"
       gradientUnits="userSpaceOnUse" /><linearGradient
       inkscape:collect="always"
       xlink:href="#linearGradient10443"
       id="linearGradient10445"
       x1="60.912739"
       y1="137.93867"
       x2="68.40921"
       y2="140.37793"
       gradientUnits="userSpaceOnUse" /><linearGradient
       inkscape:collect="always"
       xlink:href="#linearGradient3456"
       id="linearGradient3458"
       x1="52.305351"
       y1="138.2749"
       x2="55.333553"
       y2="138.62883"
       gradientUnits="userSpaceOnUse" /><linearGradient
       inkscape:collect="always"
       xlink:href="#linearGradient3551"
       id="linearGradient3553"
       x1="54.311043"
       y1="132.13983"
       x2="58.597721"
       y2="132.13983"
       gradientUnits="userSpaceOnUse" /><linearGradient
       inkscape:collect="always"
       xlink:href="#linearGradient1138"
       id="linearGradient1140"
       x1="113.42002"
       y1="117.98199"
       x2="124.66764"
       y2="119.47643"
       gradientUnits="userSpaceOnUse" /><linearGradient
       inkscape:collect="always"
       xlink:href="#linearGradient1169"
       id="linearGradient1171"
       x1="127.97114"
       y1="125.6115"
       x2="119.63374"
       y2="128.36441"
       gradientUnits="userSpaceOnUse" /><linearGradient
       inkscape:collect="always"
       xlink:href="#linearGradient1241"
       id="linearGradient1243"
       x1="116.72352"
       y1="133.3983"
       x2="122.70127"
       y2="135.44333"
       gradientUnits="userSpaceOnUse" /><linearGradient
       inkscape:collect="always"
       xlink:href="#linearGradient1249"
       id="linearGradient1251"
       x1="120.81356"
       y1="148.97192"
       x2="116.48756"
       y2="144.09534"
       gradientUnits="userSpaceOnUse" /></defs><g
     inkscape:label="Layer 1"
     inkscape:groupmode="layer"
     id="layer1"><g
       id="g7207"
       inkscape:label="Cat"
       style="display:inline"
       transform="matrix(0.53881811,0,0,0.53881811,-5.1693722,-8.4899252)"><g
         id="g25800"
         inkscape:label="Body"><g
           id="g3560"><path
             style="display:inline;fill:#f08115;fill-opacity:1;stroke-width:0.799999"
             d="m 55.766154,122.26867 c 0,0 -0.117983,3.14619 -0.314618,4.64062 -0.196636,1.49444 -0.393274,4.56198 -0.943856,6.41036 -0.550582,1.84839 -1.258475,5.19121 -1.848385,6.25305 -0.589909,1.06183 -1.92704,4.05071 -1.92704,4.05071 l 11.680219,9.3599 4.758606,-19.97828 z"
             id="path2758" /><path
             id="path3382"
             style="fill:url(#linearGradient3553);fill-opacity:1;stroke-width:0.799999"
             d="m 55.652417,131.18993 c -0.233397,-9.2e-4 -0.468165,0.0197 -0.702799,0.0667 -0.0033,6.6e-4 -0.007,0.001 -0.01034,0.002 -0.09615,0.62565 -0.20956,1.22664 -0.346749,1.75287 0.252502,-0.12616 0.494657,-0.25217 0.690914,-0.36432 0.778639,-0.44492 1.445964,-0.44524 2.50269,-0.38964 1.056726,0.0556 1.779736,0.44493 1.779736,0.44493 0,0 -1.390218,-0.88979 -2.16886,-1.16788 -0.559649,-0.19987 -1.148136,-0.34234 -1.744596,-0.34468 z" /><path
             id="path3384"
             style="fill:url(#linearGradient3458);fill-opacity:1;stroke-width:0.799999"
             d="m 53.331112,137.70632 c -0.161384,0.55966 -0.320841,1.05835 -0.475424,1.44023 0.274227,-0.0448 0.542629,-0.0875 0.787033,-0.12454 0.07258,-0.0113 1.497733,-0.14514 2.438094,-0.27544 -0.275291,-0.31462 -1.061884,-0.66848 -1.494483,-0.82579 -0.357077,-0.12981 -0.768852,-0.17903 -1.25522,-0.21446 z" /></g><g
           id="g25790"><path
             style="opacity:1;fill:#ffde73;fill-opacity:1;stroke-width:0.264583"
             d="m 104.45339,149.75847 c 2.93355,-0.45593 6.40458,-0.74389 8.22538,-3.43839 2.56818,-3.21499 4.28493,-7.17175 4.48918,-11.30905 0.74095,-8.85746 -1.37599,-17.62353 -1.70945,-26.44274 0.24772,-4.5206 2.20656,-8.876986 4.99094,-12.399367 1.62501,-1.939948 4.12916,-3.075121 6.66668,-2.825308 4.60202,-0.307644 9.18484,1.84104 11.94057,5.532314 1.38943,1.796181 4.32723,4.882911 1.92459,6.940981 -2.66855,0.25731 -5.34237,-0.7895 -8.0396,-0.84477 -2.67665,0.43375 -4.60605,3.34442 -4.87636,5.9646 -2.21957,8.46065 -0.59281,17.2747 -1.76631,25.85353 -0.0986,3.32539 -1.87112,6.30891 -3.63058,9.0194 -1.97798,1.99781 -4.60346,3.39214 -7.28252,4.17646 -3.54641,0.93626 -7.52331,1.48957 -10.93252,-0.22766 z"
             id="path24300" /><path
             id="path24307"
             style="opacity:1;fill:#f08115;fill-opacity:1;stroke-width:0.264583"
             d="m 127.68626,112.55902 c -0.10227,0.0233 -0.20519,0.0422 -0.30695,0.0692 0.0916,0.24462 0.13931,0.48113 0.15554,0.70848 0.0473,-0.25942 0.0979,-0.51888 0.15141,-0.77773 z m -5.73866,0.42478 c -1.71431,0.104 -3.43668,3.344 -5.56091,2.78588 -0.12972,-0.17344 -0.26656,-0.3426 -0.40669,-0.50953 0.70129,6.57274 1.74136,13.13625 1.18804,19.75073 -0.20425,4.1373 -1.92095,8.0944 -4.48913,11.30939 -1.8208,2.6945 -5.29179,2.9821 -8.22534,3.43803 3.40921,1.71723 7.38575,1.16415 10.93215,0.22789 2.67906,-0.78432 5.30478,-2.17868 7.28276,-4.17649 1.75946,-2.71048 3.53219,-5.69421 3.63079,-9.0196 1.01605,-7.42782 -0.0657,-15.03173 1.06608,-22.43016 -0.75682,1.74875 -3.67964,2.26402 -3.97081,-0.5736 -0.48731,-0.61478 -0.96694,-0.83166 -1.44694,-0.80254 z" /><path
             id="path24313"
             style="opacity:0.922118;fill:url(#linearGradient1140);fill-opacity:1;stroke-width:0.264583"
             d="m 116.16759,116.95927 c 0.0962,0.84862 0.19257,1.69748 0.29042,2.5461 0.72485,-0.31248 1.50986,-0.48634 2.3027,-0.44339 1.80274,0.15879 3.58658,0.47943 5.37693,0.73743 -2.25151,-0.98713 -4.45853,-2.13988 -6.87296,-2.68253 -0.36486,-0.0581 -0.73066,-0.10883 -1.09709,-0.15761 z" /><path
             id="path24319"
             style="opacity:0.996885;fill:url(#linearGradient1171);fill-opacity:1;stroke-width:0.264583"
             d="m 126.78916,124.7252 c -0.86222,0.44323 -1.73937,0.85833 -2.65824,1.17358 -1.22292,0.48223 -2.55942,1.00302 -3.33002,2.13216 1.96949,-0.53623 3.94679,-1.12989 5.98723,-1.31878 5e-5,-0.66248 5.3e-4,-1.32466 0.001,-1.98696 z" /><path
             id="path24324"
             style="opacity:1;fill:url(#linearGradient1243);fill-opacity:1;stroke-width:0.264583"
             d="m 117.29982,132.66787 c -0.0147,0.47707 -0.0365,0.9544 -0.0661,1.43196 1.7,0.13908 3.3637,0.65312 4.90203,1.38389 -0.84141,-0.98254 -2.01114,-1.60105 -3.16105,-2.14974 -0.55301,-0.23471 -1.11697,-0.44313 -1.67483,-0.66611 z" /><path
             id="path24329"
             style="opacity:0.894081;fill:url(#linearGradient1251);fill-opacity:1;stroke-width:0.264583"
             d="m 117.67292,144.78703 c -0.357,-9e-5 -0.70994,0.0758 -1.03043,0.25528 -0.40499,0.16748 0.19311,0.17341 0.34779,0.26407 0.59766,0.20324 1.20974,0.39277 1.75958,0.70796 0.44174,0.28152 0.535,0.83589 0.74827,1.27641 0.11865,0.24536 0.22544,0.49588 0.32143,0.75034 0.34498,-0.21071 0.68088,-0.43446 1.00821,-0.66972 -0.28245,-0.4282 -0.56149,-0.85851 -0.81442,-1.30535 -0.22881,-0.41205 -0.5531,-0.79033 -1.00408,-0.96273 -0.41194,-0.19061 -0.87735,-0.31615 -1.33635,-0.31626 z" /><path
             id="path24302"
             style="opacity:0.511194;fill:#98480b;fill-opacity:1;stroke-width:0.264583"
             d="m 134.55509,100.01405 c -4.51729,-0.109438 -9.29962,2.87434 -9.75547,6.76393 -2.38135,9.86753 -0.46321,18.814 -1.74202,27.42468 -0.8026,3.55559 -1.59439,7.39914 -4.34495,10.01179 -1.68593,2.77908 -4.18988,5.22563 -7.42487,6.00429 -0.46125,0.35526 -1.21815,0.51663 -2.01745,0.64802 2.05768,0.0366 4.15223,-0.36229 6.11539,-0.88057 2.67906,-0.78432 5.30478,-2.17868 7.28276,-4.17649 1.75946,-2.71048 3.53219,-5.69421 3.63079,-9.0196 1.1735,-8.57882 -0.45327,-17.39256 1.7663,-25.8532 0.27031,-2.62018 2.19954,-5.53126 4.87619,-5.96501 2.69722,0.0553 5.37075,1.10222 8.0393,0.84491 0.32898,-0.2818 0.55535,-0.58321 0.70176,-0.89762 -0.3124,-0.92022 -0.72237,-1.79709 -1.37821,-2.56264 -1.44417,-1.73748 -3.57234,-2.31767 -5.74952,-2.34249 z"
             sodipodi:nodetypes="ccccccccccccccc" /></g><g
           id="g377"
           style="display:inline"><path
             style="display:inline;opacity:1;fill:#f08115;fill-opacity:1;stroke-width:0.264583"
             d="m 64.968749,98.790253 -4.66048,19.041897 1.927427,18.65257 c 0,0 -0.778643,3.33703 -1.056728,4.00444 -0.278087,0.6674 -1.779751,4.78308 -1.779751,4.78308 l -1.056727,1.83537 c 0,0 2.057836,6.50722 2.725242,6.06228 0.667409,-0.44494 12.013327,0.3337 12.013327,0.3337 l 14.349248,2.11346 10.789746,1.11234 c 0,0 5.895427,-2.44716 6.896537,-2.8921 1.00111,-0.44493 3.11457,-2.11345 3.5595,-2.78086 0.44494,-0.6674 2.00222,-3.11456 2.44716,-4.00444 0.44494,-0.88987 1.55728,-2.78086 1.89099,-3.78197 0.3337,-1.00111 1.77975,-5.11679 1.77975,-6.56283 0,-1.44605 0.11123,-4.00445 -0.66741,-6.22914 -0.77864,-2.22469 -1.77975,-4.56061 -3.00333,-6.56283 -1.22358,-2.00222 -5.22802,-6.1179 -7.00777,-7.56395 -1.77975,-1.44605 -5.561724,-4.33814 -7.452712,-5.56172 -1.890985,-1.22358 -5.895427,-3.78197 -7.452709,-4.67185 -1.557285,-0.88987 -3.337036,-2.11345 -5.005552,-3.2258 -1.668518,-1.11234 -2.780863,-1.55728 -4.449381,-3.337035 -1.668516,-1.779752 -7.341474,-1.446048 -7.341474,-1.446048 z"
             id="path43423"
             sodipodi:nodetypes="cccsccscccsssssssssssscc" /><path
             style="display:inline;opacity:1;fill:#e57609;fill-opacity:1;stroke-width:0.799999"
             d="m 61.12335,147.55255 c 2.935115,-0.96744 5.856665,-1.98012 8.731909,-3.11457 -1.65657,-3.11421 -2.480774,-6.61453 -2.995471,-10.07688 -0.166709,-3.21981 0.176426,-6.61601 2.01412,-9.38307 1.232079,-1.85517 2.755433,-3.51464 4.75951,-4.54623 4.215545,-2.16993 7.828048,-3.98055 13.713116,-3.37968 1.344568,-0.0777 4.26704,0.27355 2.898552,2.29209 -1.716899,6.71461 -3.433801,13.42923 -5.150703,20.14384 -2.243226,3.89321 -4.486462,7.78641 -6.729688,11.67962 l -9.566166,1.83537 z"
             id="path11373"
             sodipodi:nodetypes="cccsscccccc" /><path
             id="path8182"
             style="display:inline;opacity:1;fill:#cc5c06;fill-opacity:1;stroke-width:0.799999"
             d="m 73.326274,98.084452 c -0.55791,0.0035 -0.912606,0.02429 -0.912606,0.02429 l -7.445024,0.681612 -1.388546,5.673036 c 2.368379,0.18015 4.741816,0.30353 7.112745,0.42943 2.22399,-0.0488 4.463229,-0.0374 6.67091,-0.33228 2.012859,-0.49242 4.099749,-0.73001 6.059579,-1.41128 0.190042,-0.11973 0.38583,-0.24953 0.580843,-0.38706 -1.556537,-1.01611 -2.649772,-1.50188 -4.248836,-3.207551 -1.251386,-1.334813 -4.755336,-1.480623 -6.429065,-1.470195 z" /><path
             style="opacity:1;fill:#d24e09;fill-opacity:1;stroke-width:0.799999"
             d="m 59.60057,144.62626 c 0.629517,-1.46833 1.188898,-2.97378 1.724256,-4.47809 0.277683,-1.25029 0.707086,-2.49489 0.867281,-3.75353 -0.26777,-0.94525 -0.715826,-1.85447 -0.863287,-2.82376 l -0.686077,-9.4145 c 1.185975,-3.09426 2.313171,-6.21636 3.535842,-9.29324 0.963313,-1.61125 1.830418,-3.28587 2.854944,-4.85681 0.310247,-0.4156 0.620495,-0.83121 0.930742,-1.24681 0.355639,1.97718 0.07134,4.08013 -1.005893,5.80114 -1.139909,1.93719 -2.678022,3.66771 -3.356355,5.85394 -0.659326,1.72467 -1.06408,3.54969 -1.324334,5.37242 -0.225506,3.19107 -0.03821,6.44487 0.347326,9.61316 0.286878,1.56375 -0.205705,2.60325 -0.533417,3.93411 -0.590418,1.89855 -1.373881,3.73253 -2.083203,5.58888 -0.145337,0.66684 -0.253832,0.11854 -0.368329,-0.18766 l -0.02551,-0.0706 z"
             id="path8805"
             sodipodi:nodetypes="ccccccccccccccccc" /><path
             style="display:inline;opacity:1;fill:#fad049;fill-opacity:1;stroke-width:0.264583"
             d="m 56.785205,98.220053 c -2.125698,1.657888 -4.320792,3.270777 -6.134842,5.276607 -1.041913,1.44845 0.543065,2.65182 1.707009,2.9128 -1.01098,1.10793 -1.391087,2.64332 -1.172027,4.16121 0.02933,1.68752 2.579927,-0.0574 1.965527,1.76961 -0.263361,1.89546 -0.14598,3.83533 0.0035,5.74235 0.375062,3.35977 1.772522,6.50506 3.248878,9.51062 1.095395,2.18488 2.309165,4.30718 3.845107,6.21507 0.632518,0.69808 1.720101,2.71229 1.946861,2.62066 -0.769337,-5.48164 -1.059245,-11.27547 0.92337,-16.55166 1.158342,-2.37931 2.802907,-4.45764 3.992579,-6.81481 0.529977,-1.0452 0.105788,-2.72896 0.670644,-3.52966 0.714441,0.46446 2.280477,2.32728 2.373341,0.42058 -0.197502,-2.18954 -0.956405,-4.48082 -2.486585,-6.0249 1.102597,0.46509 3.603453,0.94264 2.683622,-1.09824 -0.298715,-1.69614 -1.496812,-3.356588 -3.333051,-3.466725 -3.363794,-0.725706 -6.811691,-0.893493 -10.233894,-1.143512 z"
             id="path43425"
             sodipodi:nodetypes="scccccccccccccccss" /><path
             id="path43427"
             style="opacity:1;fill:#ffde73;fill-opacity:1;stroke-width:0.264583"
             d="m 56.785164,98.219845 c -2.125695,1.657886 -4.320977,3.270855 -6.135026,5.276685 -1.041912,1.44844 0.543447,2.65202 1.70739,2.913 -1.010979,1.10792 -1.391082,2.64309 -1.172022,4.16098 0.02933,1.68752 2.579654,-0.0571 1.965255,1.76992 -0.263361,1.89546 -0.145863,3.83527 0.0036,5.74228 0.140545,1.25899 0.424508,2.48805 0.802535,3.69074 0.09629,0.16861 0.223705,0.38893 0.269751,0.47335 0.333706,0.61179 0.667657,1.39054 1.112594,2.11357 0.444938,0.72302 1.278923,1.55714 1.557011,1.89084 0.278084,0.33371 1.056712,1.11253 1.779736,1.83555 0.723023,0.72302 0.667724,0.38931 0.834574,0 0.166852,-0.38932 0.166787,-1.16814 0.27802,-1.83555 0.111236,-0.6674 0,-1.0569 0,-1.39061 0,-0.3337 0.111104,-1.66851 0.111104,-2.22467 0,-0.55617 0.22266,-1.94664 0.500745,-2.83652 0.278087,-0.88987 0.72308,-1.66844 1.056783,-2.50269 0.333702,-0.83426 1.557072,-1.77954 2.168859,-2.6138 0.611791,-0.83426 1.168147,-2.66992 1.390613,-3.50418 0.22247,-0.83426 0.444869,-1.66818 0.722954,-2.72489 0.278086,-1.05673 0.33344,-1.00143 0.667142,-1.27951 0.333704,-0.27809 0.611972,7e-5 1.390613,-0.27802 0.778641,-0.27808 0.05575,-0.55604 -0.111104,-1.00097 -0.166854,-0.44494 -0.834185,-0.77851 -1.167888,-1.00098 -0.333702,-0.22247 -0.611847,-0.6121 -1.056783,-1.72444 -0.444939,-1.11235 0.778309,-0.16661 1.390096,-0.22221 0.611791,-0.0556 1.001361,-0.33383 1.112594,-0.77876 0.111234,-0.44494 -0.500676,-0.61211 -0.778764,-0.83458 -0.278085,-0.22247 -1.668632,-1.946131 -1.668632,-1.946131 l -3.119706,-0.727088 c -1.866423,-0.191765 -3.743079,-0.304773 -5.612061,-0.441316 z" /><path
             id="path12130"
             style="display:inline;opacity:1;fill:#e57609;fill-opacity:1;stroke-width:0.799999"
             d="m 114.69584,133.23011 c -0.28644,0.56154 -0.62178,1.15986 -0.79168,1.36374 -2.08052,2.29195 -4.71007,4.47097 -7.78661,3.72639 l 0.50075,7.61917 -0.0419,6.99027 c 0.89926,-0.65467 1.82265,-1.45782 2.09961,-1.87327 0.44494,-0.6674 2.00246,-3.11452 2.4474,-4.0044 0.44494,-0.88987 1.55713,-2.78109 1.89084,-3.7822 0.3337,-1.00111 1.77974,-5.11635 1.77974,-6.56239 0,-0.86396 0.0359,-2.12763 -0.0982,-3.47731 z"
             sodipodi:nodetypes="cccccsssscc" /></g><g
           id="g39669"><path
             style="opacity:1;fill:#a9712a;fill-opacity:1;stroke-width:0.264583"
             d="m 55.530191,141.18512 c -1.426596,-0.57088 -3.009249,-0.5037 -4.518726,-0.47827 -1.881808,0.1172 -3.737559,0.74757 -5.314894,1.77614 -1.207325,0.88437 -2.171805,2.1108 -2.614393,3.55163 -0.541292,1.33438 0.154495,2.70636 0.698972,3.91066 0.45025,0.97551 1.104016,1.90657 2.105548,2.373 1.58073,0.82898 3.370657,1.20675 5.139344,1.34067 1.406442,-0.004 2.791926,-0.34914 4.151316,-0.67988 1.138078,-0.30695 2.148865,-0.96324 3.085777,-1.65962 1.331688,-1.11963 2.642746,-2.65865 2.531559,-4.50927 -0.130503,-1.79571 -1.390388,-3.27581 -2.724981,-4.37145 -0.795151,-0.5123 -1.671806,-0.88386 -2.539522,-1.25361 z"
             id="path25943"
             sodipodi:nodetypes="ccsssssssscccc" /><path
             id="path30301"
             style="opacity:0.88806;fill:#ffde73;fill-opacity:1;stroke-width:0.268805"
             d="m 51.031884,141.1579 c -2.811556,0.21753 -5.847969,1.43677 -7.198436,4.05492 -0.542448,0.95722 -0.778503,2.11613 -0.310381,3.15251 0.569408,1.50434 1.309738,3.20685 2.967849,3.77002 2.200123,0.94733 4.709332,1.37727 7.060949,0.75696 2.024283,-0.28948 3.932729,-1.24051 5.339046,-2.72219 1.183221,-1.12752 1.979565,-2.90251 1.263368,-4.49224 -0.763346,-1.81242 -2.368667,-3.17639 -4.2081,-3.83969 -1.522568,-0.77074 -3.255012,-0.71487 -4.914295,-0.68029 z" /><path
             id="path30319"
             style="opacity:1;fill:#f8cb3c;fill-opacity:1;stroke-width:0.264583"
             d="m 43.526542,145.86707 c -0.304164,0.80462 -0.369324,1.68839 -0.0036,2.49803 0.569407,1.50434 1.309668,3.20715 2.967777,3.77032 2.097542,0.90316 4.476357,1.33525 6.731372,0.83612 -0.324326,-0.0996 -0.642171,-0.2149 -0.945678,-0.36432 -0.682596,-0.21218 -0.430321,-1.535 -1.24902,-1.24592 -0.704479,0.1688 -1.50857,0.61176 -2.154907,0.0217 -0.720927,-0.37734 -0.916678,-1.22529 -0.996838,-1.96991 -0.115291,-0.59522 0.164042,-2.09927 -0.879533,-1.69964 -0.814888,0.23876 -0.998181,1.16951 -1.12758,1.8924 0.234805,0.71127 -0.384429,0.48476 -0.767912,0.21652 -0.841755,-0.49359 -1.012779,-1.50915 -1.300179,-2.358 -0.168005,-0.52248 -0.24672,-1.05749 -0.273885,-1.59731 z" /><path
             id="path30304"
             style="opacity:1;fill:#955718;fill-opacity:1;stroke-width:0.264583"
             d="m 50.614482,145.90427 c 0,0 -1.140825,0.472 -2.045354,0.70797 -0.904527,0.23596 -0.589703,0.27542 -1.297595,0.66869 -0.707889,0.39327 -0.590078,0.55042 -1.022676,1.25832 -0.432606,0.70789 -0.157198,0.94379 -0.07855,1.57303 0.07866,0.62924 0.393191,1.25881 0.82579,2.04536 0.130956,0.2381 0.272661,0.52298 0.406693,0.8046 0.435567,0.14718 0.880151,0.26929 1.330152,0.36845 -0.131253,-0.32117 -0.279031,-0.68421 -0.399459,-0.97668 -0.275291,-0.66857 -0.471951,-0.9439 -0.747241,-1.49448 -0.275291,-0.55059 -0.432588,-0.94384 -0.393258,-1.92702 0.03932,-0.98318 0.589561,-0.94354 1.02216,-1.37614 0.432601,-0.4326 0.786698,-0.55091 1.415934,-0.90486 0.629237,-0.35394 0.983403,-0.74724 0.983403,-0.74724 z" /><path
             id="path30309"
             style="opacity:1;fill:#975619;fill-opacity:1;stroke-width:0.264583"
             d="m 46.642114,144.7245 c 0,0 -0.786523,0.23609 -1.927014,0.66869 -0.489167,0.18826 -1.118841,0.62235 -1.651579,1.33687 -0.05801,0.11602 -0.112746,0.32247 -0.167948,0.57103 0.03902,0.51871 0.198905,1.03309 0.397392,1.53169 0.143219,-0.64265 0.310974,-0.86853 0.478523,-1.23714 0.196636,-0.4326 0.275369,-0.62935 0.707968,-1.06195 0.432601,-0.4326 0.904214,-0.78661 1.376143,-1.10122 0.471926,-0.31462 0.786515,-0.70797 0.786515,-0.70797 z" /><path
             id="path30314"
             style="opacity:1;fill:#90551a;fill-opacity:1;stroke-width:0.264583"
             d="m 55.097412,148.65708 c 0,0 -0.102512,0.0588 -0.248564,0.14572 0.637498,-0.0746 0.248564,-0.14572 0.248564,-0.14572 z m -0.248564,0.14572 c -0.03301,0.004 -0.0667,0.008 -0.105419,0.0119 -0.786545,0.0786 -0.983213,0.35391 -1.887741,0.78651 -0.904527,0.4326 -1.140201,0.70804 -2.123384,1.41594 -0.983185,0.70789 -0.472199,0.58976 -0.944129,1.25832 -0.471925,0.66857 -0.157096,0.58986 -0.157096,1.17977 0,0.0142 6.33e-4,0.0289 10e-4,0.0434 0.318777,0.0499 0.638614,0.0898 0.958597,0.12144 0.02541,-0.38352 0.25931,-1.02145 0.417029,-1.30535 0.196639,-0.35395 0.904322,-1.14053 1.297595,-1.49448 0.393274,-0.35395 0.982978,-0.78656 1.297596,-1.1405 0.22431,-0.25235 0.883152,-0.66106 1.245918,-0.87695 z" /></g><g
           id="g41161"><path
             style="opacity:1;fill:#955718;fill-opacity:1;stroke-width:0.264583"
             d="m 57.953167,145.8006 c -2.041275,0.0337 -4.432684,0.88365 -5.973255,2.25393 -1.568107,1.39477 -1.818674,4.58682 -0.701777,6.04658 0.839369,1.36109 1.667769,2.82494 3.077506,3.67597 1.68942,1.30468 3.666499,2.21595 5.760372,2.63154 3.693914,0.72156 6.897324,0.91467 9.305929,-1.68224 2.309477,-2.41151 1.770879,-6.12935 0.122163,-8.59284 -0.815252,-1.17384 -4.304152,-3.18935 -6.594793,-3.8458 -1.465931,-0.4201 -3.186695,-0.51701 -4.996145,-0.48714 z"
             id="path39817"
             sodipodi:nodetypes="sscccccss" /><path
             id="path39819"
             style="opacity:1;fill:#f6d16b;fill-opacity:1;stroke-width:0.272148"
             d="m 56.954349,146.24237 c -1.782128,0.35499 -3.771032,0.83084 -4.981182,2.25877 -1.305373,1.54029 -1.425042,4.12776 -0.135927,5.78051 0.779632,1.39429 1.763849,2.70408 3.133799,3.5326 2.682874,2.0208 6.075782,2.75421 9.353476,2.80781 2.65704,0.086 5.43838,-1.64839 6.100638,-4.36711 0.480134,-2.06822 -0.05018,-4.36771 -1.296809,-6.04732 -1.823283,-1.74473 -4.075712,-3.0368 -6.477113,-3.64822 -1.946587,-0.49561 -3.940143,-0.58537 -5.696882,-0.31703 z"
             sodipodi:nodetypes="sscccccscs" /><path
             id="path39839"
             style="opacity:1;fill:#f8cb3c;fill-opacity:1;stroke-width:0.264583"
             d="m 51.20721,150.07456 c -0.426531,1.41973 -0.29115,3.02607 0.629936,4.20698 0.779631,1.39429 1.76371,2.70408 3.133659,3.5326 2.682871,2.0208 6.07626,2.7545 9.353951,2.8081 2.657037,0.086 5.438145,-1.64846 6.100403,-4.36718 0.216187,-0.93124 0.22662,-1.90935 0.05994,-2.85667 -0.01999,9.7e-4 -0.03995,0.002 -0.05994,0.003 -1.2558,-0.0178 -1.716058,1.43851 -2.540414,2.15078 -0.583916,1.00726 -1.312826,1.90373 -2.349727,2.49907 -0.934009,0.57415 -2.014088,0.26789 -3.004468,0.0579 -1.171177,0.089 -2.034856,-0.77967 -3.021004,-1.24541 -1.121078,-0.59594 -2.417885,0.4407 -3.565674,-0.0367 -1.29537,-0.36368 -1.293068,-1.77997 -1.764233,-2.80964 0.380202,-1.12357 -0.98881,-0.47491 -1.601453,-1.02423 -0.87723,-0.51304 -1.34223,-1.42751 -1.26814,-2.43965 -0.05395,-0.1616 -0.08689,-0.32076 -0.102836,-0.47852 z" /><path
             id="path39824"
             style="opacity:1;fill:#955718;fill-opacity:1;stroke-width:0.264583"
             d="m 62.291288,153.89293 c 0,0 -0.778565,0.22266 -1.612821,0.50075 -0.83426,0.27808 -0.75948,0.34816 -1.724443,0.94516 -1.28667,0.79604 -1.074476,2.59037 -0.444934,4.28242 0.05359,0.14737 0.102498,0.28386 0.147278,0.41083 0.478635,0.15184 0.965987,0.2787 1.459859,0.37672 0.07469,0.0146 0.147922,0.0272 0.222209,0.0413 -0.269612,-0.63917 -0.637995,-1.50543 -0.827857,-1.88515 -0.707457,-1.153 -0.559873,-1.8813 0.389124,-2.83652 0.389322,-0.38932 0.945352,-0.79251 1.445907,-1.23745 0.500554,-0.44494 0.945678,-0.5981 0.945678,-0.5981 z"
             sodipodi:nodetypes="cssccccccscc" /><path
             id="path39833"
             style="opacity:1;fill:#955718;fill-opacity:1;stroke-width:0.264583"
             d="m 56.952079,152.05739 c 0,0 -0.945674,0.22279 -1.390613,0.38964 -0.444938,0.16686 -1.112266,0.44499 -1.612821,0.61184 -0.500553,0.16686 -0.945419,0.77863 -1.167887,1.33481 -0.201529,0.50382 -0.266087,0.82914 -0.31781,1.54667 0.516769,0.71149 1.109009,1.35811 1.872753,1.82418 -0.136149,-0.54897 -0.299588,-1.1593 -0.387056,-1.48001 -0.166851,-0.61179 -0.05562,-1.00117 0,-1.50172 0.05562,-0.50056 0.611779,-0.83451 1.334802,-1.55753 0.723024,-0.72303 1.668632,-1.16788 1.668632,-1.16788 z" /></g><g
           id="g10364"
           style="display:inline"><path
             id="path2169"
             style="opacity:0.370717;fill:url(#linearGradient2288);fill-opacity:1;stroke-width:0.799999"
             d="m 83.991772,102.75393 c -1.031101,0.75419 -2.288068,1.63902 -2.584338,1.93529 -0.471926,0.47193 -2.67392,2.20272 -3.303157,3.14658 0,0 1.887512,-1.33748 2.438094,-1.6521 0.550581,-0.31462 2.280952,-1.10132 3.46077,-1.41593 0.660018,-0.17601 1.492406,-0.35192 2.304252,-0.47284 -0.704423,-0.46657 -1.412736,-0.94303 -2.102714,-1.40302 -0.07379,-0.0492 -0.141199,-0.0912 -0.212907,-0.13798 z" /><path
             id="path8164"
             style="opacity:1;fill:url(#linearGradient9867);fill-opacity:1;stroke-width:0.799999"
             d="m 90.927266,107.15212 c -1.058826,0.75857 -2.052839,1.60929 -3.003434,2.49907 -0.742692,0.79821 -1.339172,1.71944 -1.993677,2.58899 0.267898,-0.26624 0.540171,-0.52848 0.815971,-0.78652 0.703678,-0.6829 1.474177,-1.31405 2.392619,-1.68465 1.214259,-0.53553 2.454791,-1.01758 3.723287,-1.4087 -0.677025,-0.42742 -1.333419,-0.83697 -1.934766,-1.20819 z" /><path
             id="path8170"
             style="opacity:1;fill:url(#linearGradient10445);fill-opacity:1;stroke-width:0.799999"
             d="m 62.963082,138.03912 c -0.476697,0 -0.809326,0.1121 -1.171505,0.27492 -0.169433,0.67532 -0.354055,1.38132 -0.492993,1.82779 0.206286,0.008 0.444771,-0.0304 0.720369,-0.13642 1.533765,-0.58991 1.376575,-0.55056 2.20245,-0.78652 0.825872,-0.23597 1.022843,-3.1e-4 2.045353,0.23565 1.022511,0.23594 0.904338,0.19688 0.904338,0.19688 0,0 -0.904376,-0.5506 -1.258321,-0.74724 -0.353946,-0.19664 -2.202474,-0.86506 -2.949691,-0.86506 z" /><path
             id="path8176"
             style="opacity:1;fill:url(#linearGradient10358);fill-opacity:1;stroke-width:0.799999"
             d="m 67.943607,143.63983 c -0.964546,0.0798 -1.725802,0.16775 -2.590035,0.36273 -0.782942,0.0904 -1.529604,0.35435 -2.272668,0.60412 0.961183,-0.0358 1.926839,-0.12526 2.887484,-0.0436 2.199289,0.28427 4.124501,1.58751 5.772426,2.70154 0.210063,0.0908 0.429825,0.48452 0.621476,0.19602 0.498061,-0.427 0.996123,-0.85399 1.494184,-1.28099 -1.287126,-1.75831 -4.051463,-2.65891 -5.912867,-2.53982 z"
             sodipodi:nodetypes="cccccccc" /></g><g
           id="g43258"
           style="display:inline"><path
             style="opacity:1;fill:#a26719;fill-opacity:1;stroke-width:0.264583"
             d="m 76.028771,146.05088 c -1.953856,-0.83876 -4.468972,-0.90421 -6.082345,0.67233 -2.126146,1.71505 -3.727098,4.75453 -2.578156,7.46046 0.70537,2.06567 2.666319,3.24683 4.344793,4.45711 3.069982,1.97362 6.712866,2.80325 10.280189,3.32814 4.576782,0.52892 9.210891,0.49096 13.800853,0.16733 2.977868,-0.43381 6.234245,-0.989 8.459585,-3.20005 1.05565,-1.22977 2.23746,-3.02096 1.6043,-4.67874 -1.03974,-1.16106 -2.72207,-1.47119 -4.10399,-2.09848 -3.238062,-1.11658 -6.6466,-1.60905 -9.96386,-2.43384 -5.263333,-1.18059 -10.546313,-2.29196 -15.761369,-3.67426 z"
             id="path41396"
             sodipodi:nodetypes="csssssssssssssssssssssccc" /><path
             id="path41398"
             style="opacity:1;fill:#ffde73;fill-opacity:1;stroke-width:0.269604"
             d="m 72.767878,145.77417 c -1.874842,0.0871 -3.285665,1.58904 -4.308853,3.05314 -1.13065,1.65406 -1.499588,3.9255 -0.513342,5.73986 0.938423,1.82839 2.774151,2.90447 4.383358,4.03893 3.439526,2.06046 7.528413,2.85357 11.398055,3.23627 4.153026,0.33448 8.35562,0.31861 12.47454,-0.0639 2.838672,-0.44453 5.981794,-1.01915 7.997534,-3.3022 0.84677,-1.08184 1.77325,-2.47501 1.34592,-3.92474 -1.15617,-1.12947 -2.80856,-1.43321 -4.23608,-2.06043 -3.585275,-1.17307 -7.344418,-1.74979 -10.968517,-2.67277 -4.937087,-1.14559 -9.908371,-2.17526 -14.782178,-3.57167 -0.88078,-0.36107 -1.841627,-0.5353 -2.790437,-0.4724 z" /><path
             id="path41415"
             style="display:inline;opacity:1;fill:#f6cb3a;fill-opacity:1;stroke-width:0.264583"
             d="m 67.489937,151.12049 c -0.234066,1.16171 -0.122591,2.3828 0.455786,3.44682 0.938423,1.82839 2.77399,2.90457 4.383195,4.03903 3.439523,2.06046 7.528633,2.85328 11.398271,3.23598 4.153022,0.33448 8.355775,0.31843 12.474691,-0.0641 2.838669,-0.44453 5.98171,-1.01908 7.99744,-3.30213 0.84677,-1.08183 1.77299,-2.47509 1.34566,-3.92482 -0.41988,-0.41018 -0.90539,-0.71066 -1.42162,-0.95808 -1.02561,1.08049 -1.9486,2.27917 -3.02255,3.31608 -1.137282,1.44117 -3.06844,1.75668 -4.737183,2.24792 -2.708045,0.78028 -5.545416,0.52749 -8.312671,0.29197 -2.598894,-0.41108 -5.182581,-0.9902 -7.729244,-1.6614 -1.741188,-0.27637 -3.548243,-2.23159 -5.266345,-0.95549 -1.740172,2.26912 -2.900867,-1.1921 -3.309359,-2.61276 -1.031395,-1.8693 -1.374513,1.1814 -2.275313,1.2423 -0.924788,-1.31364 -1.552214,-2.7968 -1.980758,-4.34134 z" /><path
             id="path41401"
             style="opacity:1;fill:#955718;fill-opacity:1;stroke-width:0.264583"
             d="m 77.435583,153.69139 c 0,0 -0.865205,0.3931 -1.140498,0.51108 -0.275291,0.11798 -0.471844,0.51102 -0.82579,0.94362 -0.353946,0.4326 -0.472266,1.73063 -0.511596,2.1239 -0.03933,0.39328 0.118283,1.4553 0.157613,1.76991 0.03771,0.30166 0.328296,0.82058 0.560172,1.48674 0.406243,0.14055 0.816522,0.27029 1.230416,0.38964 -0.06874,-0.21194 -0.133369,-0.39917 -0.178284,-0.50023 -0.157307,-0.35395 -0.393257,-1.69106 -0.393257,-1.92702 0,-0.23596 0.117766,-1.41551 0.157096,-1.73012 0.03933,-0.31462 0.314854,-1.73053 0.590145,-2.20245 0.275296,-0.47193 0.353983,-0.86507 0.353983,-0.86507 z" /><path
             id="path41406"
             style="opacity:1;fill:#955718;fill-opacity:1;stroke-width:0.264583"
             d="m 72.782121,150.01307 c -0.328913,0.15292 -0.641399,0.35992 -0.928626,0.58601 -0.585586,0.42873 -0.875786,1.11338 -1.16737,1.75286 -0.245659,0.65128 -0.638213,1.27961 -0.649573,1.99471 0.0592,0.63073 0.09439,1.26515 0.176217,1.89394 0.107144,0.51606 0.203315,1.03706 0.312125,1.55495 0.398491,0.28739 0.800734,0.56615 1.188041,0.84542 0.07467,0.048 0.149969,0.0944 0.22531,0.14108 -0.146016,-0.65108 -0.276831,-1.30571 -0.390674,-1.96319 -0.155946,-0.63932 -0.213087,-1.30078 -0.160197,-1.9575 -0.0037,-0.81679 0.181786,-1.61676 0.383439,-2.40347 0.157917,-0.52484 0.16587,-1.09687 0.452169,-1.5782 0.155691,-0.30772 0.395819,-0.571 0.559139,-0.86661 z" /></g><path
           id="path472"
           style="display:inline;fill:#e57609;fill-opacity:1;stroke-width:0.784949"
           d="m 71.301074,128.19786 0.967232,14.82885 c 1.446048,1.55728 5.479486,4.76587 8.531178,6.70874 2.316323,1.4747 7.353862,3.71234 7.353862,3.71234 0,0 6.325903,1.72472 9.565944,1.72438 2.5056,-2.6e-4 6.39618,-0.89011 7.39729,-1.33505 1.00111,-0.44493 3.11454,-2.1133 3.55947,-2.78071 0.44494,-0.6674 2.00246,-3.11452 2.4474,-4.0044 0.44494,-0.88987 1.55713,-2.78109 1.89084,-3.7822 0.3337,-1.00111 1.77974,-5.11635 1.77974,-6.56239 0,-0.0816 5e-4,-0.19839 10e-4,-0.28681 l -6.31983,2.53336 C 104.85709,138.1281 71.301074,128.19786 71.301074,128.19786 Z"
           sodipodi:nodetypes="ccscssssssccc" /><path
           style="display:inline;fill:#f08115;fill-opacity:1;stroke-width:0.799999"
           d="m 96.718389,114.62714 c -5.558449,2.27923 -11.367231,4.2781 -16.120693,8.07614 -2.238606,1.76562 -4.36371,3.91183 -5.44652,6.5873 -0.397732,1.66443 -0.57556,3.40152 -0.559438,5.10964 0.309678,2.00821 1.533971,3.73035 2.626044,5.38911 1.584664,1.85908 3.617308,3.26848 5.536165,4.75441 3.370148,2.31009 7.487467,3.14043 11.47833,3.58986 3.33698,0.27635 7.060823,-0.56863 9.186693,-3.35465 2.74416,-3.4044 2.74461,-7.98901 3.46356,-12.09862 0.9585,-9.59425 -3.5877,-13.3436 -10.164141,-18.05319 z"
           id="path2039"
           sodipodi:nodetypes="cccccccccc" /><path
           style="display:inline;opacity:1;fill:#c84600;fill-opacity:1;stroke-width:0.799999"
           d="m 106.06209,130.97861 c -1.88956,-2.92665 -3.70024,-6.012 -6.507108,-8.17004 -3.308417,-3.17984 -7.616317,-5.25487 -12.13094,-5.99482 -4.594371,-0.44357 -9.465156,0.62328 -13.113999,3.53815 -3.067848,2.61827 -5.920201,5.99205 -6.264463,10.17939 -0.47259,2.75507 -0.09053,5.61481 1.124244,8.13324 1.335889,3.6486 4.439653,6.18368 7.353808,8.57039 6.02147,4.49917 13.167219,8.03699 20.805222,8.26051 4.163396,0.0235 8.918386,-0.87157 11.486076,-4.49031 2.30102,-3.34353 1.31394,-7.96561 -1.13546,-10.94882 -3.19864,-4.6067 -7.872813,-7.83549 -12.518366,-10.82963 0.615522,1.50272 2.402737,2.24811 3.666511,3.11108 3.721785,2.62222 7.243535,5.78518 9.470175,9.80654 1.32809,2.62557 1.98112,6.03546 0.14268,8.59532 -1.79275,2.57919 -4.94963,3.66772 -7.94717,4.03625 -3.030328,0.58679 -6.166145,-0.0116 -9.153513,-0.61381 -4.574115,-1.14495 -8.733085,-3.52786 -12.684888,-6.03636 -2.951614,-1.95642 -5.642219,-4.38717 -7.711064,-7.27117 -1.698994,-2.65662 -2.776319,-5.77258 -2.524503,-8.96072 0.377446,-6.32366 5.196083,-12.01649 11.212831,-13.79652 3.647002,-0.93005 7.544073,-1.13537 11.162133,0.0474 6.064405,1.9286 10.840594,6.71256 14.040874,12.07724 0.43178,0.40704 0.49593,1.5379 1.22692,0.75667 z"
           id="path3699"
           sodipodi:nodetypes="scccccccccccccccccccccss" /></g><g
         id="g8187"
         inkscape:label="Head"
         style="display:inline"><g
           id="g7201"><path
             style="opacity:1;fill:#f08115;fill-opacity:1;stroke-width:0.264583"
             d="m 81.368028,57.508229 c 2.075073,-1.365385 4.108174,-2.792674 6.173513,-4.171294 1.84442,-0.997641 3.762465,-1.867734 5.679912,-2.707211 1.755639,-0.325672 3.561429,-0.533589 5.349791,-0.470899 2.388036,0.416974 4.876416,1.054917 6.780256,2.638165 1.36055,1.144546 1.65194,3.10059 1.13618,4.7369 -0.42119,2.284628 -1.9449,4.109923 -2.94136,6.15464 -1.77802,3.594066 -3.595983,7.183056 -5.865603,10.498681 -0.71167,1.248546 -1.674728,2.350274 -2.967158,3.019083 -1.070705,0.342923 -2.625212,1.85677 -3.464296,1.491697 -3.293745,-7.063254 -6.58749,-14.126508 -9.881235,-21.189762 z"
             id="path2376" /><path
             id="path3955"
             style="opacity:1;fill:#ff99cb;fill-opacity:1;stroke-width:0.264583"
             d="m 93.297148,53.808085 c -0.466663,-4.07e-4 -0.910108,0.0086 -1.306381,0.02946 -2.113454,0.111233 -3.781791,0.555907 -5.895247,1.112077 -0.704229,0.185323 -1.251239,0.368534 -1.712557,0.529166 -1.000788,0.682611 -2.002655,1.363347 -3.014803,2.029334 l 9.881051,21.189921 c 0.839083,0.365072 2.393684,-1.148976 3.464388,-1.491899 0.554911,-0.287156 1.048634,-0.654362 1.488281,-1.078487 0.698242,-1.390233 1.399019,-3.1867 1.90686,-5.048787 0.667409,-2.447158 1.668631,-3.893163 2.11357,-5.339209 0.44494,-1.446045 1.66862,-4.226864 2.11356,-5.784143 0.44494,-1.557284 0.44495,-3.448362 -0.44493,-4.338237 -0.88988,-0.889875 -1.890962,-1.223438 -3.11454,-1.445907 -0.994157,-0.180756 -3.457046,-0.36152 -5.479252,-0.363285 z" /><path
             id="path6647"
             style="opacity:1;fill:#fe999f;fill-opacity:1;stroke-width:0.264583"
             d="m 93.297148,53.808085 c -0.466663,-4.07e-4 -0.910108,0.0086 -1.306381,0.02946 -2.113451,0.111233 -3.781793,0.555907 -5.895247,1.112077 -0.704228,0.185322 -1.251239,0.368534 -1.712557,0.529166 -1.000787,0.68261 -2.002656,1.363347 -3.014803,2.029334 l 9.04751,19.401916 c 0.565682,-0.489935 1.10957,-0.980527 1.297078,-1.214913 0.444939,-0.556171 1.445902,-2.336221 1.890841,-3.059245 0.444936,-0.723023 2.058139,-4.004397 2.614311,-5.339209 0.556172,-1.334813 2.057946,-4.560305 2.5585,-6.006351 0.500554,-1.446048 1.27906,-3.003683 1.44591,-4.116028 0.12767,-0.851123 0.31934,-1.572183 -0.24495,-2.710946 -0.376705,-0.123147 -0.775027,-0.214529 -1.20096,-0.291972 -0.994156,-0.180755 -3.457048,-0.36152 -5.479252,-0.363285 z" /></g><g
           id="g14427"
           style="display:inline"><path
             style="opacity:1;fill:#f08115;fill-opacity:1;stroke-width:0.264583"
             d="m 44.990466,60.957361 c -1.54637,-2.749339 -1.623193,-6.009472 -1.961985,-9.070595 -0.302831,-2.698482 0.288616,-5.3789 0.675282,-8.037428 0.823633,-3.371794 1.82979,-6.72843 3.344283,-9.86029 0.533056,-1.08476 1.592358,-1.744262 2.428194,-2.565282 1.376529,-0.271052 2.533222,1.229566 3.203181,2.293274 2.089127,3.760765 5.098931,6.86645 7.806014,10.17226 1.742419,2.014698 3.673688,3.855563 5.59769,5.691556 1.039546,0.598613 1.843809,2.551684 1.411952,3.403067 -3.197253,0.707333 -6.408312,1.373077 -9.596962,2.106325 -4.302549,1.955704 -8.605099,3.911409 -12.907649,5.867113 z"
             id="path11985" /><path
             id="path12470"
             style="opacity:1;fill:#ff99cb;fill-opacity:1;stroke-width:0.264583"
             d="m 48.804773,35.019568 c -0.05453,-7.61e-4 -0.118864,0.0052 -0.195337,0.01912 -0.61179,0.111236 -1.612624,0.778627 -2.001945,1.779736 -0.389322,1.00111 -1.779799,4.783164 -1.946651,5.673039 -0.166851,0.889875 -0.667723,3.059173 -0.834575,4.227132 -0.16685,1.167962 -0.333701,2.613724 -0.444934,3.336748 -0.03321,0.215876 -0.179735,0.941973 -0.35605,1.799373 0.0012,0.01068 0.0019,0.02135 0.0031,0.03204 0.338792,3.06112 0.415786,6.321428 1.962154,9.070765 4.302546,-1.955703 8.605195,-3.911641 12.90774,-5.867343 0.951995,-0.218916 1.906297,-0.431002 2.861324,-0.640787 -0.61251,-0.853102 -1.29549,-1.857015 -1.916679,-2.89233 -1.668516,-2.780858 -2.224403,-3.225629 -3.336747,-5.005379 -1.112342,-1.77975 -2.669988,-4.115568 -3.22616,-5.172295 -0.556172,-1.056726 -1.668239,-2.558493 -2.001945,-3.448368 -0.333703,-0.889875 -0.667594,-1.83535 -0.945679,-2.22467 -0.243326,-0.340653 -0.145901,-0.681456 -0.527616,-0.68678 z" /><path
             id="path13728"
             style="opacity:1;fill:#fe999f;fill-opacity:1;stroke-width:0.264583"
             d="m 49.256942,35.582324 c -0.42568,0.549311 -0.860993,1.220677 -1.03663,1.847949 -0.38932,1.39043 -0.89006,2.948066 -0.945678,4.116028 -0.05562,1.167962 -0.444807,2.891998 -0.111105,4.282426 0.333703,1.39043 0.472484,1.974133 0.667143,2.446879 0.19466,0.472744 0.611976,1.474003 0.945679,1.974557 0.333703,0.500554 2.891813,4.032312 2.891813,4.032312 l 8.605676,-0.520899 c -0.475129,-0.685097 -0.969788,-1.435962 -1.43092,-2.204516 -1.668514,-2.780855 -2.224404,-3.225631 -3.336747,-5.005379 -1.112341,-1.779749 -2.669989,-4.115569 -3.22616,-5.172295 -0.556171,-1.056725 -1.668239,-2.558494 -2.001945,-3.448368 -0.333703,-0.889874 -0.667594,-1.835351 -0.945679,-2.22467 -0.02969,-0.04157 -0.05441,-0.08306 -0.07545,-0.124024 z" /><path
             id="path20151"
             style="display:inline;opacity:1;fill:#cc5c06;fill-opacity:1;stroke-width:0.264583"
             d="m 57.013057,39.77535 c 0.184325,1.187874 0.406184,2.935957 0.606165,5.385718 0.444937,5.450485 -0.333313,9.343615 -0.333313,9.343615 0,0 0.572333,0.169425 1.413867,0.403593 2.924828,-0.662185 5.865825,-1.276331 8.795329,-1.92443 0.431857,-0.851382 -0.372255,-2.804281 -1.4118,-3.402893 -1.924,-1.835991 -3.855691,-3.676946 -5.598108,-5.691642 -1.134493,-1.38541 -2.321359,-2.735901 -3.47214,-4.113961 z" /></g><path
           style="opacity:1;fill:#de6f03;fill-opacity:1;stroke-width:0.264583"
           d="m 32.56303,71.103812 c 2.812494,0.07051 6.110047,-0.559718 7.46236,-3.362486 1.87706,-2.923676 2.024904,-6.594069 3.942565,-9.536877 1.774646,-2.677262 3.6757,-5.454708 6.680115,-6.862619 2.716416,-1.933546 6.989134,-1.401657 9.5715,-2.34999 -0.183942,-1.736331 -1.179687,-5.92716 1.494712,-2.753053 1.465771,1.023998 4.872111,3.651811 2.321151,0.63004 -2.188832,-2.784801 -2.577503,-6.390998 -2.307244,-9.813836 0.179076,-1.079467 1.82141,3.781079 3.072854,4.817843 1.559412,2.569378 4.218137,4.148385 6.789647,5.546952 4.913682,2.059579 10.229943,3.833469 14.035859,7.743613 3.77931,4.420227 4.224086,10.462547 6.246186,15.699924 0.918203,4.091665 2.239336,8.11869 3.934051,11.94641 1.41629,2.22757 3.070934,5.944041 6.341234,5.023802 -1.39075,2.273398 -5.431356,2.472215 -6.861776,2.579249 1.381759,0.783529 5.483436,1.220707 1.957901,2.361126 -1.079101,1.966583 -5.263564,0.316024 -5.197606,1.49732 3.02158,2.284056 -3.399184,1.951847 -4.755274,3.086757 C 80.203543,99.39832 72.88593,100.8022 65.496905,101.03068 59.612693,100.72133 53.590541,99.763581 48.372618,96.902543 44.57934,94.708297 41.390775,91.514483 38.820837,87.986482 36.800324,84.339061 34.781755,80.665744 33.761623,76.591138 33.152136,74.815867 32.892008,72.94485 32.56303,71.103812 Z"
           id="path7209" /><path
           id="path9994"
           style="opacity:1;fill:#f08115;fill-opacity:1;stroke-width:0.264583"
           d="m 62.333663,38.73717 c -0.289479,1.585098 -0.333474,3.307926 0.01033,4.918563 0.374222,1.143448 0.918772,2.230282 1.69137,3.213241 2.550957,3.021768 -0.855536,0.394061 -2.321306,-0.629936 -0.786433,-0.933377 -1.253611,-1.227012 -1.519287,-1.136365 0.144972,1.933173 4.009538,5.217743 1.425236,5.453414 -4.274623,-0.463993 -8.817852,0.503625 -12.127425,3.370337 -5.673806,4.434181 -7.266381,11.807392 -11.030334,17.609778 -0.43135,0.338579 -0.805358,0.775211 -1.33997,0.960665 -1.901376,-1.166918 -3.765536,0.293164 -3.029273,2.497005 0.979873,2.923687 1.53935,6.158418 3.22616,8.765873 1.406347,-2.824761 6.101042,-3.30919 7.519955,-0.26355 0.854488,2.941807 2.94135,6.488767 6.689514,5.180046 2.88693,-0.828417 5.932327,-4.332952 8.916768,-1.597318 1.885093,4.027997 6.333956,1.772944 9.490894,1.106909 4.313431,0.06679 6.111464,4.680116 9.376172,6.697782 3.000859,1.58657 7.569915,2.376668 9.995255,-0.579809 -0.68278,-3.663813 4.915927,-0.364132 4.268473,-3.772897 -1.983807,-2.205432 1.043758,-2.135096 2.531629,-1.664498 3.54201,0.258148 0.0029,-1.780207 -1.136882,-2.800862 C 92.869078,83.76773 91.77079,79.764718 93.573612,77.007703 92.906364,74.987619 92.33761,72.93402 91.87294,70.863375 89.850842,65.626003 89.405599,59.583781 85.626293,55.163558 81.820381,51.253418 76.504134,49.479422 71.590457,47.419845 69.01895,46.021279 66.360618,44.442272 64.801208,41.872896 c -0.07923,-0.06564 -0.15995,-0.146993 -0.241846,-0.240812 -1.077366,-0.549495 -1.903019,-1.428605 -2.225704,-2.894914 z" /><g
           id="g20058"><ellipse
             style="opacity:1;fill:#d7710d;fill-opacity:1;stroke-width:0.285049"
             id="path13861"
             cx="79.52977"
             cy="64.404701"
             rx="7.271369"
             ry="11.134295"
             transform="matrix(0.97981391,0.19991175,-0.20543404,0.97867096,0,0)" /><ellipse
             style="opacity:1;fill:#ffffff;fill-opacity:1;stroke-width:0.248904"
             id="ellipse13863"
             cx="80.179115"
             cy="65.843658"
             rx="6.4594855"
             ry="9.5566921"
             transform="matrix(0.98123091,0.19283649,-0.21293005,0.97706745,0,0)" /><path
             id="path13917"
             style="opacity:1;fill:#bb6710;fill-opacity:1;stroke-width:0.382828"
             d="m 65.794434,75.19386 a 5.2305346,5.5844808 0 0 0 -5.230172,5.584672 5.2305346,5.5844808 0 0 0 5.230172,5.584155 5.2305346,5.5844808 0 0 0 4.035929,-2.036051 6.456983,9.5583832 13.281715 0 0 1.162203,-3.286105 6.456983,9.5583832 13.281715 0 0 0.02842,-0.148828 5.2305346,5.5844808 0 0 0 0.0041,-0.113171 5.2305346,5.5844808 0 0 0 -5.230688,-5.584672 z" /><ellipse
             style="opacity:1;fill:#000000;fill-opacity:1;stroke-width:0.386297"
             id="path13922"
             cx="65.814285"
             cy="80.640678"
             rx="3.7950873"
             ry="3.7164326" /><ellipse
             style="opacity:1;fill:#ffffff;fill-opacity:1;stroke-width:0.0889716"
             id="ellipse13976"
             cx="63.1007"
             cy="83.511574"
             rx="0.88486493"
             ry="0.84553748" /><ellipse
             style="opacity:0.462687;fill:#ffffff;fill-opacity:1;stroke-width:0.263931"
             id="ellipse13978"
             cx="64.300179"
             cy="76.511307"
             rx="2.5956037"
             ry="2.5366127" /></g><g
           id="g20072"
           transform="matrix(0.92641991,0,0,0.93918458,-11.757329,1.8506077)"
           style="opacity:1"><ellipse
             style="opacity:1;fill:#d7710d;fill-opacity:1;stroke-width:0.285049"
             id="ellipse20060"
             cx="79.52977"
             cy="64.404701"
             rx="7.271369"
             ry="11.134295"
             transform="matrix(0.97981391,0.19991175,-0.20543404,0.97867096,0,0)" /><ellipse
             style="opacity:1;fill:#ffffff;fill-opacity:1;stroke-width:0.248904"
             id="ellipse20062"
             cx="80.179115"
             cy="65.843658"
             rx="6.4594855"
             ry="9.5566921"
             transform="matrix(0.98123091,0.19283649,-0.21293005,0.97706745,0,0)" /><path
             id="path20064"
             style="opacity:1;fill:#bb6710;fill-opacity:1;stroke-width:0.382828"
             d="m 65.794434,75.19386 a 5.2305346,5.5844808 0 0 0 -5.230172,5.584672 5.2305346,5.5844808 0 0 0 5.230172,5.584155 5.2305346,5.5844808 0 0 0 4.035929,-2.036051 6.456983,9.5583832 13.281715 0 0 1.162203,-3.286105 6.456983,9.5583832 13.281715 0 0 0.02842,-0.148828 5.2305346,5.5844808 0 0 0 0.0041,-0.113171 5.2305346,5.5844808 0 0 0 -5.230688,-5.584672 z" /><ellipse
             style="opacity:1;fill:#000000;fill-opacity:1;stroke-width:0.386297"
             id="ellipse20066"
             cx="65.814285"
             cy="80.640678"
             rx="3.7950873"
             ry="3.7164326" /><ellipse
             style="opacity:1;fill:#ffffff;fill-opacity:1;stroke-width:0.0889716"
             id="ellipse20068"
             cx="63.1007"
             cy="83.511574"
             rx="0.88486493"
             ry="0.84553748" /><ellipse
             style="opacity:0.462687;fill:#ffffff;fill-opacity:1;stroke-width:0.263931"
             id="ellipse20070"
             cx="64.300179"
             cy="76.511307"
             rx="2.5956037"
             ry="2.5366127" /></g><g
           id="g24231"><path
             id="path14433"
             style="opacity:1;fill:#fbd049;fill-opacity:1;stroke-width:0.264583"
             d="m 41.52098,82.682292 c -1.029793,-0.02442 -2.010547,0.207007 -2.722831,1.089339 -0.551239,0.543824 -0.938753,1.18725 -1.258838,1.87172 0.421303,0.784342 0.850411,1.564675 1.281575,2.34301 2.569936,3.527997 5.758598,6.722007 9.551872,8.916251 5.217918,2.861035 11.239813,3.818568 17.124019,4.127918 3.130398,-0.0968 6.247803,-0.40644 9.340515,-0.88419 0.825098,-1.047412 1.350417,-2.288347 1.244369,-3.690729 0.649944,-1.867837 -0.689152,-3.290303 -1.824695,-4.565613 -2.361353,-1.661495 -5.251231,-2.339444 -8.06204,-2.795178 -2.51926,-0.316251 -5.098647,-0.486831 -7.624341,-0.171566 -1.906913,0.538418 -3.906231,0.572391 -5.845638,0.1757 -1.583338,-1.232748 -3.322516,-2.281572 -4.688603,-3.769279 -1.164542,-1.43089 -2.931303,-1.991888 -4.656046,-2.412256 -0.606093,-0.11352 -1.241442,-0.220478 -1.859318,-0.235127 z" /><path
             id="path1369"
             style="display:inline;opacity:1;fill:#ffde73;fill-opacity:1;stroke-width:0.264583"
             d="m 41.328743,82.680741 c -0.958879,0.0085 -1.862829,0.263704 -2.530594,1.09089 -0.551239,0.543823 -0.938754,1.187251 -1.258838,1.87172 0.421302,0.784341 0.850412,1.564675 1.281575,2.34301 2.569934,3.527993 5.758602,6.722009 9.551872,8.916251 5.217913,2.861032 11.295436,3.651718 17.179636,3.961068 1.368854,-0.0423 2.651609,-0.12755 4.042324,-0.0807 0.418173,-0.72636 0.688961,-1.4199 0.958598,-2.228809 0.314619,-0.943855 0.943719,-2.280966 0.865064,-3.067513 -0.07866,-0.786544 -0.786288,-1.336945 -1.33687,-2.044836 -0.550584,-0.707893 -2.989102,-1.887938 -4.798156,-2.123902 -1.809056,-0.235962 -2.910267,-0.157421 -4.168738,0.07855 -1.258474,0.235963 -3.224639,0.55078 -5.11235,0.236162 -1.88771,-0.314619 -8.258713,-3.145985 -8.416023,-5.11235 -0.0507,-0.633792 -0.04451,-1.196386 -0.03876,-1.709973 -1.139364,-1.05548 -2.668914,-1.527737 -4.167187,-1.892908 -0.606093,-0.113519 -1.241443,-0.220478 -1.859318,-0.235127 -0.06436,-0.0015 -0.128311,-0.0021 -0.192237,-0.0016 z"
             sodipodi:nodetypes="cccccccsssssssccccc" /></g><g
           id="g13757"><path
             style="opacity:1;fill:#602d32;fill-opacity:1;stroke-width:0.264583"
             d="m 57.29992,93.874337 c 0.765351,0.03759 1.530965,0.04563 2.296483,0.01552 1.204622,0.05734 2.412518,0.182873 3.575287,0.517113 1.413259,0.271878 2.795999,0.907569 3.744741,2.017692 0.464677,0.606909 1.005597,1.168522 1.363048,1.849601 0.339378,0.87388 0.722407,1.735377 0.975948,2.639677 -0.09744,-1.034455 -0.445395,-2.021922 -0.88329,-2.957566 -0.395883,-1.194678 -1.211829,-2.227509 -2.198407,-2.994439 -1.143707,-0.762095 -2.516867,-1.073256 -3.850745,-1.312434 -0.90489,-0.175785 -1.828541,-0.09127 -2.742695,-0.156747 -0.787055,-0.0085 -1.571347,0.08618 -2.359025,0.06698 0.02622,0.104868 0.05244,0.209736 0.07865,0.314604 z"
             id="path12178" /><path
             style="opacity:1;fill:#602d32;fill-opacity:1;stroke-width:0.264583"
             d="m 59.620231,92.065281 c 1.2545,-0.301507 2.556107,-0.353841 3.841567,-0.334873 1.403288,0.08927 2.800655,0.286005 4.185587,0.526902 1.179547,0.263903 2.38014,0.462107 3.509888,0.907294 1.109255,0.338156 2.206558,0.786838 3.140167,1.485201 0.404099,0.345093 0.74007,0.764001 1.053725,1.190899 -0.129784,-0.862551 -0.77111,-1.550949 -1.394066,-2.116032 -0.787413,-0.652961 -1.779252,-0.979638 -2.71344,-1.362082 -1.561142,-0.563667 -3.211637,-0.812583 -4.844896,-1.066794 -1.217354,-0.09731 -2.443532,-0.180857 -3.66486,-0.122938 -0.986534,0.157421 -1.969766,0.339922 -2.956361,0.499149 -0.05244,0.131091 -0.104874,0.262183 -0.157311,0.393274 z"
             id="path13623" /><path
             style="opacity:1;fill:#602d32;fill-opacity:1;stroke-width:0.264583"
             d="m 59.974178,90.767478 c 1.045542,-0.946741 2.490234,-1.282199 3.854037,-1.43248 2.093058,-0.06396 4.202734,0.131204 6.218373,0.716796 1.633305,0.45971 3.25171,0.990332 4.82349,1.628335 1.084903,0.536502 2.142356,1.242378 2.832596,2.252004 0.17719,0.27391 0.609239,0.52771 0.255904,0.06982 -0.556693,-1.259981 -1.730885,-2.112701 -2.920016,-2.726902 -1.045709,-0.468677 -2.074721,-0.97393 -3.168679,-1.325543 -1.919983,-0.665248 -3.935925,-1.091413 -5.969163,-1.163359 -1.517921,-0.01192 -3.079714,0.150939 -4.484806,0.755093 -0.68468,0.331015 -1.290672,0.795659 -1.913663,1.226236 0.157309,2e-6 0.314618,3e-6 0.471927,5e-6 z"
             id="path13663"
             sodipodi:nodetypes="cccccccccccc" /><path
             style="opacity:1;fill:#602d32;fill-opacity:1;stroke-width:0.264583"
             d="m 45.737684,86.048198 c -0.561413,-0.845045 -1.680298,-0.914437 -2.585157,-1.099321 -1.298926,-0.237131 -2.632604,-0.347916 -3.9422,-0.126387 -2.368779,0.288287 -4.744019,0.707978 -6.96615,1.607248 -0.852853,0.313375 -1.726171,0.598052 -2.469596,1.139081 -0.220208,0.161367 -1.114425,0.643557 -0.549459,0.155707 0.613812,-0.534693 1.373073,-0.868432 2.089879,-1.242499 1.161915,-0.470945 2.347129,-0.888087 3.530453,-1.303091 1.139328,-0.291165 2.28776,-0.558274 3.444613,-0.771194 1.482262,-0.228297 2.997774,-0.195747 4.473037,0.06829 0.895194,0.0949 1.749983,0.409406 2.508607,0.890908 0.263797,0.242785 0.921917,0.286759 0.465973,0.68126 z"
             id="path13704" /><path
             style="opacity:1;fill:#602d32;fill-opacity:1;stroke-width:0.265811"
             d="m 32.22507,88.918639 c 1.097939,-0.483526 2.221521,-0.942211 3.419537,-1.100087 1.822342,-0.355053 3.660916,-0.679377 5.522796,-0.697538 0.865494,-0.02528 1.747885,-0.143564 2.593927,0.09506 0.568735,0.114873 1.151762,0.21372 1.685354,0.440467 0.644193,0.0088 0.136256,-0.502454 -0.232374,-0.462296 -1.167322,-0.385063 -2.362083,-0.819446 -3.612802,-0.717986 -1.985078,-0.03214 -2.943455,-0.05329 -4.887573,0.343434 -0.753948,0.153853 -2.57929,0.502347 -3.271009,0.832567 -1.442566,0.688666 -3.173249,1.578968 -3.829447,2.917125 -0.605824,1.236851 0.756166,-0.826485 2.611591,-1.650746 z"
             id="path13706"
             sodipodi:nodetypes="cccccccsscc" /><path
             style="opacity:1;fill:#602d32;fill-opacity:1;stroke-width:0.264583"
             d="m 46.327596,89.509002 c -0.417747,-0.354378 -1.414493,-0.212901 -1.931851,-0.25497 -1.615111,-0.01881 -3.250347,0.08411 -4.815744,0.503727 -1.015665,0.326983 -1.941996,0.903124 -2.768394,1.570092 -0.635157,0.540955 -1.210122,1.204133 -1.467398,1.979005 -0.522279,0.792484 -0.642497,1.755576 -0.893467,2.651829 0.372919,-0.595225 0.688326,-1.224729 0.940236,-1.879829 0.580932,-1.315366 1.603404,-2.263374 2.779038,-2.867794 0.627508,-0.375586 1.263938,-0.766254 1.99494,-0.90061 1.0453,-0.271973 2.105275,-0.499403 3.186445,-0.560148 0.857234,-0.124537 2.115315,-0.174562 2.976195,-0.241302 z"
             id="path13749"
             sodipodi:nodetypes="ccccccccccc" /></g><g
           id="g24227"><path
             style="fill:#e5be3b;fill-opacity:1;stroke-width:0.264583"
             d="m 52.108713,87.110037 c 0.914639,-0.219361 1.772904,-0.682592 2.733786,-0.686692 0.78647,-0.08984 1.578437,0.0049 2.321618,0.275597 0.810652,0.215611 1.649266,0.461048 2.252383,1.081618 0.573311,0.47239 1.134392,1.013072 1.325407,1.757939 0.300267,0.674372 0.303692,1.463529 -0.105545,2.093563 -0.647689,1.332884 -2.01448,2.160157 -3.407657,2.527533 -1.425352,0.343185 -2.932348,0.273906 -4.325451,-0.17849 -1.087296,-0.279803 -2.069115,-0.958019 -2.714361,-1.874472 -0.297757,-0.371246 -0.274785,-1.258403 -0.450882,-1.429486 -0.44549,0.49778 -1.19835,0.318486 -1.794491,0.376462 -0.802679,-0.287047 -1.557754,-0.806736 -2.167736,-1.406576 -0.760024,-0.891135 -0.904078,-2.189752 -0.52298,-3.275816 0.104807,-0.68626 0.588496,-1.190077 1.089539,-1.625737 0.655319,-0.662794 1.603122,-0.920834 2.51449,-0.873189 0.6441,-0.122965 1.168633,0.266917 1.673745,0.595334 0.521069,0.36672 1.018293,0.879003 1.263516,1.46259 0.07797,0.39975 0.195941,0.790656 0.314619,1.179822 z"
             id="path4225" /><ellipse
             style="fill:#5f3d04;fill-opacity:1;stroke-width:0.264583"
             id="ellipse8612"
             cx="58.401085"
             cy="90.511848"
             rx="0.35394597"
             ry="0.33428231" /><ellipse
             style="fill:#5f3d04;fill-opacity:1;stroke-width:0.264583"
             id="ellipse8614"
             cx="55.176243"
             cy="92.084938"
             rx="0.35394597"
             ry="0.33428231" /><ellipse
             style="fill:#5f3d04;fill-opacity:1;stroke-width:0.264583"
             id="ellipse8616"
             cx="46.917503"
             cy="88.781441"
             rx="0.35394597"
             ry="0.33428231" /><ellipse
             style="fill:#5f3d04;fill-opacity:1;stroke-width:0.264583"
             id="ellipse8618"
             cx="46.917503"
             cy="86.028526"
             rx="0.35394597"
             ry="0.33428231" /><ellipse
             style="fill:#5f3d04;fill-opacity:1;stroke-width:0.264583"
             id="ellipse8620"
             cx="56.434719"
             cy="89.01741"
             rx="0.35394597"
             ry="0.33428231" /><path
             style="opacity:1;fill:#d95c2e;fill-opacity:1;stroke-width:0.264583"
             d="m 48.492802,88.542494 c 0.53809,0.749397 1.495522,1.577358 2.349491,1.526554 1.530035,-0.09103 2.530469,-0.661191 3.432857,-2.143013 0.385638,-0.935926 -0.01132,-1.748624 -0.944946,-2.117426 -1.015505,-0.387099 -1.840024,-0.666021 -2.851756,-0.661567 -0.666013,0.0029 -1.593739,-0.07891 -2.009415,0.441728 -0.723611,0.961374 -0.607293,2.074845 0.02377,2.953724 z"
             id="path8690"
             sodipodi:nodetypes="ssccscs" /><path
             style="opacity:1;fill:#f58961;fill-opacity:1;stroke-width:0.264583"
             d="m 49.951398,87.278961 c 0.875931,0.01376 1.479072,-0.186603 1.948203,-0.748822 0.04013,-0.754219 -0.5345,-1.159999 -1.12365,-1.336306 -0.631562,-0.05301 -1.520897,-0.02936 -1.974021,0.328645 -0.172788,0.189265 -0.417771,0.367533 -0.429151,0.64679 0.05972,1.009514 0.836524,0.991492 1.578619,1.109693 z"
             id="path10144"
             sodipodi:nodetypes="cccccc" /></g><g
           id="g9989"><path
             style="opacity:1;fill:#bb3604;fill-opacity:1;stroke-width:0.264583"
             d="m 66.295753,61.178968 c -0.490274,0.465256 -0.624808,1.169586 -0.80839,1.793602 -0.113069,0.437506 -0.213339,0.878281 -0.303952,1.320965 0.226129,-0.222991 0.773636,-0.0045 1.104207,0.02249 0.799224,0.186741 1.599226,0.407161 2.34406,0.756149 0.754869,0.419983 1.494422,0.896979 2.048947,1.571076 0.599674,0.628952 1.109224,1.344129 1.787475,1.8953 0.312043,0.276088 0.628195,0.547509 0.946662,0.816151 C 72.95748,68.114666 72.724369,66.797092 72.145782,65.601559 71.713819,64.636456 71.241718,63.612811 70.34085,62.995338 69.70442,62.49534 69.028584,62.033385 68.260798,61.758547 67.63299,61.51701 67.005014,61.258272 66.329971,61.184071 l -0.03422,-0.0051 z"
             id="path8256" /><path
             style="opacity:1;fill:#bb3604;fill-opacity:1;stroke-width:0.264583"
             d="m 45.828608,62.37474 c 0.824614,-0.261034 1.642647,-0.559672 2.504017,-0.676918 0.999652,-0.158758 2.019887,-0.222914 3.030022,-0.148234 0.615389,0.04028 1.209126,0.21448 1.779333,0.440537 0.679489,0.224954 1.308244,0.567846 1.946899,0.885169 0.08218,-0.637885 -0.144717,-1.25861 -0.237739,-1.882856 -0.08077,-0.393521 -0.170077,-0.785236 -0.262815,-1.176092 -0.82864,-0.487776 -1.737487,-0.91867 -2.717331,-0.935142 -0.598958,-0.08949 -1.213543,-0.138103 -1.809854,-0.0034 -0.54248,0.06975 -1.093178,0.19882 -1.543612,0.524184 -0.497731,0.26553 -0.98865,0.564877 -1.358024,0.999322 -0.391011,0.367181 -0.748666,0.779497 -0.960991,1.277604 -0.123746,0.23169 -0.246926,0.463684 -0.369905,0.695781 z"
             id="path9985" /><path
             id="path2200"
             style="display:inline;opacity:1;fill:url(#linearGradient2271);fill-opacity:1;stroke-width:0.264583"
             d="m 71.788383,47.500977 c -1.87153,1.197711 -4.094187,1.735983 -5.848876,3.143833 -0.948685,0.761164 -1.831784,1.578811 -2.687877,2.433943 -0.622209,0.639256 -1.43658,1.110778 -1.922669,1.867405 -0.727809,1.0321 0.514003,0.311155 2.236547,-0.332744 2.987041,-1.173454 5.826457,-1.784564 8.78115,-2.155165 1.640492,-0.08418 3.259127,-0.381466 4.89204,-0.546173 -1.187221,0.858293 -2.417859,1.67646 -3.497431,2.669079 -1.908353,1.742661 -1.41047,1.931982 0.998442,1.048313 1.505482,-0.475702 3.060726,-0.960856 4.659538,-0.828231 1.250689,-0.04348 2.497939,-0.154406 3.749636,-0.104475 0.514863,-0.06537 1.586734,0.02818 1.750826,-0.236552 -3.707446,-3.392753 -8.557581,-5.058828 -13.111326,-6.959234 z"
             sodipodi:nodetypes="ssccccccccccss" /></g></g></g></g></svg>
