<?xml version="1.0" encoding="UTF-8" standalone="no"?>
<!-- Created with Inkscape (http://www.inkscape.org/) -->

<svg
   width="210mm"
   height="297mm"
   viewBox="0 0 210 297"
   version="1.1"
   id="svg5"
   inkscape:version="1.2 (dc2aedaf03, 2022-05-15)"
   sodipodi:docname="checkbox-13.svg"
   xml:space="preserve"
   inkscape:export-filename=".\checkbox-13-mark"
   inkscape:export-xdpi="73.866867"
   inkscape:export-ydpi="73.866867"
   xmlns:inkscape="http://www.inkscape.org/namespaces/inkscape"
   xmlns:sodipodi="http://sodipodi.sourceforge.net/DTD/sodipodi-0.dtd"
   xmlns="http://www.w3.org/2000/svg"
   xmlns:svg="http://www.w3.org/2000/svg"><sodipodi:namedview
     id="namedview7"
     pagecolor="#ffffff"
     bordercolor="#666666"
     borderopacity="1.0"
     inkscape:showpageshadow="2"
     inkscape:pageopacity="0.0"
     inkscape:pagecheckerboard="0"
     inkscape:deskcolor="#d1d1d1"
     inkscape:document-units="mm"
     showgrid="false"
     inkscape:zoom="0.4204826"
     inkscape:cx="-52.320833"
     inkscape:cy="191.44668"
     inkscape:window-width="1382"
     inkscape:window-height="786"
     inkscape:window-x="79"
     inkscape:window-y="28"
     inkscape:window-maximized="0"
     inkscape:current-layer="layer1" /><defs
     id="defs2"><filter
       inkscape:collect="always"
       style="color-interpolation-filters:sRGB"
       id="filter901"
       x="-0.050184267"
       y="-0.05018362"
       width="1.1003685"
       height="1.1003672"><feGaussianBlur
         inkscape:collect="always"
         stdDeviation="0.83639664"
         id="feGaussianBlur903" /></filter><filter
       inkscape:collect="always"
       style="color-interpolation-filters:sRGB"
       id="filter905"
       x="-0.0024027546"
       y="-0.0024027546"
       width="1.0048055"
       height="1.0048055"><feGaussianBlur
         inkscape:collect="always"
         stdDeviation="0.04004591"
         id="feGaussianBlur907" /></filter><filter
       inkscape:collect="always"
       style="color-interpolation-filters:sRGB"
       id="filter930"
       x="-0.0076800498"
       y="-0.0076799507"
       width="1.0153601"
       height="1.0153599"><feGaussianBlur
         inkscape:collect="always"
         stdDeviation="0.12799963"
         id="feGaussianBlur928" /></filter><filter
       inkscape:collect="always"
       style="color-interpolation-filters:sRGB"
       id="filter4109"
       x="-0.04359006"
       y="-0.05340267"
       width="1.0871801"
       height="1.1068053"><feGaussianBlur
         inkscape:collect="always"
         stdDeviation="0.82024143"
         id="feGaussianBlur4111" /></filter><filter
       inkscape:collect="always"
       style="color-interpolation-filters:sRGB"
       id="filter4113"
       x="-0.00704468"
       y="-0.0086305164"
       width="1.0140894"
       height="1.017261"><feGaussianBlur
         inkscape:collect="always"
         stdDeviation="0.13256092"
         id="feGaussianBlur4115" /></filter></defs><g
     inkscape:label="Layer 1"
     inkscape:groupmode="layer"
     id="layer1"><g
       id="g4191"><g
         id="g3127"
         inkscape:export-filename="checkbox-13.png"
         inkscape:export-xdpi="73.866867"
         inkscape:export-ydpi="73.866867"><rect
           style="fill:#ffffff;fill-opacity:1;stroke-width:1.19159;stroke-linecap:round;stroke-linejoin:round;paint-order:markers stroke fill;filter:url(#filter905)"
           id="rect926"
           width="40"
           height="40"
           x="44.808449"
           y="21.096457"
           ry="10.319937" /><path
           id="rect344"
           style="fill:#000000;stroke-width:1.19159;stroke-linecap:round;stroke-linejoin:round;paint-order:markers stroke fill;fill-opacity:1;filter:url(#filter901)"
           d="M 55.128418 21.096387 C 49.411179 21.096387 44.808634 25.698931 44.808634 31.41617 L 44.808634 50.776229 C 44.808634 56.493468 49.411179 61.096529 55.128418 61.096529 L 74.488477 61.096529 C 80.205716 61.096529 84.80826 56.493468 84.80826 50.776229 L 84.80826 31.41617 C 84.80826 25.698931 80.205716 21.096387 74.488477 21.096387 L 55.128418 21.096387 z M 56.580526 24.09672 L 73.036369 24.09672 C 77.895921 24.09672 81.807926 28.008726 81.807926 32.868278 L 81.807926 49.324121 C 81.807926 54.183673 77.895921 58.096195 73.036369 58.096195 L 56.580526 58.096195 C 51.720973 58.096195 47.808968 54.183673 47.808968 49.324121 L 47.808968 32.868278 C 47.808968 28.008726 51.720973 24.09672 56.580526 24.09672 z " /><path
           id="rect184"
           style="fill:#26a76f;stroke-width:1.19159;stroke-linecap:round;stroke-linejoin:round;paint-order:markers stroke fill;filter:url(#filter930)"
           d="M 55.128418 21.096387 C 49.411179 21.096387 44.808634 25.698931 44.808634 31.41617 L 44.808634 50.776229 C 44.808634 56.493468 49.411179 61.096529 55.128418 61.096529 L 74.488477 61.096529 C 80.205716 61.096529 84.80826 56.493468 84.80826 50.776229 L 84.80826 31.41617 C 84.80826 25.698931 80.205716 21.096387 74.488477 21.096387 L 55.128418 21.096387 z M 56.582076 24.099821 L 73.034819 24.099821 C 77.893519 24.099821 81.804826 28.011128 81.804826 32.869828 L 81.804826 49.323088 C 81.804826 54.181788 77.893519 58.093095 73.034819 58.093095 L 56.582076 58.093095 C 51.723375 58.093095 47.811552 54.181788 47.811552 49.323088 L 47.811552 32.869828 C 47.811552 28.011128 51.723375 24.099821 56.582076 24.099821 z " /></g><g
         id="g4119"
         inkscape:export-filename=".\checkbox-13-mark.png"
         inkscape:export-xdpi="73.866867"
         inkscape:export-ydpi="73.866867"
         transform="translate(2.5169494,-0.62923687)"><path
           style="fill:#000000;fill-opacity:1;stroke:none;stroke-width:0.264583px;stroke-linecap:butt;stroke-linejoin:miter;stroke-opacity:1;filter:url(#filter4109)"
           d="m 49.721814,41.824166 c 13.681842,5.339255 16.796409,12.34703 16.796409,11.679621 0,-0.667406 14.90542,-23.581709 28.364793,-29.922075 0,0 -6.896538,-4.560615 -7.897648,-6.896539 -5.116786,3.114566 -15.312972,14.236317 -20.912085,27.141215 -2.929484,-3.335339 -5.22802,-6.22913 -10.233572,-8.898758 -2.335924,3.448269 -6.117897,6.896536 -6.117897,6.896536 z"
           id="path4107"
           sodipodi:nodetypes="csccccc" /><path
           style="fill:#5fd25f;fill-opacity:1;stroke:none;stroke-width:0.264583px;stroke-linecap:butt;stroke-linejoin:miter;stroke-opacity:1;filter:url(#filter4113)"
           d="m 49.721814,41.824166 c 13.681842,5.339255 16.796409,12.34703 16.796409,11.679621 0,-0.667406 14.90542,-23.581709 28.364793,-29.922075 0,0 -6.896538,-4.560615 -7.897648,-6.896539 -5.116786,3.114566 -15.312972,14.236317 -20.912085,27.141215 -2.929484,-3.335339 -5.22802,-6.22913 -10.233572,-8.898758 -2.335924,3.448269 -6.117897,6.896536 -6.117897,6.896536 z"
           id="path3250"
           sodipodi:nodetypes="csccccc" /></g></g></g></svg>
