<?xml version="1.0" encoding="UTF-8" standalone="no"?>
<!-- Created with Inkscape (http://www.inkscape.org/) -->

<svg
   width="210mm"
   height="297mm"
   viewBox="0 0 210 297"
   version="1.1"
   id="svg5"
   xml:space="preserve"
   inkscape:version="1.2.2 (732a01da63, 2022-12-09)"
   sodipodi:docname="classic-camera.svg"
   xmlns:inkscape="http://www.inkscape.org/namespaces/inkscape"
   xmlns:sodipodi="http://sodipodi.sourceforge.net/DTD/sodipodi-0.dtd"
   xmlns:xlink="http://www.w3.org/1999/xlink"
   xmlns="http://www.w3.org/2000/svg"
   xmlns:svg="http://www.w3.org/2000/svg"><sodipodi:namedview
     id="namedview7"
     pagecolor="#ffffff"
     bordercolor="#000000"
     borderopacity="0.25"
     inkscape:showpageshadow="2"
     inkscape:pageopacity="0.0"
     inkscape:pagecheckerboard="0"
     inkscape:deskcolor="#d1d1d1"
     inkscape:document-units="mm"
     showgrid="false"
     inkscape:zoom="0.63118803"
     inkscape:cx="104.56472"
     inkscape:cy="202.00003"
     inkscape:window-width="1920"
     inkscape:window-height="1058"
     inkscape:window-x="-8"
     inkscape:window-y="-8"
     inkscape:window-maximized="1"
     inkscape:current-layer="g2988" /><defs
     id="defs2"><linearGradient
       inkscape:collect="always"
       id="linearGradient26889"><stop
         style="stop-color:#b0b0b0;stop-opacity:1;"
         offset="0"
         id="stop26885" /><stop
         style="stop-color:#ebebeb;stop-opacity:1;"
         offset="1"
         id="stop26887" /></linearGradient><linearGradient
       inkscape:collect="always"
       id="linearGradient26733"><stop
         style="stop-color:#ffffff;stop-opacity:0.71467394;"
         offset="0"
         id="stop26729" /><stop
         style="stop-color:#8b7a70;stop-opacity:0.10054348;"
         offset="1"
         id="stop26731" /></linearGradient><linearGradient
       inkscape:collect="always"
       id="linearGradient26477"><stop
         style="stop-color:#ffffff;stop-opacity:0.55163044;"
         offset="0"
         id="stop26473" /><stop
         style="stop-color:#ffffff;stop-opacity:0.05706522;"
         offset="1"
         id="stop26475" /></linearGradient><linearGradient
       inkscape:collect="always"
       id="linearGradient26379"><stop
         style="stop-color:#ffffff;stop-opacity:0.32336956;"
         offset="0"
         id="stop26375" /><stop
         style="stop-color:#ffffff;stop-opacity:0.03532609;"
         offset="1"
         id="stop26377" /></linearGradient><linearGradient
       inkscape:collect="always"
       id="linearGradient26233"><stop
         style="stop-color:#ffffff;stop-opacity:0.73369563;"
         offset="0"
         id="stop26229" /><stop
         style="stop-color:#7a7a7a;stop-opacity:0;"
         offset="1"
         id="stop26231" /></linearGradient><linearGradient
       inkscape:collect="always"
       id="linearGradient25880"><stop
         style="stop-color:#ffffff;stop-opacity:0.38586956;"
         offset="0"
         id="stop25876" /><stop
         style="stop-color:#ffffff;stop-opacity:0;"
         offset="1"
         id="stop25878" /></linearGradient><linearGradient
       inkscape:collect="always"
       id="linearGradient25692"><stop
         style="stop-color:#ffffff;stop-opacity:0.66847825;"
         offset="0"
         id="stop25688" /><stop
         style="stop-color:#ffffff;stop-opacity:0;"
         offset="1"
         id="stop25690" /></linearGradient><linearGradient
       inkscape:collect="always"
       id="linearGradient25621"><stop
         style="stop-color:#ffffff;stop-opacity:0.36141303;"
         offset="0"
         id="stop25617" /><stop
         style="stop-color:#ffffff;stop-opacity:0.0923913;"
         offset="1"
         id="stop25619" /></linearGradient><linearGradient
       inkscape:collect="always"
       id="linearGradient25526"><stop
         style="stop-color:#a8a8a8;stop-opacity:0.80163038;"
         offset="0"
         id="stop25522" /><stop
         style="stop-color:#ffffff;stop-opacity:0.19836956;"
         offset="1"
         id="stop25524" /></linearGradient><filter
       inkscape:collect="always"
       style="color-interpolation-filters:sRGB"
       id="filter3099"
       x="-0.015798088"
       y="-0.042092893"
       width="1.0315962"
       height="1.0841858"><feGaussianBlur
         inkscape:collect="always"
         stdDeviation="0.27385931"
         id="feGaussianBlur3101" /></filter><filter
       inkscape:collect="always"
       style="color-interpolation-filters:sRGB"
       id="filter3103"
       x="-0.048897143"
       y="-0.1293534"
       width="1.0977943"
       height="1.2587068"><feGaussianBlur
         inkscape:collect="always"
         stdDeviation="0.70884955"
         id="feGaussianBlur3105" /></filter><filter
       inkscape:collect="always"
       style="color-interpolation-filters:sRGB"
       id="filter3107"
       x="-0.082868545"
       y="-0.21909634"
       width="1.1657371"
       height="1.4381927"><feGaussianBlur
         inkscape:collect="always"
         stdDeviation="0.98059904"
         id="feGaussianBlur3109" /></filter><filter
       inkscape:collect="always"
       style="color-interpolation-filters:sRGB"
       id="filter7438"
       x="-0.021859227"
       y="-0.014090425"
       width="1.0437185"
       height="1.0281809"><feGaussianBlur
         inkscape:collect="always"
         stdDeviation="0.098579273"
         id="feGaussianBlur7440" /></filter><filter
       inkscape:collect="always"
       style="color-interpolation-filters:sRGB"
       id="filter7442"
       x="-0.020352158"
       y="-0.013118971"
       width="1.0407043"
       height="1.0262379"><feGaussianBlur
         inkscape:collect="always"
         stdDeviation="0.091782795"
         id="feGaussianBlur7444" /></filter><filter
       inkscape:collect="always"
       style="color-interpolation-filters:sRGB"
       id="filter17894"
       x="-0.0040743647"
       y="-0.0041971739"
       width="1.0081487"
       height="1.0083943"><feGaussianBlur
         inkscape:collect="always"
         stdDeviation="0.0057057905"
         id="feGaussianBlur17896" /></filter><filter
       inkscape:collect="always"
       style="color-interpolation-filters:sRGB"
       id="filter17898"
       x="-0.0075043143"
       y="-0.0077305087"
       width="1.0150086"
       height="1.015461"><feGaussianBlur
         inkscape:collect="always"
         stdDeviation="0.010509134"
         id="feGaussianBlur17900" /></filter><linearGradient
       inkscape:collect="always"
       xlink:href="#linearGradient25526"
       id="linearGradient25528"
       x1="34.679642"
       y1="59.281437"
       x2="34.679642"
       y2="55.279942"
       gradientUnits="userSpaceOnUse" /><linearGradient
       inkscape:collect="always"
       xlink:href="#linearGradient25621"
       id="linearGradient25623"
       x1="28.306887"
       y1="60.022457"
       x2="28.158684"
       y2="52.908684"
       gradientUnits="userSpaceOnUse" /><linearGradient
       inkscape:collect="always"
       xlink:href="#linearGradient25692"
       id="linearGradient25694"
       x1="41.497009"
       y1="60.615273"
       x2="41.052399"
       y2="55.428143"
       gradientUnits="userSpaceOnUse" /><linearGradient
       inkscape:collect="always"
       xlink:href="#linearGradient25880"
       id="linearGradient25882"
       x1="94.331589"
       y1="54.390724"
       x2="92.479042"
       y2="51.648952"
       gradientUnits="userSpaceOnUse" /><linearGradient
       inkscape:collect="always"
       xlink:href="#linearGradient26233"
       id="linearGradient26235"
       x1="89.737274"
       y1="55.872753"
       x2="88.329338"
       y2="52.389969"
       gradientUnits="userSpaceOnUse" /><linearGradient
       inkscape:collect="always"
       xlink:href="#linearGradient26379"
       id="linearGradient26381"
       x1="66.098801"
       y1="66.839821"
       x2="56.020958"
       y2="51.130245"
       gradientUnits="userSpaceOnUse" /><linearGradient
       inkscape:collect="always"
       xlink:href="#linearGradient26477"
       id="linearGradient26479"
       x1="54.538925"
       y1="41.941616"
       x2="47.128742"
       y2="29.047905"
       gradientUnits="userSpaceOnUse" /><linearGradient
       inkscape:collect="always"
       xlink:href="#linearGradient26733"
       id="linearGradient26735"
       x1="85.217064"
       y1="40.459583"
       x2="77.362274"
       y2="29.047903"
       gradientUnits="userSpaceOnUse" /><linearGradient
       inkscape:collect="always"
       xlink:href="#linearGradient26889"
       id="linearGradient26891"
       x1="69.212448"
       y1="112.02721"
       x2="69.180481"
       y2="64.778023"
       gradientUnits="userSpaceOnUse"
       gradientTransform="matrix(0.93325245,0,0,0.91088516,2.5472481,3.1490411)" /></defs><g
     inkscape:label="Layer 1"
     inkscape:groupmode="layer"
     id="layer1"><g
       id="g2988"
       style="display:inline"
       inkscape:label="Classic Camera"><rect
         style="opacity:1;fill:url(#linearGradient26891);fill-opacity:1;stroke-width:0.499999;stroke-linecap:round;stroke-linejoin:round;stroke-dashoffset:5.21575"
         id="rect26789"
         width="93.775101"
         height="98.547401"
         x="14.718648"
         y="9.628871"
         inkscape:label="background" /><g
         id="g4066"><ellipse
           style="opacity:1;mix-blend-mode:normal;fill:#a4a4a4;fill-opacity:1;stroke-width:0.939487;filter:url(#filter3099)"
           id="ellipse4061"
           cx="64.501801"
           cy="96.045326"
           rx="20.80196"
           ry="7.8072844" /><ellipse
           style="opacity:1;mix-blend-mode:normal;fill:#898989;fill-opacity:1;stroke-width:0.788485;filter:url(#filter3103)"
           id="ellipse4059"
           cx="64.60659"
           cy="95.337952"
           rx="17.396097"
           ry="6.5759344" /><ellipse
           style="opacity:1;mix-blend-mode:normal;fill:#6a6a6a;fill-opacity:1;stroke-width:0.643797;filter:url(#filter3107)"
           id="path4057"
           cx="64.501793"
           cy="95.023567"
           rx="14.199825"
           ry="5.3707829" /></g><g
         id="g3121"><rect
           style="opacity:1;fill:#6e5c53;fill-opacity:1;stroke-width:0.510849"
           id="rect3040"
           width="6.5950599"
           height="6.1504488"
           x="84.253738"
           y="52.167664"
           ry="0.80960548" /><path
           id="path25765"
           style="opacity:0.57652;fill:url(#linearGradient26235);fill-opacity:1;stroke-width:0.499999;stroke-linecap:round;stroke-linejoin:round;stroke-dashoffset:5.21575"
           d="m 85.063542,52.167875 c -0.448521,0 -0.80977,0.360732 -0.80977,0.809253 v 1.074353 a 13.863361,21.378336 0 0 0 4.231266,1.033012 13.863361,21.378336 0 0 0 2.36368,-0.325562 v -1.781803 c 0,-0.448521 -0.361248,-0.809253 -0.809769,-0.809253 z" /><path
           id="rect3050"
           style="opacity:1;fill:#2d2727;fill-opacity:1;stroke-width:0.543768"
           d="m 92.071899,50.945211 c -0.431307,0 -0.778247,0.346939 -0.778247,0.778247 v 6.335014 c 0,0.375908 0.263717,0.687753 0.617017,0.76171 l 4.518587,-7.37371 c -0.111338,-0.293484 -0.393635,-0.501261 -0.727087,-0.501261 z" /><path
           id="ellipse25768"
           style="opacity:0.57652;fill:url(#linearGradient25882);fill-opacity:1;stroke-width:0.499999;stroke-linecap:round;stroke-linejoin:round;stroke-dashoffset:5.21575"
           d="m 92.071899,50.945211 c -0.431306,0 -0.778247,0.346939 -0.778247,0.778247 v 2.917134 a 13.863361,21.378336 0 0 0 5.060157,-3.341914 C 96.215366,51.085781 95.9762,50.945211 95.702169,50.945211 Z" /></g><g
         id="g4272"><rect
           style="opacity:1;fill:#574a44;fill-opacity:1;stroke-width:0.52179"
           id="rect4194"
           width="5.8540421"
           height="12.597306"
           x="39.718563"
           y="51.834206"
           ry="0.66691619" /><path
           id="path25445"
           style="display:inline;opacity:0.57652;fill:url(#linearGradient25694);fill-opacity:1;stroke-width:0.499999;stroke-linecap:round;stroke-linejoin:round;stroke-dashoffset:5.21575"
           d="m 40.385649,51.834045 c -0.369472,0 -0.667143,0.297672 -0.667143,0.667143 v 7.222815 a 22.082336,20.748503 0 0 0 5.853906,-1.409733 v -5.813082 c 0,-0.369471 -0.297155,-0.667143 -0.666626,-0.667143 z" /><path
           id="rect4196"
           style="opacity:1;fill:#6e5c53;fill-opacity:1;stroke-width:0.518771"
           d="m 30.660144,50.302873 c -0.189264,0.11668 -0.315226,0.325252 -0.315226,0.564823 v 14.308171 c 0,0.338594 0.250903,0.615429 0.577742,0.657324 l 8.16591,-4.037997 v -7.324617 z" /><rect
           style="opacity:1;fill:#282727;fill-opacity:1;stroke-width:0.519999"
           id="rect4267"
           width="3.260479"
           height="20.600298"
           x="26.602545"
           y="47.758606"
           ry="1.5144097" /><path
           id="rect25449"
           style="opacity:1;fill:url(#linearGradient25623);fill-opacity:1;stroke-width:0.519999"
           d="m 28.117147,47.758842 c -0.838982,0 -1.514636,0.675137 -1.514636,1.514119 v 8.042404 a 22.082336,20.748503 0 0 0 3.260266,1.364774 v -9.407178 c 0,-0.838982 -0.675138,-1.514119 -1.51412,-1.514119 z" /><path
           id="ellipse25454"
           style="display:inline;opacity:0.57652;fill:url(#linearGradient25528);fill-opacity:1;stroke-width:0.499999;stroke-linecap:round;stroke-linejoin:round;stroke-dashoffset:5.21575"
           d="m 30.660144,50.302873 c -0.189264,0.11668 -0.315226,0.325252 -0.315226,0.564823 v 7.97109 a 22.082336,20.748503 0 0 0 6.854362,1.035596 22.082336,20.748503 0 0 0 1.88929,-0.08372 v -5.320089 z" /></g><g
         id="g3978"><path
           id="path3241"
           style="opacity:1;mix-blend-mode:normal;fill:#413a37;fill-opacity:1;stroke-width:0.831473;filter:url(#filter7438)"
           d="m 67.602865,77.3932 c -0.848604,0.494792 -1.231497,1.419065 -0.855172,2.064309 L 76.767551,93.880083 77.426327,93.538766 69.82022,77.665575 C 69.44399,77.020453 68.451295,76.898513 67.602865,77.3932 Z"
           sodipodi:nodetypes="sccccs" /><path
           id="path3243"
           style="opacity:1;mix-blend-mode:normal;fill:#413a37;fill-opacity:1;stroke-width:0.831473;filter:url(#filter7442)"
           d="m 61.493033,77.3932 c 0.848604,0.494792 1.231497,1.419065 0.855172,2.064309 L 52.328347,93.880083 51.669571,93.538766 59.275678,77.665575 c 0.37623,-0.645122 1.368925,-0.767062 2.217355,-0.272375 z"
           sodipodi:nodetypes="sccccs" /><ellipse
           style="opacity:1;fill:#2d2623;fill-opacity:1;stroke-width:0.570215"
           id="path3140"
           cx="64.505608"
           cy="75.977905"
           rx="6.2705917"
           ry="5.3117633" /><ellipse
           style="opacity:1;mix-blend-mode:normal;fill:#1f1f1f;fill-opacity:1;stroke-width:0.674194;filter:url(#filter17894)"
           id="ellipse3162"
           cx="51.995602"
           cy="93.81395"
           rx="1.6804948"
           ry="1.6313236" /><ellipse
           style="opacity:1;mix-blend-mode:normal;fill:#1f1f1f;fill-opacity:1;stroke-width:0.674194;filter:url(#filter17898)"
           id="ellipse3164"
           cx="76.967911"
           cy="93.81395"
           rx="1.6804948"
           ry="1.6313236" /><path
           id="rect3187"
           style="opacity:1;fill:#514844;fill-opacity:1;stroke-width:0.831473"
           d="m 64.505623,79.085095 c -0.982316,-1.07e-4 -1.778712,0.605404 -1.778702,1.352372 l 1.389409,17.506504 0.741019,0.03705 1.42646,-17.543554 c 10e-6,-0.746814 -0.796071,-1.352262 -1.778186,-1.352372 z"
           sodipodi:nodetypes="sccccs" /><ellipse
           style="opacity:1;fill:#292323;fill-opacity:1;stroke-width:0.719683"
           id="path3160"
           cx="64.483994"
           cy="98.518333"
           rx="1.7938809"
           ry="1.7413921" /></g><g
         id="g3047"><path
           id="rect2938"
           style="opacity:1;fill:#8b7a70;fill-opacity:1;stroke-width:0.597528"
           d="M 60.362724,44.979683 A 14.615869,14.615869 0 0 1 50.14836,49.149972 14.615869,14.615869 0 0 1 42.943632,47.245178 c -0.767245,0.989972 -1.224215,2.233383 -1.224215,3.588412 v 19.489249 c 0,3.243133 2.610774,5.853907 5.853907,5.853907 h 33.790702 c 3.243132,0 5.853906,-2.610774 5.853906,-5.853907 V 50.83359 c 0,-1.077508 -0.28941,-2.084348 -0.793233,-2.949691 a 16.037426,16.037424 0 0 1 -6.172233,1.245402 16.037426,16.037424 0 0 1 -10.755933,-4.149618 z" /><rect
           style="opacity:1;fill:#a5968e;fill-opacity:1;stroke-width:0.584697"
           id="rect2990"
           width="37.421406"
           height="25.713322"
           x="44.312874"
           y="49.722305"
           ry="5.1181879" /><circle
           style="opacity:1;fill:#6d5e56;fill-opacity:1;stroke-width:0.500377"
           id="path2993"
           cx="77.473434"
           cy="70.211456"
           r="1.8895959" /><rect
           style="opacity:1;fill:#6f5b54;fill-opacity:1;stroke-width:0.469454"
           id="rect2997"
           width="10.003743"
           height="14.820358"
           x="45.869011"
           y="57.280689"
           ry="1.8268019" /><rect
           style="opacity:1;fill:#a5968e;fill-opacity:1;stroke-width:0.550437"
           id="rect3024"
           width="8.8181124"
           height="13.041916"
           x="46.239525"
           y="57.873501"
           ry="1.9137925" /><path
           id="path26368"
           style="display:inline;opacity:1;fill:url(#linearGradient26381);fill-opacity:1;stroke-width:0.499999;stroke-linecap:round;stroke-linejoin:round;stroke-dashoffset:5.21575"
           d="M 60.362724,44.979683 A 14.615869,14.615869 0 0 1 50.14836,49.149972 14.615869,14.615869 0 0 1 42.943632,47.245178 c -0.767244,0.989971 -1.224215,2.233384 -1.224215,3.588412 v 16.038297 a 37.124996,26.973053 0 0 0 9.188587,0.857312 37.124996,26.973053 0 0 0 35.679992,-19.542476 C 86.536144,48.08427 86.48226,47.982764 86.424699,47.883899 a 16.037426,16.037424 0 0 1 -6.172233,1.245402 16.037426,16.037424 0 0 1 -10.755933,-4.149618 z" /></g><g
         id="g1094"><ellipse
           style="opacity:1;fill:#2d2623;fill-opacity:1;stroke-width:0.499999;stroke-linecap:round;stroke-linejoin:round;stroke-dashoffset:5.21575"
           id="path976"
           cx="49.981705"
           cy="34.64259"
           rx="7.6500912"
           ry="7.5452952" /><path
           id="path356"
           style="display:inline;opacity:1;fill:#8b7d77;fill-opacity:1;stroke-width:0.507796"
           d="M 49.981445,20.896916 A 13.745883,13.745883 0 0 0 36.236031,34.642847 13.745883,13.745883 0 0 0 49.981445,48.388261 13.745883,13.745883 0 0 0 63.727376,34.642847 13.745883,13.745883 0 0 0 49.981445,20.896916 Z m 0.01912,0.690914 a 4.0999999,4.0999999 0 0 1 4.100008,4.100008 4.0999999,4.0999999 0 0 1 -4.100008,4.100008 4.0999999,4.0999999 0 0 1 -4.100009,-4.100008 4.0999999,4.0999999 0 0 1 4.100009,-4.100008 z m 7.755082,4.401281 a 4.0999999,4.0999999 0 0 1 4.100008,4.100008 4.0999999,4.0999999 0 0 1 -4.100008,4.100009 4.0999999,4.0999999 0 0 1 -4.100008,-4.100009 4.0999999,4.0999999 0 0 1 4.100008,-4.100008 z m -15.510165,0.104903 a 4.0999999,4.0999999 0 0 1 4.100009,4.100009 4.0999999,4.0999999 0 0 1 -4.100009,4.100008 4.0999999,4.0999999 0 0 1 -4.100008,-4.100008 4.0999999,4.0999999 0 0 1 4.100008,-4.100009 z m 0.104904,8.698178 a 4.0999999,4.0999999 0 0 1 4.100008,4.100008 4.0999999,4.0999999 0 0 1 -4.100008,4.100008 4.0999999,4.0999999 0 0 1 -4.100009,-4.100008 4.0999999,4.0999999 0 0 1 4.100009,-4.100008 z m 15.405261,0.104903 a 4.0999999,4.0999999 0 0 1 4.100008,4.100008 4.0999999,4.0999999 0 0 1 -4.100008,4.100008 4.0999999,4.0999999 0 0 1 -4.100008,-4.100008 4.0999999,4.0999999 0 0 1 4.100008,-4.100008 z m -7.755082,4.401281 a 4.0999999,4.0999999 0 0 1 4.100008,4.100009 4.0999999,4.0999999 0 0 1 -4.100008,4.100008 4.0999999,4.0999999 0 0 1 -4.100009,-4.100008 4.0999999,4.0999999 0 0 1 4.100009,-4.100009 z" /><path
           id="path26467"
           style="opacity:1;fill:url(#linearGradient26479);fill-opacity:1;stroke-width:0.499999;stroke-linecap:round;stroke-linejoin:round;stroke-dashoffset:5.21575"
           d="m 49.981445,20.896916 a 13.745883,13.745883 0 0 0 -13.745414,13.745931 13.745883,13.745883 0 0 0 5.428609,10.933699 19.044163,18.97006 0 0 0 4.444173,-0.914156 4.0999999,4.0999999 0 0 1 -0.208256,-1.264005 4.0999999,4.0999999 0 0 1 4.100009,-4.100009 4.0999999,4.0999999 0 0 1 3.007051,1.314132 19.044163,18.97006 0 0 0 0.750342,-0.74259 4.0999999,4.0999999 0 0 1 -0.102319,-0.872815 4.0999999,4.0999999 0 0 1 3.578593,-4.065902 19.044163,18.97006 0 0 0 0.332796,-0.754476 4.0999999,4.0999999 0 0 1 -3.911389,-4.087606 4.0999999,4.0999999 0 0 1 4.100008,-4.100008 4.0999999,4.0999999 0 0 1 1.372009,0.237712 19.044163,18.97006 0 0 0 -0.150895,-1.976624 13.745883,13.745883 0 0 0 -8.995317,-3.353283 z m 0.01912,0.690914 a 4.0999999,4.0999999 0 0 1 4.100008,4.100008 4.0999999,4.0999999 0 0 1 -4.100008,4.100008 4.0999999,4.0999999 0 0 1 -4.100009,-4.100008 4.0999999,4.0999999 0 0 1 4.100009,-4.100008 z m -7.755083,4.506184 a 4.0999999,4.0999999 0 0 1 4.100009,4.100009 4.0999999,4.0999999 0 0 1 -4.100009,4.100008 4.0999999,4.0999999 0 0 1 -4.100008,-4.100008 4.0999999,4.0999999 0 0 1 4.100008,-4.100009 z m 0.104904,8.698178 a 4.0999999,4.0999999 0 0 1 4.100008,4.100008 4.0999999,4.0999999 0 0 1 -4.100008,4.100008 4.0999999,4.0999999 0 0 1 -4.100009,-4.100008 4.0999999,4.0999999 0 0 1 4.100009,-4.100008 z" /><ellipse
           style="opacity:1;fill:#433e3b;fill-opacity:1;stroke-width:0.499999;stroke-linecap:round;stroke-linejoin:round;stroke-dashoffset:5.21575"
           id="path934"
           cx="50.148502"
           cy="34.533936"
           rx="3.1999998"
           ry="3.2" /></g><g
         id="g1117"><ellipse
           style="opacity:1;fill:#2d2623;fill-opacity:1;stroke-width:0.499999;stroke-linecap:round;stroke-linejoin:round;stroke-dashoffset:5.21575"
           id="ellipse1081"
           cx="80.252235"
           cy="33.092064"
           rx="10.888067"
           ry="10.888065" /><path
           id="ellipse1083"
           style="opacity:1;fill:#8b7a70;fill-opacity:1;stroke-width:0.499999;stroke-linecap:round;stroke-linejoin:round;stroke-dashoffset:5.21575"
           d="M 80.252466,17.697628 A 15.394286,15.394283 0 0 0 64.858057,33.092037 15.394286,15.394283 0 0 0 80.252466,48.486446 15.394286,15.394283 0 0 0 95.646358,33.092037 15.394286,15.394283 0 0 0 80.252466,17.697628 Z m -0.157613,1.257804 a 3.9715455,3.971545 0 0 1 3.97185,3.971334 3.9715455,3.971545 0 0 1 -3.97185,3.971851 3.9715455,3.971545 0 0 1 -3.971334,-3.971851 3.9715455,3.971545 0 0 1 3.971334,-3.971334 z m -8.645467,5.135087 a 3.9715455,3.971545 0 0 1 3.971333,3.971334 3.9715455,3.971545 0 0 1 -3.971333,3.971334 3.9715455,3.971545 0 0 1 -3.971334,-3.971334 3.9715455,3.971545 0 0 1 3.971334,-3.971334 z m 17.186547,0 a 3.9715455,3.971545 0 0 1 3.971334,3.971334 3.9715455,3.971545 0 0 1 -3.971334,3.971334 3.9715455,3.971545 0 0 1 -3.971333,-3.971334 3.9715455,3.971545 0 0 1 3.971333,-3.971334 z m -17.291451,9.745659 a 3.9715455,3.971545 0 0 1 3.971851,3.97185 3.9715455,3.971545 0 0 1 -3.971851,3.971334 3.9715455,3.971545 0 0 1 -3.971333,-3.971334 3.9715455,3.971545 0 0 1 3.971333,-3.97185 z m 17.291451,0.104903 a 3.9715455,3.971545 0 0 1 3.971334,3.971334 3.9715455,3.971545 0 0 1 -3.971334,3.97185 3.9715455,3.971545 0 0 1 -3.971333,-3.97185 3.9715455,3.971545 0 0 1 3.971333,-3.971334 z m -8.645467,5.082894 a 3.9715455,3.971545 0 0 1 3.971334,3.971333 3.9715455,3.971545 0 0 1 -3.971334,3.971334 3.9715455,3.971545 0 0 1 -3.97185,-3.971334 3.9715455,3.971545 0 0 1 3.97185,-3.971333 z" /><path
           id="path26659"
           style="display:inline;opacity:1;fill:url(#linearGradient26735);fill-opacity:1;stroke-width:0.499999;stroke-linecap:round;stroke-linejoin:round;stroke-dashoffset:5.21575"
           d="M 80.252466 17.697628 A 15.394286 15.394283 0 0 0 64.858057 33.092037 A 15.394286 15.394283 0 0 0 67.190731 41.219189 A 22.156437 17.78013 0 0 0 70.086678 41.566455 A 3.9715455 3.971545 0 0 1 67.373149 37.808028 A 3.9715455 3.971545 0 0 1 71.344482 33.836178 A 3.9715455 3.971545 0 0 1 75.316333 37.808028 A 3.9715455 3.971545 0 0 1 72.44519 41.622782 A 22.156437 17.78013 0 0 0 76.421692 41.265181 A 3.9715455 3.971545 0 0 1 79.990466 39.023975 A 3.9715455 3.971545 0 0 1 82.117985 39.643575 A 22.156437 17.78013 0 0 0 84.698189 38.386804 A 3.9715455 3.971545 0 0 1 84.6646 37.912415 A 3.9715455 3.971545 0 0 1 88.635933 33.941081 A 3.9715455 3.971545 0 0 1 89.973836 34.18396 A 22.156437 17.78013 0 0 0 93.931217 26.033036 A 15.394286 15.394283 0 0 0 80.252466 17.697628 z M 80.094853 18.955432 A 3.9715455 3.971545 0 0 1 84.066703 22.926766 A 3.9715455 3.971545 0 0 1 80.094853 26.898617 A 3.9715455 3.971545 0 0 1 76.123519 22.926766 A 3.9715455 3.971545 0 0 1 80.094853 18.955432 z M 71.449386 24.090519 A 3.9715455 3.971545 0 0 1 75.420719 28.061853 A 3.9715455 3.971545 0 0 1 71.449386 32.033187 A 3.9715455 3.971545 0 0 1 67.478052 28.061853 A 3.9715455 3.971545 0 0 1 71.449386 24.090519 z M 88.635933 24.090519 A 3.9715455 3.971545 0 0 1 92.607267 28.061853 A 3.9715455 3.971545 0 0 1 88.635933 32.033187 A 3.9715455 3.971545 0 0 1 84.6646 28.061853 A 3.9715455 3.971545 0 0 1 88.635933 24.090519 z " /><ellipse
           style="opacity:1;fill:#433e3b;fill-opacity:1;stroke-width:0.5;stroke-linecap:round;stroke-linejoin:round;stroke-dashoffset:5.21575"
           id="ellipse1077"
           cx="80.252243"
           cy="33.092064"
           rx="4.1811371"
           ry="4.1811366" /></g></g></g></svg>
