<?xml version="1.0" encoding="UTF-8" standalone="no"?>
<!-- Created with Inkscape (http://www.inkscape.org/) -->

<svg
   width="210mm"
   height="297mm"
   viewBox="0 0 210 297"
   version="1.1"
   id="svg5"
   xml:space="preserve"
   inkscape:version="1.2 (dc2aedaf03, 2022-05-15)"
   sodipodi:docname="crate.svg"
   xmlns:inkscape="http://www.inkscape.org/namespaces/inkscape"
   xmlns:sodipodi="http://sodipodi.sourceforge.net/DTD/sodipodi-0.dtd"
   xmlns="http://www.w3.org/2000/svg"
   xmlns:svg="http://www.w3.org/2000/svg"><sodipodi:namedview
     id="namedview7"
     pagecolor="#ffffff"
     bordercolor="#666666"
     borderopacity="1.0"
     inkscape:showpageshadow="2"
     inkscape:pageopacity="0.0"
     inkscape:pagecheckerboard="0"
     inkscape:deskcolor="#d1d1d1"
     inkscape:document-units="mm"
     showgrid="false"
     inkscape:zoom="1.2623761"
     inkscape:cx="192.09806"
     inkscape:cy="244.7765"
     inkscape:window-width="2080"
     inkscape:window-height="1361"
     inkscape:window-x="2006"
     inkscape:window-y="10"
     inkscape:window-maximized="0"
     inkscape:current-layer="layer1" /><defs
     id="defs2" /><g
     inkscape:label="Layer 1"
     inkscape:groupmode="layer"
     id="layer1"><g
       id="g15987"
       transform="matrix(0.61407982,0,0,0.61407982,-9.3247674,-14.431713)"><rect
         style="fill:#7c471f;fill-opacity:1;fill-rule:evenodd;stroke:#000000;stroke-width:1.2;stroke-dasharray:none;stroke-opacity:1"
         id="rect1465"
         width="79.721237"
         height="79.721237"
         x="52.470951"
         y="50.099697" /><rect
         style="fill:#7c471f;fill-opacity:1;fill-rule:evenodd;stroke:#000000;stroke-width:0.947048;stroke-dasharray:none;stroke-opacity:1"
         id="rect9368"
         width="61.596943"
         height="64.26461"
         x="61.533096"
         y="57.828011" /><path
         style="fill:none;stroke:#000000;stroke-width:0.9;stroke-linecap:round;stroke-linejoin:miter;stroke-dasharray:none;stroke-opacity:1"
         d="m 123.13003,57.82801 9.06215,-7.728312"
         id="path9540" /><path
         style="fill:none;stroke:#000000;stroke-width:0.9;stroke-linecap:round;stroke-linejoin:miter;stroke-dasharray:none;stroke-opacity:1"
         d="m 52.470951,129.82094 9.06215,-7.72831"
         id="path9542" /><path
         style="fill:none;stroke:#000000;stroke-width:0.9;stroke-linecap:round;stroke-linejoin:miter;stroke-dasharray:none;stroke-opacity:1"
         d="M 52.470952,50.099697 61.5331,57.828011"
         id="path9544" /><path
         style="fill:none;stroke:#000000;stroke-width:0.9;stroke-linecap:round;stroke-linejoin:miter;stroke-dasharray:none;stroke-opacity:1"
         d="m 123.13004,122.09262 9.06214,7.72832"
         id="path9546" /><path
         style="fill:none;stroke:#000000;stroke-width:0.9;stroke-linecap:butt;stroke-linejoin:miter;stroke-dasharray:none;stroke-opacity:1"
         d="M 68.955612,58.278011 68.746023,122.56614"
         id="path10285" /><path
         style="fill:none;stroke:#000000;stroke-width:0.9;stroke-linecap:butt;stroke-linejoin:miter;stroke-dasharray:none;stroke-opacity:1"
         d="m 76.500907,58.277579 -0.20959,64.288991"
         id="path10287" /><path
         style="fill:none;stroke:#000000;stroke-width:0.9;stroke-linecap:butt;stroke-linejoin:miter;stroke-dasharray:none;stroke-opacity:1"
         d="m 85.760507,57.815821 -0.20959,64.288989"
         id="path10291" /><path
         style="fill:none;stroke:#000000;stroke-width:0.9;stroke-linecap:butt;stroke-linejoin:miter;stroke-dasharray:none;stroke-opacity:1"
         d="m 95.020107,57.815821 -0.20959,64.288989"
         id="path10293" /><path
         style="fill:none;stroke:#000000;stroke-width:0.9;stroke-linecap:butt;stroke-linejoin:miter;stroke-dasharray:none;stroke-opacity:1"
         d="m 114.85946,58.275689 -0.20959,64.288991"
         id="path10295" /><path
         style="fill:none;stroke:#000000;stroke-width:0.9;stroke-linecap:butt;stroke-linejoin:miter;stroke-dasharray:none;stroke-opacity:1"
         d="m 105.10479,57.81582 -0.20959,64.28899"
         id="path10297" /><path
         style="fill:#7c471f;fill-opacity:1;stroke:#000000;stroke-width:0.9;stroke-linecap:butt;stroke-linejoin:miter;stroke-dasharray:none;stroke-opacity:1"
         d="m 61.565879,65.021053 55.435591,57.142107 6.15571,-0.0434 -0.0614,-7.56147 -54.329334,-56.610685 -6.965568,-0.148204 z"
         id="path10299"
         sodipodi:nodetypes="ccccccc" /><path
         style="fill:#472810;fill-opacity:1;stroke:none;stroke-width:0.264583px;stroke-linecap:butt;stroke-linejoin:miter;stroke-opacity:1"
         d="m 117.26646,58.371242 0.41918,9.326822 0.62878,-9.431618 z"
         id="path10529" /><path
         style="fill:#472810;fill-opacity:1;stroke:none;stroke-width:0.3461px;stroke-linecap:butt;stroke-linejoin:miter;stroke-opacity:1"
         d="m 110.24514,58.340968 0.41918,15.959229 0.62878,-16.138547 z"
         id="path10531" /><path
         style="fill:#472810;fill-opacity:1;stroke:none;stroke-width:0.191201px;stroke-linecap:butt;stroke-linejoin:miter;stroke-opacity:1"
         d="m 96.516895,58.216377 0.41918,4.870673 0.62878,-4.9254 z"
         id="path10533" /><path
         style="fill:#472810;fill-opacity:1;stroke:none;stroke-width:0.2124px;stroke-linecap:butt;stroke-linejoin:miter;stroke-opacity:1"
         d="m 90.019558,58.229185 0.41918,6.010618 0.62878,-6.078153 z"
         id="path10535" /><path
         style="fill:#472810;fill-opacity:1;stroke:none;stroke-width:0.150189px;stroke-linecap:butt;stroke-linejoin:miter;stroke-opacity:1"
         d="m 73.357031,58.195417 0.41918,3.005309 0.62878,-3.039076 z"
         id="path10537" /><path
         style="fill:#292929;fill-opacity:0.528061;stroke:none;stroke-width:0.264583px;stroke-linecap:butt;stroke-linejoin:miter;stroke-opacity:1"
         d="m 69.165205,57.952057 53.760225,0.104796 v 2.619896 l -51.664311,-0.31439 z"
         id="path10389"
         sodipodi:nodetypes="ccccc" /><path
         style="fill:#472810;fill-opacity:1;stroke:none;stroke-width:0.264583px;stroke-linecap:butt;stroke-linejoin:miter;stroke-opacity:1"
         d="m 126.2789,69.793979 c 0,0.73357 1.57193,4.611013 1.46714,5.554175 -0.1048,0.943163 -0.31439,4.191831 -0.62878,5.973358 -0.31438,1.78153 -0.20959,4.401423 -0.20959,4.401423 0,0 1.04796,-5.030197 1.04796,-5.554175 0,-0.523979 0.41918,-4.925402 0.31438,-5.344584 -0.10479,-0.419184 -1.99111,-5.030197 -1.99111,-5.030197 z"
         id="path10539" /><path
         style="fill:#472810;fill-opacity:1;stroke:none;stroke-width:0.264583px;stroke-linecap:butt;stroke-linejoin:miter;stroke-opacity:1"
         d="m 128.27001,53.655432 1.57194,1.991119 0.1048,4.087035 0.73356,-4.087035 z"
         id="path10569" /><path
         style="fill:#472810;fill-opacity:1;stroke:none;stroke-width:0.264583px;stroke-linecap:butt;stroke-linejoin:miter;stroke-opacity:1"
         d="m 72.518669,83.731816 c 0,0 -0.209593,4.611013 -0.104797,5.344583 0.104797,0.733571 -1.152752,4.401423 -1.047956,5.344583 0.104796,0.943163 0.419182,4.296627 0.419182,4.296627 l 0.314389,3.667851 -0.209593,-7.440497 c 0,0 1.047957,-3.563056 1.152753,-4.087034 0.104796,-0.523981 -0.523978,-7.126113 -0.523978,-7.126113 z"
         id="path11324" /><path
         style="fill:#472810;fill-opacity:1;stroke:none;stroke-width:0.264583px;stroke-linecap:butt;stroke-linejoin:miter;stroke-opacity:1"
         d="m 81.321512,94.211393 c -0.419182,1.781527 -0.523978,4.820605 -0.523978,4.820605 l 1.152752,1.781522 -0.314385,-2.724685 z"
         id="path11326" /><path
         style="fill:#292929;fill-opacity:0.528061;stroke:none;stroke-width:0.264583px;stroke-linecap:butt;stroke-linejoin:miter;stroke-opacity:1"
         d="m 106.57729,92.429863 c 0,0 -0.31439,1.467141 0,2.200712 0.31439,0.73357 0,-2.200712 0,-2.200712 z"
         id="path11328" /><path
         style="fill:#472810;fill-opacity:1;stroke:none;stroke-width:0.264583px;stroke-linecap:butt;stroke-linejoin:miter;stroke-opacity:1"
         d="m 81.426308,74.71938 c 0,0.419182 2.72469,2.934282 2.72469,2.934282 0,0 1.886326,-0.209592 2.72469,1.152753 0.838366,1.362345 1.781529,3.353464 1.781529,3.353464 l 3.45826,4.191831 3.563057,2.305507 -3.563057,-1.571937 -3.24867,-3.248668 -2.934279,-5.030197 -1.99112,-0.523978 z"
         id="path11330" /><path
         style="fill:#292929;fill-opacity:0.528061;stroke:none;stroke-width:0.264583px;stroke-linecap:butt;stroke-linejoin:miter;stroke-opacity:1"
         d="m 101.4423,101.75669 c 4.08703,4.71581 4.71581,4.19183 4.71581,4.19183 z"
         id="path11332" /><path
         style="fill:#292929;fill-opacity:0.528061;stroke:none;stroke-width:0.264583px;stroke-linecap:butt;stroke-linejoin:miter;stroke-opacity:1"
         d="m 129.63236,117.16166 c 0.20959,6.49734 0.94316,6.60214 0.94316,6.18295 0,-0.41918 -0.94316,-6.18295 -0.94316,-6.18295 z"
         id="path11334" /><path
         style="fill:#472810;fill-opacity:1;stroke:none;stroke-width:0.264583px;stroke-linecap:butt;stroke-linejoin:miter;stroke-opacity:1"
         d="m 55.908541,52.45028 17.160306,0.392984 -0.550178,0.288188 -15.745565,0.0524 z"
         id="path11369"
         sodipodi:nodetypes="ccccc" /><path
         style="fill:#472810;fill-opacity:1;stroke:none;stroke-width:0.24423px;stroke-linecap:butt;stroke-linejoin:miter;stroke-opacity:1"
         d="m 60.497472,56.387258 0.626825,0.585596 2.720421,-0.259282 z"
         id="path11371"
         sodipodi:nodetypes="cccc" /><path
         style="fill:#472810;fill-opacity:1;stroke:none;stroke-width:0.264583px;stroke-linecap:butt;stroke-linejoin:miter;stroke-opacity:1"
         d="m 61.986694,56.091932 c 0.09069,0.217654 0.75977,-0.130994 0.75977,-0.130994 0,0 2.095915,0.523978 2.305507,0.47158 0.209592,-0.0524 2.410301,0.130992 2.410301,0.130992 0,0 -1.519536,-0.340585 -1.755328,-0.340585 -0.235791,0 -1.702932,-0.288189 -1.860126,-0.314388 -0.157192,-0.02619 -1.991119,-0.130995 -1.991119,-0.130995 z"
         id="path11442"
         sodipodi:nodetypes="scscsscs" /><path
         style="fill:#472810;fill-opacity:1;stroke:none;stroke-width:0.264583px;stroke-linecap:butt;stroke-linejoin:miter;stroke-opacity:1"
         d="m 64.449396,65.54975 c 0.392983,1.126556 1.126553,1.152755 1.545738,1.676733 0.419182,0.523979 1.493337,0.96936 1.545735,1.440942 0.0524,0.471581 0.130995,0.628775 0.130995,0.628775 l 1.860124,2.148313 c 0,0 1.886326,1.729129 1.964923,1.860124 0.0786,0.130995 -0.419184,-1.676733 -0.419184,-1.676733 0,0 -0.890765,-0.392983 -1.178952,-0.576376 -0.288189,-0.183391 -0.707371,-0.916962 -1.23135,-1.571935 -0.52398,-0.654976 -1.205153,-1.598136 -1.571937,-1.807729 -0.366786,-0.209592 -2.646092,-2.122114 -2.646092,-2.122114 z"
         id="path11444" /><path
         style="fill:#000000;fill-opacity:1;stroke:none;stroke-width:0.264583px;stroke-linecap:butt;stroke-linejoin:miter;stroke-opacity:1"
         d="m 83.957334,58.16991 0.889222,1.037426 1.333833,0.592814 0.741016,-1.556138 z"
         id="path12343"
         sodipodi:nodetypes="ccccc" /><path
         style="fill:#000000;fill-opacity:1;stroke:none;stroke-width:0.264583px;stroke-linecap:butt;stroke-linejoin:miter;stroke-opacity:1"
         d="m 84.105536,88.773951 1.185629,2.74177 2.074852,-0.0741 -1.333833,-1.630234 z"
         id="path12347"
         sodipodi:nodetypes="ccccc" /><path
         style="fill:#2b2a2a;fill-opacity:0.5;stroke:none;stroke-width:0.264583px;stroke-linecap:butt;stroke-linejoin:miter;stroke-opacity:1"
         d="M 61.672308,65.654546 116.2709,121.92987 112.91744,122.08706 61.61991,68.693622 Z"
         id="path10368"
         sodipodi:nodetypes="ccccc" /><path
         style="fill:#000000;fill-opacity:1;stroke:none;stroke-width:0.264583px;stroke-linecap:butt;stroke-linejoin:miter;stroke-opacity:1"
         d="m 113.15344,103.81661 1.63024,-1.33383 0.22231,0.74102 0.66691,1.77844 -0.1482,1.70434 z"
         id="path12389"
         sodipodi:nodetypes="cccccc" /><path
         style="fill:#000000;fill-opacity:1;stroke:none;stroke-width:0.264583px;stroke-linecap:butt;stroke-linejoin:miter;stroke-opacity:1"
         d="m 67.210328,121.67515 1.333833,-1.25973 2.07485,1.63024 z"
         id="path12454" /><path
         style="fill:#000000;fill-opacity:1;stroke:none;stroke-width:0.264583px;stroke-linecap:butt;stroke-linejoin:miter;stroke-opacity:1"
         d="m 104.63173,67.432634 c 0,0 -0.44461,3.33458 -0.51871,3.630988 -0.0741,0.296407 -0.59281,3.853293 -0.59281,3.853293 l 0.81512,3.112276 c 0,0 -0.0741,2.964071 -0.22231,3.33458 -0.1482,0.37051 0,3.556887 0.22231,3.853294 0.2223,0.296407 0.59281,1.407935 0.59281,1.407935 z"
         id="path12456" /><path
         style="fill:#000000;fill-opacity:1;stroke:none;stroke-width:0.264583px;stroke-linecap:butt;stroke-linejoin:miter;stroke-opacity:1"
         d="m 122.63847,86.106287 c 0,0 -0.74102,4.075597 -0.59281,4.372004 0.1482,0.296408 0.1482,3.630989 0.1482,3.630989 l 0.74102,2.815867 z"
         id="path12458" /><path
         style="fill:#472810;fill-opacity:1;stroke:none;stroke-width:0.264583px;stroke-linecap:butt;stroke-linejoin:miter;stroke-opacity:1"
         d="m 64.172155,114.63548 c 0,1.25973 -0.444611,3.03817 0.148203,3.85329 0.592815,0.81512 0.518713,-0.81512 0.518713,-0.81512 z"
         id="path12460" /><path
         style="fill:#000000;fill-opacity:1;stroke:none;stroke-width:0.264583px;stroke-linecap:butt;stroke-linejoin:miter;stroke-opacity:1"
         d="M 61.726796,90.330088 62.467815,87.366016 61.652694,84.62425 Z"
         id="path12700" /><path
         style="fill:#4f3624;fill-opacity:1;stroke:none;stroke-width:0.264583px;stroke-linecap:butt;stroke-linejoin:miter;stroke-opacity:1"
         d="m 89.528794,110.30518 c -0.452045,0.28494 -0.963647,3.79 -0.963647,3.79 l 0.943061,-1.20182 z"
         id="path12702" /><path
         style="fill:#4f3624;fill-opacity:1;stroke:none;stroke-width:0.264583px;stroke-linecap:butt;stroke-linejoin:miter;stroke-opacity:1"
         d="m 80.252244,121.67515 -0.0741,-5.18713 0.81512,5.03892 z"
         id="path12911" /><path
         style="fill:#5a3a22;fill-opacity:1;stroke:none;stroke-width:0.264583px;stroke-linecap:butt;stroke-linejoin:miter;stroke-opacity:1"
         d="m 107.1512,121.67515 0.66691,-2.07485 0.37051,2.07485 z"
         id="path13053" /><path
         style="fill:#472810;fill-opacity:1;stroke:none;stroke-width:0.264583px;stroke-linecap:butt;stroke-linejoin:miter;stroke-opacity:1"
         d="m 67.432634,124.12051 0.222305,0.88922 45.869011,-0.29641 -0.1482,-0.44461 z"
         id="path13124" /><path
         style="fill:#472810;fill-opacity:1;stroke:none;stroke-width:0.210312px;stroke-linecap:butt;stroke-linejoin:miter;stroke-opacity:1"
         d="m 99.741017,126.78817 -0.526456,0.88922 28.981549,-0.29641 -0.0936,-0.44461 z"
         id="path13195"
         sodipodi:nodetypes="ccccc" /><path
         style="fill:#472810;fill-opacity:1;stroke:none;stroke-width:0.112524px;stroke-linecap:butt;stroke-linejoin:miter;stroke-opacity:1"
         d="m 63.653443,127.38099 0.08041,0.44461 16.592483,-0.1482 -0.05361,-0.22231 z"
         id="path13197" /><path
         style="fill:#472810;fill-opacity:1;stroke:none;stroke-width:0.210312px;stroke-linecap:butt;stroke-linejoin:miter;stroke-opacity:1"
         d="m 122.70483,54.909428 0.52646,0.88922 -28.981549,-0.29641 0.0936,-0.44461 z"
         id="path13199"
         sodipodi:nodetypes="ccccc" /><path
         style="fill:#472810;fill-opacity:1;stroke:none;stroke-width:0.264583px;stroke-linecap:butt;stroke-linejoin:miter;stroke-opacity:1"
         d="m 56.095058,81.141466 c 0,0 1.18563,2.741766 0.963324,4.446108 -0.222306,1.70434 -0.963324,4.297905 -0.963324,4.297905 L 57.651197,86.625 c 0,0 0.222305,-3.482784 -0.222306,-4.297905 -0.444611,-0.81512 -1.333833,-1.185629 -1.333833,-1.185629 z"
         id="path13982" /><path
         style="fill:#472810;fill-opacity:1;stroke:none;stroke-width:0.264583px;stroke-linecap:butt;stroke-linejoin:miter;stroke-opacity:1"
         d="m 53.797903,115.4506 -0.296408,3.77919 0.963325,3.33458 c 0,0 0,-1.63024 0,-2.88997 0,-1.25973 -0.666917,-4.2238 -0.666917,-4.2238 z"
         id="path14053" /><path
         style="fill:#000000;fill-opacity:1;stroke:none;stroke-width:0.264583px;stroke-linecap:butt;stroke-linejoin:miter;stroke-opacity:1"
         d="m 75.361527,64.246256 1.185627,-1.704339 -0.0741,3.408682 z"
         id="path14055" /><path
         style="fill:#472810;fill-opacity:1;stroke:none;stroke-width:0.264583px;stroke-linecap:butt;stroke-linejoin:miter;stroke-opacity:1"
         d="m 93.542664,121.61081 0.05317,-4.94544 -0.741789,3.70215 0.222305,1.33383 z"
         id="path14059"
         sodipodi:nodetypes="ccccc" /><path
         style="fill:#000000;fill-opacity:1;stroke:none;stroke-width:0.264583px;stroke-linecap:butt;stroke-linejoin:miter;stroke-opacity:1"
         d="m 93.368264,121.82335 0.222303,-0.96332 0.889222,-0.81512 c 0,0 0.592815,-0.37051 1.111528,-0.0741 0.518713,0.29641 1.926645,1.55613 1.926645,1.55613 l -0.815118,0.74102 z"
         id="path12345" /><g
         id="g14389"
         transform="matrix(0.16647967,0,0,0.16647967,44.732396,44.298194)"><circle
           style="fill:#707070;fill-opacity:1;fill-rule:evenodd;stroke:#000000;stroke-width:0.343385;stroke-opacity:1"
           id="path14320"
           cx="70.451347"
           cy="44.219311"
           r="2.5" /><path
           style="fill:#0a0a0a;fill-opacity:1;stroke:none;stroke-width:0.264583px;stroke-linecap:butt;stroke-linejoin:miter;stroke-opacity:1"
           d="m 69.263476,43.101045 0.963321,1.148578 -1.111525,0.963324 0.296408,0.296407 1.037423,-0.889222 1.037426,0.963324 0.318111,-0.328962 -0.938985,-0.946115 0.880229,-1.022078 -0.296405,-0.33346 -0.919916,0.92178 -0.895578,-1.069983 z"
           id="path14385"
           sodipodi:nodetypes="ccccccccccccc" /></g><g
         id="g14395"
         transform="matrix(0.15340568,0.06466975,-0.06466975,0.15340568,46.364815,42.154171)"><circle
           style="fill:#707070;fill-opacity:1;fill-rule:evenodd;stroke:#000000;stroke-width:0.343385;stroke-opacity:1"
           id="circle14391"
           cx="70.451347"
           cy="44.219311"
           r="2.5" /><path
           style="fill:#0a0a0a;fill-opacity:1;stroke:none;stroke-width:0.264583px;stroke-linecap:butt;stroke-linejoin:miter;stroke-opacity:1"
           d="m 69.263476,43.101045 0.963321,1.148578 -1.111525,0.963324 0.296408,0.296407 1.037423,-0.889222 1.037426,0.963324 0.318111,-0.328962 -0.938985,-0.946115 0.880229,-1.022078 -0.296405,-0.33346 -0.919916,0.92178 -0.895578,-1.069983 z"
           id="path14393"
           sodipodi:nodetypes="ccccccccccccc" /></g><g
         id="g14401"
         transform="matrix(0.15340568,0.06466975,-0.06466975,0.15340568,46.364815,42.154171)"><circle
           style="fill:#707070;fill-opacity:1;fill-rule:evenodd;stroke:#000000;stroke-width:0.343385;stroke-opacity:1"
           id="circle14397"
           cx="70.451347"
           cy="44.219311"
           r="2.5" /><path
           style="fill:#0a0a0a;fill-opacity:1;stroke:none;stroke-width:0.264583px;stroke-linecap:butt;stroke-linejoin:miter;stroke-opacity:1"
           d="m 69.263476,43.101045 0.963321,1.148578 -1.111525,0.963324 0.296408,0.296407 1.037423,-0.889222 1.037426,0.963324 0.318111,-0.328962 -0.938985,-0.946115 0.880229,-1.022078 -0.296405,-0.33346 -0.919916,0.92178 -0.895578,-1.069983 z"
           id="path14399"
           sodipodi:nodetypes="ccccccccccccc" /></g><g
         id="g14407"
         transform="matrix(0.09397139,0.13742219,-0.13742219,0.09397139,59.218483,44.582208)"><circle
           style="fill:#707070;fill-opacity:1;fill-rule:evenodd;stroke:#000000;stroke-width:0.343385;stroke-opacity:1"
           id="circle14403"
           cx="70.451347"
           cy="44.219311"
           r="2.5" /><path
           style="fill:#0a0a0a;fill-opacity:1;stroke:none;stroke-width:0.264583px;stroke-linecap:butt;stroke-linejoin:miter;stroke-opacity:1"
           d="m 69.263476,43.101045 0.963321,1.148578 -1.111525,0.963324 0.296408,0.296407 1.037423,-0.889222 1.037426,0.963324 0.318111,-0.328962 -0.938985,-0.946115 0.880229,-1.022078 -0.296405,-0.33346 -0.919916,0.92178 -0.895578,-1.069983 z"
           id="path14405"
           sodipodi:nodetypes="ccccccccccccc" /></g><g
         id="g14413"
         transform="matrix(0.09773517,-0.13477135,0.13477135,0.09773517,49.275014,61.443866)"><circle
           style="fill:#707070;fill-opacity:1;fill-rule:evenodd;stroke:#000000;stroke-width:0.343385;stroke-opacity:1"
           id="circle14409"
           cx="70.451347"
           cy="44.219311"
           r="2.5" /><path
           style="fill:#0a0a0a;fill-opacity:1;stroke:none;stroke-width:0.264583px;stroke-linecap:butt;stroke-linejoin:miter;stroke-opacity:1"
           d="m 69.263476,43.101045 0.963321,1.148578 -1.111525,0.963324 0.296408,0.296407 1.037423,-0.889222 1.037426,0.963324 0.318111,-0.328962 -0.938985,-0.946115 0.880229,-1.022078 -0.296405,-0.33346 -0.919916,0.92178 -0.895578,-1.069983 z"
           id="path14411"
           sodipodi:nodetypes="ccccccccccccc" /></g><g
         id="g14419"
         transform="matrix(0.16647967,0,0,0.16647967,113.16541,114.32439)"><circle
           style="fill:#707070;fill-opacity:1;fill-rule:evenodd;stroke:#000000;stroke-width:0.343385;stroke-opacity:1"
           id="circle14415"
           cx="70.451347"
           cy="44.219311"
           r="2.5" /><path
           style="fill:#0a0a0a;fill-opacity:1;stroke:none;stroke-width:0.264583px;stroke-linecap:butt;stroke-linejoin:miter;stroke-opacity:1"
           d="m 69.263476,43.101045 0.963321,1.148578 -1.111525,0.963324 0.296408,0.296407 1.037423,-0.889222 1.037426,0.963324 0.318111,-0.328962 -0.938985,-0.946115 0.880229,-1.022078 -0.296405,-0.33346 -0.919916,0.92178 -0.895578,-1.069983 z"
           id="path14417"
           sodipodi:nodetypes="ccccccccccccc" /></g><g
         id="g14425"
         transform="matrix(0.15340568,0.06466975,-0.06466975,0.15340568,114.79783,112.18037)"><circle
           style="fill:#707070;fill-opacity:1;fill-rule:evenodd;stroke:#000000;stroke-width:0.343385;stroke-opacity:1"
           id="circle14421"
           cx="70.451347"
           cy="44.219311"
           r="2.5" /><path
           style="fill:#0a0a0a;fill-opacity:1;stroke:none;stroke-width:0.264583px;stroke-linecap:butt;stroke-linejoin:miter;stroke-opacity:1"
           d="m 69.263476,43.101045 0.963321,1.148578 -1.111525,0.963324 0.296408,0.296407 1.037423,-0.889222 1.037426,0.963324 0.318111,-0.328962 -0.938985,-0.946115 0.880229,-1.022078 -0.296405,-0.33346 -0.919916,0.92178 -0.895578,-1.069983 z"
           id="path14423"
           sodipodi:nodetypes="ccccccccccccc" /></g><g
         id="g14431"
         transform="matrix(0.09397139,0.13742219,-0.13742219,0.09397139,127.6515,114.6084)"><circle
           style="fill:#707070;fill-opacity:1;fill-rule:evenodd;stroke:#000000;stroke-width:0.343385;stroke-opacity:1"
           id="circle14427"
           cx="70.451347"
           cy="44.219311"
           r="2.5" /><path
           style="fill:#0a0a0a;fill-opacity:1;stroke:none;stroke-width:0.264583px;stroke-linecap:butt;stroke-linejoin:miter;stroke-opacity:1"
           d="m 69.263476,43.101045 0.963321,1.148578 -1.111525,0.963324 0.296408,0.296407 1.037423,-0.889222 1.037426,0.963324 0.318111,-0.328962 -0.938985,-0.946115 0.880229,-1.022078 -0.296405,-0.33346 -0.919916,0.92178 -0.895578,-1.069983 z"
           id="path14429"
           sodipodi:nodetypes="ccccccccccccc" /></g><g
         id="g14437"
         transform="matrix(0.09773517,-0.13477135,0.13477135,0.09773517,117.70803,131.47006)"><circle
           style="fill:#707070;fill-opacity:1;fill-rule:evenodd;stroke:#000000;stroke-width:0.343385;stroke-opacity:1"
           id="circle14433"
           cx="70.451347"
           cy="44.219311"
           r="2.5" /><path
           style="fill:#0a0a0a;fill-opacity:1;stroke:none;stroke-width:0.264583px;stroke-linecap:butt;stroke-linejoin:miter;stroke-opacity:1"
           d="m 69.263476,43.101045 0.963321,1.148578 -1.111525,0.963324 0.296408,0.296407 1.037423,-0.889222 1.037426,0.963324 0.318111,-0.328962 -0.938985,-0.946115 0.880229,-1.022078 -0.296405,-0.33346 -0.919916,0.92178 -0.895578,-1.069983 z"
           id="path14435"
           sodipodi:nodetypes="ccccccccccccc" /></g><g
         id="g14443"
         transform="matrix(-0.16647967,0,0,0.16647967,140.35567,44.075886)"><circle
           style="fill:#707070;fill-opacity:1;fill-rule:evenodd;stroke:#000000;stroke-width:0.343385;stroke-opacity:1"
           id="circle14439"
           cx="70.451347"
           cy="44.219311"
           r="2.5" /><path
           style="fill:#0a0a0a;fill-opacity:1;stroke:none;stroke-width:0.264583px;stroke-linecap:butt;stroke-linejoin:miter;stroke-opacity:1"
           d="m 69.263476,43.101045 0.963321,1.148578 -1.111525,0.963324 0.296408,0.296407 1.037423,-0.889222 1.037426,0.963324 0.318111,-0.328962 -0.938985,-0.946115 0.880229,-1.022078 -0.296405,-0.33346 -0.919916,0.92178 -0.895578,-1.069983 z"
           id="path14441"
           sodipodi:nodetypes="ccccccccccccc" /></g><g
         id="g14449"
         transform="matrix(-0.15340568,0.06466975,0.06466975,0.15340568,138.72325,41.931866)"><circle
           style="fill:#707070;fill-opacity:1;fill-rule:evenodd;stroke:#000000;stroke-width:0.343385;stroke-opacity:1"
           id="circle14445"
           cx="70.451347"
           cy="44.219311"
           r="2.5" /><path
           style="fill:#0a0a0a;fill-opacity:1;stroke:none;stroke-width:0.264583px;stroke-linecap:butt;stroke-linejoin:miter;stroke-opacity:1"
           d="m 69.263476,43.101045 0.963321,1.148578 -1.111525,0.963324 0.296408,0.296407 1.037423,-0.889222 1.037426,0.963324 0.318111,-0.328962 -0.938985,-0.946115 0.880229,-1.022078 -0.296405,-0.33346 -0.919916,0.92178 -0.895578,-1.069983 z"
           id="path14447"
           sodipodi:nodetypes="ccccccccccccc" /></g><g
         id="g14455"
         transform="matrix(-0.09397139,0.13742219,0.13742219,0.09397139,125.86958,44.359896)"><circle
           style="fill:#707070;fill-opacity:1;fill-rule:evenodd;stroke:#000000;stroke-width:0.343385;stroke-opacity:1"
           id="circle14451"
           cx="70.451347"
           cy="44.219311"
           r="2.5" /><path
           style="fill:#0a0a0a;fill-opacity:1;stroke:none;stroke-width:0.264583px;stroke-linecap:butt;stroke-linejoin:miter;stroke-opacity:1"
           d="m 69.263476,43.101045 0.963321,1.148578 -1.111525,0.963324 0.296408,0.296407 1.037423,-0.889222 1.037426,0.963324 0.318111,-0.328962 -0.938985,-0.946115 0.880229,-1.022078 -0.296405,-0.33346 -0.919916,0.92178 -0.895578,-1.069983 z"
           id="path14453"
           sodipodi:nodetypes="ccccccccccccc" /></g><g
         id="g14461"
         transform="matrix(-0.09773517,-0.13477135,-0.13477135,0.09773517,135.81305,61.221556)"><circle
           style="fill:#707070;fill-opacity:1;fill-rule:evenodd;stroke:#000000;stroke-width:0.343385;stroke-opacity:1"
           id="circle14457"
           cx="70.451347"
           cy="44.219311"
           r="2.5" /><path
           style="fill:#0a0a0a;fill-opacity:1;stroke:none;stroke-width:0.264583px;stroke-linecap:butt;stroke-linejoin:miter;stroke-opacity:1"
           d="m 69.263476,43.101045 0.963321,1.148578 -1.111525,0.963324 0.296408,0.296407 1.037423,-0.889222 1.037426,0.963324 0.318111,-0.328962 -0.938985,-0.946115 0.880229,-1.022078 -0.296405,-0.33346 -0.919916,0.92178 -0.895578,-1.069983 z"
           id="path14459"
           sodipodi:nodetypes="ccccccccccccc" /></g><g
         id="g14467"
         transform="matrix(-0.16647967,0,0,0.16647967,71.29526,114.39385)"><circle
           style="fill:#707070;fill-opacity:1;fill-rule:evenodd;stroke:#000000;stroke-width:0.343385;stroke-opacity:1"
           id="circle14463"
           cx="70.451347"
           cy="44.219311"
           r="2.5" /><path
           style="fill:#0a0a0a;fill-opacity:1;stroke:none;stroke-width:0.264583px;stroke-linecap:butt;stroke-linejoin:miter;stroke-opacity:1"
           d="m 69.263476,43.101045 0.963321,1.148578 -1.111525,0.963324 0.296408,0.296407 1.037423,-0.889222 1.037426,0.963324 0.318111,-0.328962 -0.938985,-0.946115 0.880229,-1.022078 -0.296405,-0.33346 -0.919916,0.92178 -0.895578,-1.069983 z"
           id="path14465"
           sodipodi:nodetypes="ccccccccccccc" /></g><g
         id="g14473"
         transform="matrix(-0.15340568,0.06466975,0.06466975,0.15340568,69.66284,112.24983)"><circle
           style="fill:#707070;fill-opacity:1;fill-rule:evenodd;stroke:#000000;stroke-width:0.343385;stroke-opacity:1"
           id="circle14469"
           cx="70.451347"
           cy="44.219311"
           r="2.5" /><path
           style="fill:#0a0a0a;fill-opacity:1;stroke:none;stroke-width:0.264583px;stroke-linecap:butt;stroke-linejoin:miter;stroke-opacity:1"
           d="m 69.263476,43.101045 0.963321,1.148578 -1.111525,0.963324 0.296408,0.296407 1.037423,-0.889222 1.037426,0.963324 0.318111,-0.328962 -0.938985,-0.946115 0.880229,-1.022078 -0.296405,-0.33346 -0.919916,0.92178 -0.895578,-1.069983 z"
           id="path14471"
           sodipodi:nodetypes="ccccccccccccc" /></g><g
         id="g14479"
         transform="matrix(-0.09397139,0.13742219,0.13742219,0.09397139,56.80917,114.67786)"><circle
           style="fill:#707070;fill-opacity:1;fill-rule:evenodd;stroke:#000000;stroke-width:0.343385;stroke-opacity:1"
           id="circle14475"
           cx="70.451347"
           cy="44.219311"
           r="2.5" /><path
           style="fill:#0a0a0a;fill-opacity:1;stroke:none;stroke-width:0.264583px;stroke-linecap:butt;stroke-linejoin:miter;stroke-opacity:1"
           d="m 69.263476,43.101045 0.963321,1.148578 -1.111525,0.963324 0.296408,0.296407 1.037423,-0.889222 1.037426,0.963324 0.318111,-0.328962 -0.938985,-0.946115 0.880229,-1.022078 -0.296405,-0.33346 -0.919916,0.92178 -0.895578,-1.069983 z"
           id="path14477"
           sodipodi:nodetypes="ccccccccccccc" /></g><g
         id="g14485"
         transform="matrix(-0.09773517,-0.13477135,-0.13477135,0.09773517,66.75264,131.53952)"><circle
           style="fill:#707070;fill-opacity:1;fill-rule:evenodd;stroke:#000000;stroke-width:0.343385;stroke-opacity:1"
           id="circle14481"
           cx="70.451347"
           cy="44.219311"
           r="2.5" /><path
           style="fill:#0a0a0a;fill-opacity:1;stroke:none;stroke-width:0.264583px;stroke-linecap:butt;stroke-linejoin:miter;stroke-opacity:1"
           d="m 69.263476,43.101045 0.963321,1.148578 -1.111525,0.963324 0.296408,0.296407 1.037423,-0.889222 1.037426,0.963324 0.318111,-0.328962 -0.938985,-0.946115 0.880229,-1.022078 -0.296405,-0.33346 -0.919916,0.92178 -0.895578,-1.069983 z"
           id="path14483"
           sodipodi:nodetypes="ccccccccccccc" /></g><path
         style="fill:#472810;fill-opacity:1;stroke:none;stroke-width:0.264583px;stroke-linecap:butt;stroke-linejoin:miter;stroke-opacity:1"
         d="m 98.193631,78.387233 c 0.104796,0.628774 0.314386,4.820605 0.314386,4.820605 l -0.104793,2.934279 c 0,0 0.838364,-2.305505 0.628774,-3.45826 -0.209592,-1.152753 -0.838367,-4.296624 -0.838367,-4.296624 z"
         id="path15320" /><path
         style="fill:#472810;fill-opacity:1;stroke:none;stroke-width:0.264583px;stroke-linecap:butt;stroke-linejoin:miter;stroke-opacity:1"
         d="m 117.37126,74.404992 c 0,0.52398 0.10479,23.369457 0.10479,23.369457 l 0.41918,-0.628777 0.62878,-1.362345 -0.31439,-0.94316 z"
         id="path15391" /><path
         style="fill:#472810;fill-opacity:1;stroke:none;stroke-width:0.325641px;stroke-linecap:butt;stroke-linejoin:miter;stroke-opacity:1"
         d="m 80.692738,64.135007 c 0,0 -0.262068,1.45459 0.257959,1.676732 0.482609,0.206158 1.328351,-0.379477 1.289792,-0.902856 -0.04238,-0.575254 -1.547751,-0.773876 -1.547751,-0.773876 z"
         id="path15462"
         sodipodi:nodetypes="cssc" /><path
         style="fill:#472810;fill-opacity:1;stroke:none;stroke-width:0.264583px;stroke-linecap:butt;stroke-linejoin:miter;stroke-opacity:1"
         d="m 57.799401,66.543411 -0.148204,4.446109 0.741019,4.149701 -0.148204,-5.483535 z"
         id="path15671"
         sodipodi:nodetypes="ccccc" /></g></g></svg>
