<?xml version="1.0" encoding="UTF-8" standalone="no"?>
<!-- Created with Inkscape (http://www.inkscape.org/) -->

<svg
   width="210mm"
   height="297mm"
   viewBox="0 0 210 297"
   version="1.1"
   id="svg1"
   inkscape:version="1.4 (86a8ad7, 2024-10-11)"
   sodipodi:docname="logo.svg"
   xmlns:inkscape="http://www.inkscape.org/namespaces/inkscape"
   xmlns:sodipodi="http://sodipodi.sourceforge.net/DTD/sodipodi-0.dtd"
   xmlns="http://www.w3.org/2000/svg"
   xmlns:svg="http://www.w3.org/2000/svg">
  <sodipodi:namedview
     id="namedview1"
     pagecolor="#ffffff"
     bordercolor="#000000"
     borderopacity="0.25"
     inkscape:showpageshadow="2"
     inkscape:pageopacity="0.0"
     inkscape:pagecheckerboard="0"
     inkscape:deskcolor="#d1d1d1"
     inkscape:document-units="mm"
     inkscape:zoom="2.2516808"
     inkscape:cx="44.411268"
     inkscape:cy="182.30825"
     inkscape:window-width="2560"
     inkscape:window-height="1377"
     inkscape:window-x="1272"
     inkscape:window-y="-8"
     inkscape:window-maximized="1"
     inkscape:current-layer="layer1" />
  <defs
     id="defs1">
    <pattern
       id="EMFhbasepattern"
       patternUnits="userSpaceOnUse"
       width="6"
       height="6"
       x="0"
       y="0" />
  </defs>
  <g
     inkscape:label="Layer 1"
     inkscape:groupmode="layer"
     id="layer1">
    <path
       id="path1"
       style="fill:#000000;stroke-width:1"
       d="m 22.531521,3.6939688 -0.271858,0.857808 c -1.988212,6.2742562 1.142767,-3.55199289 -0.939274,2.987443 l -3.88679,0.02908 1.561224,1.184591 c 1.133502,0.86024 1.553441,1.208941 1.5333,1.2729812 -1.983972,6.314239 1.562116,-4.9457752 -0.554794,1.804005 -0.378978,1.208374 -0.580211,1.875699 -0.581104,1.925625 -3.48e-4,0.02413 0.354344,-0.227177 0.788113,-0.558486 1.840765,-1.405956 2.272199,-1.726925 2.321413,-1.726925 0.02862,0 0.716438,0.505619 1.528684,1.123666 0.812246,0.618048 1.506976,1.141902 1.543685,1.164053 0.07069,0.04268 0.02501,-0.146488 -0.231934,-0.959582 -0.195983,-0.620213 -0.807708,-2.723805 -0.839114,-2.777894 0.990301,-0.8405422 2.044678,-1.6100232 3.079293,-2.3968782 l -3.821481,-0.02908 c -0.368428,-1.100163 -0.714786,-2.208991 -1.052817,-3.319303 z m 12.850503,0.09577 c -0.02072,0.03863 -0.294495,0.898183 -0.608565,1.909932 l -0.57118,1.839545 -3.87756,0.02908 0.394634,0.304398 c 0.303859,0.23437 0.727763,0.557622 2.711891,2.068247 -0.350292,1.1823142 -0.714632,2.3605692 -1.089511,3.5353142 -0.05641,0.17503 -0.09245,0.318245 -0.08008,0.318245 1.327964,-0.96523 3.019683,-2.324413 3.115756,-2.324413 0.04802,0 0.536362,0.363103 2.317489,1.723693 0.432478,0.330368 0.796036,0.60072 0.80796,0.60072 0.01192,0 -0.249092,-0.86373 -0.579949,-1.919394 -0.330858,-1.055664 -0.582395,-1.9369902 -0.558949,-1.9586272 0.04103,-0.03788 0.258818,-0.203854 2.201176,-1.676846 l 0.885502,-0.671337 c -1.278441,-0.0099 -2.556884,-0.01961 -3.835327,-0.02931 -0.27312,-0.871443 -0.546158,-1.742912 -0.818806,-2.614502 -0.207252,-0.66265 -0.393759,-1.173374 -0.414481,-1.134744 z M 9.6510156,8.7028068 c -0.01875,0 -0.167011,0.442118 -0.329322,0.982429 -0.568517,1.8925242 -0.839674,2.7536292 -0.879732,2.7940492 -1.272049,0.07327 -2.550743,0.06013 -3.825404,0.06993 1.029695,0.781184 2.061152,1.560061 3.084139,2.350029 l -0.207701,0.679185 c -0.114237,0.373508 -0.372874,1.20698 -0.574642,1.852237 -0.201763,0.645258 -0.366939,1.202256 -0.366939,1.237902 0,0.03565 0.08108,0.0037 0.180008,-0.07108 1.736564,-1.311763 -0.323467,0.239989 2.914978,-2.211792 0.8957454,0.681622 1.7935804,1.360508 2.6878904,2.044016 0.212602,0.162736 0.393824,0.274012 0.402711,0.247395 0.0089,-0.02662 -0.174089,-0.669188 -0.406403,-1.427834 -0.582612,-1.90256 -0.695708,-2.295419 -0.676415,-2.35049 0.01469,-0.0419 0.754487,-0.613443 2.530729,-1.955396 l 0.521563,-0.394172 -1.914549,-0.02769 c -1.052929,-0.01522 -1.92562,-0.03994 -1.939241,-0.05516 -0.349518,-1.090375 -0.69822,-2.181788 -1.0248924,-3.2793792 -0.07857,-0.266351 -0.158021,-0.484176 -0.176778,-0.484176 z m 38.5798984,0.03969 c -0.08532,-0.09044 -1.046257,3.4310332 -1.17536,3.6816282 -0.04533,0.08802 -0.209909,0.09722 -1.948477,0.110543 l -1.899084,0.01454 c 1.017541,0.762382 2.015835,1.550792 3.03983,2.304566 0.08726,0.05503 -1.120435,3.747619 -1.120435,3.825173 0,0.146627 3.034046,-2.283103 3.1116,-2.283103 0.02805,0 3.043546,2.322682 3.097065,2.32372 0.07672,0.0015 -0.395287,-1.249773 -1.160128,-3.822634 1.029412,-0.781188 2.059864,-1.561003 3.08506,-2.347722 l -3.842478,-0.05539 C 48.989409,11.254594 48.705403,9.9652978 48.230914,8.7424938 Z M 29.016429,16.101139 c -13.631669,0 -24.6876534,11.09576 -24.6876534,24.773273 0,13.677515 11.0559844,24.773272 24.6876534,24.773272 13.63167,0 24.688806,-11.095757 24.688806,-24.773272 0,-13.677513 -11.057136,-24.773273 -24.688806,-24.773273 z m 0,0.669953 c 13.268373,0 24.018856,10.786573 24.018856,24.10332 0,13.31675 -10.750483,24.10355 -24.018856,24.10355 -13.268372,0 -24.0179314,-10.7868 -24.0179304,-24.10355 0,-13.316747 10.7495594,-24.10332 24.0179304,-24.10332 z m -3.675166,1.149751 c -2.836196,0.439355 -5.794331,1.504246 -8.218756,2.958826 -2.621723,1.572952 -4.917559,3.630577 -6.708534,6.01204 -0.6964054,0.926018 -2.0684784,2.922082 -3.0813704,5.526711 -1.535692,3.949008 -1.967216,8.126977 -1.272288,12.314403 0.529816,3.192522 1.660854,6.09888 3.441156,8.842324 0.170134,0.262177 1.1223694,1.715359 1.2863654,1.652381 0.557225,-0.404258 1.090479,-0.842024 1.629305,-1.270675 -3.0134744,-3.95542 -4.5024814,-8.312727 -4.5011274,-13.098359 8.04e-4,-2.874066 0.5605,-5.625026 1.677768,-8.246449 1.5025524,-3.525409 4.1162874,-6.772835 7.1855564,-8.927942 2.383192,-1.673372 4.954263,-2.815724 7.676423,-3.410462 3.707596,-0.810037 7.582568,-0.621368 11.124503,0.541409 5.674865,1.862993 10.365434,6.115998 12.766499,11.575677 1.193952,2.714876 1.772531,5.501974 1.769851,8.523154 -0.005,5.260887 -1.840291,9.569119 -4.494204,13.048282 0.418442,0.226973 1.420161,1.564748 1.788081,1.116049 0.647563,-0.762826 1.731865,-2.501684 2.413493,-3.870175 3.216066,-6.456851 3.233447,-14.067247 0.04685,-20.559466 -0.267009,-0.543989 -1.921708,-3.832892 -3.640086,-5.36978 -3.432809,-3.856367 -8.430173,-6.565963 -13.561074,-7.352641 -2.696259,-0.413394 -4.98881,-0.367736 -7.328408,-0.0053 z m 2.649351,4.085259 c -5.814584,0.309559 -11.069396,3.211352 -14.472193,7.991669 -1.408308,1.978423 -2.457214,4.332227 -2.98975,6.709457 -1.2706894,5.672315 0.06358,11.459411 3.694551,16.023032 0.619486,0.778609 2.141407,2.301307 2.926979,2.928595 3.113352,2.486067 6.909027,3.931353 10.819873,4.120107 h 2.31e-4 c 5.677244,0.462261 12.233647,-2.497804 15.853869,-7.187148 4.389305,-5.6854 4.214887,-11.566738 3.940353,-13.818624 -0.336128,-2.750375 -1.210454,-5.32307 -2.582888,-7.600497 -5.567216,-9.238017 -15.079173,-9.279025 -17.191025,-9.166591 z m 8.973174,2.745819 c 4.557427,2.246738 7.90529,6.240678 9.348883,11.153119 1.148825,3.909371 0.968011,9.274824 -1.294442,13.269137 -3.094215,5.462786 -8.319939,9.185951 -14.585044,9.724131 -2.239655,0.192421 -4.275892,-0.150678 -4.92576,-0.278553 -3.448072,-0.678467 -6.504115,-2.271863 -9.013562,-4.699598 -1.887491,-1.826031 -4.618381,-5.07163 -5.439476,-10.654174 -0.123039,-0.836428 -0.142113,-3.55806 -0.03115,-4.455201 0.799532,-6.46589 4.940903,-11.976182 10.914262,-14.522041 1.703305,-0.725952 3.44257,-1.165215 5.414091,-1.367369 4.32877,-0.443884 8.009551,1.040467 9.612202,1.830549 z m -8.658622,-0.692339 c -0.248981,0.128754 -0.389787,0.389588 -0.389787,0.721186 0,0.404795 0.136524,0.591049 0.590796,0.80519 0.470769,0.221916 0.570949,0.308131 0.570949,0.492715 0,0.205755 -0.09636,0.279243 -0.366478,0.279243 -0.173142,0 -0.279828,-0.03873 -0.41125,-0.149314 l -0.177469,-0.149084 -0.158776,0.1777 c -0.08739,0.09781 -0.159008,0.198046 -0.159008,0.222702 0,0.08631 0.268226,0.295539 0.479099,0.373864 0.404973,0.150416 1.017626,-0.0051 1.251056,-0.317784 0.239866,-0.321251 0.226458,-0.84658 -0.02769,-1.085357 -0.06892,-0.06475 -0.274854,-0.184952 -0.457405,-0.267012 -0.534461,-0.240247 -0.704851,-0.460161 -0.492946,-0.636028 0.127527,-0.105837 0.455587,-0.07962 0.631644,0.05054 l 0.152084,0.11239 0.157623,-0.164546 c 0.183113,-0.191131 0.153209,-0.286718 -0.143315,-0.460406 -0.234147,-0.13715 -0.801189,-0.134216 -1.049125,-0.006 z m -1.566994,0.05169 c -0.721746,0.08249 -1.436503,0.246981 -2.149712,0.389094 0.02588,0.161623 0.05014,0.323692 0.09439,0.481176 0.02874,0.049 0.763646,-0.11216 0.777035,-0.09854 0.01162,0.01231 0.400252,2.01797 0.438251,2.144866 0.02269,0.07571 0.06676,0.08069 0.30209,0.03415 0.193983,-0.03836 0.275797,-0.081 0.276243,-0.144006 10e-4,-0.138861 -0.417958,-2.098267 -0.370401,-2.145789 0.214892,-0.08365 0.44822,-0.118158 0.674107,-0.164085 -0.0018,-0.16732 0.0012,-0.335669 -0.042,-0.496868 z m 5.322471,0.126237 c -0.39302,-0.01707 -0.795334,0.108377 -1.066202,0.382401 -0.298734,0.302217 -0.443663,0.668447 -0.446789,1.129205 -0.005,0.733811 0.374745,1.21149 1.103127,1.387678 0.407894,0.09867 0.834786,0.0237 1.108204,-0.194316 l 0.151853,-0.120929 -0.177931,-0.202624 c -0.170918,-0.194664 -0.182869,-0.19903 -0.310169,-0.115621 -0.192103,0.125871 -0.650365,0.10904 -0.879039,-0.03231 -0.469581,-0.290223 -0.490352,-1.129513 -0.03739,-1.510684 0.329638,-0.277371 0.882026,-0.240037 1.129666,0.07639 0.129921,0.166011 0.137318,0.167948 0.293552,0.08354 0.332626,-0.179707 0.330247,-0.172909 0.142391,-0.410095 -0.234409,-0.295965 -0.618256,-0.45557 -1.011276,-0.472637 z m 2.528422,0.687261 c -0.02754,0.02995 -1.084203,2.51754 -1.084203,2.552423 0,0.05829 0.509376,0.219676 0.549256,0.174008 0.0583,-0.06677 0.405516,-0.9188 0.428789,-0.954274 0.01475,-0.02246 0.828006,0.297687 0.948504,0.373402 0.12706,0.07983 -0.397798,1.060959 -0.361632,1.090203 0.0053,0.0042 0.435884,0.24542 0.503792,0.226395 0.0353,-0.0099 1.136278,-2.486478 1.140744,-2.566039 0.0025,-0.04395 -0.525513,-0.231314 -0.55664,-0.197548 -0.05722,0.06204 -0.377872,0.853481 -0.435712,0.916196 -0.04651,0.05039 -0.999507,-0.336227 -0.999507,-0.40548 0,-0.06979 0.387248,-0.866034 0.387248,-0.968352 0,-0.06721 -0.477275,-0.288079 -0.520639,-0.240934 z M 23.32148,24.949 c -0.160244,0.02718 -0.443098,0.130251 -0.443098,0.178855 0,0.01855 0.161926,0.411083 0.359786,0.872347 0.19786,0.461263 0.359786,0.911859 0.359786,1.001121 0,0.201246 -0.123305,0.383234 -0.332785,0.491561 -0.424721,0.21963 -0.657007,-0.0061 -1.111435,-1.079587 -0.186847,-0.441381 -0.347169,-0.810728 -0.356324,-0.820883 -0.02955,-0.0328 -0.523869,0.204341 -0.523869,0.251319 0,0.05059 0.611779,1.470879 0.738726,1.714923 0.115089,0.221246 0.323834,0.401493 0.570256,0.492254 h 2.31e-4 c 0.567374,0.208971 1.49498,-0.275197 1.599995,-0.834961 0.02063,-0.110058 0.02266,-0.292108 0.0046,-0.404557 -0.03153,-0.196318 -0.670524,-1.756376 -0.761574,-1.859392 -0.01115,-0.01262 -0.0509,-0.01221 -0.104312,-0.003 z m -3.30615,1.60715 c -0.145163,0.0065 -1.406829,0.910116 -1.387447,0.993737 0.02079,0.08975 1.492373,2.233216 1.566302,2.234408 0.03044,4.92e-4 0.337573,-0.199671 0.682645,-0.444943 0.243557,-0.158899 0.463181,-0.347104 0.6808,-0.538408 0.02543,-0.09285 -0.205948,-0.422464 -0.271627,-0.395095 -0.04431,0.01846 -0.222713,0.140509 -0.466406,0.312244 -0.243693,0.171735 -0.459173,0.288319 -0.478868,0.259166 -0.198114,-0.293434 -0.287472,-0.467198 -0.261704,-0.508869 0.251355,-0.214787 0.533362,-0.393412 0.806345,-0.57995 -0.09392,-0.126366 -0.188373,-0.251668 -0.309476,-0.351707 -0.02839,-0.0095 -0.224962,0.107466 -0.436635,0.259857 -0.211673,0.152391 -0.397942,0.27699 -0.414019,0.276936 -0.0049,-1.7e-5 -0.413798,-0.47581 -0.273474,-0.555487 0.04311,-0.02448 0.260152,-0.172496 0.48256,-0.329091 l 0.404557,-0.284782 c -0.08642,-0.142351 -0.16509,-0.285338 -0.323553,-0.348016 z m 18.019506,0.06508 c -0.157488,0.159617 -1.540871,2.161121 -1.539531,2.227254 0.0024,0.113257 1.405221,1.107099 1.436142,1.106358 0.05631,-0.0013 0.281002,-0.392161 0.252242,-0.438713 -0.0448,-0.0725 -0.915503,-0.664272 -0.915503,-0.736879 0,-0.0703 0.294342,-0.481548 0.345708,-0.483022 0.05851,-0.0017 0.80595,0.552256 0.837961,0.552256 0.117757,-0.113057 0.21236,-0.251195 0.311553,-0.381248 -0.266116,-0.187475 -0.535367,-0.370683 -0.796421,-0.565179 -0.04209,-0.03617 0.0094,-0.142663 0.235395,-0.486484 0.08925,-0.135789 0.93061,0.603696 1.039201,0.602104 0.128565,-0.09517 0.207488,-0.248651 0.294014,-0.382402 -0.304798,-0.227713 -1.443698,-1.07184 -1.500761,-1.014045 z m -11.365898,1.446296 c -2.23857,0.389483 -4.425688,1.431237 -6.198049,2.951902 -1.415659,1.214624 -2.387971,2.482443 -3.237377,4.221422 -3.149243,6.447405 -0.47267,14.20585 6.004656,17.404942 2.361987,1.166558 5.501164,1.770521 8.994637,0.914331 3.317695,-0.840993 6.257157,-3.072016 8.01867,-6.085894 2.203897,-3.77075 2.350164,-8.446486 0.387017,-12.369095 -0.821874,-1.642208 -1.8177,-2.923535 -3.176451,-4.086878 -2.243039,-1.920425 -5.001196,-3.001199 -7.883664,-3.135603 -0.757896,-0.03534 -1.770569,-0.01328 -2.909439,0.184873 z m 13.941861,0.499868 -1.035047,0.974121 -1.035046,0.974121 c 0.126943,0.153465 0.247549,0.315229 0.405941,0.43502 0.02509,5.36e-4 0.195369,-0.141974 0.378479,-0.31663 0.305438,-0.291337 0.338827,-0.309363 0.404556,-0.219471 0.09257,0.350215 -0.07072,0.767988 -0.159468,1.118127 -0.0262,0.0748 0.426044,0.525947 0.466406,0.525947 0.121034,-0.363429 0.176532,-0.752619 0.248549,-1.130128 0.321375,-0.01039 0.664829,0.04819 0.949428,-0.129482 0.19334,-0.137907 0.405941,-0.525153 0.405941,-0.739418 -0.12336,-0.60607 -0.622153,-1.053244 -1.029739,-1.492207 z m -11.806918,0.02516 c 1.858378,-0.02718 3.714684,0.368541 5.439015,1.188976 1.21048,0.575948 2.233101,1.287885 3.251223,2.263487 1.872459,1.794266 3.072522,4.028894 3.573854,6.654993 0.175134,0.91735 0.238074,2.578625 0.132237,3.491697 -0.396796,3.423093 -2.114163,6.470912 -4.781754,8.486229 -3.719747,2.8102 -7.686562,2.576881 -8.531232,2.488957 -2.939937,-0.306009 -5.544454,-1.524099 -7.591497,-3.550085 -1.995466,-1.974955 -3.268528,-4.64573 -3.565084,-7.480027 -0.152971,-1.462021 -0.293898,-6.267382 3.746708,-10.134227 3.013233,-2.883651 6.454581,-3.382618 8.32653,-3.41 z M 17.61476,28.983728 c -0.202961,-0.0074 -0.407502,0.02961 -0.575334,0.11239 -0.249936,0.123273 -1.1899,1.002508 -1.1899,1.11305 0,0.03959 0.0462,0.104691 0.102697,0.144468 0.932968,0.809131 0.04994,0.046 1.917549,1.759926 l 0.424404,-0.436405 c 0.48559,-0.498952 0.651751,-0.784505 0.693954,-1.193592 0.05077,-0.491904 -0.273871,-1.033221 -0.807037,-1.345676 -0.161825,-0.09483 -0.363372,-0.146736 -0.566333,-0.154161 z m 22.980346,0.39071 0.218318,0.232857 c 0.25584,0.273156 0.26983,0.389026 0.075,0.620566 -0.0822,0.09769 -0.196604,0.170316 -0.268397,0.170316 -0.147887,0 -0.584565,-0.301497 -0.584565,-0.403634 0.138522,-0.239761 0.362482,-0.426524 0.559641,-0.620105 z M 17.49914,29.518676 c 0.442085,0.0212 0.896348,0.465172 0.896348,0.936734 0,0.197692 -0.062,0.330677 -0.289398,0.620797 -0.08947,0.114148 -0.179349,0.20698 -0.199624,0.206087 -0.02027,-8.49e-4 -0.319967,-0.268749 -0.66603,-0.595181 L 16.61133,30.093548 c 0.26185,-0.232946 0.512721,-0.565333 0.88781,-0.574872 z m 11.771839,1.44445 c -0.480294,-0.01936 -0.644651,4.91e-4 -1.242518,0.149314 -0.416861,0.103777 -0.832015,0.171512 -1.051432,0.1717 -0.496969,4.2e-4 -0.738663,0.07887 -0.936273,0.303936 -0.193675,0.220578 -0.283652,0.497687 -0.28409,0.875579 -2.63e-4,0.228299 0.01376,0.262429 0.0967,0.237241 0.473555,-0.143702 1.366979,-0.160538 1.704308,-0.03231 0.24794,0.09427 0.353459,0.274708 0.253165,0.432942 -0.0386,0.06092 -0.120145,0.05404 -0.45579,-0.03877 -0.224806,-0.06215 -0.727725,-0.13796 -1.117666,-0.168239 -0.820503,-0.06373 -1.030831,-0.142982 -1.290289,-0.486483 -0.09632,-0.127514 -0.19018,-0.216684 -0.208624,-0.19824 -0.06384,0.06383 -0.03326,0.62818 0.04408,0.813268 0.12135,0.290433 0.325806,0.331815 1.35583,0.275089 1.007404,-0.05548 1.571376,-0.04156 1.490375,0.033 -0.137951,0.141294 -0.342341,0.12418 -0.530101,0.140545 -0.582562,0.05088 -0.632407,0.06788 -0.612489,0.207471 0.01556,0.109132 0.04999,0.122249 0.321707,0.122544 0.303977,3.26e-4 0.250805,0.0341 0.413788,0.235395 0.152031,0.187773 0.716763,0.07376 0.625412,0.383094 -0.388391,1.315171 -0.829188,1.871365 -1.573686,1.984936 -0.231559,0.03533 -0.981909,-0.09189 -1.223824,-0.207471 -0.238692,-0.114044 -0.209848,-0.252574 0.158545,-0.762727 0.375548,-0.520058 0.714263,-1.171226 0.714263,-1.372677 0,-0.07169 -0.0699,-0.200294 -0.155545,-0.285936 -0.247462,-0.247453 -0.576345,-0.285731 -2.296719,-0.267243 -1.44672,0.01554 -1.532622,0.02215 -1.680768,0.132006 -0.257104,0.190652 -0.373225,0.413754 -0.678493,1.304367 -0.467257,1.361401 -0.974749,2.708532 -1.471912,4.059183 -1.167389,3.171434 -1.154412,3.132484 -1.111897,3.359229 0.07425,0.395813 0.428538,0.638201 0.819037,0.560102 0.30212,-0.06043 0.448616,-0.286133 0.807036,-1.242979 1.171953,-3.128669 1.460937,-3.90172 1.481837,-3.964564 0.03842,-0.115557 0.412103,0.189415 0.412634,0.216241 7.59e-4,0.0388 -0.365217,1.080452 -1.067125,3.036829 -0.922276,2.570584 -1.08114,3.019504 -1.144667,3.237607 -0.198534,0.68162 0.599836,1.208252 1.128281,0.744267 0.20171,-0.177103 0.239493,-0.263839 0.884117,-2.017247 0.410229,-1.116134 0.821583,-2.231856 1.230748,-3.348382 0.32006,-0.873821 0.337679,-0.912669 0.417019,-0.928657 0.0421,-0.0085 0.12398,0.01938 0.182085,0.06185 0.115505,0.08446 0.07189,0.218721 -1.602764,4.934761 -0.625609,1.76179 -0.686604,2.043434 -0.503562,2.322796 0.107498,0.164058 0.39327,0.306014 0.615951,0.306014 0.215424,0 0.444869,-0.140907 0.576719,-0.354245 0.115022,-0.186102 0.946427,-2.511525 2.410493,-6.677379 0.129648,0.02298 0.256243,0.05186 0.374556,0.108697 -0.224329,1.08806 -0.610381,2.15806 -0.92912,3.226991 -0.247739,0.83195 -0.255847,0.880223 -0.184162,1.105205 0.139996,0.439344 0.68399,0.633073 1.048663,0.373401 0.244484,-0.174088 0.398525,-0.49674 0.685416,-1.43545 0.715837,-2.342218 0.76334,-2.475523 0.817421,-2.296719 0.0276,0.09132 0.05432,0.489782 0.05954,0.885502 0.01482,1.123686 -0.168113,1.642351 -0.94712,2.684199 -0.514221,0.687711 -1.206103,1.355459 -1.638304,1.581302 -0.170596,0.08914 -0.310097,0.181211 -0.310168,0.204702 -1.79e-4,0.05704 0.202673,0.136628 0.450944,0.176776 0.342397,0.05537 0.345444,0.122052 0.02908,0.625645 -0.157578,0.250847 -0.331382,0.470688 -0.386326,0.488328 -0.05772,0.01853 -0.279904,-0.05432 -0.525946,-0.172391 -0.730217,-0.350409 -0.942942,-0.365964 -1.090895,-0.07985 -0.04728,0.09143 -0.142943,0.168961 -0.233319,0.189236 -0.257148,0.05769 -0.410485,0.211271 -0.420711,0.421407 -0.007,0.144417 0.01076,0.184762 0.07385,0.168238 0.228661,-0.05992 0.299166,-0.03081 0.350555,0.144931 0.02872,0.09821 0.09884,0.193492 0.156007,0.211623 0.127697,0.04051 0.457042,-0.06281 0.547409,-0.171699 0.08445,-0.101897 0.296673,-0.101986 0.379863,-0.0036 0.09771,0.117738 -0.202301,0.341334 -0.515331,0.384251 -0.286002,0.03921 -0.67124,0.216657 -0.706878,0.325396 -0.05387,0.164353 -0.0074,0.924924 0.06162,1.008047 0.104126,0.125468 0.197874,0.107828 0.270243,-0.051 0.07236,-0.15881 0.106955,-0.16605 0.255704,-0.05354 0.145886,0.110338 0.382096,0.102228 0.489715,-0.01661 0.04869,-0.0538 0.17889,-0.313892 0.289397,-0.577873 0.205211,-0.490227 0.309273,-0.634492 0.411711,-0.571179 0.10405,0.0643 0.06082,0.363476 -0.108236,0.748647 -0.09132,0.208065 -0.166161,0.403799 -0.166161,0.434792 0,0.122195 0.642464,0.713568 0.847885,0.780494 0.116192,0.03765 0.223911,0.05574 0.239318,0.04064 0.01543,-0.01541 -0.01117,-0.10376 -0.05908,-0.196395 -0.123455,-0.238736 -0.111587,-0.275155 0.104543,-0.315705 0.269251,-0.05051 0.287525,-0.177 0.08562,-0.595643 -0.223405,-0.463212 -0.27179,-0.741158 -0.138006,-0.792498 0.124253,-0.04768 0.233044,0.09436 0.312014,0.407327 0.07034,0.278732 0.199446,0.339369 0.431327,0.202392 0.157578,-0.09309 0.169189,-0.09344 0.277397,0.0049 0.06327,0.05726 0.112851,0.171645 0.112851,0.25986 0,0.187485 0.04704,0.195756 0.241627,0.04269 0.190799,-0.150075 0.19404,-0.407402 0.0083,-0.659107 -0.110088,-0.14924 -0.130892,-0.22712 -0.104543,-0.391866 0.04474,-0.279795 -0.09148,-0.410725 -0.481637,-0.46248 -0.335426,-0.04448 -0.438482,-0.107028 -0.438482,-0.266321 0,-0.122235 0.391616,-0.872129 0.45579,-0.872575 0.160098,0.108449 0.285416,0.266598 0.416096,0.409171 l 0.284551,-0.57464 c 0.42331,-0.854868 1.109721,-1.716543 1.36737,-1.716543 0.232867,0 0.271307,0.170118 0.268627,1.189902 -0.0024,0.925665 -0.0055,0.951192 -0.203778,1.577377 -0.160351,0.5065 -0.461362,1.326481 -0.746342,2.033864 -0.04552,0.113004 0.144305,0.07835 0.675492,-0.1237 0.273923,-0.104202 0.519155,-0.168336 0.545102,-0.14239 0.02592,0.0259 0.0812,0.243175 0.122775,0.482791 0.09192,0.529695 0.205587,0.864496 0.387017,1.139361 v 2.28e-4 c 0.07535,0.114147 0.16033,0.20747 0.188778,0.20747 0.137276,0 0.610874,-1.310412 0.610874,-1.690229 0,-0.197061 0.129025,-0.268496 0.314091,-0.174008 0.249972,0.12763 0.952762,0.33891 0.993045,0.298628 0.02028,-0.02023 0.01296,-0.06855 -0.01615,-0.10731 -0.140742,-0.18745 -0.677139,-1.670893 -0.854116,-2.362261 -0.121337,-0.474069 -0.146438,-1.727944 -0.04293,-2.139097 0.08919,-0.354206 0.224742,-0.332367 0.642952,0.103156 0.389155,0.405264 0.71646,0.891962 0.993276,1.477454 0.107935,0.228299 0.20588,0.425337 0.217625,0.43802 0.06815,0.07348 0.325253,-0.515981 0.489253,-0.305554 0.04493,0.05765 0.163569,0.262727 0.26355,0.45579 0.231077,0.446211 0.194694,0.521711 -0.292397,0.60972 -0.422779,0.07639 -0.557692,0.204406 -0.5121,0.485331 0.02191,0.135066 -0.0012,0.229295 -0.08423,0.344322 -0.203125,0.281439 -0.207737,0.438432 -0.01869,0.627489 0.210261,0.210275 0.286628,0.211579 0.286628,0.0053 0,-0.135588 0.1167,-0.336016 0.195701,-0.336016 0.01201,0 0.11021,0.04225 0.218087,0.0937 0.237972,0.113482 0.29594,0.07187 0.416326,-0.2984 0.09494,-0.29191 0.247429,-0.425895 0.334169,-0.293322 0.07041,0.107596 0.02948,0.275937 -0.176777,0.726957 -0.202442,0.442674 -0.191244,0.553276 0.06462,0.63626 0.213781,0.06934 0.221896,0.09138 0.112621,0.31132 -0.09942,0.200101 -0.0549,0.232984 0.20124,0.148623 0.254554,-0.08384 0.792497,-0.632191 0.792497,-0.807958 0,-0.0658 -0.07464,-0.277576 -0.16593,-0.470559 -0.1778,-0.375838 -0.204158,-0.539873 -0.102466,-0.64157 0.06787,-0.06787 0.268396,0.0018 0.268396,0.09323 0,0.0263 0.09008,0.262919 0.200086,0.525717 0.154532,0.369152 0.236811,0.497045 0.362324,0.561948 0.150567,0.07788 0.176461,0.07529 0.35217,-0.03323 l 0.18947,-0.117238 0.102928,0.169394 0.102928,0.169163 0.119774,-0.127621 c 0.103769,-0.110445 0.120006,-0.191729 0.120006,-0.60349 V 48.284915 L 35.42819,48.173679 c -0.129367,-0.06113 -0.379168,-0.139928 -0.555025,-0.175164 -0.240263,-0.04815 -0.342596,-0.0991 -0.411942,-0.204929 -0.08716,-0.132994 -0.08654,-0.145109 0.012,-0.217166 0.142238,-0.104005 0.180164,-0.09761 0.36994,0.06208 0.11191,0.09415 0.23131,0.138468 0.373632,0.138468 0.188174,0 0.214471,-0.01818 0.262166,-0.18001 0.04843,-0.164567 0.07064,-0.178893 0.257089,-0.167773 0.17829,0.01063 0.204009,-0.0036 0.204009,-0.11216 0,-0.194618 -0.143771,-0.352696 -0.414942,-0.456255 -0.137035,-0.05233 -0.249242,-0.121015 -0.249242,-0.152544 0,-0.123615 -0.189711,-0.259627 -0.362093,-0.259627 -0.09845,0 -0.383673,0.101075 -0.633721,0.224552 -0.629923,0.31106 -0.697197,0.29505 -0.94712,-0.224552 -0.296676,-0.616807 -0.300574,-0.639645 -0.120005,-0.705722 0.241333,-0.08827 0.582358,-0.133056 0.604181,-0.207471 0.0089,-0.03046 -0.136531,-0.142474 -0.323092,-0.249012 -0.454615,-0.259622 -0.951314,-0.769619 -1.416987,-1.454836 -0.708053,-1.041871 -0.8941,-1.556612 -0.895886,-2.480419 -0.0011,-0.5435 0.05406,-1.157085 0.10385,-1.155745 0.02925,7.14e-4 0.242754,0.662728 0.949659,2.945902 0.258082,0.833552 0.625245,1.152267 1.126435,0.977584 0.266858,-0.09301 0.475868,-0.372973 0.475868,-0.637415 0,-0.306601 -1.230023,-4.183842 -1.200054,-4.205728 0.134986,-0.03273 0.272688,-0.0548 0.409403,-0.07962 1.715572,5.761837 1.960582,6.553781 2.104941,6.746381 0.288436,0.384832 0.790609,0.412904 1.086972,0.0607 0.235414,-0.279768 0.229642,-0.438507 -0.04962,-1.380986 -0.376258,-1.273595 -0.754921,-2.546474 -1.134975,-3.818941 -0.647763,-2.168179 -0.630356,-2.103142 -0.574872,-2.15479 0.02748,-0.02558 0.100514,-0.06169 0.162469,-0.08031 0.124736,-0.03748 0.04663,-0.260534 1.104973,3.148296 0.26462,0.852318 0.581868,1.873572 0.705032,2.269254 0.189084,0.607526 0.256285,0.751796 0.431096,0.927045 0.177549,0.177982 0.242246,0.20747 0.454405,0.20747 0.322038,0 0.592409,-0.1795 0.70134,-0.465713 0.09155,-0.24054 0.08084,-0.294604 -0.293783,-1.498914 -1.023338,-3.289766 -1.602031,-5.16664 -1.622842,-5.263161 -0.04193,-0.19428 0.351559,-0.340168 0.37594,-0.310629 0.396028,1.205077 0.763619,2.422557 1.133128,3.636626 0.203402,0.669682 0.405652,1.287159 0.449328,1.372215 0.311185,0.606107 1.236287,0.407887 1.236287,-0.264935 0,-0.21813 -0.752832,-2.807982 -2.002937,-6.890849 -0.153787,-0.502262 -0.301753,-0.990915 -0.328861,-1.085818 -0.07775,-0.272239 -0.281446,-0.53451 -0.520178,-0.669723 -0.212829,-0.120547 -0.267019,-0.12442 -1.725077,-0.125313 -1.572657,-9.38e-4 -1.959793,0.03914 -2.200484,0.228471 -0.318367,0.250423 -0.124832,0.812361 0.635798,1.846007 0.269952,0.366852 0.294577,0.451071 0.16893,0.576718 -0.124477,0.124477 -0.774474,0.28109 -1.166129,0.28109 -0.312374,0 -0.646247,-0.142459 -0.878579,-0.374786 -0.54399,-0.535863 -0.64827,-0.995159 -0.679646,-1.740541 -0.02203,-0.495487 -0.05801,-1.010664 -0.07985,-1.144667 -0.03294,-0.201901 -0.02222,-0.256433 0.06231,-0.318245 0.149575,-0.109387 0.45614,-0.09087 0.668107,0.04016 0.26751,0.165331 0.316141,0.104299 0.286398,-0.359324 -0.03828,-0.596415 -0.242592,-0.815753 -0.835653,-0.89704 -0.223932,-0.03069 -0.256038,-0.05431 -0.330707,-0.244396 -0.128153,-0.326244 -0.428797,-0.456584 -1.11859,-0.484406 z m -0.670415,0.824344 c 0.06135,-0.0055 0.128566,0.01467 0.22501,0.05862 0.167769,0.07645 0.181894,0.186683 0.03392,0.265858 -0.153014,0.08189 -0.291515,0.071 -0.442635,-0.03485 l -0.131775,-0.09208 0.125544,-0.101543 c 0.07309,-0.0592 0.128582,-0.09049 0.189931,-0.096 z m 8.695085,5.205928 c 0.06788,0.06788 1.57761,5.107453 1.57761,5.26616 0,0.09755 -0.09064,0.270988 -0.25455,0.161545 -0.126397,-0.0844 -0.124887,-0.08012 -1.135667,-3.388999 -0.157223,-0.606498 -0.407903,-1.189632 -0.546717,-1.800774 0,-0.05878 0.323954,-0.273303 0.359324,-0.237934 z m -16.292582,0.258704 c 0.151495,0.05807 0.297531,0.133799 0.292398,0.306014 -0.02017,0.06492 -0.321882,0.840239 -0.670415,1.723 -0.348538,0.882762 -0.758555,1.92892 -0.911118,2.324644 -0.152563,0.39572 -0.316201,0.762999 -0.363709,0.816267 -0.208705,0.234014 -0.345938,-0.03504 -0.345938,-0.126697 0,-0.07867 1.830425,-4.839315 1.929317,-5.017843 0.02416,-0.04362 0.06946,-0.02283 0.06946,-0.02538 z m 14.632584,0.850653 c 0.01755,0.02041 0.42105,1.317044 0.582026,1.870239 0.25095,0.807656 0.550612,1.592493 0.743803,2.417417 0.62635,2.06117 0.62035,2.037608 0.531716,2.144404 -0.188754,0.227442 -0.31423,0.05991 -0.556409,-0.742879 -0.565827,-1.866468 -1.142202,-3.483207 -1.689307,-5.433477 -0.04669,-0.121679 0.378936,-0.266442 0.388171,-0.255704 z m -12.964047,0.18347 c 0.112118,0.02335 0.317553,0.1258 0.317553,0.174239 -0.308001,0.905837 -0.642832,1.802733 -0.968583,2.70243 -0.578677,1.599296 -1.191804,3.248467 -1.244133,3.346305 -0.07245,0.135137 -0.236174,0.147092 -0.338092,0.02398 -0.08303,-0.100049 -0.09886,-0.04712 0.569334,-1.897008 0.524249,-1.459202 0.913338,-2.537808 1.593995,-4.342119 0.01489,-0.02507 0.04866,-0.0054 0.06993,-0.0078 z M 33.761489,38.9151 c 0.127836,-0.0277 0.17523,0.08525 0.296783,0.476791 0.08505,0.273962 0.543251,1.735277 1.0182,3.2473 0.474948,1.51202 0.863577,2.812425 0.863577,2.889823 0,0.09382 -0.167938,0.423537 -0.352862,0.130849 -0.07814,-0.123677 -0.214825,-0.546835 -1.085587,-3.362456 -0.249468,-0.806664 -0.559685,-1.8027 -0.68957,-2.213639 -0.325329,-1.02934 -0.326938,-1.037213 -0.210932,-1.099203 0.06623,-0.03539 0.117779,-0.06023 0.160391,-0.06947 z m -9.444888,0.10062 c 0.03101,-0.03479 0.268007,0.03216 0.380556,0.107543 -0.493656,1.567502 -1.063602,3.115524 -1.605303,4.668673 -0.334266,0.958857 -0.644167,1.799435 -0.688647,1.867927 -0.08989,0.138438 -0.188305,0.158101 -0.288474,0.05793 -0.09582,-0.09582 -0.08336,-0.212343 0.06854,-0.636028 0.23805,-0.664015 2.079078,-6.005193 2.133327,-6.066042 z m 7.67827,0.428557 c 0.03513,-4.3e-5 0.06313,0.0063 0.07616,0.021 0.01813,0.02049 0.313493,0.928009 0.656337,2.016553 0.600765,1.907485 0.620114,1.984141 0.533101,2.116942 -0.164205,0.250606 -0.281949,0.155356 -0.454174,-0.36694 -0.501525,-1.520951 -1.132901,-3.608891 -1.109589,-3.669627 0.02313,-0.06028 0.192788,-0.117797 0.298167,-0.117929 z m -5.850956,0.05493 c 0,-0.02635 0.392451,0.02705 0.430635,0.05862 0.0086,0.0071 -0.04495,0.221856 -0.119313,0.477022 -0.23369,0.801862 -0.684785,2.321349 -0.875348,2.948441 -0.201356,0.662621 -0.336956,0.840717 -0.508869,0.668799 -0.04921,-0.0492 -0.08954,-0.127007 -0.08954,-0.172854 0,-0.04585 0.201597,-0.747698 0.447943,-1.559609 0.490083,-1.615229 0.714494,-2.37512 0.714494,-2.420417 z m 16.915687,6.46529 c -0.542794,-0.01478 -0.823367,0.207162 -1.079357,0.502869 -0.161507,0.186566 -0.375839,0.62694 -0.525716,0.950813 -0.173514,0.374944 0.07028,0.403905 0.269089,0.474484 0.440729,0.207158 0.884373,0.409564 1.328599,0.610411 0.456598,0.20643 0.845514,0.376445 0.864271,0.377785 0.155899,-0.225749 0.256389,-0.493299 0.369246,-0.744494 0.202585,-0.448538 0.258073,-0.763175 0.184396,-1.158743 -0.08227,-0.419371 -0.273985,-0.628561 -0.628646,-0.819963 -0.18661,-0.09534 -0.54054,-0.186593 -0.781882,-0.193162 z m -27.316234,0.08008 c -0.05935,-0.06116 -2.285344,0.914362 -2.550346,1.133819 0,0.06371 0.215897,0.48764 0.248319,0.48764 0.307579,-0.122007 0.602218,-0.281255 0.899348,-0.428329 0.117855,0.275682 0.240451,0.549193 0.344093,0.830578 0.0559,0.152907 0.05636,0.153188 0.261704,0.06739 0.113102,-0.04726 0.216935,-0.09739 0.230779,-0.111236 0.02351,-0.02349 -0.252526,-0.668597 -0.27232,-0.714725 l -0.10662,-0.251781 c 0.227444,-0.09028 0.445511,-0.222301 0.688647,-0.258702 0.08379,0.03215 0.423103,0.918636 0.481868,0.954965 0.05704,0.03524 0.434096,-0.15459 0.434096,-0.21855 0,-0.06979 -0.602706,-1.432303 -0.659568,-1.491065 z m 27.836411,0.541409 c 0.7838,0.420698 0.26262,1.388123 0.150929,1.461296 -0.528735,-0.07127 -1.008581,-0.341419 -1.495221,-0.546487 -0.225425,-0.02921 -0.07539,-0.559224 0.332785,-0.866805 0.309007,-0.232859 0.729448,-0.149276 1.011507,-0.048 z m -26.769748,1.641532 c -0.02002,-0.03117 -1.227379,0.827238 -1.495452,1.063205 -0.307916,0.271037 -0.418634,0.485215 -0.418634,0.809803 0,0.436886 0.389314,1.011785 0.809114,1.194515 0.413507,0.179991 0.772484,0.0468 1.738463,-0.645259 0.399815,-0.28644 0.72685,-0.533335 0.726725,-0.548564 -0.101196,-0.159409 -0.233148,-0.299583 -0.356093,-0.443098 l -0.442636,0.314093 c -1.005046,0.713006 -1.139014,0.79319 -1.324213,0.79319 -0.239147,0 -0.456852,-0.176696 -0.525947,-0.426941 -0.09315,-0.337364 0.02549,-0.490087 0.83173,-1.069202 0.396416,-0.284743 0.733137,-0.537564 0.748187,-0.561948 -0.04163,-0.180523 -0.183273,-0.329638 -0.291244,-0.479794 z m 24.073318,0.436404 c -0.09013,-0.0027 -0.310727,0.318183 -0.277858,0.403865 0.01471,0.03832 0.284657,0.265138 0.600027,0.504021 0.31537,0.238884 0.598417,0.457095 0.628875,0.484872 0.03343,0.03055 -0.361053,0.03599 -0.996276,0.01362 l -1.051663,-0.03716 c -0.136591,0.179626 -0.273348,0.359127 -0.410096,0.538636 0.499521,0.08806 0.922344,0.510435 1.317753,0.807499 0,0 1.027961,0.761965 1.039662,0.750264 0.0206,-0.02063 0.129736,-0.166773 0.336707,-0.44425 l -0.660261,-0.501485 c -0.439797,-0.334055 -0.627032,-0.50624 -0.560794,-0.516021 0.05469,-0.008 0.50655,0.004 1.004123,0.02746 0.497568,0.02327 0.922035,0.03001 0.943427,0.01478 0.11113,-0.119033 0.199773,-0.257805 0.292859,-0.391173 -1.205931,-0.958601 -2.166957,-1.653913 -2.206485,-1.654922 z m -22.002993,2.393646 c -0.372359,-0.02751 -0.590398,0.10146 -0.758573,0.448868 -0.139969,0.289138 -0.127647,0.411989 0.09624,0.959812 0.118301,0.289463 0.130549,0.367428 0.07662,0.485791 -0.08242,0.180886 -0.194481,0.221739 -0.38771,0.141702 -0.190085,-0.07874 -0.341554,-0.323556 -0.341554,-0.552025 0,-0.141014 -0.02213,-0.170993 -0.124621,-0.170546 -0.293965,0.0018 -0.373632,0.05823 -0.373632,0.264932 0,0.390816 0.329186,0.843485 0.730648,1.004586 0.392389,0.157462 0.860744,0.0018 1.070126,-0.355402 0.177004,-0.302044 0.171814,-0.455464 -0.02977,-0.914809 -0.09132,-0.208064 -0.16593,-0.422028 -0.16593,-0.475408 0,-0.114505 0.154515,-0.299552 0.250165,-0.299552 0.154505,0 0.35942,0.233913 0.393941,0.449788 0.0258,0.161342 0.0566,0.212168 0.115159,0.189705 0.04399,-0.01688 0.152565,-0.03068 0.241395,-0.03068 0.150482,0 0.161546,-0.0146 0.161546,-0.213241 0,-0.249405 -0.103912,-0.466749 -0.404326,-0.73065 -0.156988,-0.12633 -0.328943,-0.186557 -0.549717,-0.202857 z m 19.916515,0.09693 c -0.165497,0.07426 -0.294901,0.213473 -0.428327,0.334632 l 0.519485,0.648259 c 0.676493,0.84415 0.704801,0.88859 0.704801,1.107515 0,0.211785 -0.227921,0.480808 -0.455559,0.537944 -0.280523,0.07041 -0.502795,-0.09813 -1.089511,-0.825728 -0.309328,-0.383608 -0.584451,-0.697415 -0.611335,-0.697415 -0.06553,0 -0.387307,0.277839 -0.438713,0.31386 -0.01178,0.0082 0.254842,0.35831 0.592412,0.777957 0.590485,0.734058 0.790349,0.916569 1.108434,1.012661 0.203764,0.06155 0.206395,0.06164 0.484176,-0.0083 0.272547,-0.06863 0.746609,-0.453798 0.882733,-0.717034 0.09678,-0.187173 0.101795,-0.683611 0.009,-0.89381 -0.383473,-0.555361 -0.785625,-1.125624 -1.277594,-1.590534 z m -17.968735,1.505839 c -0.46792,0.05153 -0.819443,0.531884 -0.665568,0.998124 0.03467,0.105064 0.150548,0.336484 0.25755,0.514177 0.213195,0.354044 0.227448,0.549166 0.04893,0.666953 -0.212334,0.14009 -0.566285,-0.136155 -0.705263,-0.55064 -0.0171,-0.051 -0.364542,8.93e-4 -0.478868,0.07154 -0.05869,0.03622 -0.05927,0.08463 -0.0028,0.258708 0.105054,0.323707 0.25626,0.505026 0.571179,0.685643 v 2.32e-4 c 0.609947,0.349824 1.264714,0.08015 1.350061,-0.556178 0.03392,-0.252888 -0.04304,-0.470518 -0.300244,-0.848808 -0.191366,-0.281452 -0.22853,-0.46565 -0.116544,-0.577641 0.08641,-0.0865 0.279007,-0.08355 0.372017,0.0027 0.163464,0.117188 0.180177,0.551341 0.363939,0.477485 0.114993,-0.04622 0.162141,-0.08716 0.276451,-0.126607 0.107768,-0.02465 0.07519,-0.122579 0.0557,-0.221654 -0.04432,-0.225209 -0.06056,-0.295837 -0.211913,-0.501355 -1.41e-4,-1.92e-4 -5.36e-4,-3.58e-4 -6.7e-4,-4.47e-4 -0.22981,-0.204023 -0.419016,-0.328986 -0.813959,-0.292402 z m 14.987293,0.743574 c -0.351564,-1.11e-4 -1.218339,0.494929 -1.220825,0.498953 -0.03956,0.06403 1.237057,2.507883 1.268365,2.507883 0.0141,0 0.286851,-0.139602 0.606258,-0.310167 0.348918,-0.186329 0.633264,-0.37954 0.712417,-0.484175 0.348654,-0.46089 0.07397,-1.142822 -0.460405,-1.142822 h -0.225934 c 0.114079,-0.31895 0.132497,-0.481155 -0.07177,-0.820426 -0.15445,-0.256528 -0.608104,-0.249249 -0.608104,-0.249249 z m -12.887198,0.302321 c -0.286105,0.758924 -0.990737,2.48965 -0.990737,2.576193 0,0.05468 0.850514,0.412539 1.134743,0.477481 0.442598,0.101134 0.766178,-0.03184 0.919196,-0.377785 0.125861,-0.284524 0.106614,-0.492334 -0.06577,-0.711491 l -0.107313,-0.136392 0.159699,-0.03506 c 0.303991,-0.06677 0.54618,-0.480938 0.467791,-0.799652 -0.08647,-0.351553 -0.330807,-0.537752 -1.085819,-0.827578 z m 12.97674,0.160851 c 0.08323,-0.0099 0.365831,0.08281 0.271397,0.381251 -0.10751,0.198896 -0.282728,0.342236 -0.505177,0.391401 -0.04348,0 -0.284551,-0.466316 -0.284551,-0.550408 0,-0.03171 0.304607,-0.196864 0.518331,-0.222244 z m -12.61257,0.561488 c 0.01078,-0.01076 0.133734,0.03081 0.273243,0.09254 0.242787,0.10739 0.283393,0.169756 0.257089,0.395095 -0.01273,0.109114 -0.220231,0.277691 -0.300014,0.272551 -0.08568,-0.0057 -0.407036,-0.126067 -0.447943,-0.167778 -0.02777,-0.02831 0.157274,-0.532058 0.217625,-0.59241 z m 2.891208,0.385172 c -0.309966,0.82626 -1.497444,2.476368 -1.430371,2.545959 0.186057,0.06982 0.391304,0.08277 0.588026,0.108677 0.09479,-0.170118 0.179428,-0.348342 0.295398,-0.504254 0.01149,0 0.239371,0.04001 0.506331,0.08885 l 0.48533,0.08862 c 0.03207,0.189728 0.06439,0.379415 0.0967,0.569102 0.199337,0.04658 0.398596,0.09356 0.599335,0.133623 0.02523,0.0031 0.03211,-0.0633 0.01523,-0.147007 -0.124776,-0.619066 -0.600156,-2.811821 -0.612258,-2.82428 -0.01075,-0.01103 -0.469012,-0.08567 -0.543717,-0.05929 z m 5.121923,0.0293 c -0.07042,0.0013 -0.177942,0.01844 -0.338323,0.05146 -0.16031,0.033 -0.161718,0.01577 0.132006,1.612917 0.118962,0.646848 0.241938,1.174378 0.273243,1.172591 0.03132,-0.0018 0.380623,-0.05919 0.776343,-0.127388 l 0.719571,-0.123928 c -0.0071,-0.170176 -0.0081,-0.34187 -0.051,-0.50633 -0.04027,-0.04019 -0.990257,0.155792 -1.002968,0.136852 -0.01224,-0.01862 -0.359085,-2.082903 -0.39371,-2.173252 -0.0207,-0.05394 -0.114446,-0.04006 -0.115162,-0.04292 z m 5.110154,0.01893 c 0.151898,-0.0013 0.299091,0.166018 0.299091,0.339709 0,0.253531 -0.43572,0.489485 -0.547179,0.489485 -0.04423,0 -0.268439,-0.4213 -0.294475,-0.553409 -0.01037,-0.05258 0.426991,-0.274892 0.542563,-0.275785 z m -7.891972,0.159239 c -0.0094,0.944011 5.36e-4,1.886785 0.07177,2.828434 h 0.794344 0.794344 v -0.553409 h -1.049356 l -0.015,-1.120895 -0.015,-1.120667 c -0.193712,-0.01099 -0.387408,-0.02224 -0.581105,-0.03345 z m 15.952873,0.219243 c -4.030582,4.227864 -8.149289,5.313376 -8.149289,5.492555 0,0.06484 0.624942,1.724447 0.692108,1.917778 0.01323,0.03805 0.03396,0.06924 0.04616,0.06924 2.322032,-0.843356 4.455797,-2.11751 6.401366,-3.628319 1.043676,-0.834763 2.545959,-2.247019 2.545959,-2.393414 0,-0.0462 -0.521563,-0.538159 -1.5363,-1.457835 z m -31.034554,0.01661 c -0.492338,0.492789 -1.061322,0.918676 -1.510222,1.453221 -0.03848,0.162142 4.482695,4.678765 8.933019,6.007192 0.350309,-0.60557 0.548063,-1.318652 0.79042,-1.979858 -3.838416,-1.543334 -5.62769,-2.951276 -8.213217,-5.480555 z m 20.682704,0.21278 c -0.138447,0 -0.951967,0.31395 -0.951967,0.367402 0,0.03738 0.0243,0.13193 0.054,0.210011 0.127477,0.33519 1.055146,-0.159632 1.028585,-0.228862 -0.05051,-0.131635 -0.08732,-0.348073 -0.130621,-0.348475 z m -11.219353,0.0013 c 0.0309,4.46e-4 0.159948,0.04831 0.286859,0.10593 0.294863,0.133877 0.381268,0.283162 0.283167,0.488788 -0.05867,0.12299 -0.113087,0.153733 -0.29286,0.164317 -0.198601,0.0117 -0.525485,-0.104912 -0.525485,-0.187392 0,-0.10815 0.201802,-0.572536 0.248319,-0.571643 z m 3.461695,0.369478 c 0.02248,0.02443 0.06424,0.212472 0.09277,0.417942 0.0364,0.26199 0.0341,0.372113 -0.0076,0.368094 -0.09999,-0.0093 -0.494364,-0.106609 -0.514639,-0.126929 -0.01049,-0.01049 0.07273,-0.173181 0.184854,-0.361399 0.112125,-0.188218 0.222164,-0.322136 0.244627,-0.297708 z m 8.343145,5.404627 c -1.105212,0.296314 -2.233565,0.478222 -3.363843,0.648032 -0.752967,0.112236 -3.460699,0.129706 -4.41897,0.02814 -2.322627,-0.245546 -3.644177,-0.712974 -3.686012,-0.645259 -0.02822,0.04566 -0.515908,1.775791 -0.53864,1.910857 -0.05465,0.325025 3.31537,0.825031 4.547975,0.91158 4.513308,0.31691 7.955357,-0.788483 7.979899,-0.803574 -0.101784,-0.687318 -0.33788,-1.373783 -0.520409,-2.049771 z"
       sodipodi:nodetypes="ccccccsccsscscccccscccccssssssccccsssssccccscscccccccccscssccsssssccssssssssssssscssssccsssscsccsscssccscsscsscscscsssccsccscsccssscssscccscsccscssscccssccssccssssssssssscssssssscssscssccccsccsssccsscsccssssscccccsscssccsscccssssscsccccsssssccsscssssscssssssssccssccsccssscccssccsssccsssscccsssssssscsssscsssscsssssscsssccsssssscsssssssscssccssssscssssccsssssscsscscscccsscssssscsssccccsscssssscssscssssssssssccccccsccscscscssssssscssssccsssscccsssssccsssccssscssssssccccccsssscccccssscsscssscssccssscccsssssscscssssscsssssscssssssssssssscssssscsscsssscssssscccsscccscscccscssssccscscscscccccccccccssccccssssscsssssssccccssssscsssccccssscsccsccccscssssccscscssssssssscsssccsscsssssssccccsssccsscsssscscscsssscccsccccccccsscssscsscsscccsssscssssscssscsssccssscssscssscscssssscc"
       inkscape:label="DFB-Eagle" />
  </g>
</svg>
