<?xml version="1.0" encoding="UTF-8" standalone="no"?>
<!-- Created with Inkscape (http://www.inkscape.org/) -->

<svg
   width="210mm"
   height="297mm"
   viewBox="0 0 210 297"
   version="1.1"
   id="svg5"
   inkscape:version="1.2.1 (9c6d41e410, 2022-07-14)"
   sodipodi:docname="dialog-13-title(achievements).svg"
   xmlns:inkscape="http://www.inkscape.org/namespaces/inkscape"
   xmlns:sodipodi="http://sodipodi.sourceforge.net/DTD/sodipodi-0.dtd"
   xmlns="http://www.w3.org/2000/svg"
   xmlns:svg="http://www.w3.org/2000/svg">
  <sodipodi:namedview
     id="namedview7"
     pagecolor="#ffffff"
     bordercolor="#666666"
     borderopacity="1.0"
     inkscape:showpageshadow="2"
     inkscape:pageopacity="0.0"
     inkscape:pagecheckerboard="0"
     inkscape:deskcolor="#d1d1d1"
     inkscape:document-units="mm"
     showgrid="false"
     inkscape:zoom="3.3638608"
     inkscape:cx="145.81459"
     inkscape:cy="86.359103"
     inkscape:window-width="1525"
     inkscape:window-height="958"
     inkscape:window-x="2431"
     inkscape:window-y="191"
     inkscape:window-maximized="0"
     inkscape:current-layer="layer1" />
  <defs
     id="defs2">
    <inkscape:path-effect
       effect="bend_path"
       id="path-effect644"
       is_visible="true"
       lpeversion="1"
       bendpath="m 30.757174,34.218593 c 15.61421,-2.689786 32.571162,-1.914476 49.968304,0"
       prop_scale="1"
       scale_y_rel="false"
       vertical="false"
       hide_knot="false"
       bendpath-nodetypes="cc" />
    <inkscape:path-effect
       effect="bend_path"
       id="path-effect518"
       is_visible="true"
       lpeversion="1"
       bendpath="m 30.757174,34.218593 c 15.61421,-2.689786 32.571162,-1.914476 49.968304,0"
       prop_scale="1"
       scale_y_rel="false"
       vertical="false"
       hide_knot="false"
       bendpath-nodetypes="cc" />
    <inkscape:path-effect
       effect="bend_path"
       id="path-effect1126"
       is_visible="true"
       lpeversion="1"
       bendpath="m 25.012256,44.10497 c 12.338393,-3.699495 23.935551,-2.802092 35.086347,0"
       prop_scale="1"
       scale_y_rel="false"
       vertical="false"
       hide_knot="false"
       bendpath-nodetypes="cc" />
    <inkscape:path-effect
       effect="bend_path"
       id="path-effect1010"
       is_visible="true"
       lpeversion="1"
       bendpath="m 25.012256,44.10497 c 12.338393,-3.699495 23.935551,-2.802092 35.086347,0"
       prop_scale="1"
       scale_y_rel="false"
       vertical="false"
       hide_knot="false"
       bendpath-nodetypes="cc" />
    <inkscape:path-effect
       effect="bend_path"
       id="path-effect1181"
       is_visible="true"
       lpeversion="1"
       bendpath="m 26.884391,38.470418 c 13.839947,-3.508647 26.368328,-2.07258 38.763434,0"
       prop_scale="1"
       scale_y_rel="false"
       vertical="false"
       hide_knot="false"
       bendpath-nodetypes="cc" />
    <inkscape:path-effect
       effect="bend_path"
       id="path-effect1007"
       is_visible="true"
       lpeversion="1"
       bendpath="m 26.884391,38.470418 c 13.839947,-3.508647 26.368328,-2.07258 38.763434,0"
       prop_scale="1"
       scale_y_rel="false"
       vertical="false"
       hide_knot="false"
       bendpath-nodetypes="cc" />
    <inkscape:path-effect
       effect="bend_path"
       id="path-effect446"
       is_visible="true"
       lpeversion="1"
       bendpath="m 29.241944,20.313617 c 12.463598,-2.093535 22.84941,-1.666955 32.55317,0"
       prop_scale="1"
       scale_y_rel="false"
       vertical="false"
       hide_knot="false"
       bendpath-nodetypes="cc" />
    <filter
       inkscape:collect="always"
       style="color-interpolation-filters:sRGB"
       id="filter11206"
       x="-0.039155971"
       y="-0.20763962"
       width="1.0783119"
       height="1.4152792">
      <feGaussianBlur
         inkscape:collect="always"
         stdDeviation="0.92587077"
         id="feGaussianBlur11208" />
    </filter>
    <filter
       inkscape:collect="always"
       style="color-interpolation-filters:sRGB"
       id="filter1611"
       x="-0.0045903271"
       y="-0.024341978"
       width="1.0091807"
       height="1.048684">
      <feGaussianBlur
         inkscape:collect="always"
         stdDeviation="0.10854155"
         id="feGaussianBlur1613" />
    </filter>
    <filter
       inkscape:collect="always"
       style="color-interpolation-filters:sRGB"
       id="filter1615"
       x="-0.0045903271"
       y="-0.024341978"
       width="1.0091807"
       height="1.048684">
      <feGaussianBlur
         inkscape:collect="always"
         stdDeviation="0.10854155"
         id="feGaussianBlur1617" />
    </filter>
    <filter
       inkscape:collect="always"
       style="color-interpolation-filters:sRGB"
       id="filter1619"
       x="-0.0045903271"
       y="-0.024341978"
       width="1.0091807"
       height="1.048684">
      <feGaussianBlur
         inkscape:collect="always"
         stdDeviation="0.10854155"
         id="feGaussianBlur1621" />
    </filter>
    <filter
       inkscape:collect="always"
       style="color-interpolation-filters:sRGB"
       id="filter2331"
       x="-0.023966416"
       y="-0.17160068"
       width="1.0479328"
       height="1.3432014">
      <feGaussianBlur
         inkscape:collect="always"
         stdDeviation="0.49355322"
         id="feGaussianBlur2333" />
    </filter>
    <filter
       inkscape:collect="always"
       style="color-interpolation-filters:sRGB"
       id="filter2335"
       x="-0.00094943882"
       y="-0.0067980272"
       width="1.0018989"
       height="1.0135961">
      <feGaussianBlur
         inkscape:collect="always"
         stdDeviation="0.019552301"
         id="feGaussianBlur2337" />
    </filter>
  </defs>
  <g
     inkscape:label="Layer 1"
     inkscape:groupmode="layer"
     id="layer1">
    <g
       id="g2435"
       inkscape:export-filename=".\achievements-dialog-13-title(achievements).png"
       inkscape:export-xdpi="140.33"
       inkscape:export-ydpi="140.33">
      <rect
         style="opacity:0.646489;fill:#090909;fill-opacity:1;stroke-width:0.17937;stroke-linecap:round;stroke-linejoin:round;paint-order:markers stroke fill;filter:url(#filter11206)"
         id="rect10470"
         width="56.749706"
         height="10.701666"
         x="17.143677"
         y="14.039516"
         ry="4.0206466"
         transform="matrix(1.0056551,0,0,1.0986962,-0.25741319,-1.7190942)" />
      <rect
         style="fill:#ffc3a1;fill-opacity:1;stroke-width:0.17937;stroke-linecap:round;stroke-linejoin:round;paint-order:markers stroke fill;filter:url(#filter1611)"
         id="rect5377"
         width="56.749706"
         height="10.701666"
         x="17.143677"
         y="13.45633"
         ry="4.0206466" />
      <rect
         style="fill:#d74e04;fill-opacity:1;stroke-width:0.17937;stroke-linecap:round;stroke-linejoin:round;paint-order:markers stroke fill;filter:url(#filter1615)"
         id="rect5379"
         width="56.749706"
         height="10.701666"
         x="17.143677"
         y="14.73389"
         ry="4.0206466" />
      <rect
         style="fill:#ff8d4f;fill-opacity:1;stroke-width:0.17937;stroke-linecap:round;stroke-linejoin:round;paint-order:markers stroke fill;filter:url(#filter1619)"
         id="rect184"
         width="56.749706"
         height="10.701666"
         x="17.143677"
         y="14.039493"
         ry="4.0206466" />
      <g
         id="g12525"
         transform="matrix(1,0,0,0.91660662,-16.62131,-11.752292)">
        <circle
           style="opacity:1;fill:#ffd6bf;fill-opacity:1;stroke-width:0.360979;stroke-linecap:round;stroke-linejoin:round;paint-order:markers stroke fill"
           id="circle12520"
           cx="38.313038"
           cy="34.126549"
           r="1.5" />
        <circle
           style="opacity:1;fill:#a14b12;fill-opacity:1;stroke-width:0.360979;stroke-linecap:round;stroke-linejoin:round;paint-order:markers stroke fill"
           id="circle12518"
           cx="38.313038"
           cy="33.825432"
           r="1.5" />
        <circle
           style="opacity:1;fill:#ffb687;fill-opacity:1;stroke-width:0.360979;stroke-linecap:round;stroke-linejoin:round;paint-order:markers stroke fill"
           id="path11268"
           cx="38.313038"
           cy="33.97599"
           r="1.5" />
      </g>
      <g
         id="g12547"
         transform="matrix(1,0,0,0.91660662,31.200724,-11.752292)">
        <circle
           style="opacity:1;fill:#ffd6bf;fill-opacity:1;stroke-width:0.360979;stroke-linecap:round;stroke-linejoin:round;paint-order:markers stroke fill"
           id="circle12541"
           cx="38.313038"
           cy="34.126549"
           r="1.5" />
        <circle
           style="opacity:1;fill:#a14b12;fill-opacity:1;stroke-width:0.360979;stroke-linecap:round;stroke-linejoin:round;paint-order:markers stroke fill"
           id="circle12543"
           cx="38.313038"
           cy="33.825432"
           r="1.5" />
        <circle
           style="opacity:1;fill:#ffb687;fill-opacity:1;stroke-width:0.360979;stroke-linecap:round;stroke-linejoin:round;paint-order:markers stroke fill"
           id="circle12545"
           cx="38.313038"
           cy="33.97599"
           r="1.5" />
      </g>
      <g
         id="g2365"
         transform="translate(0.07818809,-13.135329)">
        <g
           aria-label="Achievements"
           transform="matrix(0.8183292,0,0,1.2220021,-0.23596395,-8.1014308)"
           id="text388"
           style="font-weight:bold;font-size:7.42204px;line-height:1.25;font-family:Arial;-inkscape-font-specification:'Arial Bold';letter-spacing:0px;word-spacing:0px;stroke-width:0.185552;filter:url(#filter2331)"
           class="UnoptimicedTransforms">
          <path
             d="m 36.264997,36.038246 c -0.37788,0.04737 -0.755484,0.09665 -1.132803,0.147871 -0.203704,-0.37761 -0.408972,-0.75475 -0.615822,-1.131412 -0.693682,0.0968 -1.38654,0.200113 -2.078519,0.310178 -0.08,0.419742 -0.158374,0.839602 -0.235107,1.259579 -0.366444,0.06003 -0.732595,0.122001 -1.098444,0.185951 0.363009,-1.861356 0.760826,-3.719885 1.19175,-5.575421 0.383681,-0.05859 0.767481,-0.115238 1.151392,-0.169982 0.971238,1.647844 1.909859,3.305803 2.817553,4.973236 z m -2.211735,-1.820881 c -0.333294,-0.615372 -0.670705,-1.229529 -1.012307,-1.842444 -0.143573,0.684821 -0.282914,1.369972 -0.417947,2.055443 0.476397,-0.07411 0.953154,-0.145088 1.430254,-0.212999 z"
             id="path493" />
          <path
             d="m 39.831582,32.931389 c -0.328201,0.09076 -0.655807,0.182806 -0.9828,0.27616 -0.05363,-0.195682 -0.145785,-0.337809 -0.276743,-0.426209 -0.128507,-0.08862 -0.288391,-0.12302 -0.479187,-0.102803 -0.253615,0.02687 -0.446996,0.136615 -0.579306,0.328341 -0.130275,0.189219 -0.171776,0.487291 -0.125764,0.894593 0.05113,0.452597 0.162462,0.76408 0.332511,0.934178 0.172581,0.169993 0.384996,0.241183 0.638329,0.214308 0.189428,-0.02009 0.338934,-0.09004 0.448929,-0.210305 0.109707,-0.122614 0.176375,-0.3195 0.199857,-0.590681 0.334625,0.02348 0.668944,0.04835 1.002965,0.07456 -0.06061,0.465348 -0.224352,0.827869 -0.48987,1.088306 -0.265716,0.260632 -0.638534,0.414977 -1.120551,0.466346 -0.547751,0.05837 -1.003916,-0.06736 -1.373215,-0.380706 -0.366529,-0.313276 -0.590314,-0.780353 -0.666132,-1.40247 -0.07673,-0.629588 0.02985,-1.139166 0.325128,-1.528559 0.294663,-0.391347 0.732038,-0.619851 1.3083,-0.680934 0.47159,-0.04999 0.856592,0.01366 1.152647,0.1883 0.298454,0.172123 0.526578,0.458263 0.684902,0.857579 z"
             id="path495" />
          <path
             d="m 41.412357,30.191806 0.151793,1.94267 c 0.299853,-0.407799 0.682036,-0.628696 1.142605,-0.6606 0.236322,-0.01637 0.452501,0.01276 0.647968,0.0871 0.195479,0.07434 0.344664,0.176212 0.447647,0.305129 0.105425,0.128783 0.179855,0.274041 0.223546,0.435644 0.04613,0.161536 0.07929,0.414183 0.09975,0.75838 l 0.133663,2.248799 c -0.332763,0.01967 -0.665364,0.04058 -0.997797,0.06275 L 43.125978,33.34787 c -0.02691,-0.401722 -0.06322,-0.655192 -0.109219,-0.760892 -0.04596,-0.105614 -0.120682,-0.186331 -0.224231,-0.242003 -0.101292,-0.05824 -0.22592,-0.08216 -0.373654,-0.07156 -0.169531,0.01217 -0.317919,0.06422 -0.444814,0.155941 -0.126917,0.09173 -0.215263,0.223024 -0.265128,0.393688 -0.04766,0.168146 -0.05871,0.41304 -0.03355,0.735086 l 0.149822,1.917441 c -0.331935,0.02589 -0.663692,0.0531 -0.995267,0.08163 l -0.45451,-5.280204 c 0.345594,-0.02976 0.691238,-0.05815 1.036926,-0.0852 z"
             id="path497" />
          <path
             d="m 45.046038,30.897249 -0.04879,-0.939031 c 0.345918,-0.01811 0.69186,-0.03498 1.037818,-0.05062 l 0.04203,0.939518 c -0.34373,0.01548 -0.68742,0.03219 -1.031062,0.05013 z m 0.22629,4.35566 -0.19927,-3.835581 c 0.342382,-0.01785 0.684824,-0.03447 1.02732,-0.04986 l 0.171675,3.837571 c -0.333394,0.01476 -0.666638,0.03071 -0.999725,0.04787 z"
             id="path499" />
          <path
             d="m 49.46297,33.875766 c 0.337084,0.04921 0.673893,0.09955 1.010435,0.150989 -0.123472,0.373675 -0.322896,0.660573 -0.59775,0.861395 -0.272627,0.198442 -0.616172,0.302306 -1.032081,0.313255 -0.658064,0.01732 -1.151617,-0.183835 -1.484974,-0.608641 -0.263155,-0.340175 -0.406781,-0.776339 -0.427839,-1.30882 -0.02516,-0.636317 0.121404,-1.140444 0.444154,-1.512035 0.322397,-0.373695 0.742835,-0.569014 1.257947,-0.58339 0.578621,-0.01615 1.03979,0.163658 1.380098,0.536112 0.340659,0.370471 0.50749,0.945706 0.505324,1.72569 -0.847,0.01313 -1.693471,0.03312 -2.539319,0.06038 0.01698,0.301113 0.106212,0.533597 0.266828,0.697601 0.160602,0.161655 0.356365,0.239214 0.58806,0.233091 0.157661,-0.0042 0.289126,-0.05084 0.394649,-0.140247 0.105502,-0.08939 0.183669,-0.231161 0.234468,-0.425379 z m 0.03471,-1.029004 c -0.01379,-0.294195 -0.09491,-0.515627 -0.24407,-0.664189 -0.149165,-0.150921 -0.328489,-0.223681 -0.537346,-0.217973 -0.223431,0.0061 -0.405686,0.09243 -0.546131,0.258473 -0.140491,0.166102 -0.204618,0.387793 -0.193245,0.665002 0.506751,-0.01633 1.013688,-0.03008 1.520792,-0.04131 z"
             id="path501" />
          <path
             d="m 52.406159,35.062286 c -0.51543,-1.280566 -1.042658,-2.558169 -1.582337,-3.832563 0.359949,-0.005 0.719928,-0.0088 1.07993,-0.01143 0.248626,0.652551 0.494353,1.305785 0.737252,1.959675 0.07051,0.218391 0.140753,0.436839 0.210721,0.655343 0.05511,-0.166883 0.08985,-0.276409 0.104314,-0.329738 0.03364,-0.108697 0.06975,-0.217387 0.108352,-0.326067 0.243671,-0.654492 0.490235,-1.308575 0.739612,-1.962241 0.352737,0.0014 0.705483,0.0039 1.058234,0.0075 -0.5284,1.277842 -1.045594,2.557544 -1.550908,3.83904 -0.301813,-6.52e-4 -0.603538,-4.84e-4 -0.90517,5.25e-4 z"
             id="path503" />
          <path
             d="m 57.675612,33.899772 c 0.33556,0.0657 0.670867,0.132308 1.005928,0.199798 -0.14159,0.368163 -0.35541,0.645816 -0.641054,0.833545 -0.283273,0.185441 -0.633401,0.272656 -1.051606,0.262952 -0.661737,-0.01535 -1.147181,-0.242009 -1.459735,-0.684251 -0.24652,-0.353998 -0.367765,-0.797886 -0.361237,-1.33182 0.0078,-0.638013 0.180698,-1.134886 0.522348,-1.490183 0.341454,-0.357472 0.771318,-0.531628 1.286728,-0.520464 0.578951,0.01254 1.03097,0.214793 1.353418,0.60394 0.32282,0.387092 0.462687,0.970853 0.423506,1.751431 -0.849448,-0.02705 -1.698669,-0.04855 -2.54757,-0.06408 0.0018,0.302208 0.07944,0.539383 0.232279,0.711615 0.152929,0.169868 0.345462,0.257308 0.578217,0.262678 0.15838,0.0037 0.292583,-0.03658 0.402823,-0.120881 0.110222,-0.08429 0.195549,-0.222362 0.255955,-0.414277 z m 0.08492,-1.028233 c 5.12e-4,-0.295126 -0.06992,-0.520711 -0.211874,-0.676694 -0.141856,-0.158354 -0.317619,-0.239986 -0.526795,-0.244627 -0.223769,-0.005 -0.410348,0.07231 -0.559198,0.231426 -0.148892,0.159166 -0.224297,0.377789 -0.226922,0.655783 0.508191,0.0093 1.01646,0.02067 1.524789,0.03411 z"
             id="path505" />
          <path
             d="m 59.585564,31.330792 c 0.316046,0.01112 0.632072,0.02299 0.948074,0.03558 l -0.02109,0.525839 c 0.354694,-0.395051 0.767818,-0.582453 1.236491,-0.561071 0.248948,0.01136 0.462569,0.07241 0.640492,0.182846 0.177942,0.110446 0.320107,0.271465 0.426442,0.482888 0.18079,-0.196837 0.372781,-0.340807 0.575684,-0.431834 0.202895,-0.09102 0.416747,-0.130303 0.641155,-0.117739 0.285391,0.01598 0.523545,0.08804 0.714041,0.215722 0.190666,0.125287 0.327782,0.3022 0.41144,0.530497 0.06048,0.168709 0.07927,0.436636 0.05663,0.804047 l -0.15163,2.461569 c -0.336946,-0.02085 -0.673852,-0.04099 -1.010712,-0.06039 l 0.125958,-2.200844 c 0.02186,-0.381961 8.35e-4,-0.630438 -0.06331,-0.745675 -0.08648,-0.150398 -0.228287,-0.231153 -0.42522,-0.24194 -0.143434,-0.0079 -0.280744,0.0284 -0.41171,0.108731 -0.130978,0.08034 -0.228717,0.203723 -0.29328,0.370056 -0.06446,0.163968 -0.105885,0.427146 -0.124546,0.78982 l -0.09516,1.849367 c -0.336735,-0.01747 -0.673417,-0.03417 -1.010039,-0.05007 l 0.09867,-2.110571 c 0.01752,-0.37478 0.01065,-0.617292 -0.02072,-0.727828 -0.03136,-0.110486 -0.08471,-0.194116 -0.160075,-0.250855 -0.07292,-0.05662 -0.175085,-0.0879 -0.306405,-0.09369 -0.158071,-0.007 -0.302196,0.02923 -0.432147,0.108528 -0.129963,0.0793 -0.226073,0.197652 -0.288399,0.354938 -0.05992,0.157444 -0.09724,0.420985 -0.112224,0.790944 l -0.07577,1.871264 c -0.33646,-0.01381 -0.672855,-0.02678 -1.009176,-0.0389 0.04551,-1.283743 0.09102,-2.567486 0.136528,-3.851229 z"
             id="path507" />
          <path
             d="m 68.375149,34.454769 c 0.333257,0.08192 0.666288,0.164463 0.999101,0.247597 -0.159184,0.361657 -0.38681,0.629393 -0.682611,0.803625 -0.293281,0.172039 -0.649338,0.2425 -1.06907,0.212225 -0.664224,-0.04791 -1.14063,-0.299579 -1.431523,-0.758229 -0.229206,-0.367006 -0.327472,-0.817522 -0.292982,-1.351521 0.04121,-0.638046 0.24038,-1.126227 0.600121,-1.464073 0.359726,-0.340097 0.7977,-0.492376 1.311749,-0.455584 0.577404,0.04133 1.018798,0.265411 1.322497,0.670037 0.304084,0.402477 0.416899,0.993019 0.341207,1.771897 -0.849706,-0.06666 -1.699578,-0.129462 -2.549522,-0.187996 -0.01354,0.302493 0.05229,0.543735 0.196978,0.723752 0.144884,0.177642 0.333775,0.274735 0.567103,0.291567 0.158766,0.01145 0.295425,-0.02225 0.410135,-0.101235 0.114697,-0.07897 0.206974,-0.212979 0.276817,-0.402062 z m 0.134757,-1.024565 c 0.01477,-0.295215 -0.04481,-0.524308 -0.17916,-0.687261 -0.134142,-0.165335 -0.305817,-0.255619 -0.51469,-0.270625 -0.223447,-0.01605 -0.413814,0.0519 -0.570699,0.203615 -0.156917,0.151748 -0.243484,0.366683 -0.260202,0.644712 0.508318,0.03502 1.016575,0.07157 1.524751,0.109559 z"
             id="path509" />
          <path
             d="m 73.647763,36.128861 c -0.337191,-0.03114 -0.674392,-0.06177 -1.011599,-0.09189 l 0.175777,-1.96075 c 0.03719,-0.414859 0.03944,-0.684433 0.0066,-0.808964 -0.03257,-0.1269 -0.09552,-0.228558 -0.188886,-0.30492 -0.09093,-0.07614 -0.205539,-0.120318 -0.343732,-0.132437 -0.176987,-0.01552 -0.340026,0.01895 -0.488915,0.103355 -0.148889,0.0844 -0.256714,0.204036 -0.323534,0.358763 -0.06442,0.154984 -0.114757,0.447127 -0.151217,0.876712 l -0.147764,1.741051 c -0.337209,-0.02855 -0.674413,-0.05654 -1.011608,-0.08395 l 0.312967,-3.845398 c 0.317397,0.02585 0.634719,0.05222 0.951962,0.0791 l -0.04779,0.56468 c 0.374026,-0.405802 0.818521,-0.586327 1.331319,-0.540724 0.225985,0.0201 0.428838,0.07971 0.608364,0.178688 0.179749,0.09657 0.31111,0.211982 0.394162,0.346067 0.08548,0.134312 0.138967,0.282724 0.160563,0.445202 0.02402,0.162726 0.02223,0.392287 -0.0053,0.688826 -0.07381,0.795533 -0.147616,1.591066 -0.221424,2.386598 z"
             id="path511" />
          <path
             d="m 76.81243,32.561202 -0.0814,0.808891 c -0.232117,-0.02338 -0.464283,-0.04656 -0.696495,-0.06952 l -0.152722,1.546122 c -0.03092,0.313065 -0.04299,0.496714 -0.0362,0.550866 0.0094,0.052 0.03533,0.0971 0.07767,0.135314 0.04475,0.03846 0.100774,0.06101 0.16809,0.06768 0.09378,0.0093 0.232805,-0.0097 0.417287,-0.05693 0.0025,0.265298 0.0048,0.530586 0.0072,0.795865 -0.245358,0.07756 -0.516622,0.10169 -0.814082,0.07253 -0.182316,-0.01787 -0.343679,-0.06396 -0.484193,-0.138342 -0.140279,-0.07679 -0.240608,-0.166663 -0.300954,-0.269721 -0.05771,-0.105225 -0.09182,-0.242233 -0.1023,-0.41101 -0.0103,-0.120103 0.0018,-0.359739 0.0362,-0.718726 l 0.160542,-1.673408 c -0.156107,-0.01499 -0.312233,-0.02988 -0.468378,-0.04466 l 0.0766,-0.809774 c 0.156507,0.01484 0.312992,0.02979 0.469452,0.04484 l 0.07316,-0.76261 c 0.361713,-0.164555 0.723858,-0.328513 1.086385,-0.49189 l -0.13381,1.354663 c 0.232712,0.02306 0.465367,0.04633 0.697965,0.06982 z"
             id="path513" />
          <path
             d="m 76.883065,35.336909 c 0.344456,-0.01746 0.688988,-0.03447 1.033577,-0.05104 0.02277,0.201741 0.09486,0.361177 0.216191,0.478349 0.121584,0.114773 0.301202,0.184562 0.538967,0.209595 0.261779,0.02756 0.463797,4.29e-4 0.606234,-0.08163 0.0961,-0.05782 0.150251,-0.143182 0.162412,-0.256137 0.0083,-0.0769 -0.0089,-0.143167 -0.05156,-0.198781 -0.04531,-0.05346 -0.153565,-0.11003 -0.324787,-0.169554 -0.798863,-0.267297 -1.30044,-0.485053 -1.504619,-0.656997 -0.282273,-0.238109 -0.405109,-0.541146 -0.367588,-0.909398 0.03384,-0.332134 0.194004,-0.597954 0.481038,-0.796923 0.287006,-0.198949 0.708084,-0.269541 1.262199,-0.210633 0.527427,0.05607 0.910056,0.184014 1.147582,0.382444 0.237601,0.198494 0.386208,0.470068 0.446075,0.814508 -0.325935,0.0238 -0.651865,0.04794 -0.977774,0.07245 -0.02498,-0.15342 -0.09114,-0.276024 -0.198534,-0.367769 -0.104968,-0.09148 -0.263768,-0.148595 -0.476333,-0.171145 -0.268125,-0.02844 -0.464155,-0.01132 -0.587909,0.05111 -0.08284,0.04483 -0.128628,0.109356 -0.137404,0.193546 -0.0075,0.07217 0.01989,0.137027 0.0822,0.194601 0.08483,0.07707 0.39079,0.204794 0.91791,0.385032 0.529259,0.180403 0.891178,0.371843 1.085902,0.572848 0.192152,0.203248 0.270324,0.465807 0.234976,0.787627 -0.03852,0.350656 -0.218167,0.636021 -0.538274,0.856676 -0.320167,0.220697 -0.76634,0.300431 -1.339367,0.240259 -0.520294,-0.05464 -0.921616,-0.202874 -1.204646,-0.445815 -0.280602,-0.242671 -0.449547,-0.550292 -0.506469,-0.923226 0,0 0,0 -10e-7,0 z"
             id="path515" />
        </g>
        <g
           aria-label="Achievements"
           transform="matrix(0.8183292,0,0,1.2220021,-0.23596395,-8.7306681)"
           id="g1225"
           style="font-weight:bold;font-size:7.42204px;line-height:1.25;font-family:Arial;-inkscape-font-specification:'Arial Bold';letter-spacing:0px;word-spacing:0px;fill:#feff9d;fill-opacity:1;stroke-width:0.185552;filter:url(#filter2335)"
           class="UnoptimicedTransforms">
          <path
             d="m 36.264997,36.038246 c -0.37788,0.04737 -0.755484,0.09665 -1.132803,0.147871 -0.203704,-0.37761 -0.408972,-0.75475 -0.615822,-1.131412 -0.693682,0.0968 -1.38654,0.200113 -2.078519,0.310178 -0.08,0.419742 -0.158374,0.839602 -0.235107,1.259579 -0.366444,0.06003 -0.732595,0.122001 -1.098444,0.185951 0.363009,-1.861356 0.760826,-3.719885 1.19175,-5.575421 0.383681,-0.05859 0.767481,-0.115238 1.151392,-0.169982 0.971238,1.647844 1.909859,3.305803 2.817553,4.973236 z m -2.211735,-1.820881 c -0.333294,-0.615372 -0.670705,-1.229529 -1.012307,-1.842444 -0.143573,0.684821 -0.282914,1.369972 -0.417947,2.055443 0.476397,-0.07411 0.953154,-0.145088 1.430254,-0.212999 z"
             id="path1201"
             style="fill:#feff9d;fill-opacity:1" />
          <path
             d="m 39.831582,32.931389 c -0.328201,0.09076 -0.655807,0.182806 -0.9828,0.27616 -0.05363,-0.195682 -0.145785,-0.337809 -0.276743,-0.426209 -0.128507,-0.08862 -0.288391,-0.12302 -0.479187,-0.102803 -0.253615,0.02687 -0.446996,0.136615 -0.579306,0.328341 -0.130275,0.189219 -0.171776,0.487291 -0.125764,0.894593 0.05113,0.452597 0.162462,0.76408 0.332511,0.934178 0.172581,0.169993 0.384996,0.241183 0.638329,0.214308 0.189428,-0.02009 0.338934,-0.09004 0.448929,-0.210305 0.109707,-0.122614 0.176375,-0.3195 0.199857,-0.590681 0.334625,0.02348 0.668944,0.04835 1.002965,0.07456 -0.06061,0.465348 -0.224352,0.827869 -0.48987,1.088306 -0.265716,0.260632 -0.638534,0.414977 -1.120551,0.466346 -0.547751,0.05837 -1.003916,-0.06736 -1.373215,-0.380706 -0.366529,-0.313276 -0.590314,-0.780353 -0.666132,-1.40247 -0.07673,-0.629588 0.02985,-1.139166 0.325128,-1.528559 0.294663,-0.391347 0.732038,-0.619851 1.3083,-0.680934 0.47159,-0.04999 0.856592,0.01366 1.152647,0.1883 0.298454,0.172123 0.526578,0.458263 0.684902,0.857579 z"
             id="path1203"
             style="fill:#feff9d;fill-opacity:1" />
          <path
             d="m 41.412357,30.191806 0.151793,1.94267 c 0.299853,-0.407799 0.682036,-0.628696 1.142605,-0.6606 0.236322,-0.01637 0.452501,0.01276 0.647968,0.0871 0.195479,0.07434 0.344664,0.176212 0.447647,0.305129 0.105425,0.128783 0.179855,0.274041 0.223546,0.435644 0.04613,0.161536 0.07929,0.414183 0.09975,0.75838 l 0.133663,2.248799 c -0.332763,0.01967 -0.665364,0.04058 -0.997797,0.06275 L 43.125978,33.34787 c -0.02691,-0.401722 -0.06322,-0.655192 -0.109219,-0.760892 -0.04596,-0.105614 -0.120682,-0.186331 -0.224231,-0.242003 -0.101292,-0.05824 -0.22592,-0.08216 -0.373654,-0.07156 -0.169531,0.01217 -0.317919,0.06422 -0.444814,0.155941 -0.126917,0.09173 -0.215263,0.223024 -0.265128,0.393688 -0.04766,0.168146 -0.05871,0.41304 -0.03355,0.735086 l 0.149822,1.917441 c -0.331935,0.02589 -0.663692,0.0531 -0.995267,0.08163 l -0.45451,-5.280204 c 0.345594,-0.02976 0.691238,-0.05815 1.036926,-0.0852 z"
             id="path1205"
             style="fill:#feff9d;fill-opacity:1" />
          <path
             d="m 45.046038,30.897249 -0.04879,-0.939031 c 0.345918,-0.01811 0.69186,-0.03498 1.037818,-0.05062 l 0.04203,0.939518 c -0.34373,0.01548 -0.68742,0.03219 -1.031062,0.05013 z m 0.22629,4.35566 -0.19927,-3.835581 c 0.342382,-0.01785 0.684824,-0.03447 1.02732,-0.04986 l 0.171675,3.837571 c -0.333394,0.01476 -0.666638,0.03071 -0.999725,0.04787 z"
             id="path1207"
             style="fill:#feff9d;fill-opacity:1" />
          <path
             d="m 49.46297,33.875766 c 0.337084,0.04921 0.673893,0.09955 1.010435,0.150989 -0.123472,0.373675 -0.322896,0.660573 -0.59775,0.861395 -0.272627,0.198442 -0.616172,0.302306 -1.032081,0.313255 -0.658064,0.01732 -1.151617,-0.183835 -1.484974,-0.608641 -0.263155,-0.340175 -0.406781,-0.776339 -0.427839,-1.30882 -0.02516,-0.636317 0.121404,-1.140444 0.444154,-1.512035 0.322397,-0.373695 0.742835,-0.569014 1.257947,-0.58339 0.578621,-0.01615 1.03979,0.163658 1.380098,0.536112 0.340659,0.370471 0.50749,0.945706 0.505324,1.72569 -0.847,0.01313 -1.693471,0.03312 -2.539319,0.06038 0.01698,0.301113 0.106212,0.533597 0.266828,0.697601 0.160602,0.161655 0.356365,0.239214 0.58806,0.233091 0.157661,-0.0042 0.289126,-0.05084 0.394649,-0.140247 0.105502,-0.08939 0.183669,-0.231161 0.234468,-0.425379 z m 0.03471,-1.029004 c -0.01379,-0.294195 -0.09491,-0.515627 -0.24407,-0.664189 -0.149165,-0.150921 -0.328489,-0.223681 -0.537346,-0.217973 -0.223431,0.0061 -0.405686,0.09243 -0.546131,0.258473 -0.140491,0.166102 -0.204618,0.387793 -0.193245,0.665002 0.506751,-0.01633 1.013688,-0.03008 1.520792,-0.04131 z"
             id="path1209"
             style="fill:#feff9d;fill-opacity:1" />
          <path
             d="m 52.406159,35.062286 c -0.51543,-1.280566 -1.042658,-2.558169 -1.582337,-3.832563 0.359949,-0.005 0.719928,-0.0088 1.07993,-0.01143 0.248626,0.652551 0.494353,1.305785 0.737252,1.959675 0.07051,0.218391 0.140753,0.436839 0.210721,0.655343 0.05511,-0.166883 0.08985,-0.276409 0.104314,-0.329738 0.03364,-0.108697 0.06975,-0.217387 0.108352,-0.326067 0.243671,-0.654492 0.490235,-1.308575 0.739612,-1.962241 0.352737,0.0014 0.705483,0.0039 1.058234,0.0075 -0.5284,1.277842 -1.045594,2.557544 -1.550908,3.83904 -0.301813,-6.52e-4 -0.603538,-4.84e-4 -0.90517,5.25e-4 z"
             id="path1211"
             style="fill:#feff9d;fill-opacity:1" />
          <path
             d="m 57.675612,33.899772 c 0.33556,0.0657 0.670867,0.132308 1.005928,0.199798 -0.14159,0.368163 -0.35541,0.645816 -0.641054,0.833545 -0.283273,0.185441 -0.633401,0.272656 -1.051606,0.262952 -0.661737,-0.01535 -1.147181,-0.242009 -1.459735,-0.684251 -0.24652,-0.353998 -0.367765,-0.797886 -0.361237,-1.33182 0.0078,-0.638013 0.180698,-1.134886 0.522348,-1.490183 0.341454,-0.357472 0.771318,-0.531628 1.286728,-0.520464 0.578951,0.01254 1.03097,0.214793 1.353418,0.60394 0.32282,0.387092 0.462687,0.970853 0.423506,1.751431 -0.849448,-0.02705 -1.698669,-0.04855 -2.54757,-0.06408 0.0018,0.302208 0.07944,0.539383 0.232279,0.711615 0.152929,0.169868 0.345462,0.257308 0.578217,0.262678 0.15838,0.0037 0.292583,-0.03658 0.402823,-0.120881 0.110222,-0.08429 0.195549,-0.222362 0.255955,-0.414277 z m 0.08492,-1.028233 c 5.12e-4,-0.295126 -0.06992,-0.520711 -0.211874,-0.676694 -0.141856,-0.158354 -0.317619,-0.239986 -0.526795,-0.244627 -0.223769,-0.005 -0.410348,0.07231 -0.559198,0.231426 -0.148892,0.159166 -0.224297,0.377789 -0.226922,0.655783 0.508191,0.0093 1.01646,0.02067 1.524789,0.03411 z"
             id="path1213"
             style="fill:#feff9d;fill-opacity:1" />
          <path
             d="m 59.585564,31.330792 c 0.316046,0.01112 0.632072,0.02299 0.948074,0.03558 l -0.02109,0.525839 c 0.354694,-0.395051 0.767818,-0.582453 1.236491,-0.561071 0.248948,0.01136 0.462569,0.07241 0.640492,0.182846 0.177942,0.110446 0.320107,0.271465 0.426442,0.482888 0.18079,-0.196837 0.372781,-0.340807 0.575684,-0.431834 0.202895,-0.09102 0.416747,-0.130303 0.641155,-0.117739 0.285391,0.01598 0.523545,0.08804 0.714041,0.215722 0.190666,0.125287 0.327782,0.3022 0.41144,0.530497 0.06048,0.168709 0.07927,0.436636 0.05663,0.804047 l -0.15163,2.461569 c -0.336946,-0.02085 -0.673852,-0.04099 -1.010712,-0.06039 l 0.125958,-2.200844 c 0.02186,-0.381961 8.35e-4,-0.630438 -0.06331,-0.745675 -0.08648,-0.150398 -0.228287,-0.231153 -0.42522,-0.24194 -0.143434,-0.0079 -0.280744,0.0284 -0.41171,0.108731 -0.130978,0.08034 -0.228717,0.203723 -0.29328,0.370056 -0.06446,0.163968 -0.105885,0.427146 -0.124546,0.78982 l -0.09516,1.849367 c -0.336735,-0.01747 -0.673417,-0.03417 -1.010039,-0.05007 l 0.09867,-2.110571 c 0.01752,-0.37478 0.01065,-0.617292 -0.02072,-0.727828 -0.03136,-0.110486 -0.08471,-0.194116 -0.160075,-0.250855 -0.07292,-0.05662 -0.175085,-0.0879 -0.306405,-0.09369 -0.158071,-0.007 -0.302196,0.02923 -0.432147,0.108528 -0.129963,0.0793 -0.226073,0.197652 -0.288399,0.354938 -0.05992,0.157444 -0.09724,0.420985 -0.112224,0.790944 l -0.07577,1.871264 c -0.33646,-0.01381 -0.672855,-0.02678 -1.009176,-0.0389 0.04551,-1.283743 0.09102,-2.567486 0.136528,-3.851229 z"
             id="path1215"
             style="fill:#feff9d;fill-opacity:1" />
          <path
             d="m 68.375149,34.454769 c 0.333257,0.08192 0.666288,0.164463 0.999101,0.247597 -0.159184,0.361657 -0.38681,0.629393 -0.682611,0.803625 -0.293281,0.172039 -0.649338,0.2425 -1.06907,0.212225 -0.664224,-0.04791 -1.14063,-0.299579 -1.431523,-0.758229 -0.229206,-0.367006 -0.327472,-0.817522 -0.292982,-1.351521 0.04121,-0.638046 0.24038,-1.126227 0.600121,-1.464073 0.359726,-0.340097 0.7977,-0.492376 1.311749,-0.455584 0.577404,0.04133 1.018798,0.265411 1.322497,0.670037 0.304084,0.402477 0.416899,0.993019 0.341207,1.771897 -0.849706,-0.06666 -1.699578,-0.129462 -2.549522,-0.187996 -0.01354,0.302493 0.05229,0.543735 0.196978,0.723752 0.144884,0.177642 0.333775,0.274735 0.567103,0.291567 0.158766,0.01145 0.295425,-0.02225 0.410135,-0.101235 0.114697,-0.07897 0.206974,-0.212979 0.276817,-0.402062 z m 0.134757,-1.024565 c 0.01477,-0.295215 -0.04481,-0.524308 -0.17916,-0.687261 -0.134142,-0.165335 -0.305817,-0.255619 -0.51469,-0.270625 -0.223447,-0.01605 -0.413814,0.0519 -0.570699,0.203615 -0.156917,0.151748 -0.243484,0.366683 -0.260202,0.644712 0.508318,0.03502 1.016575,0.07157 1.524751,0.109559 z"
             id="path1217"
             style="fill:#feff9d;fill-opacity:1" />
          <path
             d="m 73.647763,36.128861 c -0.337191,-0.03114 -0.674392,-0.06177 -1.011599,-0.09189 l 0.175777,-1.96075 c 0.03719,-0.414859 0.03944,-0.684433 0.0066,-0.808964 -0.03257,-0.1269 -0.09552,-0.228558 -0.188886,-0.30492 -0.09093,-0.07614 -0.205539,-0.120318 -0.343732,-0.132437 -0.176987,-0.01552 -0.340026,0.01895 -0.488915,0.103355 -0.148889,0.0844 -0.256714,0.204036 -0.323534,0.358763 -0.06442,0.154984 -0.114757,0.447127 -0.151217,0.876712 l -0.147764,1.741051 c -0.337209,-0.02855 -0.674413,-0.05654 -1.011608,-0.08395 l 0.312967,-3.845398 c 0.317397,0.02585 0.634719,0.05222 0.951962,0.0791 l -0.04779,0.56468 c 0.374026,-0.405802 0.818521,-0.586327 1.331319,-0.540724 0.225985,0.0201 0.428838,0.07971 0.608364,0.178688 0.179749,0.09657 0.31111,0.211982 0.394162,0.346067 0.08548,0.134312 0.138967,0.282724 0.160563,0.445202 0.02402,0.162726 0.02223,0.392287 -0.0053,0.688826 -0.07381,0.795533 -0.147616,1.591066 -0.221424,2.386598 z"
             id="path1219"
             style="fill:#feff9d;fill-opacity:1" />
          <path
             d="m 76.81243,32.561202 -0.0814,0.808891 c -0.232117,-0.02338 -0.464283,-0.04656 -0.696495,-0.06952 l -0.152722,1.546122 c -0.03092,0.313065 -0.04299,0.496714 -0.0362,0.550866 0.0094,0.052 0.03533,0.0971 0.07767,0.135314 0.04475,0.03846 0.100774,0.06101 0.16809,0.06768 0.09378,0.0093 0.232805,-0.0097 0.417287,-0.05693 0.0025,0.265298 0.0048,0.530586 0.0072,0.795865 -0.245358,0.07756 -0.516622,0.10169 -0.814082,0.07253 -0.182316,-0.01787 -0.343679,-0.06396 -0.484193,-0.138342 -0.140279,-0.07679 -0.240608,-0.166663 -0.300954,-0.269721 -0.05771,-0.105225 -0.09182,-0.242233 -0.1023,-0.41101 -0.0103,-0.120103 0.0018,-0.359739 0.0362,-0.718726 l 0.160542,-1.673408 c -0.156107,-0.01499 -0.312233,-0.02988 -0.468378,-0.04466 l 0.0766,-0.809774 c 0.156507,0.01484 0.312992,0.02979 0.469452,0.04484 l 0.07316,-0.76261 c 0.361713,-0.164555 0.723858,-0.328513 1.086385,-0.49189 l -0.13381,1.354663 c 0.232712,0.02306 0.465367,0.04633 0.697965,0.06982 z"
             id="path1221"
             style="fill:#feff9d;fill-opacity:1" />
          <path
             d="m 76.883065,35.336909 c 0.344456,-0.01746 0.688988,-0.03447 1.033577,-0.05104 0.02277,0.201741 0.09486,0.361177 0.216191,0.478349 0.121584,0.114773 0.301202,0.184562 0.538967,0.209595 0.261779,0.02756 0.463797,4.29e-4 0.606234,-0.08163 0.0961,-0.05782 0.150251,-0.143182 0.162412,-0.256137 0.0083,-0.0769 -0.0089,-0.143167 -0.05156,-0.198781 -0.04531,-0.05346 -0.153565,-0.11003 -0.324787,-0.169554 -0.798863,-0.267297 -1.30044,-0.485053 -1.504619,-0.656997 -0.282273,-0.238109 -0.405109,-0.541146 -0.367588,-0.909398 0.03384,-0.332134 0.194004,-0.597954 0.481038,-0.796923 0.287006,-0.198949 0.708084,-0.269541 1.262199,-0.210633 0.527427,0.05607 0.910056,0.184014 1.147582,0.382444 0.237601,0.198494 0.386208,0.470068 0.446075,0.814508 -0.325935,0.0238 -0.651865,0.04794 -0.977774,0.07245 -0.02498,-0.15342 -0.09114,-0.276024 -0.198534,-0.367769 -0.104968,-0.09148 -0.263768,-0.148595 -0.476333,-0.171145 -0.268125,-0.02844 -0.464155,-0.01132 -0.587909,0.05111 -0.08284,0.04483 -0.128628,0.109356 -0.137404,0.193546 -0.0075,0.07217 0.01989,0.137027 0.0822,0.194601 0.08483,0.07707 0.39079,0.204794 0.91791,0.385032 0.529259,0.180403 0.891178,0.371843 1.085902,0.572848 0.192152,0.203248 0.270324,0.465807 0.234976,0.787627 -0.03852,0.350656 -0.218167,0.636021 -0.538274,0.856676 -0.320167,0.220697 -0.76634,0.300431 -1.339367,0.240259 -0.520294,-0.05464 -0.921616,-0.202874 -1.204646,-0.445815 -0.280602,-0.242671 -0.449547,-0.550292 -0.506469,-0.923226 0,0 0,0 -10e-7,0 z"
             id="path1223"
             style="fill:#feff9d;fill-opacity:1" />
        </g>
      </g>
    </g>
  </g>
</svg>
