<?xml version="1.0" encoding="UTF-8" standalone="no"?>
<!-- Created with Inkscape (http://www.inkscape.org/) -->

<svg
   width="210mm"
   height="297mm"
   viewBox="0 0 210 297"
   version="1.1"
   id="svg5"
   inkscape:version="1.2 (dc2aedaf03, 2022-05-15)"
   sodipodi:docname="dialog-13-title(settings).svg"
   xmlns:inkscape="http://www.inkscape.org/namespaces/inkscape"
   xmlns:sodipodi="http://sodipodi.sourceforge.net/DTD/sodipodi-0.dtd"
   xmlns="http://www.w3.org/2000/svg"
   xmlns:svg="http://www.w3.org/2000/svg">
  <sodipodi:namedview
     id="namedview7"
     pagecolor="#ffffff"
     bordercolor="#666666"
     borderopacity="1.0"
     inkscape:showpageshadow="2"
     inkscape:pageopacity="0.0"
     inkscape:pagecheckerboard="0"
     inkscape:deskcolor="#d1d1d1"
     inkscape:document-units="mm"
     showgrid="false"
     inkscape:zoom="2.3786088"
     inkscape:cx="128.64663"
     inkscape:cy="67.056004"
     inkscape:window-width="1576"
     inkscape:window-height="958"
     inkscape:window-x="61"
     inkscape:window-y="30"
     inkscape:window-maximized="0"
     inkscape:current-layer="layer1" />
  <defs
     id="defs2">
    <inkscape:path-effect
       effect="bend_path"
       id="path-effect446"
       is_visible="true"
       lpeversion="1"
       bendpath="m 29.241944,20.313617 c 12.463598,-2.093535 22.84941,-1.666955 32.55317,0"
       prop_scale="1"
       scale_y_rel="false"
       vertical="false"
       hide_knot="false"
       bendpath-nodetypes="cc" />
    <filter
       inkscape:collect="always"
       style="color-interpolation-filters:sRGB"
       id="filter11206"
       x="-0.019905656"
       y="-0.10555741"
       width="1.0398113"
       height="1.2111148">
      <feGaussianBlur
         inkscape:collect="always"
         stdDeviation="0.47068339"
         id="feGaussianBlur11208" />
    </filter>
    <filter
       inkscape:collect="always"
       style="color-interpolation-filters:sRGB"
       id="filter2849"
       x="-0.025970179"
       y="-0.10591026"
       width="1.0519404"
       height="1.2118205">
      <feGaussianBlur
         inkscape:collect="always"
         stdDeviation="0.35457495"
         id="feGaussianBlur2851" />
    </filter>
  </defs>
  <g
     inkscape:label="Layer 1"
     inkscape:groupmode="layer"
     id="layer1">
    <g
       id="g4387">
      <rect
         style="opacity:0.6464891;fill:#090909;fill-opacity:1;stroke-width:0.17937;stroke-linecap:round;stroke-linejoin:round;paint-order:markers stroke fill;filter:url(#filter11206)"
         id="rect10470"
         width="56.749706"
         height="10.701666"
         x="17.143677"
         y="15.835053"
         ry="4.0206466" />
      <rect
         style="fill:#ffc3a1;fill-opacity:1;stroke-width:0.17937;stroke-linecap:round;stroke-linejoin:round;paint-order:markers stroke fill"
         id="rect5377"
         width="56.749706"
         height="10.701666"
         x="17.143677"
         y="13.45633"
         ry="4.0206466" />
      <rect
         style="fill:#d74e04;fill-opacity:1;stroke-width:0.17937;stroke-linecap:round;stroke-linejoin:round;paint-order:markers stroke fill"
         id="rect5379"
         width="56.749706"
         height="10.701666"
         x="17.143677"
         y="14.73389"
         ry="4.0206466" />
      <rect
         style="fill:#ff8d4f;fill-opacity:1;stroke-width:0.17937;stroke-linecap:round;stroke-linejoin:round;paint-order:markers stroke fill"
         id="rect184"
         width="56.749706"
         height="10.701666"
         x="17.143677"
         y="14.039493"
         ry="4.0206466" />
      <g
         id="g12525"
         transform="matrix(1,0,0,0.91660662,-16.62131,-11.752292)">
        <circle
           style="opacity:1;fill:#ffd6bf;fill-opacity:1;stroke-width:0.360979;stroke-linecap:round;stroke-linejoin:round;paint-order:markers stroke fill"
           id="circle12520"
           cx="38.313038"
           cy="34.126549"
           r="1.5" />
        <circle
           style="opacity:1;fill:#a14b12;fill-opacity:1;stroke-width:0.360979;stroke-linecap:round;stroke-linejoin:round;paint-order:markers stroke fill"
           id="circle12518"
           cx="38.313038"
           cy="33.825432"
           r="1.5" />
        <circle
           style="opacity:1;fill:#ffb687;fill-opacity:1;stroke-width:0.360979;stroke-linecap:round;stroke-linejoin:round;paint-order:markers stroke fill"
           id="path11268"
           cx="38.313038"
           cy="33.97599"
           r="1.5" />
      </g>
      <g
         id="g12547"
         transform="matrix(1,0,0,0.91660662,31.200724,-11.752292)">
        <circle
           style="opacity:1;fill:#ffd6bf;fill-opacity:1;stroke-width:0.360979;stroke-linecap:round;stroke-linejoin:round;paint-order:markers stroke fill"
           id="circle12541"
           cx="38.313038"
           cy="34.126549"
           r="1.5" />
        <circle
           style="opacity:1;fill:#a14b12;fill-opacity:1;stroke-width:0.360979;stroke-linecap:round;stroke-linejoin:round;paint-order:markers stroke fill"
           id="circle12543"
           cx="38.313038"
           cy="33.825432"
           r="1.5" />
        <circle
           style="opacity:1;fill:#ffb687;fill-opacity:1;stroke-width:0.360979;stroke-linecap:round;stroke-linejoin:round;paint-order:markers stroke fill"
           id="circle12545"
           cx="38.313038"
           cy="33.97599"
           r="1.5" />
      </g>
      <g
         aria-label="Settings"
         id="g560"
         style="font-weight:bold;font-size:8.19281px;line-height:1.25;font-family:Arial;-inkscape-font-specification:'Arial Bold';letter-spacing:0.132292px;word-spacing:0px;opacity:1;mix-blend-mode:normal;fill:#131313;fill-opacity:1;stroke:none;stroke-width:0;stroke-dasharray:none;filter:url(#filter2849)"
         class="UnoptimicedTransforms"
         transform="translate(0.1390431,0.43819044)">
        <path
           d="m 29.178176,20.539371 c 0.373518,-0.100995 0.747837,-0.199854 1.122932,-0.296566 0.128753,0.371152 0.310832,0.630239 0.54538,0.777763 0.237362,0.147243 0.531875,0.194556 0.885553,0.143676 0.374658,-0.0539 0.645411,-0.171539 0.813419,-0.355754 0.170175,-0.187096 0.241957,-0.387413 0.213686,-0.60161 -0.01815,-0.137488 -0.07453,-0.248415 -0.169527,-0.332627 -0.09265,-0.08716 -0.24494,-0.152966 -0.456921,-0.196472 -0.142313,-0.02801 -0.474414,-0.07012 -0.982418,-0.118606 -0.657161,-0.06226 -1.13176,-0.181641 -1.425351,-0.366981 -0.412046,-0.260268 -0.658919,-0.61749 -0.735284,-1.075286 -0.04914,-0.294607 -0.0099,-0.583798 0.119953,-0.867308 0.132084,-0.286526 0.350777,-0.523402 0.656411,-0.70896 0.308324,-0.185956 0.696101,-0.313946 1.161708,-0.381294 0.760552,-0.11001 1.355772,-0.02467 1.778312,0.246487 0.425627,0.271021 0.678157,0.6747 0.762164,1.207156 -0.399866,0.06605 -0.799232,0.13448 -1.198071,0.205288 -0.09145,-0.291847 -0.231716,-0.490953 -0.42132,-0.596928 -0.187075,-0.108895 -0.451906,-0.139627 -0.793033,-0.09024 -0.352046,0.05097 -0.617154,0.162592 -0.794256,0.332663 -0.114135,0.10923 -0.159231,0.239071 -0.135936,0.38928 0.02126,0.137053 0.09903,0.245038 0.232784,0.324353 0.170912,0.101124 0.556095,0.173275 1.157916,0.225331 0.600607,0.05195 1.049718,0.13619 1.344732,0.245757 0.298012,0.106819 0.539931,0.277079 0.725773,0.509593 0.188281,0.22965 0.303478,0.528673 0.347585,0.896794 0.03998,0.333651 -0.01532,0.657115 -0.163237,0.970772 -0.147948,0.313716 -0.379274,0.562894 -0.693786,0.749255 -0.315057,0.183833 -0.719177,0.30958 -1.214578,0.380913 -0.720823,0.103793 -1.298498,0.02256 -1.740711,-0.251994 -0.441897,-0.276723 -0.758119,-0.730653 -0.943879,-1.36446 0,10e-7 0,3e-6 0,5e-6 z"
           id="path544"
           style="fill:#131313;fill-opacity:1;stroke:none;stroke-width:0;stroke-dasharray:none" />
        <path
           d="m 37.528578,20.04796 c 0.376182,0.0316 0.751822,0.06536 1.126892,0.10129 -0.113565,0.419798 -0.315571,0.748776 -0.605077,0.988133 -0.287292,0.236656 -0.657824,0.374126 -1.114388,0.415511 -0.722282,0.06547 -1.279932,-0.118405 -1.680775,-0.561095 -0.316625,-0.354595 -0.510393,-0.824177 -0.575794,-1.409741 -0.07817,-0.699866 0.04487,-1.267623 0.377162,-1.702873 0.331571,-0.437332 0.788234,-0.684949 1.364222,-0.737756 0.647009,-0.05932 1.175899,0.108549 1.579655,0.497444 0.404375,0.387023 0.624372,1.011074 0.669469,1.871754 -0.937866,0.06667 -1.87482,0.14677 -2.810473,0.240233 0.0411,0.330845 0.157151,0.580602 0.346547,0.749655 0.189255,0.166502 0.410795,0.23783 0.666046,0.21473 0.173695,-0.01572 0.315528,-0.07629 0.425973,-0.182141 0.110409,-0.105818 0.187272,-0.267499 0.230541,-0.485144 z m -0.02978,-1.137406 c -0.03479,-0.323612 -0.139675,-0.562407 -0.316024,-0.716111 -0.176465,-0.156266 -0.381669,-0.224088 -0.614393,-0.202908 -0.248968,0.02266 -0.446266,0.13124 -0.590773,0.32479 -0.144587,0.193659 -0.199535,0.442991 -0.166437,0.747921 0.562101,-0.05603 1.124671,-0.107261 1.687627,-0.153692 z"
           id="path546"
           style="fill:#131313;fill-opacity:1;stroke:none;stroke-width:0;stroke-dasharray:none" />
        <path
           d="m 41.567425,16.897893 0.03619,0.895146 c -0.260247,0.01051 -0.520455,0.02204 -0.780614,0.03459 l 0.08256,1.709813 c 0.01671,0.346159 0.03314,0.548375 0.04917,0.606266 0.01857,0.05517 0.05387,0.100184 0.105842,0.135103 0.05462,0.0348 0.118873,0.0505 0.192844,0.04716 0.103108,-0.0047 0.250591,-0.0472 0.443482,-0.127074 0.0435,0.289103 0.08671,0.578232 0.129632,0.867387 -0.252528,0.122069 -0.540322,0.190492 -0.864726,0.206271 -0.19883,0.0097 -0.379646,-0.01429 -0.542975,-0.07219 -0.163462,-0.06056 -0.286389,-0.141632 -0.368683,-0.243715 -0.0798,-0.104861 -0.139747,-0.248258 -0.179665,-0.430173 -0.03145,-0.128881 -0.05917,-0.39194 -0.08288,-0.7884 L 39.677008,17.88954 c -0.174688,0.01044 -0.349349,0.02135 -0.523981,0.03271 l -0.0582,-0.89405 c 0.176198,-0.01146 0.352426,-0.02246 0.528682,-0.03299 l -0.0504,-0.842426 c 0.375475,-0.241468 0.753596,-0.480846 1.134346,-0.718085 l 0.07234,1.498084 c 0.262497,-0.01266 0.525044,-0.02429 0.787633,-0.03489 z"
           id="path548"
           style="fill:#131313;fill-opacity:1;stroke:none;stroke-width:0;stroke-dasharray:none" />
        <path
           d="m 44.502673,16.822448 0.0099,0.895741 c -0.260438,0.0029 -0.520865,0.0068 -0.781273,0.01172 l 0.03249,1.711342 c 0.0066,0.346469 0.01707,0.549061 0.0314,0.607391 0.01694,0.05568 0.0509,0.101708 0.101828,0.138131 0.05357,0.03638 0.117325,0.05396 0.191351,0.05279 0.103184,-0.0016 0.251826,-0.03983 0.446944,-0.114018 0.035,0.290228 0.06971,0.580473 0.10414,0.870736 -0.255946,0.114605 -0.545558,0.174562 -0.870218,0.180841 -0.198987,0.0038 -0.378989,-0.02539 -0.540524,-0.08803 -0.161591,-0.06531 -0.282073,-0.149928 -0.361336,-0.254362 -0.07668,-0.107139 -0.132412,-0.252213 -0.166995,-0.4352 -0.02767,-0.129733 -0.04769,-0.393467 -0.05981,-0.790414 l -0.05654,-1.850824 c -0.174913,0.0053 -0.349813,0.01114 -0.524696,0.0174 l -0.03208,-0.895289 c 0.176459,-0.0063 0.352934,-0.01216 0.529424,-0.01754 L 42.530908,16.0194 c 0.382387,-0.230379 0.76737,-0.45858 1.154934,-0.684556 l 0.02846,1.499423 c 0.262759,-0.005 0.525539,-0.0089 0.788332,-0.01181 z"
           id="path550"
           style="fill:#131313;fill-opacity:1;stroke:none;stroke-width:0;stroke-dasharray:none" />
        <path
           d="m 45.438215,16.240651 -0.0018,-1.039733 c 0.390866,-6.3e-4 0.781747,9.99e-4 1.172617,0.0049 l -0.01026,1.039652 c -0.386851,-0.0038 -0.773718,-0.0054 -1.160575,-0.0048 z m 0.0083,4.822768 -0.0073,-4.246915 c 0.384637,-6.37e-4 0.76928,9.51e-4 1.153906,0.0048 l -0.0419,4.246583 c -0.368211,-0.0036 -0.736459,-0.0051 -1.104719,-0.0044 z"
           id="path552"
           style="fill:#131313;fill-opacity:1;stroke:none;stroke-width:0;stroke-dasharray:none" />
        <path
           d="m 51.606124,21.252401 c -0.36736,-0.02328 -0.73487,-0.04441 -1.102504,-0.06338 l 0.111728,-2.164336 c 0.02365,-0.458053 0.01473,-0.754481 -0.02718,-0.890238 -0.04172,-0.138253 -0.116283,-0.247443 -0.223819,-0.327388 -0.104806,-0.0798 -0.234743,-0.123285 -0.389454,-0.130151 -0.198142,-0.0088 -0.378262,0.03718 -0.539599,0.137606 -0.161342,0.10043 -0.274693,0.237751 -0.340325,0.411467 -0.06301,0.17401 -0.102397,0.497677 -0.118864,0.972092 l -0.06672,1.922192 c -0.367943,-0.01276 -0.735976,-0.02337 -1.104073,-0.03184 l 0.09789,-4.24553 c 0.357183,0.0083 0.714327,0.01843 1.071411,0.03054 l -0.02112,0.623433 c 0.394137,-0.466681 0.884032,-0.688144 1.461945,-0.66013 0.254589,0.01234 0.485004,0.06986 0.690393,0.172047 0.205549,0.09953 0.357133,0.222068 0.454944,0.366828 0.100557,0.144958 0.165443,0.306586 0.195069,0.48473 0.03236,0.178413 0.03796,0.430986 0.01722,0.758307 -0.05564,0.877915 -0.11129,1.755829 -0.166936,2.633744 z"
           id="path554"
           style="fill:#131313;fill-opacity:1;stroke:none;stroke-width:0;stroke-dasharray:none" />
        <path
           d="m 52.729988,21.611101 c 0.414095,0.08347 0.827261,0.169698 1.239461,0.258686 0.0075,0.150534 0.04631,0.257058 0.116281,0.31961 0.09629,0.08905 0.255361,0.14377 0.477524,0.165147 0.284179,0.02734 0.501393,0.0053 0.652673,-0.06751 0.10165,-0.04845 0.183958,-0.134966 0.246924,-0.25966 0.04347,-0.08917 0.07855,-0.25847 0.104993,-0.507601 l 0.06541,-0.616344 c -0.379068,0.420917 -0.815387,0.606715 -1.315925,0.560353 -0.55782,-0.05167 -0.979351,-0.328033 -1.270772,-0.834915 -0.228024,-0.39992 -0.323702,-0.882974 -0.281752,-1.449062 0.05262,-0.710034 0.264269,-1.239392 0.642289,-1.586875 0.3802,-0.346774 0.834053,-0.497478 1.355609,-0.448968 0.538023,0.05004 0.958931,0.325202 1.256343,0.82073 l 0.06333,-0.592438 c 0.358143,0.03826 0.716091,0.07851 1.073825,0.120749 l -0.447224,3.784624 c -0.05879,0.497491 -0.143224,0.865158 -0.251933,1.101805 -0.10881,0.236866 -0.243084,0.417253 -0.402675,0.541339 -0.159654,0.124134 -0.363925,0.212633 -0.613009,0.266457 -0.246639,0.05412 -0.552141,0.06255 -0.918158,0.02715 -0.690962,-0.06682 -1.170668,-0.230471 -1.441614,-0.500972 -0.271015,-0.2677 -0.394299,-0.589547 -0.365753,-0.967038 0.0028,-0.03721 0.0075,-0.08231 0.01416,-0.135268 -1e-6,0 -3e-6,0 -5e-6,0 z m 1.194245,-2.402517 c -0.03871,0.448698 0.01953,0.785725 0.172524,1.010571 0.15603,0.222654 0.359641,0.345608 0.612345,0.369849 0.27113,0.02601 0.510443,-0.05698 0.719806,-0.249763 0.209451,-0.195259 0.337637,-0.502134 0.382165,-0.920867 0.04653,-0.437517 -0.0098,-0.771727 -0.171158,-1.003008 -0.161241,-0.231057 -0.383335,-0.360743 -0.664705,-0.387778 -0.273254,-0.02625 -0.509081,0.05802 -0.705785,0.251924 -0.193952,0.191665 -0.308295,0.501364 -0.345192,0.929072 z"
           id="path556"
           style="fill:#131313;fill-opacity:1;stroke:none;stroke-width:0;stroke-dasharray:none" />
        <path
           d="m 57.637827,20.610063 c 0.378395,-0.0096 0.757193,-0.01687 1.136372,-0.02183 0.01718,0.223132 0.08989,0.401587 0.217631,0.535605 0.128191,0.131453 0.321174,0.215836 0.579607,0.254482 0.284556,0.04255 0.506444,0.02309 0.666628,-0.05977 0.108187,-0.0586 0.172266,-0.149673 0.191854,-0.273467 0.01334,-0.08428 -0.0018,-0.15824 -0.04566,-0.221828 -0.04683,-0.06131 -0.162793,-0.129594 -0.348042,-0.203836 -0.866802,-0.33568 -1.409621,-0.590181 -1.631016,-0.788151 -0.303699,-0.272019 -0.431788,-0.609421 -0.379596,-1.014037 0.04706,-0.364832 0.233029,-0.652979 0.561538,-0.862049 0.328084,-0.208799 0.805349,-0.270723 1.426788,-0.1786 0.591517,0.08769 1.016039,0.251568 1.271855,0.484941 0.255938,0.233484 0.40584,0.54261 0.450993,0.926213 -0.365167,0.0046 -0.729911,0.01127 -1.094215,0.02009 -0.01973,-0.17047 -0.08717,-0.309268 -0.202615,-0.416153 -0.112736,-0.106448 -0.287684,-0.17777 -0.524448,-0.212935 -0.29861,-0.04435 -0.51878,-0.03388 -0.659371,0.02963 -0.0943,0.0459 -0.147814,0.115154 -0.160779,0.20756 -0.01112,0.07922 0.017,0.151791 0.08411,0.217829 0.09223,0.08924 0.426222,0.240938 1.003612,0.467079 0.578621,0.225988 0.968796,0.460036 1.171378,0.693557 0.199837,0.236102 0.268468,0.530772 0.208343,0.883042 -0.06552,0.383901 -0.281419,0.686188 -0.643301,0.909997 -0.362298,0.224065 -0.849708,0.286404 -1.468049,0.193895 -0.561475,-0.084 -0.990303,-0.261561 -1.289775,-0.538714 -0.296719,-0.276663 -0.472027,-0.620126 -0.523848,-1.03255 10e-7,0 10e-7,0 2e-6,1e-6 z"
           id="path558"
           style="fill:#131313;fill-opacity:1;stroke:none;stroke-width:0;stroke-dasharray:none" />
      </g>
      <g
         aria-label="Settings"
         id="text198"
         style="font-weight:bold;font-size:8.19281px;line-height:1.25;font-family:Arial;-inkscape-font-specification:'Arial Bold';letter-spacing:0.132292px;word-spacing:0px;stroke-width:0.20482;fill:#feff9d;fill-opacity:1;opacity:1"
         class="UnoptimicedTransforms">
        <path
           d="m 29.178176,20.539371 c 0.373518,-0.100995 0.747837,-0.199854 1.122932,-0.296566 0.128753,0.371152 0.310832,0.630239 0.54538,0.777763 0.237362,0.147243 0.531875,0.194556 0.885553,0.143676 0.374658,-0.0539 0.645411,-0.171539 0.813419,-0.355754 0.170175,-0.187096 0.241957,-0.387413 0.213686,-0.60161 -0.01815,-0.137488 -0.07453,-0.248415 -0.169527,-0.332627 -0.09265,-0.08716 -0.24494,-0.152966 -0.456921,-0.196472 -0.142313,-0.02801 -0.474414,-0.07012 -0.982418,-0.118606 -0.657161,-0.06226 -1.13176,-0.181641 -1.425351,-0.366981 -0.412046,-0.260268 -0.658919,-0.61749 -0.735284,-1.075286 -0.04914,-0.294607 -0.0099,-0.583798 0.119953,-0.867308 0.132084,-0.286526 0.350777,-0.523402 0.656411,-0.70896 0.308324,-0.185956 0.696101,-0.313946 1.161708,-0.381294 0.760552,-0.11001 1.355772,-0.02467 1.778312,0.246487 0.425627,0.271021 0.678157,0.6747 0.762164,1.207156 -0.399866,0.06605 -0.799232,0.13448 -1.198071,0.205288 -0.09145,-0.291847 -0.231716,-0.490953 -0.42132,-0.596928 -0.187075,-0.108895 -0.451906,-0.139627 -0.793033,-0.09024 -0.352046,0.05097 -0.617154,0.162592 -0.794256,0.332663 -0.114135,0.10923 -0.159231,0.239071 -0.135936,0.38928 0.02126,0.137053 0.09903,0.245038 0.232784,0.324353 0.170912,0.101124 0.556095,0.173275 1.157916,0.225331 0.600607,0.05195 1.049718,0.13619 1.344732,0.245757 0.298012,0.106819 0.539931,0.277079 0.725773,0.509593 0.188281,0.22965 0.303478,0.528673 0.347585,0.896794 0.03998,0.333651 -0.01532,0.657115 -0.163237,0.970772 -0.147948,0.313716 -0.379274,0.562894 -0.693786,0.749255 -0.315057,0.183833 -0.719177,0.30958 -1.214578,0.380913 -0.720823,0.103793 -1.298498,0.02256 -1.740711,-0.251994 -0.441897,-0.276723 -0.758119,-0.730653 -0.943879,-1.36446 0,10e-7 0,3e-6 0,5e-6 z"
           id="path429"
           style="fill:#feff9d;fill-opacity:1" />
        <path
           d="m 37.528578,20.04796 c 0.376182,0.0316 0.751822,0.06536 1.126892,0.10129 -0.113565,0.419798 -0.315571,0.748776 -0.605077,0.988133 -0.287292,0.236656 -0.657824,0.374126 -1.114388,0.415511 -0.722282,0.06547 -1.279932,-0.118405 -1.680775,-0.561095 -0.316625,-0.354595 -0.510393,-0.824177 -0.575794,-1.409741 -0.07817,-0.699866 0.04487,-1.267623 0.377162,-1.702873 0.331571,-0.437332 0.788234,-0.684949 1.364222,-0.737756 0.647009,-0.05932 1.175899,0.108549 1.579655,0.497444 0.404375,0.387023 0.624372,1.011074 0.669469,1.871754 -0.937866,0.06667 -1.87482,0.14677 -2.810473,0.240233 0.0411,0.330845 0.157151,0.580602 0.346547,0.749655 0.189255,0.166502 0.410795,0.23783 0.666046,0.21473 0.173695,-0.01572 0.315528,-0.07629 0.425973,-0.182141 0.110409,-0.105818 0.187272,-0.267499 0.230541,-0.485144 z m -0.02978,-1.137406 c -0.03479,-0.323612 -0.139675,-0.562407 -0.316024,-0.716111 -0.176465,-0.156266 -0.381669,-0.224088 -0.614393,-0.202908 -0.248968,0.02266 -0.446266,0.13124 -0.590773,0.32479 -0.144587,0.193659 -0.199535,0.442991 -0.166437,0.747921 0.562101,-0.05603 1.124671,-0.107261 1.687627,-0.153692 z"
           id="path431"
           style="fill:#feff9d;fill-opacity:1" />
        <path
           d="m 41.567425,16.897893 0.03619,0.895146 c -0.260247,0.01051 -0.520455,0.02204 -0.780614,0.03459 l 0.08256,1.709813 c 0.01671,0.346159 0.03314,0.548375 0.04917,0.606266 0.01857,0.05517 0.05387,0.100184 0.105842,0.135103 0.05462,0.0348 0.118873,0.0505 0.192844,0.04716 0.103108,-0.0047 0.250591,-0.0472 0.443482,-0.127074 0.0435,0.289103 0.08671,0.578232 0.129632,0.867387 -0.252528,0.122069 -0.540322,0.190492 -0.864726,0.206271 -0.19883,0.0097 -0.379646,-0.01429 -0.542975,-0.07219 -0.163462,-0.06056 -0.286389,-0.141632 -0.368683,-0.243715 -0.0798,-0.104861 -0.139747,-0.248258 -0.179665,-0.430173 -0.03145,-0.128881 -0.05917,-0.39194 -0.08288,-0.7884 L 39.677008,17.88954 c -0.174688,0.01044 -0.349349,0.02135 -0.523981,0.03271 l -0.0582,-0.89405 c 0.176198,-0.01146 0.352426,-0.02246 0.528682,-0.03299 l -0.0504,-0.842426 c 0.375475,-0.241468 0.753596,-0.480846 1.134346,-0.718085 l 0.07234,1.498084 c 0.262497,-0.01266 0.525044,-0.02429 0.787633,-0.03489 z"
           id="path433"
           style="fill:#feff9d;fill-opacity:1" />
        <path
           d="m 44.502673,16.822448 0.0099,0.895741 c -0.260438,0.0029 -0.520865,0.0068 -0.781273,0.01172 l 0.03249,1.711342 c 0.0066,0.346469 0.01707,0.549061 0.0314,0.607391 0.01694,0.05568 0.0509,0.101708 0.101828,0.138131 0.05357,0.03638 0.117325,0.05396 0.191351,0.05279 0.103184,-0.0016 0.251826,-0.03983 0.446944,-0.114018 0.035,0.290228 0.06971,0.580473 0.10414,0.870736 -0.255946,0.114605 -0.545558,0.174562 -0.870218,0.180841 -0.198987,0.0038 -0.378989,-0.02539 -0.540524,-0.08803 -0.161591,-0.06531 -0.282073,-0.149928 -0.361336,-0.254362 -0.07668,-0.107139 -0.132412,-0.252213 -0.166995,-0.4352 -0.02767,-0.129733 -0.04769,-0.393467 -0.05981,-0.790414 l -0.05654,-1.850824 c -0.174913,0.0053 -0.349813,0.01114 -0.524696,0.0174 l -0.03208,-0.895289 c 0.176459,-0.0063 0.352934,-0.01216 0.529424,-0.01754 l -0.02577,-0.843463 c 0.382387,-0.230379 0.76737,-0.45858 1.154934,-0.684556 l 0.02846,1.499423 c 0.262759,-0.005 0.525539,-0.0089 0.788332,-0.01181 z"
           id="path435"
           style="fill:#feff9d;fill-opacity:1" />
        <path
           d="m 45.438215,16.240651 -0.0018,-1.039733 c 0.390866,-6.3e-4 0.781747,9.99e-4 1.172617,0.0049 l -0.01026,1.039652 c -0.386851,-0.0038 -0.773718,-0.0054 -1.160575,-0.0048 z m 0.0083,4.822768 -0.0073,-4.246915 c 0.384637,-6.37e-4 0.76928,9.51e-4 1.153906,0.0048 l -0.0419,4.246583 c -0.368211,-0.0036 -0.736459,-0.0051 -1.104719,-0.0044 z"
           id="path437"
           style="fill:#feff9d;fill-opacity:1" />
        <path
           d="m 51.606124,21.252401 c -0.36736,-0.02328 -0.73487,-0.04441 -1.102504,-0.06338 l 0.111728,-2.164336 c 0.02365,-0.458053 0.01473,-0.754481 -0.02718,-0.890238 -0.04172,-0.138253 -0.116283,-0.247443 -0.223819,-0.327388 -0.104806,-0.0798 -0.234743,-0.123285 -0.389454,-0.130151 -0.198142,-0.0088 -0.378262,0.03718 -0.539599,0.137606 -0.161342,0.10043 -0.274693,0.237751 -0.340325,0.411467 -0.06301,0.17401 -0.102397,0.497677 -0.118864,0.972092 l -0.06672,1.922192 c -0.367943,-0.01276 -0.735976,-0.02337 -1.104073,-0.03184 l 0.09789,-4.24553 c 0.357183,0.0083 0.714327,0.01843 1.071411,0.03054 l -0.02112,0.623433 c 0.394137,-0.466681 0.884032,-0.688144 1.461945,-0.66013 0.254589,0.01234 0.485004,0.06986 0.690393,0.172047 0.205549,0.09953 0.357133,0.222068 0.454944,0.366828 0.100557,0.144958 0.165443,0.306586 0.195069,0.48473 0.03236,0.178413 0.03796,0.430986 0.01722,0.758307 -0.05564,0.877915 -0.11129,1.755829 -0.166936,2.633744 z"
           id="path439"
           style="fill:#feff9d;fill-opacity:1" />
        <path
           d="m 52.729988,21.611101 c 0.414095,0.08347 0.827261,0.169698 1.239461,0.258686 0.0075,0.150534 0.04631,0.257058 0.116281,0.31961 0.09629,0.08905 0.255361,0.14377 0.477524,0.165147 0.284179,0.02734 0.501393,0.0053 0.652673,-0.06751 0.10165,-0.04845 0.183958,-0.134966 0.246924,-0.25966 0.04347,-0.08917 0.07855,-0.25847 0.104993,-0.507601 l 0.06541,-0.616344 c -0.379068,0.420917 -0.815387,0.606715 -1.315925,0.560353 -0.55782,-0.05167 -0.979351,-0.328033 -1.270772,-0.834915 -0.228024,-0.39992 -0.323702,-0.882974 -0.281752,-1.449062 0.05262,-0.710034 0.264269,-1.239392 0.642289,-1.586875 0.3802,-0.346774 0.834053,-0.497478 1.355609,-0.448968 0.538023,0.05004 0.958931,0.325202 1.256343,0.82073 l 0.06333,-0.592438 c 0.358143,0.03826 0.716091,0.07851 1.073825,0.120749 l -0.447224,3.784624 c -0.05879,0.497491 -0.143224,0.865158 -0.251933,1.101805 -0.10881,0.236866 -0.243084,0.417253 -0.402675,0.541339 -0.159654,0.124134 -0.363925,0.212633 -0.613009,0.266457 -0.246639,0.05412 -0.552141,0.06255 -0.918158,0.02715 -0.690962,-0.06682 -1.170668,-0.230471 -1.441614,-0.500972 -0.271015,-0.2677 -0.394299,-0.589547 -0.365753,-0.967038 0.0028,-0.03721 0.0075,-0.08231 0.01416,-0.135268 -10e-7,0 -3e-6,0 -5e-6,0 z m 1.194245,-2.402517 c -0.03871,0.448698 0.01953,0.785725 0.172524,1.010571 0.15603,0.222654 0.359641,0.345608 0.612345,0.369849 0.27113,0.02601 0.510443,-0.05698 0.719806,-0.249763 0.209451,-0.195259 0.337637,-0.502134 0.382165,-0.920867 0.04653,-0.437517 -0.0098,-0.771727 -0.171158,-1.003008 -0.161241,-0.231057 -0.383335,-0.360743 -0.664705,-0.387778 -0.273254,-0.02625 -0.509081,0.05802 -0.705785,0.251924 -0.193952,0.191665 -0.308295,0.501364 -0.345192,0.929072 z"
           id="path441"
           style="fill:#feff9d;fill-opacity:1" />
        <path
           d="m 57.637827,20.610063 c 0.378395,-0.0096 0.757193,-0.01687 1.136372,-0.02183 0.01718,0.223132 0.08989,0.401587 0.217631,0.535605 0.128191,0.131453 0.321174,0.215836 0.579607,0.254482 0.284556,0.04255 0.506444,0.02309 0.666628,-0.05977 0.108187,-0.0586 0.172266,-0.149673 0.191854,-0.273467 0.01334,-0.08428 -0.0018,-0.15824 -0.04566,-0.221828 -0.04683,-0.06131 -0.162793,-0.129594 -0.348042,-0.203836 -0.866802,-0.33568 -1.409621,-0.590181 -1.631016,-0.788151 -0.303699,-0.272019 -0.431788,-0.609421 -0.379596,-1.014037 0.04706,-0.364832 0.233029,-0.652979 0.561538,-0.862049 0.328084,-0.208799 0.805349,-0.270723 1.426788,-0.1786 0.591517,0.08769 1.016039,0.251568 1.271855,0.484941 0.255938,0.233484 0.40584,0.54261 0.450993,0.926213 -0.365167,0.0046 -0.729911,0.01127 -1.094215,0.02009 -0.01973,-0.17047 -0.08717,-0.309268 -0.202615,-0.416153 -0.112736,-0.106448 -0.287684,-0.17777 -0.524448,-0.212935 -0.29861,-0.04435 -0.51878,-0.03388 -0.659371,0.02963 -0.0943,0.0459 -0.147814,0.115154 -0.160779,0.20756 -0.01112,0.07922 0.017,0.151791 0.08411,0.217829 0.09223,0.08924 0.426222,0.240938 1.003612,0.467079 0.578621,0.225988 0.968796,0.460036 1.171378,0.693557 0.199837,0.236102 0.268468,0.530772 0.208343,0.883042 -0.06552,0.383901 -0.281419,0.686188 -0.643301,0.909997 -0.362298,0.224065 -0.849708,0.286404 -1.468049,0.193895 -0.561475,-0.084 -0.990303,-0.261561 -1.289775,-0.538714 -0.296719,-0.276663 -0.472027,-0.620126 -0.523848,-1.03255 10e-7,0 10e-7,0 2e-6,1e-6 z"
           id="path443"
           style="fill:#feff9d;fill-opacity:1" />
      </g>
    </g>
  </g>
</svg>
