<?xml version="1.0" encoding="UTF-8" standalone="no"?>
<!-- Created with Inkscape (http://www.inkscape.org/) -->

<svg
   width="210mm"
   height="297mm"
   viewBox="0 0 210 297"
   version="1.1"
   id="svg5"
   inkscape:version="1.2 (dc2aedaf03, 2022-05-15)"
   sodipodi:docname="dialog-13-title(pause).svg"
   xml:space="preserve"
   xmlns:inkscape="http://www.inkscape.org/namespaces/inkscape"
   xmlns:sodipodi="http://sodipodi.sourceforge.net/DTD/sodipodi-0.dtd"
   xmlns="http://www.w3.org/2000/svg"
   xmlns:svg="http://www.w3.org/2000/svg"><sodipodi:namedview
     id="namedview7"
     pagecolor="#ffffff"
     bordercolor="#666666"
     borderopacity="1.0"
     inkscape:showpageshadow="2"
     inkscape:pageopacity="0.0"
     inkscape:pagecheckerboard="0"
     inkscape:deskcolor="#d1d1d1"
     inkscape:document-units="mm"
     showgrid="false"
     inkscape:zoom="1.6819304"
     inkscape:cx="140.61224"
     inkscape:cy="163.79988"
     inkscape:window-width="1933"
     inkscape:window-height="1192"
     inkscape:window-x="2196"
     inkscape:window-y="179"
     inkscape:window-maximized="0"
     inkscape:current-layer="layer1" /><defs
     id="defs2"><inkscape:path-effect
       effect="bend_path"
       id="path-effect6093"
       is_visible="true"
       lpeversion="1"
       bendpath="m 17.363366,31.012065 c 8.296535,-0.974565 16.374059,-1.315177 24.228522,0"
       prop_scale="1"
       scale_y_rel="false"
       vertical="false"
       hide_knot="false"
       bendpath-nodetypes="cc" /><inkscape:path-effect
       effect="bend_path"
       id="path-effect3942"
       is_visible="true"
       lpeversion="1"
       bendpath="m 17.363366,31.012065 c 8.296535,-0.974565 16.374059,-1.315177 24.228522,0"
       prop_scale="1"
       scale_y_rel="false"
       vertical="false"
       hide_knot="false"
       bendpath-nodetypes="cc" /><inkscape:path-effect
       effect="bend_path"
       id="path-effect446"
       is_visible="true"
       lpeversion="1"
       bendpath="m 29.241944,20.313617 c 12.463598,-2.093535 22.84941,-1.666955 32.55317,0"
       prop_scale="1"
       scale_y_rel="false"
       vertical="false"
       hide_knot="false"
       bendpath-nodetypes="cc" /><filter
       inkscape:collect="always"
       style="color-interpolation-filters:sRGB"
       id="filter11206"
       x="-0.019905656"
       y="-0.10555741"
       width="1.0398113"
       height="1.2111148"><feGaussianBlur
         inkscape:collect="always"
         stdDeviation="0.47068339"
         id="feGaussianBlur11208" /></filter><inkscape:path-effect
       effect="bend_path"
       id="path-effect446-8"
       is_visible="true"
       lpeversion="1"
       bendpath="m 29.241944,20.313617 c 12.463598,-2.093535 22.84941,-1.666955 32.55317,0"
       prop_scale="1"
       scale_y_rel="false"
       vertical="false"
       hide_knot="false"
       bendpath-nodetypes="cc" /><filter
       inkscape:collect="always"
       style="color-interpolation-filters:sRGB"
       id="filter7061"
       x="-0.026058164"
       y="-0.1033908"
       width="1.0521163"
       height="1.2067816"><feGaussianBlur
         inkscape:collect="always"
         stdDeviation="0.26584064"
         id="feGaussianBlur7063" /></filter></defs><g
     inkscape:label="Layer 1"
     inkscape:groupmode="layer"
     id="layer1"><g
       id="g7089"
       transform="translate(-5.8204449,-4.5619703)"><rect
         style="opacity:0.646489;fill:#090909;fill-opacity:1;stroke-width:0.17937;stroke-linecap:round;stroke-linejoin:round;paint-order:markers stroke fill;filter:url(#filter11206)"
         id="rect10470"
         width="56.749706"
         height="10.701666"
         x="17.143677"
         y="15.835053"
         ry="4.0206466" /><rect
         style="fill:#ffc3a1;fill-opacity:1;stroke-width:0.17937;stroke-linecap:round;stroke-linejoin:round;paint-order:markers stroke fill"
         id="rect5377"
         width="56.749706"
         height="10.701666"
         x="17.143677"
         y="13.45633"
         ry="4.0206466" /><rect
         style="fill:#d74e04;fill-opacity:1;stroke-width:0.17937;stroke-linecap:round;stroke-linejoin:round;paint-order:markers stroke fill"
         id="rect5379"
         width="56.749706"
         height="10.701666"
         x="17.143677"
         y="14.73389"
         ry="4.0206466" /><rect
         style="fill:#ff8d4f;fill-opacity:1;stroke-width:0.17937;stroke-linecap:round;stroke-linejoin:round;paint-order:markers stroke fill"
         id="rect184"
         width="56.749706"
         height="10.701666"
         x="17.143677"
         y="14.039493"
         ry="4.0206466" /><g
         id="g12525"
         transform="matrix(1,0,0,0.91660662,-16.62131,-11.752292)"><circle
           style="opacity:1;fill:#ffd6bf;fill-opacity:1;stroke-width:0.360979;stroke-linecap:round;stroke-linejoin:round;paint-order:markers stroke fill"
           id="circle12520"
           cx="38.313038"
           cy="34.126549"
           r="1.5" /><circle
           style="opacity:1;fill:#a14b12;fill-opacity:1;stroke-width:0.360979;stroke-linecap:round;stroke-linejoin:round;paint-order:markers stroke fill"
           id="circle12518"
           cx="38.313038"
           cy="33.825432"
           r="1.5" /><circle
           style="opacity:1;fill:#ffb687;fill-opacity:1;stroke-width:0.360979;stroke-linecap:round;stroke-linejoin:round;paint-order:markers stroke fill"
           id="path11268"
           cx="38.313038"
           cy="33.97599"
           r="1.5" /></g><g
         id="g12547"
         transform="matrix(1,0,0,0.91660662,31.200724,-11.752292)"><circle
           style="opacity:1;fill:#ffd6bf;fill-opacity:1;stroke-width:0.360979;stroke-linecap:round;stroke-linejoin:round;paint-order:markers stroke fill"
           id="circle12541"
           cx="38.313038"
           cy="34.126549"
           r="1.5" /><circle
           style="opacity:1;fill:#a14b12;fill-opacity:1;stroke-width:0.360979;stroke-linecap:round;stroke-linejoin:round;paint-order:markers stroke fill"
           id="circle12543"
           cx="38.313038"
           cy="33.825432"
           r="1.5" /><circle
           style="opacity:1;fill:#ffb687;fill-opacity:1;stroke-width:0.360979;stroke-linecap:round;stroke-linejoin:round;paint-order:markers stroke fill"
           id="circle12545"
           cx="38.313038"
           cy="33.97599"
           r="1.5" /></g><g
         aria-label="Pause"
         id="g6089"
         style="font-weight:bold;font-size:8.25892px;line-height:1.25;font-family:Arial;-inkscape-font-specification:'Arial Bold';letter-spacing:0.206473px;fill:#131313;fill-opacity:1;stroke-width:0.206473;filter:url(#filter7061)"
         inkscape:path-effect="#path-effect6093"
         class="UnoptimicedTransforms"
         transform="translate(16.197961,-11.258609)"><path
           d="m 17.604557,33.911087 -0.693022,-5.870686 c 0.646911,-0.07786 1.295613,-0.152037 1.945942,-0.221949 0.738418,-0.07938 1.227156,-0.09667 1.4569,-0.05971 0.35461,0.05493 0.662446,0.221223 0.922045,0.498013 0.259503,0.274261 0.408397,0.646448 0.449279,1.116121 0.03153,0.362188 -0.0085,0.672638 -0.118762,0.931091 -0.110308,0.258526 -0.260886,0.468123 -0.451736,0.629084 -0.188443,0.158057 -0.384571,0.26993 -0.589021,0.335731 -0.27871,0.08389 -0.685923,0.152408 -1.223649,0.209089 -0.258015,0.0272 -0.515947,0.05505 -0.773784,0.08352 l 0.245781,2.218123 c -0.389965,0.04253 -0.779969,0.08644 -1.169973,0.131573 z m 0.628632,-5.017066 0.184891,1.668606 c 0.217772,-0.02417 0.435646,-0.0479 0.653616,-0.07116 0.471184,-0.05028 0.782687,-0.112532 0.935864,-0.190233 0.152885,-0.07755 0.267532,-0.186209 0.343931,-0.326241 0.07909,-0.140277 0.11046,-0.297512 0.09366,-0.471735 -0.02068,-0.214442 -0.101497,-0.385179 -0.243071,-0.511988 -0.141541,-0.12678 -0.312365,-0.197733 -0.512017,-0.212563 -0.146567,-0.01203 -0.43913,0.0042 -0.873842,0.05117 -0.194468,0.02101 -0.388814,0.0424 -0.583034,0.06415 z"
           id="path6079"
           inkscape:original-d="m 17.363366,33.919624 v -5.911902 h 1.915521 q 1.088822,0 1.419501,0.08872 0.508118,0.133078 0.850895,0.580705 0.342777,0.443594 0.342777,1.149313 0,0.544411 -0.197601,0.915417 -0.197601,0.371006 -0.504084,0.584738 -0.302451,0.209699 -0.617,0.278255 -0.427463,0.08469 -1.238031,0.08469 h -0.778306 v 2.230069 z m 1.193672,-4.911799 v 1.677593 h 0.653293 q 0.705718,0 0.943646,-0.09275 0.237928,-0.09275 0.371006,-0.290353 0.137111,-0.197601 0.137111,-0.459725 0,-0.322614 -0.189535,-0.532313 -0.189536,-0.209699 -0.479889,-0.262124 -0.213732,-0.04033 -0.85896,-0.04033 z"
           style="fill:#131313;fill-opacity:1" /><path
           d="m 23.813557,30.327947 c -0.348278,-0.0377 -0.69702,-0.07381 -1.046153,-0.108402 0.08347,-0.422724 0.260413,-0.74454 0.531711,-0.964499 0.271189,-0.219872 0.690506,-0.349961 1.256355,-0.385215 0.513821,-0.03201 0.900795,0.0082 1.158187,0.116127 0.257497,0.105388 0.440701,0.24912 0.550008,0.429973 0.112049,0.178274 0.178547,0.513099 0.200743,1.005412 0.01584,0.441212 0.03174,0.882424 0.04769,1.323635 0.01702,0.376355 0.04686,0.65416 0.08912,0.832648 0.04483,0.175856 0.120321,0.363668 0.225918,0.56387 -0.363941,0.01585 -0.728162,0.03378 -1.092629,0.05365 -0.03291,-0.07375 -0.07434,-0.183314 -0.124551,-0.32889 -0.0221,-0.06618 -0.03773,-0.109841 -0.04682,-0.130889 -0.179298,0.198786 -0.373373,0.351762 -0.582902,0.459117 -0.209544,0.107361 -0.435884,0.169195 -0.67991,0.185784 -0.430266,0.02925 -0.778728,-0.06479 -1.047445,-0.284664 -0.265922,-0.219943 -0.41478,-0.511915 -0.44396,-0.877103 -0.01931,-0.241666 0.02064,-0.461031 0.12072,-0.658049 0.09985,-0.199666 0.249253,-0.357145 0.448259,-0.471894 0.201267,-0.117506 0.495823,-0.228239 0.882959,-0.329486 0.523461,-0.134761 0.884203,-0.24789 1.084875,-0.345749 l -0.0063,-0.112919 c -0.01221,-0.217792 -0.07488,-0.369339 -0.188571,-0.454552 -0.113795,-0.08786 -0.32148,-0.123088 -0.6225,-0.104061 -0.203397,0.01286 -0.359412,0.06375 -0.467679,0.152036 -0.108489,0.08563 -0.190897,0.230366 -0.247109,0.434121 3e-6,0 6e-6,0 9e-6,-10e-7 z m 1.573565,0.82338 c -0.142173,0.05668 -0.366729,0.127292 -0.675506,0.214217 -0.308194,0.08676 -0.508239,0.166781 -0.599678,0.237699 -0.139564,0.114848 -0.20334,0.253056 -0.192029,0.414253 0.01112,0.158535 0.07919,0.291413 0.203592,0.398927 0.124426,0.107534 0.276233,0.155281 0.455915,0.143627 0.200835,-0.01303 0.388067,-0.09209 0.562747,-0.237373 0.128945,-0.110184 0.210637,-0.240249 0.244776,-0.390534 0.02373,-0.09838 0.02807,-0.283496 0.01285,-0.554978 -0.0042,-0.07528 -0.0084,-0.150558 -0.01266,-0.225838 z"
           id="path6081"
           inkscape:original-d="m 23.91727,30.94351 -1.028332,-0.185503 q 0.173405,-0.621032 0.596836,-0.91945 0.423431,-0.298418 1.258195,-0.298418 0.758143,0 1.129149,0.18147 0.371006,0.177438 0.520215,0.455692 0.153242,0.274222 0.153242,1.012202 l -0.0121,1.322718 q 0,0.564574 0.05242,0.834763 0.05646,0.266157 0.205667,0.57264 h -1.121084 q -0.04436,-0.112915 -0.108882,-0.334712 -0.02823,-0.100817 -0.04033,-0.133078 -0.290353,0.282287 -0.621032,0.423431 -0.330679,0.141144 -0.705718,0.141144 -0.661359,0 -1.044463,-0.358909 -0.379072,-0.358908 -0.379072,-0.907352 0,-0.36294 0.173405,-0.645228 0.173405,-0.28632 0.483921,-0.435529 0.314549,-0.153241 0.90332,-0.266156 0.794437,-0.149209 1.10092,-0.278255 v -0.112915 q 0,-0.326647 -0.161307,-0.463758 -0.161307,-0.141143 -0.608934,-0.141143 -0.302451,0 -0.471823,0.12098 -0.169372,0.116948 -0.274222,0.415366 z m 1.516286,0.91945 q -0.217764,0.07259 -0.689587,0.173405 -0.471823,0.100817 -0.617,0.197601 -0.221797,0.157274 -0.221797,0.399235 0,0.237928 0.177438,0.411333 0.177438,0.173405 0.451659,0.173405 0.306484,0 0.584738,-0.201634 0.205667,-0.153242 0.27019,-0.375039 0.04436,-0.145176 0.04436,-0.552476 z"
           style="fill:#131313;fill-opacity:1" /><path
           d="m 30.610316,33.056069 7.13e-4,-0.640977 c -0.152347,0.228409 -0.351888,0.40894 -0.598733,0.542502 -0.244296,0.133576 -0.502311,0.202531 -0.775853,0.207177 -0.27875,0.0047 -0.53012,-0.05284 -0.755451,-0.173559 -0.225269,-0.120688 -0.391595,-0.293312 -0.498438,-0.518844 -0.106764,-0.225366 -0.167197,-0.539996 -0.179903,-0.94327 l -0.08542,-2.710896 c 0.384737,-0.01192 0.769611,-0.02149 1.154588,-0.02859 l 0.03738,1.968358 c 0.01143,0.602071 0.03849,0.971955 0.0806,1.108064 0.0448,0.133644 0.121952,0.239776 0.231275,0.318653 0.10929,0.0762 0.246584,0.11309 0.412292,0.111142 0.189374,-0.0022 0.358435,-0.05601 0.508056,-0.161678 0.149606,-0.108356 0.252287,-0.240248 0.307695,-0.396225 0.05529,-0.158327 0.08339,-0.544669 0.08347,-1.157116 l 2.37e-4,-1.806088 c 0.385202,2.73e-4 0.770457,0.0032 1.155731,0.0089 l -0.06085,4.278922 c -0.338765,-0.0044 -0.677907,-0.0065 -1.017395,-0.0065 z"
           id="path6083"
           inkscape:original-d="m 30.688939,33.919624 v -0.641195 q -0.233895,0.342777 -0.617,0.540378 -0.379071,0.197602 -0.802502,0.197602 -0.431496,0 -0.774274,-0.189536 -0.342777,-0.189536 -0.496019,-0.532313 -0.153242,-0.342778 -0.153242,-0.947679 v -2.709958 h 1.133182 v 1.967946 q 0,0.903319 0.06049,1.108985 0.06452,0.201634 0.229863,0.322614 0.16534,0.116948 0.419398,0.116948 0.290353,0 0.520215,-0.157274 0.229863,-0.161307 0.314549,-0.395203 0.08469,-0.237927 0.08469,-1.157378 v -1.806638 h 1.133182 v 4.282701 z"
           style="fill:#131313;fill-opacity:1" /><path
           d="m 32.606567,31.860811 c 0.372904,-0.04794 0.746338,-0.09304 1.120322,-0.135149 0.03812,0.221882 0.126717,0.393548 0.265132,0.515383 0.138643,0.119243 0.336452,0.185047 0.594346,0.199148 0.283942,0.01553 0.500376,-0.02463 0.650807,-0.122541 0.101339,-0.06876 0.156445,-0.165871 0.164873,-0.291698 0.0057,-0.08567 -0.01571,-0.158379 -0.06456,-0.218049 -0.05159,-0.05709 -0.172093,-0.114854 -0.361644,-0.171911 -0.887199,-0.255602 -1.446977,-0.45527 -1.686326,-0.632461 -0.326962,-0.242475 -0.487404,-0.567647 -0.475478,-0.978409 0.01075,-0.370312 0.167051,-0.677758 0.473799,-0.91959 0.306219,-0.241413 0.776417,-0.350122 1.405085,-0.31603 0.598391,0.03245 1.037191,0.158658 1.312941,0.369819 0.275945,0.21131 0.45183,0.5081 0.529279,0.888662 -0.362691,0.03625 -0.72453,0.07549 -1.085544,0.117585 -0.03484,-0.169022 -0.114322,-0.301951 -0.238841,-0.398433 -0.121778,-0.09628 -0.30241,-0.151585 -0.54123,-0.164558 -0.301192,-0.01636 -0.519297,0.01528 -0.653018,0.09244 -0.08941,0.05507 -0.135968,0.129661 -0.140035,0.223511 -0.0035,0.08046 0.03137,0.150453 0.104269,0.210145 0.100465,0.08085 0.445613,0.199814 1.039262,0.372846 0.594293,0.1726 1.001197,0.372685 1.221422,0.588746 0.217812,0.218971 0.309932,0.508388 0.279803,0.866634 -0.03283,0.3904 -0.220511,0.71207 -0.556606,0.968708 -0.336622,0.257039 -0.808386,0.363995 -1.423299,0.330499 -0.558531,-0.03043 -0.996576,-0.165793 -1.317771,-0.413411 -0.318441,-0.247405 -0.525189,-0.573824 -0.616986,-0.981888 -1e-6,0 -3e-6,0 -4e-6,0 z"
           id="path6085"
           inkscape:original-d="m 32.722214,32.697724 1.137214,-0.173405 q 0.07259,0.330679 0.294386,0.504084 0.221797,0.169372 0.621032,0.169372 0.439561,0 0.661359,-0.161307 0.149209,-0.112915 0.149209,-0.30245 0,-0.129046 -0.08065,-0.213732 -0.08469,-0.08065 -0.379071,-0.149209 -1.37111,-0.302451 -1.738084,-0.552477 -0.508117,-0.34681 -0.508117,-0.963809 0,-0.556509 0.439562,-0.935581 0.439562,-0.379071 1.363044,-0.379071 0.879124,0 1.306587,0.28632 0.427464,0.28632 0.588771,0.846861 l -1.068659,0.197602 q -0.06856,-0.250026 -0.262124,-0.383105 -0.189536,-0.133078 -0.544411,-0.133078 -0.447627,0 -0.641196,0.125013 -0.129045,0.08872 -0.129045,0.229863 0,0.12098 0.112915,0.205666 0.153241,0.112915 1.056561,0.318581 0.907352,0.205667 1.26626,0.504085 0.354875,0.30245 0.354875,0.842829 0,0.588771 -0.491986,1.012202 -0.491987,0.423431 -1.455796,0.423431 -0.875091,0 -1.387241,-0.354876 -0.508117,-0.354875 -0.665391,-0.963809 z"
           style="fill:#131313;fill-opacity:1" /><path
           d="m 40.092466,32.339855 c 0.354501,0.115342 0.707241,0.234133 1.058127,0.356474 -0.206448,0.385237 -0.475046,0.661258 -0.804777,0.830381 -0.327186,0.167065 -0.709599,0.218948 -1.153352,0.159789 -0.701789,-0.09356 -1.195309,-0.391098 -1.488456,-0.910641 -0.230345,-0.41489 -0.321202,-0.917306 -0.263599,-1.507231 0.06886,-0.705203 0.305912,-1.238656 0.723535,-1.596966 0.417049,-0.36024 0.919725,-0.50634 1.497547,-0.431692 0.649176,0.08387 1.131428,0.36882 1.436541,0.842994 0.30661,0.473189 0.373022,1.135647 0.215345,1.990522 -0.918515,-0.153078 -1.840424,-0.28266 -2.765187,-0.390645 -0.0309,0.334045 0.02788,0.60443 0.173608,0.811255 0.146198,0.204366 0.343122,0.322322 0.59273,0.355539 0.169868,0.0226 0.318998,-0.0055 0.448361,-0.08493 0.129289,-0.07936 0.239157,-0.220919 0.329577,-0.424851 z m 0.22711,-1.123133 c 0.03926,-0.325512 -0.0087,-0.583432 -0.146217,-0.773835 -0.137004,-0.192859 -0.322478,-0.30509 -0.554557,-0.33543 -0.248275,-0.03246 -0.464876,0.03145 -0.647692,0.190499 -0.182983,0.159195 -0.289778,0.392572 -0.322918,0.699473 0.55802,0.06522 1.115186,0.138188 1.671384,0.219293 z"
           id="path6087"
           inkscape:original-d="m 40.401234,32.55658 1.129149,0.189536 q -0.217765,0.621032 -0.689588,0.947678 -0.46779,0.322615 -1.173508,0.322615 -1.117051,0 -1.653397,-0.729915 -0.423431,-0.584738 -0.423431,-1.475959 0,-1.064626 0.556509,-1.665495 0.556509,-0.604901 1.407404,-0.604901 0.955744,0 1.50822,0.63313 0.552477,0.629097 0.528281,1.931651 h -2.839004 q 0.0121,0.504085 0.274222,0.786372 0.262124,0.278255 0.653294,0.278255 0.266156,0 0.447627,-0.145177 0.18147,-0.145176 0.274222,-0.46779 z m 0.06452,-1.14528 q -0.0121,-0.491986 -0.254058,-0.746045 -0.241961,-0.258091 -0.588771,-0.258091 -0.371006,0 -0.612966,0.270189 Q 38.768,30.947542 38.772033,31.4113 Z"
           style="fill:#131313;fill-opacity:1" /></g><g
         aria-label="Pause"
         id="text1607"
         style="font-weight:bold;font-size:8.25892px;line-height:1.25;font-family:Arial;-inkscape-font-specification:'Arial Bold';letter-spacing:0.206473px;fill:#feff9d;fill-opacity:1;stroke-width:0.206473"
         inkscape:path-effect="#path-effect3942"
         class="UnoptimicedTransforms"
         transform="translate(16.364813,-11.651883)"><path
           d="m 17.604557,33.911087 -0.693022,-5.870686 c 0.646911,-0.07786 1.295613,-0.152037 1.945942,-0.221949 0.738418,-0.07938 1.227156,-0.09667 1.4569,-0.05971 0.35461,0.05493 0.662446,0.221223 0.922045,0.498013 0.259503,0.274261 0.408397,0.646448 0.449279,1.116121 0.03153,0.362188 -0.0085,0.672638 -0.118762,0.931091 -0.110308,0.258526 -0.260886,0.468123 -0.451736,0.629084 -0.188443,0.158057 -0.384571,0.26993 -0.589021,0.335731 -0.27871,0.08389 -0.685923,0.152408 -1.223649,0.209089 -0.258015,0.0272 -0.515947,0.05505 -0.773784,0.08352 l 0.245781,2.218123 c -0.389965,0.04253 -0.779969,0.08644 -1.169973,0.131573 z m 0.628632,-5.017066 0.184891,1.668606 c 0.217772,-0.02417 0.435646,-0.0479 0.653616,-0.07116 0.471184,-0.05028 0.782687,-0.112532 0.935864,-0.190233 0.152885,-0.07755 0.267532,-0.186209 0.343931,-0.326241 0.07909,-0.140277 0.11046,-0.297512 0.09366,-0.471735 -0.02068,-0.214442 -0.101497,-0.385179 -0.243071,-0.511988 -0.141541,-0.12678 -0.312365,-0.197733 -0.512017,-0.212563 -0.146567,-0.01203 -0.43913,0.0042 -0.873842,0.05117 -0.194468,0.02101 -0.388814,0.0424 -0.583034,0.06415 z"
           id="path3931"
           inkscape:original-d="m 17.363366,33.919624 v -5.911902 h 1.915521 q 1.088822,0 1.419501,0.08872 0.508118,0.133078 0.850895,0.580705 0.342777,0.443594 0.342777,1.149313 0,0.544411 -0.197601,0.915417 -0.197601,0.371006 -0.504084,0.584738 -0.302451,0.209699 -0.617,0.278255 -0.427463,0.08469 -1.238031,0.08469 h -0.778306 v 2.230069 z m 1.193672,-4.911799 v 1.677593 h 0.653293 q 0.705718,0 0.943646,-0.09275 0.237928,-0.09275 0.371006,-0.290353 0.137111,-0.197601 0.137111,-0.459725 0,-0.322614 -0.189535,-0.532313 -0.189536,-0.209699 -0.479889,-0.262124 -0.213732,-0.04033 -0.85896,-0.04033 z"
           style="fill:#feff9d;fill-opacity:1" /><path
           d="m 23.813557,30.327947 c -0.348278,-0.0377 -0.69702,-0.07381 -1.046153,-0.108402 0.08347,-0.422724 0.260413,-0.74454 0.531711,-0.964499 0.271189,-0.219872 0.690506,-0.349961 1.256355,-0.385215 0.513821,-0.03201 0.900795,0.0082 1.158187,0.116127 0.257497,0.105388 0.440701,0.24912 0.550008,0.429973 0.112049,0.178274 0.178547,0.513099 0.200743,1.005412 0.01584,0.441212 0.03174,0.882424 0.04769,1.323635 0.01702,0.376355 0.04686,0.65416 0.08912,0.832648 0.04483,0.175856 0.120321,0.363668 0.225918,0.56387 -0.363941,0.01585 -0.728162,0.03378 -1.092629,0.05365 -0.03291,-0.07375 -0.07434,-0.183314 -0.124551,-0.32889 -0.0221,-0.06618 -0.03773,-0.109841 -0.04682,-0.130889 -0.179298,0.198786 -0.373373,0.351762 -0.582902,0.459117 -0.209544,0.107361 -0.435884,0.169195 -0.67991,0.185784 -0.430266,0.02925 -0.778728,-0.06479 -1.047445,-0.284664 -0.265922,-0.219943 -0.41478,-0.511915 -0.44396,-0.877103 -0.01931,-0.241666 0.02064,-0.461031 0.12072,-0.658049 0.09985,-0.199666 0.249253,-0.357145 0.448259,-0.471894 0.201267,-0.117506 0.495823,-0.228239 0.882959,-0.329486 0.523461,-0.134761 0.884203,-0.24789 1.084875,-0.345749 l -0.0063,-0.112919 c -0.01221,-0.217792 -0.07488,-0.369339 -0.188571,-0.454552 -0.113795,-0.08786 -0.32148,-0.123088 -0.6225,-0.104061 -0.203397,0.01286 -0.359412,0.06375 -0.467679,0.152036 -0.108489,0.08563 -0.190897,0.230366 -0.247109,0.434121 3e-6,0 6e-6,0 9e-6,-10e-7 z m 1.573565,0.82338 c -0.142173,0.05668 -0.366729,0.127292 -0.675506,0.214217 -0.308194,0.08676 -0.508239,0.166781 -0.599678,0.237699 -0.139564,0.114848 -0.20334,0.253056 -0.192029,0.414253 0.01112,0.158535 0.07919,0.291413 0.203592,0.398927 0.124426,0.107534 0.276233,0.155281 0.455915,0.143627 0.200835,-0.01303 0.388067,-0.09209 0.562747,-0.237373 0.128945,-0.110184 0.210637,-0.240249 0.244776,-0.390534 0.02373,-0.09838 0.02807,-0.283496 0.01285,-0.554978 -0.0042,-0.07528 -0.0084,-0.150558 -0.01266,-0.225838 z"
           id="path3933"
           inkscape:original-d="m 23.91727,30.94351 -1.028332,-0.185503 q 0.173405,-0.621032 0.596836,-0.91945 0.423431,-0.298418 1.258195,-0.298418 0.758143,0 1.129149,0.18147 0.371006,0.177438 0.520215,0.455692 0.153242,0.274222 0.153242,1.012202 l -0.0121,1.322718 q 0,0.564574 0.05242,0.834763 0.05646,0.266157 0.205667,0.57264 h -1.121084 q -0.04436,-0.112915 -0.108882,-0.334712 -0.02823,-0.100817 -0.04033,-0.133078 -0.290353,0.282287 -0.621032,0.423431 -0.330679,0.141144 -0.705718,0.141144 -0.661359,0 -1.044463,-0.358909 -0.379072,-0.358908 -0.379072,-0.907352 0,-0.36294 0.173405,-0.645228 0.173405,-0.28632 0.483921,-0.435529 0.314549,-0.153241 0.90332,-0.266156 0.794437,-0.149209 1.10092,-0.278255 v -0.112915 q 0,-0.326647 -0.161307,-0.463758 -0.161307,-0.141143 -0.608934,-0.141143 -0.302451,0 -0.471823,0.12098 -0.169372,0.116948 -0.274222,0.415366 z m 1.516286,0.91945 q -0.217764,0.07259 -0.689587,0.173405 -0.471823,0.100817 -0.617,0.197601 -0.221797,0.157274 -0.221797,0.399235 0,0.237928 0.177438,0.411333 0.177438,0.173405 0.451659,0.173405 0.306484,0 0.584738,-0.201634 0.205667,-0.153242 0.27019,-0.375039 0.04436,-0.145176 0.04436,-0.552476 z"
           style="fill:#feff9d;fill-opacity:1" /><path
           d="m 30.610316,33.056069 7.13e-4,-0.640977 c -0.152347,0.228409 -0.351888,0.40894 -0.598733,0.542502 -0.244296,0.133576 -0.502311,0.202531 -0.775853,0.207177 -0.27875,0.0047 -0.53012,-0.05284 -0.755451,-0.173559 -0.225269,-0.120688 -0.391595,-0.293312 -0.498438,-0.518844 -0.106764,-0.225366 -0.167197,-0.539996 -0.179903,-0.94327 l -0.08542,-2.710896 c 0.384737,-0.01192 0.769611,-0.02149 1.154588,-0.02859 l 0.03738,1.968358 c 0.01143,0.602071 0.03849,0.971955 0.0806,1.108064 0.0448,0.133644 0.121952,0.239776 0.231275,0.318653 0.10929,0.0762 0.246584,0.11309 0.412292,0.111142 0.189374,-0.0022 0.358435,-0.05601 0.508056,-0.161678 0.149606,-0.108356 0.252287,-0.240248 0.307695,-0.396225 0.05529,-0.158327 0.08339,-0.544669 0.08347,-1.157116 l 2.37e-4,-1.806088 c 0.385202,2.73e-4 0.770457,0.0032 1.155731,0.0089 l -0.06085,4.278922 c -0.338765,-0.0044 -0.677907,-0.0065 -1.017395,-0.0065 z"
           id="path3935"
           inkscape:original-d="m 30.688939,33.919624 v -0.641195 q -0.233895,0.342777 -0.617,0.540378 -0.379071,0.197602 -0.802502,0.197602 -0.431496,0 -0.774274,-0.189536 -0.342777,-0.189536 -0.496019,-0.532313 -0.153242,-0.342778 -0.153242,-0.947679 v -2.709958 h 1.133182 v 1.967946 q 0,0.903319 0.06049,1.108985 0.06452,0.201634 0.229863,0.322614 0.16534,0.116948 0.419398,0.116948 0.290353,0 0.520215,-0.157274 0.229863,-0.161307 0.314549,-0.395203 0.08469,-0.237927 0.08469,-1.157378 v -1.806638 h 1.133182 v 4.282701 z"
           style="fill:#feff9d;fill-opacity:1" /><path
           d="m 32.606567,31.860811 c 0.372904,-0.04794 0.746338,-0.09304 1.120322,-0.135149 0.03812,0.221882 0.126717,0.393548 0.265132,0.515383 0.138643,0.119243 0.336452,0.185047 0.594346,0.199148 0.283942,0.01553 0.500376,-0.02463 0.650807,-0.122541 0.101339,-0.06876 0.156445,-0.165871 0.164873,-0.291698 0.0057,-0.08567 -0.01571,-0.158379 -0.06456,-0.218049 -0.05159,-0.05709 -0.172093,-0.114854 -0.361644,-0.171911 -0.887199,-0.255602 -1.446977,-0.45527 -1.686326,-0.632461 -0.326962,-0.242475 -0.487404,-0.567647 -0.475478,-0.978409 0.01075,-0.370312 0.167051,-0.677758 0.473799,-0.91959 0.306219,-0.241413 0.776417,-0.350122 1.405085,-0.31603 0.598391,0.03245 1.037191,0.158658 1.312941,0.369819 0.275945,0.21131 0.45183,0.5081 0.529279,0.888662 -0.362691,0.03625 -0.72453,0.07549 -1.085544,0.117585 -0.03484,-0.169022 -0.114322,-0.301951 -0.238841,-0.398433 -0.121778,-0.09628 -0.30241,-0.151585 -0.54123,-0.164558 -0.301192,-0.01636 -0.519297,0.01528 -0.653018,0.09244 -0.08941,0.05507 -0.135968,0.129661 -0.140035,0.223511 -0.0035,0.08046 0.03137,0.150453 0.104269,0.210145 0.100465,0.08085 0.445613,0.199814 1.039262,0.372846 0.594293,0.1726 1.001197,0.372685 1.221422,0.588746 0.217812,0.218971 0.309932,0.508388 0.279803,0.866634 -0.03283,0.3904 -0.220511,0.71207 -0.556606,0.968708 -0.336622,0.257039 -0.808386,0.363995 -1.423299,0.330499 -0.558531,-0.03043 -0.996576,-0.165793 -1.317771,-0.413411 -0.318441,-0.247405 -0.525189,-0.573824 -0.616986,-0.981888 -1e-6,0 -3e-6,0 -4e-6,0 z"
           id="path3937"
           inkscape:original-d="m 32.722214,32.697724 1.137214,-0.173405 q 0.07259,0.330679 0.294386,0.504084 0.221797,0.169372 0.621032,0.169372 0.439561,0 0.661359,-0.161307 0.149209,-0.112915 0.149209,-0.30245 0,-0.129046 -0.08065,-0.213732 -0.08469,-0.08065 -0.379071,-0.149209 -1.37111,-0.302451 -1.738084,-0.552477 -0.508117,-0.34681 -0.508117,-0.963809 0,-0.556509 0.439562,-0.935581 0.439562,-0.379071 1.363044,-0.379071 0.879124,0 1.306587,0.28632 0.427464,0.28632 0.588771,0.846861 l -1.068659,0.197602 q -0.06856,-0.250026 -0.262124,-0.383105 -0.189536,-0.133078 -0.544411,-0.133078 -0.447627,0 -0.641196,0.125013 -0.129045,0.08872 -0.129045,0.229863 0,0.12098 0.112915,0.205666 0.153241,0.112915 1.056561,0.318581 0.907352,0.205667 1.26626,0.504085 0.354875,0.30245 0.354875,0.842829 0,0.588771 -0.491986,1.012202 -0.491987,0.423431 -1.455796,0.423431 -0.875091,0 -1.387241,-0.354876 -0.508117,-0.354875 -0.665391,-0.963809 z"
           style="fill:#feff9d;fill-opacity:1" /><path
           d="m 40.092466,32.339855 c 0.354501,0.115342 0.707241,0.234133 1.058127,0.356474 -0.206448,0.385237 -0.475046,0.661258 -0.804777,0.830381 -0.327186,0.167065 -0.709599,0.218948 -1.153352,0.159789 -0.701789,-0.09356 -1.195309,-0.391098 -1.488456,-0.910641 -0.230345,-0.41489 -0.321202,-0.917306 -0.263599,-1.507231 0.06886,-0.705203 0.305912,-1.238656 0.723535,-1.596966 0.417049,-0.36024 0.919725,-0.50634 1.497547,-0.431692 0.649176,0.08387 1.131428,0.36882 1.436541,0.842994 0.30661,0.473189 0.373022,1.135647 0.215345,1.990522 -0.918515,-0.153078 -1.840424,-0.28266 -2.765187,-0.390645 -0.0309,0.334045 0.02788,0.60443 0.173608,0.811255 0.146198,0.204366 0.343122,0.322322 0.59273,0.355539 0.169868,0.0226 0.318998,-0.0055 0.448361,-0.08493 0.129289,-0.07936 0.239157,-0.220919 0.329577,-0.424851 z m 0.22711,-1.123133 c 0.03926,-0.325512 -0.0087,-0.583432 -0.146217,-0.773835 -0.137004,-0.192859 -0.322478,-0.30509 -0.554557,-0.33543 -0.248275,-0.03246 -0.464876,0.03145 -0.647692,0.190499 -0.182983,0.159195 -0.289778,0.392572 -0.322918,0.699473 0.55802,0.06522 1.115186,0.138188 1.671384,0.219293 z"
           id="path3939"
           inkscape:original-d="m 40.401234,32.55658 1.129149,0.189536 q -0.217765,0.621032 -0.689588,0.947678 -0.46779,0.322615 -1.173508,0.322615 -1.117051,0 -1.653397,-0.729915 -0.423431,-0.584738 -0.423431,-1.475959 0,-1.064626 0.556509,-1.665495 0.556509,-0.604901 1.407404,-0.604901 0.955744,0 1.50822,0.63313 0.552477,0.629097 0.528281,1.931651 h -2.839004 q 0.0121,0.504085 0.274222,0.786372 0.262124,0.278255 0.653294,0.278255 0.266156,0 0.447627,-0.145177 0.18147,-0.145176 0.274222,-0.46779 z m 0.06452,-1.14528 q -0.0121,-0.491986 -0.254058,-0.746045 -0.241961,-0.258091 -0.588771,-0.258091 -0.371006,0 -0.612966,0.270189 Q 38.768,30.947542 38.772033,31.4113 Z"
           style="fill:#feff9d;fill-opacity:1" /></g></g></g></svg>
