<?xml version="1.0" encoding="UTF-8" standalone="no"?>
<!-- Created with Inkscape (http://www.inkscape.org/) -->

<svg
   width="210mm"
   height="297mm"
   viewBox="0 0 210 297"
   version="1.1"
   id="svg5"
   inkscape:version="1.2 (dc2aedaf03, 2022-05-15)"
   sodipodi:docname="dialog-13-title(you lose).svg"
   xmlns:inkscape="http://www.inkscape.org/namespaces/inkscape"
   xmlns:sodipodi="http://sodipodi.sourceforge.net/DTD/sodipodi-0.dtd"
   xmlns="http://www.w3.org/2000/svg"
   xmlns:svg="http://www.w3.org/2000/svg">
  <sodipodi:namedview
     id="namedview7"
     pagecolor="#ffffff"
     bordercolor="#666666"
     borderopacity="1.0"
     inkscape:showpageshadow="2"
     inkscape:pageopacity="0.0"
     inkscape:pagecheckerboard="0"
     inkscape:deskcolor="#d1d1d1"
     inkscape:document-units="mm"
     showgrid="false"
     inkscape:zoom="2.3786088"
     inkscape:cx="136.21408"
     inkscape:cy="171.73904"
     inkscape:window-width="1870"
     inkscape:window-height="958"
     inkscape:window-x="2227"
     inkscape:window-y="115"
     inkscape:window-maximized="0"
     inkscape:current-layer="layer1" />
  <defs
     id="defs2">
    <inkscape:path-effect
       effect="bend_path"
       id="path-effect1181"
       is_visible="true"
       lpeversion="1"
       bendpath="m 26.884391,38.470418 c 13.839947,-3.508647 26.368328,-2.07258 38.763434,0"
       prop_scale="1"
       scale_y_rel="false"
       vertical="false"
       hide_knot="false"
       bendpath-nodetypes="cc" />
    <inkscape:path-effect
       effect="bend_path"
       id="path-effect1007"
       is_visible="true"
       lpeversion="1"
       bendpath="m 26.884391,38.470418 c 13.839947,-3.508647 26.368328,-2.07258 38.763434,0"
       prop_scale="1"
       scale_y_rel="false"
       vertical="false"
       hide_knot="false"
       bendpath-nodetypes="cc" />
    <inkscape:path-effect
       effect="bend_path"
       id="path-effect446"
       is_visible="true"
       lpeversion="1"
       bendpath="m 29.241944,20.313617 c 12.463598,-2.093535 22.84941,-1.666955 32.55317,0"
       prop_scale="1"
       scale_y_rel="false"
       vertical="false"
       hide_knot="false"
       bendpath-nodetypes="cc" />
    <filter
       inkscape:collect="always"
       style="color-interpolation-filters:sRGB"
       id="filter11206"
       x="-0.039155971"
       y="-0.20763962"
       width="1.0783119"
       height="1.4152792">
      <feGaussianBlur
         inkscape:collect="always"
         stdDeviation="0.92587077"
         id="feGaussianBlur11208" />
    </filter>
    <filter
       inkscape:collect="always"
       style="color-interpolation-filters:sRGB"
       id="filter1611"
       x="-0.0045903271"
       y="-0.024341978"
       width="1.0091807"
       height="1.048684">
      <feGaussianBlur
         inkscape:collect="always"
         stdDeviation="0.10854155"
         id="feGaussianBlur1613" />
    </filter>
    <filter
       inkscape:collect="always"
       style="color-interpolation-filters:sRGB"
       id="filter1615"
       x="-0.0045903271"
       y="-0.024341978"
       width="1.0091807"
       height="1.048684">
      <feGaussianBlur
         inkscape:collect="always"
         stdDeviation="0.10854155"
         id="feGaussianBlur1617" />
    </filter>
    <filter
       inkscape:collect="always"
       style="color-interpolation-filters:sRGB"
       id="filter1619"
       x="-0.0045903271"
       y="-0.024341978"
       width="1.0091807"
       height="1.048684">
      <feGaussianBlur
         inkscape:collect="always"
         stdDeviation="0.10854155"
         id="feGaussianBlur1621" />
    </filter>
    <filter
       inkscape:collect="always"
       style="color-interpolation-filters:sRGB"
       id="filter1684"
       x="-0.028711787"
       y="-0.14624665"
       width="1.0574236"
       height="1.2924933">
      <feGaussianBlur
         inkscape:collect="always"
         stdDeviation="0.47860782"
         id="feGaussianBlur1686" />
    </filter>
    <filter
       inkscape:collect="always"
       style="color-interpolation-filters:sRGB"
       id="filter1688"
       x="-0.0011484714"
       y="-0.0058498656"
       width="1.0022969"
       height="1.0116997">
      <feGaussianBlur
         inkscape:collect="always"
         stdDeviation="0.019144312"
         id="feGaussianBlur1690" />
    </filter>
  </defs>
  <g
     inkscape:label="Layer 1"
     inkscape:groupmode="layer"
     id="layer1">
    <g
       id="g1805"
       inkscape:export-filename=".\dialog-13-title(you lose).png"
       inkscape:export-xdpi="140.33"
       inkscape:export-ydpi="140.33">
      <rect
         style="opacity:0.646489;fill:#090909;fill-opacity:1;stroke-width:0.17937;stroke-linecap:round;stroke-linejoin:round;paint-order:markers stroke fill;filter:url(#filter11206)"
         id="rect10470"
         width="56.749706"
         height="10.701666"
         x="17.143677"
         y="14.039516"
         ry="4.0206466"
         transform="matrix(1.0056551,0,0,1.0986962,-0.25741319,-1.7190942)" />
      <rect
         style="fill:#ffc3a1;fill-opacity:1;stroke-width:0.17937;stroke-linecap:round;stroke-linejoin:round;paint-order:markers stroke fill;filter:url(#filter1611)"
         id="rect5377"
         width="56.749706"
         height="10.701666"
         x="17.143677"
         y="13.45633"
         ry="4.0206466" />
      <rect
         style="fill:#d74e04;fill-opacity:1;stroke-width:0.17937;stroke-linecap:round;stroke-linejoin:round;paint-order:markers stroke fill;filter:url(#filter1615)"
         id="rect5379"
         width="56.749706"
         height="10.701666"
         x="17.143677"
         y="14.73389"
         ry="4.0206466" />
      <rect
         style="fill:#ff8d4f;fill-opacity:1;stroke-width:0.17937;stroke-linecap:round;stroke-linejoin:round;paint-order:markers stroke fill;filter:url(#filter1619)"
         id="rect184"
         width="56.749706"
         height="10.701666"
         x="17.143677"
         y="14.039493"
         ry="4.0206466" />
      <g
         id="g12525"
         transform="matrix(1,0,0,0.91660662,-16.62131,-11.752292)">
        <circle
           style="opacity:1;fill:#ffd6bf;fill-opacity:1;stroke-width:0.360979;stroke-linecap:round;stroke-linejoin:round;paint-order:markers stroke fill"
           id="circle12520"
           cx="38.313038"
           cy="34.126549"
           r="1.5" />
        <circle
           style="opacity:1;fill:#a14b12;fill-opacity:1;stroke-width:0.360979;stroke-linecap:round;stroke-linejoin:round;paint-order:markers stroke fill"
           id="circle12518"
           cx="38.313038"
           cy="33.825432"
           r="1.5" />
        <circle
           style="opacity:1;fill:#ffb687;fill-opacity:1;stroke-width:0.360979;stroke-linecap:round;stroke-linejoin:round;paint-order:markers stroke fill"
           id="path11268"
           cx="38.313038"
           cy="33.97599"
           r="1.5" />
      </g>
      <g
         id="g12547"
         transform="matrix(1,0,0,0.91660662,31.200724,-11.752292)">
        <circle
           style="opacity:1;fill:#ffd6bf;fill-opacity:1;stroke-width:0.360979;stroke-linecap:round;stroke-linejoin:round;paint-order:markers stroke fill"
           id="circle12541"
           cx="38.313038"
           cy="34.126549"
           r="1.5" />
        <circle
           style="opacity:1;fill:#a14b12;fill-opacity:1;stroke-width:0.360979;stroke-linecap:round;stroke-linejoin:round;paint-order:markers stroke fill"
           id="circle12543"
           cx="38.313038"
           cy="33.825432"
           r="1.5" />
        <circle
           style="opacity:1;fill:#ffb687;fill-opacity:1;stroke-width:0.360979;stroke-linecap:round;stroke-linejoin:round;paint-order:markers stroke fill"
           id="circle12545"
           cx="38.313038"
           cy="33.97599"
           r="1.5" />
      </g>
      <g
         id="g1710"
         transform="translate(-0.31461864,-21.94465)">
        <g
           aria-label="You Lose!"
           id="text884"
           style="font-weight:bold;font-size:8.30761px;line-height:1.25;font-family:Arial;-inkscape-font-specification:'Arial Bold';stroke-width:0.207691;filter:url(#filter1684)"
           class="UnoptimicedTransforms"
           transform="translate(-0.31461863,4.326006)">
          <path
             d="M 29.538841,40.842294 29.009689,38.403005 C 28.05868,37.43816 27.06925,36.492223 26.038963,35.566691 c 0.482211,-0.120794 0.964988,-0.235856 1.448277,-0.345336 0.656166,0.653999 1.294808,1.316267 1.916619,1.986394 0.29664,-0.858962 0.611131,-1.71538 0.94271,-2.569141 0.476712,-0.08657 0.953818,-0.168036 1.431266,-0.244543 -0.572252,1.251063 -1.105693,2.509404 -1.597459,3.774643 l 0.479715,2.438401 c -0.374536,0.07464 -0.748297,0.153009 -1.12125,0.235185 z"
             id="path990" />
          <path
             d="m 32.08359,38.106252 c -0.06169,-0.371578 -0.0301,-0.746613 0.09949,-1.124606 0.129586,-0.377956 0.352429,-0.685574 0.669075,-0.92048 0.319204,-0.235186 0.694948,-0.382258 1.123221,-0.438701 0.661933,-0.08724 1.231163,0.06 1.696399,0.433966 0.465136,0.37145 0.724374,0.880354 0.788136,1.519958 0.0643,0.644957 -0.08976,1.199896 -0.449911,1.66901 -0.357966,0.466329 -0.835371,0.73493 -1.441276,0.81498 -0.375045,0.04955 -0.744415,0.01225 -1.112502,-0.112144 -0.36551,-0.124772 -0.664761,-0.339748 -0.898429,-0.647951 C 32.323912,38.989708 32.1642,38.591797 32.08359,38.106252 Z m 1.15356,-0.119996 c 0.06212,0.420244 0.208919,0.727687 0.43669,0.922949 0.228064,0.195512 0.483786,0.273737 0.770268,0.235898 0.286478,-0.03784 0.512036,-0.179636 0.67908,-0.427371 0.169462,-0.247753 0.231152,-0.585375 0.181414,-1.012603 -0.04853,-0.416796 -0.185896,-0.725549 -0.415641,-0.925537 -0.226785,-0.200087 -0.490645,-0.281169 -0.788697,-0.24188 -0.298051,0.03929 -0.533315,0.186173 -0.703158,0.438676 -0.17005,0.252814 -0.22212,0.589335 -0.159956,1.009868 z"
             id="path992" />
          <path
             d="m 40.258434,39.457432 -0.03202,-0.641496 c -0.141341,0.236077 -0.332343,0.426402 -0.572797,0.572097 -0.237886,0.145576 -0.492409,0.227184 -0.765392,0.245504 -0.278172,0.01867 -0.531879,-0.02608 -0.762981,-0.134951 -0.231091,-0.108866 -0.406175,-0.272355 -0.525152,-0.491741 -0.118864,-0.219177 -0.196784,-0.530014 -0.231994,-0.931778 l -0.236726,-2.701142 c 0.386549,-0.03402 0.77332,-0.06507 1.160283,-0.09323 l 0.141939,1.964684 c 0.04341,0.600892 0.09016,0.969144 0.139495,1.102914 0.0519,0.131211 0.13471,0.233306 0.248218,0.306548 0.113355,0.07058 0.252669,0.10051 0.418519,0.09025 0.189544,-0.01173 0.356221,-0.07391 0.50088,-0.18705 0.144487,-0.115812 0.240843,-0.252869 0.288506,-0.411713 0.04742,-0.161166 0.05591,-0.549192 0.02468,-1.162054 l -0.09208,-1.807315 c 0.387456,-0.02 0.775065,-0.03723 1.162796,-0.05176 l 0.157472,4.289579 c -0.341588,0.01196 -0.682809,0.02616 -1.023642,0.04265 z"
             id="path994" />
          <path
             d="m 44.709313,39.367277 0.02652,-5.889707 c 0.415989,0.0011 0.831894,0.005 1.247682,0.01147 l -0.08591,4.892333 c 0.981837,0.01849 1.965293,0.05264 2.949858,0.101002 l -0.04807,1.002049 c -1.366953,-0.06799 -2.730784,-0.108361 -4.090079,-0.11715 z"
             id="path996" />
          <path
             d="m 49.490488,37.299315 c 0.02029,-0.378629 0.13337,-0.740205 0.342102,-1.083983 0.208715,-0.343747 0.49275,-0.598864 0.85186,-0.763618 0.361854,-0.164575 0.759498,-0.231666 1.190235,-0.200106 0.665648,0.04877 1.193912,0.306623 1.579098,0.767821 0.385504,0.458593 0.544915,1.012292 0.484973,1.658156 -0.06045,0.651306 -0.321491,1.171811 -0.775573,1.564536 -0.451547,0.390582 -0.987329,0.559974 -1.613421,0.512767 -0.387434,-0.02921 -0.750868,-0.144378 -1.092964,-0.345965 -0.339317,-0.201341 -0.591699,-0.478268 -0.757001,-0.832335 -0.165064,-0.356585 -0.235824,-0.782462 -0.209309,-1.277273 z m 1.166014,0.130422 c -0.02755,0.427232 0.0527,0.761238 0.238511,1.001959 0.18596,0.24091 0.425198,0.371914 0.719478,0.393963 0.294287,0.02205 0.549108,-0.07195 0.766064,-0.282962 0.219486,-0.210649 0.348294,-0.5321 0.384219,-0.964604 0.03504,-0.421835 -0.03968,-0.754646 -0.226272,-0.998374 -0.18374,-0.243346 -0.427052,-0.37666 -0.728385,-0.398874 -0.301323,-0.02221 -0.562936,0.07388 -0.783036,0.287295 -0.220265,0.213576 -0.343015,0.534181 -0.370579,0.961597 z"
             id="path998" />
          <path
             d="m 54.339483,38.660409 c 0.384445,-0.02126 0.769426,-0.04079 1.154876,-0.05865 0.02502,0.226511 0.105103,0.405681 0.239927,0.537676 0.13517,0.129346 0.334939,0.208514 0.599881,0.238392 0.291722,0.0329 0.517341,0.0046 0.677371,-0.08601 0.10799,-0.06386 0.169632,-0.159073 0.184652,-0.285811 0.01023,-0.08629 -0.0082,-0.160929 -0.05527,-0.223907 -0.05008,-0.06056 -0.170719,-0.125428 -0.361947,-0.193924 -0.893261,-0.308208 -1.454241,-0.551009 -1.684414,-0.744534 -0.317147,-0.267099 -0.456892,-0.606403 -0.416375,-1.019733 0.03654,-0.372767 0.215966,-0.671786 0.54108,-0.895444 0.324825,-0.223458 0.803862,-0.302597 1.433455,-0.232207 0.599211,0.06699 1.033135,0.21634 1.300038,0.442812 0.267101,0.22664 0.431255,0.534562 0.493129,0.9227 -0.36888,0.02075 -0.737491,0.04286 -1.10577,0.06641 -0.02653,-0.172649 -0.100036,-0.311191 -0.220681,-0.415401 -0.117916,-0.103893 -0.297252,-0.169668 -0.537731,-0.196606 -0.303311,-0.03398 -0.525372,-0.01552 -0.665407,0.05408 -0.0938,0.05003 -0.14562,0.122356 -0.155661,0.216847 -0.0086,0.081 0.02226,0.153882 0.09242,0.218735 0.096,0.08725 0.439949,0.230714 1.032924,0.43849 0.5947,0.207741 0.999745,0.429102 1.215261,0.658019 0.212761,0.231576 0.295545,0.528163 0.249897,0.889117 -0.04975,0.393347 -0.256277,0.710459 -0.616591,0.953374 -0.360587,0.2431 -0.85716,0.326343 -1.492906,0.254608 -0.57719,-0.06513 -1.02153,-0.231968 -1.336001,-0.504445 -0.31159,-0.272017 -0.500861,-0.616474 -0.56616,-1.034584 z"
             id="path1000" />
          <path
             d="m 61.820879,39.442757 c 0.365947,0.118392 0.731308,0.237839 1.096094,0.358249 -0.208246,0.390253 -0.484714,0.67033 -0.828972,0.840966 -0.341318,0.168416 -0.743791,0.218826 -1.209186,0.152454 -0.736404,-0.105022 -1.247832,-0.421509 -1.538332,-0.956002 -0.228386,-0.427264 -0.305434,-0.938542 -0.227572,-1.533321 0.09305,-0.710817 0.352346,-1.242139 0.782847,-1.592565 0.430498,-0.352819 0.936122,-0.488647 1.512325,-0.405679 0.647173,0.09319 1.125813,0.381016 1.433451,0.858405 0.308383,0.475228 0.384861,1.143648 0.234642,2.006285 -0.944744,-0.14571 -1.891068,-0.284582 -2.838526,-0.415351 -0.03843,0.337128 0.0167,0.611889 0.164378,0.824205 0.148114,0.209713 0.351401,0.332782 0.610637,0.369875 0.176395,0.02524 0.3317,-0.0016 0.466223,-0.08069 0.134498,-0.07907 0.248503,-0.221328 0.341991,-0.426835 z m 0.234275,-1.133206 c 0.04058,-0.328474 -0.0076,-0.589226 -0.145324,-0.782304 -0.137294,-0.195695 -0.32303,-0.310646 -0.556638,-0.344292 -0.249914,-0.03599 -0.469314,0.02479 -0.657371,0.182032 -0.188121,0.157293 -0.301781,0.390861 -0.341908,0.700418 0.567625,0.07855 1.134737,0.160024 1.701241,0.244146 z"
             id="path1002" />
          <path
             d="m 64.393002,39.675247 c 0.06355,-1.009735 0.125686,-2.0199 0.186372,-3.030478 l 0.22166,-1.379485 c 0.415493,0.06784 0.830323,0.136977 1.244453,0.207322 l -0.229524,1.37656 c -0.262961,0.975983 -0.52467,1.952551 -0.785086,2.929692 -0.212537,-0.03484 -0.425163,-0.06938 -0.637875,-0.103611 z m -0.48878,1.476456 0.18133,-1.126757 c 0.375328,0.05981 0.750423,0.120616 1.125258,0.182334 l -0.187267,1.124547 c -0.372936,-0.06095 -0.746052,-0.121021 -1.119321,-0.180124 z"
             id="path1004" />
        </g>
        <g
           aria-label="You Lose!"
           id="g1199"
           style="font-weight:bold;font-size:8.30761px;line-height:1.25;font-family:Arial;-inkscape-font-specification:'Arial Bold';fill:#feff9d;fill-opacity:1;stroke-width:0.207691;filter:url(#filter1688)"
           class="UnoptimicedTransforms"
           transform="translate(-0.31461863,3.9327327)">
          <path
             d="M 29.538841,40.842294 29.009689,38.403005 C 28.05868,37.43816 27.06925,36.492223 26.038963,35.566691 c 0.482211,-0.120794 0.964988,-0.235856 1.448277,-0.345336 0.656166,0.653999 1.294808,1.316267 1.916619,1.986394 0.29664,-0.858962 0.611131,-1.71538 0.94271,-2.569141 0.476712,-0.08657 0.953818,-0.168036 1.431266,-0.244543 -0.572252,1.251063 -1.105693,2.509404 -1.597459,3.774643 l 0.479715,2.438401 c -0.374536,0.07464 -0.748297,0.153009 -1.12125,0.235185 z"
             id="path1183"
             style="fill:#feff9d;fill-opacity:1" />
          <path
             d="m 32.08359,38.106252 c -0.06169,-0.371578 -0.0301,-0.746613 0.09949,-1.124606 0.129586,-0.377956 0.352429,-0.685574 0.669075,-0.92048 0.319204,-0.235186 0.694948,-0.382258 1.123221,-0.438701 0.661933,-0.08724 1.231163,0.06 1.696399,0.433966 0.465136,0.37145 0.724374,0.880354 0.788136,1.519958 0.0643,0.644957 -0.08976,1.199896 -0.449911,1.66901 -0.357966,0.466329 -0.835371,0.73493 -1.441276,0.81498 -0.375045,0.04955 -0.744415,0.01225 -1.112502,-0.112144 -0.36551,-0.124772 -0.664761,-0.339748 -0.898429,-0.647951 C 32.323912,38.989708 32.1642,38.591797 32.08359,38.106252 Z m 1.15356,-0.119996 c 0.06212,0.420244 0.208919,0.727687 0.43669,0.922949 0.228064,0.195512 0.483786,0.273737 0.770268,0.235898 0.286478,-0.03784 0.512036,-0.179636 0.67908,-0.427371 0.169462,-0.247753 0.231152,-0.585375 0.181414,-1.012603 -0.04853,-0.416796 -0.185896,-0.725549 -0.415641,-0.925537 -0.226785,-0.200087 -0.490645,-0.281169 -0.788697,-0.24188 -0.298051,0.03929 -0.533315,0.186173 -0.703158,0.438676 -0.17005,0.252814 -0.22212,0.589335 -0.159956,1.009868 z"
             id="path1185"
             style="fill:#feff9d;fill-opacity:1" />
          <path
             d="m 40.258434,39.457432 -0.03202,-0.641496 c -0.141341,0.236077 -0.332343,0.426402 -0.572797,0.572097 -0.237886,0.145576 -0.492409,0.227184 -0.765392,0.245504 -0.278172,0.01867 -0.531879,-0.02608 -0.762981,-0.134951 -0.231091,-0.108866 -0.406175,-0.272355 -0.525152,-0.491741 -0.118864,-0.219177 -0.196784,-0.530014 -0.231994,-0.931778 l -0.236726,-2.701142 c 0.386549,-0.03402 0.77332,-0.06507 1.160283,-0.09323 l 0.141939,1.964684 c 0.04341,0.600892 0.09016,0.969144 0.139495,1.102914 0.0519,0.131211 0.13471,0.233306 0.248218,0.306548 0.113355,0.07058 0.252669,0.10051 0.418519,0.09025 0.189544,-0.01173 0.356221,-0.07391 0.50088,-0.18705 0.144487,-0.115812 0.240843,-0.252869 0.288506,-0.411713 0.04742,-0.161166 0.05591,-0.549192 0.02468,-1.162054 l -0.09208,-1.807315 c 0.387456,-0.02 0.775065,-0.03723 1.162796,-0.05176 l 0.157472,4.289579 c -0.341588,0.01196 -0.682809,0.02616 -1.023642,0.04265 z"
             id="path1187"
             style="fill:#feff9d;fill-opacity:1" />
          <path
             d="m 44.709313,39.367277 0.02652,-5.889707 c 0.415989,0.0011 0.831894,0.005 1.247682,0.01147 l -0.08591,4.892333 c 0.981837,0.01849 1.965293,0.05264 2.949858,0.101002 l -0.04807,1.002049 c -1.366953,-0.06799 -2.730784,-0.108361 -4.090079,-0.11715 z"
             id="path1189"
             style="fill:#feff9d;fill-opacity:1" />
          <path
             d="m 49.490488,37.299315 c 0.02029,-0.378629 0.13337,-0.740205 0.342102,-1.083983 0.208715,-0.343747 0.49275,-0.598864 0.85186,-0.763618 0.361854,-0.164575 0.759498,-0.231666 1.190235,-0.200106 0.665648,0.04877 1.193912,0.306623 1.579098,0.767821 0.385504,0.458593 0.544915,1.012292 0.484973,1.658156 -0.06045,0.651306 -0.321491,1.171811 -0.775573,1.564536 -0.451547,0.390582 -0.987329,0.559974 -1.613421,0.512767 -0.387434,-0.02921 -0.750868,-0.144378 -1.092964,-0.345965 -0.339317,-0.201341 -0.591699,-0.478268 -0.757001,-0.832335 -0.165064,-0.356585 -0.235824,-0.782462 -0.209309,-1.277273 z m 1.166014,0.130422 c -0.02755,0.427232 0.0527,0.761238 0.238511,1.001959 0.18596,0.24091 0.425198,0.371914 0.719478,0.393963 0.294287,0.02205 0.549108,-0.07195 0.766064,-0.282962 0.219486,-0.210649 0.348294,-0.5321 0.384219,-0.964604 0.03504,-0.421835 -0.03968,-0.754646 -0.226272,-0.998374 -0.18374,-0.243346 -0.427052,-0.37666 -0.728385,-0.398874 -0.301323,-0.02221 -0.562936,0.07388 -0.783036,0.287295 -0.220265,0.213576 -0.343015,0.534181 -0.370579,0.961597 z"
             id="path1191"
             style="fill:#feff9d;fill-opacity:1" />
          <path
             d="m 54.339483,38.660409 c 0.384445,-0.02126 0.769426,-0.04079 1.154876,-0.05865 0.02502,0.226511 0.105103,0.405681 0.239927,0.537676 0.13517,0.129346 0.334939,0.208514 0.599881,0.238392 0.291722,0.0329 0.517341,0.0046 0.677371,-0.08601 0.10799,-0.06386 0.169632,-0.159073 0.184652,-0.285811 0.01023,-0.08629 -0.0082,-0.160929 -0.05527,-0.223907 -0.05008,-0.06056 -0.170719,-0.125428 -0.361947,-0.193924 -0.893261,-0.308208 -1.454241,-0.551009 -1.684414,-0.744534 -0.317147,-0.267099 -0.456892,-0.606403 -0.416375,-1.019733 0.03654,-0.372767 0.215966,-0.671786 0.54108,-0.895444 0.324825,-0.223458 0.803862,-0.302597 1.433455,-0.232207 0.599211,0.06699 1.033135,0.21634 1.300038,0.442812 0.267101,0.22664 0.431255,0.534562 0.493129,0.9227 -0.36888,0.02075 -0.737491,0.04286 -1.10577,0.06641 -0.02653,-0.172649 -0.100036,-0.311191 -0.220681,-0.415401 -0.117916,-0.103893 -0.297252,-0.169668 -0.537731,-0.196606 -0.303311,-0.03398 -0.525372,-0.01552 -0.665407,0.05408 -0.0938,0.05003 -0.14562,0.122356 -0.155661,0.216847 -0.0086,0.081 0.02226,0.153882 0.09242,0.218735 0.096,0.08725 0.439949,0.230714 1.032924,0.43849 0.5947,0.207741 0.999745,0.429102 1.215261,0.658019 0.212761,0.231576 0.295545,0.528163 0.249897,0.889117 -0.04975,0.393347 -0.256277,0.710459 -0.616591,0.953374 -0.360587,0.2431 -0.85716,0.326343 -1.492906,0.254608 -0.57719,-0.06513 -1.02153,-0.231968 -1.336001,-0.504445 -0.31159,-0.272017 -0.500861,-0.616474 -0.56616,-1.034584 z"
             id="path1193"
             style="fill:#feff9d;fill-opacity:1" />
          <path
             d="m 61.820879,39.442757 c 0.365947,0.118392 0.731308,0.237839 1.096094,0.358249 -0.208246,0.390253 -0.484714,0.67033 -0.828972,0.840966 -0.341318,0.168416 -0.743791,0.218826 -1.209186,0.152454 -0.736404,-0.105022 -1.247832,-0.421509 -1.538332,-0.956002 -0.228386,-0.427264 -0.305434,-0.938542 -0.227572,-1.533321 0.09305,-0.710817 0.352346,-1.242139 0.782847,-1.592565 0.430498,-0.352819 0.936122,-0.488647 1.512325,-0.405679 0.647173,0.09319 1.125813,0.381016 1.433451,0.858405 0.308383,0.475228 0.384861,1.143648 0.234642,2.006285 -0.944744,-0.14571 -1.891068,-0.284582 -2.838526,-0.415351 -0.03843,0.337128 0.0167,0.611889 0.164378,0.824205 0.148114,0.209713 0.351401,0.332782 0.610637,0.369875 0.176395,0.02524 0.3317,-0.0016 0.466223,-0.08069 0.134498,-0.07907 0.248503,-0.221328 0.341991,-0.426835 z m 0.234275,-1.133206 c 0.04058,-0.328474 -0.0076,-0.589226 -0.145324,-0.782304 -0.137294,-0.195695 -0.32303,-0.310646 -0.556638,-0.344292 -0.249914,-0.03599 -0.469314,0.02479 -0.657371,0.182032 -0.188121,0.157293 -0.301781,0.390861 -0.341908,0.700418 0.567625,0.07855 1.134737,0.160024 1.701241,0.244146 z"
             id="path1195"
             style="fill:#feff9d;fill-opacity:1" />
          <path
             d="m 64.393002,39.675247 c 0.06355,-1.009735 0.125686,-2.0199 0.186372,-3.030478 l 0.22166,-1.379485 c 0.415493,0.06784 0.830323,0.136977 1.244453,0.207322 l -0.229524,1.37656 c -0.262961,0.975983 -0.52467,1.952551 -0.785086,2.929692 -0.212537,-0.03484 -0.425163,-0.06938 -0.637875,-0.103611 z m -0.48878,1.476456 0.18133,-1.126757 c 0.375328,0.05981 0.750423,0.120616 1.125258,0.182334 l -0.187267,1.124547 c -0.372936,-0.06095 -0.746052,-0.121021 -1.119321,-0.180124 z"
             id="path1197"
             style="fill:#feff9d;fill-opacity:1" />
        </g>
      </g>
    </g>
  </g>
</svg>
