<?xml version="1.0" encoding="UTF-8" standalone="no"?>
<!-- Created with Inkscape (http://www.inkscape.org/) -->

<svg
   width="210mm"
   height="297mm"
   viewBox="0 0 210 297"
   version="1.1"
   id="svg5"
   inkscape:version="1.2 (dc2aedaf03, 2022-05-15)"
   sodipodi:docname="dialog-13-title(you win).svg"
   xmlns:inkscape="http://www.inkscape.org/namespaces/inkscape"
   xmlns:sodipodi="http://sodipodi.sourceforge.net/DTD/sodipodi-0.dtd"
   xmlns="http://www.w3.org/2000/svg"
   xmlns:svg="http://www.w3.org/2000/svg">
  <sodipodi:namedview
     id="namedview7"
     pagecolor="#ffffff"
     bordercolor="#666666"
     borderopacity="1.0"
     inkscape:showpageshadow="2"
     inkscape:pageopacity="0.0"
     inkscape:pagecheckerboard="0"
     inkscape:deskcolor="#d1d1d1"
     inkscape:document-units="mm"
     showgrid="false"
     inkscape:zoom="1.6819304"
     inkscape:cx="74.319365"
     inkscape:cy="139.42313"
     inkscape:window-width="1870"
     inkscape:window-height="958"
     inkscape:window-x="2227"
     inkscape:window-y="115"
     inkscape:window-maximized="0"
     inkscape:current-layer="layer1" />
  <defs
     id="defs2">
    <inkscape:path-effect
       effect="bend_path"
       id="path-effect1126"
       is_visible="true"
       lpeversion="1"
       bendpath="m 25.012256,44.10497 c 12.338393,-3.699495 23.935551,-2.802092 35.086347,0"
       prop_scale="1"
       scale_y_rel="false"
       vertical="false"
       hide_knot="false"
       bendpath-nodetypes="cc" />
    <inkscape:path-effect
       effect="bend_path"
       id="path-effect1010"
       is_visible="true"
       lpeversion="1"
       bendpath="m 25.012256,44.10497 c 12.338393,-3.699495 23.935551,-2.802092 35.086347,0"
       prop_scale="1"
       scale_y_rel="false"
       vertical="false"
       hide_knot="false"
       bendpath-nodetypes="cc" />
    <inkscape:path-effect
       effect="bend_path"
       id="path-effect1181"
       is_visible="true"
       lpeversion="1"
       bendpath="m 26.884391,38.470418 c 13.839947,-3.508647 26.368328,-2.07258 38.763434,0"
       prop_scale="1"
       scale_y_rel="false"
       vertical="false"
       hide_knot="false"
       bendpath-nodetypes="cc" />
    <inkscape:path-effect
       effect="bend_path"
       id="path-effect1007"
       is_visible="true"
       lpeversion="1"
       bendpath="m 26.884391,38.470418 c 13.839947,-3.508647 26.368328,-2.07258 38.763434,0"
       prop_scale="1"
       scale_y_rel="false"
       vertical="false"
       hide_knot="false"
       bendpath-nodetypes="cc" />
    <inkscape:path-effect
       effect="bend_path"
       id="path-effect446"
       is_visible="true"
       lpeversion="1"
       bendpath="m 29.241944,20.313617 c 12.463598,-2.093535 22.84941,-1.666955 32.55317,0"
       prop_scale="1"
       scale_y_rel="false"
       vertical="false"
       hide_knot="false"
       bendpath-nodetypes="cc" />
    <filter
       inkscape:collect="always"
       style="color-interpolation-filters:sRGB"
       id="filter11206"
       x="-0.039155971"
       y="-0.20763962"
       width="1.0783119"
       height="1.4152792">
      <feGaussianBlur
         inkscape:collect="always"
         stdDeviation="0.92587077"
         id="feGaussianBlur11208" />
    </filter>
    <filter
       inkscape:collect="always"
       style="color-interpolation-filters:sRGB"
       id="filter1611"
       x="-0.0045903271"
       y="-0.024341978"
       width="1.0091807"
       height="1.048684">
      <feGaussianBlur
         inkscape:collect="always"
         stdDeviation="0.10854155"
         id="feGaussianBlur1613" />
    </filter>
    <filter
       inkscape:collect="always"
       style="color-interpolation-filters:sRGB"
       id="filter1615"
       x="-0.0045903271"
       y="-0.024341978"
       width="1.0091807"
       height="1.048684">
      <feGaussianBlur
         inkscape:collect="always"
         stdDeviation="0.10854155"
         id="feGaussianBlur1617" />
    </filter>
    <filter
       inkscape:collect="always"
       style="color-interpolation-filters:sRGB"
       id="filter1619"
       x="-0.0045903271"
       y="-0.024341978"
       width="1.0091807"
       height="1.048684">
      <feGaussianBlur
         inkscape:collect="always"
         stdDeviation="0.10854155"
         id="feGaussianBlur1621" />
    </filter>
    <filter
       inkscape:collect="always"
       style="color-interpolation-filters:sRGB"
       id="filter2268"
       x="-0.028720684"
       y="-0.12744499"
       width="1.0574414"
       height="1.25489">
      <feGaussianBlur
         inkscape:collect="always"
         stdDeviation="0.43940196"
         id="feGaussianBlur2270" />
    </filter>
    <filter
       inkscape:collect="always"
       style="color-interpolation-filters:sRGB"
       id="filter2321"
       x="-0.0011763432"
       y="-0.005219898"
       width="1.0023527"
       height="1.0104398">
      <feGaussianBlur
         inkscape:collect="always"
         stdDeviation="0.017997047"
         id="feGaussianBlur2323" />
    </filter>
  </defs>
  <g
     inkscape:label="Layer 1"
     inkscape:groupmode="layer"
     id="layer1">
    <g
       id="g2354"
       inkscape:export-filename=".\dialog-13-title(you win).png"
       inkscape:export-xdpi="140.33"
       inkscape:export-ydpi="140.33">
      <rect
         style="opacity:0.646489;fill:#090909;fill-opacity:1;stroke-width:0.17937;stroke-linecap:round;stroke-linejoin:round;paint-order:markers stroke fill;filter:url(#filter11206)"
         id="rect10470"
         width="56.749706"
         height="10.701666"
         x="17.143677"
         y="14.039516"
         ry="4.0206466"
         transform="matrix(1.0056551,0,0,1.0986962,-0.25741319,-1.7190942)" />
      <rect
         style="fill:#ffc3a1;fill-opacity:1;stroke-width:0.17937;stroke-linecap:round;stroke-linejoin:round;paint-order:markers stroke fill;filter:url(#filter1611)"
         id="rect5377"
         width="56.749706"
         height="10.701666"
         x="17.143677"
         y="13.45633"
         ry="4.0206466" />
      <rect
         style="fill:#d74e04;fill-opacity:1;stroke-width:0.17937;stroke-linecap:round;stroke-linejoin:round;paint-order:markers stroke fill;filter:url(#filter1615)"
         id="rect5379"
         width="56.749706"
         height="10.701666"
         x="17.143677"
         y="14.73389"
         ry="4.0206466" />
      <rect
         style="fill:#ff8d4f;fill-opacity:1;stroke-width:0.17937;stroke-linecap:round;stroke-linejoin:round;paint-order:markers stroke fill;filter:url(#filter1619)"
         id="rect184"
         width="56.749706"
         height="10.701666"
         x="17.143677"
         y="14.039493"
         ry="4.0206466" />
      <g
         id="g12525"
         transform="matrix(1,0,0,0.91660662,-16.62131,-11.752292)">
        <circle
           style="opacity:1;fill:#ffd6bf;fill-opacity:1;stroke-width:0.360979;stroke-linecap:round;stroke-linejoin:round;paint-order:markers stroke fill"
           id="circle12520"
           cx="38.313038"
           cy="34.126549"
           r="1.5" />
        <circle
           style="opacity:1;fill:#a14b12;fill-opacity:1;stroke-width:0.360979;stroke-linecap:round;stroke-linejoin:round;paint-order:markers stroke fill"
           id="circle12518"
           cx="38.313038"
           cy="33.825432"
           r="1.5" />
        <circle
           style="opacity:1;fill:#ffb687;fill-opacity:1;stroke-width:0.360979;stroke-linecap:round;stroke-linejoin:round;paint-order:markers stroke fill"
           id="path11268"
           cx="38.313038"
           cy="33.97599"
           r="1.5" />
      </g>
      <g
         id="g12547"
         transform="matrix(1,0,0,0.91660662,31.200724,-11.752292)">
        <circle
           style="opacity:1;fill:#ffd6bf;fill-opacity:1;stroke-width:0.360979;stroke-linecap:round;stroke-linejoin:round;paint-order:markers stroke fill"
           id="circle12541"
           cx="38.313038"
           cy="34.126549"
           r="1.5" />
        <circle
           style="opacity:1;fill:#a14b12;fill-opacity:1;stroke-width:0.360979;stroke-linecap:round;stroke-linejoin:round;paint-order:markers stroke fill"
           id="circle12543"
           cx="38.313038"
           cy="33.825432"
           r="1.5" />
        <circle
           style="opacity:1;fill:#ffb687;fill-opacity:1;stroke-width:0.360979;stroke-linecap:round;stroke-linejoin:round;paint-order:markers stroke fill"
           id="circle12545"
           cx="38.313038"
           cy="33.97599"
           r="1.5" />
      </g>
      <g
         id="g2288"
         transform="translate(2.4382945,-25.877384)">
        <g
           aria-label="You Win!"
           id="text943"
           style="font-weight:bold;font-size:8.44282px;line-height:1.25;font-family:Arial;-inkscape-font-specification:'Arial Bold';letter-spacing:0px;stroke-width:0.211071;filter:url(#filter2268)"
           class="UnoptimicedTransforms"
           transform="translate(0.55617246,2.6696278)">
          <path
             d="M 27.809018,46.405383 27.17864,43.946836 c -1.0057,-0.943668 -2.055647,-1.862181 -3.151239,-2.753187 0.490015,-0.146032 0.981322,-0.285305 1.473808,-0.417924 0.698712,0.63604 1.377542,1.283256 2.03689,1.940989 0.273413,-0.884558 0.568288,-1.767222 0.884029,-2.647555 0.4881,-0.104984 0.977124,-0.203742 1.466964,-0.296372 -0.556969,1.290737 -1.065975,2.588758 -1.52476,3.892469 l 0.571992,2.4621 c -0.376845,0.08829 -0.752637,0.180947 -1.127306,0.278027 z"
             id="path995" />
          <path
             d="m 30.303591,43.540082 c -0.07351,-0.3761 -0.052,-0.758532 0.0703,-1.146861 0.12229,-0.388278 0.342533,-0.707749 0.661538,-0.955416 0.321596,-0.248001 0.704061,-0.407442 1.14261,-0.474991 0.677894,-0.104414 1.265543,0.03421 1.748455,0.406523 0.482791,0.369771 0.754869,0.884024 0.829156,1.534004 0.07491,0.65542 -0.07399,1.222265 -0.431359,1.705521 -0.355225,0.480423 -0.832992,0.762022 -1.444693,0.856202 -0.378675,0.0583 -0.753518,0.02881 -1.129897,-0.08863 -0.373767,-0.11789 -0.683312,-0.328511 -0.929463,-0.635491 -0.246395,-0.309336 -0.420603,-0.709425 -0.51665,-1.200858 z m 1.173185,-0.15389 c 0.07386,0.42589 0.231215,0.734932 0.467547,0.928019 0.236698,0.193385 0.498201,0.26704 0.788324,0.222355 0.290122,-0.04469 0.51618,-0.19344 0.681152,-0.448767 0.167381,-0.255316 0.224057,-0.600095 0.165492,-1.033871 -0.05714,-0.423246 -0.202974,-0.734806 -0.441865,-0.933679 -0.235805,-0.198984 -0.50772,-0.275848 -0.812104,-0.228982 -0.30438,0.04687 -0.542018,0.202192 -0.709753,0.463406 -0.16798,0.261596 -0.212711,0.605281 -0.138793,1.031519 z"
             id="path997" />
          <path
             d="m 38.630454,44.786781 -0.03346,-0.652812 c -0.142961,0.240437 -0.335889,0.434473 -0.578721,0.583609 -0.240199,0.148983 -0.49711,0.233232 -0.773142,0.253587 -0.281276,0.02074 -0.538278,-0.02279 -0.773365,-0.131517 -0.235067,-0.108716 -0.414306,-0.273257 -0.537533,-0.495236 -0.123081,-0.221716 -0.206022,-0.537243 -0.246554,-0.945672 l -0.272535,-2.746277 c 0.396695,-0.03952 0.793759,-0.0752 1.19113,-0.107111 l 0.159532,1.998484 c 0.04879,0.611142 0.09923,0.985744 0.150364,1.121437 0.05375,0.133155 0.138637,0.236462 0.254375,0.310262 0.115577,0.07109 0.257124,0.100716 0.425374,0.08944 0.192285,-0.01288 0.361116,-0.0768 0.507614,-0.192399 0.146306,-0.118311 0.243888,-0.257998 0.292026,-0.419753 0.04785,-0.164011 0.05589,-0.559133 0.0231,-1.182694 l -0.09672,-1.839174 c 0.398133,-0.02117 0.796487,-0.03865 1.195003,-0.05249 l 0.148788,4.36561 c -0.345424,0.01127 -0.690531,0.02549 -1.035271,0.0427 z"
             id="path999" />
          <path
             d="m 43.926787,44.750927 c -0.398311,-2.029514 -0.839459,-4.054069 -1.324663,-6.072117 0.440667,0.0046 0.881251,0.0133 1.321677,0.02613 0.27897,1.392253 0.539131,2.786736 0.780817,4.183028 0.427765,-1.366478 0.877956,-2.729728 1.349984,-4.089218 0.510827,0.03005 1.021275,0.06547 1.531228,0.106153 0.258674,1.434209 0.496036,2.870103 0.71254,4.307094 0.441856,-1.373616 0.901736,-2.743952 1.379225,-4.11062 0.430383,0.04648 0.860294,0.09662 1.289662,0.15037 -0.76489,1.939272 -1.490828,3.888088 -2.176313,5.84507 -0.41783,-0.04446 -0.83581,-0.08522 -1.253857,-0.122203 -0.257508,-1.537101 -0.540495,-3.072492 -0.849589,-4.605359 -0.518865,1.475258 -1.012154,2.95512 -1.47911,4.438903 -0.427323,-0.0232 -0.854553,-0.0423 -1.281601,-0.05723 z"
             id="path1001" />
          <path
             d="m 51.391384,40.389776 0.141799,-1.065072 c 0.40441,0.05365 0.808309,0.110479 1.211636,0.170426 l -0.158189,1.062903 c -0.397915,-0.05917 -0.79635,-0.115273 -1.195246,-0.168257 z m -0.657731,4.940297 0.579196,-4.35041 c 0.395842,0.05261 0.791251,0.108318 1.186169,0.167056 l -0.646141,4.341552 c -0.37281,-0.05556 -0.745905,-0.108312 -1.119224,-0.158198 z"
             id="path1003" />
          <path
             d="m 56.82166,46.395051 c -0.36907,-0.07953 -0.738694,-0.156503 -1.108811,-0.230857 l 0.443157,-2.194784 c 0.0938,-0.464532 0.129761,-0.768729 0.107527,-0.913877 -0.02166,-0.147627 -0.08136,-0.270556 -0.17931,-0.368574 -0.09517,-0.09745 -0.221636,-0.161575 -0.379,-0.191899 -0.201543,-0.03884 -0.392894,-0.01881 -0.573008,0.05985 -0.180118,0.07866 -0.316471,0.20233 -0.409297,0.370315 -0.09021,0.168727 -0.178219,0.493907 -0.265134,0.976825 l -0.352113,1.95642 C 53.734255,45.7918 53.362433,45.72782 52.990265,45.666597 l 0.712998,-4.331155 c 0.365821,0.06024 0.731164,0.123051 1.095981,0.188385 l -0.113531,0.634641 c 0.472755,-0.41913 1.008923,-0.572255 1.597479,-0.455564 0.259239,0.0514 0.486741,0.145549 0.681558,0.281581 0.195389,0.133344 0.331776,0.282002 0.409585,0.44499 0.08059,0.163625 0.121997,0.338745 0.124761,0.525243 0.0055,0.18722 -0.02783,0.445937 -0.09964,0.77696 -0.192598,0.887792 -0.385197,1.775583 -0.577796,2.663375 z"
             id="path1005" />
          <path
             d="m 58.735498,45.228336 c 0.139503,-1.018414 0.275379,-2.037712 0.407597,-3.057861 l 0.32344,-1.38213 c 0.427361,0.100817 0.853659,0.20492 1.278818,0.312239 l -0.343998,1.37589 c -0.347089,0.967015 -0.690768,1.935315 -1.031007,2.90487 -0.211382,-0.05182 -0.423002,-0.102823 -0.63485,-0.153008 z m -0.600235,1.461078 0.264875,-1.128814 c 0.3729,0.08705 0.74512,0.176665 1.116601,0.268774 l -0.280397,1.124102 c -0.366362,-0.09048 -0.733408,-0.178518 -1.101079,-0.264062 z"
             id="path1007" />
        </g>
        <g
           aria-label="You Win!"
           id="g1122"
           style="font-weight:bold;font-size:8.44282px;line-height:1.25;font-family:Arial;-inkscape-font-specification:'Arial Bold';letter-spacing:0px;fill:#feff9d;fill-opacity:1;stroke-width:0.211071;filter:url(#filter2321)"
           class="UnoptimicedTransforms"
           transform="translate(0.55617246,2.2343242)">
          <path
             d="M 27.809018,46.405383 27.17864,43.946836 c -1.0057,-0.943668 -2.055647,-1.862181 -3.151239,-2.753187 0.490015,-0.146032 0.981322,-0.285305 1.473808,-0.417924 0.698712,0.63604 1.377542,1.283256 2.03689,1.940989 0.273413,-0.884558 0.568288,-1.767222 0.884029,-2.647555 0.4881,-0.104984 0.977124,-0.203742 1.466964,-0.296372 -0.556969,1.290737 -1.065975,2.588758 -1.52476,3.892469 l 0.571992,2.4621 c -0.376845,0.08829 -0.752637,0.180947 -1.127306,0.278027 z"
             id="path1108"
             style="fill:#feff9d;fill-opacity:1" />
          <path
             d="m 30.303591,43.540082 c -0.07351,-0.3761 -0.052,-0.758532 0.0703,-1.146861 0.12229,-0.388278 0.342533,-0.707749 0.661538,-0.955416 0.321596,-0.248001 0.704061,-0.407442 1.14261,-0.474991 0.677894,-0.104414 1.265543,0.03421 1.748455,0.406523 0.482791,0.369771 0.754869,0.884024 0.829156,1.534004 0.07491,0.65542 -0.07399,1.222265 -0.431359,1.705521 -0.355225,0.480423 -0.832992,0.762022 -1.444693,0.856202 -0.378675,0.0583 -0.753518,0.02881 -1.129897,-0.08863 -0.373767,-0.11789 -0.683312,-0.328511 -0.929463,-0.635491 -0.246395,-0.309336 -0.420603,-0.709425 -0.51665,-1.200858 z m 1.173185,-0.15389 c 0.07386,0.42589 0.231215,0.734932 0.467547,0.928019 0.236698,0.193385 0.498201,0.26704 0.788324,0.222355 0.290122,-0.04469 0.51618,-0.19344 0.681152,-0.448767 0.167381,-0.255316 0.224057,-0.600095 0.165492,-1.033871 -0.05714,-0.423246 -0.202974,-0.734806 -0.441865,-0.933679 -0.235805,-0.198984 -0.50772,-0.275848 -0.812104,-0.228982 -0.30438,0.04687 -0.542018,0.202192 -0.709753,0.463406 -0.16798,0.261596 -0.212711,0.605281 -0.138793,1.031519 z"
             id="path1110"
             style="fill:#feff9d;fill-opacity:1" />
          <path
             d="m 38.630454,44.786781 -0.03346,-0.652812 c -0.142961,0.240437 -0.335889,0.434473 -0.578721,0.583609 -0.240199,0.148983 -0.49711,0.233232 -0.773142,0.253587 -0.281276,0.02074 -0.538278,-0.02279 -0.773365,-0.131517 -0.235067,-0.108716 -0.414306,-0.273257 -0.537533,-0.495236 -0.123081,-0.221716 -0.206022,-0.537243 -0.246554,-0.945672 l -0.272535,-2.746277 c 0.396695,-0.03952 0.793759,-0.0752 1.19113,-0.107111 l 0.159532,1.998484 c 0.04879,0.611142 0.09923,0.985744 0.150364,1.121437 0.05375,0.133155 0.138637,0.236462 0.254375,0.310262 0.115577,0.07109 0.257124,0.100716 0.425374,0.08944 0.192285,-0.01288 0.361116,-0.0768 0.507614,-0.192399 0.146306,-0.118311 0.243888,-0.257998 0.292026,-0.419753 0.04785,-0.164011 0.05589,-0.559133 0.0231,-1.182694 l -0.09672,-1.839174 c 0.398133,-0.02117 0.796487,-0.03865 1.195003,-0.05249 l 0.148788,4.36561 c -0.345424,0.01127 -0.690531,0.02549 -1.035271,0.0427 z"
             id="path1112"
             style="fill:#feff9d;fill-opacity:1" />
          <path
             d="m 43.926787,44.750927 c -0.398311,-2.029514 -0.839459,-4.054069 -1.324663,-6.072117 0.440667,0.0046 0.881251,0.0133 1.321677,0.02613 0.27897,1.392253 0.539131,2.786736 0.780817,4.183028 0.427765,-1.366478 0.877956,-2.729728 1.349984,-4.089218 0.510827,0.03005 1.021275,0.06547 1.531228,0.106153 0.258674,1.434209 0.496036,2.870103 0.71254,4.307094 0.441856,-1.373616 0.901736,-2.743952 1.379225,-4.11062 0.430383,0.04648 0.860294,0.09662 1.289662,0.15037 -0.76489,1.939272 -1.490828,3.888088 -2.176313,5.84507 -0.41783,-0.04446 -0.83581,-0.08522 -1.253857,-0.122203 -0.257508,-1.537101 -0.540495,-3.072492 -0.849589,-4.605359 -0.518865,1.475258 -1.012154,2.95512 -1.47911,4.438903 -0.427323,-0.0232 -0.854553,-0.0423 -1.281601,-0.05723 z"
             id="path1114"
             style="fill:#feff9d;fill-opacity:1" />
          <path
             d="m 51.391384,40.389776 0.141799,-1.065072 c 0.40441,0.05365 0.808309,0.110479 1.211636,0.170426 l -0.158189,1.062903 c -0.397915,-0.05917 -0.79635,-0.115273 -1.195246,-0.168257 z m -0.657731,4.940297 0.579196,-4.35041 c 0.395842,0.05261 0.791251,0.108318 1.186169,0.167056 l -0.646141,4.341552 c -0.37281,-0.05556 -0.745905,-0.108312 -1.119224,-0.158198 z"
             id="path1116"
             style="fill:#feff9d;fill-opacity:1" />
          <path
             d="m 56.82166,46.395051 c -0.36907,-0.07953 -0.738694,-0.156503 -1.108811,-0.230857 l 0.443157,-2.194784 c 0.0938,-0.464532 0.129761,-0.768729 0.107527,-0.913877 -0.02166,-0.147627 -0.08136,-0.270556 -0.17931,-0.368574 -0.09517,-0.09745 -0.221636,-0.161575 -0.379,-0.191899 -0.201543,-0.03884 -0.392894,-0.01881 -0.573008,0.05985 -0.180118,0.07866 -0.316471,0.20233 -0.409297,0.370315 -0.09021,0.168727 -0.178219,0.493907 -0.265134,0.976825 l -0.352113,1.95642 C 53.734255,45.7918 53.362433,45.72782 52.990265,45.666597 l 0.712998,-4.331155 c 0.365821,0.06024 0.731164,0.123051 1.095981,0.188385 l -0.113531,0.634641 c 0.472755,-0.41913 1.008923,-0.572255 1.597479,-0.455564 0.259239,0.0514 0.486741,0.145549 0.681558,0.281581 0.195389,0.133344 0.331776,0.282002 0.409585,0.44499 0.08059,0.163625 0.121997,0.338745 0.124761,0.525243 0.0055,0.18722 -0.02783,0.445937 -0.09964,0.77696 -0.192598,0.887792 -0.385197,1.775583 -0.577796,2.663375 z"
             id="path1118"
             style="fill:#feff9d;fill-opacity:1" />
          <path
             d="m 58.735498,45.228336 c 0.139503,-1.018414 0.275379,-2.037712 0.407597,-3.057861 l 0.32344,-1.38213 c 0.427361,0.100817 0.853659,0.20492 1.278818,0.312239 l -0.343998,1.37589 c -0.347089,0.967015 -0.690768,1.935315 -1.031007,2.90487 -0.211382,-0.05182 -0.423002,-0.102823 -0.63485,-0.153008 z m -0.600235,1.461078 0.264875,-1.128814 c 0.3729,0.08705 0.74512,0.176665 1.116601,0.268774 l -0.280397,1.124102 c -0.366362,-0.09048 -0.733408,-0.178518 -1.101079,-0.264062 z"
             id="path1120"
             style="fill:#feff9d;fill-opacity:1" />
        </g>
      </g>
    </g>
  </g>
</svg>
