<?xml version="1.0" encoding="UTF-8" standalone="no"?>
<!-- Created with Inkscape (http://www.inkscape.org/) -->

<svg
   width="210mm"
   height="297mm"
   viewBox="0 0 210 297"
   version="1.1"
   id="svg5"
   xml:space="preserve"
   inkscape:version="1.2.1 (9c6d41e410, 2022-07-14)"
   sodipodi:docname="donald.svg"
   xmlns:inkscape="http://www.inkscape.org/namespaces/inkscape"
   xmlns:sodipodi="http://sodipodi.sourceforge.net/DTD/sodipodi-0.dtd"
   xmlns="http://www.w3.org/2000/svg"
   xmlns:svg="http://www.w3.org/2000/svg"><sodipodi:namedview
     id="namedview7"
     pagecolor="#ffffff"
     bordercolor="#666666"
     borderopacity="1.0"
     inkscape:showpageshadow="2"
     inkscape:pageopacity="0.0"
     inkscape:pagecheckerboard="0"
     inkscape:deskcolor="#d1d1d1"
     inkscape:document-units="mm"
     showgrid="false"
     inkscape:zoom="0.84096521"
     inkscape:cx="510.72267"
     inkscape:cy="199.77045"
     inkscape:window-width="2560"
     inkscape:window-height="1377"
     inkscape:window-x="1272"
     inkscape:window-y="-8"
     inkscape:window-maximized="1"
     inkscape:current-layer="g9536" /><defs
     id="defs2"><filter
       inkscape:collect="always"
       style="color-interpolation-filters:sRGB"
       id="filter2024"
       x="-0.029817756"
       y="-0.026323143"
       width="1.0596355"
       height="1.0526463"><feGaussianBlur
         inkscape:collect="always"
         stdDeviation="0.090120967"
         id="feGaussianBlur2026" /></filter><filter
       inkscape:collect="always"
       style="color-interpolation-filters:sRGB"
       id="filter1102"
       x="-0.022459167"
       y="-0.2079126"
       width="1.0449183"
       height="1.4158252"><feGaussianBlur
         inkscape:collect="always"
         stdDeviation="0.32268853"
         id="feGaussianBlur1104" /></filter><filter
       inkscape:collect="always"
       style="color-interpolation-filters:sRGB"
       id="filter1106"
       x="-0.23737468"
       y="-0.050405945"
       width="1.4747494"
       height="1.1008119"><feGaussianBlur
         inkscape:collect="always"
         stdDeviation="0.18614334"
         id="feGaussianBlur1108" /></filter><filter
       inkscape:collect="always"
       style="color-interpolation-filters:sRGB"
       id="filter1110"
       x="-0.046893798"
       y="-0.053463495"
       width="1.0937876"
       height="1.106927"><feGaussianBlur
         inkscape:collect="always"
         stdDeviation="0.10050295"
         id="feGaussianBlur1112" /></filter><filter
       inkscape:collect="always"
       style="color-interpolation-filters:sRGB"
       id="filter1114"
       x="-0.033664012"
       y="-0.039908809"
       width="1.067328"
       height="1.0798176"><feGaussianBlur
         inkscape:collect="always"
         stdDeviation="0.075519459"
         id="feGaussianBlur1116" /></filter><filter
       inkscape:collect="always"
       style="color-interpolation-filters:sRGB"
       id="filter1118"
       x="-0.12021387"
       y="-0.026963621"
       width="1.2404277"
       height="1.0539272"><feGaussianBlur
         inkscape:collect="always"
         stdDeviation="0.093833815"
         id="feGaussianBlur1120" /></filter><filter
       inkscape:collect="always"
       style="color-interpolation-filters:sRGB"
       id="filter2847"
       x="-0.0087464507"
       y="-0.025842923"
       width="1.0174929"
       height="1.0516858"><feGaussianBlur
         inkscape:collect="always"
         stdDeviation="0.25756184"
         id="feGaussianBlur2849" /></filter><filter
       inkscape:collect="always"
       style="color-interpolation-filters:sRGB"
       id="filter6353"
       x="-0.04199662"
       y="-0.037921222"
       width="1.0839932"
       height="1.0758424"><feGaussianBlur
         inkscape:collect="always"
         stdDeviation="0.18722335"
         id="feGaussianBlur6355" /></filter><filter
       inkscape:collect="always"
       style="color-interpolation-filters:sRGB"
       id="filter6357"
       x="-0.035841806"
       y="-0.038614365"
       width="1.0716836"
       height="1.0772287"><feGaussianBlur
         inkscape:collect="always"
         stdDeviation="0.21551573"
         id="feGaussianBlur6359" /></filter><filter
       inkscape:collect="always"
       style="color-interpolation-filters:sRGB"
       id="filter6361"
       x="-0.011609535"
       y="-0.016019584"
       width="1.0232191"
       height="1.0320392"><feGaussianBlur
         inkscape:collect="always"
         stdDeviation="0.1770211"
         id="feGaussianBlur6363" /></filter><filter
       inkscape:collect="always"
       style="color-interpolation-filters:sRGB"
       id="filter6365"
       x="-0.011729229"
       y="-0.015797141"
       width="1.0234585"
       height="1.0315943"><feGaussianBlur
         inkscape:collect="always"
         stdDeviation="0.20060152"
         id="feGaussianBlur6367" /></filter><filter
       inkscape:collect="always"
       style="color-interpolation-filters:sRGB"
       id="filter6369"
       x="-0.0077262337"
       y="-0.011158151"
       width="1.0154525"
       height="1.0223163"><feGaussianBlur
         inkscape:collect="always"
         stdDeviation="0.14405269"
         id="feGaussianBlur6371" /></filter><filter
       inkscape:collect="always"
       style="color-interpolation-filters:sRGB"
       id="filter8041"
       x="-0.030793414"
       y="-0.013358287"
       width="1.0615868"
       height="1.0267166"><feGaussianBlur
         inkscape:collect="always"
         stdDeviation="0.22212678"
         id="feGaussianBlur8043" /></filter><filter
       inkscape:collect="always"
       style="color-interpolation-filters:sRGB"
       id="filter8045"
       x="-0.026053283"
       y="-0.012415084"
       width="1.0521066"
       height="1.0248302"><feGaussianBlur
         inkscape:collect="always"
         stdDeviation="0.22296331"
         id="feGaussianBlur8047" /></filter><filter
       inkscape:collect="always"
       style="color-interpolation-filters:sRGB"
       id="filter8049"
       x="-0.027039322"
       y="-0.014214397"
       width="1.0540786"
       height="1.0284288"><feGaussianBlur
         inkscape:collect="always"
         stdDeviation="0.11706848"
         id="feGaussianBlur8051" /></filter><filter
       inkscape:collect="always"
       style="color-interpolation-filters:sRGB"
       id="filter8575"
       x="-0.30540208"
       y="-0.14129529"
       width="1.6108042"
       height="1.2825906"><feGaussianBlur
         inkscape:collect="always"
         stdDeviation="0.18370929"
         id="feGaussianBlur8577" /></filter><filter
       inkscape:collect="always"
       style="color-interpolation-filters:sRGB"
       id="filter8817"
       x="-0.041267688"
       y="-0.077472001"
       width="1.0825354"
       height="1.154944"><feGaussianBlur
         inkscape:collect="always"
         stdDeviation="0.17806183"
         id="feGaussianBlur8819" /></filter><filter
       inkscape:collect="always"
       style="color-interpolation-filters:sRGB"
       id="filter8959"
       x="-0.074774066"
       y="-0.048323127"
       width="1.1495481"
       height="1.0966463"><feGaussianBlur
         inkscape:collect="always"
         stdDeviation="0.14385297"
         id="feGaussianBlur8961" /></filter><filter
       inkscape:collect="always"
       style="color-interpolation-filters:sRGB"
       id="filter9308"
       x="-0.10306402"
       y="-0.068323956"
       width="1.206128"
       height="1.1366479"><feGaussianBlur
         inkscape:collect="always"
         stdDeviation="0.2594216"
         id="feGaussianBlur9310" /></filter><filter
       inkscape:collect="always"
       style="color-interpolation-filters:sRGB"
       id="filter9379"
       x="-0.056893297"
       y="-0.031487932"
       width="1.1137866"
       height="1.0629759"><feGaussianBlur
         inkscape:collect="always"
         stdDeviation="0.048298278"
         id="feGaussianBlur9381" /></filter><filter
       inkscape:collect="always"
       style="color-interpolation-filters:sRGB"
       id="filter9385"
       x="-0.064567461"
       y="-0.026763658"
       width="1.1291349"
       height="1.0535273"><feGaussianBlur
         inkscape:collect="always"
         stdDeviation="0.03940145"
         id="feGaussianBlur9387" /></filter><filter
       inkscape:collect="always"
       style="color-interpolation-filters:sRGB"
       id="filter9391"
       x="-0.045451194"
       y="-0.03145064"
       width="1.0909024"
       height="1.0629013"><feGaussianBlur
         inkscape:collect="always"
         stdDeviation="0.067401617"
         id="feGaussianBlur9393" /></filter><filter
       inkscape:collect="always"
       style="color-interpolation-filters:sRGB"
       id="filter9397"
       x="-0.063595996"
       y="-0.039130195"
       width="1.127192"
       height="1.0782604"><feGaussianBlur
         inkscape:collect="always"
         stdDeviation="0.085039961"
         id="feGaussianBlur9399" /></filter><filter
       inkscape:collect="always"
       style="color-interpolation-filters:sRGB"
       id="filter9403"
       x="-0.06275541"
       y="-0.037550275"
       width="1.1255108"
       height="1.0751006"><feGaussianBlur
         inkscape:collect="always"
         stdDeviation="0.076298328"
         id="feGaussianBlur9405" /></filter><filter
       inkscape:collect="always"
       style="color-interpolation-filters:sRGB"
       id="filter9426"
       x="-0.019827304"
       y="-0.016769127"
       width="1.0396546"
       height="1.0335383"><feGaussianBlur
         inkscape:collect="always"
         stdDeviation="0.5421202"
         id="feGaussianBlur9428" /></filter><filter
       inkscape:collect="always"
       style="color-interpolation-filters:sRGB"
       id="filter9430"
       x="-0.02080704"
       y="-0.031884139"
       width="1.0416141"
       height="1.0637683"><feGaussianBlur
         inkscape:collect="always"
         stdDeviation="0.74366755"
         id="feGaussianBlur9432" /></filter><filter
       inkscape:collect="always"
       style="color-interpolation-filters:sRGB"
       id="filter9434"
       x="-0.023868234"
       y="-0.014082012"
       width="1.0477365"
       height="1.028164"><feGaussianBlur
         inkscape:collect="always"
         stdDeviation="0.17939016"
         id="feGaussianBlur9436" /></filter></defs><g
     inkscape:label="Layer 1"
     inkscape:groupmode="layer"
     id="layer1"><g
       id="g9536"><rect
         style="display:inline;opacity:1;fill:#ed0e0e;fill-opacity:1;stroke:none;stroke-width:0.799999"
         id="rect9490"
         width="107.67498"
         height="114.34905"
         x="2.2246897"
         y="3.5595036" /><g
         id="g861"
         style="display:inline"
         inkscape:label="Donald"
         transform="matrix(0.61603406,0,0,0.61603406,-3.9124982,-3.7725751)"><g
           id="g2031"
           style="display:inline;opacity:1"><path
             style="display:inline;opacity:1;mix-blend-mode:normal;fill:#000000;fill-opacity:1;stroke:none;stroke-width:0.264583px;stroke-linecap:butt;stroke-linejoin:miter;stroke-opacity:1;filter:url(#filter9434)"
             d="m 55.394775,81.868583 c -2.356903,-0.121467 -4.723212,0.674905 -6.57621,2.126516 -0.923704,0.910236 -1.975712,1.696176 -2.721429,2.773016 -2.17495,2.177124 -3.670502,4.920276 -4.995994,7.669965 -1.127779,2.672664 -1.789742,5.52058 -2.212414,8.3837 -0.172283,0.93419 -0.0057,2.52799 0.850226,2.89291 0.624581,-0.63235 0.664626,-2.56206 1.306572,-3.76828 0.573814,-1.33317 0.882834,-2.619904 1.80756,-4.032252 0.617667,-1.00858 1.088319,-1.348951 2.215674,-1.388002 1.22939,0.09888 1.6316,1.20145 2.24761,2.236165 0.901312,1.372869 1.288424,3.577579 2.071308,5.313289 0.513193,1.32418 0.940128,2.67468 1.348284,4.03301 0.611616,1.52968 0.881247,3.00267 1.584221,4.31729 0.735064,0.11201 -0.136199,-2.13625 -0.220469,-2.98125 -0.21457,-1.05545 -0.575619,-1.80065 -0.723269,-3.11753 -0.193819,-1.41127 -0.17355,-2.60795 -0.196618,-4.033 0.233511,-1.21518 0.166504,-2.667902 0.236742,-3.900301 0.179014,-1.596768 0.552627,-3.175691 0.98597,-4.717879 0.458771,-1.114677 0.675609,-2.165222 1.44025,-3.660146 0.613206,-1.24468 1.716352,-2.259822 2.579073,-3.327422 0.421668,-0.648628 0.779986,-1.622638 -0.09222,-2.360794 l -0.934851,-2.459005 z"
             id="path2004"
             sodipodi:nodetypes="scccccccccccccccccccccs" /><path
             style="opacity:1;fill:#000000;fill-opacity:1;stroke:none;stroke-width:0.264583px;stroke-linecap:butt;stroke-linejoin:miter;stroke-opacity:1"
             d="m 73.93538,63.317 c 2.547793,-4.020473 5.695307,-7.658081 8.887976,-11.168959 6.007098,-5.600043 12.327655,-10.96846 19.649674,-14.789765 6.61347,-3.518918 14.45975,-5.265909 21.87544,-3.622965 6.75372,0.894796 12.58032,5.907643 15.2117,12.075442 1.83315,3.743003 1.69349,8.204339 1.11485,12.237246 -0.92482,4.543867 -3.99463,8.126185 -7.58991,10.854814 -2.76025,2.058891 -6.0948,3.286974 -9.28112,4.511949 -3.48961,1.371899 -7.28985,0.634818 -10.75075,1.959584 C 99.703338,79.928014 86.694059,85.404439 73.414762,90.155553 71.340421,92.200446 67.893925,91.096011 65.266835,91.37218 61.221608,91.251628 56.72414,90.585343 54.018248,87.228694 51.308031,83.976019 52.143877,78.988895 54.49773,75.7471 c 2.095331,-4.168939 5.967653,-7.107778 9.733668,-9.688805 3.03152,-1.579931 6.346736,-2.261768 9.703982,-2.741295 z"
             id="path2015"
             sodipodi:nodetypes="cssssssssssssssssssssssssscccssssssssssssssssc" /><path
             id="path2017"
             style="opacity:1;mix-blend-mode:normal;fill:#1267c7;fill-opacity:1;stroke:none;stroke-width:0.264583px;stroke-linecap:butt;stroke-linejoin:miter;stroke-opacity:1;filter:url(#filter9430)"
             d="m 117.85173,34.279122 c -5.71076,0.179157 -11.08139,2.055556 -16.05436,4.8991 -6.81561,3.944317 -12.88876,9.085185 -18.483713,14.629971 -3.089088,3.451638 -6.037043,7.056251 -8.489542,11.00642 -3.449278,0.568041 -7.059305,1.044319 -10.108519,2.897196 -3.022648,2.038758 -6.020927,4.427424 -8.093424,7.549849 -0.77498,1.29406 -1.609774,2.567259 -2.17904,3.97172 -1.027584,2.582008 -0.905695,5.907353 1.190059,7.9175 2.521599,2.501173 6.24243,2.995524 9.618041,3.033871 1.669671,-0.0398 3.342147,0.115107 5.007658,0.04892 0.952955,-0.05647 1.759963,-0.586829 2.520033,-1.105645 1.769257,-0.749472 3.607603,-1.322216 5.389562,-2.044538 11.929769,-4.466714 23.687045,-9.42111 35.770425,-13.451297 3.50246,-0.897521 7.2607,-0.383389 10.57986,-2.024771 3.94878,-1.464183 7.87829,-3.393882 10.73107,-6.614258 2.47626,-2.611489 4.18666,-6.077763 4.24374,-9.743489 0.3405,-3.628615 -0.15999,-7.427216 -2.02356,-10.598264 -2.34987,-4.440559 -6.39364,-7.957636 -11.23409,-9.345563 -2.73658,-0.67138 -5.56244,-1.091238 -8.3842,-1.026726 z" /><path
             style="mix-blend-mode:normal;fill:#000000;fill-opacity:1;stroke:none;stroke-width:0.264583px;stroke-linecap:butt;stroke-linejoin:miter;stroke-opacity:1;filter:url(#filter2024)"
             d="m 75.25013,64.098872 c -0.89626,1.371711 -1.747895,2.774265 -2.685027,4.118262 -0.926583,1.221236 -1.79693,2.525982 -3.04144,3.453084 -0.349244,0.30426 -0.766296,0.534305 -1.217141,0.64539 -0.52734,-0.091 -0.277471,-0.798773 -0.0174,-1.060656 0.697777,-0.914752 1.371318,-1.848072 2.017375,-2.799584 0.498066,-0.668896 0.959697,-1.363141 1.476759,-2.017905 0.326191,-0.43503 0.649232,-0.871402 0.925056,-1.339683 0.285162,-0.383675 0.634788,-0.744321 1.063814,-0.961035 0.485203,-0.07165 0.98749,-0.0049 1.478003,-0.03787 z"
             id="path2022"
             sodipodi:nodetypes="cccccccccccc" /></g><g
           id="g1994"
           style="display:inline;opacity:1"><path
             style="opacity:1;fill:#000000;fill-opacity:1;stroke:none;stroke-width:0.264583px;stroke-linecap:butt;stroke-linejoin:miter;stroke-opacity:1"
             d="m 81.014299,75.193855 c -3.446855,1.844248 -6.186536,4.926698 -8.086988,8.350606 -1.950707,2.012033 -2.583681,6.363428 -2.31509,7.753935 -3.676967,0.519426 -4.716476,4.862404 -5.86223,7.867923 -1.633529,5.134721 -1.315491,10.554441 -1.381681,15.864581 -1.884343,3.7474 -0.419632,7.52375 2.104091,10.53896 1.170011,2.21343 3.79354,2.94636 5.695247,4.4142 3.942524,2.42122 7.796313,5.1092 11.794297,7.36369 8.980758,0.79095 18.012015,1.10158 26.932445,2.45967 3.06058,-0.39971 6.75853,0.35796 9.41022,-1.26923 2.37738,-2.00485 4.99531,-3.79112 7.2237,-5.93135 2.98455,-4.12261 3.58509,-9.32897 4.90608,-14.09639 -1.82588,-3.06945 -0.71479,-6.61471 -0.88793,-10.03 -0.97636,-3.80845 -0.40265,-8.11237 -2.32123,-11.623995 -1.23457,-3.968339 -5.65706,-5.638431 -5.32947,-10.056429 -1.56377,-3.267781 -4.0008,-6.044415 -5.76669,-9.165418 0.18834,-2.27487 0.22477,-9.626077 1.32485,-7.474652 3.62337,2.51406 -0.0561,-4.94781 -0.78655,-6.60699 -1.83438,-2.685128 -3.38094,-6.347277 -6.80609,-7.248519 -3.4299,-1.387004 -7.29732,-0.52714 -10.63312,0.766883 -3.874402,0.843471 -6.590266,3.453799 -9.598329,5.793407 -2.921334,2.244187 -5.249667,5.434209 -7.167404,8.192374 -0.816158,1.378816 -1.61986,2.765038 -2.448128,4.136744 z"
             id="path365"
             sodipodi:nodetypes="ccccccccccccccccccccccc" /><path
             id="path1018"
             style="opacity:1;mix-blend-mode:normal;fill:#ffffff;fill-opacity:1;stroke:none;stroke-width:0.264583px;stroke-linecap:butt;stroke-linejoin:miter;stroke-opacity:1;filter:url(#filter9426)"
             d="m 103.84534,60.619039 c -0.24053,0.01876 -0.90431,0.927007 -1.06763,1.484664 -0.90129,1.216708 -1.78896,2.418634 -2.49959,3.747058 -1.017184,1.55019 -1.879958,3.152739 -3.240115,4.437455 -0.853461,1.634267 -2.603003,2.608713 -4.045748,3.682463 -1.553949,0.921978 -2.925283,2.063077 -4.400765,3.111438 -1.561706,1.230314 -3.304718,-0.643294 -4.887557,-0.942062 -1.754513,0.07527 -3.318368,1.054268 -4.580082,2.244825 -2.12428,1.765124 -3.746552,4.060636 -5.166093,6.410461 -1.38084,1.77145 -1.782921,3.992358 -1.803508,6.197038 0.202092,0.606186 0.322785,1.654572 -0.533301,1.761649 -1.55522,-0.02331 -2.948919,1.040452 -3.545003,2.443779 -1.15781,2.220774 -1.898911,4.574503 -2.44998,6.994923 -0.846724,4.3617 -0.597722,8.79188 -0.67076,13.21728 -1.551299,2.58289 -0.765422,5.92765 1.013375,8.18348 0.883066,1.29181 1.825086,2.64209 3.284554,3.32641 4.791855,2.86023 9.356584,6.08784 14.193966,8.87491 8.828761,0.76847 17.704157,1.11228 26.478487,2.41226 2.61328,-0.34449 5.36683,0.23539 7.88272,-0.71314 1.59212,-0.84093 2.82756,-2.20026 4.2969,-3.22512 1.65473,-1.29793 3.39236,-2.50625 4.26795,-4.45813 1.79624,-3.47226 2.3584,-7.38265 3.37293,-11.11353 -1.46817,-2.91976 -0.81936,-6.29575 -0.77825,-9.38289 -0.1335,-1.74078 -0.6129,-3.51763 -0.66869,-5.2064 -0.21387,-2.39037 -0.50886,-4.845441 -1.6707,-6.98769 -1.15715,-2.93322 -4.18525,-4.716825 -5.04879,-7.813993 -0.38384,-1.039943 -0.0708,-2.268808 -0.83406,-3.172933 -0.0945,-0.162229 -0.18838,-0.306823 -0.28215,-0.438216 -0.20717,-0.925218 -1.40533,-2.191155 -1.74408,-2.947107 -0.99344,-1.511182 -1.6654,-3.122652 -3.48454,-3.733622 0.10673,-1.361823 -1.44763,-1.639252 -2.41123,-2.324923 -1.42229,-0.687507 -3.07161,-0.609682 -4.26589,-1.828312 -1.37517,-1.055295 -3.36853,-1.048337 -5.05395,-1.362708 -2.0417,-0.07984 -0.72863,-2.533323 -0.0512,-3.518648 1.622,-1.233168 3.43973,-3.141497 5.61878,-2.863391 1.59296,0.193326 0.59325,-0.773942 -0.75138,-0.850078 -1.67896,-0.02544 -3.13285,0.735076 -4.44004,1.714624 -1.24944,0.588813 -2.59255,3.132178 -3.928955,2.353862 0.376275,-1.684302 1.553765,-2.777465 2.283585,-4.560445 0.58653,-1.403523 0.85807,-2.887506 1.50791,-4.274675 0.23891,-0.656502 0.22884,-0.890392 0.10284,-0.880566 z"
             sodipodi:nodetypes="scccccccccccccccccccccccccccccccccccccccss" /></g><g
           id="g3118"
           style="display:inline"><path
             style="opacity:1;fill:#050303;fill-opacity:1;stroke:none;stroke-width:0.799999"
             d="m 75.284645,154.07357 c 1.440561,5.15807 3.40143,10.2925 6.69558,14.56148 2.568392,2.40626 6.189665,3.24603 9.576062,3.74186 3.579211,0.17687 7.202087,0.67804 10.752383,-0.0869 3.83513,-0.44953 7.65068,-2.08719 10.27994,-4.96259 3.18415,-4.45748 4.70061,-9.79882 6.37243,-14.93902 0.60769,-2.57748 2.37325,-6.81209 2.4391,-9.49943 -13.53396,-6.55273 -35.933691,-2.87799 -49.431227,-1.07468 0.271058,4.2841 2.225568,8.17088 3.315732,12.25932 z"
             id="path2968"
             sodipodi:nodetypes="cccccccccc" /><path
             id="path3096"
             style="opacity:1;mix-blend-mode:normal;fill:#ecc759;fill-opacity:1;stroke:none;stroke-width:0.799999;filter:url(#filter6369)"
             d="m 74.355469,143.62695 c 0.752218,3.88384 2.484076,7.64406 3.460937,11.52735 1.310734,4.2671 2.443263,7.9001 5.800849,12.04741 2.655705,2.67515 5.607495,3.18796 8.644158,3.5441 3.762303,0.35344 7.697989,0.287 11.428167,-0.59185 3.35336,-0.73689 6.62885,-2.3121 8.33581,-5.87857 2.47962,-4.2828 3.80473,-9.0934 5.2654,-13.7863 0.60361,-2.09455 1.4013,-4.14029 1.80101,-6.28987 0.26391,-6.13278 -45.506748,-4.96806 -44.736331,-0.57227 z"
             sodipodi:nodetypes="ccccccccc" /><path
             id="path3102"
             style="opacity:1;mix-blend-mode:normal;fill:#050303;fill-opacity:1;stroke:none;stroke-width:0.853111;filter:url(#filter6365)"
             d="m 95.957031,138.39949 c -6.03812,0.1621 -12.073502,0.35965 -17.96558,1.90282 -0.442864,0.14447 -1.451826,0.24319 -1.874065,0.45818 0.960575,4.48432 3.080072,8.76221 4.135069,13.21564 1.188429,4.02756 2.589021,7.95341 5.037871,11.22184 2.452143,2.28167 5.381493,3.21083 8.407008,3.52538 2.561682,0.23089 5.618303,0.22081 8.084716,-0.23762 2.97104,-0.57088 6.13895,-2.50452 7.32041,-4.0138 1.25997,-1.78234 2.48514,-3.91875 3.15573,-5.48484 2.12196,-5.5778 3.23445,-11.19029 4.87088,-16.9586 0.24682,-0.6058 -0.8888,-1.25341 -1.21676,-1.47971 -3.15348,-1.15894 -6.5282,-1.53637 -9.77116,-1.83125 -3.33997,-0.25496 -6.799165,-0.34504 -10.184119,-0.31802 z"
             sodipodi:nodetypes="cccccccccccccc" /><path
             id="path3108"
             style="opacity:1;mix-blend-mode:normal;fill:#f09308;fill-opacity:1;stroke:none;stroke-width:0.853111;filter:url(#filter6361)"
             d="m 94.486328,140.56055 c -5.292124,0.16858 -10.923177,0.19942 -16.097822,1.50232 1.304696,4.2418 2.95518,8.53091 4.076411,12.82885 1.054424,3.21804 2.622669,6.95252 4.836561,9.57952 2.921254,2.43614 6.042531,2.36593 9.612412,2.58353 2.929903,0.0939 6.666,-0.75572 9.13299,-2.42408 2.27855,-1.47563 3.40057,-3.81577 4.45515,-6.16062 2.03879,-5.16406 2.98699,-10.62292 4.48145,-15.95392 -1.6315,-0.64538 -3.55476,-0.95348 -5.27526,-1.25323 -5.00295,-0.74642 -10.130608,-0.75664 -15.221892,-0.70237 z"
             sodipodi:nodetypes="cccccccccc" /><path
             style="opacity:1;mix-blend-mode:normal;fill:#000000;fill-opacity:1;stroke:none;stroke-width:0.799999;filter:url(#filter6357)"
             d="m 89.7815,140.5098 c 0.899872,2.04117 1.65713,4.14088 2.450172,6.22381 0.54543,1.20785 1.006357,2.45449 1.560069,3.65659 0.465195,0.86117 0.900113,1.84167 1.766324,2.36975 1.315197,0.683 3.090646,0.18633 3.882549,-1.06278 0.729436,-1.04409 1.361396,-2.16489 1.714496,-3.39629 0.48821,-1.68438 1.17044,-3.30384 1.67911,-4.98065 0.26208,-1.03099 0.93719,-2.657 1.37841,-3.63544 -4.613456,-0.121 -10.303876,0.71498 -14.43113,0.82503 z"
             id="path3120"
             sodipodi:nodetypes="cssssssccc" /><path
             id="path3122"
             style="opacity:1;mix-blend-mode:normal;fill:#ffffff;fill-opacity:1;stroke:none;stroke-width:0.799999;filter:url(#filter6353)"
             d="m 91.530342,139.63716 c 1.256897,3.5351 2.804976,8.57301 4.475517,11.43315 0.650741,0.78188 1.873162,0.33382 2.273438,-0.48242 1.438175,-2.05213 1.817023,-4.5964 2.764883,-6.87365 0.20298,-0.62908 1.02657,-2.90463 1.1855,-3.54576 -3.16675,-0.006 -7.894179,-0.62449 -10.699338,-0.53132 z"
             sodipodi:nodetypes="cccccc" /></g><g
           id="g8584"><path
             style="opacity:1;fill:#000000;fill-opacity:1;stroke:none;stroke-width:0.799999;filter:url(#filter8045)"
             d="m 75.626497,95.727365 c -0.944004,1.789803 -1.857695,3.60407 -2.284986,5.597595 -1.083799,3.4257 -1.622874,7.01685 -1.76577,10.60062 0.182402,4.07315 -0.251163,8.24533 1.012885,12.19397 0.564028,1.7077 0.719467,3.95909 2.573541,4.80627 1.67653,1.14407 3.899919,0.76058 5.693418,0.10938 3.168852,-1.12841 6.292252,-3.08085 7.78468,-6.21303 1.174971,-1.90787 2.061745,-3.97123 2.556911,-6.15982 0.892547,-2.99454 0.820101,-6.16087 0.917701,-9.25465 -0.218414,-5.04009 -0.28795,-10.183312 -1.834078,-15.03149 -0.707953,-1.874743 -1.580428,-3.794315 -3.044642,-5.193204 -1.584872,-1.190807 -4.396687,-0.547891 -5.772476,0.774815 -2.649596,2.183504 -4.6822,5.120442 -5.837184,7.769544 z"
             id="path7216"
             sodipodi:nodetypes="ccccccccccccc" /><path
             id="path7218"
             style="opacity:1;fill:#afe0fb;fill-opacity:1;stroke:none;stroke-width:0.799999;filter:url(#filter8041)"
             d="m 84.800781,88.162109 c -2.105014,0.214128 -3.452771,2.06729 -4.794922,3.494141 -1.912125,2.322162 -3.177595,5.047591 -4.384541,7.765575 -1.056939,2.879765 -1.757104,5.894485 -2.166853,8.932605 -0.407383,3.48685 -0.254325,7.00801 -0.140686,10.50735 0.08572,2.11037 0.531438,4.18259 1.183598,6.18502 0.248041,1.11926 0.716966,2.41914 1.947817,2.75266 1.949369,0.74457 3.96526,-0.28746 5.746212,-1.03384 2.341215,-1.10944 4.373066,-2.95917 5.431804,-5.35045 2.466351,-4.22389 2.978684,-9.2414 2.862622,-14.04288 -0.06253,-3.7645 -0.257019,-7.522903 -0.906474,-11.247981 -0.514965,-2.681753 -1.375527,-5.550345 -3.297622,-7.634599 -0.405504,-0.337264 -0.978389,-0.366098 -1.480955,-0.327601 z" /><path
             style="opacity:1;fill:#000000;fill-opacity:1;stroke:none;stroke-width:0.799999;filter:url(#filter8049)"
             d="m 81.722192,110.43114 c -1.097762,1.96943 -1.900364,4.36394 -2.014924,6.12389 -0.07481,1.14925 -0.223212,2.58198 -0.0556,3.74159 0.111472,1.30272 0.205324,2.67874 0.618842,3.92619 0.318048,0.95945 0.32545,1.64047 0.874289,2.33315 0.391517,0.76989 1.43191,1.12836 2.131589,0.53845 1.005097,-0.72657 1.857617,-1.64354 2.866612,-2.36411 0.881656,-0.87296 1.704682,-1.84943 2.132728,-3.0306 0.444556,-1.10585 1.025453,-2.15523 1.42991,-3.27528 0.318066,-1.15938 0.165339,-2.37721 0.247277,-3.56379 0.05084,-0.76614 -0.04319,-1.90836 -0.35682,-2.60707 -0.815649,-2.09239 -2.027679,-3.59144 -3.94018,-4.4657 -0.790651,-0.36215 -1.733044,-0.10761 -2.295234,0.54017 -0.650413,0.6693 -1.247503,1.40945 -1.638489,2.10311 z"
             id="path7286"
             sodipodi:nodetypes="cssssssssscccc" /><ellipse
             style="opacity:0.604361;mix-blend-mode:normal;fill:#ffffff;fill-opacity:1;stroke:none;stroke-width:0.217758;filter:url(#filter8575)"
             id="path8105"
             cx="88.61129"
             cy="115.48767"
             rx="0.72183907"
             ry="1.5602158"
             transform="matrix(1.4264966,-0.03294033,-0.04108608,1.394785,-38.396479,-49.097526)" /></g><g
           id="g8596"
           transform="matrix(-1,0,0,1,194.36594,0)"><path
             style="opacity:1;fill:#000000;fill-opacity:1;stroke:none;stroke-width:0.799999;filter:url(#filter8045)"
             d="m 75.626497,95.727365 c -0.944004,1.789803 -1.857695,3.60407 -2.284986,5.597595 -1.083799,3.4257 -1.622874,7.01685 -1.76577,10.60062 0.182402,4.07315 -0.251163,8.24533 1.012885,12.19397 0.564028,1.7077 0.719467,3.95909 2.573541,4.80627 1.67653,1.14407 3.899919,0.76058 5.693418,0.10938 3.168852,-1.12841 6.292252,-3.08085 7.78468,-6.21303 1.174971,-1.90787 2.061745,-3.97123 2.556911,-6.15982 0.892547,-2.99454 0.820101,-6.16087 0.917701,-9.25465 -0.218414,-5.04009 -0.28795,-10.183312 -1.834078,-15.03149 -0.707953,-1.874743 -1.580428,-3.794315 -3.044642,-5.193204 -1.584872,-1.190807 -4.396687,-0.547891 -5.772476,0.774815 -2.649596,2.183504 -4.6822,5.120442 -5.837184,7.769544 z"
             id="path8588"
             sodipodi:nodetypes="ccccccccccccc" /><path
             id="path8590"
             style="opacity:1;fill:#afe0fb;fill-opacity:1;stroke:none;stroke-width:0.799999;filter:url(#filter8041)"
             d="m 84.800781,88.162109 c -2.105014,0.214128 -3.452771,2.06729 -4.794922,3.494141 -1.912125,2.322162 -3.177595,5.047591 -4.384541,7.765575 -1.056939,2.879765 -1.757104,5.894485 -2.166853,8.932605 -0.407383,3.48685 -0.254325,7.00801 -0.140686,10.50735 0.08572,2.11037 0.531438,4.18259 1.183598,6.18502 0.248041,1.11926 0.716966,2.41914 1.947817,2.75266 1.949369,0.74457 3.96526,-0.28746 5.746212,-1.03384 2.341215,-1.10944 4.373066,-2.95917 5.431804,-5.35045 2.466351,-4.22389 2.978684,-9.2414 2.862622,-14.04288 -0.06253,-3.7645 -0.257019,-7.522903 -0.906474,-11.247981 -0.514965,-2.681753 -1.375527,-5.550345 -3.297622,-7.634599 -0.405504,-0.337264 -0.978389,-0.366098 -1.480955,-0.327601 z" /><path
             style="opacity:1;fill:#000000;fill-opacity:1;stroke:none;stroke-width:0.799999;filter:url(#filter8049)"
             d="m 81.722192,110.43114 c -1.097762,1.96943 -1.900364,4.36394 -2.014924,6.12389 -0.07481,1.14925 -0.223212,2.58198 -0.0556,3.74159 0.111472,1.30272 0.205324,2.67874 0.618842,3.92619 0.318048,0.95945 0.32545,1.64047 0.874289,2.33315 0.391517,0.76989 1.43191,1.12836 2.131589,0.53845 1.005097,-0.72657 1.857617,-1.64354 2.866612,-2.36411 0.881656,-0.87296 1.704682,-1.84943 2.132728,-3.0306 0.444556,-1.10585 1.025453,-2.15523 1.42991,-3.27528 0.318066,-1.15938 0.165339,-2.37721 0.247277,-3.56379 0.05084,-0.76614 -0.04319,-1.90836 -0.35682,-2.60707 -0.815649,-2.09239 -2.027679,-3.59144 -3.94018,-4.4657 -0.790651,-0.36215 -1.733044,-0.10761 -2.295234,0.54017 -0.650413,0.6693 -1.247503,1.40945 -1.638489,2.10311 z"
             id="path8592"
             sodipodi:nodetypes="cssssssssscccc" /><ellipse
             style="opacity:0.604361;mix-blend-mode:normal;fill:#ffffff;fill-opacity:1;stroke:none;stroke-width:0.217758;filter:url(#filter8575)"
             id="ellipse8594"
             cx="88.61129"
             cy="115.48767"
             rx="0.72183907"
             ry="1.5602158"
             transform="matrix(1.4264966,-0.03294033,-0.04108608,1.394785,-35.726851,-49.097526)" /></g><g
           id="g2858"><path
             style="opacity:1;fill:#000000;fill-opacity:1;stroke:none;stroke-width:0.799999"
             d="m 67.407043,120.18432 c 2.870889,0.22415 4.510239,2.68126 5.972225,4.84157 0.883531,2.83979 3.867798,4.57448 6.66168,3.23036 3.018749,-0.6591 5.27115,-3.01957 8.061814,-4.24089 3.295986,-1.66452 6.874253,-3.8051 10.719291,-2.82881 4.776007,1.16088 8.874747,3.93059 13.069117,6.35935 2.29137,1.36882 5.38001,1.48241 7.34668,-0.50188 1.91378,-2.26395 3.46031,-5.10813 6.18684,-6.49593 2.28464,-0.84615 4.86908,-0.16018 6.21571,1.93411 1.41621,2.30147 1.35889,5.19785 0.0336,7.52043 -0.72713,2.07408 -2.44986,4.17187 -3.54807,5.59677 1.8244,1.88102 3.64585,3.75386 5.05264,5.95594 1.87486,2.44543 -1.24116,5.69626 -3.82197,5.50929 -5.15983,0.49389 -10.04948,-1.53663 -15.11521,-2.07294 -7.39132,-1.60276 -14.982699,-1.76457 -22.514128,-1.71612 -2.874092,0.58922 -5.809932,0.87169 -8.713309,1.34409 -3.40814,0.84569 -6.938744,0.99316 -10.342934,1.87046 -3.053351,0.19698 -6.145477,1.16245 -9.196758,0.5154 -2.283194,-0.6876 -4.993293,-3.07764 -3.266963,-5.59402 1.420554,-2.41873 4.348033,-4.05555 5.817095,-6.0481 -1.796123,-1.73586 -3.509905,-3.62081 -4.267016,-6.06992 -1.072222,-2.74437 -0.564144,-6.21737 1.952848,-8.00803 1.026097,-1.26645 2.27751,-1.12602 3.696768,-1.10113 z"
             id="path926"
             sodipodi:nodetypes="cssssssssssssssscssssssscsssscssscscscssssscsscscssssscsssssssc" /><path
             id="path1087"
             style="opacity:1;fill:#f8c82d;fill-opacity:1;stroke:none;stroke-width:0.799999;filter:url(#filter2847)"
             d="m 66.001953,121.77148 c -3.002459,0.55027 -4.098524,4.17721 -2.909042,6.74331 0.887038,2.73154 3.027203,4.74139 5.030136,6.68443 -2.295489,2.41671 -5.054834,4.46465 -6.765412,7.38141 -0.0565,3.08964 4.162185,3.37216 6.462851,2.90238 8.517639,-0.96997 16.888964,-3.17633 25.467498,-3.57836 9.571726,0.0474 19.162336,0.96904 28.502546,3.09615 2.93375,0.44066 6.09483,1.05696 8.96953,0.11266 3.18527,-1.88072 -0.44655,-4.69479 -1.8766,-6.41192 -1.18494,-1.55062 -4.13242,-2.95081 -1.54149,-4.68942 1.78722,-2.66762 4.60945,-5.5136 3.74591,-9.01323 -0.43842,-2.47614 -3.37042,-4.08885 -5.59903,-2.73789 -3.44479,1.99109 -4.33276,7.26837 -8.77777,7.7281 -4.30261,0.61921 -7.58497,-2.66575 -11.18887,-4.39449 -3.12023,-1.53774 -6.500523,-3.41983 -10.092665,-2.91823 -4.839474,1.13426 -8.83531,4.27205 -13.174782,6.51651 -2.432977,1.23259 -5.560746,1.66811 -7.85188,-0.11882 -2.338875,-1.55849 -2.624975,-4.77079 -4.964959,-6.36152 -0.925956,-0.86241 -2.220543,-1.05005 -3.435971,-0.94107 z"
             sodipodi:nodetypes="ccccccccccccccccccccccccc" /><path
             style="opacity:1;fill:#000000;fill-opacity:1;stroke:none;stroke-width:0.799999;filter:url(#filter1102)"
             d="m 79.643892,137.09651 c 1.847544,-1.32618 3.988494,-2.2714 6.264827,-2.50746 2.787454,-0.52962 5.620279,-0.74623 8.445501,-0.95438 3.475154,0.0743 6.98055,-0.01 10.41292,0.62513 1.46889,0.073 2.87592,0.49353 4.29827,0.83448 1.72935,0.3878 3.48309,0.85602 5.06117,1.66851 -0.28351,1.44395 -2.10823,-0.20052 -3.10305,-0.0904 -2.93311,-0.63291 -5.92189,-0.9974 -8.9097,-1.24255 -2.585183,-0.12314 -5.171855,-0.12023 -7.75892,-0.0581 -1.882597,-0.0899 -3.739978,0.2809 -5.615358,0.37028 -1.804348,0.26197 -3.589916,0.63426 -5.385055,0.94458 -1.202117,0.43107 -2.439943,0.91756 -3.710605,0.40989 z"
             id="path1092" /><path
             style="opacity:1;mix-blend-mode:normal;fill:#000000;fill-opacity:1;stroke:none;stroke-width:0.799999;filter:url(#filter1114)"
             d="m 66.240138,130.81176 c 0,0 -0.611791,-0.27809 -0.667409,-0.61179 -0.05561,-0.33371 -0.111233,-1.05673 0.111236,-1.44605 0.222467,-0.38932 0.333703,-1.05673 0.556173,-1.44605 0.222467,-0.38932 0.333703,-0.94549 0.77864,-1.00111 0.444939,-0.0556 1.334815,-0.0556 1.835369,0.0556 0.500555,0.11123 0.834258,0.27808 1.167964,0.50055 0.333703,0.22247 0.723024,0.55617 0.834257,0.94549 0.111234,0.38933 0.05562,0.88988 -0.333703,0.83427 -0.389321,-0.0556 -0.556172,-0.0556 -1.223579,-0.33371 -0.667408,-0.27809 -1.001112,-0.3337 -1.334815,-0.38932 -0.333703,-0.0556 -0.333703,0.0556 -0.667406,0.55617 -0.333703,0.50056 -0.444939,0.61179 -0.556172,1.11235 -0.111237,0.50055 -0.500555,1.22358 -0.500555,1.22358 z"
             id="path1094" /><path
             style="opacity:1;mix-blend-mode:normal;fill:#000000;fill-opacity:1;stroke:none;stroke-width:0.799999;filter:url(#filter1118)"
             d="m 67.57495,135.70607 c -0.235031,-0.28727 -0.619714,-0.44598 -0.76572,-0.80497 0.267443,-0.29678 0.565733,-0.62169 0.578088,-1.04503 0.115007,-0.68978 0.119359,-1.39197 0.185987,-2.08661 0.0091,-0.64581 -0.0176,-1.31456 -0.296236,-1.90975 -0.106635,-0.39612 -0.317951,-0.73784 -0.516633,-1.09094 -0.0925,-0.35484 0.06614,-0.78257 0.276935,-1.07161 0.298568,-0.0845 0.62861,-0.45861 0.926481,-0.30761 0.185204,0.43325 0.316984,0.88979 0.440509,1.34262 0.05678,0.45892 0.07356,0.92288 0.155612,1.3782 0.03192,0.58697 -0.0409,1.17682 0.03963,1.76166 0.03944,0.91499 -0.0898,1.82791 -0.217625,2.7306 -0.145295,0.44525 -0.525998,0.74762 -0.807031,1.10344 z"
             id="path1096"
             sodipodi:nodetypes="sccccccccccccss" /><path
             style="opacity:1;mix-blend-mode:normal;fill:#000000;fill-opacity:1;stroke:none;stroke-width:0.799999;filter:url(#filter1106)"
             d="m 127.36349,136.01197 c -0.27186,0.0641 -0.69278,0.34761 -0.89432,0.0317 -0.24516,-0.29465 -0.48883,-0.61813 -0.52217,-1.01411 -0.10192,-0.41661 -0.14857,-0.84146 -0.17599,-1.26849 -0.10893,-1.0715 -0.19517,-2.14507 -0.27885,-3.21872 -0.026,-0.39259 0.0915,-0.77566 0.11767,-1.16605 0.062,-0.35202 0.0985,-0.7061 0.0924,-1.06404 -0.016,-0.30141 0.0761,-0.62017 0.36532,-0.76265 0.1644,-0.056 0.4178,-0.36506 0.54186,-0.14307 0.14019,0.1785 0.30757,0.34015 0.37904,0.5612 0.10648,0.23426 0.21296,0.46851 0.31944,0.70277 -0.0337,0.42024 -0.11592,0.83591 -0.25674,1.23319 -0.087,0.49333 -0.0681,0.99848 -0.0891,1.49754 0.0145,0.75587 -0.0326,1.52169 0.14342,2.26377 0.10376,0.46596 0.26784,0.9241 0.25801,1.40844 0.0105,0.31272 0.008,0.62581 1e-5,0.93854 z"
             id="path1098" /><path
             style="opacity:1;mix-blend-mode:normal;fill:#000000;fill-opacity:1;stroke:none;stroke-width:0.799999;filter:url(#filter1110)"
             d="m 123.46815,127.5582 c -0.10716,0.23081 -0.39381,0.47043 -0.2099,0.74257 0.68789,0.21062 1.20253,0.10296 1.78883,-0.1361 0.30153,-0.17124 0.67605,-0.26786 1.00674,-0.11757 0.3485,0.12588 0.62228,0.38256 0.89788,0.61945 0.21465,0.0939 0.40781,0.23378 0.51041,0.45236 0.26311,0.38262 0.31393,0.85532 0.45341,1.28803 0.0643,0.15197 0.0623,0.49084 0.23329,0.50594 0.0867,-0.2865 0.10636,-0.59197 0.15917,-0.88698 0.0523,-0.26059 0.0426,-0.52605 -0.0198,-0.78403 -0.0616,-0.3658 -0.25943,-0.69031 -0.31287,-1.05862 -0.0785,-0.36163 -0.11098,-0.73901 -0.29091,-1.06978 -0.13755,-0.31976 -0.4298,-0.5477 -0.76318,-0.63515 -0.35707,-0.11905 -0.73855,-0.0842 -1.09939,-0.003 -0.24937,0.045 -0.49978,0.0943 -0.72715,0.20929 -0.3898,0.14312 -0.79689,0.26587 -1.12624,0.52938 -0.16714,0.11417 -0.33383,0.22899 -0.5003,0.34412 z"
             id="path1100"
             sodipodi:nodetypes="cccccccccccccccccc" /></g><g
           id="g9415"><path
             style="opacity:1;fill:#000000;fill-opacity:1;stroke:none;stroke-width:0.799999;filter:url(#filter9308)"
             d="m 86.874135,74.082168 c 0.95687,1.141593 1.928834,2.282837 2.714163,3.552556 0.538792,1.040536 1.407971,1.853989 2.023963,2.84215 0.231415,0.409706 0.221773,0.898367 0.304583,1.351187 0.03208,0.428269 0.136947,0.898961 -0.05985,1.300433 -0.306414,0.188794 -0.751773,-0.05815 -0.952717,-0.331561 -0.530179,-0.73201 -0.871249,-1.581713 -1.404525,-2.31318 C 88.944206,79.636489 88.263508,78.862508 87.850695,77.9291 87.439413,77.28461 86.793365,76.839104 86.329679,76.235096 86.003421,75.9107 85.804534,75.398463 86.02684,74.96205 c 0.176237,-0.376005 0.499661,-0.663704 0.847295,-0.879882 z"
             id="path8744" /><path
             style="opacity:1;fill:#000000;fill-opacity:1;stroke:none;stroke-width:0.799999;filter:url(#filter8959)"
             d="m 105.45029,76.418092 c -0.44111,0.773788 -0.86153,1.562206 -1.36197,2.299864 -0.5345,0.727149 -0.97907,1.516178 -1.44462,2.288271 -0.35753,0.586938 -0.60951,1.242375 -0.66754,1.931105 -0.058,0.217555 -0.0425,0.847742 0.30395,0.544151 0.60528,-0.53678 1.20621,-1.121431 1.53659,-1.874049 0.38306,-0.771181 0.66705,-1.602047 1.20951,-2.28334 0.43477,-0.563113 0.84672,-1.142817 1.2303,-1.741982 0.0729,-0.208077 0.52349,-0.348286 0.18863,-0.5391 -0.30887,-0.241517 -0.6535,-0.433789 -0.99485,-0.62492 z"
             id="path8746" /><path
             style="opacity:1;fill:#000000;fill-opacity:1;stroke:none;stroke-width:0.799999;filter:url(#filter8817)"
             d="m 113.45918,75.083277 c -0.61296,0.276091 -1.21245,0.585753 -1.76696,0.966201 -0.44148,0.09177 -0.74063,0.517864 -0.44565,0.921707 0.18119,0.4035 0.59075,0.81058 0.37724,1.282277 -0.12452,0.373797 -0.42767,0.751961 -0.86124,0.715433 -0.67723,-0.07527 -1.33548,-0.292855 -1.96978,-0.537187 -0.74143,-0.283278 -1.36829,-0.807239 -2.14181,-1.015886 -0.49776,-0.204229 -0.95499,-0.501165 -1.35563,-0.858917 -0.44039,-0.265561 -0.91624,-0.47385 -1.38782,-0.677076 -0.27314,-0.08492 -1.15543,-0.07275 -0.65096,-0.494784 0.27432,-0.330124 0.72886,-0.452819 1.13732,-0.338957 0.4789,0.05355 1.00745,0.0559 1.38189,0.40691 0.60525,0.440433 1.3417,0.644367 1.96253,1.060252 0.38556,0.239449 0.82096,0.374341 1.21245,0.60018 0.35848,0.04597 0.7119,-0.260828 0.99228,-0.44844 -0.006,-0.398124 -0.35638,-0.701412 -0.53697,-1.039443 -0.44515,-0.688559 -0.93108,-1.357941 -1.28615,-2.099551 0.26187,-0.195828 0.74686,0.07092 1.08664,0.12441 1.43735,0.415465 2.84681,0.922456 4.25262,1.432871 z"
             id="path8811" /><path
             style="opacity:1;fill:#000000;fill-opacity:1;stroke:none;stroke-width:0.799999;filter:url(#filter9379)"
             d="m 115.29455,75.806302 c 0.40136,0.09487 0.81278,0.191788 1.17114,0.40311 0.0953,0.05518 0.18239,0.150107 0.16367,0.267601 0.002,0.486406 -0.003,0.972945 0.002,1.459266 0.023,0.377767 0.18862,0.746974 0.12596,1.128397 -0.0265,0.171778 -0.17165,0.293514 -0.33214,0.33953 -0.21995,0.08571 -0.50379,0.14297 -0.70208,-0.02257 -0.20374,-0.183078 -0.22663,-0.478125 -0.24821,-0.734338 -0.005,-0.24515 1e-5,-0.498649 -0.10455,-0.726697 -0.1182,-0.253123 -0.23878,-0.507072 -0.30548,-0.779901 -0.0675,-0.266661 -0.15659,-0.529137 -0.29433,-0.768399 -0.0775,-0.141452 -0.0278,-0.327489 0.11114,-0.410915 0.12151,-0.08515 0.26766,-0.129662 0.41245,-0.15508 z"
             id="path9377" /><path
             style="opacity:1;mix-blend-mode:normal;fill:#000000;fill-opacity:1;stroke:none;stroke-width:0.799999;filter:url(#filter9385)"
             d="m 122.19001,89.98093 c 0.0322,0.323798 0.0272,0.654539 -0.0583,0.970267 -0.10385,0.585586 -0.03,1.183324 -0.0929,1.772616 -0.0193,0.186634 -0.0136,0.385028 0.0864,0.550143 0.0449,0.13128 0.17173,0.303238 0.3276,0.217011 0.18387,-0.08386 0.3169,-0.243593 0.4696,-0.371086 0.23616,-0.218503 0.48455,-0.476964 0.51921,-0.812644 0.008,-0.219949 0.0333,-0.438594 0.0524,-0.657517 0.0131,-0.446838 -0.20991,-0.880008 -0.55326,-1.15973 -0.22699,-0.201153 -0.4833,-0.367556 -0.75081,-0.50906 z"
             id="path9383" /><path
             style="opacity:1;fill:#000000;fill-opacity:1;stroke:none;stroke-width:0.799999;filter:url(#filter9391)"
             d="m 129.97683,115.07177 c -0.38936,-0.25997 -0.83763,-0.45048 -1.13669,-0.82631 -0.25428,-0.27687 -0.3857,-0.65625 -0.70837,-0.87147 -0.29648,-0.20484 -0.51596,-0.50467 -0.82092,-0.69611 -0.26626,-0.0318 -0.14697,0.38749 -0.19656,0.56208 -0.0287,0.30613 0.10704,0.58725 0.21409,0.86403 0.0382,0.24181 0.1115,0.47966 0.27414,0.66929 0.23925,0.33342 0.52955,0.63607 0.89361,0.83317 0.33461,0.18757 0.47199,0.57446 0.77836,0.79355 0.42419,0.36244 0.46197,1.02554 0.95512,1.32583 0.0961,0.0696 0.48857,0.17917 0.43482,-0.0182 -0.2292,-0.87861 -0.4584,-1.75721 -0.6876,-2.63582 z"
             id="path9389" /><path
             style="opacity:1;fill:#000000;fill-opacity:1;stroke:none;stroke-width:0.799999;filter:url(#filter9397)"
             d="m 63.552966,118.33594 c 0.136774,0.22052 0.503661,0.14638 0.546922,-0.10909 0.179507,-0.52516 0.339929,-1.061 0.410079,-1.6134 0.174297,-0.50498 0.504876,-0.93745 0.837886,-1.34774 0.228692,-0.24615 0.441687,-0.50776 0.67948,-0.74472 0.215284,-0.20446 0.476169,-0.3635 0.662108,-0.59672 0.119493,-0.19905 0.100844,-0.57004 -0.123389,-0.67368 -0.245152,0.0329 -0.440739,0.21712 -0.684485,0.26436 -0.322804,0.0503 -0.546981,0.30603 -0.745891,0.5421 -0.190771,0.19149 -0.470237,0.24831 -0.686281,0.40581 -0.380818,0.22978 -0.645514,0.65562 -0.627736,1.10688 -0.02743,0.67398 -0.133243,1.34235 -0.222231,2.01018 -0.02106,0.25161 -0.03408,0.50396 -0.04646,0.75602 z"
             id="path9395"
             sodipodi:nodetypes="sccccccccccccss" /><path
             style="opacity:1;fill:#000000;fill-opacity:1;stroke:none;stroke-width:0.799999;filter:url(#filter9403)"
             d="m 69.530718,92.65519 c 0.478627,0.0072 0.948114,-0.213123 1.427022,-0.103443 0.258968,-0.05669 0.540881,-0.003 0.726996,0.194847 0.219842,0.173226 0.400096,0.396342 0.644577,0.537798 0.25394,-0.07891 0.02339,-0.41588 0.02499,-0.602547 -0.200727,-0.870382 -0.575883,-1.705468 -0.616062,-2.608391 -0.02268,-0.564601 -0.166844,-1.114508 -0.280483,-1.665617 -0.261102,0.08164 -0.312314,0.395406 -0.34563,0.630678 -0.07344,0.602296 -0.180453,1.204288 -0.391929,1.775026 -0.109386,0.385277 -0.192822,0.801963 -0.480434,1.101456 -0.21748,0.26401 -0.458951,0.507236 -0.709049,0.740193 z"
             id="path9401" /></g></g></g></g></svg>
