<?xml version="1.0" encoding="UTF-8" standalone="no"?>
<!-- Created with Inkscape (http://www.inkscape.org/) -->

<svg
   width="210mm"
   height="297mm"
   viewBox="0 0 210 297"
   version="1.1"
   id="svg1"
   xml:space="preserve"
   inkscape:version="1.3.2 (091e20e, 2023-11-25, custom)"
   sodipodi:docname="ear-of-wheat.svg"
   xmlns:inkscape="http://www.inkscape.org/namespaces/inkscape"
   xmlns:sodipodi="http://sodipodi.sourceforge.net/DTD/sodipodi-0.dtd"
   xmlns:xlink="http://www.w3.org/1999/xlink"
   xmlns="http://www.w3.org/2000/svg"
   xmlns:svg="http://www.w3.org/2000/svg"><sodipodi:namedview
     id="namedview1"
     pagecolor="#ffffff"
     bordercolor="#000000"
     borderopacity="0.25"
     inkscape:showpageshadow="2"
     inkscape:pageopacity="0.0"
     inkscape:pagecheckerboard="0"
     inkscape:deskcolor="#d1d1d1"
     inkscape:document-units="mm"
     inkscape:zoom="2.2882633"
     inkscape:cx="-1.7480506"
     inkscape:cy="243.63455"
     inkscape:window-width="2560"
     inkscape:window-height="1377"
     inkscape:window-x="1272"
     inkscape:window-y="-8"
     inkscape:window-maximized="1"
     inkscape:current-layer="layer1" /><defs
     id="defs1"><linearGradient
       id="linearGradient1"
       inkscape:collect="always"><stop
         style="stop-color:#ffef0d;stop-opacity:1;"
         offset="0"
         id="stop1" /><stop
         style="stop-color:#f6c117;stop-opacity:1;"
         offset="1"
         id="stop2" /></linearGradient><linearGradient
       inkscape:collect="always"
       xlink:href="#linearGradient1"
       id="linearGradient2"
       x1="32.1441"
       y1="10.175111"
       x2="31.334717"
       y2="100.01672"
       gradientUnits="userSpaceOnUse" /></defs><g
     inkscape:label="Layer 1"
     inkscape:groupmode="layer"
     id="layer1"><path
       id="path9"
       style="fill:url(#linearGradient2);fill-opacity:1;stroke-width:0.539575"
       d="m 13.753052,4.5174274 c -0.348455,-0.00397 -1.253026,1.0684585 -1.96757,2.0248763 -0.573971,0.768229 -0.763259,1.6387549 -0.680679,2.8257971 0.08258,1.1870412 1.41545,2.8437842 2.723637,4.5723942 1.305405,-1.728262 2.662641,-3.378905 2.760123,-4.599019 C 16.690101,8.070619 16.383633,7.305246 15.827858,6.5582787 15.134673,5.6266309 14.067246,4.5313826 13.753052,4.5174274 Z M 6.0438614,10.044882 c -0.2886152,-0.0037 -0.4715361,0.194077 -0.4672772,0.747781 0.012389,1.610778 -0.1416572,2.277311 0.3676278,3.292622 0.9019782,1.992661 4.399307,3.618962 5.41416,4.151974 1.014852,0.533011 1.42168,0.573691 1.672263,0.611867 0.01319,-0.19633 -0.08249,-1.530249 -0.0696,-2.422873 0.01204,-0.833706 -0.06068,-1.549996 -0.711954,-2.346547 C 11.597807,13.283155 9.4344005,11.812765 8.2851967,11.197616 7.5310318,10.793926 6.5948529,10.052024 6.0438614,10.044882 Z m 15.5725306,0 c -0.550992,0.0071 -1.487171,0.749044 -2.241336,1.152734 -1.149204,0.615149 -3.312304,2.085539 -3.963577,2.88209 -0.651273,0.796551 -0.7243,1.512841 -0.71226,2.346547 0.01289,0.892624 -0.08248,2.226543 -0.06929,2.422873 0.250583,-0.03818 0.657104,-0.07886 1.671957,-0.611867 1.014853,-0.533012 4.512488,-2.159313 5.414466,-4.151974 0.509285,-1.015311 0.354931,-1.681844 0.367322,-3.292622 0.0043,-0.553704 -0.178663,-0.751522 -0.467277,-0.747781 z M 6.0438614,16.597921 c -0.2886152,-0.0037 -0.4715361,0.194077 -0.4672772,0.747781 0.012389,1.610777 -0.1416572,2.277311 0.3676278,3.292622 0.9019782,1.992662 4.399307,3.618962 5.41416,4.151973 1.014852,0.533012 1.42168,0.573692 1.672263,0.611867 0.01319,-0.196329 -0.08249,-1.530249 -0.0696,-2.422872 0.01204,-0.833706 -0.06068,-1.549742 -0.711954,-2.346293 C 11.597807,19.836448 9.4344005,18.365804 8.2851967,17.750656 7.5310318,17.346964 6.5948529,16.605063 6.0438614,16.597921 Z m 15.5725306,0 c -0.550992,0.0071 -1.487171,0.749043 -2.241336,1.152735 -1.149204,0.615148 -3.312304,2.085792 -3.963577,2.882343 -0.651273,0.796551 -0.7243,1.512587 -0.71226,2.346293 0.01289,0.892623 -0.08248,2.226543 -0.06929,2.422872 0.250583,-0.03817 0.657104,-0.07886 1.671957,-0.611867 1.014853,-0.533011 4.512488,-2.159311 5.414466,-4.151973 0.509285,-1.015311 0.354931,-1.681845 0.367322,-3.292622 0.0043,-0.553704 -0.178663,-0.751522 -0.467277,-0.747781 z M 6.0438614,23.17936 c -0.2886152,-0.0037 -0.4715361,0.19433 -0.4672772,0.748035 0.012389,1.610777 -0.1416572,2.277057 0.3676278,3.292368 0.9019782,1.992661 4.399307,3.618962 5.41416,4.151973 1.014852,0.533012 1.42168,0.573692 1.672263,0.611867 0.01319,-0.196329 -0.08249,-1.530249 -0.0696,-2.422872 0.01204,-0.833706 -0.06068,-1.549742 -0.711954,-2.346293 C 11.597807,26.417887 9.4344005,24.947496 8.2851967,24.332348 7.5310318,23.928657 6.5948529,23.186502 6.0438614,23.17936 Z m 15.5725306,0 c -0.550992,0.0071 -1.487171,0.749297 -2.241336,1.152988 -1.149204,0.615148 -3.312304,2.085539 -3.963577,2.88209 -0.651273,0.796551 -0.7243,1.512587 -0.71226,2.346293 0.01289,0.892623 -0.08248,2.226543 -0.06929,2.422872 0.250583,-0.03817 0.657104,-0.07885 1.671957,-0.611867 1.014853,-0.533011 4.512488,-2.159312 5.414466,-4.151973 0.509285,-1.015311 0.354931,-1.681591 0.367322,-3.292368 0.0043,-0.553705 -0.178663,-0.751776 -0.467277,-0.748035 z M 6.0438614,29.839152 c -0.2886146,-0.0039 -0.4715356,0.194078 -0.4672772,0.747781 0.012389,1.610778 -0.1419634,2.277316 0.3673211,3.292622 0.9019776,1.992661 4.3996147,3.618962 5.4144667,4.151974 0.546595,0.287078 0.913019,0.429171 1.177391,0.507142 v 3.179275 3.237343 c 0.863419,-0.02512 1.726843,-0.05039 2.59026,-0.07556 0.05159,-2.130564 0.103251,-4.261207 0.154839,-6.391767 0.249649,-0.0856 0.57401,-0.221653 1.021019,-0.456428 1.014851,-0.533012 4.512183,-2.159313 5.41416,-4.151974 0.509284,-1.015306 0.355237,-1.681844 0.367628,-3.292622 0.01239,-1.610776 -1.55941,-0.210195 -2.708613,0.404954 -1.149203,0.615148 -2.92303,1.709057 -3.963884,2.882089 -0.769492,0.867211 -0.277443,2.950424 -1.578439,2.951061 -1.300997,4.91e-4 -0.813464,-2.083757 -1.58396,-2.951061 C 11.207155,32.701488 9.4343993,31.607035 8.2851967,30.991887 7.5310324,30.588196 6.5948529,29.846297 6.0438614,29.839152 Z"
       sodipodi:nodetypes="ccscsscsscscsssssssscscsssscscsssssssscscsssscscsssssssscscsscscscccccscssscssc" /></g></svg>
