<?xml version="1.0" encoding="UTF-8" standalone="no"?>
<!-- Created with Inkscape (http://www.inkscape.org/) -->

<svg
   width="210mm"
   height="297mm"
   viewBox="0 0 210 297"
   version="1.1"
   id="svg5"
   xml:space="preserve"
   inkscape:version="1.2 (dc2aedaf03, 2022-05-15)"
   sodipodi:docname="emoji-lose.svg"
   xmlns:inkscape="http://www.inkscape.org/namespaces/inkscape"
   xmlns:sodipodi="http://sodipodi.sourceforge.net/DTD/sodipodi-0.dtd"
   xmlns:xlink="http://www.w3.org/1999/xlink"
   xmlns="http://www.w3.org/2000/svg"
   xmlns:svg="http://www.w3.org/2000/svg"><sodipodi:namedview
     id="namedview7"
     pagecolor="#ffffff"
     bordercolor="#666666"
     borderopacity="1.0"
     inkscape:showpageshadow="2"
     inkscape:pageopacity="0.0"
     inkscape:pagecheckerboard="0"
     inkscape:deskcolor="#d1d1d1"
     inkscape:document-units="mm"
     showgrid="false"
     inkscape:zoom="0.41406679"
     inkscape:cx="984.14075"
     inkscape:cy="237.88433"
     inkscape:window-width="1920"
     inkscape:window-height="1058"
     inkscape:window-x="-8"
     inkscape:window-y="-8"
     inkscape:window-maximized="1"
     inkscape:current-layer="layer1" /><defs
     id="defs2"><linearGradient
       inkscape:collect="always"
       id="linearGradient59725"><stop
         style="stop-color:#fdeca1;stop-opacity:1;"
         offset="0"
         id="stop59721" /><stop
         style="stop-color:#eaad17;stop-opacity:0.62469137;"
         offset="1"
         id="stop59723" /></linearGradient><linearGradient
       inkscape:collect="always"
       id="linearGradient57173"><stop
         style="stop-color:#fd5403;stop-opacity:1;"
         offset="0"
         id="stop57169" /><stop
         style="stop-color:#f44331;stop-opacity:0;"
         offset="1"
         id="stop57171" /></linearGradient><linearGradient
       inkscape:collect="always"
       id="linearGradient54497"><stop
         style="stop-color:#fff7bd;stop-opacity:1;"
         offset="0"
         id="stop54493" /><stop
         style="stop-color:#fbfbfb;stop-opacity:0;"
         offset="1"
         id="stop54495" /></linearGradient><linearGradient
       inkscape:collect="always"
       id="linearGradient49321"><stop
         style="stop-color:#fedb5a;stop-opacity:1;"
         offset="0"
         id="stop49317" /><stop
         style="stop-color:#e5a207;stop-opacity:1;"
         offset="1"
         id="stop49319" /></linearGradient><linearGradient
       inkscape:collect="always"
       id="linearGradient36885"><stop
         style="stop-color:#a0def4;stop-opacity:1;"
         offset="0"
         id="stop36881" /><stop
         style="stop-color:#72e1f7;stop-opacity:1"
         offset="0.50804543"
         id="stop43168" /><stop
         style="stop-color:#3b48a5;stop-opacity:1;"
         offset="1"
         id="stop36883" /></linearGradient><linearGradient
       inkscape:collect="always"
       id="linearGradient29348"><stop
         style="stop-color:#ffffff;stop-opacity:1;"
         offset="0"
         id="stop29344" /><stop
         style="stop-color:#ffffff;stop-opacity:1;"
         offset="0.39113981"
         id="stop33216" /><stop
         style="stop-color:#a8e4fc;stop-opacity:1;"
         offset="1"
         id="stop29346" /></linearGradient><radialGradient
       inkscape:collect="always"
       xlink:href="#linearGradient29348"
       id="radialGradient29350"
       cx="271.85703"
       cy="99.88562"
       fx="271.85703"
       fy="99.88562"
       r="23.451678"
       gradientTransform="matrix(1.052951,0.00600738,-0.00864469,1.5152054,-199.91238,-46.543198)"
       gradientUnits="userSpaceOnUse" /><radialGradient
       inkscape:collect="always"
       xlink:href="#linearGradient36885"
       id="radialGradient36887"
       cx="96.328407"
       cy="118.64766"
       fx="96.328407"
       fy="118.64766"
       r="11.004323"
       gradientTransform="matrix(1.1129139,-0.00513244,0.00535912,1.1620666,-11.512664,-18.734431)"
       gradientUnits="userSpaceOnUse" /><radialGradient
       inkscape:collect="always"
       xlink:href="#linearGradient29348"
       id="radialGradient47771"
       gradientUnits="userSpaceOnUse"
       gradientTransform="matrix(1.052951,0.00600738,-0.00864469,1.5152054,-199.91238,-46.543198)"
       cx="271.85703"
       cy="99.88562"
       fx="271.85703"
       fy="99.88562"
       r="23.451678" /><radialGradient
       inkscape:collect="always"
       xlink:href="#linearGradient36885"
       id="radialGradient47773"
       gradientUnits="userSpaceOnUse"
       gradientTransform="matrix(1.1129139,-0.00513244,0.00535912,1.1620666,-11.512664,-18.734431)"
       cx="96.328407"
       cy="118.64766"
       fx="96.328407"
       fy="118.64766"
       r="11.004323" /><radialGradient
       inkscape:collect="always"
       xlink:href="#linearGradient49321"
       id="radialGradient49323"
       cx="109.68224"
       cy="91.044174"
       fx="109.68224"
       fy="91.044174"
       r="68.99786"
       gradientTransform="matrix(1,0,0,0.93287793,0,6.1110732)"
       gradientUnits="userSpaceOnUse" /><linearGradient
       inkscape:collect="always"
       xlink:href="#linearGradient54497"
       id="linearGradient54491"
       x1="112.05436"
       y1="40.786346"
       x2="112.95802"
       y2="102.17722"
       gradientUnits="userSpaceOnUse"
       gradientTransform="matrix(1.4484849,0,0,1.3285714,-54.578576,-23.585636)" /><radialGradient
       inkscape:collect="always"
       xlink:href="#linearGradient57173"
       id="radialGradient57175"
       cx="69.80806"
       cy="126.73891"
       fx="69.80806"
       fy="126.73891"
       r="10.166223"
       gradientTransform="matrix(1.1059745,0,0,1.0868503,-7.397879,-11.007322)"
       gradientUnits="userSpaceOnUse" /><radialGradient
       inkscape:collect="always"
       xlink:href="#linearGradient57173"
       id="radialGradient58766"
       gradientUnits="userSpaceOnUse"
       gradientTransform="matrix(1.1059745,0,0,1.0868503,74.711962,-11.007322)"
       cx="69.80806"
       cy="126.73891"
       fx="69.80806"
       fy="126.73891"
       r="10.166223" /><radialGradient
       inkscape:collect="always"
       xlink:href="#linearGradient59725"
       id="radialGradient59727"
       cx="111.45784"
       cy="129.37665"
       fx="111.45784"
       fy="129.37665"
       r="10.865952"
       gradientTransform="matrix(2.0499046,-0.00554423,0.00139892,0.51723507,-117.20108,70.138718)"
       gradientUnits="userSpaceOnUse" /><filter
       inkscape:collect="always"
       style="color-interpolation-filters:sRGB"
       id="filter67102"
       x="-0.011811489"
       y="-0.012679022"
       width="1.023623"
       height="1.025358"><feGaussianBlur
         inkscape:collect="always"
         stdDeviation="0.11975735"
         id="feGaussianBlur67104" /></filter><filter
       inkscape:collect="always"
       style="color-interpolation-filters:sRGB"
       id="filter67110"
       x="-0.039890411"
       y="-0.04282029"
       width="1.0797808"
       height="1.0856406"><feGaussianBlur
         inkscape:collect="always"
         stdDeviation="1.7035565"
         id="feGaussianBlur67108" /></filter><filter
       inkscape:collect="always"
       style="color-interpolation-filters:sRGB"
       id="filter67118"
       x="-0.77815907"
       y="-0.83531344"
       width="2.5563181"
       height="2.6706269"><feGaussianBlur
         inkscape:collect="always"
         stdDeviation="43.892272"
         id="feGaussianBlur67120" /></filter></defs><g
     inkscape:label="Layer 1"
     inkscape:groupmode="layer"
     id="layer1"><g
       id="g67164"
       transform="matrix(0.4970095,0,0,0.4970095,18.407364,11.362081)"
       inkscape:export-filename=".\emoji-lose.png"
       inkscape:export-xdpi="89.504005"
       inkscape:export-ydpi="89.504005"><g
         id="g67141"><ellipse
           style="opacity:1;fill:#000000;fill-opacity:1;stroke:#000000;stroke-width:2.62307;stroke-linecap:round;stroke-linejoin:round;stroke-dasharray:none;stroke-opacity:1;paint-order:markers stroke fill;filter:url(#filter67110)"
           id="ellipse67106"
           cx="109.68224"
           cy="91.044174"
           rx="67.686325"
           ry="63.055046" /><ellipse
           style="opacity:1;fill:url(#radialGradient49323);fill-opacity:1;stroke:#c9680b;stroke-width:2.62307;stroke-linecap:round;stroke-linejoin:round;stroke-dasharray:none;stroke-opacity:1;paint-order:markers stroke fill;filter:url(#filter67102)"
           id="path47856"
           cx="109.68224"
           cy="91.044174"
           rx="67.686325"
           ry="63.055046" /><ellipse
           style="opacity:1;fill:url(#radialGradient58766);fill-opacity:1;stroke:none;stroke-width:3.03914;stroke-linecap:round;stroke-linejoin:round;stroke-dasharray:none;stroke-opacity:1;paint-order:markers stroke fill"
           id="ellipse58764"
           cx="151.91791"
           cy="126.73891"
           rx="11.563078"
           ry="11.049163" /><ellipse
           style="opacity:1;fill:url(#radialGradient57175);fill-opacity:1;stroke:none;stroke-width:3.03914;stroke-linecap:round;stroke-linejoin:round;stroke-dasharray:none;stroke-opacity:1;paint-order:markers stroke fill"
           id="path57167"
           cx="69.80806"
           cy="126.73891"
           rx="11.563078"
           ry="11.049163" /><path
           id="path54483"
           style="opacity:1;fill:url(#linearGradient54491);stroke-width:3.70668;stroke-linecap:round;stroke-linejoin:round;paint-order:markers stroke fill"
           d="m 164.01506,77.26329 c 0.45183,30.88837 -12.87189,28.84293 -54.44577,28.46543 -44.267206,-0.40196 -53.090281,2.42294 -53.54211,-28.46543 -0.339434,-23.204737 24.173911,-42.020386 53.99394,-42.020385 29.82003,-10e-7 53.6545,18.815648 53.99394,42.020385 z"
           sodipodi:nodetypes="sssss" /><g
           id="g47757"><path
             style="display:inline;opacity:1;fill:url(#radialGradient29350);fill-opacity:1;stroke:#8e4803;stroke-width:1.365;stroke-linecap:butt;stroke-linejoin:round;stroke-dasharray:none;stroke-opacity:1"
             d="m 63.563147,100.09977 c -2.89209,10.23357 1.72965,24.5252 11.45715,28.14232 17.46382,5.11679 25.286933,-7.1456 29.032203,-11.90209 3.04432,-4.94458 7.56394,-21.134549 0.22246,-32.925405 -4.730043,3.333588 -16.573933,6.562834 -22.358123,7.230241 0,0 -11.67962,3.781974 -18.35369,9.454934 z"
             id="path23488"
             sodipodi:nodetypes="cccccc" /><path
             id="path35154"
             style="display:inline;fill:url(#radialGradient36887);fill-opacity:1;stroke:#001a52;stroke-width:0.94643;stroke-linecap:butt;stroke-linejoin:miter;stroke-dasharray:none;stroke-opacity:1"
             d="m 96.904163,108.1412 c -0.142032,9.3e-4 -0.282741,0.006 -0.422197,0.016 -3.236127,0.2297 -6.469956,1.80738 -8.400521,4.41472 -2.121535,2.86526 -2.837101,7.62193 -1.804024,10.69702 0.645946,1.92275 2.868941,3.70776 4.444173,4.77594 6.990272,-2.73153 10.970946,-8.70749 13.330966,-11.70471 0.35824,-0.58185 0.73679,-1.32434 1.11415,-2.19212 -0.65838,-1.43285 -1.44705,-2.8685 -2.22467,-3.6034 -1.52418,-1.44039 -3.90741,-2.41742 -6.037877,-2.40347 z" /><path
             style="display:inline;fill:#652f00;fill-opacity:1;stroke:none;stroke-width:0.264583px;stroke-linecap:butt;stroke-linejoin:miter;stroke-opacity:1"
             d="m 56.593551,104.32935 c -1.2365,1.11149 0.1985,2.96548 1.48439,1.95632 2.90071,-2.99902 9.13266,-8.088403 12.68299,-9.894845 6.4394,-3.765978 16.61136,-6.291548 21.49679,-7.279931 10.222709,-2.456837 15.569979,-7.341042 17.349069,-9.007173 0.19768,-0.59303 -0.10065,-1.347177 -1.25847,-1.573093 -4.4336,3.304023 -8.607329,5.731564 -11.770149,6.606989 -1.66613,0.59303 -13.37902,3.501885 -18.27593,5.505829 -4.17129,1.334814 -11.22475,4.508947 -15.57363,8.180083 z"
             id="path34391"
             sodipodi:nodetypes="cccccccccc" /><path
             id="path47745"
             style="display:inline;opacity:1;fill:#000000;fill-opacity:1;stroke:none;stroke-width:0.264583px;stroke-linecap:butt;stroke-linejoin:miter;stroke-opacity:1"
             d="m 97.800232,113.38481 c -1.921731,-0.0289 -3.747982,0.68144 -4.911328,1.66036 -1.655451,1.39301 -2.963241,5.19389 -2.312521,7.56027 0.368095,1.33859 1.856898,2.86443 3.143478,3.98167 4.886519,-2.86472 7.976339,-7.1932 9.989059,-9.80406 -1.15797,-1.34518 -2.46663,-2.57791 -3.64319,-2.99671 -0.747117,-0.26594 -1.513517,-0.39021 -2.265498,-0.40153 z" /><ellipse
             style="opacity:1;fill:#ffffff;fill-opacity:1;stroke:none;stroke-width:0.924;stroke-linecap:round;stroke-linejoin:round;stroke-dasharray:none;stroke-opacity:1;paint-order:markers stroke fill"
             id="path47750"
             cx="95.195374"
             cy="114.17233"
             rx="3.4734592"
             ry="3.41698" /></g><g
           id="g47769"
           transform="matrix(-1,0,0,1,223.3926,-0.22591605)"><path
             style="display:inline;opacity:1;fill:url(#radialGradient47771);fill-opacity:1;stroke:#8e4803;stroke-width:1.365;stroke-linecap:butt;stroke-linejoin:round;stroke-dasharray:none;stroke-opacity:1"
             d="m 63.563147,100.09977 c -2.89209,10.23357 1.72965,24.5252 11.45715,28.14232 17.46382,5.11679 25.286933,-7.1456 29.032203,-11.90209 3.04432,-4.94458 7.56394,-21.134549 0.22246,-32.925405 -4.730043,3.333588 -16.573933,6.562834 -22.358123,7.230241 0,0 -11.67962,3.781974 -18.35369,9.454934 z"
             id="path47759"
             sodipodi:nodetypes="cccccc" /><path
             id="path47761"
             style="display:inline;fill:url(#radialGradient47773);fill-opacity:1;stroke:#001a52;stroke-width:0.94643;stroke-linecap:butt;stroke-linejoin:miter;stroke-dasharray:none;stroke-opacity:1"
             d="m 96.904163,108.1412 c -0.142032,9.3e-4 -0.282741,0.006 -0.422197,0.016 -3.236127,0.2297 -6.469956,1.80738 -8.400521,4.41472 -2.121535,2.86526 -2.837101,7.62193 -1.804024,10.69702 0.645946,1.92275 2.868941,3.70776 4.444173,4.77594 6.990272,-2.73153 10.970946,-8.70749 13.330966,-11.70471 0.35824,-0.58185 0.73679,-1.32434 1.11415,-2.19212 -0.65838,-1.43285 -1.44705,-2.8685 -2.22467,-3.6034 -1.52418,-1.44039 -3.90741,-2.41742 -6.037877,-2.40347 z" /><path
             style="display:inline;fill:#652f00;fill-opacity:1;stroke:none;stroke-width:0.264583px;stroke-linecap:butt;stroke-linejoin:miter;stroke-opacity:1"
             d="m 56.593551,104.32935 c -1.2365,1.11149 0.1985,2.96548 1.48439,1.95632 2.90071,-2.99902 9.13266,-8.088403 12.68299,-9.894845 6.4394,-3.765978 16.61136,-6.291548 21.49679,-7.279931 10.222709,-2.456837 15.569979,-7.341042 17.349069,-9.007173 0.19768,-0.59303 -0.10065,-1.347177 -1.25847,-1.573093 -4.4336,3.304023 -8.607329,5.731564 -11.770149,6.606989 -1.66613,0.59303 -13.37902,3.501885 -18.27593,5.505829 -4.17129,1.334814 -11.22475,4.508947 -15.57363,8.180083 z"
             id="path47763"
             sodipodi:nodetypes="cccccccccc" /><path
             id="path47765"
             style="display:inline;opacity:1;fill:#000000;fill-opacity:1;stroke:none;stroke-width:0.264583px;stroke-linecap:butt;stroke-linejoin:miter;stroke-opacity:1"
             d="m 97.800232,113.38481 c -1.921731,-0.0289 -3.747982,0.68144 -4.911328,1.66036 -1.655451,1.39301 -2.963241,5.19389 -2.312521,7.56027 0.368095,1.33859 1.856898,2.86443 3.143478,3.98167 4.886519,-2.86472 7.976339,-7.1932 9.989059,-9.80406 -1.15797,-1.34518 -2.46663,-2.57791 -3.64319,-2.99671 -0.747117,-0.26594 -1.513517,-0.39021 -2.265498,-0.40153 z" /><ellipse
             style="opacity:1;fill:#ffffff;fill-opacity:1;stroke:none;stroke-width:0.924;stroke-linecap:round;stroke-linejoin:round;stroke-dasharray:none;stroke-opacity:1;paint-order:markers stroke fill"
             id="ellipse47767"
             cx="95.195374"
             cy="114.17233"
             rx="3.4734592"
             ry="3.41698" /></g><path
           style="opacity:1;fill:#ce6400;fill-opacity:1;stroke:none;stroke-width:0.264583px;stroke-linecap:butt;stroke-linejoin:miter;stroke-opacity:1"
           d="m 100.02654,139.67078 c 3.27481,-2.99525 7.3388,-5.03891 10.98259,-4.95215 4.15803,0.099 7.68723,1.80885 12.00039,4.88397 0.82497,0.65553 -0.0992,1.42603 -0.53856,1.02666 -3.67418,-2.43614 -7.28233,-4.50776 -11.46183,-4.51284 -3.57205,-0.004 -7.22854,1.95689 -10.26373,4.51284 -0.59905,0.47924 -1.317914,-0.47924 -0.71886,-0.95848 z"
           id="path58820"
           sodipodi:nodetypes="csccscc" /><path
           style="opacity:1;fill:url(#radialGradient59727);fill-opacity:1;stroke:none;stroke-width:0.239545px;stroke-linecap:butt;stroke-linejoin:miter;stroke-opacity:1"
           d="m 100.9129,140.47066 c 3.02337,-2.65937 6.77533,-4.47386 10.13936,-4.39683 3.83877,0.0879 7.097,1.60601 11.079,4.3363 0.76163,0.58202 -0.0916,0.4754 -0.49721,0.12082 -3.39208,-2.16296 -6.72319,-3.21156 -10.58179,-3.21607 -3.2978,-0.004 -6.67354,0.94674 -9.47569,3.21607 -0.55306,0.4255 -1.21673,0.36521 -0.66367,-0.0603 z"
           id="path59719"
           sodipodi:nodetypes="csccscc" /></g><ellipse
         style="opacity:1;mix-blend-mode:normal;fill:#3c3c3c;fill-opacity:1;stroke:none;stroke-width:2.62307;stroke-linecap:round;stroke-linejoin:round;stroke-dasharray:none;stroke-opacity:1;paint-order:markers stroke fill;filter:url(#filter67118)"
         id="ellipse67112"
         cx="109.68224"
         cy="198.07451"
         rx="67.686325"
         ry="63.055046"
         transform="matrix(0.3749387,0,0,0.09410356,68.558125,155.79247)" /></g></g></svg>
