<?xml version="1.0" encoding="UTF-8" standalone="no"?>
<!-- Created with Inkscape (http://www.inkscape.org/) -->

<svg
   width="210mm"
   height="297mm"
   viewBox="0 0 210 297"
   version="1.1"
   id="svg67352"
   xml:space="preserve"
   inkscape:version="1.2 (dc2aedaf03, 2022-05-15)"
   sodipodi:docname="emoji-win.svg"
   xmlns:inkscape="http://www.inkscape.org/namespaces/inkscape"
   xmlns:sodipodi="http://sodipodi.sourceforge.net/DTD/sodipodi-0.dtd"
   xmlns:xlink="http://www.w3.org/1999/xlink"
   xmlns="http://www.w3.org/2000/svg"
   xmlns:svg="http://www.w3.org/2000/svg"><sodipodi:namedview
     id="namedview67354"
     pagecolor="#ffffff"
     bordercolor="#666666"
     borderopacity="1.0"
     inkscape:showpageshadow="2"
     inkscape:pageopacity="0.0"
     inkscape:pagecheckerboard="0"
     inkscape:deskcolor="#d1d1d1"
     inkscape:document-units="mm"
     showgrid="false"
     inkscape:zoom="0.5946522"
     inkscape:cx="825.69273"
     inkscape:cy="614.645"
     inkscape:window-width="1920"
     inkscape:window-height="1058"
     inkscape:window-x="-8"
     inkscape:window-y="-8"
     inkscape:window-maximized="1"
     inkscape:current-layer="layer1"
     inkscape:lockguides="false" /><defs
     id="defs67349"><linearGradient
       inkscape:collect="always"
       id="linearGradient130105"><stop
         style="stop-color:#fff2c9;stop-opacity:1;"
         offset="0"
         id="stop130101" /><stop
         style="stop-color:#ffb82a;stop-opacity:0.62716049;"
         offset="1"
         id="stop130103" /></linearGradient><linearGradient
       inkscape:collect="always"
       id="linearGradient127161"><stop
         style="stop-color:#ffffff;stop-opacity:1;"
         offset="0"
         id="stop127157" /><stop
         style="stop-color:#dde4ff;stop-opacity:1;"
         offset="1"
         id="stop127159" /></linearGradient><linearGradient
       inkscape:collect="always"
       id="linearGradient125487"><stop
         style="stop-color:#820202;stop-opacity:1;"
         offset="0"
         id="stop125483" /><stop
         style="stop-color:#d01414;stop-opacity:1;"
         offset="1"
         id="stop125485" /></linearGradient><linearGradient
       inkscape:collect="always"
       id="linearGradient124634"><stop
         style="stop-color:#080808;stop-opacity:1;"
         offset="0"
         id="stop124630" /><stop
         style="stop-color:#510100;stop-opacity:0;"
         offset="1"
         id="stop124632" /></linearGradient><linearGradient
       inkscape:collect="always"
       id="linearGradient124614"><stop
         style="stop-color:#151515;stop-opacity:1;"
         offset="0"
         id="stop124610" /><stop
         style="stop-color:#3e0100;stop-opacity:0;"
         offset="1"
         id="stop124612" /></linearGradient><linearGradient
       inkscape:collect="always"
       id="linearGradient98481"><stop
         style="stop-color:#ffd75c;stop-opacity:1;"
         offset="0"
         id="stop98477" /><stop
         style="stop-color:#faa708;stop-opacity:1;"
         offset="1"
         id="stop98479" /></linearGradient><filter
       inkscape:collect="always"
       style="color-interpolation-filters:sRGB"
       id="filter68434"
       x="-0.039991994"
       y="-0.034625793"
       width="1.079984"
       height="1.0692516"><feGaussianBlur
         inkscape:collect="always"
         stdDeviation="0.34000311"
         id="feGaussianBlur68436" /></filter><filter
       inkscape:collect="always"
       style="color-interpolation-filters:sRGB"
       id="filter71146"
       x="-0.081029371"
       y="-0.024764679"
       width="1.1620587"
       height="1.0495294"><feGaussianBlur
         inkscape:collect="always"
         stdDeviation="0.10093438"
         id="feGaussianBlur71148" /></filter><filter
       inkscape:collect="always"
       style="color-interpolation-filters:sRGB"
       id="filter71637"
       x="-0.06647385"
       y="-0.030532175"
       width="1.1329477"
       height="1.0610644"><feGaussianBlur
         inkscape:collect="always"
         stdDeviation="0.08979983"
         id="feGaussianBlur71639" /></filter><filter
       inkscape:collect="always"
       style="color-interpolation-filters:sRGB"
       id="filter72059"
       x="-0.13737937"
       y="-0.047485516"
       width="1.2747587"
       height="1.094971"><feGaussianBlur
         inkscape:collect="always"
         stdDeviation="0.14313679"
         id="feGaussianBlur72061" /></filter><filter
       inkscape:collect="always"
       style="color-interpolation-filters:sRGB"
       id="filter72121"
       x="-0.04863997"
       y="-0.053497962"
       width="1.0972799"
       height="1.1069959"><feGaussianBlur
         inkscape:collect="always"
         stdDeviation="0.19061517"
         id="feGaussianBlur72123" /></filter><filter
       inkscape:collect="always"
       style="color-interpolation-filters:sRGB"
       id="filter76845"
       x="-0.099626873"
       y="-0.07446067"
       width="1.1992537"
       height="1.1489213"><feGaussianBlur
         inkscape:collect="always"
         stdDeviation="0.05745714"
         id="feGaussianBlur76847" /></filter><filter
       inkscape:collect="always"
       style="color-interpolation-filters:sRGB"
       id="filter76903"
       x="-0.017548918"
       y="-0.015084606"
       width="1.0351693"
       height="1.0303939"><feGaussianBlur
         inkscape:collect="always"
         stdDeviation="0.029449161"
         id="feGaussianBlur76905" /></filter><filter
       inkscape:collect="always"
       style="color-interpolation-filters:sRGB"
       id="filter76911"
       x="-0.067424093"
       y="-0.058267438"
       width="1.1349196"
       height="1.1167595"><feGaussianBlur
         inkscape:collect="always"
         stdDeviation="0.50963539"
         id="feGaussianBlur76909" /></filter><filter
       inkscape:collect="always"
       style="color-interpolation-filters:sRGB"
       id="filter79791"
       x="-0.018479053"
       y="-0.016674318"
       width="1.0371102"
       height="1.0332925"><feGaussianBlur
         inkscape:collect="always"
         stdDeviation="0.021974961"
         id="feGaussianBlur79793" /></filter><filter
       inkscape:collect="always"
       style="color-interpolation-filters:sRGB"
       id="filter89092"
       x="-0.08274398"
       y="-0.073675161"
       width="1.165488"
       height="1.1473503"><feGaussianBlur
         inkscape:collect="always"
         stdDeviation="0.71287769"
         id="feGaussianBlur89090" /></filter><filter
       inkscape:collect="always"
       style="color-interpolation-filters:sRGB"
       id="filter89305"
       x="-0.10503978"
       y="-0.063487742"
       width="1.2100796"
       height="1.1269755"><feGaussianBlur
         inkscape:collect="always"
         stdDeviation="0.22657334"
         id="feGaussianBlur89307" /></filter><filter
       inkscape:collect="always"
       style="color-interpolation-filters:sRGB"
       id="filter89311"
       x="-0.048608055"
       y="-0.07860214"
       width="1.0972161"
       height="1.1572043"><feGaussianBlur
         inkscape:collect="always"
         stdDeviation="0.11043049"
         id="feGaussianBlur89313" /></filter><filter
       inkscape:collect="always"
       style="color-interpolation-filters:sRGB"
       id="filter89382"
       x="-0.14289823"
       y="-0.08465854"
       width="1.2857965"
       height="1.1693171"><feGaussianBlur
         inkscape:collect="always"
         stdDeviation="0.23939833"
         id="feGaussianBlur89384" /></filter><filter
       inkscape:collect="always"
       style="color-interpolation-filters:sRGB"
       id="filter89388"
       x="-0.07518553"
       y="-0.086264523"
       width="1.1503711"
       height="1.172529"><feGaussianBlur
         inkscape:collect="always"
         stdDeviation="0.19648546"
         id="feGaussianBlur89390" /></filter><filter
       inkscape:collect="always"
       style="color-interpolation-filters:sRGB"
       id="filter90222"
       x="-0.24267858"
       y="-0.36976771"
       width="1.4853572"
       height="1.7395354"><feGaussianBlur
         inkscape:collect="always"
         stdDeviation="0.27452604"
         id="feGaussianBlur90224" /></filter><filter
       inkscape:collect="always"
       style="color-interpolation-filters:sRGB"
       id="filter90918"
       x="-0.14355155"
       y="-0.14298929"
       width="1.2871031"
       height="1.2859786"><feGaussianBlur
         inkscape:collect="always"
         stdDeviation="0.23185581"
         id="feGaussianBlur90920" /></filter><filter
       inkscape:collect="always"
       style="color-interpolation-filters:sRGB"
       id="filter92028"
       x="-0.1049562"
       y="-0.059057796"
       width="1.2099124"
       height="1.1181156"><feGaussianBlur
         inkscape:collect="always"
         stdDeviation="0.13935514"
         id="feGaussianBlur92030" /></filter><filter
       inkscape:collect="always"
       style="color-interpolation-filters:sRGB"
       id="filter92123"
       x="-0.067081078"
       y="-0.059949514"
       width="1.1343143"
       height="1.1198429"><feGaussianBlur
         inkscape:collect="always"
         stdDeviation="0.44070389"
         id="feGaussianBlur92121" /></filter><filter
       inkscape:collect="always"
       style="color-interpolation-filters:sRGB"
       id="filter96899"
       x="-0.0020163712"
       y="-0.0029723415"
       width="1.0040327"
       height="1.0059447"><feGaussianBlur
         inkscape:collect="always"
         stdDeviation="0.0064520005"
         id="feGaussianBlur96901" /></filter><filter
       inkscape:collect="always"
       style="color-interpolation-filters:sRGB"
       id="filter96903"
       x="-0.0015730392"
       y="-0.0013825123"
       width="1.0031461"
       height="1.002765"><feGaussianBlur
         inkscape:collect="always"
         stdDeviation="0.0034542626"
         id="feGaussianBlur96905" /></filter><filter
       inkscape:collect="always"
       style="color-interpolation-filters:sRGB"
       id="filter96913"
       x="-0.28305899"
       y="-0.30075811"
       width="1.5660716"
       height="1.6084693"><feGaussianBlur
         inkscape:collect="always"
         stdDeviation="0.072313631"
         id="feGaussianBlur96911" /></filter><filter
       inkscape:collect="always"
       style="color-interpolation-filters:sRGB"
       id="filter96919"
       x="-0.028785647"
       y="-0.025299122"
       width="1.0575713"
       height="1.0505982"><feGaussianBlur
         inkscape:collect="always"
         stdDeviation="0.063210874"
         id="feGaussianBlur96917" /></filter><radialGradient
       inkscape:collect="always"
       xlink:href="#linearGradient98481"
       id="radialGradient98485"
       cx="78.062317"
       cy="65.003777"
       fx="78.062317"
       fy="65.003777"
       r="36.295387"
       gradientTransform="matrix(1,0,0,0.99994903,0,0.00331352)"
       gradientUnits="userSpaceOnUse" /><filter
       inkscape:collect="always"
       style="color-interpolation-filters:sRGB"
       id="filter118822"
       x="-0.024746425"
       y="-0.027914275"
       width="1.0494929"
       height="1.0558285"><feGaussianBlur
         inkscape:collect="always"
         stdDeviation="0.32412139"
         id="feGaussianBlur118824" /></filter><filter
       inkscape:collect="always"
       style="color-interpolation-filters:sRGB"
       id="filter124604"
       x="-0.026370231"
       y="-0.026101289"
       width="1.0527405"
       height="1.0522026"><feGaussianBlur
         inkscape:collect="always"
         stdDeviation="0.20587611"
         id="feGaussianBlur124606" /></filter><radialGradient
       inkscape:collect="always"
       xlink:href="#linearGradient124614"
       id="radialGradient124616"
       cx="77.790405"
       cy="70.924339"
       fx="77.790405"
       fy="70.924339"
       r="9.8626717"
       gradientTransform="matrix(0.92074703,-1.1494113,1.7716301,1.4191815,-119.48658,59.72129)"
       gradientUnits="userSpaceOnUse" /><radialGradient
       inkscape:collect="always"
       xlink:href="#linearGradient124634"
       id="radialGradient124628"
       cx="76.004028"
       cy="69.971275"
       fx="76.004028"
       fy="69.971275"
       r="9.8626719"
       gradientTransform="matrix(0.77697393,-0.98142182,1.0860536,0.85980903,-59.041675,84.430319)"
       gradientUnits="userSpaceOnUse" /><radialGradient
       inkscape:collect="always"
       xlink:href="#linearGradient125487"
       id="radialGradient125489"
       cx="72.335304"
       cy="76.300674"
       fx="72.335304"
       fy="76.300674"
       r="4.3424206"
       gradientTransform="matrix(0.8019466,-0.45375621,0.35192909,0.62198231,-12.712612,60.386715)"
       gradientUnits="userSpaceOnUse" /><filter
       inkscape:collect="always"
       style="color-interpolation-filters:sRGB"
       id="filter127149"
       x="-0.043377757"
       y="-0.18193845"
       width="1.0867555"
       height="1.3638769"><feGaussianBlur
         inkscape:collect="always"
         stdDeviation="0.097692993"
         id="feGaussianBlur127151" /></filter><linearGradient
       inkscape:collect="always"
       xlink:href="#linearGradient127161"
       id="linearGradient127155"
       x1="69.609375"
       y1="62.923729"
       x2="72.283638"
       y2="52.541313"
       gradientUnits="userSpaceOnUse" /><filter
       inkscape:collect="always"
       style="color-interpolation-filters:sRGB"
       id="filter129186"
       x="-0.023090784"
       y="-0.051486876"
       width="1.0461816"
       height="1.1029738"><feGaussianBlur
         inkscape:collect="always"
         stdDeviation="0.10166523"
         id="feGaussianBlur129188" /></filter><filter
       inkscape:collect="always"
       style="color-interpolation-filters:sRGB"
       id="filter129192"
       x="-0.07703718"
       y="-0.062019098"
       width="1.1540744"
       height="1.1240382"><feGaussianBlur
         inkscape:collect="always"
         stdDeviation="0.79622069"
         id="feGaussianBlur129194" /></filter><radialGradient
       inkscape:collect="always"
       xlink:href="#linearGradient130105"
       id="radialGradient129340"
       gradientUnits="userSpaceOnUse"
       gradientTransform="matrix(0.70087902,0,0,0.7008433,23.350077,19.446315)"
       cx="78.062317"
       cy="65.003777"
       fx="78.062317"
       fy="65.003777"
       r="36.295387" /><filter
       inkscape:collect="always"
       style="color-interpolation-filters:sRGB"
       id="filter130109"
       x="-0.052391319"
       y="-0.052394017"
       width="1.1047826"
       height="1.104788"><feGaussianBlur
         inkscape:collect="always"
         stdDeviation="1.588229"
         id="feGaussianBlur130111" /></filter><filter
       inkscape:collect="always"
       style="color-interpolation-filters:sRGB"
       id="filter130119"
       x="-0.89671362"
       y="-0.8967598"
       width="2.7934272"
       height="2.7935196"><feGaussianBlur
         inkscape:collect="always"
         stdDeviation="27.183635"
         id="feGaussianBlur130117" /></filter></defs><g
     inkscape:label="Layer 1"
     inkscape:groupmode="layer"
     id="layer1"><g
       id="g130294"
       inkscape:export-filename=".\emoji-win.png"
       inkscape:export-xdpi="52.378746"
       inkscape:export-ydpi="52.378746"><ellipse
         style="display:inline;fill:#000000;fill-opacity:1;stroke:none;stroke-width:1.09318;stroke-linecap:round;stroke-linejoin:round;stroke-dasharray:none;stroke-opacity:1;paint-order:markers stroke fill;filter:url(#filter130109)"
         id="ellipse130107"
         cx="78.062317"
         cy="65.003777"
         rx="36.377682"
         ry="36.375809" /><g
         id="g92117"
         inkscape:label="Right Hand"
         style="display:inline"><path
           style="mix-blend-mode:normal;fill:#000000;fill-opacity:1;stroke:#000000;stroke-width:0.665;stroke-linecap:butt;stroke-linejoin:miter;stroke-dasharray:none;stroke-opacity:1;filter:url(#filter92123)"
           d="m 39.877912,22.652542 c 0,0 -3.562127,-4.866455 -6.695189,-4.236991 -2.26479,0.45502 -3.003189,2.372995 -2.58606,4.70892 -3.733302,0.0413 -4.128213,3.216796 -3.460806,5.191208 -0.444938,0.472747 -2.260485,2.536342 -1.189362,5.536767 1.091813,3.058381 5.078451,7.034791 9.549794,7.658131 2.946322,0.410739 6.061581,-0.998698 8.068849,-3.194239 1.980901,-2.1667 2.740038,-5.026686 2.725105,-7.962387 -0.01358,-2.66985 -0.223664,-5.850139 -2.516948,-7.631478 -1.336719,-1.038314 -3.895383,-0.06993 -3.895383,-0.06993 z"
           id="path92119"
           sodipodi:nodetypes="csccsssssc" /><path
           style="fill:#f4b50a;fill-opacity:1;stroke:#85510d;stroke-width:0.665;stroke-linecap:butt;stroke-linejoin:miter;stroke-dasharray:none;stroke-opacity:1;filter:url(#filter79791)"
           d="m 39.877912,22.652542 c 0,0 -3.562127,-4.866455 -6.695189,-4.236991 -2.26479,0.45502 -3.003189,2.372995 -2.58606,4.70892 -3.733302,0.0413 -4.128213,3.216796 -3.460806,5.191208 -0.444938,0.472747 -2.260485,2.536342 -1.189362,5.536767 1.091813,3.058381 5.078451,7.034791 9.549794,7.658131 2.946322,0.410739 6.061581,-0.998698 8.068849,-3.194239 1.980901,-2.1667 2.740038,-5.026686 2.725105,-7.962387 -0.01358,-2.66985 -0.223664,-5.850139 -2.516948,-7.631478 -1.336719,-1.038314 -3.895383,-0.06993 -3.895383,-0.06993 z"
           id="path78403"
           sodipodi:nodetypes="csccsssssc" /><path
           style="fill:#ffd86a;fill-opacity:1;stroke:none;stroke-width:0.665;stroke-linecap:butt;stroke-linejoin:miter;stroke-dasharray:none;stroke-opacity:1;filter:url(#filter89092)"
           d="m 39.877912,22.652542 c 0,0 -3.562127,-4.866455 -6.695189,-4.236991 -2.26479,0.45502 -3.003189,2.372995 -2.58606,4.70892 -3.733302,0.0413 -4.128213,3.216796 -3.460806,5.191208 -0.444938,0.472747 -2.260485,2.536342 -1.189362,5.536767 1.091813,3.058381 5.078451,7.034791 9.549794,7.658131 2.946322,0.410739 6.061581,-0.998698 8.068849,-3.194239 1.980901,-2.1667 2.740038,-5.026686 2.725105,-7.962387 -0.01358,-2.66985 -0.223664,-5.850139 -2.516948,-7.631478 -1.336719,-1.038314 -3.895383,-0.06993 -3.895383,-0.06993 z"
           id="path88398"
           sodipodi:nodetypes="csccsssssc"
           transform="matrix(0.868768,0,0,0.868768,4.7182466,3.9330039)" /><path
           style="fill:#ffefc3;fill-opacity:1;stroke:none;stroke-width:0.264583px;stroke-linecap:butt;stroke-linejoin:miter;stroke-opacity:1;filter:url(#filter89305)"
           d="m 45.328053,31.201275 c -0.899791,3.026028 -1.837033,4.59706 -2.586201,5.728575 -0.749167,1.131516 -1.058881,1.244238 -2.530584,2.83648 1.225733,-0.18751 2.64247,-1.419593 3.948822,-3.392652 0.807046,-1.218929 1.428156,-3.304114 1.167963,-5.172403 z"
           id="path89096"
           sodipodi:nodetypes="czcsc" /><path
           style="fill:#f8efa4;fill-opacity:1;stroke:none;stroke-width:0.264583px;stroke-linecap:butt;stroke-linejoin:miter;stroke-opacity:1;filter:url(#filter89311)"
           d="m 33.414685,18.948611 c 2.016939,-0.182278 4.431453,2.128928 5.210094,3.352507 -0.617499,0.122701 -1.703336,-1.017601 -2.501379,-1.694929 -0.639965,-0.543162 -3.847277,-1.554682 -2.708715,-1.657578 z"
           id="path89309"
           sodipodi:nodetypes="scss" /><path
           style="fill:#f8efa4;fill-opacity:1;stroke:none;stroke-width:0.264583px;stroke-linecap:butt;stroke-linejoin:miter;stroke-opacity:1;filter:url(#filter89311)"
           d="m 29.911644,23.644627 c 2.016939,-0.182278 5.261463,1.222329 5.584639,3.427929 -0.682733,-0.134327 -1.008438,-1.258421 -1.945158,-1.874029 -1.823309,-1.198271 -4.778043,-1.451004 -3.639481,-1.5539 z"
           id="path89315"
           sodipodi:nodetypes="scss"
           transform="matrix(1.1905808,0,0,2.0671954,-5.4623148,-25.033016)" /><path
           style="fill:#f8efa4;fill-opacity:1;stroke:none;stroke-width:0.264583px;stroke-linecap:butt;stroke-linejoin:miter;stroke-opacity:1;filter:url(#filter89382)"
           d="m 40.467823,23.321107 c -2.320313,0.786549 -2.713587,4.719281 -2.438295,6.331701 0.157309,1.573094 0.615056,-1.934187 1.33713,-3.146186 0.871303,-1.462479 4.679952,-3.618116 1.101165,-3.185515 z"
           id="path89317"
           sodipodi:nodetypes="ccsc" /><path
           style="fill:#f8efa4;fill-opacity:1;stroke:none;stroke-width:0.264583px;stroke-linecap:butt;stroke-linejoin:miter;stroke-opacity:1;filter:url(#filter89388)"
           d="m 28.040385,29.023569 c 1.022511,0.235964 5.073226,0.07866 5.623809,5.466501 -0.629237,-0.196637 -0.951474,-2.689029 -3.264167,-3.932734 -1.051144,-0.565277 -4.404663,-1.376458 -2.359642,-1.533767 z"
           id="path89386"
           sodipodi:nodetypes="ccsc" /><path
           style="fill:#f5b812;fill-opacity:1;stroke:none;stroke-width:0.264583px;stroke-linecap:butt;stroke-linejoin:miter;stroke-opacity:1;filter:url(#filter90222)"
           d="m 29.141552,33.90016 c 0.03933,-0.235964 2.084348,0.432601 2.713585,1.533766 -0.471928,0.196637 -0.86682,0.273307 -1.258475,0.11798 -0.682076,-0.270506 -1.494437,-1.337127 -1.45511,-1.651746 z"
           id="path89392"
           sodipodi:nodetypes="ccsc" /><path
           style="fill:none;fill-opacity:1;stroke:#85510d;stroke-width:0.665;stroke-linecap:round;stroke-linejoin:round;stroke-dasharray:none;stroke-opacity:1"
           d="m 27.280258,28.309178 c 7.152405,0.02781 7.456064,6.401204 6.362245,7.592912 -2.412552,2.628458 -4.891773,-1.412948 -4.661148,-1.908435 0.03933,-0.550582 2.498824,0.340932 2.85277,1.520752"
           id="path84253"
           sodipodi:nodetypes="cscc" /><path
           style="mix-blend-mode:normal;fill:#ffebba;fill-opacity:1;stroke:none;stroke-width:0.264583px;stroke-linecap:butt;stroke-linejoin:miter;stroke-opacity:1;filter:url(#filter90918)"
           d="m 36.039973,33.736628 c 2.438613,0 3.096355,2.252578 3.086759,2.836482 -0.03933,2.393037 -1.043757,0.06018 -1.77069,-0.607358 -0.764715,-0.702235 -3.408803,-1.742882 -1.316069,-2.229124 z"
           id="path90226"
           sodipodi:nodetypes="cssc" /><path
           style="fill:#f7bd1e;fill-opacity:1;stroke:none;stroke-width:0.264583px;stroke-linecap:butt;stroke-linejoin:miter;stroke-opacity:1;filter:url(#filter92028)"
           d="m 37.360963,30.63599 -0.629238,2.79224 1.966368,0.786546 c 0,0 0.943856,2.08435 1.101164,2.08435 0.157311,0 0.146303,-0.775453 0.03933,-1.140492 -0.246447,-0.840986 -1.214052,-1.351353 -1.494441,-2.163005 -0.280389,-0.811652 -0.03933,-1.809057 -0.03933,-1.809057 z"
           id="path90922"
           sodipodi:nodetypes="cccsazcc" /><path
           style="fill:none;stroke:#85510d;stroke-width:0.665;stroke-linecap:round;stroke-linejoin:miter;stroke-dasharray:none;stroke-opacity:1"
           d="m 30.547793,23.165774 c 5.033361,0.917684 8.116224,6.123742 6.225238,10.016949"
           id="path80972"
           sodipodi:nodetypes="cc" /><path
           style="fill:none;stroke:#85510d;stroke-width:0.565;stroke-linecap:round;stroke-linejoin:miter;stroke-dasharray:none;stroke-opacity:1"
           d="m 34.136123,33.44929 c 3.64293,-0.500555 5.213425,0.561143 5.547129,3.508857"
           id="path85133"
           sodipodi:nodetypes="cc" /><path
           style="fill:none;stroke:#85510d;stroke-width:0.665;stroke-linecap:round;stroke-linejoin:round;stroke-dasharray:none;stroke-opacity:1"
           d="m 39.848129,22.698617 c -3.531695,2.892097 -2.901871,7.387731 -2.195583,7.98345 2.646522,2.232207 5.452183,-1.977408 5.758078,-3.256605"
           id="path79797"
           sodipodi:nodetypes="csc" /></g><path
         style="filter:url(#filter96913);fill:#000000;fill-opacity:1;stroke:none;stroke-width:0.264583px;stroke-linecap:butt;stroke-linejoin:miter;stroke-opacity:1"
         d="m 67.074396,29.365905 c 0.83368,-1.262327 3.522986,-3.762333 5.150764,-4.48731 1.681979,-0.749117 2.841009,0.881152 2.329754,1.372744 -3.44769,-0.436214 -5.442654,2.005904 -7.091197,3.559503 -0.526148,0.293967 -0.526967,-0.267964 -0.389321,-0.444937 z"
         id="path96907"
         sodipodi:nodetypes="csccc" /><path
         style="filter:url(#filter96899);fill:#682c0d;fill-opacity:1;stroke:none;stroke-width:0.264583px;stroke-linecap:butt;stroke-linejoin:miter;stroke-opacity:1"
         d="m 67.074396,29.365905 c 0.83368,-1.262327 3.522986,-3.762333 5.150764,-4.48731 1.681979,-0.749117 2.841009,0.881152 2.329754,1.372744 -3.44769,-0.436214 -5.442654,2.005904 -7.091197,3.559503 -0.526148,0.293967 -0.526967,-0.267964 -0.389321,-0.444937 z"
         id="path92200"
         sodipodi:nodetypes="csccc" /><path
         style="filter:url(#filter96919);fill:#000000;fill-opacity:1;stroke:none;stroke-width:0.264583px;stroke-linecap:butt;stroke-linejoin:miter;stroke-opacity:1"
         d="m 90.116019,24.496566 c -0.8943,-0.340854 -2.539717,0.02369 -2.352009,0.531194 0.06248,0.138153 3.463233,0.619565 4.741371,5.102881 0.07865,0.275291 0.428408,0.405206 0.505879,-0.210828 0.130217,-1.035465 -1.317034,-4.821728 -2.895241,-5.423247 z"
         id="path96915"
         sodipodi:nodetypes="sccss" /><path
         style="filter:url(#filter96903);fill:#682c0d;fill-opacity:1;stroke:none;stroke-width:0.264583px;stroke-linecap:butt;stroke-linejoin:miter;stroke-opacity:1"
         d="m 90.116019,24.496566 c -0.8943,-0.340854 -2.539717,0.02369 -2.352009,0.531194 0.06248,0.138153 3.463233,0.619565 4.741371,5.102881 0.07865,0.275291 0.428408,0.405206 0.505879,-0.210828 0.130217,-1.035465 -1.317034,-4.821728 -2.895241,-5.423247 z"
         id="path93585"
         sodipodi:nodetypes="sccss" /><ellipse
         style="filter:url(#filter96913);fill:url(#radialGradient98485);fill-opacity:1;display:inline;stroke:#c06a14;stroke-width:1.079;stroke-linecap:round;stroke-linejoin:round;stroke-dasharray:none;stroke-opacity:1;paint-order:markers stroke fill"
         id="path97015"
         cx="78.062317"
         cy="65.003777"
         rx="35.905731"
         ry="35.903881" /><path
         style="filter:url(#filter129192);fill:#ffdda8;fill-opacity:1;stroke:none;stroke-width:0.264583px;stroke-linecap:butt;stroke-linejoin:miter;stroke-opacity:1"
         d="m 88.208948,14.349247 c -3.00333,17.575049 -13.348138,26.140105 -24.80529,30.811954 0,0 11.012212,-9.232463 14.68295,-13.236904 4.22691,-5.45049 10.12234,-17.57505 10.12234,-17.57505 z"
         id="path129334"
         sodipodi:nodetypes="cccc"
         transform="matrix(-0.639034,-0.70535535,0.66952805,-0.67322951,103.88221,108.81942)" /><path
         style="filter:url(#filter96913);fill:none;fill-opacity:1;stroke:#85510d;stroke-width:0.765;stroke-linecap:round;stroke-linejoin:miter;stroke-opacity:1;stroke-dasharray:none"
         d="m 63.631619,37.007016 c 0,0 4.497493,-4.778241 7.236231,-4.011387 0.96014,0.268842 1.533764,2.320314 1.533764,2.320314"
         id="path112569"
         sodipodi:nodetypes="csc" /><path
         style="filter:url(#filter96913);fill:none;fill-opacity:1;stroke:#85510d;stroke-width:0.765;stroke-linecap:round;stroke-linejoin:round;stroke-dasharray:none;stroke-opacity:1"
         d="m 94.8274,38.709603 c -0.111233,-0.389322 -0.760183,-4.986839 -2.725245,-5.89543 -1.379948,-0.638051 -3.392651,1e-6 -4.393761,1.223581"
         id="path115082"
         sodipodi:nodetypes="csc" /><ellipse
         style="filter:url(#filter96913);fill:url(#radialGradient129340);fill-opacity:1;display:inline;stroke:none;stroke-width:0.756248;stroke-linecap:round;stroke-linejoin:round;stroke-dasharray:none;stroke-opacity:1;paint-order:markers stroke fill"
         id="ellipse129338"
         cx="78.062317"
         cy="65.003777"
         rx="25.165573"
         ry="25.164276" /><path
         style="filter:url(#filter118822);fill:#fff98b;fill-opacity:1;mix-blend-mode:normal;stroke:none;stroke-width:0.283933px;stroke-linecap:butt;stroke-linejoin:miter;stroke-opacity:1"
         d="m 59.91632,49.785377 c 3.552939,4.357416 2.188435,9.121726 1.963907,13.880175 -0.126698,2.685095 -0.530245,6.21687 -0.139226,9.250526 0.307058,2.382263 2.52492,4.170303 4.854381,4.599723 4.020571,0.741165 7.586634,-1.663403 10.844545,-4.018372 3.804008,-2.749716 6.245779,-6.967746 8.644246,-10.956394 2.127824,-3.538571 5.26664,-11.360419 5.26664,-11.360419 0,0 -8.792259,4.364591 -15.196403,4.243862 C 70.391639,55.31584 59.91632,49.785377 59.91632,49.785377 Z"
         id="path116259"
         sodipodi:nodetypes="cssssscsc"
         transform="matrix(1.0016859,0,0,1.0378054,-0.09969956,-1.8527463)" /><path
         id="path116257"
         style="filter:url(#filter96913);fill:#7b0500;fill-opacity:1;stroke:#85510d;stroke-width:1.465;stroke-linecap:round;stroke-linejoin:miter;stroke-dasharray:none;stroke-opacity:1;paint-order:markers stroke fill"
         d="m 62.804688,52.140625 c 1.588588,3.393248 0.926583,7.222157 0.671957,10.812724 -0.133519,3.29189 -0.57917,6.586268 -0.107504,9.874776 0.610396,2.605135 3.529396,4.07195 6.05522,3.626666 3.054795,-0.442174 5.538426,-2.473806 7.905717,-4.302447 3.360095,-2.917061 5.445418,-6.937464 7.588168,-10.761034 1.412781,-2.792536 2.589398,-5.697405 3.753629,-8.600294 -3.905649,1.762798 -8.029885,3.358038 -12.359766,3.521484 -3.281187,-0.01072 -6.385671,-1.296916 -9.377076,-2.516095 -1.460907,-0.617226 -2.889765,-1.306331 -4.306127,-2.019061 0.05859,0.121094 0.117188,0.242187 0.175782,0.363281 z" /><path
         style="filter:url(#filter96913);fill:none;fill-opacity:1;stroke:#85510d;stroke-width:0.865;stroke-linecap:round;stroke-linejoin:miter;stroke-dasharray:none;stroke-opacity:1"
         d="m 89.043207,52.391444 c 0,0 5.140404,-4.602059 4.727467,-7.119008"
         id="path118826"
         sodipodi:nodetypes="cc" /><path
         style="filter:url(#filter96913);fill:none;fill-opacity:1;stroke:#85510d;stroke-width:0.965;stroke-linecap:round;stroke-linejoin:round;stroke-opacity:1;stroke-dasharray:none"
         d="m 90.122971,47.389266 c 2.163003,-2.890559 5.699272,-2.604567 7.429675,-0.559546"
         id="path118828"
         sodipodi:nodetypes="cc" /><path
         style="filter:url(#filter96913);fill:none;fill-opacity:1;stroke:#85510d;stroke-width:0.865;stroke-linecap:round;stroke-linejoin:miter;stroke-dasharray:none;stroke-opacity:1"
         d="m 61.42929,45.06912 c -2.910222,1.612421 -0.650638,4.813066 0.725819,6.07154"
         id="path120175"
         sodipodi:nodetypes="cc" /><path
         id="path120177"
         style="filter:url(#filter124604);fill:url(#radialGradient124628);fill-opacity:1;stroke:none;stroke-width:0.264583px;stroke-linecap:butt;stroke-linejoin:miter;stroke-opacity:1"
         d="m 74.162915,57.546875 c -0.35137,0.0049 -0.690276,0.03918 -1.013892,0.10697 -3.490675,0.731223 -6.368465,4.527852 -7.079154,8.022766 -0.697446,3.429791 0.225011,9.928218 3.212724,10.799858 0.04728,-0.007 0.09457,-0.01341 0.141593,-0.0217 3.054792,-0.442174 5.538689,-2.473941 7.905978,-4.30258 3.186512,-2.766366 5.226087,-6.523748 7.255887,-10.165788 -2.836742,-1.982652 -7.157738,-4.485039 -10.423136,-4.439522 z"
         transform="matrix(1.0120449,0,0,1.0120449,-1.0247876,-0.92315525)" /><path
         id="path124608"
         style="filter:url(#filter124604);fill:url(#radialGradient124616);fill-opacity:1;stroke:none;stroke-width:0.264583px;stroke-linecap:butt;stroke-linejoin:miter;stroke-opacity:1"
         d="m 74.162915,57.546875 c -0.35137,0.0049 -0.690276,0.03918 -1.013892,0.10697 -3.490675,0.731223 -6.368465,4.527852 -7.079154,8.022766 -0.697446,3.429791 0.225011,9.928218 3.212724,10.799858 0.04728,-0.007 0.09457,-0.01341 0.141593,-0.0217 3.054792,-0.442174 5.538689,-2.473941 7.905978,-4.30258 3.186512,-2.766366 5.226087,-6.523748 7.255887,-10.165788 -2.836742,-1.982652 -7.157738,-4.485039 -10.423136,-4.439522 z"
         transform="matrix(0.75064982,0,0,0.75972704,19.433361,17.725526)" /><path
         style="filter:url(#filter96913);fill:url(#radialGradient125489);fill-opacity:1;stroke:#9a0000;stroke-width:0.260078px;stroke-linecap:butt;stroke-linejoin:miter;stroke-opacity:1"
         d="m 66.997467,76.453601 c 0,0 0.157761,-3.218468 3.061539,-4.154942 1.733687,-0.559118 5.13901,1.858789 5.13901,1.858789 -1.284752,1.257418 -5.685714,3.416895 -8.200549,2.296153 z"
         id="path125479"
         sodipodi:nodetypes="cscc" /><path
         style="filter:url(#filter127149);fill:#ff615b;fill-opacity:1;opacity:0.729572;stroke:none;stroke-width:0.265;stroke-linecap:butt;stroke-linejoin:miter;stroke-dasharray:none;stroke-opacity:1"
         d="m 68.340539,73.980297 c -0.15731,0.235964 1.802549,-0.436708 2.982947,-0.506143 0.847495,-0.04985 2.41328,0.220492 2.41328,0.220492 -1.927039,-1.101165 -3.769494,-1.533767 -5.396227,0.285651 z"
         id="path127147"
         sodipodi:nodetypes="cscc"
         transform="matrix(0.96103583,-0.27642381,0.36919985,1.283588,-25.183576,-1.0449219)" /><path
         style="filter:url(#filter96913);fill:url(#linearGradient127155);fill-opacity:1;stroke:#ffffff;stroke-width:0.465;stroke-linecap:butt;stroke-linejoin:miter;stroke-opacity:1;stroke-dasharray:none"
         d="m 65.204712,52.855931 0.07866,3.932733 c 1.573094,8.180084 21.630031,1.179821 21.630031,1.179821 l 2.280985,-5.820446 c -8.258739,4.955243 -16.281515,5.112553 -23.989672,0.707892 z"
         id="path127153"
         sodipodi:nodetypes="ccccc" /><path
         id="path124602"
         style="filter:url(#filter96913);fill:none;fill-opacity:1;stroke:#85510d;stroke-width:0.677939;stroke-linecap:round;stroke-linejoin:miter;stroke-dasharray:none;stroke-opacity:1;paint-order:markers stroke fill"
         d="m 62.489052,51.84829 c 1.627752,3.476904 0.949426,7.40021 0.688523,11.079297 -0.13681,3.373047 -0.593449,6.748643 -0.110154,10.118225 0.625445,2.66936 3.616408,4.172339 6.204503,3.716076 3.130106,-0.453074 5.674969,-2.534794 8.100621,-4.408518 3.442934,-2.988977 5.579668,-7.108497 7.775244,-11.026332 1.447612,-2.861383 2.653237,-5.837867 3.84617,-8.812322 -4.001938,1.806257 -8.22785,3.440825 -12.66448,3.608302 -3.362079,-0.01099 -6.543101,-1.328891 -9.608255,-2.578127 -1.496923,-0.632443 -2.961007,-1.338537 -4.412287,-2.068838 0.06004,0.124079 0.120077,0.248158 0.180115,0.372237 z" /><path
         style="filter:url(#filter129186);fill:#d79124;fill-opacity:1;stroke:none;stroke-width:0.264583px;stroke-linecap:butt;stroke-linejoin:miter;stroke-opacity:1"
         d="m 61.547273,77.986095 c -0.314619,1.258475 2.174829,4.011676 4.050713,4.601298 2.238382,0.703561 6.331702,-1.455111 6.489012,-2.713586 -5.741791,1.494439 -9.045286,-0.943856 -10.539725,-1.887712 z"
         id="path128149"
         sodipodi:nodetypes="cscc" /><path
         style="filter:url(#filter129192);fill:#ffdda8;fill-opacity:1;stroke:none;stroke-width:0.264583px;stroke-linecap:butt;stroke-linejoin:miter;stroke-opacity:1"
         d="m 112.79177,68.297974 c -3.00333,17.575049 -13.348138,26.140105 -24.80529,30.811954 0,0 11.012212,-9.232463 14.68295,-13.236904 4.22691,-5.45049 10.12234,-17.57505 10.12234,-17.57505 z"
         id="path129190"
         sodipodi:nodetypes="cccc" /><path
         style="filter:url(#filter129192);fill:#ffdda8;fill-opacity:1;stroke:none;stroke-width:0.264583px;stroke-linecap:butt;stroke-linejoin:miter;stroke-opacity:1"
         d="m 66.406988,54.727366 c -3.00333,17.575049 -13.348138,26.140105 -24.80529,30.811954 0,0 11.012212,-9.232463 14.68295,-13.236904 4.22691,-5.45049 10.12234,-17.57505 10.12234,-17.57505 z"
         id="path129332"
         sodipodi:nodetypes="cccc"
         transform="matrix(-0.60785187,0.67985497,-0.67495642,-0.61226343,129.32923,76.024597)" /><path
         style="filter:url(#filter129192);fill:#ffdda8;fill-opacity:1;stroke:none;stroke-width:0.264583px;stroke-linecap:butt;stroke-linejoin:miter;stroke-opacity:1"
         d="m 88.208948,14.349247 c -3.00333,17.575049 -13.348138,26.140105 -24.80529,30.811954 0,0 11.012212,-9.232463 14.68295,-13.236904 4.22691,-5.45049 10.12234,-17.57505 10.12234,-17.57505 z"
         id="path129336"
         sodipodi:nodetypes="cccc"
         transform="matrix(-0.15072158,-0.32485719,0.15791387,-0.31006137,100.27694,79.180219)" /><path
         style="filter:url(#filter96913);fill:#000000;fill-opacity:1;stroke:none;stroke-width:0.264583px;stroke-linecap:butt;stroke-linejoin:miter;stroke-opacity:1"
         d="m 60.678414,38.876454 c 3.948824,-1.307007 8.871934,1.083519 11.206874,3.281417 0.19466,-3.03114 -2.469303,-5.044268 -4.644041,-5.506108 -2.732142,-0.580213 -6.284747,0.139044 -6.562833,2.224691 z"
         id="path110426"
         sodipodi:nodetypes="ccsc" /><path
         style="filter:url(#filter96913);fill:#000000;fill-opacity:1;stroke:none;stroke-width:0.264583px;stroke-linecap:butt;stroke-linejoin:miter;stroke-opacity:1"
         d="m 82.823357,42.866789 c 0.511257,-3.028205 5.526218,-5.121086 9.477887,-5.112552 6.934138,0.01497 6.213717,2.752913 6.921609,4.443988 -4.837261,-2.516949 -10.736361,-2.438295 -16.399496,0.668564 z"
         id="path112567"
         sodipodi:nodetypes="cscc" /><g
         id="g76901"
         inkscape:label="Left Hand"
         style="display:inline"><path
           style="mix-blend-mode:normal;fill:#000000;fill-opacity:1;stroke:#000000;stroke-width:0.665;stroke-linecap:butt;stroke-linejoin:miter;stroke-dasharray:none;stroke-opacity:1;filter:url(#filter76911)"
           d="m 105.91152,36.141666 c -1.49444,-2.280985 -1.8641,-4.509692 -1.69155,-5.987578 0.28512,-2.442075 0.94355,-5.657401 4.62018,-6.899333 1.64434,-0.555443 4.56341,1.161215 4.56341,1.161215 0,0 0.97491,-1.466348 2.61006,-1.504461 2.07495,-0.04836 3.45222,1.448844 3.45222,1.448844 0.82587,-0.629237 1.5347,-1.601532 3.3859,-1.471881 1.99712,0.13987 3.35747,2.711737 3.68423,4.485913 0.54713,2.970663 -0.43424,8.001581 -2.24492,11.58747 -1.52455,3.019171 -5.27137,6.262425 -6.8044,7.308896 -1.55473,1.061292 -6.68844,3.911347 -9.36673,3.172978 -2.27232,-0.626448 -4.16778,-3.117647 -4.50499,-5.45049 -0.36525,-2.526866 2.29659,-7.851573 2.29659,-7.851573 z"
           id="path76907"
           sodipodi:nodetypes="csscscssssssc" /><path
           style="fill:#f9bc13;fill-opacity:1;stroke:#85510d;stroke-width:0.665;stroke-linecap:butt;stroke-linejoin:miter;stroke-dasharray:none;stroke-opacity:1;filter:url(#filter76903)"
           d="m 105.91152,36.141666 c -1.49444,-2.280985 -1.8641,-4.509692 -1.69155,-5.987578 0.28512,-2.442075 0.94355,-5.657401 4.62018,-6.899333 1.64434,-0.555443 4.56341,1.161215 4.56341,1.161215 0,0 0.97491,-1.466348 2.61006,-1.504461 2.07495,-0.04836 3.45222,1.448844 3.45222,1.448844 0.82587,-0.629237 1.5347,-1.601532 3.3859,-1.471881 1.99712,0.13987 3.35747,2.711737 3.68423,4.485913 0.54713,2.970663 -0.43424,8.001581 -2.24492,11.58747 -1.52455,3.019171 -5.27137,6.262425 -6.8044,7.308896 -1.55473,1.061292 -6.68844,3.911347 -9.36673,3.172978 -2.27232,-0.626448 -4.16778,-3.117647 -4.50499,-5.45049 -0.36525,-2.526866 2.29659,-7.851573 2.29659,-7.851573 z"
           id="path67490"
           sodipodi:nodetypes="csscscssssssc" /><path
           style="fill:#ffd76a;fill-opacity:1;stroke:none;stroke-width:0.587227;stroke-linecap:butt;stroke-linejoin:miter;stroke-dasharray:none;stroke-opacity:1;filter:url(#filter68434)"
           d="m 106.99018,36.15124 c -1.31966,-2.014221 -1.64609,-3.982277 -1.49372,-5.287322 0.25177,-2.156471 0.8332,-4.99576 4.07984,-6.092446 1.45203,-0.490483 4.02971,1.025409 4.02971,1.025409 0,0 0.8609,-1.294856 2.30481,-1.328512 1.83228,-0.0427 3.04848,1.2794 3.04848,1.2794 0.72928,-0.555647 1.35521,-1.414231 2.98991,-1.299743 1.76356,0.123512 2.96481,2.394596 3.25336,3.961279 0.48314,2.62324 -0.38346,7.065784 -1.98238,10.232298 -1.34625,2.666075 -4.65487,5.530025 -6.00861,6.45411 -1.3729,0.937172 -5.90622,3.453909 -8.27128,2.801894 -2.00657,-0.553184 -3.68035,-2.753034 -3.97812,-4.813048 -0.32254,-2.231345 2.028,-6.933319 2.028,-6.933319 z"
           id="path68432"
           sodipodi:nodetypes="csscscssssssc" /><path
           style="mix-blend-mode:normal;fill:#f9be1a;fill-opacity:1;stroke:none;stroke-width:0.264583px;stroke-linecap:butt;stroke-linejoin:miter;stroke-opacity:1;filter:url(#filter71146)"
           d="m 111.84628,24.60147 c 0.50056,1.279197 2.78086,4.152646 0.6674,8.768877 0.11124,0.444938 0.55618,1.056727 1.22359,0.500554 2.00222,-3.392652 2.00221,-6.723469 0.50055,-9.559949 z"
           id="path71150"
           sodipodi:nodetypes="ccccc"
           transform="matrix(1,0,0,1.0386972,6.5628348,-0.77162533)" /><path
           style="fill:none;stroke:#85510d;stroke-width:0.665;stroke-linecap:round;stroke-linejoin:miter;stroke-dasharray:none;stroke-opacity:1"
           d="m 119.55508,24.540254 c 2.83157,4.994571 0.47193,9.28125 0.47193,9.28125"
           id="path67867"
           sodipodi:nodetypes="cc" /><path
           style="mix-blend-mode:normal;fill:#f9be1a;fill-opacity:1;stroke:none;stroke-width:0.264583px;stroke-linecap:butt;stroke-linejoin:miter;stroke-opacity:1;filter:url(#filter71637)"
           d="m 105.97051,34.296175 c 0.51126,-0.511255 1.03145,-1.484118 1.34098,-1.997126 0.31623,-0.524106 -0.20617,-1.612885 -0.0686,-2.320777 0.33428,-0.646864 1.24732,-0.02985 1.6022,0.624707 0.73997,1.364831 0.24017,2.62341 -0.42132,3.598253 -0.58088,0.856063 -1.20613,1.794884 -1.63873,2.561767 z"
           id="path71152"
           sodipodi:nodetypes="cscsscc"
           transform="matrix(1,0,0,0.97274982,0,0.81103482)" /><path
           style="fill:none;stroke:#85510d;stroke-width:0.665;stroke-linecap:round;stroke-linejoin:miter;stroke-dasharray:none;stroke-opacity:1"
           d="m 105.98716,36.023834 c 1.65174,-2.438295 3.42147,-3.618113 2.00569,-5.348516"
           id="path67869"
           sodipodi:nodetypes="cc" /><path
           style="mix-blend-mode:normal;fill:#f9be1a;fill-opacity:1;stroke:none;stroke-width:0.264583px;stroke-linecap:butt;stroke-linejoin:miter;stroke-opacity:1;filter:url(#filter71146)"
           d="m 112.84739,25.083377 c 0.50056,1.279197 1.77975,3.670739 -0.33371,8.28697 0.11124,0.444938 0.55618,1.056727 1.22359,0.500554 2.00222,-3.392652 2.22468,-6.562834 1.05672,-9.690156 z"
           id="path69902"
           sodipodi:nodetypes="ccccc"
           transform="matrix(1,0,0,0.9561433,0,1.5066877)" /><path
           style="fill:none;stroke:#85510d;stroke-width:0.665;stroke-linecap:round;stroke-linejoin:miter;stroke-dasharray:none;stroke-opacity:1"
           d="m 113.38069,24.30429 c 2.83157,4.994571 -0.15731,9.12394 -0.15731,9.12394"
           id="path67865"
           sodipodi:nodetypes="cc" /><path
           style="mix-blend-mode:normal;fill:#ffe9aa;fill-opacity:1;stroke:none;stroke-width:0.264583px;stroke-linecap:butt;stroke-linejoin:miter;stroke-opacity:1;filter:url(#filter72059)"
           d="m 112.59909,25.755611 c 0.38221,0.572629 0.88502,1.766485 0.91768,2.776874 0.0327,1.010389 -0.52046,4.443131 -1.42021,4.114838 -0.60091,-0.219254 0.33657,-2.185451 0,-3.47608 -0.33656,-1.290629 -0.68687,-2.33064 -1.02893,-3.337034 -0.34206,-1.006394 1.16753,-0.623847 1.53146,-0.0786 z"
           id="path71712"
           sodipodi:nodetypes="szszzs"
           transform="matrix(1,0,0,0.97595247,0,0.79391225)" /><path
           style="mix-blend-mode:normal;fill:#ffe59b;fill-opacity:1;stroke:none;stroke-width:0.264583px;stroke-linecap:butt;stroke-linejoin:miter;stroke-opacity:1;filter:url(#filter72059)"
           d="m 112.40245,25.695166 c 0.38221,0.572629 1.16031,2.461138 1.19297,3.471527 0.0327,1.010389 -0.37194,3.935949 -1.2629,3.588259 -0.42393,-0.165439 0.39556,-1.844625 -0.0393,-3.440203 -0.43489,-1.595579 -0.88351,-2.474146 -1.22557,-3.48054 -0.34206,-1.006394 0.97089,-0.684292 1.33482,-0.139043 z"
           id="path72063"
           sodipodi:nodetypes="szszzss"
           transform="matrix(1,0,0,1.0961901,6.1581011,-2.4202848)" /><path
           style="mix-blend-mode:normal;fill:#ffe69f;fill-opacity:1;stroke:none;stroke-width:0.264583px;stroke-linecap:butt;stroke-linejoin:miter;stroke-opacity:1;filter:url(#filter72059)"
           d="m 113.5561,29.256519 c 0.0327,1.010389 -0.33262,3.846123 -1.22358,3.498433 -0.42393,-0.165439 0.39556,-1.844625 -0.0393,-3.440203 -0.43489,-1.595579 -0.88351,-2.474146 -1.22557,-3.48054 -0.34206,-1.006394 1.99134,1.043024 1.48581,0.273427 -0.4697,-0.715048 0.96998,2.138494 1.00264,3.148883 z"
           id="path72065"
           sodipodi:nodetypes="zszzsz"
           transform="matrix(1,0,0,1.1966654,11.705231,-4.9186615)" /><path
           id="path72119"
           style="fill:#ffe69f;stroke-width:1.02335;stroke-linecap:round;stroke-linejoin:round;paint-order:markers stroke fill;filter:url(#filter72121)"
           transform="matrix(-0.9271894,0.29353673,0.19092492,-0.9536203,2.0520865,1.8674498)"
           d="m -131.43665,-83.517776 c 0,2.097358 -0.33921,4.753679 -2.93643,4.753681 -2.59722,-2e-6 -6.46893,-2.656323 -6.46893,-4.753681 0,-2.097359 2.10546,-3.797605 4.70268,-3.797606 2.59722,10e-7 4.70268,1.700247 4.70268,3.797606 z"
           sodipodi:nodetypes="sssss" /><path
           id="path76842"
           style="mix-blend-mode:normal;fill:#ffe69f;stroke-width:0.665001;stroke-linecap:round;stroke-linejoin:round;paint-order:markers stroke fill;filter:url(#filter76845)"
           d="m 118.21121,35.082841 c 0,0.358377 -0.6397,0.766037 -1.09582,0.766039 -0.45612,-2e-6 -0.0895,-0.54366 0.0999,-0.884372 0.1992,-0.358377 0.33461,-0.967572 0.79073,-0.967574 0.45611,-2e-6 0.20519,0.72753 0.20519,1.085907 z"
           sodipodi:nodetypes="sssss"
           transform="matrix(0.99044422,0.13791389,-0.23503797,1.6879518,7.9553973,-40.935934)" /><path
           id="path76849"
           style="mix-blend-mode:normal;fill:#ffe69f;stroke-width:0.665001;stroke-linecap:round;stroke-linejoin:round;paint-order:markers stroke fill;filter:url(#filter76845)"
           d="m 118.21121,35.082841 c 0,0.358377 -0.6397,0.766037 -1.09582,0.766039 -0.45612,-2e-6 -0.0895,-0.54366 0.0999,-0.884372 0.1992,-0.358377 0.33461,-0.967572 0.79073,-0.967574 0.45611,-2e-6 0.20519,0.72753 0.20519,1.085907 z"
           sodipodi:nodetypes="sssss"
           transform="matrix(0.90337376,0.21641536,-0.36882309,1.5395631,16.975627,-45.32028)" /><path
           id="path76851"
           style="mix-blend-mode:normal;fill:#ffe69f;stroke-width:0.665001;stroke-linecap:round;stroke-linejoin:round;paint-order:markers stroke fill;filter:url(#filter76845)"
           d="m 118.21121,35.082841 c 0,0.358377 -0.6397,0.766037 -1.09582,0.766039 -0.45612,-2e-6 -0.0895,-0.54366 0.0999,-0.884372 0.1992,-0.358377 0.33461,-0.967572 0.79073,-0.967574 0.45611,-2e-6 0.20519,0.72753 0.20519,1.085907 z"
           sodipodi:nodetypes="sssss"
           transform="matrix(0.99044422,0.13791389,-0.23503797,1.6879518,13.775842,-39.992078)" /></g><ellipse
         style="display:inline;opacity:0.525292;mix-blend-mode:normal;fill:#000000;fill-opacity:1;stroke:none;stroke-width:1.09318;stroke-linecap:round;stroke-linejoin:round;stroke-dasharray:none;stroke-opacity:1;paint-order:markers stroke fill;filter:url(#filter130119)"
         id="ellipse130115"
         cx="78.062317"
         cy="85.768608"
         rx="36.377682"
         ry="36.375809"
         transform="matrix(0.61082416,0,0,0.12389493,30.379969,99.918528)" /></g><g
       id="g96909"
       inkscape:label="Body"
       style="filter:url(#filter96913);fill:#000000;fill-opacity:1" /></g></svg>
