<?xml version="1.0" encoding="UTF-8" standalone="no"?>
<!-- Created with Inkscape (http://www.inkscape.org/) -->

<svg
   width="210mm"
   height="297mm"
   viewBox="0 0 210 297"
   version="1.1"
   id="svg5"
   inkscape:version="1.2.2 (732a01da63, 2022-12-09)"
   sodipodi:docname="eyeball.svg"
   xmlns:inkscape="http://www.inkscape.org/namespaces/inkscape"
   xmlns:sodipodi="http://sodipodi.sourceforge.net/DTD/sodipodi-0.dtd"
   xmlns:xlink="http://www.w3.org/1999/xlink"
   xmlns="http://www.w3.org/2000/svg"
   xmlns:svg="http://www.w3.org/2000/svg">
  <sodipodi:namedview
     id="namedview7"
     pagecolor="#ffffff"
     bordercolor="#666666"
     borderopacity="1.0"
     inkscape:showpageshadow="2"
     inkscape:pageopacity="0.0"
     inkscape:pagecheckerboard="0"
     inkscape:deskcolor="#d1d1d1"
     inkscape:document-units="mm"
     showgrid="false"
     inkscape:zoom="0.5946522"
     inkscape:cx="128.64663"
     inkscape:cy="320.35533"
     inkscape:window-width="1920"
     inkscape:window-height="1058"
     inkscape:window-x="-8"
     inkscape:window-y="-8"
     inkscape:window-maximized="1"
     inkscape:current-layer="layer1" />
  <defs
     id="defs2">
    <linearGradient
       inkscape:collect="always"
       id="linearGradient5889">
      <stop
         style="stop-color:#000000;stop-opacity:1;"
         offset="0"
         id="stop5885" />
      <stop
         style="stop-color:#000000;stop-opacity:0;"
         offset="1"
         id="stop5887" />
    </linearGradient>
    <linearGradient
       inkscape:collect="always"
       id="linearGradient3631">
      <stop
         style="stop-color:#f2f8ff;stop-opacity:0;"
         offset="0"
         id="stop3627" />
      <stop
         style="stop-color:#0f1029;stop-opacity:0.75555557;"
         offset="1"
         id="stop3629" />
    </linearGradient>
    <linearGradient
       inkscape:collect="always"
       xlink:href="#linearGradient3631"
       id="linearGradient3633"
       x1="68.648186"
       y1="73.380188"
       x2="67.878975"
       y2="39.170025"
       gradientUnits="userSpaceOnUse" />
    <linearGradient
       inkscape:collect="always"
       xlink:href="#linearGradient5889"
       id="linearGradient5891"
       x1="95.329453"
       y1="83.68856"
       x2="69.501503"
       y2="57.364868"
       gradientUnits="userSpaceOnUse" />
    <filter
       inkscape:collect="always"
       style="color-interpolation-filters:sRGB"
       id="filter7359"
       x="-0.016351497"
       y="-0.016351497"
       width="1.032703"
       height="1.032703">
      <feGaussianBlur
         inkscape:collect="always"
         stdDeviation="0.28800612"
         id="feGaussianBlur7361" />
    </filter>
    <filter
       inkscape:collect="always"
       style="color-interpolation-filters:sRGB"
       id="filter7363"
       x="-0.01275871"
       y="-0.01275871"
       width="1.0255174"
       height="1.0255174">
      <feGaussianBlur
         inkscape:collect="always"
         stdDeviation="0.21796129"
         id="feGaussianBlur7365" />
    </filter>
    <filter
       inkscape:collect="always"
       style="color-interpolation-filters:sRGB"
       id="filter7418"
       x="-0.0076352406"
       y="-0.0076352406"
       width="1.0152705"
       height="1.0152705">
      <feGaussianBlur
         inkscape:collect="always"
         stdDeviation="0.25450802"
         id="feGaussianBlur7420" />
    </filter>
    <filter
       inkscape:collect="always"
       style="color-interpolation-filters:sRGB"
       id="filter7506"
       x="-0.0038204436"
       y="-0.0038194531"
       width="1.0076409"
       height="1.0076389">
      <feGaussianBlur
         inkscape:collect="always"
         stdDeviation="0.059745891"
         id="feGaussianBlur7508" />
    </filter>
    <filter
       inkscape:collect="always"
       style="color-interpolation-filters:sRGB"
       id="filter7745"
       x="-0.044271869"
       y="-0.097077688"
       width="1.0885437"
       height="1.1941554">
      <feGaussianBlur
         inkscape:collect="always"
         stdDeviation="0.45998518"
         id="feGaussianBlur7747" />
    </filter>
  </defs>
  <g
     inkscape:label="Layer 1"
     inkscape:groupmode="layer"
     id="layer1">
    <g
       id="g7786"
       inkscape:label="Eyeball"
       transform="matrix(0.67358315,0,0,0.67358315,-9.2129589,0.77648839)"
       style="stroke-width:1.4846">
      <circle
         style="opacity:1;fill:#d6d6d6;fill-opacity:1;stroke:none;stroke-width:0.690338;stroke-linecap:round;stroke-linejoin:round;stroke-dashoffset:5.21575"
         id="path5139"
         cx="66.71524"
         cy="50.089668"
         r="40" />
      <circle
         style="opacity:1;fill:url(#linearGradient5891);fill-opacity:1;stroke:none;stroke-width:0.690338;stroke-linecap:round;stroke-linejoin:round;stroke-dashoffset:5.21575;filter:url(#filter7418)"
         id="circle5867"
         cx="66.71524"
         cy="50.089668"
         r="40" />
      <circle
         style="mix-blend-mode:normal;fill:#000000;fill-opacity:1;stroke:none;stroke-width:0.690336;stroke-linecap:round;stroke-linejoin:round;stroke-dashoffset:5.21575;filter:url(#filter7359)"
         id="circle6619"
         cx="66.715248"
         cy="50.089676"
         r="21.136129" />
      <circle
         style="fill:#1fd1f1;fill-opacity:1;stroke:none;stroke-width:0.690337;stroke-linecap:round;stroke-linejoin:round;stroke-dashoffset:5.21575;filter:url(#filter7363)"
         id="path1957"
         cx="66.71524"
         cy="50.089668"
         r="20.5" />
      <circle
         style="opacity:1;fill:url(#linearGradient3633);fill-opacity:1;stroke:none;stroke-width:0.690337;stroke-linecap:round;stroke-linejoin:round;stroke-dashoffset:5.21575"
         id="circle3469"
         cx="66.71524"
         cy="50.089668"
         r="20.5" />
      <path
         id="path564"
         style="display:inline;fill:#010032;stroke-width:0.27187;stroke-linecap:round;stroke-linejoin:round;stroke-dashoffset:5.21575;filter:url(#filter7506)"
         transform="matrix(0.72694531,0.81596656,-0.81523781,0.72571989,76.248359,3.8433778)"
         d="m 35.595035,50.722927 c -0.993699,0.607261 -5.269357,-10.377118 -6.283644,-9.804907 -1.014287,0.572211 6.176096,9.912245 5.142457,10.448709 -1.033639,0.536465 -4.53265,-10.719412 -5.584382,-10.219347 -1.051732,0.500064 5.469608,10.318921 4.401065,10.781976 -1.068543,0.463055 -3.773861,-11.009482 -4.857913,-10.584001 -1.084053,0.425481 4.736472,10.675326 3.638231,11.062715 -1.098241,0.387389 -2.996684,-11.245914 -4.107776,-10.897089 -1.111092,0.348825 3.980261,10.979721 2.857673,11.289557 -1.122589,0.309835 -2.20491,-11.427558 -3.337628,-11.157089 -1.132718,0.270469 3.204659,11.230624 2.063192,11.461397 -1.141467,0.230773 -1.402393,-11.553528 -2.551218,-11.362732 -1.148826,0.190796 2.413444,11.426813 1.258659,11.577399 -1.154785,0.150586 -0.593043,-11.62321 -1.752379,-11.513017 -1.159337,0.110194 1.610471,11.567331 0.447995,11.636997 -1.162476,0.06967 0.219195,-11.636265 -0.945004,-11.607211 -1.164199,0.02905 0.799652,11.651494 -0.364852,11.639899 -1.164504,-0.01159 1.030367,-11.592629 -0.133023,-11.644856 -1.16339,-0.05223 -0.01506,11.678892 -1.175922,11.586094 -1.160858,-0.0928 1.836518,-11.492515 0.679605,-11.625769 C 23.833258,41.658397 24.160466,53.441044 23.008909,53.267495 21.857351,53.093946 25.64263,41.931084 24.497831,41.717452 23.353032,41.50382 22.857526,53.28059 21.72088,53.027135 20.584234,52.77368 25.138974,41.902058 24.011866,41.609089 c -1.127109,-0.292968 -2.442913,11.420549 -3.55911,11.088423 -1.116197,-0.332126 4.185814,-10.859543 3.081888,-11.230421 -1.103927,-0.370878 -3.233619,11.22232 -4.32393,10.813141 -1.09031,-0.409178 4.933141,-10.541101 3.857775,-10.988082 -1.075366,-0.446981 -4.008571,10.969417 -5.067683,10.485179 -1.059111,-0.484239 5.656434,-10.171306 4.614867,-10.692212 -1.041566,-0.520905 -4.763994,10.663072 -5.786747,10.106134 -1.022753,-0.556939 6.35217,-9.751956 5.349477,-10.344249 -1.002693,-0.592293 -5.496208,10.304778 -6.47762,9.677853 -0.981411,-0.626926 7.016958,-9.285096 6.058024,-9.94589 -0.958934,-0.660795 -6.201644,9.89628 -7.136933,9.202422 -0.935288,-0.693859 7.647561,-8.773 6.737057,-9.499077 -0.910503,-0.726076 -6.876867,9.439569 -7.761476,8.682159 -0.884609,-0.757411 8.240905,-8.218163 7.383268,-9.005984 -0.857637,-0.787821 -7.518587,8.936868 -8.348207,8.119596 -0.82962,-0.817273 8.794101,-7.623287 7.993509,-8.469015 -0.800593,-0.845728 -8.123676,8.390628 -8.894265,7.517475 -0.770589,-0.873153 9.304452,-6.991271 8.564805,-7.890785 -0.739647,-0.899515 -8.689188,7.80351 -9.396992,6.87873 -0.707804,-0.92478 9.769474,-6.325195 9.094375,-7.274113 -0.675098,-0.948919 -9.212366,7.178374 -9.853937,6.206473 C 9.4984408,44.074945 20.32691,39.418543 19.719649,38.424843 19.112389,37.431144 10.028986,44.943109 9.4567744,43.928822 8.8845632,42.914535 20.011469,39.024831 19.475005,37.991192 18.93854,36.957553 9.3532554,43.817593 8.8531912,42.765861 8.353127,41.71413 19.72426,38.610075 19.261206,37.541532 18.798151,36.472989 8.7576834,42.647682 8.3322024,41.56363 7.9067215,40.479577 19.466683,38.176294 19.079294,37.078053 18.691905,35.979811 8.245171,41.439076 7.8963462,40.327984 7.5475214,39.216893 19.239993,37.725602 18.930157,36.603013 18.620321,35.480424 7.8182152,40.197663 7.5477459,39.064945 7.2772766,37.932227 19.045293,37.260195 18.814519,36.118728 18.583746,34.97726 7.478896,38.929492 7.2881,37.780666 7.097304,36.63184 18.883532,36.78234 18.732946,35.627555 18.58236,34.472771 7.2288665,37.640739 7.1186733,36.481403 7.0084801,35.322066 18.755499,36.294365 18.685834,35.131889 18.616168,33.969413 7.069345,36.337685 7.0402914,35.173486 7.0112379,34.009287 18.661818,35.798648 18.673412,34.634144 18.685006,33.46964 7.0011084,35.026677 7.0533361,33.863287 7.1055638,32.699898 18.602944,35.297603 18.695742,34.136745 18.788539,32.975886 7.0244894,33.714103 7.1577438,32.557191 7.2909982,31.400278 18.579165,34.793673 18.752714,33.642115 18.926262,32.490558 7.139374,32.406358 7.3530059,31.261558 7.5666379,30.116759 18.590596,34.28931 18.84405,33.152664 19.097505,32.016018 7.3452024,31.109811 7.6381711,29.982703 7.9311398,28.855595 18.637181,33.786974 18.969307,32.670777 19.301433,31.55458 7.6409719,29.830782 8.0118501,28.726855 8.3827283,27.622929 18.718695,33.289112 19.127873,32.198801 19.537052,31.108491 8.0252416,28.575499 8.4722223,27.500133 8.9192031,26.424767 18.834739,32.798148 19.318977,31.739036 19.803215,30.679925 8.4961393,27.35008 9.0170449,26.308513 9.5379506,25.266946 18.984748,32.316475 19.541686,31.293722 20.098625,30.270969 9.0513708,26.160493 9.6436636,25.157801 c 0.5922924,-1.002693 9.5243284,6.688638 10.1512534,5.707226 0.626925,-0.981411 -10.1066858,-5.852491 -9.445892,-6.811425 0.660795,-0.958934 9.034552,7.336729 9.72841,6.40144 0.693858,-0.935289 -9.673817,-6.543242 -8.947741,-7.453745 0.726077,-0.910504 8.500759,7.949075 9.25817,7.064466 0.75741,-0.88461 -9.193819,-7.202115 -8.405998,-8.059752 0.787822,-0.857637 7.925553,8.522695 8.742825,7.693075 0.817273,-0.82962 -8.669029,-7.825899 -7.823301,-8.626491 0.845728,-0.800592 7.311733,9.054793 8.184886,8.284203 0.873153,-0.770589 -8.102005,-8.411556 -7.20249,-9.151203 0.899514,-0.739647 6.662292,9.542776 7.587071,8.834973 0.92478,-0.707804 -7.495508,-8.956234 -6.54659,-9.631332 0.948919,-0.675098 5.980393,9.984268 6.952293,9.342698 0.971901,-0.64157 -6.852494,-9.457276 -5.858794,-10.064537 0.993699,-0.607261 5.269357,10.377118 6.283644,9.804907 1.014287,-0.572211 -6.176096,-9.912245 -5.142457,-10.448709 1.033639,-0.536465 4.53265,10.719412 5.584382,10.219347 1.051731,-0.500064 -5.469608,-10.318921 -4.401065,-10.781976 1.068543,-0.463055 3.77386,11.009482 4.857913,10.584001 1.084052,-0.425481 -4.736473,-10.675326 -3.638232,-11.062715 1.098241,-0.387389 2.996685,11.245914 4.107777,10.897089 1.111092,-0.348825 -3.980262,-10.979721 -2.857673,-11.289556 1.122589,-0.309836 2.20491,11.427557 3.337628,11.157088 1.132718,-0.270469 -3.20466,-11.230624 -2.063192,-11.461397 1.141467,-0.230773 1.402392,11.553528 2.551218,11.362732 1.148826,-0.190796 -2.413444,-11.426813 -1.25866,-11.577399 1.154785,-0.150586 0.593043,11.62321 1.75238,11.513017 1.159337,-0.110194 -1.610471,-11.567331 -0.447995,-11.636997 1.162476,-0.06967 -0.219196,11.636265 0.945003,11.607212 1.1642,-0.02905 -0.799651,-11.651494 0.364853,-11.6399 1.164503,0.01159 -1.030367,11.592629 0.133023,11.644857 1.16339,0.05223 0.01506,-11.678893 1.175922,-11.586095 1.160858,0.0928 -1.836518,11.492515 -0.679605,11.625769 1.156912,0.133255 0.829704,-11.649392 1.981262,-11.475843 1.151557,0.173549 -2.633721,11.336411 -1.488922,11.550043 1.144799,0.213632 1.640304,-11.563138 2.77695,-11.309683 1.136647,0.253455 -3.418094,11.125077 -2.290985,11.418046 1.127108,0.292969 2.442912,-11.420549 3.559109,-11.088423 1.116198,0.332126 -4.185813,10.859543 -3.081887,11.230421 1.103926,0.370878 3.233619,-11.22232 4.323929,-10.813141 1.09031,0.409178 -4.933141,10.541102 -3.857775,10.988082 1.075367,0.446981 4.008572,-10.969417 5.067683,-10.485179 1.059112,0.484239 -5.656434,10.171306 -4.614867,10.692212 1.041567,0.520906 4.763995,-10.663072 5.786747,-10.106134 1.022753,0.556939 -6.352169,9.751956 -5.349476,10.344249 1.002693,0.592293 5.496208,-10.304778 6.477619,-9.677853 0.981412,0.626926 -7.016958,9.285096 -6.058024,9.945891 0.958934,0.660794 6.201645,-9.896281 7.136933,-9.202422 0.935289,0.693858 -7.64756,8.772999 -6.737057,9.499076 0.910504,0.726076 6.876867,-9.439569 7.761477,-8.682158 0.884609,0.75741 -8.240905,8.218162 -7.383268,9.005983 0.857637,0.787821 7.518586,-8.936868 8.348206,-8.119596 0.82962,0.817273 -8.7941,7.623287 -7.993508,8.469015 0.800592,0.845728 8.123676,-8.390628 8.894265,-7.517475 0.770589,0.873153 -9.304452,6.991271 -8.564805,7.890786 0.739647,0.899514 8.689188,-7.803511 9.396991,-6.878731 0.707804,0.92478 -9.769473,6.325195 -9.094375,7.274114 0.675099,0.948918 9.212367,-7.178375 9.853937,-6.206474 0.641571,0.971901 -10.186898,5.628304 -9.579638,6.622003 0.607261,0.993699 9.690664,-6.518266 10.262875,-5.503979 0.572211,1.014287 -10.554694,4.903991 -10.01823,5.93763 0.536465,1.033639 10.121749,-5.826401 10.621813,-4.774669 0.500065,1.051732 -10.871069,4.155786 -10.408014,5.22433 0.463055,1.068543 10.503522,-5.106151 10.929003,-4.022099 0.425481,1.084053 -11.134481,3.387336 -10.747092,4.485577 0.387389,1.098242 10.834124,-4.361023 11.182948,-3.249931 0.348825,1.111092 -11.343646,2.602382 -11.03381,3.724971 0.309836,1.122589 11.111941,-3.59465 11.382411,-2.461932 0.270469,1.132718 -11.497547,1.80475 -11.266774,2.946217 0.230773,1.141468 11.335624,-2.810763 11.52642,-1.661938 0.190796,1.148826 -11.595433,0.998326 -11.444846,2.153111 0.150586,1.154784 11.504079,-2.013184 11.614272,-0.853848 0.110193,1.159337 -11.636826,0.187038 -11.56716,1.349514 0.06967,1.162476 11.616489,-1.205796 11.645542,-0.0416 0.02905,1.164199 -11.621526,-0.625162 -11.63312,0.539342 -0.01159,1.164504 11.672303,-0.392533 11.620075,0.770857 -0.05223,1.16339 -11.549607,-1.434316 -11.642405,-0.273458 -0.0928,1.160859 11.671252,0.422642 11.537998,1.579554 -0.133255,1.156913 -11.421421,-2.236481 -11.59497,-1.084924 -0.173549,1.151557 11.61334,1.235757 11.399708,2.380557 -0.213632,1.144799 -11.23759,-3.027752 -11.491045,-1.891106 -0.253455,1.136646 11.498848,2.042853 11.205879,3.169961 -0.292968,1.127108 -10.99901,-3.804271 -11.331136,-2.688074 -0.332125,1.116197 11.328336,2.839996 10.957458,3.943922 -0.370879,1.103926 -10.706845,-4.562257 -11.116024,-3.471946 -0.409179,1.09031 11.102632,3.623302 10.655651,4.698668 -0.44698,1.075366 -10.362516,-5.298015 -10.846754,-4.238903 -0.484238,1.059111 10.822837,4.388956 10.301932,5.430523 -0.520906,1.041567 -9.967703,-6.007961 -10.524642,-4.985209 -0.556938,1.022753 10.490316,5.133229 9.898023,6.135922 -0.592293,1.002692 -9.524328,-6.688639 -10.151253,-5.707227 -0.626926,0.981411 10.106685,5.852491 9.445891,6.811425 -0.660794,0.958934 -9.034551,-7.336729 -9.728409,-6.40144 -0.693858,0.935289 9.673817,6.543242 8.94774,7.453745 -0.726076,0.910504 -8.500759,-7.949075 -9.258169,-7.064466 -0.75741,0.88461 9.193819,7.202115 8.405997,8.059752 -0.787821,0.857637 -7.925552,-8.522695 -8.742825,-7.693075 -0.817272,0.82962 8.66903,7.825899 7.823302,8.626491 -0.845728,0.800592 -7.311734,-9.054792 -8.184887,-8.284203 -0.873153,0.770589 8.102005,8.411556 7.202491,9.151203 -0.899515,0.739647 -6.662292,-9.542776 -7.587072,-8.834972 -0.924779,0.707803 7.495509,8.956233 6.54659,9.631331 -0.948918,0.675098 -5.980392,-9.984268 -6.952293,-9.342698 -0.971901,0.64157 6.852494,9.457276 5.858795,10.064537 z" />
      <path
         id="path7573"
         style="opacity:0.702335;mix-blend-mode:normal;fill:#ffffff;fill-opacity:1;stroke:none;stroke-width:0.296919;stroke-linecap:round;stroke-linejoin:round;stroke-dasharray:none;stroke-dashoffset:5.21575;stroke-opacity:1;filter:url(#filter7745)"
         d="m 65.702412,33.582058 c -2.542155,-0.04163 -5.4338,1.180743 -7.762279,2.190952 l 1.987475,3.138827 c 1.499779,-0.938147 3.312174,-1.090531 4.985438,-1.524477 0.824345,0.102804 2.784011,0.158804 3.10142,-0.769452 -0.157852,-0.732564 -0.989635,-2.898011 -2.312054,-3.03585 z m 4.246795,0.435756 -0.862345,3.494495 c 2.492226,0.535466 3.735309,0.979613 6.076233,1.925759 0.502898,0.487162 1.560261,-0.608174 1.066463,-1.828955 -1.296012,-1.255568 -1.982225,-1.569627 -2.78054,-2.323624 -0.70808,-0.245552 -2.768065,-1.106967 -3.499811,-1.267675 z m -15.980353,4.427842 c -1.461085,1.372419 -2.13468,2.18528 -2.547154,4.248101 0.143781,1.346587 1.765814,1.734393 2.813318,2.179823 1.668035,0.502447 1.993767,-1.50578 2.774278,-2.475257 0.270729,-0.710929 1.175435,-0.771151 0.15956,-1.358356 z"
         sodipodi:nodetypes="cccccccccccccccccc" />
    </g>
  </g>
</svg>
