<?xml version="1.0" encoding="UTF-8" standalone="no"?>
<!-- Created with Inkscape (http://www.inkscape.org/) -->

<svg
   width="210mm"
   height="297mm"
   viewBox="0 0 210 297"
   version="1.1"
   id="svg1"
   xml:space="preserve"
   inkscape:version="1.3.2 (091e20e, 2023-11-25, custom)"
   sodipodi:docname="fish.svg"
   xmlns:inkscape="http://www.inkscape.org/namespaces/inkscape"
   xmlns:sodipodi="http://sodipodi.sourceforge.net/DTD/sodipodi-0.dtd"
   xmlns="http://www.w3.org/2000/svg"
   xmlns:svg="http://www.w3.org/2000/svg"><sodipodi:namedview
     id="namedview1"
     pagecolor="#ffffff"
     bordercolor="#000000"
     borderopacity="0.25"
     inkscape:showpageshadow="2"
     inkscape:pageopacity="0.0"
     inkscape:pagecheckerboard="0"
     inkscape:deskcolor="#d1d1d1"
     inkscape:document-units="mm"
     inkscape:zoom="0.91111834"
     inkscape:cx="9.8779704"
     inkscape:cy="393.47249"
     inkscape:window-width="2560"
     inkscape:window-height="1377"
     inkscape:window-x="1272"
     inkscape:window-y="-8"
     inkscape:window-maximized="1"
     inkscape:current-layer="layer1" /><defs
     id="defs1" /><g
     inkscape:label="Layer 1"
     inkscape:groupmode="layer"
     id="layer1"><g
       id="g4"
       style="display:inline"
       inkscape:label="fish"
       transform="translate(-6.6790629,-15.390884)"><g
         id="g11"
         style="display:inline"><path
           id="path11"
           style="display:inline;opacity:1;fill:#000000;fill-opacity:1;stroke:none;stroke-width:1.168;stroke-linecap:round;stroke-dasharray:none;stroke-opacity:1;paint-order:stroke markers fill"
           d="m 106.57422,23.941406 c -12.082021,0.319636 -23.866269,6.093964 -31.598482,15.371883 -1.557908,1.831297 -2.948824,3.797428 -4.237457,5.825383 12.906987,3.340814 25.813913,6.681866 38.720699,10.023437 0.51615,-5.913656 1.26997,-11.807637 3.09638,-17.477479 0.91258,-2.907118 2.5311,-5.498748 4.03705,-8.12101 0.40084,-0.879388 1.09517,-1.738996 1.0659,-2.743022 -0.14383,-1.051411 -1.27157,-1.428848 -2.15202,-1.670128 -2.86956,-1.001684 -5.90678,-1.2966 -8.93207,-1.209064 z" /><path
           style="display:inline;opacity:1;fill:#6288d6;fill-opacity:1;stroke:none;stroke-width:1.168;stroke-linecap:round;stroke-dasharray:none;stroke-opacity:1;paint-order:stroke markers fill"
           d="M 71.583455,44.809962 C 85.098773,23.643593 107.90168,22.995007 114.62677,25.440495 c 1.59003,0.578193 3.22359,0.574614 2.16823,2.601869 -3.22046,6.18622 -4.67378,6.546985 -6.79377,18.068533 -0.50939,2.768406 -1.01184,8.3838 -1.01184,8.3838 z"
           id="path8"
           sodipodi:nodetypes="cssscc" /><path
           id="path10"
           style="opacity:0.527273;fill:#b6b6b6;fill-opacity:1;stroke:none;stroke-width:0.667999;stroke-linecap:round;stroke-opacity:1;paint-order:markers fill stroke"
           d="M 106.96453,24.458972 C 97.080545,24.60187 81.719706,28.935424 71.583228,44.810185 l 7.293611,1.888257 c 1.943554,-1.72556 3.605602,-3.557461 4.322734,-4.485515 1.737586,-2.248641 3.908863,-5.401832 6.030639,-7.154602 2.350853,-1.942007 5.8066,-3.763601 9.403261,-5.059561 9.073297,-3.26932 14.973137,-2.696043 17.133597,-0.191738 0.48037,-0.836766 0.44671,-0.64845 1.02787,-1.76481 1.05536,-2.027253 -0.57832,-2.023716 -2.16834,-2.601908 -1.68128,-0.611372 -4.36741,-1.028968 -7.66207,-0.981336 z"
           sodipodi:nodetypes="sccssscsss" /><path
           id="path9"
           style="display:inline;opacity:0.509091;fill:#f5f7ff;fill-opacity:1;stroke:none;stroke-width:0.667999;stroke-linecap:round;stroke-opacity:1;paint-order:markers fill stroke"
           d="M 106.96453,24.458972 C 97.080545,24.60187 81.719706,28.935424 71.583228,44.810185 l 2.750219,0.712101 c 0.841754,-1.245616 1.682969,-2.472513 2.427242,-3.513481 3.582316,-5.010355 8.159998,-8.282714 13.250024,-10.881969 5.203304,-2.657101 11.252587,-4.201019 16.953157,-4.449886 3.35842,-0.146617 5.94936,0.07186 9.58457,1.818985 0.0852,-0.160373 0.15868,-0.285027 0.2465,-0.453719 1.05536,-2.027253 -0.57832,-2.023716 -2.16834,-2.601908 -1.68128,-0.611372 -4.36741,-1.028968 -7.66207,-0.981336 z"
           sodipodi:nodetypes="sccsascsss" /></g><g
         id="g17"><path
           style="display:inline;opacity:1;fill:#000000;fill-opacity:1;stroke:none;stroke-width:1.18047;stroke-linecap:round;stroke-dasharray:none;stroke-opacity:1;paint-order:stroke markers fill"
           d="m 67.254876,95.292964 c 1.135992,2.583278 3.371946,6.022356 7.065265,9.111946 4.033867,3.37447 11.716614,7.0985 16.997085,7.6277 4.429324,0.4439 7.554424,0.48226 10.048694,-0.67425 0.41904,-0.1943 1.60958,-1.35692 0.7834,-2.18357 -0.82617,-0.82664 -3.499789,-4.29817 -4.19871,-5.56842 -0.693719,-1.26079 -1.498962,-4.38575 -1.986149,-9.553378 -0.427181,-4.531149 -28.709585,1.239972 -28.709585,1.239972 z"
           id="path13"
           sodipodi:nodetypes="cssssssc" /><path
           id="path14"
           style="display:inline;opacity:1;fill:#6288d6;fill-opacity:1;stroke:none;stroke-width:1.18047;stroke-linecap:round;stroke-dasharray:none;stroke-opacity:1;paint-order:stroke markers fill"
           d="m 89.140625,92.859375 c -7.084493,0.282089 -14.0572,1.542601 -21.016016,2.777344 -0.317443,0.108903 0.378106,0.743658 0.413101,1.032379 2.835643,5.178282 7.597903,9.076962 12.886602,11.572022 3.699835,1.85594 7.700665,3.26635 11.859376,3.42217 2.678433,0.20437 5.606325,0.32858 8.021002,-0.89767 0.41944,-0.30143 0.86493,-0.99611 0.31245,-1.39282 -1.59076,-1.88713 -3.208942,-3.80515 -4.350897,-6.0024 -1.192421,-2.94925 -1.442131,-6.164679 -1.842415,-9.282509 -0.402824,-0.912825 -1.599013,-0.883249 -2.434839,-1.08727 -1.272643,-0.187803 -2.566085,-0.140882 -3.848364,-0.141246 z" /><path
           id="path16"
           style="opacity:1;fill:#8fa1c6;fill-opacity:1;stroke:none;stroke-width:1.168;stroke-linecap:round;stroke-dasharray:none;stroke-opacity:1;paint-order:stroke markers fill"
           d="m 73.756222,94.654171 c -1.879355,0.316853 -3.756277,0.649602 -5.631698,0.982369 -0.317443,0.108903 0.378416,0.743774 0.413411,1.032495 2.835641,5.178275 7.597859,9.076845 12.886552,11.571905 3.699832,1.85594 7.700518,3.26671 11.859225,3.42253 2.67843,0.20437 5.606541,0.32863 8.021218,-0.89762 0.41944,-0.30143 0.8646,-0.99649 0.31212,-1.3932 -0.11034,-0.1309 -0.21977,-0.26404 -0.33021,-0.39532 -0.98081,0.42959 -2.621598,0.73448 -5.310786,0.28628 -5.519394,-0.91989 -3.577244,-0.71558 -7.665682,-2.04431 -4.088438,-1.32874 -4.19046,-2.14631 -6.643522,-3.78169 -2.453062,-1.63537 -2.555333,-2.86175 -5.417241,-5.212598 -1.629198,-1.338269 -2.22016,-2.507236 -2.493387,-3.570841 z" /><path
           id="path15"
           style="opacity:1;fill:#c3cde3;fill-opacity:1;stroke:none;stroke-width:1.168;stroke-linecap:round;stroke-dasharray:none;stroke-opacity:1;paint-order:stroke markers fill"
           d="m 70.569853,95.208142 c -0.814967,0.143605 -1.6309,0.283889 -2.445329,0.428398 -0.317443,0.108903 0.378416,0.743774 0.413411,1.032495 2.835641,5.178275 7.597859,9.076845 12.886552,11.571905 3.699832,1.85594 7.700518,3.26671 11.859225,3.42253 2.67843,0.20437 5.606541,0.32863 8.021218,-0.89762 0.35502,-0.25514 0.72159,-0.79066 0.49299,-1.19011 -0.5967,0.19629 -1.16419,0.3905 -1.62574,0.56999 -2.601867,1.01184 -4.336927,0.43373 -8.673372,-0.43356 -4.336442,-0.86729 -5.926207,-1.30082 -9.973552,-3.46904 -4.047349,-2.16823 -4.047248,-3.32497 -8.094596,-7.516856 -1.168887,-1.210633 -2.098094,-2.408475 -2.860807,-3.518132 z" /></g><g
         id="g39"><path
           id="path12"
           style="display:inline;opacity:1;fill:#000000;fill-opacity:1;stroke:none;stroke-width:0.667999;stroke-linecap:round;paint-order:markers fill stroke"
           d="m 169.43927,37.320203 c -3.07002,0.211318 -6.09347,0.963089 -8.97465,2.017964 -5.80224,2.255706 -9.04259,5.079713 -12.47853,8.507382 -1.61338,1.494422 -2.90643,3.349698 -4.18195,5.158968 -1.71659,2.434908 -2.69907,5.192214 -4.64829,7.633642 -1.05121,1.316664 -2.4732,2.649358 -4.17546,2.848405 -1.52195,-0.166791 -2.54382,-1.471404 -3.76308,-2.257743 -5.22578,-3.921059 -11.07327,-6.89034 -16.41863,-10.63501 -3.04464,-2.022363 -6.40666,-3.507512 -9.71879,-5.030184 -3.92641,-1.68258 -7.870858,-3.356558 -11.939322,-4.664315 -7.20948,-2.227118 -14.815648,-2.85913 -22.33197,-2.690275 -10.10947,0.329545 -20.277899,2.000411 -29.660722,5.87251 -4.5201,1.97196 -8.831261,4.430788 -12.873116,7.252787 -4.520715,3.216171 -8.694505,7.372595 -10.532691,12.726355 -2.094216,6.225091 -0.537548,13.338851 3.461805,18.463473 3.767346,5.052495 9.200704,8.559357 14.85284,11.175028 6.26162,3.111884 12.950821,5.469394 19.908862,6.36602 5.643943,0.81023 11.341548,1.41095 17.050122,1.35082 6.73346,-0.15937 13.424275,-1.28175 19.887158,-3.159495 10.227834,-2.760215 20.523184,-5.955883 29.526884,-11.683525 3.5266,-2.247629 6.96801,-4.627623 10.44329,-6.949963 1.04171,-0.56685 2.07746,-1.302281 3.2675,-1.482597 1.38607,0.104211 1.85317,1.630023 2.51664,2.614828 0.83791,1.531622 2.03016,2.814085 3.20187,4.088122 1.46174,1.58939 3.05282,3.069536 4.74855,4.406449 0.95804,0.755315 1.96739,1.459325 3.04685,2.027734 2.17486,1.145205 4.21052,2.251413 6.84196,2.749757 5.12107,0.969831 10.43128,1.638719 15.61869,0.741556 1.11863,-0.191086 2.44943,-0.426227 2.97449,-1.585433 0.51545,-1.172914 0.31778,-2.52653 0.15761,-3.76101 -0.71926,-4.08429 -3.37248,-7.402133 -4.6333,-11.273214 -0.94927,-2.84338 -1.15337,-5.879801 -1.18805,-8.858374 -0.003,-3.272295 0.65745,-6.472605 1.87017,-9.507947 1.28784,-3.437687 2.77481,-6.867812 3.10369,-10.565763 0.36978,-2.601677 1.33569,-5.192148 1.20096,-7.867737 -0.0846,-1.501763 -1.04115,-2.915157 -2.48409,-3.415295 -1.15033,-0.507515 -2.43151,-0.63833 -3.67729,-0.613916 z"
           sodipodi:nodetypes="cccasccccccccccccccccccaaasccccccccccc" /><path
           style="display:inline;opacity:1;fill:#2e5cb9;fill-opacity:1;stroke:none;stroke-width:0.667999;stroke-linecap:round;stroke-opacity:1;paint-order:markers fill stroke"
           d="m 140.33679,59.926849 c 2.09595,-3.758255 3.09033,-5.650861 5.0016,-8.313836 4.15183,-5.784764 9.92988,-10.250569 17.91461,-12.777864 2.47707,-0.784031 6.88303,-1.910693 10.39519,-0.07525 2.85553,1.49229 0.9308,6.623434 0.25377,11.299594 -0.855,5.905439 -4.72752,10.702995 -4.83773,18.643452 -0.13785,9.931069 2.5759,12.466037 4.62677,17.251377 1.06694,2.489541 1.92606,6.027862 0.50347,7.450458 -2.347,2.346993 -15.90656,0.986906 -20.65319,-0.887034 -1.77439,-0.700519 -5.5402,-2.666321 -6.2515,-3.199795 -0.7113,-0.533472 -3.6076,-3.250899 -3.6076,-3.250899 0,0 -0.88912,-9.069049 -0.88912,-10.313821 0,-1.244772 -2.45627,-15.82638 -2.45627,-15.82638 z"
           id="path4"
           sodipodi:nodetypes="cssssssssscscc" /><path
           id="path20"
           style="display:inline;opacity:0.728926;fill:#6f8dc6;fill-opacity:1;stroke:none;stroke-width:1.168;stroke-linecap:round;stroke-dasharray:none;stroke-opacity:1;paint-order:stroke markers fill"
           d="m 169.46873,37.770304 c -2.36598,-0.04912 -4.66748,0.575033 -6.21565,1.065052 -7.98472,2.527292 -13.76284,6.992756 -17.91466,12.777514 -0.96428,1.343523 -1.69585,2.493887 -2.45257,3.783749 l 2.40708,1.943792 c 5.07078,-7.035127 11.885,-9.680836 19.11348,-11.140848 3.27963,-0.662422 5.40963,-0.07898 9.95401,1.292629 0.76212,-3.850685 1.62429,-7.511292 -0.7121,-8.732284 -1.31706,-0.68829 -2.76001,-0.960131 -4.17959,-0.989604 z"
           sodipodi:nodetypes="sssccacss" /><path
           id="path22"
           style="display:inline;opacity:0.557025;fill:#15419b;fill-opacity:1;stroke:none;stroke-width:0.768001;stroke-linecap:round;stroke-dasharray:none;stroke-opacity:1;paint-order:stroke markers fill"
           d="m 149.22832,81.768819 -5.98487,-0.332446 c 0.21943,2.387926 0.43874,4.630725 0.43874,4.630725 0,0 2.89623,2.717493 3.60753,3.250964 0.7113,0.533474 4.47742,2.499287 6.25181,3.199805 4.74663,1.873938 18.30601,3.233758 20.65301,0.886768 1.42258,-1.422595 0.56361,-4.960653 -0.50333,-7.450192 -0.52763,-1.231116 -1.09812,-2.315227 -1.65365,-3.412711 -2.89096,2.230299 -6.36156,1.795811 -9.62411,1.78226 -4.47677,-0.01859 -12.16302,-2.759595 -13.18513,-2.555173 z"
           sodipodi:nodetypes="cccsssscac" /><path
           style="display:inline;opacity:1;fill:#6497fe;fill-opacity:1;stroke:none;stroke-width:0.667999;stroke-linecap:round;paint-order:markers fill stroke"
           d="m 38.143351,46.056541 c 14.045049,-7.248931 39.276363,-9.954199 55.747975,-4.3567 7.055924,2.397792 17.604624,7.112979 20.627644,9.335786 3.02301,2.222804 11.82532,7.290802 15.02616,9.60252 3.20085,2.31172 4.44562,3.823226 6.13495,3.289755 1.68933,-0.533474 3.6454,-2.222807 4.97908,-4.534524 1.33369,-2.311721 3.20084,-5.601473 3.20084,-5.601473 9.40791,8.804721 7.70868,19.256694 6.04603,28.985391 -0.37822,2.213103 -3.48707,5.762658 -3.48707,5.762658 0,0 -3.6259,-3.362028 -5.58197,-5.495922 -1.95607,-2.133894 -2.57846,-5.51256 -4.71235,-5.423646 -2.13389,0.08891 -6.57951,3.823226 -10.66947,6.31277 -11.36666,8.045256 -22.89478,11.187169 -36.187281,14.759432 -4.445611,1.155858 -11.647503,2.222802 -17.4268,2.222802 -5.779293,0 -15.55964,-1.155857 -19.205043,-1.956068 C 46.429951,97.827018 40.552833,95.388224 34.94251,92.557641 27.993925,89.279224 17.538606,82.019557 17.337887,70.151756 17.143551,58.661396 27.576847,51.510125 38.143351,46.056541 Z"
           id="path1"
           sodipodi:nodetypes="sssssscacsssssssss" /><path
           id="path2"
           style="opacity:0.484298;fill:#6578ae;fill-opacity:1;stroke:none;stroke-width:0.667999;stroke-linecap:round;paint-order:markers fill stroke"
           d="m 18.163102,75.654012 c 1.989148,7.40913 9.771169,13.63826 16.779468,16.903646 5.610311,2.830577 11.487411,5.269374 17.693494,6.401676 3.645395,0.800211 13.425748,1.955956 19.205029,1.955956 5.779285,0 12.981242,-1.06675 17.426843,-2.222606 13.292474,-3.572257 24.820814,-6.714066 36.187454,-14.759306 4.08996,-2.489538 8.53523,-6.223883 10.66912,-6.312793 2.13389,-0.08891 2.7563,3.289552 4.71237,5.423442 0.78009,0.851003 1.828,1.861105 2.82412,2.797762 0.002,0.01771 0.0212,0.225309 0.0212,0.225309 0,0 2.89623,2.717494 3.60753,3.250964 0.7113,0.533474 4.47742,2.499288 6.25181,3.199805 4.74663,1.873936 18.30601,3.233755 20.65301,0.886768 1.20739,-1.207407 0.76643,-3.934636 -0.0455,-6.255433 -1.38911,0.836033 -2.74862,1.079552 -4.19664,1.133781 -6.37797,0.238859 -14.36583,0.996242 -18.80636,-3.597309 -9.13808,-9.452982 -13.36732,-9.569678 -18.94218,-6.475695 -3.69579,2.051118 -21.14183,8.974396 -29.6774,10.752636 -8.535561,1.778242 -17.170751,2.972859 -29.084968,2.972859 -11.914216,0 -24.102402,-0.521354 -33.543661,-3.066352 -8.289425,-2.234509 -17.727096,-8.194954 -21.734739,-13.21511 z"
           sodipodi:nodetypes="cccsccssccssscasssssc" /><path
           id="path3"
           style="opacity:0.509091;fill:#ffffff;fill-opacity:1;stroke:none;stroke-width:0.667999;stroke-linecap:round;paint-order:markers fill stroke"
           d="m 169.46252,37.752218 c -2.37072,-0.06344 -4.67094,0.56357 -6.20944,1.083138 -8.24024,2.782817 -13.76285,6.992762 -17.91466,12.777514 0,0 -1.05286,1.528169 -1.55396,2.308903 -0.49774,0.775496 -0.93324,1.535901 -1.41279,2.376599 0.0131,0.01392 0.0233,0.02164 0.0362,0.03514 -0.65561,1.150767 -1.02016,1.796907 -1.74874,3.059762 -1.33366,2.311713 -3.28969,4.001133 -4.97902,4.534607 -1.68933,0.533469 -2.93418,-0.978006 -6.13503,-3.289722 -3.20082,-2.311714 -12.00294,-7.379716 -15.02595,-9.602514 -3.02302,-2.222803 -13.57178,-6.938077 -20.627683,-9.335865 -6.176843,-2.099058 -13.585751,-3.030439 -21.174419,-2.992582 -12.647778,0.0631 -25.795462,2.81885 -34.5736,7.349422 -7.963063,4.109897 -15.845143,9.186296 -19.165238,16.355074 1.297268,0.0952 5.744423,-4.476905 8.911601,-6.245097 8.851993,-4.941943 20.237326,-10.378559 27.928527,-12.042675 11.061786,-2.393399 26.49599,-3.285521 49.070902,4.658113 5.67749,1.997788 13.377,5.925543 17.89659,10.051583 4.27328,3.228457 9.06782,7.9704 14.88539,6.466789 4.14413,-1.729427 5.86299,-6.049623 7.50652,-9.830925 0.82839,-1.905883 1.83893,-3.938608 2.87476,-5.181595 7.77611,-9.331349 13.15651,-10.266876 20.69796,-9.45472 2.49426,0.268613 3.84921,2.498034 6.02289,4.512902 0.5531,-2.997076 0.76907,-5.596327 -1.12499,-6.586161 -1.31706,-0.688289 -2.76335,-0.969625 -4.1858,-1.00769 z"
           sodipodi:nodetypes="sscscccsssssscsssccssacsss" /><path
           id="path21"
           style="color:#000000;display:inline;fill:#000000;stroke-linecap:round;-inkscape-stroke:none;paint-order:stroke markers fill"
           d="m 65.749992,38.50566 c -0.274523,0.02176 -0.54882,0.04631 -0.823206,0.07028 1.783446,3.596175 3.612399,7.638093 4.411101,10.570414 2.709299,9.946821 4.939747,19.60633 2.947106,30.646708 -1.540991,8.537969 -3.368504,14.801492 -6.131925,21.383708 0.27073,0.0189 0.541501,0.036 0.812354,0.0527 C 69.691767,94.684934 71.511686,88.402862 73.04102,79.929488 75.06538,68.713367 72.792208,58.910571 70.077893,48.945333 69.2695,45.977433 67.499284,42.048302 65.749992,38.50566 Z" /></g><g
         id="g7"
         inkscape:label="Eye"
         style="display:inline"><ellipse
           style="opacity:1;fill:#ffffff;fill-opacity:1;stroke:#000000;stroke-width:0.757612;stroke-linecap:round;stroke-opacity:1;paint-order:markers fill stroke"
           id="path5"
           cx="45.171333"
           cy="64.468529"
           rx="11.591329"
           ry="11.519054" /><ellipse
           style="opacity:1;fill:#000000;fill-opacity:1;stroke:none;stroke-width:0.752411;stroke-linecap:round;stroke-opacity:1;paint-order:markers fill stroke"
           id="path6"
           cx="48.279118"
           cy="63.167591"
           rx="7.040659"
           ry="7.0406585" /><ellipse
           style="opacity:1;fill:#ffffff;fill-opacity:1;stroke:none;stroke-width:0.952944;stroke-linecap:round;stroke-opacity:1;paint-order:markers fill stroke"
           id="path7"
           cx="52.471016"
           cy="62.806217"
           rx="1.7345792"
           ry="2.0959496" /></g><g
         id="g27"><path
           style="display:inline;opacity:0.345455;fill:#121212;fill-opacity:1;stroke:none;stroke-width:0.768001;stroke-linecap:round;stroke-dasharray:none;stroke-opacity:1;paint-order:stroke markers fill"
           d="m 73.575068,71.985036 -0.433647,4.1919 c 5.305617,5.489345 9.509393,12.617987 16.160949,13.015832 6.728007,0.402417 11.75669,-3.39568 15.48629,-7.28572 2.51676,-2.625028 5.88843,-7.223869 4.20073,-10.644753 C 106.04066,65.28536 89.764472,65.76946 89.764472,65.76946 Z"
           id="path28"
           sodipodi:nodetypes="ccssacc" /><path
           style="display:inline;opacity:1;fill:#000000;fill-opacity:1;stroke:none;stroke-width:0.768001;stroke-linecap:round;stroke-dasharray:none;stroke-opacity:1;paint-order:stroke markers fill"
           d="m 73.668273,68.85169 c 7.7593,-6.282649 16.052612,-11.902091 26.172759,-8.670015 5.059188,1.59004 6.967408,3.09621 9.323358,5.92648 0.86436,1.038379 1.38001,2.414247 1.51776,3.75826 0.11975,1.168439 0.005,2.478778 -0.62929,3.467032 -3.71297,5.780522 -8.27243,11.16355 -16.912153,11.78068 -1.981952,0.14157 -6.434136,0.189873 -9.540187,-1.80685 -3.966358,-2.181593 -6.924784,-5.273976 -10.304512,-8.23124 0,0 0.474476,-4.997814 0.372265,-6.224347 z"
           id="path23"
           sodipodi:nodetypes="csaaasscc" /><path
           id="path24"
           style="display:inline;opacity:1;fill:#7aa6ff;fill-opacity:1;stroke:none;stroke-width:0.768001;stroke-linecap:round;stroke-dasharray:none;stroke-opacity:1;paint-order:stroke markers fill"
           d="m 93.486328,60.037109 c -5.022371,0.141183 -9.766149,2.474137 -13.863082,5.308816 -1.778138,1.218997 -4.118516,2.723045 -5.803081,4.067319 0.0019,1.843774 0.0087,3.321658 -0.133468,5.157887 3.561232,3.13469 7.404139,6.834951 11.808252,8.782725 3.623337,1.423225 7.694715,1.23057 11.417054,0.31797 4.321977,-1.209719 7.895467,-4.261182 10.463177,-7.864921 0.92607,-1.278674 2.00127,-2.5475 2.44062,-4.086739 0.47048,-2.238482 -0.5195,-4.540803 -2.11041,-6.102039 -2.63972,-2.969843 -6.51687,-4.404742 -10.302921,-5.234278 -1.237809,-0.241225 -2.613959,-0.39016 -3.916141,-0.34674 z"
           sodipodi:nodetypes="ccccccccccc" /><path
           style="opacity:1;fill:#121212;fill-opacity:1;stroke:none;stroke-width:0.768001;stroke-linecap:round;stroke-dasharray:none;stroke-opacity:1;paint-order:stroke markers fill"
           d="m 73.522787,71.093458 c 0.102211,-0.511056 1.148592,-1.57497 6.770199,-3.925825 5.621608,-2.350855 8.880486,-2.981723 11.815652,-3.071999 1.008482,-0.03102 2.097375,-0.06915 3.380241,0.111544 -1.897196,-0.01807 -4.340175,0.334076 -5.257724,0.505541 -2.359951,0.441012 -4.694067,1.093021 -6.924631,1.980964 -3.403506,1.354868 -6.694007,2.852162 -9.752626,5.065765 z"
           id="path25"
           sodipodi:nodetypes="csscsacc" /><path
           style="opacity:1;fill:#121212;fill-opacity:1;stroke:none;stroke-width:0.768001;stroke-linecap:round;stroke-dasharray:none;stroke-opacity:1;paint-order:stroke markers fill"
           d="m 73.47168,73.947521 c 0.45995,0.408845 1.301909,1.319442 6.923516,3.670297 5.621608,2.350855 9.953702,2.981723 12.888868,3.071999 1.008482,0.03102 3.579435,0.120251 4.862301,-0.06044 -1.897196,0.01807 -6.895451,-0.385181 -7.813,-0.556646 -2.359951,-0.441011 -4.694067,-1.09302 -6.924631,-1.980963 -3.403506,-1.354868 -6.694007,-2.852162 -9.752626,-5.065765 z"
           id="path26"
           sodipodi:nodetypes="csscsacc" /><path
           style="opacity:1;fill:#121212;fill-opacity:1;stroke:none;stroke-width:0.768001;stroke-linecap:round;stroke-dasharray:none;stroke-opacity:1;paint-order:stroke markers fill"
           d="m 73.465749,72.049231 c 0.578185,-0.205784 3.647107,-0.823102 5.492293,-1.114758 2.828117,-0.447022 5.673579,-0.859241 8.534625,-0.971005 2.418649,-0.09448 4.856342,-0.05384 7.256984,0.25553 2.233911,0.287884 6.592619,1.48206 6.592619,1.48206 0,0 -4.074677,-0.684241 -6.132668,-0.817689 -3.269925,-0.212034 -6.567699,-0.274359 -9.830332,0.02994 -4.047519,0.3775 -9.02761,0.634433 -11.991731,2.218706 0.138068,-0.820682 0.01599,-0.232408 0.07821,-1.082784 z"
           id="path27"
           sodipodi:nodetypes="caaacaacc" /></g><g
         id="g40"><path
           style="opacity:1;fill:#010000;fill-opacity:1;stroke:none;stroke-width:0.768001;stroke-linecap:round;stroke-dasharray:none;stroke-opacity:1;paint-order:stroke markers fill"
           d="m 64.870105,62.317838 c 1.482061,7.001458 0.552197,12.221343 -0.342458,16.077933 -1.073121,4.625901 -3.842177,8.693677 -5.06871,11.86222 0,0 4.912627,-7.428762 6.097334,-12.108486 1.111231,-4.389487 1.235299,-12.149317 -0.686166,-15.831667 z"
           id="path29"
           sodipodi:nodetypes="cscsc" /><path
           style="opacity:1;fill:#010000;fill-opacity:1;stroke:none;stroke-width:0.768001;stroke-linecap:round;stroke-dasharray:none;stroke-opacity:1;paint-order:stroke markers fill"
           d="m 20.717445,76.379988 c 3.730946,0.454651 2.426042,0.158842 5.116756,-0.0403 2.058715,-0.152367 2.596359,-0.30668 3.88072,-1.507141 -3.168701,1.293034 -6.778001,1.832577 -9.355121,0.881323 -1.991724,-0.735176 -2.244956,-0.986361 -2.51344,-0.353877 0.442096,0.414193 0.492989,0.775929 2.871085,1.019995 z"
           id="path30"
           sodipodi:nodetypes="sscscs" /><path
           style="opacity:0.413223;fill:#d8d8d8;fill-opacity:1;stroke:none;stroke-width:0.568;stroke-linecap:round;stroke-dasharray:none;stroke-opacity:1;paint-order:stroke markers fill"
           d="m 29.614007,74.5082 c 0,0 0.484636,1.22936 0.34024,1.768253 -0.107903,2.629199 -1.52219,3.460287 -3.510921,4.045291 -0.377901,0.111163 -3.978757,0.691944 -6.902021,-1.722031 l -0.958072,-1.186687 c 0,0 2.772084,0.718688 4.004122,0.718688 1.232038,0 3.850117,-0.20534 4.568806,-0.667353 0.718688,-0.462016 2.2074,-1.642716 2.2074,-1.642716 z"
           id="path36"
           sodipodi:nodetypes="cssccsscc" /><path
           style="opacity:1;fill:none;fill-opacity:1;stroke:#000000;stroke-width:0.568;stroke-linecap:round;stroke-dasharray:none;stroke-opacity:1;paint-order:stroke markers fill"
           d="m 18.637682,77.328505 c 0,0 1.826363,1.763385 3.005984,2.020211 2.312851,0.503552 5.312226,0.50022 7.006993,-1.152235 0.897082,-0.874685 0.866814,-2.034085 0.703467,-3.69237"
           id="path33"
           sodipodi:nodetypes="caac" /><path
           style="opacity:0.542149;fill:#000000;fill-opacity:1;stroke:none;stroke-width:0.568;stroke-linecap:round;stroke-dasharray:none;stroke-opacity:1;paint-order:stroke markers fill"
           d="m 28.071873,73.273288 c 0.973523,-0.571904 3.60414,-1.75694 4.045267,-0.682373 0.414065,1.008646 -0.494455,3.905588 -0.946933,4.969204 1.05426,-1.205697 2.160889,-4.437413 1.551426,-5.675784 -0.572956,-1.164192 -3.761878,0.300367 -4.64976,1.388953 z"
           id="path34"
           sodipodi:nodetypes="cscsc" /><path
           style="opacity:1;fill:#3a68ae;fill-opacity:1;stroke:none;stroke-width:0.568;stroke-linecap:round;stroke-dasharray:none;stroke-opacity:1;paint-order:stroke markers fill"
           d="m 18.087217,75.539374 c 0.374824,1.288385 1.370665,2.606284 2.197426,3.047019 1.466324,0.781676 3.768661,0.987445 4.569714,0.884596 0.813101,-0.104396 2.812516,-0.542763 3.553365,-1.326132 0.752368,-0.795547 0.998098,-1.960317 0.813179,-2.969102 -1.31963,0.639268 -3.046866,1.120707 -4.823131,1.341295 -0.98018,0.121726 -2.820043,-0.01547 -3.808353,-0.185282 -1.556555,-0.267445 -2.250203,-0.543688 -2.5022,-0.792394 z"
           id="path35"
           sodipodi:nodetypes="cssscssc" /><path
           style="opacity:0.520661;fill:#000000;fill-opacity:1;stroke:none;stroke-width:0.568;stroke-linecap:round;stroke-dasharray:none;stroke-opacity:1;paint-order:stroke markers fill"
           d="m 28.232639,73.440061 c 0.870854,0.09545 1.837933,0.05535 2.27906,1.129918 0.414065,1.008646 0.302871,1.768275 0.434328,2.315333 0.01152,-1.006774 0.282377,-1.308824 -0.154326,-2.607585 -0.292873,-0.871007 -1.594177,-1.104893 -2.559062,-0.837666 z"
           id="path37"
           sodipodi:nodetypes="cscsc" /><path
           style="opacity:0.586777;fill:#101010;fill-opacity:1;stroke:none;stroke-width:0.568;stroke-linecap:round;stroke-dasharray:none;stroke-opacity:1;paint-order:stroke markers fill"
           d="m 30.595599,79.004407 c 0,0 -0.205341,0.410679 -0.641686,1.386042 -0.436346,0.975365 -1.026699,1.514379 -1.026699,1.514379 0.733522,-0.413952 0.854702,-0.489182 1.116534,-0.885527 0.383838,-0.581029 0.551851,-2.014894 0.551851,-2.014894 z"
           id="path38"
           sodipodi:nodetypes="cscac" /><path
           style="opacity:0.672727;fill:#000000;fill-opacity:1;stroke:none;stroke-width:0.568;stroke-linecap:round;stroke-dasharray:none;stroke-opacity:1;paint-order:stroke markers fill"
           d="m 145.34221,55.46526 c 0,0 4.7915,4.9367 5.37229,11.18017 0.58079,6.243474 -0.2178,14.374505 -0.65339,15.245688 1.86793,-3.504776 1.98978,-8.382334 2.03276,-12.777338 0.0726,-3.920319 -2.03275,-9.074812 -3.55733,-10.962376 -0.86068,-1.065608 -3.19433,-2.686144 -3.19433,-2.686144 z"
           id="path39"
           sodipodi:nodetypes="cssssc" /></g></g></g></svg>
