<?xml version="1.0" encoding="UTF-8" standalone="no"?>
<!-- Created with Inkscape (http://www.inkscape.org/) -->

<svg
   width="210mm"
   height="297mm"
   viewBox="0 0 210 297"
   version="1.1"
   id="svg5"
   xml:space="preserve"
   inkscape:version="1.2.1 (9c6d41e410, 2022-07-14)"
   sodipodi:docname="flag.svg"
   xmlns:inkscape="http://www.inkscape.org/namespaces/inkscape"
   xmlns:sodipodi="http://sodipodi.sourceforge.net/DTD/sodipodi-0.dtd"
   xmlns:xlink="http://www.w3.org/1999/xlink"
   xmlns="http://www.w3.org/2000/svg"
   xmlns:svg="http://www.w3.org/2000/svg"><sodipodi:namedview
     id="namedview7"
     pagecolor="#ffffff"
     bordercolor="#666666"
     borderopacity="1.0"
     inkscape:showpageshadow="2"
     inkscape:pageopacity="0.0"
     inkscape:pagecheckerboard="0"
     inkscape:deskcolor="#d1d1d1"
     inkscape:document-units="mm"
     showgrid="false"
     inkscape:zoom="1.2938725"
     inkscape:cx="350.49821"
     inkscape:cy="308.3766"
     inkscape:window-width="2286"
     inkscape:window-height="1361"
     inkscape:window-x="200"
     inkscape:window-y="0"
     inkscape:window-maximized="0"
     inkscape:current-layer="layer1" /><defs
     id="defs2"><linearGradient
       inkscape:collect="always"
       id="linearGradient55962"><stop
         style="stop-color:#497ad7;stop-opacity:1;"
         offset="0"
         id="stop55958" /><stop
         style="stop-color:#89a0fa;stop-opacity:1;"
         offset="0.15935206"
         id="stop55966" /><stop
         style="stop-color:#5a88e8;stop-opacity:1;"
         offset="0.42434785"
         id="stop55970" /><stop
         style="stop-color:#9eb1fd;stop-opacity:1;"
         offset="0.73390681"
         id="stop55968" /><stop
         style="stop-color:#4480fc;stop-opacity:1;"
         offset="1"
         id="stop55960" /></linearGradient><linearGradient
       inkscape:collect="always"
       id="linearGradient54060"><stop
         style="stop-color:#cc9251;stop-opacity:0.01666667;"
         offset="0"
         id="stop54056" /><stop
         style="stop-color:#81480f;stop-opacity:1;"
         offset="1"
         id="stop54058" /></linearGradient><linearGradient
       inkscape:collect="always"
       id="linearGradient52189"><stop
         style="stop-color:#ae7d47;stop-opacity:0.15850145;"
         offset="0"
         id="stop52185" /><stop
         style="stop-color:#f6cd9f;stop-opacity:0.54755044;"
         offset="0.51351386"
         id="stop52193" /><stop
         style="stop-color:#ae7d47;stop-opacity:0;"
         offset="1"
         id="stop52187" /></linearGradient><linearGradient
       inkscape:collect="always"
       id="linearGradient50589"><stop
         style="stop-color:#5c3710;stop-opacity:1;"
         offset="0"
         id="stop50585" /><stop
         style="stop-color:#aa6418;stop-opacity:0.29682997;"
         offset="1"
         id="stop50587" /></linearGradient><linearGradient
       inkscape:collect="always"
       id="linearGradient45914"><stop
         style="stop-color:#7f500f;stop-opacity:0.98039216;"
         offset="0"
         id="stop45910" /><stop
         style="stop-color:#9f5f17;stop-opacity:0.01440922;"
         offset="1"
         id="stop45912" /></linearGradient><linearGradient
       inkscape:collect="always"
       id="linearGradient40359"><stop
         style="stop-color:#ff9e20;stop-opacity:0;"
         offset="0"
         id="stop40353" /><stop
         style="stop-color:#4c2f0b;stop-opacity:0.98039216;"
         offset="1"
         id="stop40357" /></linearGradient><linearGradient
       inkscape:collect="always"
       id="linearGradient38324"><stop
         style="stop-color:#492b0d;stop-opacity:0.14985591;"
         offset="0"
         id="stop38320" /><stop
         style="stop-color:#995b17;stop-opacity:0.01729107;"
         offset="1"
         id="stop38322" /></linearGradient><linearGradient
       inkscape:collect="always"
       id="linearGradient36453"><stop
         style="stop-color:#c17820;stop-opacity:0.01440922;"
         offset="0"
         id="stop36447" /><stop
         style="stop-color:#d98931;stop-opacity:1;"
         offset="0.47615227"
         id="stop36449" /><stop
         style="stop-color:#c37b2a;stop-opacity:0.15273775;"
         offset="1"
         id="stop36451" /></linearGradient><linearGradient
       inkscape:collect="always"
       id="linearGradient24709"><stop
         style="stop-color:#905513;stop-opacity:1;"
         offset="0"
         id="stop24705" /><stop
         style="stop-color:#b97427;stop-opacity:0.97647059;"
         offset="0.48627031"
         id="stop24711" /><stop
         style="stop-color:#8d5211;stop-opacity:0.97647059"
         offset="1"
         id="stop24707" /></linearGradient><linearGradient
       inkscape:collect="always"
       id="linearGradient16670"><stop
         style="stop-color:#e59e53;stop-opacity:0.02881847;"
         offset="0"
         id="stop16666" /><stop
         style="stop-color:#e9af75;stop-opacity:1;"
         offset="0.40000004"
         id="stop16674" /><stop
         style="stop-color:#f5b772;stop-opacity:0.03458213;"
         offset="1"
         id="stop16668" /></linearGradient><linearGradient
       inkscape:collect="always"
       id="linearGradient12656"><stop
         style="stop-color:#a05c11;stop-opacity:1;"
         offset="0"
         id="stop12652" /><stop
         style="stop-color:#db8c35;stop-opacity:1;"
         offset="0.49778175"
         id="stop12660" /><stop
         style="stop-color:#703c05;stop-opacity:1;"
         offset="1"
         id="stop12654" /></linearGradient><inkscape:path-effect
       effect="mirror_symmetry"
       start_point="66.08033,30.075949"
       end_point="66.08033,122.47273"
       center_point="66.08033,76.274339"
       id="path-effect2420"
       is_visible="true"
       lpeversion="1.2"
       lpesatellites=""
       mode="free"
       discard_orig_path="false"
       fuse_paths="false"
       oposite_fuse="false"
       split_items="false"
       split_open="false"
       link_styles="false" /><linearGradient
       inkscape:collect="always"
       xlink:href="#linearGradient12656"
       id="linearGradient12658"
       x1="96.517769"
       y1="64.634369"
       x2="101.43405"
       y2="64.634369"
       gradientUnits="userSpaceOnUse" /><linearGradient
       inkscape:collect="always"
       xlink:href="#linearGradient16670"
       id="linearGradient16672"
       x1="98.487892"
       y1="65.646545"
       x2="99.662735"
       y2="65.646545"
       gradientUnits="userSpaceOnUse"
       gradientTransform="matrix(1.0149699,0,0,1.0149699,-1.990449,-1.3680169)" /><filter
       inkscape:collect="always"
       style="color-interpolation-filters:sRGB"
       id="filter20432"
       x="-0.12026629"
       y="-0.18541053"
       width="1.2405326"
       height="1.3708211"><feGaussianBlur
         inkscape:collect="always"
         stdDeviation="0.13033112"
         id="feGaussianBlur20434" /></filter><linearGradient
       inkscape:collect="always"
       xlink:href="#linearGradient24709"
       id="linearGradient24703"
       x1="84.249672"
       y1="94.299263"
       x2="113.90065"
       y2="94.883125"
       gradientUnits="userSpaceOnUse" /><filter
       inkscape:collect="always"
       style="color-interpolation-filters:sRGB"
       id="filter35700"
       x="-0.063329907"
       y="-0.077023925"
       width="1.1266598"
       height="1.1540478"><feGaussianBlur
         inkscape:collect="always"
         stdDeviation="0.16366366"
         id="feGaussianBlur35702" /></filter><linearGradient
       inkscape:collect="always"
       xlink:href="#linearGradient36453"
       id="linearGradient36445"
       x1="88.646194"
       y1="97.030266"
       x2="95.803329"
       y2="98.461693"
       gradientUnits="userSpaceOnUse" /><linearGradient
       inkscape:collect="always"
       xlink:href="#linearGradient38324"
       id="linearGradient38326"
       x1="112.69089"
       y1="91.843788"
       x2="109.6994"
       y2="94.312897"
       gradientUnits="userSpaceOnUse" /><radialGradient
       inkscape:collect="always"
       xlink:href="#linearGradient40359"
       id="radialGradient41879"
       cx="99.501686"
       cy="85.095062"
       fx="99.501686"
       fy="85.095062"
       r="11.16392"
       gradientTransform="matrix(0.45126162,-0.60750653,0.81924198,0.60854074,-15.113057,93.759168)"
       gradientUnits="userSpaceOnUse" /><filter
       inkscape:collect="always"
       style="color-interpolation-filters:sRGB"
       id="filter42502"
       x="-0.1030724"
       y="-0.17541555"
       width="1.2061448"
       height="1.3508311"><feGaussianBlur
         inkscape:collect="always"
         stdDeviation="0.95891006"
         id="feGaussianBlur42504" /></filter><clipPath
       clipPathUnits="userSpaceOnUse"
       id="clipPath42514"><ellipse
         style="display:inline;opacity:1;fill:#d98931;fill-opacity:1;fill-rule:evenodd;stroke-width:0.283337"
         id="ellipse42516"
         cx="99.30529"
         cy="86.417282"
         rx="11.36039"
         ry="7.8819823" /></clipPath><linearGradient
       inkscape:collect="always"
       xlink:href="#linearGradient45914"
       id="linearGradient45916"
       x1="86.499054"
       y1="92.324486"
       x2="87.98661"
       y2="92.613678"
       gradientUnits="userSpaceOnUse" /><filter
       inkscape:collect="always"
       style="color-interpolation-filters:sRGB"
       id="filter48131"
       x="-0.058883295"
       y="-0.12647573"
       width="1.1177666"
       height="1.2529515"><feGaussianBlur
         inkscape:collect="always"
         stdDeviation="0.6772085"
         id="feGaussianBlur48133" /></filter><linearGradient
       inkscape:collect="always"
       xlink:href="#linearGradient50589"
       id="linearGradient50591"
       x1="81.62439"
       y1="98.578255"
       x2="85.889969"
       y2="100.09653"
       gradientUnits="userSpaceOnUse" /><linearGradient
       inkscape:collect="always"
       xlink:href="#linearGradient52189"
       id="linearGradient52191"
       x1="85.817673"
       y1="103.78371"
       x2="94.999512"
       y2="105.59116"
       gradientUnits="userSpaceOnUse" /><clipPath
       clipPathUnits="userSpaceOnUse"
       id="clipPath52285"><ellipse
         style="display:inline;opacity:1;fill:#ec85e1;fill-opacity:1;fill-rule:evenodd;stroke-width:0.487902"
         id="ellipse52287"
         cx="243.05576"
         cy="-126.5767"
         rx="20.679533"
         ry="12.839463"
         transform="matrix(0.50403858,0.86368114,0.18567587,0.98261105,0,0)" /></clipPath><linearGradient
       inkscape:collect="always"
       xlink:href="#linearGradient54060"
       id="linearGradient54062"
       x1="109.74831"
       y1="102.55463"
       x2="113.79697"
       y2="102.69924"
       gradientUnits="userSpaceOnUse" /><filter
       inkscape:collect="always"
       style="color-interpolation-filters:sRGB"
       id="filter55629"
       x="-0.055339417"
       y="-0.021430544"
       width="1.1106788"
       height="1.0428611"><feGaussianBlur
         inkscape:collect="always"
         stdDeviation="0.68383878"
         id="feGaussianBlur55631" /></filter><linearGradient
       inkscape:collect="always"
       xlink:href="#linearGradient55962"
       id="linearGradient55964"
       x1="99.995369"
       y1="47.237076"
       x2="11.655901"
       y2="47.032585"
       gradientUnits="userSpaceOnUse" /><filter
       inkscape:collect="always"
       style="color-interpolation-filters:sRGB"
       id="filter62741"
       x="-0.015514259"
       y="-0.049771135"
       width="1.0310285"
       height="1.0995423"><feGaussianBlur
         inkscape:collect="always"
         stdDeviation="0.51876062"
         id="feGaussianBlur62743" /></filter></defs><g
     inkscape:label="Layer 1"
     inkscape:groupmode="layer"
     id="layer1"><g
       id="g997"><path
         id="path62734"
         style="opacity:0.82808;fill:#000000;fill-opacity:1;stroke:none;stroke-width:0.264583px;stroke-linecap:butt;stroke-linejoin:miter;stroke-opacity:1;filter:url(#filter62741)"
         d="m 97.891182,34.847485 -80.105704,11.712464 2.285132,0.378788 74.607849,12.367204 0.894002,0.148311 2.463415,0.408244 z"
         transform="matrix(0.63427964,0,0,0.63427964,-0.77354168,-12.778307)" /><path
         id="path55585"
         style="fill:#000000;fill-opacity:1;fill-rule:evenodd;stroke-width:0.264233;filter:url(#filter55629)"
         d="m 99.279728,31.542261 a 1.8915279,1.2269369 0 0 0 -1.891357,1.227315 V 78.65308 a 11.36039,7.8819823 0 0 0 -0.143661,0.01809 11.36039,7.8819823 0 0 0 -0.298689,0.03721 11.36039,7.8819823 0 0 0 -0.516248,0.08888 11.36039,7.8819823 0 0 0 -0.241329,0.04237 11.36039,7.8819823 0 0 0 -0.538985,0.119889 11.36039,7.8819823 0 0 0 -0.212907,0.04961 11.36039,7.8819823 0 0 0 -0.552938,0.152962 11.36039,7.8819823 0 0 0 -0.171566,0.04909 11.36039,7.8819823 0 0 0 -0.540018,0.179834 11.36039,7.8819823 0 0 0 -0.17415,0.06098 11.36039,7.8819823 0 0 0 -0.542602,0.214457 11.36039,7.8819823 0 0 0 -0.128675,0.05271 11.36039,7.8819823 0 0 0 -0.54932,0.253215 11.36039,7.8819823 0 0 0 -0.100253,0.04857 11.36039,7.8819823 0 0 0 -0.506429,0.269235 11.36039,7.8819823 0 0 0 -0.128157,0.07183 11.36039,7.8819823 0 0 0 -0.47749,0.293005 11.36039,7.8819823 0 0 0 -0.100769,0.0646 11.36039,7.8819823 0 0 0 -0.463021,0.326078 11.36039,7.8819823 0 0 0 -0.08372,0.06253 11.36039,7.8819823 0 0 0 -0.433049,0.349849 11.36039,7.8819823 0 0 0 -0.07648,0.06563 11.36039,7.8819823 0 0 0 -0.406693,0.379822 11.36039,7.8819823 0 0 0 -0.05013,0.04961 11.36039,7.8819823 0 0 0 -0.377755,0.407727 11.36039,7.8819823 0 0 0 -0.04496,0.05219 11.36039,7.8819823 0 0 0 -0.342098,0.432532 11.36039,7.8819823 0 0 0 -0.02584,0.03514 11.36039,7.8819823 0 0 0 -0.310058,0.465605 11.36039,7.8819823 0 0 0 -0.01137,0.0186 11.36039,7.8819823 0 0 0 -0.268201,0.486276 11.36039,7.8819823 0 0 0 -0.0124,0.02532 11.36039,7.8819823 0 0 0 -0.568441,1.875338 h -0.04496 l -1.632976,6.731372 c -1.247445,0.790932 -1.959397,1.719174 -1.974556,2.73265 v 2.471683 h 0.02325 c -0.01409,0.09546 -0.0218,0.191807 -0.02325,0.288872 -5.68e-4,0.03794 2.3e-5,0.07717 0.0016,0.116788 5.28e-4,0.01366 0.0013,0.02749 0.0021,0.04134 0.0014,0.02572 0.0039,0.05165 0.0062,0.07803 0.0017,0.0197 0.003,0.03937 0.0052,0.05943 0.0043,0.03974 0.0098,0.08033 0.01602,0.121439 4.91e-4,0.0033 0.001,0.0066 0.0015,0.0098 0.01395,0.09065 0.03243,0.184258 0.05529,0.28112 0.005,0.02115 0.01009,0.04265 0.0155,0.06408 0.0078,0.03071 0.01618,0.06175 0.0248,0.09302 0.004,0.01467 0.0082,0.02913 0.0124,0.04393 0.01242,0.04337 0.02522,0.0874 0.03927,0.131775 0.0064,0.0202 0.01291,0.04058 0.01964,0.06098 0.01353,0.04102 0.028,0.08221 0.04289,0.124024 0.0023,0.0064 0.0044,0.01271 0.0067,0.01912 0.02013,0.05592 0.04155,0.112759 0.06408,0.170015 7.32e-4,0.0019 0.0013,0.0038 0.0021,0.0057 0.02121,0.05375 0.04387,0.107931 0.06718,0.16278 0.0037,0.0086 0.0071,0.01721 0.01085,0.02584 0.02358,0.05489 0.04772,0.10997 0.07338,0.165881 0.0068,0.01491 0.0142,0.02998 0.02119,0.04496 0.01837,0.03936 0.03695,0.07903 0.05633,0.118855 0.01015,0.02087 0.02057,0.04154 0.031,0.06253 0.02637,0.05305 0.05351,0.106392 0.08165,0.160192 0.0091,0.0174 0.01861,0.0352 0.02791,0.0527 0.01924,0.0362 0.03888,0.0725 0.05891,0.10904 0.01395,0.0255 0.02804,0.0509 0.04237,0.0765 0.06103,0.10893 0.125356,0.21893 0.19327,0.33021 0.01709,0.028 0.03467,0.0561 0.05219,0.0842 0.03148,0.0506 0.06324,0.10149 0.09612,0.15244 0.0012,0.002 0.0029,0.004 0.0041,0.006 0.0328,0.0508 0.06659,0.10133 0.100769,0.15245 0.02414,0.0361 0.04856,0.0723 0.07338,0.10852 0.01977,0.0289 0.03975,0.0578 0.05994,0.0868 0.03549,0.0509 0.0717,0.10178 0.10852,0.15296 0.02237,0.0311 0.04432,0.0623 0.06718,0.0935 0.01567,0.0214 0.03164,0.0427 0.04754,0.0641 0.0385,0.0519 0.07746,0.10401 0.117306,0.15606 0.0082,0.0107 0.01653,0.0213 0.0248,0.032 0.0053,0.007 0.0102,0.0138 0.0155,0.0207 0.762426,0.98593 1.764619,2.00105 2.985864,2.92179 0.06341,0.0478 0.127644,0.0953 0.192237,0.14263 0.05433,0.0398 0.109168,0.0795 0.164331,0.11885 0.0196,0.014 0.0392,0.0279 0.05891,0.0419 0.0542,0.0383 0.108828,0.0763 0.163814,0.11421 0.0115,0.008 0.02309,0.0159 0.03462,0.0238 0.189055,0.1297 0.3826,0.257 0.580844,0.38137 0.0089,0.006 0.01796,0.011 0.02687,0.0165 0.06502,0.0406 0.130374,0.0809 0.196371,0.12093 0.07156,0.0434 0.14331,0.0866 0.216007,0.12919 0.06474,0.0379 0.130213,0.0754 0.195854,0.11265 0.01087,0.006 0.02166,0.0125 0.03256,0.0186 0.0647,0.0366 0.129771,0.0726 0.195337,0.10852 0.02213,0.0121 0.04444,0.0241 0.06666,0.0362 0.200392,0.10859 0.405067,0.21418 0.613399,0.31626 0.01806,0.009 0.03615,0.0176 0.05426,0.0264 0.0672,0.0326 0.134556,0.0652 0.202572,0.0971 0.01662,0.008 0.03346,0.0155 0.05013,0.0233 0.132325,0.0615 0.266166,0.12168 0.401526,0.18035 0.01723,0.007 0.03439,0.0148 0.05168,0.0222 0.06306,0.0271 0.126462,0.0537 0.190169,0.0801 0.03879,0.0161 0.07776,0.0322 0.116789,0.0481 0.07198,0.0292 0.144244,0.0579 0.217041,0.0863 0.07395,0.0288 0.147942,0.0573 0.222726,0.0853 0.04792,0.0179 0.09643,0.0352 0.144694,0.0527 0.04661,0.0169 0.09311,0.0341 0.140043,0.0506 1.697007,0.59871 3.601193,0.96137 5.692159,0.95291 4.219591,-0.0171 7.740761,-1.55654 10.278451,-3.54965 0.0443,-0.0348 0.0881,-0.0699 0.13177,-0.1049 0.0437,-0.0351 0.0871,-0.0701 0.13023,-0.10542 0.0431,-0.0353 0.0862,-0.0709 0.12867,-0.10646 0.0424,-0.0355 0.0843,-0.0712 0.12609,-0.10697 0.005,-0.004 0.01,-0.009 0.015,-0.0129 0.0367,-0.0315 0.0738,-0.0629 0.11007,-0.0946 0.002,-0.001 0.003,-0.003 0.005,-0.004 0.0397,-0.0347 0.0787,-0.0695 0.11782,-0.10439 0.006,-0.005 0.0117,-0.0107 0.0176,-0.016 0.0753,-0.0673 0.1496,-0.13458 0.22273,-0.20258 0.0407,-0.0379 0.0814,-0.0756 0.12144,-0.11368 0.0126,-0.012 0.0247,-0.0242 0.0372,-0.0362 0.0431,-0.0412 0.0859,-0.0826 0.12816,-0.12402 0.0198,-0.0194 0.0398,-0.039 0.0594,-0.0584 0.021,-0.0208 0.0417,-0.0417 0.0625,-0.0625 0.0164,-0.0164 0.0328,-0.0327 0.0491,-0.0491 0.0106,-0.0107 0.021,-0.0213 0.0315,-0.032 0.026,-0.0265 0.0523,-0.053 0.078,-0.0796 0.0105,-0.0108 0.0206,-0.0217 0.031,-0.0326 0.0257,-0.0267 0.0511,-0.0534 0.0765,-0.0801 0.006,-0.006 0.0114,-0.0121 0.017,-0.0181 0.0298,-0.0315 0.0596,-0.063 0.0889,-0.0946 0.041,-0.0442 0.0813,-0.0885 0.12144,-0.13281 0.0282,-0.0312 0.0564,-0.0623 0.0842,-0.0935 0.0509,-0.0573 0.10145,-0.11465 0.15089,-0.17208 0.0161,-0.0187 0.0316,-0.0371 0.0476,-0.0558 0.0456,-0.0535 0.0906,-0.10657 0.13487,-0.1602 0.009,-0.0105 0.0167,-0.0211 0.0253,-0.0315 0.0423,-0.0515 0.084,-0.10295 0.12506,-0.15452 0.0293,-0.0369 0.0581,-0.0737 0.0868,-0.11058 0.0299,-0.0384 0.0596,-0.0768 0.0889,-0.11524 0.0289,-0.038 0.057,-0.0757 0.0853,-0.11369 0.031,-0.0416 0.0618,-0.0829 0.092,-0.12454 0.006,-0.009 0.0119,-0.0173 0.0181,-0.0258 0.046,-0.0639 0.0913,-0.1274 0.13539,-0.1912 2.2e-4,-3.2e-4 3e-4,-7.2e-4 5.2e-4,-0.001 0.0365,-0.0529 0.0723,-0.10588 0.10748,-0.15865 0.0155,-0.0232 0.0313,-0.0465 0.0465,-0.0698 0.0343,-0.0523 0.0678,-0.10447 0.10077,-0.15658 0.015,-0.0237 0.0302,-0.0472 0.045,-0.0708 0.0293,-0.0471 0.0575,-0.0941 0.0858,-0.14108 0.0172,-0.0285 0.0344,-0.0568 0.0512,-0.0853 0.0295,-0.0501 0.0581,-0.10001 0.0863,-0.14986 0.0142,-0.0251 0.0285,-0.0499 0.0424,-0.0749 0.0304,-0.0548 0.06,-0.10932 0.0889,-0.16381 0.002,-0.005 0.005,-0.009 0.007,-0.014 0.0309,-0.0585 0.0613,-0.11659 0.0904,-0.17467 0.009,-0.017 0.0164,-0.0342 0.0248,-0.0512 0.025,-0.0506 0.0493,-0.10114 0.0729,-0.15141 0.01,-0.02138 0.0197,-0.04276 0.0295,-0.06408 0.0263,-0.0572 0.052,-0.113841 0.0765,-0.170533 0.004,-0.0088 0.007,-0.01753 0.0109,-0.02635 0.0254,-0.05952 0.0505,-0.118856 0.0739,-0.177766 0.005,-0.01193 0.009,-0.02375 0.0134,-0.03566 0.0218,-0.05574 0.0435,-0.111261 0.0636,-0.166398 7.4e-4,-0.0021 0.001,-0.0041 0.002,-0.0062 0.0198,-0.05467 0.0383,-0.10875 0.0563,-0.16278 0.005,-0.01568 0.0104,-0.0314 0.0155,-0.04703 0.0195,-0.06017 0.038,-0.119503 0.0553,-0.1788 0.003,-0.0092 0.005,-0.01818 0.008,-0.02739 0.0159,-0.05554 0.0311,-0.110647 0.045,-0.165364 10e-4,-0.0054 0.002,-0.01064 0.004,-0.01602 0.0133,-0.05299 0.0258,-0.105451 0.0372,-0.157613 0.002,-0.01105 0.005,-0.02206 0.007,-0.03307 0.012,-0.05676 0.0228,-0.112755 0.0326,-0.168465 8.5e-4,-0.0049 10e-4,-0.0096 0.002,-0.01447 0.009,-0.0508 0.0165,-0.101537 0.0233,-0.151412 0.002,-0.01473 0.004,-0.02928 0.006,-0.04392 0.006,-0.04493 0.011,-0.0892 0.015,-0.133325 10e-4,-0.01209 0.002,-0.02415 0.003,-0.03617 0.004,-0.05149 0.008,-0.102651 0.01,-0.152963 2.5e-4,-0.0061 3.1e-4,-0.01199 5.2e-4,-0.01809 0.002,-0.05075 0.003,-0.100895 0.002,-0.150379 v -2.471683 h -0.0103 c 0.007,-0.09837 0.0113,-0.194969 0.0103,-0.288872 -0.009,-0.918397 -0.63599,-1.775464 -1.76269,-2.516125 l -1.59577,-6.578927 a 11.36039,7.8819823 0 0 0 -0.0351,-0.2651 11.36039,7.8819823 0 0 0 -0.0114,-0.0708 11.36039,7.8819823 0 0 0 -0.0181,-0.09767 11.36039,7.8819823 0 0 0 -0.016,-0.08423 11.36039,7.8819823 0 0 0 -0.0362,-0.165881 11.36039,7.8819823 0 0 0 -0.003,-0.0093 11.36039,7.8819823 0 0 0 -0.0274,-0.111104 11.36039,7.8819823 0 0 0 -0.0212,-0.08061 11.36039,7.8819823 0 0 0 -0.0269,-0.09302 11.36039,7.8819823 0 0 0 -0.0238,-0.08165 11.36039,7.8819823 0 0 0 -0.0341,-0.104903 11.36039,7.8819823 0 0 0 -0.0279,-0.0832 11.36039,7.8819823 0 0 0 -0.0294,-0.08372 11.36039,7.8819823 0 0 0 -0.0331,-0.08992 11.36039,7.8819823 0 0 0 -0.0382,-0.09767 11.36039,7.8819823 0 0 0 -0.032,-0.07958 11.36039,7.8819823 0 0 0 -0.045,-0.104386 11.36039,7.8819823 0 0 0 -0.032,-0.07286 11.36039,7.8819823 0 0 0 -0.0398,-0.0863 11.36039,7.8819823 0 0 0 -0.0491,-0.101802 11.36039,7.8819823 0 0 0 -0.0341,-0.06821 11.36039,7.8819823 0 0 0 -0.0537,-0.103353 11.36039,7.8819823 0 0 0 -0.0388,-0.07183 11.36039,7.8819823 0 0 0 -0.0625,-0.112138 11.36039,7.8819823 0 0 0 -0.03,-0.05168 11.36039,7.8819823 0 0 0 -0.0636,-0.106971 11.36039,7.8819823 0 0 0 -0.0517,-0.0832 11.36039,7.8819823 0 0 0 -0.0517,-0.08165 11.36039,7.8819823 0 0 0 -0.0517,-0.07855 11.36039,7.8819823 0 0 0 -0.0594,-0.08785 11.36039,7.8819823 0 0 0 -0.0661,-0.09405 11.36039,7.8819823 0 0 0 -0.0527,-0.07338 11.36039,7.8819823 0 0 0 -0.0553,-0.07493 11.36039,7.8819823 0 0 0 -0.0718,-0.09405 11.36039,7.8819823 0 0 0 -0.0599,-0.07648 11.36039,7.8819823 0 0 0 -0.0605,-0.07493 11.36039,7.8819823 0 0 0 -0.0724,-0.08837 11.36039,7.8819823 0 0 0 -0.062,-0.07183 11.36039,7.8819823 0 0 0 -0.077,-0.08837 11.36039,7.8819823 0 0 0 -0.0568,-0.06305 11.36039,7.8819823 0 0 0 -0.0858,-0.09353 11.36039,7.8819823 0 0 0 -0.0574,-0.06046 11.36039,7.8819823 0 0 0 -0.10232,-0.106453 11.36039,7.8819823 0 0 0 -0.0377,-0.03721 11.36039,7.8819823 0 0 0 -0.11317,-0.111621 11.36039,7.8819823 0 0 0 -0.12713,-0.120406 11.36039,7.8819823 0 0 0 -0.0124,-0.01085 11.36039,7.8819823 0 0 0 -0.0879,-0.0801 11.36039,7.8819823 0 0 0 -0.0889,-0.07958 11.36039,7.8819823 0 0 0 -0.031,-0.02687 11.36039,7.8819823 0 0 0 -0.30437,-0.253215 11.36039,7.8819823 0 0 0 -0.0434,-0.03359 11.36039,7.8819823 0 0 0 -0.12041,-0.09405 11.36039,7.8819823 0 0 0 -0.18396,-0.137459 11.36039,7.8819823 0 0 0 -0.006,-0.0041 11.36039,7.8819823 0 0 0 -0.18345,-0.130225 11.36039,7.8819823 0 0 0 -0.18758,-0.127124 11.36039,7.8819823 0 0 0 -0.006,-0.0036 11.36039,7.8819823 0 0 0 -0.0966,-0.06253 11.36039,7.8819823 0 0 0 -0.10129,-0.06563 11.36039,7.8819823 0 0 0 -0.061,-0.03772 11.36039,7.8819823 0 0 0 -0.22427,-0.135392 11.36039,7.8819823 9.3554435e-7 0 0 -0.0476,-0.02791 11.36039,7.8819823 0 0 0 -0.076,-0.04444 11.36039,7.8819823 0 0 0 -0.17932,-0.100769 11.36039,7.8819823 0 0 0 -0.0129,-0.0072 11.36039,7.8819823 0 0 0 -0.0506,-0.02739 11.36039,7.8819823 9.3554435e-7 0 0 -0.0858,-0.04547 11.36039,7.8819823 0 0 0 -0.0579,-0.03101 11.36039,7.8819823 0 0 0 -0.01,-0.0052 11.36039,7.8819823 0 0 0 -0.20154,-0.102836 11.36039,7.8819823 0 0 0 -0.015,-0.0072 11.36039,7.8819823 0 0 0 -0.11369,-0.05529 11.36039,7.8819823 0 0 0 -0.11576,-0.05581 11.36039,7.8819823 0 0 0 -0.18861,-0.08733 11.36039,7.8819823 0 0 0 -0.006,-0.0026 11.36039,7.8819823 0 0 0 -0.21549,-0.09508 11.36039,7.8819823 0 0 0 -0.0238,-0.0098 11.36039,7.8819823 0 0 0 -0.12867,-0.05374 11.36039,7.8819823 0 0 0 -0.11162,-0.04599 11.36039,7.8819823 0 0 0 -0.10129,-0.04031 11.36039,7.8819823 0 0 0 -0.13074,-0.05116 11.36039,7.8819823 0 0 0 -0.11266,-0.04238 11.36039,7.8819823 0 0 0 -0.12402,-0.04547 11.36039,7.8819823 0 0 0 -0.10439,-0.03721 11.36039,7.8819823 0 0 0 -0.12609,-0.04392 11.36039,7.8819823 0 0 0 -0.18965,-0.06356 11.36039,7.8819823 0 0 0 -0.0217,-0.0067 11.36039,7.8819823 0 0 0 -0.17622,-0.05581 11.36039,7.8819823 0 0 0 -0.1049,-0.03204 11.36039,7.8819823 0 0 0 -0.091,-0.02687 11.36039,7.8819823 0 0 0 -0.17415,-0.05013 11.36039,7.8819823 0 0 0 -0.0739,-0.02067 11.36039,7.8819823 0 0 0 -0.21549,-0.05788 11.36039,7.8819823 0 0 0 -0.0258,-0.0067 11.36039,7.8819823 0 0 0 -0.17311,-0.04289 11.36039,7.8819823 0 0 0 -0.16123,-0.03876 11.36039,7.8819823 0 0 0 -0.0377,-0.0083 11.36039,7.8819823 0 0 0 -0.21187,-0.04754 11.36039,7.8819823 0 0 0 -0.0568,-0.01189 11.36039,7.8819823 0 0 0 -0.13952,-0.02894 11.36039,7.8819823 0 0 0 -0.16278,-0.03152 11.36039,7.8819823 0 0 0 -0.10077,-0.01912 11.36039,7.8819823 0 0 0 -0.13488,-0.02377 11.36039,7.8819823 0 0 0 -0.11989,-0.02067 11.36039,7.8819823 0 0 0 -0.49557,-0.07441 11.36039,7.8819823 0 0 0 -0.0264,-0.0031 11.36039,7.8819823 0 0 0 -0.12042,-0.0155 11.36039,7.8819823 0 0 0 -0.13745,-0.01705 V 32.769576 a 1.8915279,1.2269369 0 0 0 -1.891357,-1.227315 z"
         transform="matrix(0.63427964,0,0,0.63427964,-0.31303986,-12.778307)" /><g
         id="g55583"
         transform="matrix(0.63427964,0,0,0.63427964,-0.31303986,-12.778307)"><g
           id="g55648"><path
             id="path45903"
             style="opacity:1;fill:#ae7d47;fill-opacity:1;fill-rule:evenodd;stroke-width:0.264233"
             d="m 99.472481,92.563859 c -5.692751,0 -10.529135,1.034973 -13.115995,2.652035 h -2.018998 v 2.471683 h 0.02325 c -0.01409,0.09546 -0.0218,0.191807 -0.02325,0.288872 -0.04172,2.789091 5.58817,10.186631 14.954126,10.148731 8.932246,-0.0362 14.737116,-6.89326 14.700916,-10.437603 v -2.471683 h -1.69499 c -2.35838,-1.588515 -7.00332,-2.652035 -12.825059,-2.652035 z" /><path
             id="path50583"
             style="fill:url(#linearGradient50591);fill-opacity:1;stroke:none;stroke-width:0.264583px;stroke-linecap:butt;stroke-linejoin:miter;stroke-opacity:1"
             d="m 86.862915,94.922371 c -0.177178,0.0956 -0.346184,0.193352 -0.506429,0.293523 h -2.018998 v 2.471683 h 0.02325 c -0.01409,0.09546 -0.0218,0.191807 -0.02325,0.288872 -0.01423,0.951318 0.631723,2.439081 1.860351,3.984771 z" /><path
             id="path52183"
             style="fill:url(#linearGradient52191);fill-opacity:1;stroke:none;stroke-width:0.264583px;stroke-linecap:butt;stroke-linejoin:miter;stroke-opacity:1"
             d="m 88.275749,98.397611 -0.772046,5.000209 c 1.681378,1.63248 3.993934,3.16317 6.84661,4.0194 l 0.432532,-6.48953 z" /><path
             id="path52289"
             style="fill:url(#linearGradient54062);fill-opacity:1;stroke:none;stroke-width:0.264583px;stroke-linecap:butt;stroke-linejoin:miter;stroke-opacity:1"
             d="m 110.18811,94.158594 -0.22273,0.190169 -0.39532,10.226767 c 2.83421,-2.22601 4.44156,-5.017958 4.42247,-6.887953 v -2.471683 h -1.69499 c -0.57309,-0.386008 -1.28224,-0.74102 -2.10943,-1.0573 z" /><path
             id="path42574"
             style="opacity:1;fill:#c07625;fill-opacity:1;fill-rule:evenodd;stroke-width:0.264233"
             d="m 113.99251,94.926819 c 0.0362,3.544347 -5.76875,10.401501 -14.701006,10.437651 -9.365965,0.0379 -14.995765,-7.35937 -14.954049,-10.148459 0.04646,-3.106054 6.636326,-5.412945 15.134794,-5.412945 8.498471,0 14.491121,2.266384 14.520261,5.123753 z"
             sodipodi:nodetypes="sssss" /><path
             id="path48129"
             style="opacity:1;fill:#7c4a13;fill-opacity:1;fill-rule:evenodd;stroke-width:0.231145;filter:url(#filter48131)"
             d="m 113.0165,94.709073 c -0.1833,1.942587 -4.13206,9.383927 -13.697794,9.317907 -10.113694,-0.0698 -13.844517,-8.007572 -13.896798,-8.935174 -0.110638,-1.963025 6.130988,-3.915079 14.028615,-3.915079 7.897637,0 13.787017,1.189683 13.565977,3.532346 z"
             sodipodi:nodetypes="sssss"
             inkscape:label="path48129" /></g><g
           id="g55640"><path
             id="rect23953"
             style="display:inline;opacity:1;fill:url(#linearGradient24703);fill-opacity:1;fill-rule:evenodd;stroke-width:0.143652"
             d="M 87.944903,85.751626 H 110.6144 l 2.24128,9.238973 c -4.95887,10.122231 -13.575948,8.639681 -13.575948,8.639681 0,0 -9.639528,0.71571 -13.575951,-8.639681 z"
             sodipodi:nodetypes="cccccc" /><path
             id="path36440"
             style="fill:url(#linearGradient36445);fill-opacity:1;stroke:none;stroke-width:0.264583px;stroke-linecap:butt;stroke-linejoin:miter;stroke-opacity:1"
             d="m 90.486621,88.850913 -2.262549,10.195754 c 2.382724,2.680213 5.333664,3.805543 7.588684,4.272603 l 0.910619,-11.81042 z"
             sodipodi:nodetypes="ccccc" /><path
             id="path38318"
             style="fill:url(#linearGradient38326);fill-opacity:1;stroke:none;stroke-width:0.264583px;stroke-linecap:butt;stroke-linejoin:miter;stroke-opacity:1"
             d="m 109.07396,85.751872 -0.69453,1.258321 1.78801,12.088151 c 0.95844,-1.094952 1.87296,-2.443664 2.6882,-4.10776 l -2.2412,-9.238712 z" /><path
             id="path45908"
             style="fill:url(#linearGradient45916);fill-opacity:1;stroke:none;stroke-width:0.264583px;stroke-linecap:butt;stroke-linejoin:miter;stroke-opacity:1"
             d="m 87.94502,85.751872 -2.241207,9.238712 c 0.460826,1.095211 1.000654,2.05069 1.593184,2.887163 l 2.171961,-10.782288 -0.923975,-1.343587 z" /><ellipse
             style="display:inline;opacity:1;fill:#d98931;fill-opacity:1;fill-rule:evenodd;stroke-width:0.283338"
             id="path23944"
             cx="99.30529"
             cy="86.417282"
             rx="11.36039"
             ry="7.8819823" /><path
             id="path40070"
             style="display:inline;opacity:0.600877;fill:url(#radialGradient41879);fill-opacity:1;stroke:none;stroke-width:0.264583px;stroke-linecap:butt;stroke-linejoin:miter;stroke-opacity:1;filter:url(#filter42502)"
             d="m 99.30505,78.535258 a 11.36039,7.8819823 0 0 0 -10.96729,5.844604 c 0.742319,-0.658505 1.478476,-1.311021 2.136821,-1.868103 3.117264,-2.637782 7.865925,-2.744821 11.797209,-1.64021 2.4188,0.679631 6.72954,3.651121 6.27714,7.72356 -0.0975,0.877833 -0.40026,1.954385 -0.76016,3.059762 a 11.36039,7.8819823 0 0 0 2.87683,-5.237407 11.36039,7.8819823 0 0 0 -11.36055,-7.882206 z"
             clip-path="url(#clipPath42514)" /><path
             id="rect35546"
             clip-path="url(#clipPath52285)"
             style="opacity:1;mix-blend-mode:normal;fill:#9c610b;fill-opacity:0.652482;fill-rule:evenodd;stroke-width:0.29523;filter:url(#filter35700)"
             inkscape:transform-center-x="-4.7808276"
             inkscape:transform-center-y="-3.5631358"
             d="m 103.11172,85.630663 -3.93409,-0.05157 c 0,0 -1.362563,1.058689 1.40689,4.447251 0.93175,1.140044 2.48421,0.53229 4.46027,0.07729 a 24.058973,3.6960474 65.036553 0 0 -1.93307,-4.472964 z"
             transform="matrix(1.6117851,-1.5831243,-0.30456568,0.92390084,-34.218422,164.12109)" /></g><g
           id="g23951"
           inkscape:label="g23951"><path
             id="ellipse8641"
             style="opacity:0.973684;fill:url(#linearGradient12658);fill-opacity:1;fill-rule:evenodd;stroke-width:0.249451"
             d="m 97.388371,32.769576 v 54.445256 a 1.8915279,1.2269369 0 0 0 1.891357,1.226798 1.8915279,1.2269369 0 0 0 1.891362,-1.226798 V 32.769576 Z" /><path
             id="rect16664"
             style="fill:url(#linearGradient16672);fill-opacity:1;fill-rule:evenodd;stroke-width:0.225274"
             d="m 97.953537,32.769576 -0.01807,55.279497 c 0.506445,0.34264 0.771849,0.321277 1.39423,0.363076 l 0.01807,-55.642573 z"
             sodipodi:nodetypes="ccccc" /><ellipse
             style="opacity:1;fill:#dc994f;fill-opacity:1;fill-rule:evenodd;stroke-width:0.249451"
             id="path8639"
             cx="99.279655"
             cy="32.769444"
             rx="1.8915279"
             ry="1.2269369" /><ellipse
             style="opacity:1;fill:#c4751f;fill-opacity:1;fill-rule:evenodd;stroke-width:0.171498;filter:url(#filter20432)"
             id="ellipse20430"
             cx="99.279655"
             cy="32.769444"
             rx="1.3004254"
             ry="0.84351915"
             transform="matrix(1.1584482,0,0,1.1584482,-15.730685,-5.1922602)"
             inkscape:label="ellipse20430" /></g></g><g
         id="g67440"
         transform="matrix(0.63427964,0,0,0.63427964,-0.77354168,-12.778307)"><path
           style="fill:#bdccff;fill-opacity:1;stroke:none;stroke-width:0.264583px;stroke-linecap:butt;stroke-linejoin:miter;stroke-opacity:1"
           d="M 97.891431,34.847613 17.785298,46.559881 98.036026,59.862705 Z"
           id="path55738" /><path
           id="rect55746"
           style="fill:#17117b;fill-opacity:1;fill-rule:evenodd;stroke-width:0.264583"
           d="m 97.891182,34.847485 -1.065583,1.032085 -2.14714,23.426371 3.357417,0.556555 z"
           sodipodi:nodetypes="ccccc" /><path
           id="path55740"
           style="fill:url(#linearGradient55964);fill-opacity:1;stroke:none;stroke-width:0.263401px;stroke-linecap:butt;stroke-linejoin:miter;stroke-opacity:1"
           d="M 97.177014,35.563204 20.070093,46.938737 97.315507,59.743123 Z" /></g></g></g></svg>
