<?xml version="1.0" encoding="UTF-8" standalone="no"?>
<!-- Created with Inkscape (http://www.inkscape.org/) -->

<svg
   width="210mm"
   height="297mm"
   viewBox="0 0 210 297"
   version="1.1"
   id="svg5"
   xml:space="preserve"
   inkscape:version="1.2 (dc2aedaf03, 2022-05-15)"
   sodipodi:docname="grim-reaper.svg"
   xmlns:inkscape="http://www.inkscape.org/namespaces/inkscape"
   xmlns:sodipodi="http://sodipodi.sourceforge.net/DTD/sodipodi-0.dtd"
   xmlns="http://www.w3.org/2000/svg"
   xmlns:svg="http://www.w3.org/2000/svg"><sodipodi:namedview
     id="namedview7"
     pagecolor="#ffffff"
     bordercolor="#666666"
     borderopacity="1.0"
     inkscape:showpageshadow="2"
     inkscape:pageopacity="0.0"
     inkscape:pagecheckerboard="0"
     inkscape:deskcolor="#d1d1d1"
     inkscape:document-units="mm"
     showgrid="false"
     inkscape:zoom="1.8491141"
     inkscape:cx="243.63018"
     inkscape:cy="248.76778"
     inkscape:window-width="2560"
     inkscape:window-height="1377"
     inkscape:window-x="1912"
     inkscape:window-y="-8"
     inkscape:window-maximized="1"
     inkscape:current-layer="layer1" /><defs
     id="defs2"><filter
       inkscape:collect="always"
       style="color-interpolation-filters:sRGB"
       id="filter12438"
       x="-0.0097326047"
       y="-0.026441727"
       width="1.0194652"
       height="1.0528835"><feGaussianBlur
         inkscape:collect="always"
         stdDeviation="0.10082638"
         id="feGaussianBlur12440" /></filter></defs><g
     inkscape:label="Layer 1"
     inkscape:groupmode="layer"
     id="layer1"><g
       id="g24148"
       transform="matrix(0.60120048,0,0,0.60120048,-28.376912,-35.548888)"><path
         style="fill:#ffffff;fill-opacity:1;stroke:#000000;stroke-width:0.465;stroke-linecap:butt;stroke-linejoin:miter;stroke-dasharray:none;stroke-opacity:1"
         d="m 78.3997,141.38622 c 0,0 -0.815121,1.40794 -0.259355,2.0378 0.555762,0.62987 1.752582,0.89349 2.408307,0.92628 0.741018,0.037 2.556512,-0.44461 2.556512,-0.44461 l 0.0741,-2.59357 z"
         id="path16916"
         sodipodi:nodetypes="cssccc" /><path
         style="opacity:1;fill:#8a8a8a;fill-opacity:1;stroke:#000000;stroke-width:0.465;stroke-linecap:butt;stroke-linejoin:miter;stroke-dasharray:none;stroke-opacity:1"
         d="m 84.412988,118.15722 c 0,0 -1.514918,-0.94105 -3.301068,2.14832 -0.890764,1.46714 -1.332224,4.43523 -1.362344,8.80284 -0.187313,4.4724 -0.275085,7.18657 -3.039077,12.3135 1.86737,0.45852 3.306839,0.61265 6.453027,-0.14294 0.858275,-0.20612 2.964462,-2.01264 3.284176,-2.83539 1.121951,-2.88721 1.371149,-6.34849 1.371149,-6.34849 z"
         id="path16417"
         sodipodi:nodetypes="ccccsscc" /><path
         id="path16698"
         style="opacity:0.648889;fill:#626262;fill-opacity:1;stroke:none;stroke-width:0.261461px;stroke-linecap:butt;stroke-linejoin:miter;stroke-opacity:1"
         d="m 84.192055,118.35571 c -0.586713,-0.004 -1.832694,0.0187 -2.922844,1.94961 -0.869864,1.46714 -1.300817,4.43547 -1.330231,8.80308 -0.136434,3.33586 -0.219549,5.6938 -1.37262,8.80411 1.030115,-2.17588 2.085081,-5.27383 3.129776,-9.7162 0.54061,5.17616 1.767752,9.71003 3.017745,12.19822 0.790183,-0.63959 1.582035,-1.46537 1.766239,-1.95078 1.095626,-2.88721 1.338809,-6.34845 1.338809,-6.34845 l -3.32608,-13.93817 c 0,0 0.05123,0.20109 -0.300794,0.19858 z"
         sodipodi:nodetypes="ccccccsccc" /><path
         id="path16911"
         style="fill:#b6b6b6;fill-opacity:0.340528;stroke:none;stroke-width:0.248397px;stroke-linecap:butt;stroke-linejoin:miter;stroke-opacity:1"
         d="m 77.714913,139.89119 c -0.223008,0.44977 -0.469243,0.91821 -0.744994,1.41214 1.657607,0.39304 2.964078,0.54263 5.551659,0.003 l -1.035289,-0.27509 c 0,0 -3.150311,-0.10266 -3.504284,-0.47866 -0.124358,-0.13209 -0.209096,-0.38672 -0.267092,-0.66125 z" /><path
         style="fill:#8a8a8a;fill-opacity:1;stroke:#000000;stroke-width:0.465;stroke-linecap:butt;stroke-linejoin:miter;stroke-dasharray:none;stroke-opacity:1"
         d="m 99.44461,117.22904 c 0,0 2.36749,0.80533 3.00112,1.40793 1.56667,1.48994 2.55652,4.48316 2.85293,5.00187 0.2964,0.51872 1.88959,3.03818 1.88959,3.03818 l -0.96333,5.29828 c 0,1.29678 -0.33345,1.18563 -1.77844,-0.66692 -1.44498,-1.85254 -3.9274,-5.26122 -4.372,-6.15045 -0.28604,-0.57208 -1.333839,-3.00112 -1.333839,-3.00112 z"
         id="path16952"
         sodipodi:nodetypes="cssccsscc" /><path
         id="path20992"
         style="fill:#676767;fill-opacity:0.631373;stroke:none;stroke-width:0.264583px;stroke-linecap:butt;stroke-linejoin:miter;stroke-opacity:1"
         d="m 100.24182,124.19933 c 0.29429,0.67068 -0.308208,0.67661 -0.16731,0.95841 0.4446,0.88922 2.92685,4.29799 4.37183,6.15052 1.44499,1.85255 1.7787,1.96393 1.7787,0.66715 l 0.024,-1.1019 c -1.31238,-0.17118 -6.00727,-6.67418 -6.00727,-6.67418 z"
         sodipodi:nodetypes="cssccc" /><path
         style="opacity:1;fill:#8a8a8a;fill-opacity:1;stroke:#000000;stroke-width:0.465;stroke-linecap:butt;stroke-linejoin:miter;stroke-dasharray:none;stroke-opacity:1"
         d="m 82.788653,117.37126 c 0,0 1.767003,12.55976 0.366787,18.60124 -1.525606,6.5825 -3.151842,14.4468 -9.274425,18.02487 4.147401,0.1722 7.96528,-0.48938 11.10835,-2.77708 2.252306,0.96097 1.781527,3.45826 1.781527,3.45826 1.257549,-2.30551 3.24867,-2.5675 3.24867,-2.5675 0.99556,0.68117 1.571937,1.67674 1.571937,1.67674 2.672292,-2.82949 6.549734,-2.5151 6.549734,-2.5151 0,0 0.670384,1.03129 0.890765,1.93871 0.534769,-0.35013 1.205152,-1.10035 1.205152,-2.3579 0.94316,0.47158 1.20515,1.67673 1.46714,1.78153 0.26199,0.1048 1.10036,-0.41918 1.51954,-1.46714 2.82949,2.88188 7.07371,2.4627 7.07371,2.4627 0,0 -5.28776,-2.30438 -8.22646,-11.99911 -2.443669,-8.0616 -2.04353,-19.64921 -1.30996,-25.15099 z"
         id="path13233"
         sodipodi:nodetypes="caccccccccsccscc" /><path
         id="path14822"
         style="opacity:0.537778;fill:#454545;fill-opacity:0.631373;stroke:none;stroke-width:0.264583px;stroke-linecap:butt;stroke-linejoin:miter;stroke-opacity:1"
         d="m 100.76129,116.48075 -17.972545,0.89038 c 0,0 1.767117,12.55997 0.366903,18.60145 -1.525605,6.58249 -3.152309,14.44667 -9.274886,18.02474 2.196776,0.0912 4.301067,-0.0518 6.261633,-0.54622 2.067651,-4.32921 5.614269,-12.81962 6.15673,-17.74052 0.73357,-6.65453 -0.314399,-11.78947 -0.261999,-12.05146 0.0524,-0.26199 -0.307117,-2.03947 0.25439,-2.615 0.455663,-0.46704 0.197218,2.25321 1.206631,3.5655 0.370782,0.48204 0.591323,-3.22602 0.936272,-3.00709 0.437479,0.27766 0.184918,1.28224 0.395898,1.66957 0.308182,0.56579 0.461773,-2.30393 1.590305,-0.9793 0.391535,0.45957 1.398279,1.15122 1.398279,1.15122 0,0 1.845784,-1.83383 2.969112,-2.45709 1.448804,-0.80385 4.715474,-1.572 4.715474,-1.572 0,0 -1.245191,8.18456 -0.838192,12.26075 0.433618,4.34278 1.346645,8.8086 3.458185,12.62817 0.41023,0.74207 1.72031,1.87379 1.72031,1.87379 -0.6372,-1.29652 -1.24311,-2.79953 -1.7725,-4.54597 -2.443667,-8.0616 -2.04357,-19.64915 -1.31,-25.15092 z"
         sodipodi:nodetypes="ccsccssssssscscsscsc" /><path
         style="fill:#818181;fill-opacity:1;stroke:#000000;stroke-width:0.465;stroke-linecap:butt;stroke-linejoin:miter;stroke-dasharray:none;stroke-opacity:1"
         d="m 100.81352,95.154553 c 1.7354,-1.819071 4.1139,-0.403937 6.07816,-2.515097 -2.11134,0.03779 -4.71581,-0.943163 -4.71581,-0.943163 0,0 -3.669887,-2.6983 -5.807176,-2.995668 -4.087035,-0.568645 -9.492467,0.849288 -12.718428,3.4223 -5.125843,4.088351 -7.801449,8.240735 -8.981741,13.776015 -0.960176,4.503 -1.924086,8.44831 6.072888,11.66919 4.354072,1.75365 6.425872,-1.16929 10.911472,4.41414 0.928714,-1.60445 -0.0374,-2.56527 3.059239,-3.15659 4.002402,-0.76426 10.641706,-1.78412 12.049336,-6.05272 2.28162,-6.91898 -3.97825,-14.910114 -5.94794,-17.618407 z"
         id="path1646"
         sodipodi:nodetypes="cccsssscssc" /><path
         style="fill:none;stroke:#000000;stroke-width:0.465;stroke-linecap:round;stroke-linejoin:miter;stroke-dasharray:none;stroke-opacity:1"
         d="m 100.88959,95.257858 c 0,0 -1.519082,-1.889594 -4.409051,-2.556511"
         id="path3328"
         sodipodi:nodetypes="cc" /><path
         style="opacity:1;fill:#a61e1c;fill-opacity:1;stroke:#000000;stroke-width:0.365;stroke-linecap:butt;stroke-linejoin:miter;stroke-dasharray:none;stroke-opacity:1"
         d="m 90.81175,95.369011 c 2.439253,-0.15486 12.94511,5.394929 12.93076,14.672159 -0.009,6.02641 -7.299022,7.07671 -10.52245,6.89146 -0.923602,-0.10213 -1.704343,1.63025 -2.148954,2.96408 -0.963323,-1.85254 -2.815868,-3.33458 -5.298278,-3.26049 -6.298653,0.25936 -8.333537,-6.04292 -7.780689,-8.41055 1.519968,-6.50941 8.7635,-12.599152 12.819611,-12.856659 z"
         id="path3330"
         sodipodi:nodetypes="sscccss" /><path
         id="path4086"
         style="opacity:1;fill:#ffffff;fill-opacity:1;stroke:#000000;stroke-width:0.365;stroke-linecap:butt;stroke-linejoin:miter;stroke-dasharray:none;stroke-opacity:1"
         d="m 90.931917,95.365755 c -0.04198,-3.58e-4 -0.08229,6.81e-4 -0.120406,0.0031 -3.719217,0.236119 -10.117225,5.376275 -12.326379,11.246855 0.132185,2.84431 1.382693,4.89406 3.49126,6.01359 1.326279,0.70419 4.480346,0.55035 4.480346,0.55035 0,0 -0.838732,2.35791 1.152385,2.5151 1.991117,0.1572 6.707084,-0.0527 6.707084,-0.0527 0,0 1.549299,-0.11331 1.152901,-2.5151 0.992145,0.16571 4.086884,0.23562 5.527832,-1.4149 1.09265,-1.25158 1.76754,-1.66611 2.30735,-4.92114 C 101.32962,99.615386 93.246245,95.385504 90.931917,95.365755 Z" /><path
         style="fill:#9a9a9a;fill-opacity:1;stroke:none;stroke-width:0.34423px;stroke-linecap:butt;stroke-linejoin:miter;stroke-opacity:1"
         d="m 90.949401,107.94199 c -0.341598,8.6e-4 -0.784053,0.32001 -1.109952,0.77141 -0.251657,0.34857 -0.598523,0.69504 -0.518901,1.08926 0.06457,0.31972 0.387086,0.71096 0.73072,0.65083 0.322044,-0.0565 0.366241,-0.0983 0.641906,-0.27343 0.263897,0.1581 0.514806,0.27022 0.782006,0.22406 0.292546,-0.0505 0.664123,-0.20276 0.724278,-0.51832 0.188105,-0.98682 -1.009235,-1.8162 -1.250057,-1.94381 z"
         id="path12477"
         sodipodi:nodetypes="csascasc" /><path
         style="fill:#000000;fill-opacity:1;stroke:#000000;stroke-width:0.264583px;stroke-linecap:butt;stroke-linejoin:miter;stroke-opacity:1"
         d="m 90.978478,108.15157 c -0.268879,6.5e-4 -0.67901,0.31885 -0.935533,0.65766 -0.198085,0.26162 -0.590698,0.59779 -0.490925,0.93553 0.07128,0.2413 0.387171,0.41564 0.657653,0.37051 0.253488,-0.0423 0.329519,-0.36876 0.546501,-0.50018 0.207719,0.11867 0.328752,0.44938 0.57429,0.46313 0.241165,0.0135 0.563989,-0.15219 0.611338,-0.38904 0.148062,-0.74067 -0.773768,-1.44182 -0.963324,-1.53761 z"
         id="path3345"
         sodipodi:nodetypes="csascasc" /><path
         style="fill:#999696;fill-opacity:1;stroke:none;stroke-width:0.288647px;stroke-linecap:butt;stroke-linejoin:miter;stroke-opacity:1"
         d="m 94.153673,101.24546 c -1.090106,0.57626 -1.762097,1.71439 -1.598181,4.02682 0.163917,2.31242 1.434266,5.30264 3.893005,5.58173 2.458739,0.27908 4.589643,-1.27583 4.138893,-3.74774 -0.45078,-2.4719 -1.162396,-4.41948 -2.950502,-5.58174 -0.96871,-0.62964 -2.459556,-0.8202 -3.483215,-0.27907 z"
         id="path12475"
         sodipodi:nodetypes="ssssas" /><path
         style="fill:#000000;fill-opacity:1;stroke:#000000;stroke-width:0.264583px;stroke-linecap:butt;stroke-linejoin:miter;stroke-opacity:1"
         d="m 94.553891,101.44536 c -0.985612,0.53552 -1.593189,1.59319 -1.444985,3.74214 0.148204,2.14895 1.296782,4.92777 3.519835,5.18713 2.223053,0.25935 4.149699,-1.18563 3.742149,-3.48279 -0.407564,-2.29715 -1.050968,-4.10705 -2.667672,-5.18713 -0.875854,-0.58513 -2.223793,-0.76223 -3.149327,-0.25935 z"
         id="path3343"
         sodipodi:nodetypes="ssssas" /><path
         style="opacity:0.764444;fill:#909090;fill-opacity:1;stroke:none;stroke-width:0.290673px;stroke-linecap:butt;stroke-linejoin:miter;stroke-opacity:1"
         d="m 84.185895,101.62438 c -1.509809,0.72932 -2.75055,2.78295 -3.167299,3.97564 -0.722021,2.06633 0.333398,4.65149 2.25045,5.20807 1.917047,0.55659 4.121874,-0.36464 4.792624,-1.86854 0.577331,-1.29445 1.739489,-5.10004 0.583448,-6.63931 -1.156039,-1.53926 -3.313865,-1.22912 -4.459223,-0.67586 z"
         id="path12473"
         sodipodi:nodetypes="sssscs" /><path
         style="fill:#000000;fill-opacity:1;stroke:#000000;stroke-width:0.264583px;stroke-linecap:butt;stroke-linejoin:miter;stroke-opacity:1"
         d="m 84.290793,101.77882 c -1.342287,0.67968 -2.44536,2.59356 -2.815869,3.70509 -0.641908,1.92572 0.296406,4.33495 2.000749,4.85366 1.70434,0.51872 3.664528,-0.33983 4.260854,-1.74139 0.513273,-1.20636 1.546482,-4.75298 0.518712,-6.1875 -1.02777,-1.43452 -2.946173,-1.14547 -3.964446,-0.62986 z"
         id="path3332"
         sodipodi:nodetypes="sssscs" /><path
         style="fill:none;stroke:#000000;stroke-width:0.365;stroke-linecap:round;stroke-linejoin:miter;stroke-dasharray:none;stroke-opacity:1"
         d="m 90.438744,100.65633 c 0,0 0.157193,1.36235 -0.733571,1.51954"
         id="path6371"
         sodipodi:nodetypes="cc" /><path
         style="fill:none;stroke:#000000;stroke-width:0.365;stroke-linecap:round;stroke-linejoin:miter;stroke-dasharray:none;stroke-opacity:1"
         d="m 91.643895,100.23715 c 0,0 -0.73357,1.99112 0.890764,2.04352"
         id="path6373"
         sodipodi:nodetypes="cc" /><path
         style="fill:#000000;fill-opacity:1;stroke:#000000;stroke-width:0.231046px;stroke-linecap:butt;stroke-linejoin:miter;stroke-opacity:1"
         d="m 88.352262,114.09063 0.02071,1.51586 h 0.248607 v -1.54112 c -0.06215,-0.53055 -0.186448,-0.50528 -0.269317,0.0253 z"
         id="path6375"
         sodipodi:nodetypes="cccccc" /><path
         style="fill:#000000;fill-opacity:1;stroke:#000000;stroke-width:0.264583px;stroke-linecap:butt;stroke-linejoin:miter;stroke-opacity:1"
         d="m 90.779331,114.04399 0.02619,1.57194 h 0.314386 v -1.59813 c -0.0786,-0.55018 -0.23578,-0.52398 -0.340576,0.0262 z"
         id="path6377"
         sodipodi:nodetypes="cccccc" /><path
         style="fill:#000000;fill-opacity:1;stroke:#000000;stroke-width:0.223374px;stroke-linecap:butt;stroke-linejoin:miter;stroke-opacity:1"
         d="m 93.011834,114.25893 0.0213,1.37761 h 0.25569 v -1.40057 c -0.06392,-0.48216 -0.19176,-0.4592 -0.276991,0.023 z"
         id="path6379"
         sodipodi:nodetypes="cccccc"
         inkscape:label="path6379" /><path
         style="fill:#000000;fill-opacity:1;stroke:none;stroke-width:0.283188px;stroke-linecap:butt;stroke-linejoin:miter;stroke-opacity:1"
         d="m 86.299312,113.20435 0.371983,-0.46716 c 0.429211,-0.24732 0.772578,0.24731 0.400595,0.49463 -0.209592,0.0262 -0.772578,-0.0275 -0.772578,-0.0275 z"
         id="path6381"
         sodipodi:nodetypes="cccc" /><path
         style="fill:#000000;fill-opacity:1;stroke:none;stroke-width:0.265844px;stroke-linecap:butt;stroke-linejoin:miter;stroke-opacity:1"
         d="m 95.355483,113.08626 -0.24272,-0.50122 c -0.346912,-0.32241 -0.783141,0.0272 -0.490042,0.33555 0.209592,0.13099 0.732762,0.16567 0.732762,0.16567 z"
         id="path6383"
         sodipodi:nodetypes="cccc"
         inkscape:transform-center-x="0.73102869"
         inkscape:transform-center-y="0.046176418" /><path
         style="opacity:1;fill:#dd332f;fill-opacity:1;stroke:none;stroke-width:0.264583px;stroke-linecap:butt;stroke-linejoin:miter;stroke-opacity:1;filter:url(#filter12438)"
         d="m 78.288546,108.48503 c 0.889222,2.18601 1.828318,4.05783 4.03855,4.81661 1.729894,0.59388 2.605152,0.34464 3.482783,0.37051 0,0 -0.296407,1.5932 0.333458,2.07485 1.111527,0.37046 4.446107,0.48167 5.29828,0.48167 0.85217,0 3.06251,-0.2284 4.001494,-0.48167 0.442158,-0.11926 0.05629,-2.22561 0.963326,-2.03779 1.021869,0.2116 3.297531,-0.40757 4.223803,-0.85218 1.15588,-0.84278 1.74888,-1.90456 2.51946,-3.44573 0.0371,1.9637 -0.44461,3.33458 -1.07448,4.0015 -0.62987,0.66692 -2.556508,1.85255 -3.705085,2.18601 -1.14858,0.33345 -2.85292,0.77806 -3.445735,0.81511 -0.592815,0.037 -2.074849,0 -2.630615,0.22231 -0.555762,0.2223 -1.370883,1.00037 -1.741392,1.00037 -0.370509,0 -1.815494,-0.77807 -2.148951,-0.96332 -0.333457,-0.18526 -2.910799,-0.57692 -3.890345,-0.62987 -1.370881,-0.0741 -3.465332,-1.28322 -3.742139,-1.70434 -0.35631,-0.54207 -1.316234,-1.70908 -1.741393,-2.70471 -0.341482,-0.79968 -0.703968,-1.70434 -0.741019,-3.14933 z"
         id="path11052"
         sodipodi:nodetypes="csccsssccsscssssssc" /><path
         id="path12442"
         style="opacity:0.577778;fill:#1f1f1f;fill-opacity:0.631373;stroke:none;stroke-width:0.264583px;stroke-linecap:butt;stroke-linejoin:miter;stroke-opacity:1"
         d="m 90.931917,95.365755 c -0.04198,-3.58e-4 -0.08229,6.81e-4 -0.120406,0.0031 -3.719213,0.236119 -10.117227,5.376285 -12.326379,11.246855 0.0847,1.82252 0.629194,3.31807 1.563729,4.45245 0.409062,-0.98097 -1.628312,-1.83775 -0.01912,-5.84358 0.795517,-1.98032 2.330373,-3.61801 3.853512,-5.11286 1.502183,-1.474288 4.174822,-3.295959 6.706255,-3.483053 1.754427,-0.129668 3.374854,0.677741 4.853763,1.630451 2.099722,1.352636 3.973626,3.151812 5.520319,5.112982 0.94699,1.20075 1.28346,2.84124 2.18619,4.07561 0.009,0.0126 0.0182,0.0263 0.0274,0.0393 0.0432,-0.21817 0.0857,-0.44606 0.12713,-0.69608 C 101.32962,99.615391 93.246243,95.385504 90.931917,95.365755 Z"
         sodipodi:nodetypes="scccssssssccs" /><path
         style="fill:#4b4b4b;fill-opacity:0.505995;stroke:none;stroke-width:0.264583px;stroke-linecap:butt;stroke-linejoin:miter;stroke-opacity:1"
         d="m 96.819117,92.5066 c 0.317568,-0.234475 3.531263,0.09538 5.393803,1.483031 -0.69397,0.276125 -1.45179,0.850536 -1.45179,0.850536 0,0 -1.663383,-1.740753 -3.942013,-2.333567 z"
         id="path12471"
         sodipodi:nodetypes="cccc" /><path
         style="fill:#565555;fill-opacity:1;stroke:none;stroke-width:0.264583px;stroke-linecap:butt;stroke-linejoin:miter;stroke-opacity:1"
         d="m 103.2015,151.1006 c 0,0 -6.652818,-5.70393 -6.464718,-10.34887 2.23695,5.34633 9.172568,11.95195 9.172568,11.95195 -0.42926,0.10731 -2.70785,-1.60308 -2.70785,-1.60308 z"
         id="path22869"
         sodipodi:nodetypes="cccc" /><path
         style="fill:#f6b571;fill-opacity:1;stroke:#000000;stroke-width:0.264583px;stroke-linecap:butt;stroke-linejoin:miter;stroke-opacity:1"
         d="m 115.96931,80.622753 -15.26497,75.361527 c 0.62987,0.77807 1.77844,0.44461 1.77844,0.44461 l 15.41318,-75.213322 z"
         id="path18388"
         sodipodi:nodetypes="ccccc" /><path
         id="path18390"
         style="fill:#62432a;fill-opacity:0.505995;stroke:none;stroke-width:0.264583px;stroke-linecap:butt;stroke-linejoin:miter;stroke-opacity:1"
         d="m 117.53236,81.104093 -15.74374,75.391267 c 0.38504,0.0221 0.69401,-0.0667 0.69401,-0.0667 l 15.41353,-75.212975 z" /><path
         id="path18395"
         style="fill:#ffe4cd;fill-opacity:0.280576;stroke:none;stroke-width:0.264583px;stroke-linecap:butt;stroke-linejoin:miter;stroke-opacity:1"
         d="m 115.96915,80.622986 -15.2647,75.361294 c 0.0804,0.0994 0.16966,0.17986 0.26355,0.24598 l 15.68069,-75.398501 z" /><ellipse
         style="fill:#f6b571;fill-opacity:1;fill-rule:evenodd;stroke:#000000;stroke-width:0.226807;stroke-opacity:1"
         id="path18494"
         cx="149.10782"
         cy="33.640888"
         rx="0.99383616"
         ry="0.41412508"
         transform="matrix(0.92947143,0.36889409,-0.64246763,0.76631283,0,0)" /><path
         style="fill:#d6d6d6;fill-opacity:1;stroke:#000000;stroke-width:0.465;stroke-linecap:butt;stroke-linejoin:miter;stroke-dasharray:none;stroke-opacity:1"
         d="m 90.181885,80.400448 c 0.444611,-0.37051 14.681045,-5.474362 27.417665,6.520957 0.43572,6.215379 -1.85255,11.856289 -1.85255,11.856289 -1.63024,-3.408683 -10.67065,-14.07934 -25.565115,-18.377246 z"
         id="path20158"
         sodipodi:nodetypes="cccc" /><path
         id="path20160"
         style="fill:#888888;fill-opacity:0.266187;stroke:none;stroke-width:0.264583px;stroke-linecap:butt;stroke-linejoin:miter;stroke-opacity:1"
         d="m 91.101476,80.291885 c -0.694996,0.20799 -0.849332,0.05 -0.919384,0.108375 14.894448,4.297902 23.934608,14.96901 25.564848,18.37769 0,0 0.19924,-0.609028 0.7454,-3.113545 -6.65248,-7.609423 -18.797121,-14.547276 -25.390864,-15.37252 z"
         sodipodi:nodetypes="ccccc" /><path
         id="path20165"
         style="opacity:1;fill:#ffffff;fill-opacity:0.275779;stroke:none;stroke-width:0.264583px;stroke-linecap:butt;stroke-linejoin:miter;stroke-opacity:1"
         d="m 98.323197,79.008097 c -4.611479,0.005 -7.810131,1.173794 -8.119401,1.379761 17.205634,-1.331229 24.498984,5.104207 27.417964,9.408211 0.047,-0.930854 0.0464,-1.895579 -0.0222,-2.87476 -6.76632,-6.372506 -13.95616,-7.918968 -19.276343,-7.913212 z" /><ellipse
         style="opacity:1;fill:#ffffff;fill-opacity:1;fill-rule:evenodd;stroke:#000000;stroke-width:0.264583;stroke-opacity:1"
         id="path20938"
         cx="106.78713"
         cy="126.1874"
         rx="0.94148415"
         ry="2.0256174" /><ellipse
         style="fill:#ffffff;fill-opacity:1;fill-rule:evenodd;stroke:#000000;stroke-width:0.242;stroke-dasharray:none;stroke-opacity:1"
         id="path20940"
         cx="108.04244"
         cy="129.32568"
         rx="0.88442445"
         ry="0.42794734" /><ellipse
         style="fill:#ffffff;fill-opacity:1;fill-rule:evenodd;stroke:#000000;stroke-width:0.259375;stroke-dasharray:none;stroke-opacity:1"
         id="ellipse20942"
         cx="108.56278"
         cy="128.01332"
         rx="1.0867119"
         ry="0.46586013" /><ellipse
         style="fill:#ffffff;fill-opacity:1;fill-rule:evenodd;stroke:#000000;stroke-width:0.262547;stroke-dasharray:none;stroke-opacity:1"
         id="ellipse20944"
         cx="108.9554"
         cy="126.41566"
         rx="1.1207271"
         ry="0.66425002" /><path
         style="fill:#9f9f9f;fill-opacity:1;stroke:none;stroke-width:0.264583px;stroke-linecap:butt;stroke-linejoin:miter;stroke-opacity:1"
         d="m 90.216478,92.960091 c -5.810006,1.210418 -9.683343,4.438203 -10.732371,7.988759 2.905003,-3.79264 5.810005,-5.648618 10.732371,-7.988759 z"
         id="path21090"
         sodipodi:nodetypes="ccc" /><path
         style="fill:#a5a5a5;fill-opacity:0.631373;stroke:none;stroke-width:0.264583px;stroke-linecap:butt;stroke-linejoin:miter;stroke-opacity:1"
         d="m 94.719422,121.06227 c 0.507,2.26691 1.16428,2.30012 1.58971,3.85826 0.58681,-1.50824 -0.47367,-1.80566 -0.54068,-4.42312 z"
         id="path22845"
         sodipodi:nodetypes="cccc" /><path
         style="fill:#535353;fill-opacity:0.631373;stroke:none;stroke-width:0.264583px;stroke-linecap:butt;stroke-linejoin:miter;stroke-opacity:1"
         d="m 91.249562,129.5352 c 0,0 -0.0795,2.10993 -0.72625,5.64861 0,0 1.95046,-2.28954 0.72625,-5.64861 z"
         id="path22847"
         sodipodi:nodetypes="ccc" /><path
         style="fill:#a4a4a4;fill-opacity:0.631373;stroke:none;stroke-width:0.264583px;stroke-linecap:butt;stroke-linejoin:miter;stroke-opacity:1"
         d="m 94.073862,128.97034 c 0,0 0.72625,3.63125 1.77528,6.69764 0,0 -2.09805,-1.12972 -1.77528,-6.69764 z"
         id="path22849"
         sodipodi:nodetypes="ccc" /><path
         style="opacity:1;fill:#989898;fill-opacity:0.631373;stroke:none;stroke-width:0.264583px;stroke-linecap:butt;stroke-linejoin:miter;stroke-opacity:1"
         d="m 85.906254,142.89555 c 0,0 -0.174107,4.71945 -3.317627,9.42295 1.90028,-0.98419 2.187897,-1.27281 2.187897,-1.27281 0,0 2.01737,-4.59959 1.12973,-8.15014 z"
         id="path22853"
         sodipodi:nodetypes="cccc" /><path
         style="fill:#959595;fill-opacity:1;stroke:none;stroke-width:0.264583px;stroke-linecap:butt;stroke-linejoin:miter;stroke-opacity:1"
         d="m 94.988962,151.38678 c -1.3406,-1.46707 -3.50901,-3.11374 -2.44829,-8.85977 -0.19715,6.32483 2.855399,7.70228 3.892469,8.63817 -1.13825,-0.0506 -1.444179,0.2216 -1.444179,0.2216 z"
         id="path22855"
         sodipodi:nodetypes="cccc" /><path
         style="fill:#505050;fill-opacity:0.631373;stroke:none;stroke-width:0.264583px;stroke-linecap:butt;stroke-linejoin:miter;stroke-opacity:1"
         d="m 85.586975,151.18615 c 0,0 2.802515,-4.9663 3.448065,-12.72963 0.70228,8.08065 -2.23234,13.27219 -2.55428,13.70145 -0.25041,-0.46503 -0.893785,-0.97182 -0.893785,-0.97182 z"
         id="path22863"
         sodipodi:nodetypes="cccc" /><path
         style="fill:#b2afaf;fill-opacity:0.676123;stroke:none;stroke-width:0.264583px;stroke-linecap:butt;stroke-linejoin:miter;stroke-opacity:1"
         d="m 90.846092,152.29105 c 0,0 -0.0786,-3.21671 -0.72626,-7.90806 0.0859,6.81759 -0.86018,7.7292 -0.86018,7.7292 0.613205,-0.24067 1.58644,0.17886 1.58644,0.17886 z"
         id="path22865"
         sodipodi:nodetypes="cccc" /><path
         style="fill:#565555;fill-opacity:1;stroke:none;stroke-width:0.264583px;stroke-linecap:butt;stroke-linejoin:miter;stroke-opacity:1"
         d="m 94.45301,144.23743 c 1.506378,5.38074 3.384769,6.80098 3.384769,6.80098 l -1.2289,0.0448 c -1.823388,-2.84829 -2.106688,-3.62465 -2.155869,-6.84583 z"
         id="path22867"
         sodipodi:nodetypes="cccc" /></g></g></svg>
