<?xml version="1.0" encoding="UTF-8" standalone="no"?>
<!-- Created with Inkscape (http://www.inkscape.org/) -->

<svg
   width="210mm"
   height="297mm"
   viewBox="0 0 210 297"
   version="1.1"
   id="svg5"
   inkscape:version="1.2 (dc2aedaf03, 2022-05-15)"
   sodipodi:docname="hammer.svg"
   xml:space="preserve"
   xmlns:inkscape="http://www.inkscape.org/namespaces/inkscape"
   xmlns:sodipodi="http://sodipodi.sourceforge.net/DTD/sodipodi-0.dtd"
   xmlns="http://www.w3.org/2000/svg"
   xmlns:svg="http://www.w3.org/2000/svg"><sodipodi:namedview
     id="namedview7"
     pagecolor="#ffffff"
     bordercolor="#666666"
     borderopacity="1.0"
     inkscape:showpageshadow="2"
     inkscape:pageopacity="0.0"
     inkscape:pagecheckerboard="0"
     inkscape:deskcolor="#d1d1d1"
     inkscape:document-units="mm"
     showgrid="false"
     inkscape:zoom="0.58354673"
     inkscape:cx="307.60176"
     inkscape:cy="613.48986"
     inkscape:window-width="1588"
     inkscape:window-height="1041"
     inkscape:window-x="515"
     inkscape:window-y="0"
     inkscape:window-maximized="0"
     inkscape:current-layer="layer1" /><defs
     id="defs2" /><g
     inkscape:label="Layer 1"
     inkscape:groupmode="layer"
     id="layer1"><g
       id="g11812"
       transform="translate(-1.3602167,-29.471362)"><rect
         style="fill:#d99557;fill-opacity:1;stroke:#000000;stroke-width:2.37241;stroke-dasharray:none;stroke-opacity:1;paint-order:stroke fill markers"
         id="rect9975"
         width="6.9464436"
         height="8.7411432"
         x="79.133904"
         y="55.739338"
         ry="1.3087022" /><path
         id="path11636"
         style="fill:#9e6129;fill-opacity:1;stroke:none;stroke-width:2.37254;stroke-dasharray:none;stroke-opacity:1;paint-order:stroke fill markers"
         d="m 84.015877,59.294202 v -3.61246 h 0.755773 c 0.72502,0 1.308762,0.43944 1.308762,0.98522 v 2.62724 z" /><rect
         style="fill:#96bbce;fill-opacity:1;stroke:#000000;stroke-width:2.37255;stroke-dasharray:none;stroke-opacity:1;paint-order:stroke fill markers"
         id="rect3903"
         width="6.9464436"
         height="30.095238"
         x="79.133904"
         y="70.484825"
         ry="4.505784" /><rect
         style="fill:#96bbce;fill-opacity:1;stroke:#000000;stroke-width:2.37241;stroke-dasharray:none;stroke-opacity:1;paint-order:stroke fill markers"
         id="rect4633"
         width="6.9464436"
         height="8.7411432"
         x="79.133904"
         y="111.68511"
         ry="1.3087022" /><rect
         style="fill:#d99557;fill-opacity:1;stroke:#000000;stroke-width:2.372;stroke-dasharray:none;stroke-opacity:1;paint-order:stroke fill markers"
         id="rect4631"
         width="6.9464436"
         height="30.095238"
         x="79.133904"
         y="85.532448"
         ry="0" /><rect
         style="fill:#9e6129;fill-opacity:1;stroke:none;stroke-width:2.37255;stroke-dasharray:none;stroke-opacity:1;paint-order:stroke fill markers"
         id="rect16436"
         width="2.0645597"
         height="30.095238"
         x="84.015793"
         y="85.532448"
         ry="0" /><path
         id="path17593"
         style="fill:#7195a8;fill-opacity:1;stroke:none;stroke-width:2.37254;stroke-dasharray:none;stroke-opacity:1;paint-order:stroke fill markers"
         d="m 84.015877,116.81389 v 3.61246 h 0.755773 c 0.72502,0 1.308762,-0.43944 1.308762,-0.98522 v -2.62724 z" /><path
         id="rect17669"
         style="fill:#7195a8;fill-opacity:1;stroke:none;stroke-width:2.37255;stroke-dasharray:none;stroke-opacity:1;paint-order:stroke fill markers"
         d="m 84.015877,70.869504 v 13.476843 h 2.064535 v -9.355778 c 0,-1.844649 -0.846424,-3.422497 -2.064535,-4.121065 z" /><path
         id="path18502"
         style="color:#000000;fill:#ffffff;fill-opacity:1;stroke-width:0.645415;stroke-linecap:round;stroke-linejoin:round;paint-order:fill markers stroke"
         d="m 81.316306,73.290579 a 1.2908301,1.1657598 0 0 0 -1.290751,1.165689 v 9.889976 h 2.581502 v -9.889976 a 1.2908301,1.1657598 0 0 0 -1.290751,-1.165689 z" /><path
         id="path19233"
         style="color:#000000;fill:#ffffff;fill-opacity:1;stroke-width:0.645415;stroke-linecap:round;stroke-linejoin:round;paint-order:fill markers stroke"
         d="m 80.025555,116.81389 v 1.7588 a 1.2908301,0.79609447 0 0 0 1.290751,0.79605 1.2908301,0.79609447 0 0 0 1.290751,-0.79605 v -1.7588 z" /><rect
         style="fill:#7d97a4;fill-opacity:1;stroke:#000000;stroke-width:1.272;stroke-linecap:round;stroke-linejoin:round;stroke-dasharray:none;paint-order:fill markers stroke"
         id="rect364"
         width="34.68552"
         height="19.039722"
         x="65.264366"
         y="59.77869"
         ry="6.5820484" /><g
         id="path6117"
         style="fill:#507283;fill-opacity:1"><path
           style="color:#000000;fill:#507283;fill-opacity:1;stroke-width:2.472;stroke-linecap:round;stroke-linejoin:round;paint-order:fill markers stroke"
           d="m 96.583525,65.64816 v 5.697764"
           id="path6127" /><path
           style="color:#000000;fill:#507283;fill-opacity:1;stroke-linecap:round;stroke-linejoin:round;paint-order:fill markers stroke"
           d="m 96.583984,64.412109 a 1.2359999,1.2359999 0 0 0 -1.236328,1.236328 v 5.697266 a 1.2359999,1.2359999 0 0 0 1.236328,1.236328 1.2359999,1.2359999 0 0 0 1.236328,-1.236328 v -5.697266 a 1.2359999,1.2359999 0 0 0 -1.236328,-1.236328 z"
           id="path6129" /></g><g
         id="rect2386"
         style="fill:#96bbce;fill-opacity:1"><path
           style="color:#000000;fill:#96bbce;fill-opacity:1;stroke-linecap:round;stroke-linejoin:round;paint-order:fill markers stroke"
           d="m 73.115234,61.427734 c -3.162812,0 -5.720703,2.634512 -5.720703,5.824219 v 4.09375 a 1.2359999,1.2359999 0 0 0 1.236328,1.236328 1.2359999,1.2359999 0 0 0 1.236328,-1.236328 v -4.09375 c 0,-1.89273 1.442397,-3.351562 3.248047,-3.351562 h 11.619141 a 1.2359999,1.2359999 0 0 0 1.236328,-1.236329 1.2359999,1.2359999 0 0 0 -1.236328,-1.236328 z"
           id="path6123" /></g></g></g></svg>
