<?xml version="1.0" encoding="UTF-8" standalone="no"?>
<!-- Created with Inkscape (http://www.inkscape.org/) -->

<svg
   width="210mm"
   height="297mm"
   viewBox="0 0 210 297"
   version="1.1"
   id="svg5"
   xml:space="preserve"
   inkscape:version="1.2 (dc2aedaf03, 2022-05-15)"
   sodipodi:docname="heart-2.svg"
   xmlns:inkscape="http://www.inkscape.org/namespaces/inkscape"
   xmlns:sodipodi="http://sodipodi.sourceforge.net/DTD/sodipodi-0.dtd"
   xmlns:xlink="http://www.w3.org/1999/xlink"
   xmlns="http://www.w3.org/2000/svg"
   xmlns:svg="http://www.w3.org/2000/svg"><sodipodi:namedview
     id="namedview7"
     pagecolor="#ffffff"
     bordercolor="#666666"
     borderopacity="1.0"
     inkscape:showpageshadow="2"
     inkscape:pageopacity="0.0"
     inkscape:pagecheckerboard="0"
     inkscape:deskcolor="#d1d1d1"
     inkscape:document-units="mm"
     showgrid="false"
     inkscape:zoom="1.1670049"
     inkscape:cx="226.64857"
     inkscape:cy="317.05093"
     inkscape:window-width="1904"
     inkscape:window-height="955"
     inkscape:window-x="-14"
     inkscape:window-y="9"
     inkscape:window-maximized="0"
     inkscape:current-layer="layer1" /><defs
     id="defs2"><linearGradient
       inkscape:collect="always"
       id="linearGradient3540"><stop
         style="stop-color:#ffb0b0;stop-opacity:1;"
         offset="0"
         id="stop3536" /><stop
         style="stop-color:#fe9090;stop-opacity:0;"
         offset="1"
         id="stop3538" /></linearGradient><linearGradient
       inkscape:collect="always"
       id="linearGradient2305"><stop
         style="stop-color:#f9565c;stop-opacity:1;"
         offset="0"
         id="stop2301" /><stop
         style="stop-color:#ff1c29;stop-opacity:0;"
         offset="1"
         id="stop2303" /></linearGradient><linearGradient
       inkscape:collect="always"
       id="linearGradient2297"><stop
         style="stop-color:#f4999f;stop-opacity:1;"
         offset="0"
         id="stop2293" /><stop
         style="stop-color:#d9272b;stop-opacity:0.17761557;"
         offset="1"
         id="stop2295" /></linearGradient><linearGradient
       inkscape:collect="always"
       id="linearGradient2289"><stop
         style="stop-color:#e24953;stop-opacity:1;"
         offset="0"
         id="stop2285" /><stop
         style="stop-color:#d01f1e;stop-opacity:0.00973236;"
         offset="1"
         id="stop2287" /></linearGradient><linearGradient
       inkscape:collect="always"
       id="linearGradient2281"><stop
         style="stop-color:#f83652;stop-opacity:1;"
         offset="0"
         id="stop2277" /><stop
         style="stop-color:#d11507;stop-opacity:1;"
         offset="1"
         id="stop2279" /></linearGradient><inkscape:path-effect
       effect="mirror_symmetry"
       start_point="102.08623,41.133383"
       end_point="102.36963,88.008679"
       center_point="102.22793,64.571031"
       id="path-effect367"
       is_visible="true"
       lpeversion="1.2"
       lpesatellites=""
       mode="free"
       discard_orig_path="false"
       fuse_paths="false"
       oposite_fuse="false"
       split_items="false"
       split_open="false"
       link_styles="false" /><filter
       inkscape:collect="always"
       style="color-interpolation-filters:sRGB"
       id="filter2106"
       x="-0.051065502"
       y="-0.060445052"
       width="1.102131"
       height="1.1208901"><feGaussianBlur
         inkscape:collect="always"
         stdDeviation="1.1832782"
         id="feGaussianBlur2108" /></filter><radialGradient
       inkscape:collect="always"
       xlink:href="#linearGradient2281"
       id="radialGradient2283"
       cx="102.03147"
       cy="62.33009"
       fx="102.03147"
       fy="62.33009"
       r="27.806127"
       gradientTransform="matrix(0.99864099,0.01072586,-0.00822452,0.78701647,0.65129887,12.4576)"
       gradientUnits="userSpaceOnUse" /><radialGradient
       inkscape:collect="always"
       xlink:href="#linearGradient2289"
       id="radialGradient2291"
       cx="102.18006"
       cy="64.11319"
       fx="102.18006"
       fy="64.11319"
       r="27.806127"
       gradientTransform="matrix(0.88622073,0.01282043,-0.0081074,0.56085741,12.145764,26.844839)"
       gradientUnits="userSpaceOnUse" /><radialGradient
       inkscape:collect="always"
       xlink:href="#linearGradient2297"
       id="radialGradient2299"
       cx="101.98441"
       cy="60.683441"
       fx="101.98441"
       fy="60.683441"
       r="27.806127"
       gradientTransform="matrix(0.98994902,0.01094871,-0.00813171,0.66131606,1.518513,20.082548)"
       gradientUnits="userSpaceOnUse" /><radialGradient
       inkscape:collect="always"
       xlink:href="#linearGradient2305"
       id="radialGradient2307"
       cx="102.18006"
       cy="64.11319"
       fx="102.18006"
       fy="64.11319"
       r="27.806127"
       gradientTransform="matrix(0.999977,0.00606878,-0.00434286,0.57283326,0.28078571,26.766913)"
       gradientUnits="userSpaceOnUse" /><radialGradient
       inkscape:collect="always"
       xlink:href="#linearGradient3540"
       id="radialGradient3542"
       cx="90.687988"
       cy="56.45327"
       fx="90.687988"
       fy="56.45327"
       r="6.5748792"
       gradientTransform="matrix(2.284412,-0.01588967,0.01529063,2.1982898,-117.06057,-66.603122)"
       gradientUnits="userSpaceOnUse" /><filter
       inkscape:collect="always"
       style="color-interpolation-filters:sRGB"
       id="filter3544"
       x="-0.074417476"
       y="-0.074417476"
       width="1.148835"
       height="1.148835"><feGaussianBlur
         inkscape:collect="always"
         stdDeviation="0.91038128"
         id="feGaussianBlur3546" /></filter><radialGradient
       inkscape:collect="always"
       xlink:href="#linearGradient3540"
       id="radialGradient3589"
       gradientUnits="userSpaceOnUse"
       gradientTransform="matrix(2.284412,-0.01588967,0.01529063,2.1982898,-90.194253,-66.60312)"
       cx="90.687988"
       cy="56.45327"
       fx="90.687988"
       fy="56.45327"
       r="6.5748792" /></defs><g
     inkscape:label="Layer 1"
     inkscape:groupmode="layer"
     id="layer1"><g
       id="g6602"
       transform="translate(-50.558555,-22.671998)"><path
         style="display:inline;mix-blend-mode:normal;fill:#000000;fill-opacity:1;stroke:none;stroke-width:0.264583px;stroke-linecap:butt;stroke-linejoin:miter;stroke-opacity:1;filter:url(#filter2106)"
         d="M 91.415812,81.857527 C 87.307425,78.771986 81.822311,73.683448 79.346335,70.354243 77.198431,67.466165 72.79042,61.027408 74.957891,51.754767 c 1.161051,-4.967084 6.192589,-9.340501 11.168962,-10.461069 5.573481,-1.255024 9.558167,-0.536319 15.990727,5.024848 6.36485,-5.638538 10.34055,-6.40537 15.9288,-5.217828 4.98956,1.060316 10.07361,5.372576 11.29463,10.325258 2.27943,9.245756 -2.05041,15.73734 -4.16323,18.651178 -2.43554,3.358899 -7.85873,8.513387 -11.92951,11.648378 -5.04825,3.887767 -8.9002,5.867125 -10.85086,5.878918 -1.95066,0.01179 -5.886702,-1.920479 -10.981598,-5.746923 z"
         id="path2104"
         class="UnoptimicedTransforms"
         sodipodi:nodetypes="sssscssssss"
         transform="matrix(1.0788989,0,0,1.064223,-5.8680208,-2.6088617)" /><path
         style="display:inline;fill:url(#radialGradient2283);fill-opacity:1;stroke:none;stroke-width:0.264583px;stroke-linecap:butt;stroke-linejoin:miter;stroke-opacity:1"
         d="M 91.415812,81.857527 C 87.307425,78.771986 81.822311,73.683448 79.346335,70.354243 77.198431,67.466165 72.79042,61.027408 74.957891,51.754767 c 1.161051,-4.967084 6.192589,-9.340501 11.168962,-10.461069 5.573481,-1.255024 9.558167,-0.536319 15.990727,5.024848 6.36485,-5.638538 10.34055,-6.40537 15.9288,-5.217828 4.98956,1.060316 10.07361,5.372576 11.29463,10.325258 2.27943,9.245756 -2.05041,15.73734 -4.16323,18.651178 -2.43554,3.358899 -7.85873,8.513387 -11.92951,11.648378 -5.04825,3.887767 -8.9002,5.867125 -10.85086,5.878918 -1.95066,0.01179 -5.886702,-1.920479 -10.981598,-5.746923 z"
         id="path365"
         class="UnoptimicedTransforms"
         sodipodi:nodetypes="sssscssssss"
         transform="matrix(1.0788989,0,0,1.064223,-5.8680208,-2.6088617)" /><path
         style="display:inline;fill:url(#radialGradient2291);fill-opacity:1;stroke:none;stroke-width:0.264583px;stroke-linecap:butt;stroke-linejoin:miter;stroke-opacity:1"
         d="M 91.415812,81.857527 C 87.307425,78.771986 81.822311,73.683448 79.346335,70.354243 77.198431,67.466165 72.79042,61.027408 74.957891,51.754767 c 1.161051,-4.967084 6.192589,-9.340501 11.168962,-10.461069 5.573481,-1.255024 9.558167,-0.536319 15.990727,5.024848 6.36485,-5.638538 10.34055,-6.40537 15.9288,-5.217828 4.98956,1.060316 10.07361,5.372576 11.29463,10.325258 2.27943,9.245756 -2.05041,15.73734 -4.16323,18.651178 -2.43554,3.358899 -7.85873,8.513387 -11.92951,11.648378 -5.04825,3.887767 -8.9002,5.867125 -10.85086,5.878918 -1.95066,0.01179 -5.886702,-1.920479 -10.981598,-5.746923 z"
         id="path1753"
         class="UnoptimicedTransforms"
         sodipodi:nodetypes="sssscssssss"
         transform="matrix(0.97512054,0,0,0.97474828,4.7360577,2.504168)" /><path
         style="display:inline;fill:url(#radialGradient2299);fill-opacity:1;stroke:none;stroke-width:0.264583px;stroke-linecap:butt;stroke-linejoin:miter;stroke-opacity:1"
         d="M 91.415812,81.857527 C 87.307425,78.771986 81.822311,73.683448 79.346335,70.354243 77.198431,67.466165 72.79042,61.027408 74.957891,51.754767 c 1.161051,-4.967084 6.192589,-9.340501 11.168962,-10.461069 5.573481,-1.255024 9.558167,-0.536319 15.990727,5.024848 6.36485,-5.638538 10.34055,-6.40537 15.9288,-5.217828 4.98956,1.060316 10.07361,5.372576 11.29463,10.325258 2.27943,9.245756 -2.05041,15.73734 -4.16323,18.651178 -2.43554,3.358899 -7.85873,8.513387 -11.92951,11.648378 -5.04825,3.887767 -8.9002,5.867125 -10.85086,5.878918 -1.95066,0.01179 -5.886702,-1.920479 -10.981598,-5.746923 z"
         id="path1755"
         class="UnoptimicedTransforms"
         sodipodi:nodetypes="sssscssssss"
         transform="matrix(0.81945301,0,0,0.8640433,20.642175,8.3548572)" /><path
         style="display:inline;fill:url(#radialGradient2307);fill-opacity:1;stroke:none;stroke-width:0.264583px;stroke-linecap:butt;stroke-linejoin:miter;stroke-opacity:1"
         d="M 91.415812,81.857527 C 87.307425,78.771986 81.822311,73.683448 79.346335,70.354243 77.198431,67.466165 72.79042,61.027408 74.957891,51.754767 c 1.161051,-4.967084 6.192589,-9.340501 11.168962,-10.461069 5.573481,-1.255024 9.558167,-0.536319 15.990727,5.024848 6.36485,-5.638538 10.34055,-6.40537 15.9288,-5.217828 4.98956,1.060316 10.07361,5.372576 11.29463,10.325258 2.27943,9.245756 -2.05041,15.73734 -4.16323,18.651178 -2.43554,3.358899 -7.85873,8.513387 -11.92951,11.648378 -5.04825,3.887767 -8.9002,5.867125 -10.85086,5.878918 -1.95066,0.01179 -5.886702,-1.920479 -10.981598,-5.746923 z"
         id="path1757"
         class="UnoptimicedTransforms"
         sodipodi:nodetypes="sssscssssss"
         transform="matrix(0.66378548,0,0,0.74190133,36.548293,15.789008)" /><circle
         style="fill:url(#radialGradient3542);fill-opacity:1;stroke:none;stroke-width:0.586645;stroke-linecap:round;stroke-linejoin:round;paint-order:markers stroke fill;filter:url(#filter3544)"
         id="path3534"
         cx="90.971382"
         cy="56.056503"
         r="14.68012" /><circle
         style="fill:url(#radialGradient3589);fill-opacity:1;stroke:none;stroke-width:0.586645;stroke-linecap:round;stroke-linejoin:round;paint-order:markers stroke fill;filter:url(#filter3544)"
         id="circle3587"
         cx="117.8377"
         cy="56.056503"
         r="14.68012" /></g></g></svg>
