<?xml version="1.0" encoding="UTF-8" standalone="no"?>
<!-- Created with Inkscape (http://www.inkscape.org/) -->

<svg
   width="210mm"
   height="297mm"
   viewBox="0 0 210 297"
   version="1.1"
   id="svg5"
   xml:space="preserve"
   inkscape:version="1.2 (dc2aedaf03, 2022-05-15)"
   sodipodi:docname="heart-3.svg"
   xmlns:inkscape="http://www.inkscape.org/namespaces/inkscape"
   xmlns:sodipodi="http://sodipodi.sourceforge.net/DTD/sodipodi-0.dtd"
   xmlns="http://www.w3.org/2000/svg"
   xmlns:svg="http://www.w3.org/2000/svg"><sodipodi:namedview
     id="namedview7"
     pagecolor="#ffffff"
     bordercolor="#666666"
     borderopacity="1.0"
     inkscape:showpageshadow="2"
     inkscape:pageopacity="0.0"
     inkscape:pagecheckerboard="0"
     inkscape:deskcolor="#d1d1d1"
     inkscape:document-units="mm"
     showgrid="false"
     inkscape:zoom="1.1670049"
     inkscape:cx="142.67292"
     inkscape:cy="256.21143"
     inkscape:window-width="1904"
     inkscape:window-height="955"
     inkscape:window-x="0"
     inkscape:window-y="9"
     inkscape:window-maximized="0"
     inkscape:current-layer="layer1" /><defs
     id="defs2"><inkscape:path-effect
       effect="mirror_symmetry"
       start_point="102.08623,41.133383"
       end_point="102.36963,88.008679"
       center_point="102.22793,64.571031"
       id="path-effect367"
       is_visible="true"
       lpeversion="1.2"
       lpesatellites=""
       mode="free"
       discard_orig_path="false"
       fuse_paths="false"
       oposite_fuse="false"
       split_items="false"
       split_open="false"
       link_styles="false" /><filter
       inkscape:collect="always"
       style="color-interpolation-filters:sRGB"
       id="filter2106"
       x="-0.1225837"
       y="-0.14509948"
       width="1.2451674"
       height="1.290199"><feGaussianBlur
         inkscape:collect="always"
         stdDeviation="2.8404816"
         id="feGaussianBlur2108" /></filter><filter
       inkscape:collect="always"
       style="color-interpolation-filters:sRGB"
       id="filter1035"
       x="-0.06004574"
       y="-0.071074752"
       width="1.1200915"
       height="1.1421495"><feGaussianBlur
         inkscape:collect="always"
         stdDeviation="1.3913662"
         id="feGaussianBlur1037" /></filter><filter
       inkscape:collect="always"
       style="color-interpolation-filters:sRGB"
       id="filter1039"
       x="-0.033445183"
       y="-0.039588289"
       width="1.0668904"
       height="1.0791766"><feGaussianBlur
         inkscape:collect="always"
         stdDeviation="0.77498419"
         id="feGaussianBlur1041" /></filter><filter
       inkscape:collect="always"
       style="color-interpolation-filters:sRGB"
       id="filter1043"
       x="-0.020176085"
       y="-0.023881964"
       width="1.0403522"
       height="1.0477639"><feGaussianBlur
         inkscape:collect="always"
         stdDeviation="0.46751564"
         id="feGaussianBlur1045" /></filter><filter
       inkscape:collect="always"
       style="color-interpolation-filters:sRGB"
       id="filter1069"
       x="-0.17491269"
       y="-0.2070401"
       width="1.3498254"
       height="1.4140802"><feGaussianBlur
         inkscape:collect="always"
         stdDeviation="4.0530373"
         id="feGaussianBlur1071" /></filter><filter
       inkscape:collect="always"
       style="color-interpolation-filters:sRGB"
       id="filter1079"
       x="-0.49776719"
       y="-0.5891955"
       width="1.9955344"
       height="2.178391"><feGaussianBlur
         inkscape:collect="always"
         stdDeviation="11.534148"
         id="feGaussianBlur1081" /></filter></defs><g
     inkscape:label="Layer 1"
     inkscape:groupmode="layer"
     id="layer1"><g
       id="g2630"
       inkscape:export-filename="heart-3.png"
       inkscape:export-xdpi="87.035156"
       inkscape:export-ydpi="87.035156"><path
         style="display:inline;mix-blend-mode:normal;fill:#000000;fill-opacity:1;stroke:none;stroke-width:0.264583px;stroke-linecap:butt;stroke-linejoin:miter;stroke-opacity:1;filter:url(#filter2106)"
         d="M 91.415812,81.857527 C 87.307425,78.771986 81.822311,73.683448 79.346335,70.354243 77.198431,67.466165 72.79042,61.027408 74.957891,51.754767 c 1.161051,-4.967084 6.192589,-9.340501 11.168962,-10.461069 5.573481,-1.255024 9.558167,-0.536319 15.990727,5.024848 6.36485,-5.638538 10.34055,-6.40537 15.9288,-5.217828 4.98956,1.060316 10.07361,5.372576 11.29463,10.325258 2.27943,9.245756 -2.05041,15.73734 -4.16323,18.651178 -2.43554,3.358899 -7.85873,8.513387 -11.92951,11.648378 -5.04825,3.887767 -8.9002,5.867125 -10.85086,5.878918 -1.95066,0.01179 -5.886702,-1.920479 -10.981598,-5.746923 z"
         id="path2104"
         class="UnoptimicedTransforms"
         sodipodi:nodetypes="sssscssssss"
         transform="matrix(1.150929,0,0,1.1352733,-63.78662,-29.836124)" /><path
         style="display:inline;fill:#a90000;fill-opacity:1;stroke:none;stroke-width:0.264583px;stroke-linecap:butt;stroke-linejoin:miter;stroke-opacity:1;filter:url(#filter1043)"
         d="M 91.415812,81.857527 C 87.307425,78.771986 81.822311,73.683448 79.346335,70.354243 77.198431,67.466165 72.79042,61.027408 74.957891,51.754767 c 1.161051,-4.967084 6.192589,-9.340501 11.168962,-10.461069 5.573481,-1.255024 9.558167,-0.536319 15.990727,5.024848 6.36485,-5.638538 10.34055,-6.40537 15.9288,-5.217828 4.98956,1.060316 10.07361,5.372576 11.29463,10.325258 2.27943,9.245756 -2.05041,15.73734 -4.16323,18.651178 -2.43554,3.358899 -7.85873,8.513387 -11.92951,11.648378 -5.04825,3.887767 -8.9002,5.867125 -10.85086,5.878918 -1.95066,0.01179 -5.886702,-1.920479 -10.981598,-5.746923 z"
         id="path365"
         class="UnoptimicedTransforms"
         sodipodi:nodetypes="sssscssssss"
         transform="matrix(1.0788989,0,0,1.064223,-56.426576,-25.28086)" /><path
         style="display:inline;fill:#b40000;fill-opacity:1;stroke:none;stroke-width:0.264583px;stroke-linecap:butt;stroke-linejoin:miter;stroke-opacity:1;filter:url(#filter1039)"
         d="M 91.415812,81.857527 C 87.307425,78.771986 81.822311,73.683448 79.346335,70.354243 77.198431,67.466165 72.79042,61.027408 74.957891,51.754767 c 1.161051,-4.967084 6.192589,-9.340501 11.168962,-10.461069 5.573481,-1.255024 9.558167,-0.536319 15.990727,5.024848 6.36485,-5.638538 10.34055,-6.40537 15.9288,-5.217828 4.98956,1.060316 10.07361,5.372576 11.29463,10.325258 2.27943,9.245756 -2.05041,15.73734 -4.16323,18.651178 -2.43554,3.358899 -7.85873,8.513387 -11.92951,11.648378 -5.04825,3.887767 -8.9002,5.867125 -10.85086,5.878918 -1.95066,0.01179 -5.886702,-1.920479 -10.981598,-5.746923 z"
         id="path1753"
         class="UnoptimicedTransforms"
         sodipodi:nodetypes="sssscssssss"
         transform="matrix(0.97512054,0,0,0.97474828,-45.822497,-20.16783)" /><path
         style="display:inline;fill:#bf0000;fill-opacity:1;stroke:none;stroke-width:0.264583px;stroke-linecap:butt;stroke-linejoin:miter;stroke-opacity:1;filter:url(#filter1035)"
         d="M 91.415812,81.857527 C 87.307425,78.771986 81.822311,73.683448 79.346335,70.354243 77.198431,67.466165 72.79042,61.027408 74.957891,51.754767 c 1.161051,-4.967084 6.192589,-9.340501 11.168962,-10.461069 5.573481,-1.255024 9.558167,-0.536319 15.990727,5.024848 6.36485,-5.638538 10.34055,-6.40537 15.9288,-5.217828 4.98956,1.060316 10.07361,5.372576 11.29463,10.325258 2.27943,9.245756 -2.05041,15.73734 -4.16323,18.651178 -2.43554,3.358899 -7.85873,8.513387 -11.92951,11.648378 -5.04825,3.887767 -8.9002,5.867125 -10.85086,5.878918 -1.95066,0.01179 -5.886702,-1.920479 -10.981598,-5.746923 z"
         id="path1755"
         class="UnoptimicedTransforms"
         sodipodi:nodetypes="sssscssssss"
         transform="matrix(0.81945301,0,0,0.8640433,-29.91638,-14.317141)" /><path
         style="display:inline;fill:#d01d1d;fill-opacity:0.596491;stroke:none;stroke-width:0.264583px;stroke-linecap:butt;stroke-linejoin:miter;stroke-opacity:1;filter:url(#filter1069)"
         d="M 91.415812,81.857527 C 87.307425,78.771986 81.822311,73.683448 79.346335,70.354243 77.198431,67.466165 72.79042,61.027408 74.957891,51.754767 c 1.161051,-4.967084 6.192589,-9.340501 11.168962,-10.461069 5.573481,-1.255024 9.558167,-0.536319 15.990727,5.024848 6.36485,-5.638538 10.34055,-6.40537 15.9288,-5.217828 4.98956,1.060316 10.07361,5.372576 11.29463,10.325258 2.27943,9.245756 -2.05041,15.73734 -4.16323,18.651178 -2.43554,3.358899 -7.85873,8.513387 -11.92951,11.648378 -5.04825,3.887767 -8.9002,5.867125 -10.85086,5.878918 -1.95066,0.01179 -5.886702,-1.920479 -10.981598,-5.746923 z"
         id="path1757"
         class="UnoptimicedTransforms"
         sodipodi:nodetypes="sssscssssss"
         transform="matrix(0.66378548,0,0,0.74190133,-14.010262,-6.88299)" /><path
         style="display:inline;fill:#ff3838;fill-opacity:0.848233;stroke:none;stroke-width:0.264583px;stroke-linecap:butt;stroke-linejoin:miter;stroke-opacity:1;filter:url(#filter1079)"
         d="M 91.415812,81.857527 C 87.307425,78.771986 81.822311,73.683448 79.346335,70.354243 77.198431,67.466165 72.79042,61.027408 74.957891,51.754767 c 1.161051,-4.967084 6.192589,-9.340501 11.168962,-10.461069 5.573481,-1.255024 9.558167,-0.536319 15.990727,5.024848 6.36485,-5.638538 10.34055,-6.40537 15.9288,-5.217828 4.98956,1.060316 10.07361,5.372576 11.29463,10.325258 2.27943,9.245756 -2.05041,15.73734 -4.16323,18.651178 -2.43554,3.358899 -7.85873,8.513387 -11.92951,11.648378 -5.04825,3.887767 -8.9002,5.867125 -10.85086,5.878918 -1.95066,0.01179 -5.886702,-1.920479 -10.981598,-5.746923 z"
         id="path1073"
         class="UnoptimicedTransforms"
         sodipodi:nodetypes="sssscssssss"
         transform="matrix(0.49028664,0,0,0.45388474,3.7178597,11.582672)" /></g></g></svg>
