<?xml version="1.0" encoding="UTF-8" standalone="no"?>
<!-- Created with Inkscape (http://www.inkscape.org/) -->

<svg
   width="210mm"
   height="297mm"
   viewBox="0 0 210 297"
   version="1.1"
   id="svg3852"
   inkscape:version="1.2 (dc2aedaf03, 2022-05-15)"
   sodipodi:docname="label-13(music).svg"
   xmlns:inkscape="http://www.inkscape.org/namespaces/inkscape"
   xmlns:sodipodi="http://sodipodi.sourceforge.net/DTD/sodipodi-0.dtd"
   xmlns="http://www.w3.org/2000/svg"
   xmlns:svg="http://www.w3.org/2000/svg">
  <sodipodi:namedview
     id="namedview3854"
     pagecolor="#ffffff"
     bordercolor="#666666"
     borderopacity="1.0"
     inkscape:showpageshadow="2"
     inkscape:pageopacity="0.0"
     inkscape:pagecheckerboard="0"
     inkscape:deskcolor="#d1d1d1"
     inkscape:document-units="mm"
     showgrid="false"
     inkscape:zoom="1.1893044"
     inkscape:cx="287.56305"
     inkscape:cy="272.00774"
     inkscape:window-width="1920"
     inkscape:window-height="1058"
     inkscape:window-x="-8"
     inkscape:window-y="-8"
     inkscape:window-maximized="1"
     inkscape:current-layer="layer1" />
  <defs
     id="defs3849">
    <filter
       inkscape:collect="always"
       style="color-interpolation-filters:sRGB"
       id="filter3263"
       x="-0.030814444"
       y="-0.10852668"
       width="1.0616289"
       height="1.2170534">
      <feGaussianBlur
         inkscape:collect="always"
         stdDeviation="0.33883098"
         id="feGaussianBlur3265" />
    </filter>
    <filter
       inkscape:collect="always"
       style="color-interpolation-filters:sRGB"
       id="filter3750"
       x="-0.0062534115"
       y="-0.022024152"
       width="1.0125068"
       height="1.0440483">
      <feGaussianBlur
         inkscape:collect="always"
         stdDeviation="0.013553239"
         id="feGaussianBlur3752" />
    </filter>
  </defs>
  <g
     inkscape:label="Layer 1"
     inkscape:groupmode="layer"
     id="layer1">
    <g
       id="g3788"
       transform="matrix(2.5166664,0,0,2.5166664,-95.305756,-174.64283)"
       inkscape:export-filename="label-13(music).png"
       inkscape:export-xdpi="52.0042"
       inkscape:export-ydpi="52.0042">
      <g
         aria-label="Music"
         id="text3261"
         style="font-weight:bold;font-size:10.5833px;line-height:1.25;font-family:'Berlin Sans FB Demi';-inkscape-font-specification:'Berlin Sans FB Demi Bold';letter-spacing:0.264583px;word-spacing:0px;stroke-width:0.264583;filter:url(#filter3263)">
        <path
           d="m 50.840418,80.662397 q 0,0.160197 -0.149861,0.160197 h -1.82934 q -0.149861,0 -0.149861,-0.180867 0,-0.521931 0.03617,-1.565791 0.04134,-1.043861 0.04134,-1.565791 0,-0.149861 -0.04651,-0.160197 -0.05684,0.03101 -0.692462,1.596797 -0.372069,0.919838 -0.744138,1.834508 -0.05168,0.118855 -0.129191,0.139526 -0.02584,0.0052 -0.206705,0.0052 -0.268716,0 -0.320392,-0.103352 -0.279052,-0.568439 -0.733803,-1.653641 -0.485757,-1.147213 -0.728636,-1.658808 -0.01033,-0.02584 -0.04651,-0.05684 -0.03617,0.04651 -0.03617,0.149861 0,0.506428 0.02584,1.519282 0.02584,1.012855 0.02584,1.519283 0,0.180867 -0.144693,0.180867 h -1.725987 q -0.103353,0 -0.129191,-0.03101 -0.02067,-0.03617 -0.02067,-0.118855 0,-0.563272 0.05168,-1.689814 0.05684,-1.131711 0.05684,-1.694982 0,-0.599445 -0.05168,-2.247918 -0.0052,-0.428913 -0.04651,-1.276403 l -0.0052,-0.08785 q -0.0052,-0.103353 0.21704,-0.103353 0.28422,0 0.852659,-0.0155 0.568439,-0.02067 0.852658,-0.02067 0.05684,0 0.160197,0.21704 l 1.508947,3.312449 q 0.160196,0.335896 0.268716,0.335896 0.05684,0 0.242879,-0.387572 0.52193,-1.085202 1.54512,-3.271108 0.08785,-0.201537 0.191202,-0.201537 0.149861,0 0.449584,0.0155 0.30489,0.0155 0.459919,0.0155 0.12919,0 0.392739,-0.02584 0.268717,-0.02584 0.397907,-0.02584 0.155029,0 0.155029,0.124023 0,0.60978 -0.04651,1.824172 -0.04134,1.209225 -0.04134,1.819005 0,0.563271 0.04651,1.689814 0.04651,1.126543 0.04651,1.684646 z"
           id="path3765" />
        <path
           d="m 57.347494,76.125221 q 0,0.382404 -0.03617,1.147213 -0.03617,0.764809 -0.03617,1.147213 0,0.372069 0.02584,1.116208 0.02584,0.744138 0.02584,1.111039 0,0.139526 -0.129191,0.1757 -0.196369,0.05168 -0.831987,0.05168 -0.563272,0 -0.78548,-0.03101 -0.09819,-0.0155 -0.124023,-0.124023 -0.0155,-0.155029 -0.03101,-0.310057 -0.02584,-0.237711 -0.07235,-0.237711 0.07235,0 -0.521931,0.351398 -0.594277,0.351399 -1.080034,0.351399 -1.369421,0 -1.622634,-1.235063 -0.113688,-0.573606 -0.113688,-1.663976 0,-1.178219 0.191202,-1.860345 0.05684,-0.211873 0.211873,-0.211873 0.23771,0 0.723467,0.0052 0.485757,0.0052 0.723468,0.0052 0.160197,0 0.160197,0.134359 0,0.03617 -0.01034,0.10852 -0.10852,0.702797 -0.10852,1.426265 0,0.899167 0.05684,1.229895 0.09302,0.568439 0.676959,0.568439 0.227376,0 0.490925,-0.201538 0.268716,-0.201537 0.279052,-0.418577 0.01034,-0.191203 0.01034,-2.594149 0,-0.170532 0.02584,-0.201537 0.03101,-0.05168 0.186035,-0.05168 0.253213,0 0.759641,0.0052 0.511595,0.0052 0.764808,0.0052 0.155029,0 0.180867,0.07751 0.01034,0.04134 0.01034,0.124023 z"
           id="path3767" />
        <path
           d="m 61.487797,76.641984 q 0,0.05168 -0.07751,0.139526 -0.144693,-0.03617 -0.289387,-0.03617 -0.30489,0 -0.511595,0.134358 -0.248046,0.155029 -0.248046,0.439249 0,0.180867 0.263549,0.459919 0.397907,0.418577 0.490925,0.563271 0.263549,0.392739 0.263549,0.842323 0,0.263549 -0.103353,0.558104 -0.118855,0.32556 -0.299722,0.475421 -0.382405,0.330728 -0.894,0.558104 -0.552936,0.237711 -1.018022,0.237711 -0.103353,0 -0.465086,-0.558104 -0.356567,-0.563271 -0.356567,-0.687294 0,-0.04651 0.05684,-0.05684 0.361734,-0.06718 0.728636,-0.134358 0.454751,-0.144694 0.454751,-0.475422 0,-0.227376 -0.263549,-0.527098 -0.470254,-0.52193 -0.490925,-0.552936 -0.263549,-0.372069 -0.263549,-0.785479 0,-0.775144 0.785479,-1.317745 0.702798,-0.480589 1.50378,-0.480589 0.08268,0 0.408242,0.558103 0.325561,0.552936 0.325561,0.645954 z"
           id="path3769" />
        <path
           d="m 64.542899,74.611106 q 0,0.899167 -1.012855,0.899167 -0.434081,0 -0.7183,-0.227375 -0.310058,-0.248046 -0.310058,-0.671792 0,-0.403075 0.320393,-0.661456 0.294555,-0.237711 0.707965,-0.237711 0.403075,0 0.697629,0.242879 0.315226,0.258381 0.315226,0.656288 z m -0.134359,3.839547 q 0,0.377237 0.0155,1.126543 0.0155,0.744138 0.0155,1.116207 0,0.10852 -0.129191,0.129191 -0.175699,0.03101 -0.790647,0.03101 -0.620115,0 -0.795814,-0.03101 -0.113688,-0.02067 -0.139526,-0.06718 -0.01033,-0.02067 -0.01033,-0.155029 0,-0.356567 0.0155,-1.069699 0.0155,-0.7183 0.0155,-1.080034 0,-1.467606 -0.113687,-2.335767 -0.01034,-0.08268 -0.01034,-0.10852 0,-0.103353 0.139526,-0.103353 0.144694,0 0.439249,0.03101 0.299722,0.03101 0.449583,0.03101 0.149861,0 0.449584,-0.02584 0.299722,-0.02584 0.449583,-0.02584 0.124023,0 0.124023,0.103353 0,0.02067 -0.01033,0.09819 -0.113688,1.007687 -0.113688,2.335767 z"
           id="path3771" />
        <path
           d="m 69.091445,77.422295 q -0.0052,0 -0.315225,-0.08268 -0.30489,-0.08268 -0.496092,-0.08268 -0.459919,0 -0.733803,0.279052 -0.273885,0.273884 -0.273885,0.733803 0,0.475422 0.299723,0.749306 0.299722,0.268717 0.780311,0.268717 0.227376,0 0.511595,-0.113688 0.28422,-0.118856 0.268717,-0.118856 0.08785,0 0.227376,0.656289 0.118855,0.599445 0.118855,0.795814 0,0.19637 -0.640786,0.335896 -0.496092,0.10852 -0.800982,0.10852 -1.136878,0 -1.875848,-0.764808 -0.738971,-0.764809 -0.738971,-1.906855 0,-1.13171 0.738971,-1.901686 0.744138,-0.775144 1.875848,-0.775144 0.769977,0 1.353918,0.330728 0.134359,0.07235 0.134359,0.139526 0,0.06718 -0.155029,0.60978 -0.144694,0.52193 -0.191202,0.63045 -0.04134,0.10852 -0.08785,0.10852 z"
           id="path3773" />
      </g>
      <g
         aria-label="Music"
         id="text402"
         style="font-weight:bold;font-size:10.5833px;line-height:1.25;font-family:'Berlin Sans FB Demi';-inkscape-font-specification:'Berlin Sans FB Demi Bold';letter-spacing:0.264583px;word-spacing:0px;fill:#ff5025;stroke:#000000;stroke-width:0.265;stroke-linejoin:round;filter:url(#filter3750)">
        <path
           d="m 50.840418,80.662397 q 0,0.160197 -0.149861,0.160197 h -1.82934 q -0.149861,0 -0.149861,-0.180867 0,-0.521931 0.03617,-1.565791 0.04134,-1.043861 0.04134,-1.565791 0,-0.149861 -0.04651,-0.160197 -0.05684,0.03101 -0.692462,1.596797 -0.372069,0.919838 -0.744138,1.834508 -0.05168,0.118855 -0.129191,0.139526 -0.02584,0.0052 -0.206705,0.0052 -0.268716,0 -0.320392,-0.103352 -0.279052,-0.568439 -0.733803,-1.653641 -0.485757,-1.147213 -0.728636,-1.658808 -0.01033,-0.02584 -0.04651,-0.05684 -0.03617,0.04651 -0.03617,0.149861 0,0.506428 0.02584,1.519282 0.02584,1.012855 0.02584,1.519283 0,0.180867 -0.144693,0.180867 h -1.725987 q -0.103353,0 -0.129191,-0.03101 -0.02067,-0.03617 -0.02067,-0.118855 0,-0.563272 0.05168,-1.689814 0.05684,-1.131711 0.05684,-1.694982 0,-0.599445 -0.05168,-2.247918 -0.0052,-0.428913 -0.04651,-1.276403 l -0.0052,-0.08785 q -0.0052,-0.103353 0.21704,-0.103353 0.28422,0 0.852659,-0.0155 0.568439,-0.02067 0.852658,-0.02067 0.05684,0 0.160197,0.21704 l 1.508947,3.312449 q 0.160196,0.335896 0.268716,0.335896 0.05684,0 0.242879,-0.387572 0.52193,-1.085202 1.54512,-3.271108 0.08785,-0.201537 0.191202,-0.201537 0.149861,0 0.449584,0.0155 0.30489,0.0155 0.459919,0.0155 0.12919,0 0.392739,-0.02584 0.268717,-0.02584 0.397907,-0.02584 0.155029,0 0.155029,0.124023 0,0.60978 -0.04651,1.824172 -0.04134,1.209225 -0.04134,1.819005 0,0.563271 0.04651,1.689814 0.04651,1.126543 0.04651,1.684646 z"
           id="path3754" />
        <path
           d="m 57.347494,76.125221 q 0,0.382404 -0.03617,1.147213 -0.03617,0.764809 -0.03617,1.147213 0,0.372069 0.02584,1.116208 0.02584,0.744138 0.02584,1.111039 0,0.139526 -0.129191,0.1757 -0.196369,0.05168 -0.831987,0.05168 -0.563272,0 -0.78548,-0.03101 -0.09819,-0.0155 -0.124023,-0.124023 -0.0155,-0.155029 -0.03101,-0.310057 -0.02584,-0.237711 -0.07235,-0.237711 0.07235,0 -0.521931,0.351398 -0.594277,0.351399 -1.080034,0.351399 -1.369421,0 -1.622634,-1.235063 -0.113688,-0.573606 -0.113688,-1.663976 0,-1.178219 0.191202,-1.860345 0.05684,-0.211873 0.211873,-0.211873 0.23771,0 0.723467,0.0052 0.485757,0.0052 0.723468,0.0052 0.160197,0 0.160197,0.134359 0,0.03617 -0.01034,0.10852 -0.10852,0.702797 -0.10852,1.426265 0,0.899167 0.05684,1.229895 0.09302,0.568439 0.676959,0.568439 0.227376,0 0.490925,-0.201538 0.268716,-0.201537 0.279052,-0.418577 0.01034,-0.191203 0.01034,-2.594149 0,-0.170532 0.02584,-0.201537 0.03101,-0.05168 0.186035,-0.05168 0.253213,0 0.759641,0.0052 0.511595,0.0052 0.764808,0.0052 0.155029,0 0.180867,0.07751 0.01034,0.04134 0.01034,0.124023 z"
           id="path3756" />
        <path
           d="m 61.487797,76.641984 q 0,0.05168 -0.07751,0.139526 -0.144693,-0.03617 -0.289387,-0.03617 -0.30489,0 -0.511595,0.134358 -0.248046,0.155029 -0.248046,0.439249 0,0.180867 0.263549,0.459919 0.397907,0.418577 0.490925,0.563271 0.263549,0.392739 0.263549,0.842323 0,0.263549 -0.103353,0.558104 -0.118855,0.32556 -0.299722,0.475421 -0.382405,0.330728 -0.894,0.558104 -0.552936,0.237711 -1.018022,0.237711 -0.103353,0 -0.465086,-0.558104 -0.356567,-0.563271 -0.356567,-0.687294 0,-0.04651 0.05684,-0.05684 0.361734,-0.06718 0.728636,-0.134358 0.454751,-0.144694 0.454751,-0.475422 0,-0.227376 -0.263549,-0.527098 -0.470254,-0.52193 -0.490925,-0.552936 -0.263549,-0.372069 -0.263549,-0.785479 0,-0.775144 0.785479,-1.317745 0.702798,-0.480589 1.50378,-0.480589 0.08268,0 0.408242,0.558103 0.325561,0.552936 0.325561,0.645954 z"
           id="path3758" />
        <path
           d="m 64.542899,74.611106 q 0,0.899167 -1.012855,0.899167 -0.434081,0 -0.7183,-0.227375 -0.310058,-0.248046 -0.310058,-0.671792 0,-0.403075 0.320393,-0.661456 0.294555,-0.237711 0.707965,-0.237711 0.403075,0 0.697629,0.242879 0.315226,0.258381 0.315226,0.656288 z m -0.134359,3.839547 q 0,0.377237 0.0155,1.126543 0.0155,0.744138 0.0155,1.116207 0,0.10852 -0.129191,0.129191 -0.175699,0.03101 -0.790647,0.03101 -0.620115,0 -0.795814,-0.03101 -0.113688,-0.02067 -0.139526,-0.06718 -0.01033,-0.02067 -0.01033,-0.155029 0,-0.356567 0.0155,-1.069699 0.0155,-0.7183 0.0155,-1.080034 0,-1.467606 -0.113687,-2.335767 -0.01034,-0.08268 -0.01034,-0.10852 0,-0.103353 0.139526,-0.103353 0.144694,0 0.439249,0.03101 0.299722,0.03101 0.449583,0.03101 0.149861,0 0.449584,-0.02584 0.299722,-0.02584 0.449583,-0.02584 0.124023,0 0.124023,0.103353 0,0.02067 -0.01033,0.09819 -0.113688,1.007687 -0.113688,2.335767 z"
           id="path3760" />
        <path
           d="m 69.091445,77.422295 q -0.0052,0 -0.315225,-0.08268 -0.30489,-0.08268 -0.496092,-0.08268 -0.459919,0 -0.733803,0.279052 -0.273885,0.273884 -0.273885,0.733803 0,0.475422 0.299723,0.749306 0.299722,0.268717 0.780311,0.268717 0.227376,0 0.511595,-0.113688 0.28422,-0.118856 0.268717,-0.118856 0.08785,0 0.227376,0.656289 0.118855,0.599445 0.118855,0.795814 0,0.19637 -0.640786,0.335896 -0.496092,0.10852 -0.800982,0.10852 -1.136878,0 -1.875848,-0.764808 -0.738971,-0.764809 -0.738971,-1.906855 0,-1.13171 0.738971,-1.901686 0.744138,-0.775144 1.875848,-0.775144 0.769977,0 1.353918,0.330728 0.134359,0.07235 0.134359,0.139526 0,0.06718 -0.155029,0.60978 -0.144694,0.52193 -0.191202,0.63045 -0.04134,0.10852 -0.08785,0.10852 z"
           id="path3762" />
      </g>
    </g>
  </g>
</svg>
