<?xml version="1.0" encoding="UTF-8" standalone="no"?>
<!-- Created with Inkscape (http://www.inkscape.org/) -->

<svg
   width="210mm"
   height="297mm"
   viewBox="0 0 210 297"
   version="1.1"
   id="svg4333"
   inkscape:version="1.2 (dc2aedaf03, 2022-05-15)"
   sodipodi:docname="label-13(speed).svg"
   xmlns:inkscape="http://www.inkscape.org/namespaces/inkscape"
   xmlns:sodipodi="http://sodipodi.sourceforge.net/DTD/sodipodi-0.dtd"
   xmlns="http://www.w3.org/2000/svg"
   xmlns:svg="http://www.w3.org/2000/svg">
  <sodipodi:namedview
     id="namedview4335"
     pagecolor="#ffffff"
     bordercolor="#666666"
     borderopacity="1.0"
     inkscape:showpageshadow="2"
     inkscape:pageopacity="0.0"
     inkscape:pagecheckerboard="0"
     inkscape:deskcolor="#d1d1d1"
     inkscape:document-units="mm"
     showgrid="false"
     inkscape:zoom="0.5946522"
     inkscape:cx="707.97686"
     inkscape:cy="421.25464"
     inkscape:window-width="1920"
     inkscape:window-height="1058"
     inkscape:window-x="-8"
     inkscape:window-y="-8"
     inkscape:window-maximized="1"
     inkscape:current-layer="layer1" />
  <defs
     id="defs4330">
    <filter
       inkscape:collect="always"
       style="color-interpolation-filters:sRGB"
       id="filter4145"
       x="-0.031762004"
       y="-0.098208978"
       width="1.063524"
       height="1.196418">
      <feGaussianBlur
         inkscape:collect="always"
         stdDeviation="0.37195546"
         id="feGaussianBlur4147" />
    </filter>
    <filter
       inkscape:collect="always"
       style="color-interpolation-filters:sRGB"
       id="filter4149"
       x="-0.0059848275"
       y="-0.018505249"
       width="1.0119716"
       height="1.0370105">
      <feGaussianBlur
         inkscape:collect="always"
         stdDeviation="0.014878219"
         id="feGaussianBlur4151" />
    </filter>
  </defs>
  <g
     inkscape:label="Layer 1"
     inkscape:groupmode="layer"
     id="layer1">
    <g
       id="g4256"
       transform="matrix(3.3369936,0,0,3.3369936,-139.73602,-330.29891)">
      <g
         aria-label="Speed"
         id="text4143"
         style="font-weight:bold;font-size:10.5833px;line-height:1.25;font-family:'Berlin Sans FB Demi';-inkscape-font-specification:'Berlin Sans FB Demi Bold';letter-spacing:0.264583px;word-spacing:0px;stroke-width:0.264583;filter:url(#filter4145)">
        <path
           d="m 48.566603,107.01135 q 0,1.04903 -0.883664,1.79833 -0.775144,0.66146 -1.886184,0.84233 -0.04134,0.005 -0.06718,0.005 -0.118855,0 -0.527098,-0.72346 -0.408242,-0.72864 -0.408242,-0.88883 0,-0.0569 0.07751,-0.0724 0.749306,-0.17053 0.992185,-0.28939 0.537433,-0.26872 0.537433,-0.79581 0,-0.3359 -0.351399,-0.74931 -0.60978,-0.7028 -0.661456,-0.78031 -0.356566,-0.53743 -0.356566,-1.18855 0,-0.94568 0.873329,-1.57096 0.713132,-0.51677 1.751825,-0.67179 0.05684,-0.005 0.08785,-0.005 0.07751,0 0.124023,0.12402 0.134358,0.37724 0.625283,1.36425 0.0155,0.031 0.0155,0.0517 0,0.0879 -0.09302,0.0879 -0.04134,0 -0.139526,-0.0155 -0.09819,-0.0155 -0.149861,-0.0155 -0.372069,0 -0.651121,0.17054 -0.335896,0.19637 -0.335896,0.54776 0,0.31523 0.372069,0.77515 0.656289,0.82682 0.687295,0.86816 0.366901,0.56844 0.366901,1.13171 z"
           id="path4222" />
        <path
           d="m 55.352731,106.90283 q 0,1.10587 -0.651121,1.83451 -0.671791,0.75447 -1.76216,0.75447 -0.397908,0 -0.852659,-0.19637 -0.454751,-0.19637 -0.41341,-0.19637 -0.06718,0 -0.06718,0.15503 0,0.26355 0.02584,0.79065 0.02584,0.53226 0.02584,0.79581 0,0.16537 -0.170532,0.16537 l -1.054195,0.005 q -0.356567,0 -0.459919,-0.0258 -0.155029,-0.0362 -0.155029,-0.1912 l 0.01034,-3.97907 q 0,-1.20406 -0.180867,-2.03088 -0.01034,-0.0517 -0.01034,-0.0878 0,-0.0775 0.06201,-0.10335 0.201537,-0.0775 0.769976,-0.16536 0.552936,-0.0878 0.800982,-0.0878 0.201538,0 0.227376,0.26871 0.03101,0.26355 0.07235,0.26355 -0.05168,0 0.439249,-0.27905 0.496092,-0.28422 0.899167,-0.28422 1.121375,0 1.793166,0.73897 0.651121,0.71313 0.651121,1.85518 z m -1.917189,-0.0103 q 0,-0.41341 -0.253214,-0.72346 -0.273884,-0.32556 -0.676959,-0.32556 -0.41341,0 -0.661456,0.32556 -0.217041,0.29455 -0.217041,0.72346 0,0.43925 0.227376,0.72864 0.242878,0.31523 0.671791,0.31523 0.909503,0 0.909503,-1.04387 z"
           id="path4224" />
        <path
           d="m 61.022652,106.58244 q 0,0.52193 -0.335896,0.59427 -0.05684,0.0103 -1.069699,0.11369 -0.60978,0.0672 -1.819004,0.1602 0.07235,0.33589 0.439248,0.51159 0.299722,0.1447 0.682127,0.1447 0.459918,0 0.925005,-0.24805 0.19637,-0.12402 0.392739,-0.24805 0.108521,0.0517 0.361734,0.5271 0.258382,0.47542 0.258382,0.60461 0,0.0362 -0.07751,0.11886 -0.63045,0.67696 -1.95853,0.67696 -1.229895,0 -1.984369,-0.7183 -0.775144,-0.72864 -0.775144,-1.9482 0,-1.18855 0.692462,-1.94819 0.713133,-0.78548 1.891351,-0.78548 0.992185,0 1.684647,0.72347 0.692462,0.72346 0.692462,1.72082 z m -1.80867,-0.31523 q 0,-0.32039 -0.227375,-0.56327 -0.227376,-0.24288 -0.542601,-0.24288 -0.325561,0 -0.537433,0.27389 -0.19637,0.25321 -0.19637,0.59427 0,0.13953 0.144694,0.13953 0.382404,0 1.188554,-0.11886 0.170531,-0.0258 0.170531,-0.0827 z"
           id="path4226" />
        <path
           d="m 66.58922,106.58244 q 0,0.52193 -0.335896,0.59427 -0.05684,0.0103 -1.069698,0.11369 -0.60978,0.0672 -1.819005,0.1602 0.07235,0.33589 0.439248,0.51159 0.299723,0.1447 0.682127,0.1447 0.459919,0 0.925005,-0.24805 0.19637,-0.12402 0.39274,-0.24805 0.10852,0.0517 0.361734,0.5271 0.258381,0.47542 0.258381,0.60461 0,0.0362 -0.07751,0.11886 -0.630451,0.67696 -1.958531,0.67696 -1.229895,0 -1.984369,-0.7183 -0.775144,-0.72864 -0.775144,-1.9482 0,-1.18855 0.692462,-1.94819 0.713133,-0.78548 1.891352,-0.78548 0.992184,0 1.684646,0.72347 0.692462,0.72346 0.692462,1.72082 z m -1.808669,-0.31523 q 0,-0.32039 -0.227376,-0.56327 -0.227375,-0.24288 -0.542601,-0.24288 -0.32556,0 -0.537433,0.27389 -0.19637,0.25321 -0.19637,0.59427 0,0.13953 0.144694,0.13953 0.382404,0 1.188554,-0.11886 0.170532,-0.0258 0.170532,-0.0827 z"
           id="path4228" />
        <path
           d="m 72.899927,102.0556 q 0,-0.11369 -0.04134,0.34106 -0.05684,0.57361 -0.08785,1.46761 -0.04134,1.01285 -0.04134,2.30476 0,2.13423 0.118855,3.03856 0.01034,0.0982 0.01034,0.12402 0,0.0568 -0.07752,0.0672 -0.186034,0.0258 -1.369421,0.0258 -0.279052,0 -0.320393,-0.10852 -0.01033,-0.19637 -0.02067,-0.39274 -0.0052,-0.0413 -0.04134,-0.0827 -0.03101,0.0155 -0.07752,0.062 -0.558103,0.54777 -1.395259,0.54777 -1.090369,0 -1.746658,-0.76481 -0.625282,-0.72863 -0.625282,-1.83967 0,-1.12655 0.614947,-1.85518 0.651121,-0.77515 1.756993,-0.77515 0.780312,0 1.214393,0.4961 0.07235,0.0827 0.103352,0.0827 0.04651,0 0.04651,-0.13436 0,-0.39791 -0.02067,-1.18855 -0.02067,-0.79065 -0.02067,-1.18339 0,-0.14986 0.08268,-0.17053 0.330728,-0.0155 0.909502,-0.062 1.033525,-0.12919 0.91467,-0.12919 0.113688,0 0.113688,0.12919 z m -1.948196,4.74904 q 0,-0.40824 -0.284219,-0.71313 -0.28422,-0.31006 -0.687294,-0.31006 -0.423746,0 -0.676959,0.31006 -0.248047,0.30489 -0.248047,0.73381 0,0.41857 0.253214,0.70796 0.258381,0.31006 0.671792,0.31006 0.41341,0 0.692462,-0.31006 0.279051,-0.31006 0.279051,-0.72864 z"
           id="path4230" />
      </g>
      <g
         aria-label="Speed"
         id="text406"
         style="font-weight:bold;font-size:10.5833px;line-height:1.25;font-family:'Berlin Sans FB Demi';-inkscape-font-specification:'Berlin Sans FB Demi Bold';letter-spacing:0.264583px;word-spacing:0px;fill:#ff5025;stroke:#000000;stroke-width:0.265;stroke-linejoin:round;filter:url(#filter4149)">
        <path
           d="m 48.566603,107.01135 q 0,1.04903 -0.883664,1.79833 -0.775144,0.66146 -1.886184,0.84233 -0.04134,0.005 -0.06718,0.005 -0.118855,0 -0.527098,-0.72346 -0.408242,-0.72864 -0.408242,-0.88883 0,-0.0569 0.07751,-0.0724 0.749306,-0.17053 0.992185,-0.28939 0.537433,-0.26872 0.537433,-0.79581 0,-0.3359 -0.351399,-0.74931 -0.60978,-0.7028 -0.661456,-0.78031 -0.356566,-0.53743 -0.356566,-1.18855 0,-0.94568 0.873329,-1.57096 0.713132,-0.51677 1.751825,-0.67179 0.05684,-0.005 0.08785,-0.005 0.07751,0 0.124023,0.12402 0.134358,0.37724 0.625283,1.36425 0.0155,0.031 0.0155,0.0517 0,0.0879 -0.09302,0.0879 -0.04134,0 -0.139526,-0.0155 -0.09819,-0.0155 -0.149861,-0.0155 -0.372069,0 -0.651121,0.17054 -0.335896,0.19637 -0.335896,0.54776 0,0.31523 0.372069,0.77515 0.656289,0.82682 0.687295,0.86816 0.366901,0.56844 0.366901,1.13171 z"
           id="path4233" />
        <path
           d="m 55.352731,106.90283 q 0,1.10587 -0.651121,1.83451 -0.671791,0.75447 -1.76216,0.75447 -0.397908,0 -0.852659,-0.19637 -0.454751,-0.19637 -0.41341,-0.19637 -0.06718,0 -0.06718,0.15503 0,0.26355 0.02584,0.79065 0.02584,0.53226 0.02584,0.79581 0,0.16537 -0.170532,0.16537 l -1.054195,0.005 q -0.356567,0 -0.459919,-0.0258 -0.155029,-0.0362 -0.155029,-0.1912 l 0.01034,-3.97907 q 0,-1.20406 -0.180867,-2.03088 -0.01034,-0.0517 -0.01034,-0.0878 0,-0.0775 0.06201,-0.10335 0.201537,-0.0775 0.769976,-0.16536 0.552936,-0.0878 0.800982,-0.0878 0.201538,0 0.227376,0.26871 0.03101,0.26355 0.07235,0.26355 -0.05168,0 0.439249,-0.27905 0.496092,-0.28422 0.899167,-0.28422 1.121375,0 1.793166,0.73897 0.651121,0.71313 0.651121,1.85518 z m -1.917189,-0.0103 q 0,-0.41341 -0.253214,-0.72346 -0.273884,-0.32556 -0.676959,-0.32556 -0.41341,0 -0.661456,0.32556 -0.217041,0.29455 -0.217041,0.72346 0,0.43925 0.227376,0.72864 0.242878,0.31523 0.671791,0.31523 0.909503,0 0.909503,-1.04387 z"
           id="path4235" />
        <path
           d="m 61.022652,106.58244 q 0,0.52193 -0.335896,0.59427 -0.05684,0.0103 -1.069699,0.11369 -0.60978,0.0672 -1.819004,0.1602 0.07235,0.33589 0.439248,0.51159 0.299722,0.1447 0.682127,0.1447 0.459918,0 0.925005,-0.24805 0.19637,-0.12402 0.392739,-0.24805 0.108521,0.0517 0.361734,0.5271 0.258382,0.47542 0.258382,0.60461 0,0.0362 -0.07751,0.11886 -0.63045,0.67696 -1.95853,0.67696 -1.229895,0 -1.984369,-0.7183 -0.775144,-0.72864 -0.775144,-1.9482 0,-1.18855 0.692462,-1.94819 0.713133,-0.78548 1.891351,-0.78548 0.992185,0 1.684647,0.72347 0.692462,0.72346 0.692462,1.72082 z m -1.80867,-0.31523 q 0,-0.32039 -0.227375,-0.56327 -0.227376,-0.24288 -0.542601,-0.24288 -0.325561,0 -0.537433,0.27389 -0.19637,0.25321 -0.19637,0.59427 0,0.13953 0.144694,0.13953 0.382404,0 1.188554,-0.11886 0.170531,-0.0258 0.170531,-0.0827 z"
           id="path4237" />
        <path
           d="m 66.58922,106.58244 q 0,0.52193 -0.335896,0.59427 -0.05684,0.0103 -1.069698,0.11369 -0.60978,0.0672 -1.819005,0.1602 0.07235,0.33589 0.439248,0.51159 0.299723,0.1447 0.682127,0.1447 0.459919,0 0.925005,-0.24805 0.19637,-0.12402 0.39274,-0.24805 0.10852,0.0517 0.361734,0.5271 0.258381,0.47542 0.258381,0.60461 0,0.0362 -0.07751,0.11886 -0.630451,0.67696 -1.958531,0.67696 -1.229895,0 -1.984369,-0.7183 -0.775144,-0.72864 -0.775144,-1.9482 0,-1.18855 0.692462,-1.94819 0.713133,-0.78548 1.891352,-0.78548 0.992184,0 1.684646,0.72347 0.692462,0.72346 0.692462,1.72082 z m -1.808669,-0.31523 q 0,-0.32039 -0.227376,-0.56327 -0.227375,-0.24288 -0.542601,-0.24288 -0.32556,0 -0.537433,0.27389 -0.19637,0.25321 -0.19637,0.59427 0,0.13953 0.144694,0.13953 0.382404,0 1.188554,-0.11886 0.170532,-0.0258 0.170532,-0.0827 z"
           id="path4239" />
        <path
           d="m 72.899927,102.0556 q 0,-0.11369 -0.04134,0.34106 -0.05684,0.57361 -0.08785,1.46761 -0.04134,1.01285 -0.04134,2.30476 0,2.13423 0.118855,3.03856 0.01034,0.0982 0.01034,0.12402 0,0.0568 -0.07752,0.0672 -0.186034,0.0258 -1.369421,0.0258 -0.279052,0 -0.320393,-0.10852 -0.01033,-0.19637 -0.02067,-0.39274 -0.0052,-0.0413 -0.04134,-0.0827 -0.03101,0.0155 -0.07752,0.062 -0.558103,0.54777 -1.395259,0.54777 -1.090369,0 -1.746658,-0.76481 -0.625282,-0.72863 -0.625282,-1.83967 0,-1.12655 0.614947,-1.85518 0.651121,-0.77515 1.756993,-0.77515 0.780312,0 1.214393,0.4961 0.07235,0.0827 0.103352,0.0827 0.04651,0 0.04651,-0.13436 0,-0.39791 -0.02067,-1.18855 -0.02067,-0.79065 -0.02067,-1.18339 0,-0.14986 0.08268,-0.17053 0.330728,-0.0155 0.909502,-0.062 1.033525,-0.12919 0.91467,-0.12919 0.113688,0 0.113688,0.12919 z m -1.948196,4.74904 q 0,-0.40824 -0.284219,-0.71313 -0.28422,-0.31006 -0.687294,-0.31006 -0.423746,0 -0.676959,0.31006 -0.248047,0.30489 -0.248047,0.73381 0,0.41857 0.253214,0.70796 0.258381,0.31006 0.671792,0.31006 0.41341,0 0.692462,-0.31006 0.279051,-0.31006 0.279051,-0.72864 z"
           id="path4241" />
      </g>
    </g>
  </g>
</svg>
