<?xml version="1.0" encoding="UTF-8" standalone="no"?>
<!-- Created with Inkscape (http://www.inkscape.org/) -->

<svg
   width="210mm"
   height="297mm"
   viewBox="0 0 210 297"
   version="1.1"
   id="svg2527"
   inkscape:version="1.2 (dc2aedaf03, 2022-05-15)"
   sodipodi:docname="label-13(sound).svg"
   xmlns:inkscape="http://www.inkscape.org/namespaces/inkscape"
   xmlns:sodipodi="http://sodipodi.sourceforge.net/DTD/sodipodi-0.dtd"
   xmlns="http://www.w3.org/2000/svg"
   xmlns:svg="http://www.w3.org/2000/svg">
  <sodipodi:namedview
     id="namedview2529"
     pagecolor="#ffffff"
     bordercolor="#666666"
     borderopacity="1.0"
     inkscape:showpageshadow="2"
     inkscape:pageopacity="0.0"
     inkscape:pagecheckerboard="0"
     inkscape:deskcolor="#d1d1d1"
     inkscape:document-units="mm"
     showgrid="false"
     inkscape:zoom="1.6819304"
     inkscape:cx="324.92426"
     inkscape:cy="227.41726"
     inkscape:window-width="1920"
     inkscape:window-height="1058"
     inkscape:window-x="-8"
     inkscape:window-y="-8"
     inkscape:window-maximized="1"
     inkscape:current-layer="layer1" />
  <defs
     id="defs2524">
    <filter
       inkscape:collect="always"
       style="color-interpolation-filters:sRGB"
       id="filter983"
       x="-0.030425121"
       y="-0.1136481"
       width="1.0608502"
       height="1.2272962">
      <feGaussianBlur
         inkscape:collect="always"
         stdDeviation="0.36632274"
         id="feGaussianBlur985" />
    </filter>
    <filter
       inkscape:collect="always"
       style="color-interpolation-filters:sRGB"
       id="filter1717"
       x="-0.0058577296"
       y="-0.021880597"
       width="1.0117155"
       height="1.0437612">
      <feGaussianBlur
         inkscape:collect="always"
         stdDeviation="0.015319555"
         id="feGaussianBlur1719" />
    </filter>
  </defs>
  <g
     inkscape:label="Layer 1"
     inkscape:groupmode="layer"
     id="layer1">
    <g
       id="g1741"
       inkscape:export-filename="label-13(sound).png"
       inkscape:export-xdpi="84.208061"
       inkscape:export-ydpi="84.208061"
       transform="matrix(2.5189705,0,0,2.5189705,-24.360244,-123.4946)">
      <g
         aria-label="Sound"
         id="text981"
         style="font-weight:bold;font-size:10.5833px;line-height:1.25;font-family:'Berlin Sans FB Demi';-inkscape-font-specification:'Berlin Sans FB Demi Bold';letter-spacing:0.264583px;word-spacing:0px;opacity:1;stroke-width:0.264583;filter:url(#filter983)">
        <path
           d="m 23.849955,61.478833 q 0,1.049029 -0.883664,1.798335 -0.775144,0.661456 -1.886184,0.842323 -0.04134,0.0052 -0.06718,0.0052 -0.118855,0 -0.527098,-0.723467 -0.408242,-0.728636 -0.408242,-0.888832 0,-0.05684 0.07751,-0.07235 0.749306,-0.170532 0.992184,-0.289387 0.537434,-0.268717 0.537434,-0.795815 0,-0.335895 -0.351399,-0.749305 -0.60978,-0.702798 -0.661456,-0.780312 -0.356566,-0.537433 -0.356566,-1.188554 0,-0.945676 0.873328,-1.570959 0.713133,-0.516762 1.751826,-0.671791 0.05684,-0.0052 0.08785,-0.0052 0.07751,0 0.124023,0.124023 0.134358,0.377237 0.625282,1.364254 0.0155,0.03101 0.0155,0.05168 0,0.08785 -0.09302,0.08785 -0.04134,0 -0.139526,-0.0155 -0.09819,-0.0155 -0.149861,-0.0155 -0.372069,0 -0.651121,0.170531 -0.335896,0.19637 -0.335896,0.547769 0,0.315225 0.372069,0.775144 0.656289,0.82682 0.687295,0.868161 0.366901,0.568439 0.366901,1.13171 z"
           id="path2832" />
        <path
           d="m 29.907448,61.313469 q 0,1.178219 -0.723468,1.912022 -0.7183,0.733803 -1.891351,0.733803 -1.136878,0 -1.870681,-0.723467 -0.733803,-0.723468 -0.733803,-1.860346 0,-1.198889 0.702797,-1.943028 0.702797,-0.749306 1.901687,-0.749306 1.167883,0 1.891351,0.733803 0.723468,0.728636 0.723468,1.896519 z m -1.694982,0 q 0,-0.408242 -0.253214,-0.7183 -0.253213,-0.315225 -0.656288,-0.315225 -0.408243,0 -0.671792,0.320393 -0.248046,0.299722 -0.248046,0.713132 0,0.418578 0.248046,0.718301 0.263549,0.320392 0.671792,0.320392 0.403075,0 0.666624,-0.320392 0.242878,-0.299723 0.242878,-0.718301 z"
           id="path2834" />
        <path
           d="m 36.114802,59.158569 q 0,0.382404 -0.03617,1.147213 -0.03617,0.764809 -0.03617,1.147213 0,0.372069 0.02584,1.116208 0.02584,0.744138 0.02584,1.111039 0,0.139526 -0.12919,0.1757 -0.19637,0.05168 -0.831988,0.05168 -0.563272,0 -0.78548,-0.03101 -0.09818,-0.0155 -0.124023,-0.124023 -0.0155,-0.155029 -0.03101,-0.310057 -0.02584,-0.237711 -0.07235,-0.237711 0.07235,0 -0.52193,0.351398 -0.594277,0.351399 -1.080034,0.351399 -1.369421,0 -1.622635,-1.235063 -0.113688,-0.573606 -0.113688,-1.663976 0,-1.178218 0.191202,-1.860345 0.05684,-0.211873 0.211873,-0.211873 0.237711,0 0.723468,0.0052 0.485757,0.0052 0.723467,0.0052 0.160197,0 0.160197,0.134359 0,0.03617 -0.01033,0.10852 -0.108521,0.702797 -0.108521,1.426265 0,0.899167 0.05684,1.229895 0.09302,0.568439 0.676959,0.568439 0.227376,0 0.490925,-0.201538 0.268717,-0.201537 0.279052,-0.418577 0.01034,-0.191203 0.01034,-2.594149 0,-0.170532 0.02584,-0.201537 0.03101,-0.05168 0.186035,-0.05168 0.253213,0 0.759641,0.0052 0.511595,0.0052 0.764809,0.0052 0.155028,0 0.180867,0.07751 0.01033,0.04134 0.01033,0.124023 z"
           id="path2836" />
        <path
           d="m 42.368664,63.706081 q 0,0.139526 -0.144693,0.160196 -0.144694,0.02067 -0.754474,0.02067 -0.651121,0 -0.806149,-0.03101 -0.155029,-0.03101 -0.155029,-0.211873 0,-0.242878 0.0155,-0.733803 0.0155,-0.490924 0.0155,-0.738971 0,-0.191202 -0.01034,-0.568439 -0.01034,-0.382404 -0.01034,-0.573606 0,-0.707965 -0.614947,-0.707965 -0.201538,0 -0.470255,0.175699 -0.289387,0.19637 -0.289387,0.387572 v 2.790519 q 0,0.170532 -0.160196,0.191202 -0.180867,0.02067 -0.738971,0.02067 -0.604612,0 -0.785479,-0.03101 -0.160196,-0.02584 -0.160196,-0.170532 0,-0.403075 0.0052,-1.214392 0.0052,-0.811318 0.0052,-1.21956 0,-1.286739 -0.201538,-2.020542 -0.01034,-0.04651 -0.01034,-0.07751 0,-0.08268 0.07751,-0.113687 0.32556,-0.03617 0.868161,-0.113688 0.821653,-0.160197 0.925005,-0.160197 0.05684,0 0.08785,0.351399 0.03101,0.346231 0.08785,0.346231 -0.05684,0 0.552936,-0.356566 0.614948,-0.361734 1.074867,-0.361734 0.656288,0 1.095537,0.310057 0.490924,0.356567 0.490924,0.992185 v 1.648473 q 0,0.335896 0.0052,1.007687 0.0052,0.666624 0.0052,1.00252 z"
           id="path2838" />
        <path
           d="m 48.973924,56.523079 q 0,-0.113687 -0.04134,0.341064 -0.05684,0.573606 -0.08785,1.467606 -0.04134,1.012855 -0.04134,2.304761 0,2.13423 0.118855,3.038565 0.01033,0.09819 0.01033,0.124023 0,0.05684 -0.07751,0.06718 -0.186035,0.02584 -1.369421,0.02584 -0.279052,0 -0.320393,-0.10852 -0.01034,-0.19637 -0.02067,-0.39274 -0.0052,-0.04134 -0.04134,-0.08268 -0.03101,0.0155 -0.07751,0.06201 -0.558104,0.547768 -1.395259,0.547768 -1.09037,0 -1.746658,-0.764808 -0.625283,-0.728636 -0.625283,-1.839676 0,-1.126542 0.614948,-1.855178 0.651121,-0.775144 1.756993,-0.775144 0.780311,0 1.214392,0.496093 0.07235,0.08268 0.103353,0.08268 0.04651,0 0.04651,-0.134359 0,-0.397907 -0.02067,-1.188554 -0.02067,-0.790647 -0.02067,-1.183386 0,-0.149862 0.08268,-0.170532 0.330728,-0.0155 0.909503,-0.06201 1.033525,-0.12919 0.914669,-0.12919 0.113688,0 0.113688,0.12919 z m -1.948195,4.749049 q 0,-0.408242 -0.28422,-0.713132 -0.284219,-0.310058 -0.687294,-0.310058 -0.423745,0 -0.676959,0.310058 -0.248046,0.30489 -0.248046,0.733803 0,0.418578 0.253214,0.707965 0.258381,0.310057 0.671791,0.310057 0.41341,0 0.692462,-0.310057 0.279052,-0.310058 0.279052,-0.728636 z"
           id="path2840" />
      </g>
      <g
         aria-label="Sound"
         id="text969"
         style="font-weight:bold;font-size:10.5833px;line-height:1.25;font-family:'Berlin Sans FB Demi';-inkscape-font-specification:'Berlin Sans FB Demi Bold';letter-spacing:0.264583px;word-spacing:0px;fill:#ff5025;stroke:#000000;stroke-width:0.265;filter:url(#filter1717)">
        <path
           d="m 23.849955,61.478833 q 0,1.049029 -0.883664,1.798335 -0.775144,0.661456 -1.886184,0.842323 -0.04134,0.0052 -0.06718,0.0052 -0.118855,0 -0.527098,-0.723467 -0.408242,-0.728636 -0.408242,-0.888832 0,-0.05684 0.07751,-0.07235 0.749306,-0.170532 0.992184,-0.289387 0.537434,-0.268717 0.537434,-0.795815 0,-0.335895 -0.351399,-0.749305 -0.60978,-0.702798 -0.661456,-0.780312 -0.356566,-0.537433 -0.356566,-1.188554 0,-0.945676 0.873328,-1.570959 0.713133,-0.516762 1.751826,-0.671791 0.05684,-0.0052 0.08785,-0.0052 0.07751,0 0.124023,0.124023 0.134358,0.377237 0.625282,1.364254 0.0155,0.03101 0.0155,0.05168 0,0.08785 -0.09302,0.08785 -0.04134,0 -0.139526,-0.0155 -0.09819,-0.0155 -0.149861,-0.0155 -0.372069,0 -0.651121,0.170531 -0.335896,0.19637 -0.335896,0.547769 0,0.315225 0.372069,0.775144 0.656289,0.82682 0.687295,0.868161 0.366901,0.568439 0.366901,1.13171 z"
           id="path2843"
           style="stroke-linejoin:round" />
        <path
           d="m 29.907448,61.313469 q 0,1.178219 -0.723468,1.912022 -0.7183,0.733803 -1.891351,0.733803 -1.136878,0 -1.870681,-0.723467 -0.733803,-0.723468 -0.733803,-1.860346 0,-1.198889 0.702797,-1.943028 0.702797,-0.749306 1.901687,-0.749306 1.167883,0 1.891351,0.733803 0.723468,0.728636 0.723468,1.896519 z m -1.694982,0 q 0,-0.408242 -0.253214,-0.7183 -0.253213,-0.315225 -0.656288,-0.315225 -0.408243,0 -0.671792,0.320393 -0.248046,0.299722 -0.248046,0.713132 0,0.418578 0.248046,0.718301 0.263549,0.320392 0.671792,0.320392 0.403075,0 0.666624,-0.320392 0.242878,-0.299723 0.242878,-0.718301 z"
           id="path2845"
           style="stroke-linejoin:round" />
        <path
           d="m 36.114802,59.158569 q 0,0.382404 -0.03617,1.147213 -0.03617,0.764809 -0.03617,1.147213 0,0.372069 0.02584,1.116208 0.02584,0.744138 0.02584,1.111039 0,0.139526 -0.12919,0.1757 -0.19637,0.05168 -0.831988,0.05168 -0.563272,0 -0.78548,-0.03101 -0.09818,-0.0155 -0.124023,-0.124023 -0.0155,-0.155029 -0.03101,-0.310057 -0.02584,-0.237711 -0.07235,-0.237711 0.07235,0 -0.52193,0.351398 -0.594277,0.351399 -1.080034,0.351399 -1.369421,0 -1.622635,-1.235063 -0.113688,-0.573606 -0.113688,-1.663976 0,-1.178218 0.191202,-1.860345 0.05684,-0.211873 0.211873,-0.211873 0.237711,0 0.723468,0.0052 0.485757,0.0052 0.723467,0.0052 0.160197,0 0.160197,0.134359 0,0.03617 -0.01033,0.10852 -0.108521,0.702797 -0.108521,1.426265 0,0.899167 0.05684,1.229895 0.09302,0.568439 0.676959,0.568439 0.227376,0 0.490925,-0.201538 0.268717,-0.201537 0.279052,-0.418577 0.01034,-0.191203 0.01034,-2.594149 0,-0.170532 0.02584,-0.201537 0.03101,-0.05168 0.186035,-0.05168 0.253213,0 0.759641,0.0052 0.511595,0.0052 0.764809,0.0052 0.155028,0 0.180867,0.07751 0.01033,0.04134 0.01033,0.124023 z"
           id="path2847"
           style="stroke-linejoin:round" />
        <path
           d="m 42.368664,63.706081 q 0,0.139526 -0.144693,0.160196 -0.144694,0.02067 -0.754474,0.02067 -0.651121,0 -0.806149,-0.03101 -0.155029,-0.03101 -0.155029,-0.211873 0,-0.242878 0.0155,-0.733803 0.0155,-0.490924 0.0155,-0.738971 0,-0.191202 -0.01034,-0.568439 -0.01034,-0.382404 -0.01034,-0.573606 0,-0.707965 -0.614947,-0.707965 -0.201538,0 -0.470255,0.175699 -0.289387,0.19637 -0.289387,0.387572 v 2.790519 q 0,0.170532 -0.160196,0.191202 -0.180867,0.02067 -0.738971,0.02067 -0.604612,0 -0.785479,-0.03101 -0.160196,-0.02584 -0.160196,-0.170532 0,-0.403075 0.0052,-1.214392 0.0052,-0.811318 0.0052,-1.21956 0,-1.286739 -0.201538,-2.020542 -0.01034,-0.04651 -0.01034,-0.07751 0,-0.08268 0.07751,-0.113687 0.32556,-0.03617 0.868161,-0.113688 0.821653,-0.160197 0.925005,-0.160197 0.05684,0 0.08785,0.351399 0.03101,0.346231 0.08785,0.346231 -0.05684,0 0.552936,-0.356566 0.614948,-0.361734 1.074867,-0.361734 0.656288,0 1.095537,0.310057 0.490924,0.356567 0.490924,0.992185 v 1.648473 q 0,0.335896 0.0052,1.007687 0.0052,0.666624 0.0052,1.00252 z"
           id="path2849"
           style="stroke-linejoin:round" />
        <path
           d="m 48.973924,56.523079 q 0,-0.113687 -0.04134,0.341064 -0.05684,0.573606 -0.08785,1.467606 -0.04134,1.012855 -0.04134,2.304761 0,2.13423 0.118855,3.038565 0.01033,0.09819 0.01033,0.124023 0,0.05684 -0.07751,0.06718 -0.186035,0.02584 -1.369421,0.02584 -0.279052,0 -0.320393,-0.10852 -0.01034,-0.19637 -0.02067,-0.39274 -0.0052,-0.04134 -0.04134,-0.08268 -0.03101,0.0155 -0.07751,0.06201 -0.558104,0.547768 -1.395259,0.547768 -1.09037,0 -1.746658,-0.764808 -0.625283,-0.728636 -0.625283,-1.839676 0,-1.126542 0.614948,-1.855178 0.651121,-0.775144 1.756993,-0.775144 0.780311,0 1.214392,0.496093 0.07235,0.08268 0.103353,0.08268 0.04651,0 0.04651,-0.134359 0,-0.397907 -0.02067,-1.188554 -0.02067,-0.790647 -0.02067,-1.183386 0,-0.149862 0.08268,-0.170532 0.330728,-0.0155 0.909503,-0.06201 1.033525,-0.12919 0.914669,-0.12919 0.113688,0 0.113688,0.12919 z m -1.948195,4.749049 q 0,-0.408242 -0.28422,-0.713132 -0.284219,-0.310058 -0.687294,-0.310058 -0.423745,0 -0.676959,0.310058 -0.248046,0.30489 -0.248046,0.733803 0,0.418578 0.253214,0.707965 0.258381,0.310057 0.671791,0.310057 0.41341,0 0.692462,-0.310057 0.279052,-0.310058 0.279052,-0.728636 z"
           id="path2851"
           style="stroke-linejoin:round" />
      </g>
    </g>
  </g>
</svg>
