<?xml version="1.0" encoding="UTF-8" standalone="no"?>
<!-- Created with Inkscape (http://www.inkscape.org/) -->

<svg
   width="210mm"
   height="297mm"
   viewBox="0 0 210 297"
   version="1.1"
   id="svg5"
   xml:space="preserve"
   inkscape:version="1.2 (dc2aedaf03, 2022-05-15)"
   sodipodi:docname="lamb.svg"
   xmlns:inkscape="http://www.inkscape.org/namespaces/inkscape"
   xmlns:sodipodi="http://sodipodi.sourceforge.net/DTD/sodipodi-0.dtd"
   xmlns="http://www.w3.org/2000/svg"
   xmlns:svg="http://www.w3.org/2000/svg"><sodipodi:namedview
     id="namedview7"
     pagecolor="#ffffff"
     bordercolor="#666666"
     borderopacity="1.0"
     inkscape:showpageshadow="2"
     inkscape:pageopacity="0.0"
     inkscape:pagecheckerboard="0"
     inkscape:deskcolor="#d1d1d1"
     inkscape:document-units="mm"
     showgrid="false"
     inkscape:zoom="0.74322663"
     inkscape:cx="187.69511"
     inkscape:cy="367.99005"
     inkscape:window-width="1920"
     inkscape:window-height="1058"
     inkscape:window-x="-8"
     inkscape:window-y="-8"
     inkscape:window-maximized="1"
     inkscape:current-layer="layer1" /><defs
     id="defs2"><filter
       inkscape:collect="always"
       style="color-interpolation-filters:sRGB"
       id="filter35739"
       x="-0.032609186"
       y="-0.17468996"
       width="1.0652184"
       height="1.3493799"><feGaussianBlur
         inkscape:collect="always"
         stdDeviation="2.4008441"
         id="feGaussianBlur35741" /></filter><filter
       inkscape:collect="always"
       style="color-interpolation-filters:sRGB"
       id="filter37330"
       x="-0.015631375"
       y="-0.060840672"
       width="1.0312627"
       height="1.1216813"><feGaussianBlur
         inkscape:collect="always"
         stdDeviation="1.5070944"
         id="feGaussianBlur37332" /></filter></defs><g
     inkscape:label="Layer 1"
     inkscape:groupmode="layer"
     id="layer1"><g
       id="g37398"
       transform="matrix(0.64134137,0,0,0.64134137,61.876594,-0.66931237)"><ellipse
         style="opacity:1;fill:#249601;fill-opacity:1;stroke:none;stroke-width:0;stroke-linecap:round;stroke-linejoin:round;stroke-dasharray:none;paint-order:markers stroke fill;filter:url(#filter37330)"
         id="path35735"
         cx="54.822895"
         cy="159.66277"
         rx="115.69765"
         ry="29.725399" /><path
         style="opacity:0.715953;fill:#236d22;fill-opacity:1;stroke:none;stroke-width:0.264583px;stroke-linecap:butt;stroke-linejoin:miter;stroke-opacity:1;filter:url(#filter35739)"
         d="m -30.458717,157.07635 c 0,0 -6.293122,7.80347 -4.027598,9.31383 2.265524,1.51035 20.893169,0.75517 20.893169,0.75517 l 22.9069682,-4.0276 c 0,0 4.7827738,9.31382 7.0482978,11.83107 2.265525,2.51725 13.34142,8.0552 19.88627,8.30693 6.544847,0.25172 17.117295,-5.28623 17.117295,-5.28623 0,0 13.593146,4.53105 16.865568,4.78278 3.272425,0.25172 16.362122,0.75517 19.382819,-1.0069 3.0207,-1.76208 6.293125,-13.59315 5.537949,-14.60005 -0.755174,-1.0069 15.103499,-4.27932 15.103499,-4.27932 0,0 18.87937,4.53105 21.90007,4.53105 3.02069,0 9.56554,-5.0345 9.56554,-6.0414 0,-1.0069 -4.27932,-10.57245 -4.27932,-10.57245 l -86.593376,-0.50345 z"
         id="path35737" /><path
         style="opacity:1;fill:#000000;fill-opacity:1;stroke:none;stroke-width:0.264583px;stroke-linecap:butt;stroke-linejoin:miter;stroke-opacity:1"
         d="m 29.497612,157.36068 c -5.83162,0.47193 -23.5435101,0.0875 -37.3319801,0.46962 -5.7785179,0.16013 -17.0132779,1.63593 -17.0132779,1.63593 -1.88771,0.39328 -3.34662,-2.8951 -3.91461,-5.64038 3.57383,-2.99587 9.31694,-5.06616 12.72984,-8.07581 4.65282,-4.10307 5.286548,-4.01744 5.447458,0.85348 1.8512199,1.61587 8.3907099,1.16503 12.5234199,0.54827 6.59712,-0.98455 18.8647401,-6.67407 18.8647401,-6.67407 z"
         id="path28411"
         sodipodi:nodetypes="csccscacc" /><path
         style="opacity:1;fill:#cfc084;fill-opacity:1;stroke:none;stroke-width:0.224916px;stroke-linecap:butt;stroke-linejoin:miter;stroke-opacity:1"
         d="m 28.160482,156.26775 c -5.62692,0.35343 -22.7170901,-0.0918 -36.0215601,0.19439 -5.5756779,0.11992 -16.4160879,1.38248 -16.4160879,1.38248 -1.82145,0.29453 -2.83588,-1.38162 -3.38392,-3.4376 3.44838,-2.24364 9.44402,-5.05592 12.36166,-7.77847 2.36581,-2.20763 3.99981,-2.37947 4.15507,1.26842 1.7862379,1.21015 8.6307779,0.83377 12.8703679,0.17464 6.18386,-0.96141 17.8092901,-5.94215 17.8092901,-5.94215 z"
         id="path28413"
         sodipodi:nodetypes="csccscacc" /><path
         style="opacity:1;fill:#000000;fill-opacity:1;stroke:none;stroke-width:0.264583px;stroke-linecap:butt;stroke-linejoin:miter;stroke-opacity:1"
         d="m -26.627846,127.56496 c 11.86956,-1.04389 17.8344279,8.43841 16.7534479,16.28152 -0.8575599,6.22202 -11.9111979,12.78975 -20.2980279,11.35186 -1.46522,-9.18538 -0.78142,-14.69469 0.47705,-24.40854 0,0 0.82588,-1.14049 2.20233,-1.02251 -0.0787,-1.17982 0.18615,-2.14261 0.8652,-2.20233 z"
         id="path28417"
         sodipodi:nodetypes="sscccs" /><path
         style="opacity:1;fill:#753b14;fill-opacity:1;stroke:none;stroke-width:0.234446px;stroke-linecap:butt;stroke-linejoin:miter;stroke-opacity:1"
         d="m -25.835236,128.91925 c 10.42626,-0.93308 15.665818,7.54273 14.71628,14.55335 -0.75328,5.56159 -10.46283,11.4322 -17.82985,10.14694 -1.28706,-8.21042 -0.68641,-13.13495 0.41904,-21.81774 0,0 0.72545,-1.01943 1.93453,-0.91398 -0.0691,-1.05459 0.16352,-1.91518 0.76,-1.96857 z"
         id="path28419"
         sodipodi:nodetypes="sscccs" /><path
         id="path28421"
         style="opacity:1;fill:#401e08;fill-opacity:1;stroke:none;stroke-width:0.264583px;stroke-linecap:butt;stroke-linejoin:miter;stroke-opacity:1"
         d="m -29.660116,143.66237 c 2.19608,2.54375 4.64328,4.61408 6.84971,4.73666 4.95346,0.2752 8.55766,-1.1479 11.16573,-3.1626 -2.25297,4.95814 -10.71539,9.53248 -17.30438,8.38295 -0.59378,-3.78787 -0.78506,-6.8762 -0.71106,-9.95701 z" /><path
         id="path28423"
         style="opacity:1;fill:#000000;fill-opacity:1;stroke:none;stroke-width:0.264583px;stroke-linecap:butt;stroke-linejoin:miter;stroke-opacity:1"
         d="m -27.488676,128.96507 c 1.99667,0.25036 4.79697,0.73005 6.5009,1.58285 2.66328,1.33297 5.83896,4.0903 5.84563,6.75721 -1.95846,-2.99036 -4.62303,-4.86647 -7.79435,-5.75158 -1.78187,-0.49284 -4.95052,-0.82883 -6.57118,-0.97772 0.3161,-0.32394 1.02091,-0.89393 2.01487,-0.80874 -0.0189,-0.28334 -0.0176,-0.55321 0.004,-0.80202 z" /><path
         style="fill:#000000;fill-opacity:1;stroke:none;stroke-width:0.264583px;stroke-linecap:butt;stroke-linejoin:miter;stroke-opacity:1"
         d="m -10.361628,147.68053 c -2.021478,3.22888 -4.159318,4.38767 -5.525268,5.3434 3.02233,-3.4668 3.93231,-6.06697 4.4919,-5.91008 0.642818,0.18023 1.033368,0.56668 1.033368,0.56668 z"
         id="path28425"
         sodipodi:nodetypes="ccsc" /><path
         style="opacity:1;fill:#000000;fill-opacity:1;stroke:none;stroke-width:0.264583px;stroke-linecap:butt;stroke-linejoin:miter;stroke-opacity:1"
         d="m 79.878617,157.86353 c 5.83162,0.47193 23.543513,0.0875 37.331983,0.46962 5.77852,0.16013 17.01328,1.63593 17.01328,1.63593 1.88771,0.39328 3.34662,-2.8951 3.91461,-5.64038 -3.57383,-2.99587 -9.31694,-5.06616 -12.72984,-8.07581 -4.65282,-4.10307 -5.28655,-4.01744 -5.44746,0.85348 -1.85122,1.61587 -8.39071,1.16503 -12.52342,0.54827 -6.59712,-0.98455 -18.864743,-6.67407 -18.864743,-6.67407 z"
         id="path20231"
         sodipodi:nodetypes="csccscacc" /><path
         style="opacity:1;fill:#cfc084;fill-opacity:1;stroke:none;stroke-width:0.224916px;stroke-linecap:butt;stroke-linejoin:miter;stroke-opacity:1"
         d="m 81.215747,156.7706 c 5.62692,0.35343 22.717093,-0.0918 36.021563,0.19439 5.57568,0.11992 16.41609,1.38248 16.41609,1.38248 1.82145,0.29453 2.83588,-1.38162 3.38392,-3.4376 -3.44838,-2.24364 -9.44402,-5.05592 -12.36166,-7.77847 -2.36581,-2.20763 -3.99981,-2.37947 -4.15507,1.26842 -1.78624,1.21015 -8.63078,0.83377 -12.87037,0.17464 -6.18386,-0.96141 -17.809293,-5.94215 -17.809293,-5.94215 z"
         id="path20233"
         sodipodi:nodetypes="csccscacc" /><path
         id="path29934"
         style="fill:#eeeebb;fill-opacity:1;stroke:none;stroke-width:0.264583px;stroke-linecap:butt;stroke-linejoin:miter;stroke-opacity:1"
         d="m 19.535242,142.12931 c 0,0 -11.6253953,4.98086 -17.8092492,5.94227 -2.24752939,0.34943 -5.2228191,0.61663 -7.792806,0.61288 1.4774763,0.52179 2.8574714,0.80576 4.2891439,1.01028 4.0517674,0.57883 9.724658,0.081 13.3335533,-0.5333 5.696093,-0.96955 7.838306,-4.08628 8.62583,-5.97276 z m -32.212504,2.92023 c -0.0086,4.7e-4 -0.01769,0.002 -0.02635,0.003 0.406731,0.29021 0.801523,0.56234 1.18494,0.81649 -0.265084,-0.59091 -0.658913,-0.84587 -1.158585,-0.81908 z" /><path
         id="path12906"
         style="opacity:1;fill:#000000;fill-opacity:1;stroke:none;stroke-width:0;stroke-linecap:round;stroke-linejoin:round;stroke-dasharray:none;paint-order:markers stroke fill"
         d="m 38.662587,86.711726 a 7.0861835,7.4527106 0 0 0 -6.37584,4.201294 7.0861835,7.4527106 0 0 0 -4.30258,-1.53169 7.0861835,7.4527106 0 0 0 -7.08639,7.452775 7.0861835,7.4527106 0 0 0 0.62426,3.047359 5.3064318,5.0055518 0 0 0 -4.62866,4.961456 5.3064318,5.0055518 0 0 0 1.90479,3.83801 6.1963077,6.4516006 0 0 0 -4.79712,6.28437 6.1963077,6.4516006 0 0 0 3.10007,5.58829 9.9782801,9.4549313 0 0 0 -6.88175,8.98343 9.9782801,9.4549313 0 0 0 5.15369,8.27082 7.6423559,7.2415233 0 0 0 -1.59422,4.42092 7.6423559,7.2415233 0 0 0 5.52008,6.95306 7.6423559,7.2415233 0 0 0 -1.96061,4.83795 7.6423559,7.2415233 0 0 0 7.64243,7.24142 7.6423559,7.2415233 0 0 0 5.39192,-2.11719 10.756921,11.023496 0 0 0 9.73584,6.34432 10.756921,11.023496 0 0 0 5.19813,-1.37925 10.756921,11.023496 0 0 0 8.81755,4.71599 10.756921,11.023496 0 0 0 9.29504,-5.4777 10.756921,11.023496 0 0 0 8.72505,4.58784 10.756921,11.023496 0 0 0 10.72854,-10.24951 10.756921,11.023496 0 0 0 3.06442,0.46096 10.756921,11.023496 0 0 0 10.756962,-11.02362 10.756921,11.023496 0 0 0 -4.754752,-9.14673 8.0872936,7.0190544 0 0 0 3.864883,-5.98103 8.0872936,7.0190544 0 0 0 -3.400823,-5.71955 8.0872936,8.6875715 0 0 0 6.070428,-8.40723 8.0872936,8.6875715 0 0 0 -7.904428,-8.68526 6.5300112,5.795475 0 0 0 3.45509,-5.1077 6.5300112,5.795475 0 0 0 -5.88957,-5.767613 6.5300112,6.3516474 0 0 0 1.2175,-3.687113 6.5300112,6.3516474 0 0 0 -6.52983,-6.352067 6.5300112,6.3516474 0 0 0 -5.56711,3.039607 7.0861835,7.4527106 0 0 0 -3.22047,-0.814937 7.0861835,7.4527106 0 0 0 -5.89421,3.320211 7.0861835,7.4527106 0 0 0 -5.8968,-3.320211 7.0861835,7.4527106 0 0 0 -5.43585,2.678389 7.0861835,7.4527106 0 0 0 -6.57737,-4.680334 7.0861835,7.4527106 0 0 0 -5.20434,2.395203 7.0861835,7.4527106 0 0 0 -6.36395,-4.174939 z" /><path
         id="path13725"
         style="opacity:1;fill:#d0caab;fill-opacity:1;stroke:none;stroke-width:0;stroke-linecap:round;stroke-linejoin:round;stroke-dasharray:none;paint-order:markers stroke fill"
         d="m 39.668397,88.269009 c -2.598707,1.61e-4 -4.968864,1.565565 -6.10261,4.030556 -1.182587,-0.952913 -2.629704,-1.469268 -4.11821,-1.469444 -3.74598,-1.11e-4 -6.782743,3.201051 -6.78271,7.1499 0.0014,1.008012 0.20507,2.004309 0.59751,2.923519 -2.532172,0.30831 -4.428736,2.34593 -4.43032,4.75982 0.0011,1.42203 0.66882,2.77046 1.82318,3.68204 -2.688066,0.65025 -4.591301,3.1493 -4.59156,6.02897 3.3e-5,2.21202 1.131232,4.25588 2.96723,5.3612 -3.927055,1.21753 -6.584787,4.69495 -6.58685,8.61834 0.002,3.30023 1.891151,6.33902 4.93284,7.93471 -0.988028,1.21482 -1.524602,2.70622 -1.52591,4.24125 0.0016,3.09253 2.155433,5.81169 5.28354,6.67048 -1.206959,1.27428 -1.875324,2.92734 -1.87659,4.64134 5.4e-5,3.83684 3.275049,6.94717 7.31492,6.94714 1.935476,-0.002 3.791256,-0.73231 5.16086,-2.03115 1.694646,3.71299 5.326277,6.085 9.31863,6.08649 1.740692,-0.002 3.452482,-0.45722 4.97538,-1.3232 1.924758,2.83369 5.075817,4.52291 8.43968,4.52434 3.664764,-5.1e-4 7.053029,-2.00188 8.89673,-5.25509 1.932861,2.76095 5.040399,4.39875 8.35116,4.4014 5.405089,-9.5e-4 9.889278,-4.29483 10.26878,-9.83298 0.951812,0.29197 1.93975,0.44093 2.9331,0.44223 5.686363,3e-5 8.278035,-3.77983 8.277969,-8.67674 -3.56e-4,-3.52077 -1.890808,-8.08015 -4.7353,-10.04467 2.296279,-1.22285 5.89952,-4.02505 5.901591,-6.3672 -3.04e-4,-2.17951 -1.213207,-4.22411 -3.25508,-5.48711 3.41812,-0.94777 5.807911,-4.26517 5.810285,-8.06557 -4.7e-5,-4.52956 -3.359926,-8.22987 -7.565705,-8.33229 2.033947,-0.96577 3.305038,-2.84919 3.30703,-4.90014 3.9e-5,-2.85951 -2.438179,-5.25276 -5.63718,-5.533213 0.756651,-1.032079 1.164035,-2.268662 1.16533,-3.53727 2.28e-4,-3.365451 -2.798036,-6.093831 -6.25001,-6.093923 -2.175714,0.0016 -4.194033,1.106109 -5.32855,2.916079 -0.954467,-0.513651 -2.010811,-0.781577 -3.08246,-0.781818 -2.26739,9.51e-4 -4.384361,1.196201 -5.64162,3.185279 -1.257748,-1.989852 -3.375838,-3.185205 -5.64411,-3.185279 -2.009789,0.0016 -3.915408,0.942723 -5.20291,2.569541 -1.03106,-2.712118 -3.523813,-4.490017 -6.29551,-4.490128 -1.891774,1.21e-4 -3.697537,0.833111 -4.98132,2.297862 -1.138751,-2.451263 -3.502038,-4.005235 -6.09123,-4.005271 z"
         sodipodi:nodetypes="ccccccccccccccccccccccccccccccccccccccccc" /><path
         style="opacity:1;fill:#000000;fill-opacity:1;stroke:none;stroke-width:0.264583px;stroke-linecap:butt;stroke-linejoin:miter;stroke-opacity:1"
         d="m 33.448563,66.157715 c -3.70805,2.008976 -6.92251,4.304562 -12.19147,3.38215 -4.27418,-0.74826 -13.0929496,-5.181223 -18.7984596,-6.135063 4.75556,-6.69563 11.4835796,-12.82071 15.4163096,-13.607258 3.93274,-0.786546 14.62977,1.179821 14.62977,1.179821 4.46679,5.293941 5.58581,4.338478 6.29237,10.932999 0,0 -3.25886,3.1152 -5.34852,4.247351 z"
         id="path9446"
         sodipodi:nodetypes="sscsccs" /><path
         style="opacity:1;fill:#ffffc9;fill-opacity:1;stroke:none;stroke-width:0.22923px;stroke-linecap:butt;stroke-linejoin:miter;stroke-opacity:1"
         d="m 31.679343,65.145834 c -3.29872,1.695114 -6.15834,3.632058 -10.84566,2.853755 C 17.031333,67.36823 9.1860634,63.627833 4.1103834,62.823011 8.3409834,57.173444 14.326293,52.005288 17.824893,51.341623 c 3.49861,-0.663663 13.0148,0.995497 13.0148,0.995497 3.97369,4.466865 4.96919,3.660676 5.59775,9.22493 0,0 -2.89912,2.62851 -4.7581,3.583784 z"
         id="path9448"
         sodipodi:nodetypes="sscsccs" /><path
         style="opacity:1;fill:#000000;fill-opacity:1;stroke:none;stroke-width:0.264583px;stroke-linecap:butt;stroke-linejoin:miter;stroke-opacity:1"
         d="m 76.073601,63.964181 c 2.77527,2.507022 7.35773,5.590429 11.73524,6.062279 5.57412,0.600833 12.903199,-5.561725 21.468259,-6.67407 0,0 -7.91277,-10.117024 -12.736353,-12.180177 -4.823586,-2.063153 -8.231346,-1.668516 -17.074496,2.502777 -8.68347,4.095973 -6.16832,7.781817 -3.39265,10.289191 z"
         id="path7043"
         sodipodi:nodetypes="ssczss" /><path
         style="opacity:1;fill:#ffffc9;fill-opacity:1;stroke:none;stroke-width:0.237493px;stroke-linecap:butt;stroke-linejoin:miter;stroke-opacity:1"
         d="m 78.447631,63.686951 c 2.46062,2.278219 6.3567,4.245959 10.2379,4.674746 4.94215,0.545998 11.662769,-4.331109 19.256759,-5.341936 0,0 -7.07128,-8.804372 -11.347986,-10.679231 -4.276713,-1.87486 -7.520573,-2.072411 -15.694833,1.940658 -7.67634,3.76862 -4.91282,7.127225 -2.45184,9.405763 z"
         id="path7771"
         sodipodi:nodetypes="ssczss" /><path
         id="path8457"
         style="fill:#ead398;fill-opacity:1;stroke:none;stroke-width:0.264583px;stroke-linecap:butt;stroke-linejoin:miter;stroke-opacity:1"
         d="m 91.075061,51.055282 c -2.539331,0.04369 -5.57759,0.96881 -10.175606,3.226159 -7.676333,3.768616 -4.913024,7.127092 -2.452047,9.405628 2.308571,2.137441 5.8809,4.00117 9.518799,4.577498 -0.349466,-0.301209 -0.660045,-0.580755 -0.913123,-0.829407 -1.291258,-1.268676 -2.809895,-3.78681 -1.779736,-5.364013 2.756187,-4.219801 15.054382,-1.407666 15.054382,-1.407666 l 4.28656,0.49661 c 0,0 -2.90309,-4.144815 -7.08846,-7.205762 -1.608026,-1.17602 -3.118469,-2.072464 -4.526339,-2.756937 -0.619985,-0.102881 -1.254517,-0.153637 -1.92443,-0.14211 z" /><path
         id="path9450"
         style="opacity:1;fill:#ead399;fill-opacity:1;stroke:none;stroke-width:0.264583px;stroke-linecap:butt;stroke-linejoin:miter;stroke-opacity:1"
         d="m 24.220253,53.808348 c -7.17429,0.0946 -15.6966096,6.84351 -15.1546296,6.84351 0.55058,0 15.5610296,-4.412018 18.4836296,1.022677 1.10452,2.053898 0.0281,4.091107 -1.70222,6.112288 2.10008,-0.562218 3.89024,-1.643269 5.8322,-2.641182 1.85898,-0.955273 4.75836,-3.583761 4.75836,-3.583761 -0.41493,-3.673152 -0.99609,-4.573607 -2.48202,-6.044075 -3.05521,-0.882695 -6.525,-1.660623 -9.39477,-1.70894 -0.11316,-0.0019 -0.22667,-0.002 -0.34055,-5.17e-4 z" /><path
         id="path19325"
         style="opacity:1;fill:#ffffff;fill-opacity:1;stroke:none;stroke-width:0;stroke-linecap:round;stroke-linejoin:round;stroke-dasharray:none;paint-order:markers stroke fill"
         d="m 29.447815,90.830115 c -3.745976,-1.11e-4 -6.783082,3.201106 -6.783049,7.149951 0.0014,1.008011 0.20494,2.004127 0.59738,2.923334 -2.532169,0.30831 -4.428637,2.34603 -4.430221,4.75992 0.0011,1.42203 0.668786,2.77036 1.823145,3.68194 -2.688063,0.65025 -4.591192,3.14943 -4.591451,6.02909 3.3e-5,2.21202 1.131265,4.25611 2.967261,5.36143 -3.927051,1.21753 -6.584615,4.6947 -6.586678,8.61808 0.002,3.30023 1.890829,6.33923 4.932515,7.93492 -0.988027,1.21482 -1.52418,2.70605 -1.525488,4.24108 0.0016,3.09253 2.155294,5.81161 5.283398,6.6704 -1.057802,1.1168 -1.701988,2.52484 -1.845882,4.00957 1.376984,1.12299 3.281723,1.79533 5.330424,1.79576 2.513331,-7e-4 4.857855,-1.01219 6.239413,-2.69183 0.896391,2.73283 3.421246,4.57791 6.2668,4.57957 3.648772,-9e-5 6.606687,-2.99318 6.606832,-6.68538 -1.61e-4,-3.03182 -2.016445,-5.684 -4.912361,-6.46162 0,0 1.778363,-6.8355 0.665075,-9.97717 -0.944849,-2.66635 -5.77019,-6.22288 -5.77019,-6.22288 0.390707,-0.2783 0.724949,-0.6492 0.980302,-1.08779 0.96213,1.02866 2.582495,1.64686 4.318083,1.64745 2.337588,-8.9e-4 4.386015,-1.11428 5.003828,-2.71973 0.698528,0.82081 1.785912,1.30305 2.939873,1.30379 1.150658,-7.3e-4 2.235323,-0.48021 2.934188,-1.29708 0.626765,0.72322 1.536367,1.1391 2.493387,1.13999 0.962264,-8.9e-4 1.876318,-0.42132 2.503207,-1.15135 0.791806,1.00518 2.232244,1.62226 3.788916,1.62315 0.91592,-6.4e-4 1.808801,-0.21542 2.554366,-0.61443 0.803592,0.96885 2.21692,1.5581 3.738273,1.55856 1.644645,-7.5e-4 3.151743,-0.68864 3.908289,-1.78387 0.681337,1.57136 2.469582,2.6883 4.578531,2.85977 -0.506936,0.84001 -0.778521,1.83625 -0.778763,2.85668 -4e-6,1.27076 0.420523,2.4945 1.177189,3.42563 -1.743912,0.66389 -2.906443,2.40737 -2.907833,4.36097 0.0011,0.99834 0.307705,1.9697 0.874365,2.76986 -1.141566,0.63599 -1.817457,1.65329 -1.817977,2.73627 0.0012,1.47728 1.250878,2.78306 3.086634,3.22512 -0.06486,0.23252 -0.09759,0.46965 -0.09767,0.70745 -5e-5,1.86786 1.971828,3.38211 4.404382,3.38222 0.978285,-6.6e-4 1.928449,-0.25138 2.700611,-0.71261 1.114748,0.57068 2.344661,0.86847 3.592029,0.86971 4.430763,0 8.022644,-3.66222 8.022766,-8.17986 -1.78e-4,-0.56211 -0.05921,-1.12222 -0.172083,-1.67225 -0.797753,-1.52752 -1.848999,-2.86438 -3.079915,-3.7145 2.296277,-1.22285 5.899894,-4.02491 5.901965,-6.36706 -3.04e-4,-2.1795 -1.213227,-4.224 -3.255098,-5.487 3.418116,-0.94777 5.807607,-4.26526 5.809981,-8.06566 -4.7e-5,-4.52955 -3.359655,-8.22989 -7.56543,-8.33231 2.033945,-0.96576 3.304783,-2.84952 3.306775,-4.90047 3.9e-5,-2.85951 -2.437867,-5.252544 -5.636865,-5.532997 0.75665,-1.032078 1.164008,-2.268645 1.165303,-3.537252 3e-5,-0.428782 -0.0459,-0.847312 -0.132291,-1.251086 -0.539089,-0.0057 -1.090611,0.04383 -1.646928,0.153479 -3.368165,0.665767 -6.165063,3.347421 -6.885368,6.601666 -0.84343,-0.48426 -1.794031,-0.59136 -2.742985,-0.30903 -1.645698,0.49173 -3.125137,2.10344 -3.965133,4.31964 -1.887034,-0.92435 -4.244537,-1.23032 -6.617684,-0.85887 -2.720416,0.42888 -5.221545,1.70978 -6.88175,3.52434 -2.254507,-1.76562 -5.70235,-2.79665 -9.352401,-2.79673 -3.146931,0.002 -6.164532,0.77039 -8.391736,2.13785 -0.09845,-0.30071 -0.215291,-0.59754 -0.349849,-0.88883 -1.152868,-2.49603 -3.506376,-4.38033 -6.192387,-4.95784 1.828336,-1.966657 2.082729,-4.680304 0.67076,-7.155118 -0.500107,-0.876426 -1.183818,-1.667347 -1.992126,-2.355929 -0.04751,0.09265 -0.09669,0.184188 -0.14056,0.279569 -1.182586,-0.952912 -2.629591,-1.469501 -4.118094,-1.469677 z" /><path
         style="opacity:1;fill:#000000;fill-opacity:1;stroke:none;stroke-width:0;stroke-linecap:butt;stroke-linejoin:miter;stroke-dasharray:none;stroke-opacity:1"
         d="m 35.079985,55.215571 c 0,0 -3.93273,23.911017 -4.87659,35.079979 0,0 1.98776,13.10275 15.10169,14.00053 12.10998,0.82905 22.33793,0.15731 22.33793,0.15731 0,0 10.91721,0.4331 14.78707,-15.573625 0.62291,-3.628206 -4.81933,-33.583222 -4.81933,-33.583222 z"
         id="path4112"
         sodipodi:nodetypes="ccscccc" /><path
         id="path9455"
         style="opacity:1;fill:#000000;fill-opacity:1;stroke:none;stroke-width:0.264583px;stroke-linecap:butt;stroke-linejoin:miter;stroke-opacity:1"
         d="m 24.154623,54.668244 c -0.17522,-0.0011 -0.34766,1.42e-4 -0.51728,0.0036 -5.54654,0.113641 -13.62604,5.506124 -13.62604,5.506124 0,0 9.84477,-4.156798 15.57269,-3.504179 2.46419,0.280761 7.16007,1.873382 10.60504,3.134176 -0.33828,-1.8741 -0.81586,-2.761806 -1.65778,-3.692281 -2.81284,-0.624138 -7.06322,-1.427542 -10.37663,-1.447457 z" /><path
         style="opacity:1;fill:#ffffc9;fill-opacity:1;stroke:none;stroke-width:0;stroke-linecap:butt;stroke-linejoin:miter;stroke-dasharray:none;stroke-opacity:1"
         d="m 35.826715,55.750343 c 0,0 -4.13739,21.758816 -3.98008,33.318472 0,0 1.86268,12.444805 14.15138,13.297505 11.34794,0.78743 20.93227,0.14941 20.93227,0.14941 0,0 11.08254,-0.27175 13.85656,-14.791607 0.7762,-9.303116 -4.51606,-31.896874 -4.51606,-31.896874 z"
         id="path4114"
         sodipodi:nodetypes="ccscccc" /><path
         id="path6395"
         style="opacity:1;fill:#ead39a;fill-opacity:1;stroke-width:0;stroke-linecap:round;stroke-linejoin:round;paint-order:markers stroke fill"
         d="m 35.826754,55.750085 c 0,0 -0.602927,3.176182 -1.338937,7.734412 a 9.1239405,8.1014299 0 0 0 2.211235,0.251664 9.1239405,8.1014299 0 0 0 2.32854,-0.274402 9.1239405,8.1014299 0 0 0 8.683191,5.622913 9.1239405,8.1014299 0 0 0 7.080705,-2.9962 9.4385595,8.3373938 0 0 0 7.391797,3.153296 9.4385595,8.3373938 0 0 0 8.887312,-5.547465 9.28125,8.2587395 0 0 0 5.742285,1.771985 9.28125,8.2587395 0 0 0 1.458826,-0.114721 c -1.04135,-5.418224 -2.000911,-9.524484 -2.000911,-9.524484 z" /><path
         id="path354"
         style="opacity:1;fill:#000000;fill-opacity:1;stroke-width:0;stroke-linecap:round;stroke-linejoin:round;paint-order:markers stroke fill"
         d="m 57.260417,23.188897 a 11.168962,9.7208509 0 0 0 -10.86187,7.470345 9.1239405,8.1014299 0 0 0 -6.75669,-2.658236 9.1239405,8.1014299 0 0 0 -9.12399,8.101314 9.1239405,8.1014299 0 0 0 0.02377,0.552938 9.1239405,8.1014299 0 0 0 -0.18087,-0.0021 9.1239405,8.1014299 0 0 0 -9.12399,8.101314 9.1239405,8.1014299 0 0 0 6.52519,7.763351 9.1239405,8.1014299 0 0 0 9.04854,7.102409 9.1239405,8.1014299 0 0 0 2.32854,-0.274402 9.1239405,8.1014299 0 0 0 8.68319,5.622912 9.1239405,8.1014299 0 0 0 7.0807,-2.996199 9.4385595,8.3373938 0 0 0 7.3918,3.153296 9.4385595,8.3373938 0 0 0 8.88731,-5.547465 9.28125,8.2587395 0 0 0 5.74229,1.771984 9.28125,8.2587395 0 0 0 9.28109,-8.25841 9.28125,8.2587395 0 0 0 -0.73278,-3.216341 8.416048,7.7868114 0 0 0 5.13768,-7.165971 8.416048,7.7868114 0 0 0 -7.47655,-7.738029 8.416048,8.1014299 0 0 0 -8.33334,-6.970634 8.416048,8.1014299 0 0 0 -6.5779,3.048393 11.168962,9.7208509 0 0 0 -10.96212,-7.860502 z" /><path
         style="fill:#000000;fill-opacity:1;stroke:none;stroke-width:0.264583px;stroke-linecap:butt;stroke-linejoin:miter;stroke-opacity:1"
         d="m 85.26707,56.533349 c 6.878401,0.02676 11.998514,1.511283 18.30284,4.057264 0,0 -12.928448,-9.535737 -21.844898,-4.701775 -12.434,6.740969 1.739541,0.637498 3.542058,0.644511 z"
         id="path8693"
         sodipodi:nodetypes="scss" /><path
         id="path1034"
         style="opacity:1;fill:#e3dcb9;fill-opacity:1;stroke-width:0;stroke-linecap:round;stroke-linejoin:round;paint-order:markers stroke fill"
         d="m 57.104394,25.890145 a 10.635308,8.6048192 0 0 0 -10.342884,6.612689 8.6879976,7.1713207 0 0 0 -6.433857,-2.353049 8.6879976,7.1713207 0 0 0 -8.688043,7.171218 8.6879976,7.1713207 0 0 0 0.02267,0.489457 8.6879976,7.1713207 0 0 0 -0.17222,-0.0018 8.6879976,7.1713207 0 0 0 -8.688043,7.171218 8.6879976,7.1713207 0 0 0 6.213425,6.872056 8.6879976,7.1713207 0 0 0 8.616188,6.286995 8.6879976,7.1713207 0 0 0 2.217288,-0.242899 8.6879976,7.1713207 0 0 0 8.268294,4.977357 8.6879976,7.1713207 0 0 0 6.74239,-2.65221 8.9875842,7.3801941 0 0 0 7.038617,2.791271 8.9875842,7.3801941 0 0 0 8.46267,-4.910571 8.8377909,7.3105699 0 0 0 5.467927,1.568546 8.8377909,7.3105699 0 0 0 8.837642,-7.310278 8.8377909,7.3105699 0 0 0 -0.697771,-2.84708 8.0139284,6.892823 0 0 0 4.892203,-6.343259 8.0139284,6.892823 0 0 0 -7.119322,-6.849643 8.0139284,7.1713207 0 0 0 -7.935159,-6.170348 8.0139284,7.1713207 0 0 0 -6.263617,2.698413 10.635308,8.6048192 0 0 0 -10.43835,-6.958054 z" /><path
         id="path3176"
         style="opacity:1;fill:#ffffff;fill-opacity:1;stroke-width:0;stroke-linecap:round;stroke-linejoin:round;paint-order:markers stroke fill"
         d="m 57.104525,25.889893 a 10.635308,8.6048192 0 0 0 -10.343038,6.613033 8.6879976,7.1713207 0 0 0 -6.433716,-2.353345 8.6879976,7.1713207 0 0 0 -8.688359,7.171655 8.6879976,7.1713207 0 0 0 0.02274,0.489376 8.6879976,7.1713207 0 0 0 -0.172082,-0.0021 8.6879976,7.1713207 0 0 0 -8.193816,4.833297 8.6838388,6.7041613 0 0 0 5.73195,4.274157 8.6838388,6.7041613 0 0 0 8.611878,5.877161 8.6838388,6.7041613 0 0 0 2.216402,-0.22686 8.6838388,6.7041613 0 0 0 8.264612,4.652946 8.6838388,6.7041613 0 0 0 6.739123,-2.479435 8.983282,6.8994281 0 0 0 7.03523,2.60966 8.983282,6.8994281 0 0 0 8.458398,-4.590934 8.8335603,6.8343393 0 0 0 5.4653,1.466577 8.8335603,6.8343393 0 0 0 8.260994,-4.445724 8.8377909,7.3105699 0 0 0 -0.111621,-0.266133 8.0139284,6.892823 0 0 0 0.28112,-0.12144 8.8335603,6.8343393 0 0 0 0.403076,-2.000911 8.8335603,6.8343393 0 0 0 -0.697632,-2.661853 8.0100924,6.4438057 0 0 0 4.436939,-3.838009 8.0139284,6.892823 0 0 0 -6.65024,-4.57078 8.0139284,7.1713207 0 0 0 -7.935433,-6.170683 8.0139284,7.1713207 0 0 0 -6.263701,2.698543 10.635308,8.6048192 0 0 0 -10.438122,-6.957715 z" /><path
         id="path4327"
         style="fill:#ead39a;fill-opacity:1;stroke:none;stroke-width:0.264583px;stroke-linecap:butt;stroke-linejoin:miter;stroke-opacity:1"
         d="m 80.779049,87.761568 c -1.654518,0.887869 -3.223896,1.716035 -4.472079,2.338359 -6.964207,3.472239 -16.796795,5.402452 -25.361759,4.672066 -5.341049,-0.455463 -12.881534,-3.225272 -19.099093,-5.886462 5.84e-4,0.0601 -2.94e-4,0.123888 5.17e-4,0.183451 0,0 1.862903,12.444678 14.151591,13.297378 11.347929,0.78743 20.932056,0.14935 20.932056,0.14935 0,0 11.062756,-0.27162 13.848767,-14.754142 z" /><ellipse
         style="opacity:1;fill:#000000;fill-opacity:1;stroke:none;stroke-width:0;stroke-linecap:round;stroke-linejoin:round;stroke-dasharray:none;paint-order:markers stroke fill"
         id="path5569"
         cx="63.764324"
         cy="65.604614"
         rx="8.3120213"
         ry="7.9283891" /><ellipse
         style="opacity:1;fill:#ffffff;fill-opacity:1;stroke:none;stroke-width:0;stroke-linecap:round;stroke-linejoin:round;stroke-dasharray:none;paint-order:markers stroke fill"
         id="ellipse5571"
         cx="63.842983"
         cy="65.855095"
         rx="6.584156"
         ry="6.8913579" /><ellipse
         style="opacity:1;fill:#000000;fill-opacity:1;stroke:none;stroke-width:0;stroke-linecap:round;stroke-linejoin:round;stroke-dasharray:none;paint-order:markers stroke fill"
         id="ellipse5573"
         cx="64.472206"
         cy="65.383163"
         rx="3.5782199"
         ry="3.5878623" /><circle
         style="opacity:1;fill:#000000;fill-opacity:1;stroke:none;stroke-width:0;stroke-linecap:round;stroke-linejoin:round;stroke-dasharray:none;paint-order:markers stroke fill"
         id="path5642"
         cx="69.410324"
         cy="91.657227"
         r="2.4471586" /><circle
         style="opacity:1;fill:#000000;fill-opacity:1;stroke:none;stroke-width:0;stroke-linecap:round;stroke-linejoin:round;stroke-dasharray:none;paint-order:markers stroke fill"
         id="circle5644"
         cx="44.048862"
         cy="91.434761"
         r="2.4471586" /><ellipse
         style="opacity:1;fill:#040000;fill-opacity:1;stroke:none;stroke-width:0;stroke-linecap:round;stroke-linejoin:round;stroke-dasharray:none;paint-order:markers stroke fill"
         id="path6389"
         cx="49.369041"
         cy="63.330597"
         rx="10.122337"
         ry="10.122338" /><ellipse
         style="opacity:1;fill:#ffffff;fill-opacity:1;stroke:none;stroke-width:0;stroke-linecap:round;stroke-linejoin:round;stroke-dasharray:none;paint-order:markers stroke fill"
         id="ellipse6391"
         cx="49.813988"
         cy="63.553062"
         rx="8.7875242"
         ry="8.7875252" /><ellipse
         style="opacity:1;fill:#000000;fill-opacity:1;stroke:none;stroke-width:0;stroke-linecap:round;stroke-linejoin:round;stroke-dasharray:none;paint-order:markers stroke fill"
         id="ellipse6393"
         cx="49.591515"
         cy="63.330601"
         rx="4.5606141"
         ry="4.7830834" /><path
         id="path20131"
         style="opacity:1;fill:#ffffff;fill-opacity:1;stroke:none;stroke-width:0;stroke-linecap:round;stroke-linejoin:round;stroke-dasharray:none;paint-order:markers stroke fill"
         d="m 57.831173,131.82507 a 3.4022677,3.696769 0 0 0 -2.37298,1.0511 2.578125,2.752913 0 0 0 -1.75442,-0.73639 2.578125,2.752913 0 0 0 -2.57813,2.7528 2.578125,2.752913 0 0 0 1.30379,2.39314 4.7804556,5.8990993 0 0 0 -2.24792,5.00072 4.7804556,5.8990993 0 0 0 1.39784,4.16771 3.8365996,4.1686969 0 0 0 -1.24023,3.06854 3.8365996,4.1686969 0 0 0 3.83646,4.16874 3.8365996,4.1686969 0 0 0 0.53847,-0.0429 4.2709317,4.640625 0 0 0 3.3569,1.77302 4.2709317,4.640625 0 0 0 4.27054,-4.64054 4.2709317,4.640625 0 0 0 -0.09044,-0.94827 4.2709317,4.640625 0 0 0 2.92231,-4.40024 4.2709317,4.640625 0 0 0 -0.56018,-2.29599 4.2709317,4.640625 0 0 0 1.18908,-3.20962 4.2709317,4.640625 0 0 0 -4.27054,-4.64106 4.2709317,4.640625 0 0 0 -0.30438,0.0124 3.4022677,3.696769 0 0 0 -3.39617,-3.47317 z" /><path
         id="path21822"
         style="fill:#eeeebb;fill-opacity:1;stroke:none;stroke-width:0.264583px;stroke-linecap:butt;stroke-linejoin:miter;stroke-opacity:1"
         d="m 121.90832,145.55236 c -0.80517,0.0494 -1.30503,0.90943 -1.38751,2.84737 -1.78624,1.21015 -8.63095,0.83379 -12.87053,0.17466 -2.52054,-0.39187 -5.94076,-1.45245 -9.113659,-2.57038 0.793235,1.97193 1.985369,3.79949 3.749129,4.28346 4.62712,1.26965 17.03804,2.41133 19.6081,1.73994 1.9214,-0.50194 3.32037,-2.05872 4.44056,-3.55275 -0.61884,-0.44817 -1.18059,-0.89683 -1.65882,-1.34307 -1.10897,-1.03483 -2.05682,-1.62278 -2.76727,-1.57923 z" /><path
         style="opacity:1;fill:#000000;fill-opacity:1;stroke:none;stroke-width:0.264583px;stroke-linecap:butt;stroke-linejoin:miter;stroke-opacity:1"
         d="m 136.00408,128.06781 c -11.86956,-1.04389 -17.83443,8.43841 -16.75345,16.28152 0.85756,6.22202 11.9112,12.78975 20.29803,11.35186 1.46522,-9.18538 0.78142,-14.69469 -0.47705,-24.40854 0,0 -0.82588,-1.14049 -2.20233,-1.02251 0.0787,-1.17982 -0.18615,-2.14261 -0.8652,-2.20233 z"
         id="path23521"
         sodipodi:nodetypes="sscccs" /><path
         style="opacity:1;fill:#753b14;fill-opacity:1;stroke:none;stroke-width:0.234446px;stroke-linecap:butt;stroke-linejoin:miter;stroke-opacity:1"
         d="m 135.21147,129.4221 c -10.42626,-0.93308 -15.66582,7.54273 -14.71628,14.55335 0.75328,5.56159 10.46283,11.4322 17.82985,10.14694 1.28706,-8.21042 0.68641,-13.13495 -0.41904,-21.81774 0,0 -0.72545,-1.01943 -1.93453,-0.91398 0.0691,-1.05459 -0.16352,-1.91518 -0.76,-1.96857 z"
         id="path23523"
         sodipodi:nodetypes="sscccs" /><path
         id="path23525"
         style="opacity:1;fill:#401e08;fill-opacity:1;stroke:none;stroke-width:0.264583px;stroke-linecap:butt;stroke-linejoin:miter;stroke-opacity:1"
         d="m 139.03635,144.16522 c -2.19608,2.54375 -4.64328,4.61408 -6.84971,4.73666 -4.95346,0.2752 -8.55766,-1.1479 -11.16573,-3.1626 2.25297,4.95814 10.71539,9.53248 17.30438,8.38295 0.59378,-3.78787 0.78506,-6.8762 0.71106,-9.95701 z" /><path
         id="path23530"
         style="opacity:1;fill:#000000;fill-opacity:1;stroke:none;stroke-width:0.264583px;stroke-linecap:butt;stroke-linejoin:miter;stroke-opacity:1"
         d="m 136.86491,129.46792 c -1.99667,0.25036 -4.79697,0.73005 -6.5009,1.58285 -2.66328,1.33297 -5.83896,4.0903 -5.84563,6.75721 1.95846,-2.99036 4.62303,-4.86647 7.79435,-5.75158 1.78187,-0.49284 4.95052,-0.82883 6.57118,-0.97772 -0.3161,-0.32394 -1.02091,-0.89393 -2.01487,-0.80874 0.0189,-0.28334 0.0176,-0.55321 -0.004,-0.80202 z" /><path
         style="fill:#000000;fill-opacity:1;stroke:none;stroke-width:0.264583px;stroke-linecap:butt;stroke-linejoin:miter;stroke-opacity:1"
         d="m 119.73786,148.18338 c 2.02148,3.22888 4.15932,4.38767 5.52527,5.3434 -3.02233,-3.4668 -3.93231,-6.06697 -4.4919,-5.91008 -0.64282,0.18023 -1.03337,0.56668 -1.03337,0.56668 z"
         id="path26916"
         sodipodi:nodetypes="ccsc" /><path
         style="fill:#000000;fill-opacity:1;stroke:none;stroke-width:0.264583px;stroke-linecap:butt;stroke-linejoin:miter;stroke-opacity:1"
         d="m 60.087907,129.15523 c -0.43999,9.80559 0.75242,24.93297 -1.82545,40.31133 0.31428,1.19427 3.29827,2.44584 5.20335,2.35695 6.92663,-0.32319 7.23862,-6.26375 7.23862,-6.26375 0,0 0.59944,-4.34799 -1.48219,-8.78693 -2.24388,-4.78493 -0.51059,-11.19003 0.30165,-13.66567 1.74605,-5.32181 3.21722,-9.89863 3.72007,-13.41858 -2.51425,-1.19427 -3.96333,1.20135 -6.89678,0.84578 -2.93344,-0.35557 -2.29932,-2.82483 -6.25927,-1.37913 z"
         id="path29928"
         sodipodi:nodetypes="ccscsscsc" /><path
         style="fill:#f3f3c0;fill-opacity:1;stroke:none;stroke-width:0.230087px;stroke-linecap:butt;stroke-linejoin:miter;stroke-opacity:1"
         d="m 61.771567,129.8296 c -0.34585,9.43399 -0.22572,23.98812 -2.25198,38.7837 0.42736,1.5071 2.59252,2.35316 4.08995,2.26763 5.44451,-0.31094 5.68974,-6.02638 5.68974,-6.02638 0,0 0.47118,-4.18322 -1.16504,-8.45394 -1.76374,-4.60361 -0.40134,-10.76597 0.23711,-13.1478 1.37243,-5.12014 3.22023,-9.64922 3.61548,-13.03579 -1.97626,-1.14901 -3.80669,1.28154 -6.11246,0.93944 -2.30575,-0.3421 -0.99019,-2.71778 -4.1028,-1.32686 z"
         id="path29930"
         sodipodi:nodetypes="ccscsscsc" /><path
         id="path31526"
         style="fill:#e0cc9c;fill-opacity:1;stroke:none;stroke-width:0.264583px;stroke-linecap:butt;stroke-linejoin:miter;stroke-opacity:1"
         d="m 63.262867,129.39702 c -0.34135,0.005 -0.8105,0.12827 -1.49138,0.43254 -0.0066,0.17903 -0.01184,0.37231 -0.01809,0.555 0.68676,0.29097 1.38416,0.61765 1.80144,0.90382 1.03893,0.71248 2.8222,-0.20519 3.91088,0.53382 1.09776,0.74516 2.53314,1.87981 1.95595,3.46645 -1.50925,4.14883 -3.44711,9.27174 -4.08916,14.13403 -0.40737,3.085 0.17777,8.62265 0.17777,9.33379 0.66923,5.23066 1.17908,6.64769 3.24993,8.40466 0.49206,-1.23806 0.53899,-2.30684 0.53899,-2.30684 0,0 0.47143,-4.18303 -1.16479,-8.45375 -1.76374,-4.6036 -0.40126,-10.76569 0.23719,-13.14751 1.37243,-5.12014 3.22004,-9.64933 3.61529,-13.0359 -1.97626,-1.14901 -3.80652,1.28158 -6.11229,0.93948 -1.80137,-0.26727 -1.39262,-1.77566 -2.61173,-1.75959 z" /><path
         style="fill:#000000;fill-opacity:1;stroke:none;stroke-width:0.217571px;stroke-linecap:butt;stroke-linejoin:miter;stroke-opacity:1"
         d="m 84.939266,169.61644 c 0.858407,-9.76053 -6.939035,-14.66553 -13.388545,-13.77662 -5.116463,0.70518 -10.517208,9.79476 -9.334809,16.69138 7.553279,1.20487 12.08367,0.64257 20.071518,-0.39229 0,0 0.937843,-0.67913 0.840826,-1.81101 0.970184,0.0647 1.761901,-0.15307 1.81101,-0.71146 z"
         id="path34567"
         sodipodi:nodetypes="sscccs" /><path
         style="fill:#753b14;fill-opacity:1;stroke:none;stroke-width:0.192789px;stroke-linecap:butt;stroke-linejoin:miter;stroke-opacity:1"
         d="m 83.825612,168.96466 c 0.767286,-8.57367 -6.202503,-12.88224 -11.967444,-12.10142 -4.573381,0.61943 -9.400874,8.60374 -8.343985,14.66176 6.751555,1.05837 10.801072,0.56444 17.941064,-0.34459 0,0 0.838293,-0.59654 0.75158,-1.59079 0.867205,0.0568 1.574882,-0.13446 1.618785,-0.62496 z"
         id="path34569"
         sodipodi:nodetypes="sscccs" /><path
         id="path34571"
         style="fill:#401e08;fill-opacity:1;stroke:none;stroke-width:0.217571px;stroke-linecap:butt;stroke-linejoin:miter;stroke-opacity:1"
         d="m 71.702118,172.10992 c -2.091765,-1.80587 -3.794229,-3.81824 -3.895029,-5.63262 -0.226301,-4.07331 0.943936,-7.0371 2.600655,-9.18176 -4.077155,1.85266 -7.838705,8.81143 -6.893429,14.22966 3.114824,0.48828 5.654405,0.64557 8.187803,0.58472 z" /><path
         id="path34573"
         style="fill:#000000;fill-opacity:1;stroke:none;stroke-width:0.217571px;stroke-linecap:butt;stroke-linejoin:miter;stroke-opacity:1"
         d="m 83.787934,170.32431 c -0.205875,-1.64189 -0.600332,-3.94462 -1.301602,-5.34579 -1.096122,-2.19006 -3.363517,-4.80147 -5.556558,-4.80695 2.459019,1.61047 4.001773,3.80159 4.729613,6.40941 0.40527,1.46526 0.681559,4.07089 0.803994,5.40358 0.266381,-0.25993 0.735092,-0.83951 0.665039,-1.65685 0.232995,0.0155 0.454913,0.0145 0.659514,-0.003 z" /><path
         style="fill:#000000;fill-opacity:1;stroke:none;stroke-width:0.217571px;stroke-linecap:butt;stroke-linejoin:miter;stroke-opacity:1"
         d="m 68.397923,156.24047 c -2.655158,1.6623 -3.608049,3.42028 -4.39396,4.54352 2.850803,-2.48531 4.988962,-3.2336 4.859949,-3.69376 -0.148205,-0.5286 -0.465989,-0.84976 -0.465989,-0.84976 z"
         id="path34575"
         sodipodi:nodetypes="ccsc" /><path
         style="fill:#000000;fill-opacity:1;stroke:none;stroke-width:0.264583px;stroke-linecap:butt;stroke-linejoin:miter;stroke-opacity:1"
         d="m 47.630493,128.90351 c 0.43999,9.80559 -0.75242,24.93297 1.82545,40.31133 -0.31428,1.19427 -3.29827,2.44584 -5.20335,2.35695 -6.92663,-0.32319 -7.23862,-6.26375 -7.23862,-6.26375 0,0 -0.59944,-4.34799 1.48219,-8.78693 2.24388,-4.78493 0.51059,-11.19003 -0.30165,-13.66567 -1.74605,-5.32181 -3.21722,-9.89863 -3.72007,-13.41858 2.51425,-1.19427 3.96333,1.20135 6.89678,0.84578 2.93344,-0.35557 2.29932,-2.82483 6.25927,-1.37913 z"
         id="path35394"
         sodipodi:nodetypes="ccscsscsc" /><path
         style="fill:#f3f3c0;fill-opacity:1;stroke:none;stroke-width:0.230087px;stroke-linecap:butt;stroke-linejoin:miter;stroke-opacity:1"
         d="m 45.946833,129.57788 c 0.34585,9.43399 0.22572,23.98812 2.25198,38.7837 -0.42736,1.5071 -2.59252,2.35316 -4.08995,2.26763 -5.44451,-0.31094 -5.68974,-6.02638 -5.68974,-6.02638 0,0 -0.47118,-4.18322 1.16504,-8.45394 1.76374,-4.60361 0.40134,-10.76597 -0.23711,-13.1478 -1.37243,-5.12014 -3.22023,-9.64922 -3.61548,-13.03579 1.97626,-1.14901 3.80669,1.28154 6.11246,0.93944 2.30575,-0.3421 0.99019,-2.71778 4.1028,-1.32686 z"
         id="path35396"
         sodipodi:nodetypes="ccscsscsc" /><path
         id="path35540"
         style="fill:#e0cc9c;fill-opacity:1;stroke:none;stroke-width:0.264583px;stroke-linecap:butt;stroke-linejoin:miter;stroke-opacity:1"
         d="m 44.455684,129.14509 c -1.219112,-0.0161 -0.810361,1.49232 -2.611726,1.75958 -2.305768,0.3421 -4.136031,-2.08849 -6.112289,-0.93948 0.0944,0.80884 0.273097,1.68472 0.506946,2.61638 0.756138,0.24826 1.28812,0.17441 2.904732,-0.0486 3.650009,-0.50345 5.537587,-3.39818 5.789311,0.62941 0.251725,4.0276 -1.015722,10.35063 -0.628902,12.83798 1.009052,6.48848 0.317851,11.02352 0.881083,17.36897 -0.116323,2.75673 -3.373422,3.33706 -5.422925,5.01209 0.83158,1.13856 2.174609,2.12386 4.347022,2.24793 1.497428,0.0855 3.662313,-0.76047 4.089672,-2.26756 -2.026258,-14.79557 -1.905692,-29.3497 -2.251542,-38.78368 -0.680883,-0.30427 -1.15003,-0.42855 -1.491382,-0.43305 z" /><g
         id="g34594"
         transform="matrix(0,0.8223154,0.8223154,0,-142.53876,73.46525)"><path
           style="opacity:1;fill:#000000;fill-opacity:1;stroke:none;stroke-width:0.264583px;stroke-linecap:butt;stroke-linejoin:miter;stroke-opacity:1"
           d="m 116.62126,200.81631 c -11.86956,-1.04389 -17.83443,8.43841 -16.75345,16.28152 0.85756,6.22202 11.9112,12.78975 20.29803,11.35186 1.46522,-9.18538 0.78142,-14.69469 -0.47705,-24.40854 0,0 -0.82588,-1.14049 -2.20233,-1.02251 0.0787,-1.17982 -0.18615,-2.14261 -0.8652,-2.20233 z"
           id="path34584"
           sodipodi:nodetypes="sscccs" /><path
           style="opacity:1;fill:#753b14;fill-opacity:1;stroke:none;stroke-width:0.234446px;stroke-linecap:butt;stroke-linejoin:miter;stroke-opacity:1"
           d="m 115.82865,202.1706 c -10.42626,-0.93308 -15.66582,7.54273 -14.71628,14.55335 0.75328,5.56159 10.46283,11.4322 17.82985,10.14694 1.28706,-8.21042 0.68641,-13.13495 -0.41904,-21.81774 0,0 -0.72545,-1.01943 -1.93453,-0.91398 0.0691,-1.05459 -0.16352,-1.91518 -0.76,-1.96857 z"
           id="path34586"
           sodipodi:nodetypes="sscccs" /><path
           id="path34588"
           style="opacity:1;fill:#401e08;fill-opacity:1;stroke:none;stroke-width:0.264583px;stroke-linecap:butt;stroke-linejoin:miter;stroke-opacity:1"
           d="m 119.65353,216.91372 c -2.19608,2.54375 -4.64328,4.61408 -6.84971,4.73666 -4.95346,0.2752 -8.55766,-1.1479 -11.16573,-3.1626 2.25297,4.95814 10.71539,9.53248 17.30438,8.38295 0.59378,-3.78787 0.78506,-6.8762 0.71106,-9.95701 z" /><path
           id="path34590"
           style="opacity:1;fill:#000000;fill-opacity:1;stroke:none;stroke-width:0.264583px;stroke-linecap:butt;stroke-linejoin:miter;stroke-opacity:1"
           d="m 117.48209,202.21642 c -1.99667,0.25036 -4.79697,0.73005 -6.5009,1.58285 -2.66328,1.33297 -5.83896,4.0903 -5.84563,6.75721 1.95846,-2.99036 4.62303,-4.86647 7.79435,-5.75158 1.78187,-0.49284 4.95052,-0.82883 6.57118,-0.97772 -0.3161,-0.32394 -1.02091,-0.89393 -2.01487,-0.80874 0.0189,-0.28334 0.0176,-0.55321 -0.004,-0.80202 z" /><path
           style="fill:#000000;fill-opacity:1;stroke:none;stroke-width:0.264583px;stroke-linecap:butt;stroke-linejoin:miter;stroke-opacity:1"
           d="m 100.35504,220.93188 c 2.02148,3.22888 4.15932,4.38767 5.52527,5.3434 -3.02233,-3.4668 -3.93231,-6.06697 -4.4919,-5.91008 -0.64282,0.18023 -1.03337,0.56668 -1.03337,0.56668 z"
           id="path34592"
           sodipodi:nodetypes="ccsc" /></g><path
         style="opacity:1;fill:#000000;fill-opacity:1;stroke:none;stroke-width:0.298792px;stroke-linecap:butt;stroke-linejoin:miter;stroke-opacity:1"
         d="m 30.64751,126.08311 c 0.41483,1.40499 1.07145,3.32862 2.36532,3.70274 2.19178,0.63375 3.428171,-0.67482 3.428171,-0.67482 0,0 1.888479,2.32787 4.500239,2.36306 2.50677,0.0338 4.47668,-3.02138 4.47668,-3.02138 0,0 2.79144,1.35937 3.96085,0.5561 2.62333,-1.802 2.16191,-4.53083 2.16191,-4.53083 -1.02348,2.07138 -1.56623,2.72565 -2.72447,3.08787 -1.52349,0.47642 -2.5166,-0.24396 -3.49558,-0.95334 -1.17923,1.44712 -2.60258,2.86246 -4.47193,2.80328 -3.21888,-0.10189 -3.792339,-0.77084 -4.326329,-1.70723 -0.84548,1.04988 -1.982111,0.79886 -3.135121,0.64122 -0.97295,-0.13303 -1.76431,-1.06282 -2.73974,-2.26667 z"
         id="path35469"
         sodipodi:nodetypes="cscscscscscsc" /><path
         style="opacity:1;fill:#000000;fill-opacity:1;stroke:none;stroke-width:0.293368px;stroke-linecap:butt;stroke-linejoin:miter;stroke-opacity:1"
         d="m 77.373734,126.34001 c -0.41483,1.35445 -1.07145,3.20886 -2.36532,3.56952 -2.19178,0.61095 -3.428171,-0.65054 -3.428171,-0.65054 0,0 -1.888479,2.24412 -4.500239,2.27804 -2.50677,0.0326 -4.47668,-2.91268 -4.47668,-2.91268 0,0 -2.79144,1.31047 -3.96085,0.53609 -2.62333,-1.73716 -2.16191,-4.3678 -2.16191,-4.3678 1.02348,1.99685 1.56623,2.62758 2.72447,2.97676 1.52349,0.45929 2.5166,-0.23518 3.49558,-0.91903 1.17923,1.39505 2.60258,2.75947 4.47193,2.70242 3.21888,-0.0982 3.792339,-0.74311 4.326329,-1.6458 0.84548,1.01209 1.982111,0.77011 3.135121,0.61814 0.97295,-0.12824 1.76431,-1.02458 2.73974,-2.18512 z"
         id="path35471"
         sodipodi:nodetypes="cscscscscscsc" /></g></g></svg>
