<?xml version="1.0" encoding="UTF-8" standalone="no"?>
<!-- Created with Inkscape (http://www.inkscape.org/) -->

<svg
   width="210mm"
   height="297mm"
   viewBox="0 0 210 297"
   version="1.1"
   id="svg1"
   xml:space="preserve"
   inkscape:version="1.3.2 (091e20e, 2023-11-25, custom)"
   sodipodi:docname="maple-leaf.svg"
   xmlns:inkscape="http://www.inkscape.org/namespaces/inkscape"
   xmlns:sodipodi="http://sodipodi.sourceforge.net/DTD/sodipodi-0.dtd"
   xmlns="http://www.w3.org/2000/svg"
   xmlns:svg="http://www.w3.org/2000/svg"><sodipodi:namedview
     id="namedview1"
     pagecolor="#ffffff"
     bordercolor="#999999"
     borderopacity="1"
     inkscape:showpageshadow="2"
     inkscape:pageopacity="0"
     inkscape:pagecheckerboard="0"
     inkscape:deskcolor="#d1d1d1"
     inkscape:document-units="mm"
     inkscape:zoom="0.73139029"
     inkscape:cx="41.701401"
     inkscape:cy="274.13544"
     inkscape:window-width="1920"
     inkscape:window-height="1017"
     inkscape:window-x="-8"
     inkscape:window-y="-8"
     inkscape:window-maximized="1"
     inkscape:current-layer="layer1" /><defs
     id="defs1" /><g
     inkscape:label="Layer 1"
     inkscape:groupmode="layer"
     id="layer1"><path
       style="fill:#fe0002;stroke:none;fill-opacity:1"
       d="m 70.809166,111.02814 c -9.841108,-0.0779 -19.205843,1.70239 -28.900224,3.19668 -1.569537,0.24446 -2.9064,0.39178 -2.970805,0.32738 -0.06441,-0.0644 0.425404,-1.35993 1.088465,-2.87894 1.367466,-3.13273 2.320057,-5.59177 2.586099,-6.6758 0.1587,-0.64665 -0.0097,-0.93956 -1.347891,-2.34459 -2.68374,-2.817762 -10.521747,-9.179082 -24.525006,-19.904472 -3.188813,-2.44238 -6.082192,-4.62701 -6.429732,-4.85473 -0.3475394,-0.22771 -0.5364794,-0.49506 -0.4198674,-0.59409 0.1166134,-0.099 1.5812424,-0.75451 3.2547324,-1.45661 5.51764,-2.31486 5.707592,-2.50918 5.290575,-5.41217 -0.438099,-3.04975 -2.740008,-10.506419 -5.090964,-16.491365 -0.444046,-1.130431 -0.745006,-2.117679 -0.668801,-2.193884 0.0762,-0.07621 0.599901,0.04393 1.163768,0.266956 1.943696,0.768808 8.728042,2.74212 11.783867,3.427486 3.640098,0.816407 5.540655,0.886415 6.198737,0.228333 0.7801,-0.7801 1.671638,-3.045327 2.571436,-6.533523 l 0.862722,-3.344468 4.393189,4.837631 c 5.044756,5.555114 11.869622,12.414774 13.086338,13.153044 1.192047,0.72331 1.41955,0.33841 1.41955,-2.401653 0,-4.067679 -1.273325,-12.353096 -3.984448,-25.926463 -0.882489,-4.418222 -1.670934,-8.306331 -1.7521,-8.640243 -0.123554,-0.508295 0.414439,-0.239302 3.305339,1.652648 4.139147,2.708865 7.127512,4.369627 7.871812,4.374702 0.745719,0.0051 1.651303,-1.033018 3.267035,-3.745116 1.313269,-2.204394 6.896436,-13.496915 8.774973,-17.74827 0.812297,-1.8383277 1.302806,-2.5145187 1.302806,-1.7959847 0,0.6319827 7.37848,15.8162397 9.32598,19.1920497 1.44588,2.506296 2.76822,4.101042 3.40053,4.101042 0.93612,0 4.4991,-1.999122 9.07238,-5.090347 2.07101,-1.399865 2.33346,-1.514761 2.19668,-0.961706 -0.50202,2.029955 -3.46132,17.272033 -4.15331,21.391923 -1.18733,7.068958 -1.58601,10.366937 -1.58601,13.119766 0,3.027132 0.25773,3.361602 1.74659,2.266652 1.30476,-0.95956 10.119969,-9.939906 14.129149,-14.393842 l 3.04161,-3.379013 0.55424,2.32068 c 0.82882,3.470404 1.36439,5.088145 2.16975,6.554012 l 0.72682,1.322917 2.24352,-0.03303 c 2.54638,-0.03749 6.10002,-0.875246 12.68618,-2.990728 2.25095,-0.72301 4.13839,-1.268817 4.1943,-1.212905 0.0559,0.05591 -0.31858,1.210628 -0.8322,2.566034 -3.78614,9.991375 -5.51115,16.333305 -4.98849,18.340075 0.22645,0.86946 1.20998,1.478 4.80978,2.97598 1.09141,0.45417 2.43569,1.01563 2.98731,1.24769 l 1.00293,0.42192 -0.73835,0.60597 c -0.40609,0.33329 -3.00054,2.31536 -5.76543,4.40461 -2.7649,2.08924 -5.39659,4.10489 -5.8482,4.47921 -0.45162,0.37433 -1.68482,1.33543 -2.74044,2.1358 -2.8174,2.13611 -12.80496,10.19441 -13.92853,11.238002 -4.45849,4.1411 -4.28206,3.80831 -3.39294,6.40001 0.39123,1.14039 0.92612,2.5497 1.18864,3.13178 1.37802,3.05541 2.09959,4.7171 2.09959,4.83506 0,0.1463 -0.33284,0.10345 -6.746869,-0.86857 -12.3807,-1.87626 -24.713608,-2.73419 -25.672505,-2.44089 -0.05061,3.85939 0.0031,8.26662 0.603553,11.79759 h -2.057781 -2.690851 c 0.604526,-4.02248 0.889466,-6.96397 0.830769,-12.00023 z"
       id="path1"
       sodipodi:nodetypes="csssssssssssssssscsssssssssssssssssscsscssssssscsssssssssccccc"
       inkscape:export-filename="maple-leaf.png"
       inkscape:export-xdpi="74.574883"
       inkscape:export-ydpi="74.574883" /></g></svg>
