<?xml version="1.0" encoding="UTF-8" standalone="no"?>
<!-- Created with Inkscape (http://www.inkscape.org/) -->

<svg
   width="210mm"
   height="297mm"
   viewBox="0 0 210 297"
   version="1.1"
   id="svg5"
   xml:space="preserve"
   inkscape:version="1.2.1 (9c6d41e410, 2022-07-14)"
   sodipodi:docname="mickey-mouse.svg"
   xmlns:inkscape="http://www.inkscape.org/namespaces/inkscape"
   xmlns:sodipodi="http://sodipodi.sourceforge.net/DTD/sodipodi-0.dtd"
   xmlns="http://www.w3.org/2000/svg"
   xmlns:svg="http://www.w3.org/2000/svg"><sodipodi:namedview
     id="namedview7"
     pagecolor="#ffffff"
     bordercolor="#666666"
     borderopacity="1.0"
     inkscape:showpageshadow="2"
     inkscape:pageopacity="0.0"
     inkscape:pagecheckerboard="0"
     inkscape:deskcolor="#d1d1d1"
     inkscape:document-units="mm"
     showgrid="false"
     inkscape:zoom="1.2623761"
     inkscape:cx="326.36867"
     inkscape:cy="343.00397"
     inkscape:window-width="1713"
     inkscape:window-height="1167"
     inkscape:window-x="1580"
     inkscape:window-y="18"
     inkscape:window-maximized="0"
     inkscape:current-layer="layer1" /><defs
     id="defs2"><inkscape:path-effect
       effect="bend_path"
       id="path-effect4952"
       is_visible="true"
       lpeversion="1"
       bendpath="m 112.44586,108.9876 c 7.2833,-5.34459 9.8508,-8.17407 9.8508,-8.17407 2.3579,-4.506221 2.5151,-4.768211 2.5151,-4.768211"
       prop_scale="1"
       scale_y_rel="false"
       vertical="false"
       hide_knot="false" /><inkscape:path-effect
       effect="bend_path"
       id="path-effect4934"
       is_visible="true"
       lpeversion="1"
       bendpath="M 124.86415,96.045319 112.86504,108.72561"
       prop_scale="1"
       scale_y_rel="false"
       vertical="false"
       hide_knot="false" /><inkscape:path-effect
       effect="mirror_symmetry"
       start_point="100.18563,107.07709"
       end_point="100.18563,119.6744"
       center_point="100.18563,113.37575"
       id="path-effect4093"
       is_visible="true"
       lpeversion="1.2"
       lpesatellites=""
       mode="free"
       discard_orig_path="false"
       fuse_paths="false"
       oposite_fuse="false"
       split_items="false"
       split_open="false"
       link_styles="false" /><inkscape:path-effect
       effect="mirror_symmetry"
       start_point="100.63024,49.648202"
       end_point="100.63024,121.08233"
       center_point="100.63024,85.365266"
       id="path-effect3898"
       is_visible="true"
       lpeversion="1.2"
       lpesatellites=""
       mode="free"
       discard_orig_path="false"
       fuse_paths="false"
       oposite_fuse="false"
       split_items="false"
       split_open="false"
       link_styles="false" /><filter
       inkscape:collect="always"
       style="color-interpolation-filters:sRGB"
       id="filter4017"
       x="-0.016345146"
       y="-0.0066774725"
       width="1.0326903"
       height="1.0133549"><feGaussianBlur
         inkscape:collect="always"
         stdDeviation="0.076662513"
         id="feGaussianBlur4019" /></filter><filter
       inkscape:collect="always"
       style="color-interpolation-filters:sRGB"
       id="filter4039"
       x="-0.0048170757"
       y="-0.0051622729"
       width="1.0096342"
       height="1.0103245"><feGaussianBlur
         inkscape:collect="always"
         stdDeviation="0.09786487"
         id="feGaussianBlur4041" /></filter><filter
       inkscape:collect="always"
       style="color-interpolation-filters:sRGB"
       id="filter4043"
       x="-0.0025259575"
       y="-0.0027069706"
       width="1.0050519"
       height="1.0054139"><feGaussianBlur
         inkscape:collect="always"
         stdDeviation="0.051317964"
         id="feGaussianBlur4045" /></filter><filter
       inkscape:collect="always"
       style="color-interpolation-filters:sRGB"
       id="filter4051"
       x="-0.0088544196"
       y="-0.016501419"
       width="1.0177088"
       height="1.0330028"><feGaussianBlur
         inkscape:collect="always"
         stdDeviation="0.08967088"
         id="feGaussianBlur4053" /></filter></defs><g
     inkscape:label="Layer 1"
     inkscape:groupmode="layer"
     id="layer1"><g
       id="g8472"
       transform="matrix(0.49479128,0,0,0.49479128,1.4875935,-0.44491752)"><ellipse
         style="opacity:1;fill:#000000;fill-opacity:1;fill-rule:evenodd;stroke:none;stroke-width:0.300422"
         id="path2365"
         cx="100.77846"
         cy="82.104782"
         rx="34.235027"
         ry="34.679642"
         inkscape:label="Head" /><ellipse
         style="opacity:1;fill:#000000;fill-opacity:1;fill-rule:evenodd;stroke:none;stroke-width:0.284104;filter:url(#filter4043)"
         id="path2369"
         cx="144.12799"
         cy="46.165421"
         rx="24.37949"
         ry="22.749252"
         inkscape:label="Ear (Left)" /><ellipse
         style="opacity:1;fill:#000000;fill-opacity:1;fill-rule:evenodd;stroke:none;stroke-width:0.284104;filter:url(#filter4039)"
         id="ellipse2371"
         cx="57.42889"
         cy="46.165421"
         rx="24.37949"
         ry="22.749252"
         inkscape:label="Ear (Right)" /><path
         style="opacity:1;fill:#f4d38d;fill-opacity:1;stroke:#000000;stroke-width:0.865;stroke-linecap:butt;stroke-linejoin:miter;stroke-dasharray:none;stroke-opacity:1"
         d="m 88.773954,117.82185 c -4.654507,-0.9309 -13.24092,-4.95957 -17.191614,-10.37425 -3.305092,-4.52984 -7.053245,-11.505253 -4.1497,-16.302392 1.551136,-2.562735 8.74401,-2.074849 8.74401,-2.074849 0,0 -1.832254,-10.936341 -0.444612,-16.154191 2.067076,-7.772679 4.928557,-18.114726 12.745512,-20.007487 5.478373,-1.326507 12.15269,6.817365 12.15269,6.817365 0,0 6.67432,-8.143872 12.15269,-6.817365 7.81696,1.892761 10.67844,12.234808 12.74551,20.007487 1.38764,5.21785 -0.44461,16.154191 -0.44461,16.154191 0,0 7.19287,-0.487886 8.74401,2.074849 2.90354,4.797139 -0.84461,11.772552 -4.1497,16.302392 -3.95069,5.41468 -12.53711,9.44335 -17.19161,10.37425 0,0 -7.32418,7.63249 -11.78219,7.63249 -4.458012,0 -11.930386,-7.63249 -11.930386,-7.63249 z"
         id="path3896"
         sodipodi:nodetypes="csscsscsscssczc"
         inkscape:label="Face" /><g
         id="g4027"
         inkscape:label="Eye (Left)"><ellipse
           style="opacity:1;fill:#000000;fill-opacity:1;fill-rule:evenodd;stroke:none;stroke-width:0.675701;stroke-dasharray:none;stroke-opacity:1;filter:url(#filter4017)"
           id="path4008"
           cx="109.58568"
           cy="76.199242"
           rx="5.6282773"
           ry="13.776921" /><ellipse
           style="opacity:1;fill:#ffffff;fill-opacity:1;fill-rule:evenodd;stroke:none;stroke-width:0.630289;stroke-dasharray:none;stroke-opacity:1"
           id="ellipse4010"
           cx="109.58568"
           cy="76.199242"
           rx="5.1222787"
           ry="13.171515" /><path
           id="path4012"
           style="opacity:1;fill:#000000;fill-opacity:1;fill-rule:evenodd;stroke-width:0.228969"
           d="m 107.29939,79.733634 a 3.4086826,5.2612276 0 0 0 -2.43292,1.580266 5.1222787,13.171515 0 0 0 4.35684,8.021732 3.4086826,5.2612276 0 0 0 1.48466,-4.34082 3.4086826,5.2612276 0 0 0 -3.40858,-5.261178 z" /><ellipse
           style="fill:#ffffff;fill-opacity:1;fill-rule:evenodd;stroke-width:0.363329"
           id="path4021"
           cx="108.14923"
           cy="81.478699"
           rx="0.62877458"
           ry="0.57637668" /></g><g
         id="g4037"
         transform="matrix(-1,0,0,1,201.77526,0)"
         inkscape:label="Eye (Right)"><ellipse
           style="opacity:1;fill:#000000;fill-opacity:1;fill-rule:evenodd;stroke:none;stroke-width:0.675701;stroke-dasharray:none;stroke-opacity:1;filter:url(#filter4017)"
           id="ellipse4029"
           cx="109.58568"
           cy="76.199242"
           rx="5.6282773"
           ry="13.776921" /><ellipse
           style="opacity:1;fill:#ffffff;fill-opacity:1;fill-rule:evenodd;stroke:none;stroke-width:0.630289;stroke-dasharray:none;stroke-opacity:1"
           id="ellipse4031"
           cx="109.58568"
           cy="76.199242"
           rx="5.1222787"
           ry="13.171515" /><path
           id="path4033"
           style="opacity:1;fill:#000000;fill-opacity:1;fill-rule:evenodd;stroke-width:0.228969"
           d="m 107.29939,79.733634 a 3.4086826,5.2612276 0 0 0 -2.43292,1.580266 5.1222787,13.171515 0 0 0 4.35684,8.021732 3.4086826,5.2612276 0 0 0 1.48466,-4.34082 3.4086826,5.2612276 0 0 0 -3.40858,-5.261178 z" /><ellipse
           style="fill:#ffffff;fill-opacity:1;fill-rule:evenodd;stroke-width:0.363329"
           id="ellipse4035"
           cx="108.14923"
           cy="81.478699"
           rx="0.62877458"
           ry="0.57637668" /></g><g
         id="g4057"
         inkscape:label="Nose"><ellipse
           style="opacity:1;fill:#000000;fill-opacity:1;fill-rule:evenodd;stroke-width:0.296721;filter:url(#filter4051)"
           id="path4047"
           cx="100.92664"
           cy="96.628738"
           rx="12.152695"
           ry="6.5209579" /><ellipse
           style="fill:#ffffff;fill-opacity:1;fill-rule:evenodd;stroke-width:0.264583"
           id="path4049"
           cx="102.26048"
           cy="91.738022"
           rx="1.4820359"
           ry="0.74101794" /><path
           style="color:#000000;fill:#000000;stroke-linecap:round;-inkscape-stroke:none"
           d="m 100.49219,87.630859 c -3.9038,-0.02515 -7.638977,1.231204 -12.55469,3.800782 a 0.38249999,0.38249999 0 0 0 -0.162109,0.515625 0.38249999,0.38249999 0 0 0 0.517578,0.162109 c 4.865714,-2.543441 8.456345,-3.738917 12.193361,-3.714844 3.73701,0.02407 7.66263,1.275147 13.16601,3.712891 a 0.38249999,0.38249999 0 0 0 0.50586,-0.195313 0.38249999,0.38249999 0 0 0 -0.19531,-0.503906 c -5.53777,-2.452973 -9.5669,-3.752196 -13.4707,-3.777344 z"
           id="path7323" /></g><g
         id="g8446"
         inkscape:label="Mouth"><path
           style="fill:#000000;fill-opacity:1;stroke:none;stroke-width:0.264583px;stroke-linecap:butt;stroke-linejoin:miter;stroke-opacity:1"
           d="m 113.82036,107.5958 c 0,0 -4.59431,12.89372 -13.63473,12.89372 -9.04042,0 -13.634732,-12.89372 -13.634732,-12.89372 5.557635,1.85255 11.294945,2.66767 13.634732,2.66767 2.33979,0 8.0771,-0.81512 13.63473,-2.66767 z"
           id="path4091"
           sodipodi:nodetypes="cccsc" /><path
           id="path4954"
           style="color:#000000;fill:#000000;stroke-linecap:round"
           d="m 122.95219,95.029342 c -0.81727,-0.0046 -1.41336,0.173632 -1.41336,0.173632 a 0.48249999,0.48249999 0 0 0 -0.32607,0.599964 0.48249999,0.48249999 0 0 0 0.59996,0.326078 c 0,0 0.72738,-0.212996 1.62109,-0.10542 0.20855,0.0251 0.42251,0.06539 0.63665,0.128675 -3.04475,7.376949 -7.44191,9.538459 -11.96516,12.257649 a 0.4325,0.4325 0 0 0 -0.14831,0.59376 0.4325,0.4325 0 0 0 0.59376,0.14883 c 4.48031,-2.69336 9.17045,-5.06887 12.30675,-12.642122 0.42071,0.272322 0.81324,0.683244 1.13068,1.302246 a 0.48249999,0.48249999 0 0 0 0.6506,0.208773 0.48249999,0.48249999 0 0 0 0.20877,-0.650089 c -0.81651,-1.592192 -2.19147,-2.171514 -3.2985,-2.304769 -0.20757,-0.02499 -0.40826,-0.03614 -0.59686,-0.03721 z" /><path
           id="path6518"
           style="color:#000000;fill:#000000;stroke-linecap:round"
           d="m 77.593566,95.029342 c 0.81727,-0.0046 1.41336,0.173632 1.41336,0.173632 a 0.48249999,0.48249999 0 0 1 0.32607,0.599964 0.48249999,0.48249999 0 0 1 -0.59996,0.326078 c 0,0 -0.72738,-0.212996 -1.62109,-0.10542 -0.20855,0.0251 -0.42251,0.06539 -0.63665,0.128675 3.04475,7.376949 7.44191,9.538459 11.96516,12.257649 a 0.4325,0.4325 0 0 1 0.14831,0.59376 0.4325,0.4325 0 0 1 -0.59376,0.14883 c -4.48031,-2.69336 -9.17045,-5.06887 -12.30675,-12.642122 -0.42071,0.272322 -0.81324,0.683244 -1.13068,1.302246 a 0.48249999,0.48249999 0 0 1 -0.6506,0.208773 0.48249999,0.48249999 0 0 1 -0.20877,-0.650089 c 0.81651,-1.592192 2.19147,-2.171514 3.2985,-2.304769 0.20757,-0.02499 0.40826,-0.03614 0.59686,-0.03721 z" /><path
           id="path8437"
           style="fill:#be1a1a;fill-opacity:1;stroke:none;stroke-width:0.260213px;stroke-linecap:butt;stroke-linejoin:miter;stroke-opacity:1"
           d="m 105.17343,112.28875 c -2.48876,0.0205 -4.09484,0.90629 -1.90842,2.49442 1.39436,1.0128 -0.28161,0.9272 -1.13378,-0.14727 0,0 -0.32094,-0.99248 -2.148702,-1.41852 -3.933526,0.43324 -6.392849,1.82226 -7.627442,2.73523 0.905649,0.96106 1.916703,1.81849 3.054077,2.52491 2.740072,1.75513 6.425327,1.85049 9.229927,0.18552 2.26415,-1.30331 4.03941,-3.22191 5.4808,-5.379 -1.52699,-0.68866 -3.40577,-1.00798 -4.94646,-0.99529 z" /></g></g></g></svg>
