<?xml version="1.0" encoding="UTF-8" standalone="no"?>
<!-- Created with Inkscape (http://www.inkscape.org/) -->

<svg
   width="210mm"
   height="297mm"
   viewBox="0 0 210 297"
   version="1.1"
   id="svg5"
   xml:space="preserve"
   inkscape:version="1.2.1 (9c6d41e410, 2022-07-14)"
   sodipodi:docname="minion-2.svg"
   xmlns:inkscape="http://www.inkscape.org/namespaces/inkscape"
   xmlns:sodipodi="http://sodipodi.sourceforge.net/DTD/sodipodi-0.dtd"
   xmlns="http://www.w3.org/2000/svg"
   xmlns:svg="http://www.w3.org/2000/svg"><sodipodi:namedview
     id="namedview7"
     pagecolor="#ffffff"
     bordercolor="#000000"
     borderopacity="0.25"
     inkscape:showpageshadow="2"
     inkscape:pageopacity="0.0"
     inkscape:pagecheckerboard="0"
     inkscape:deskcolor="#d1d1d1"
     inkscape:document-units="mm"
     showgrid="false"
     inkscape:zoom="3.3638608"
     inkscape:cx="185.3525"
     inkscape:cy="203.63506"
     inkscape:window-width="2560"
     inkscape:window-height="1377"
     inkscape:window-x="1272"
     inkscape:window-y="-8"
     inkscape:window-maximized="1"
     inkscape:current-layer="layer1" /><defs
     id="defs2"><inkscape:path-effect
       effect="bspline"
       id="path-effect8712"
       is_visible="true"
       lpeversion="1"
       weight="33.333333"
       steps="2"
       helper_size="0"
       apply_no_weight="true"
       apply_with_weight="true"
       only_selected="false" /><inkscape:path-effect
       effect="bspline"
       id="path-effect8659"
       is_visible="true"
       lpeversion="1"
       weight="33.333333"
       steps="2"
       helper_size="0"
       apply_no_weight="true"
       apply_with_weight="true"
       only_selected="false" /><inkscape:path-effect
       effect="bspline"
       id="path-effect6651"
       is_visible="true"
       lpeversion="1"
       weight="33.333333"
       steps="2"
       helper_size="0"
       apply_no_weight="true"
       apply_with_weight="true"
       only_selected="false" /><inkscape:path-effect
       effect="bspline"
       id="path-effect3746"
       is_visible="true"
       lpeversion="1"
       weight="33.333333"
       steps="2"
       helper_size="0"
       apply_no_weight="true"
       apply_with_weight="true"
       only_selected="false" /><inkscape:path-effect
       effect="mirror_symmetry"
       start_point="95.884128,59.621684"
       end_point="95.884128,135.59484"
       center_point="95.884128,97.608262"
       id="path-effect2152"
       is_visible="true"
       lpeversion="1.2"
       lpesatellites=""
       mode="free"
       discard_orig_path="false"
       fuse_paths="false"
       oposite_fuse="false"
       split_items="false"
       split_open="false"
       link_styles="false" /><inkscape:path-effect
       effect="mirror_symmetry"
       start_point="95.884128,59.621684"
       end_point="95.884128,135.48361"
       center_point="95.884128,97.552647"
       id="path-effect2150"
       is_visible="true"
       lpeversion="1.2"
       lpesatellites=""
       mode="free"
       discard_orig_path="false"
       fuse_paths="false"
       oposite_fuse="false"
       split_items="false"
       split_open="false"
       link_styles="false" /><filter
       inkscape:collect="always"
       style="color-interpolation-filters:sRGB"
       id="filter22085"
       x="-0.029835354"
       y="-0.089009301"
       width="1.0596707"
       height="1.1780186"><feGaussianBlur
         inkscape:collect="always"
         stdDeviation="0.065633972"
         id="feGaussianBlur22087" /></filter><filter
       inkscape:collect="always"
       style="color-interpolation-filters:sRGB"
       id="filter22089"
       x="-0.059732387"
       y="-0.039826865"
       width="1.1194648"
       height="1.0796537"><feGaussianBlur
         inkscape:collect="always"
         stdDeviation="0.088103328"
         id="feGaussianBlur22091" /></filter></defs><g
     inkscape:label="Layer 1"
     inkscape:groupmode="layer"
     id="layer1"><g
       id="g40467"
       transform="matrix(0.62994762,0,0,0.62994762,-29.725755,-26.615829)"><path
         style="opacity:1;fill:#000000;fill-opacity:1;stroke:none;stroke-width:0.264583px;stroke-linecap:butt;stroke-linejoin:miter;stroke-opacity:1"
         d="m 79.643892,129.44913 c -4.810892,0.69522 -6.451599,0.36151 -8.370394,-0.86206 -1.946603,-0.25028 -1.863178,0.52836 -1.751944,1.69632 0.917685,6.4516 1.974415,8.45383 4.06006,9.76083 4.848379,-2.82851 5.266387,-5.81973 6.062278,-10.59509 z"
         id="path29432"
         sodipodi:nodetypes="ccccc" /><g
         id="g39297"><path
           style="opacity:1;fill:#000000;fill-opacity:1;stroke:none;stroke-width:0.264583px;stroke-linecap:butt;stroke-linejoin:miter;stroke-opacity:1"
           d="m 68.547537,112.16155 c 0,0 -1.990405,19.60722 -1.573093,24.14698 0.195263,2.12419 5.741789,2.35963 7.35421,0.70789 l -0.707893,-23.79303 z"
           id="path39214"
           sodipodi:nodetypes="csccc" /><path
           id="path39216"
           style="opacity:1;fill:#fee281;fill-opacity:1;stroke:none;stroke-width:0.264583px;stroke-linecap:butt;stroke-linejoin:miter;stroke-opacity:1"
           d="m 69.296875,115.39258 c -0.580448,6.84985 -1.095638,13.20902 -1.064817,20.07494 0.06918,0.83101 0.894931,1.32201 1.517682,1.50055 1.179865,0.19079 2.469493,0.0536 3.525651,-0.48565 -0.153591,-2.99414 -0.178115,-6.00675 -0.290825,-9.00817 l -0.398628,-13.38831 c -1.032553,-0.2155 -2.065105,-0.43099 -3.097657,-0.64649 -0.0638,0.65104 -0.127604,1.30209 -0.191406,1.95313 z"
           sodipodi:nodetypes="cccccccc" /><path
           id="path39220"
           style="opacity:1;fill:#d2b44d;fill-opacity:1;stroke:none;stroke-width:0.264583px;stroke-linecap:butt;stroke-linejoin:miter;stroke-opacity:1"
           d="m 71.025122,127.38137 c -0.335537,4.52976 -1.252828,6.48718 -2.793111,7.81089 2.18e-4,0.092 -4.14e-4,0.18325 0,0.27544 0.06918,0.83101 0.894986,1.32163 1.517737,1.50017 1.179864,0.19079 2.469726,0.054 3.525883,-0.48524 -0.112244,-2.18812 -0.155798,-4.38628 -0.214974,-6.58255 z" /></g><g
         id="g35162"
         inkscape:label="Left Arm"
         style="display:inline"><path
           style="opacity:1;fill:#000000;fill-opacity:1;stroke:none;stroke-width:0.264583px;stroke-linecap:butt;stroke-linejoin:miter;stroke-opacity:1"
           d="m 121.91472,103.74549 c 0.94386,4.36534 6.05641,24.34362 4.24736,36.02384 l -9.67453,-1.88771 c 0,0 1.84839,-34.01814 5.42717,-34.13613 z"
           id="path34734"
           sodipodi:nodetypes="cccc" /><path
           id="path34736"
           style="opacity:1;fill:#fee281;fill-opacity:1;stroke:none;stroke-width:0.264583px;stroke-linecap:butt;stroke-linejoin:miter;stroke-opacity:1"
           d="m 121.35156,106.42188 c -0.89816,2.82674 -1.28014,5.80487 -1.72141,8.72179 -1.0104,7.25785 -1.54564,14.55551 -2.03054,21.87391 2.55078,0.4987 5.10156,0.99739 7.65234,1.49609 0.59537,-5.67604 -0.0615,-11.45945 -0.88049,-17.1343 -0.77259,-5.08097 -1.81472,-10.09863 -2.97107,-15.08835 l -0.035,0.0937 z" /><path
           id="path34740"
           style="opacity:1;fill:#d2b44d;fill-opacity:1;stroke:none;stroke-width:0.264583px;stroke-linecap:butt;stroke-linejoin:miter;stroke-opacity:1"
           d="m 118.80722,121.97963 c -0.51784,4.99875 -0.87477,10.01337 -1.20768,15.03785 2.55078,0.4987 5.10147,0.99733 7.65225,1.49603 0.10133,-0.96606 0.16583,-1.93507 0.19998,-2.90628 -3.30283,-3.11503 -5.44977,-9.21627 -6.64455,-13.6276 z" /></g><g
         id="g19218"
         inkscape:label="Body"
         style="display:inline"><path
           style="display:inline;opacity:1;fill:#000000;fill-opacity:1;stroke:none;stroke-width:0.148;stroke-linecap:round;stroke-linejoin:round"
           d="m 70.351861,131.05235 c -0.550582,-5.66314 -2.230203,-35.175885 -0.222469,-52.794936 0.79628,-6.987831 6.641653,-18.871699 25.518772,-18.793039 18.877126,-0.07866 25.194416,11.805208 25.990696,18.793039 2.00774,17.619051 0.48543,45.558706 -0.0652,51.221846 0,0 -16.88707,6.11558 -25.689552,6.11558 -8.802485,0 -25.532247,-4.54249 -25.532247,-4.54249 z"
           id="path1638"
           sodipodi:nodetypes="cscscsc" /><path
           id="path2154"
           style="display:inline;opacity:1;fill:#ffd95b;fill-opacity:1;stroke:#005b02;stroke-width:0.148;stroke-linecap:round;stroke-linejoin:round"
           d="m 94.802734,60.527344 c -3.826297,0.06974 -7.560246,0.619791 -11.159128,2.063132 -3.89752,1.5502 -7.285808,4.20699 -9.533852,7.760317 -1.754643,2.711859 -2.822267,5.887447 -3.027107,9.009529 -1.042013,10.635081 -0.935608,21.357458 -0.673238,32.043268 0.17394,6.28602 0.441786,12.54722 0.936294,18.81321 7.196148,1.82651 14.463904,3.50136 21.867188,4.21093 2.805306,0.24047 5.78353,0.028 8.599709,-0.53101 6.3621,-1.1706 12.51353,-0.58821 18.65039,-2.68691 0.8065,-10.90734 1.2085,-24.36996 1.08066,-35.320994 -0.1018,-6.201842 -0.30417,-12.359129 -1.11055,-18.511015 -1.06746,-5.773425 -4.99423,-10.83806 -10.14801,-13.584275 -4.70795,-2.608356 -10.19913,-3.355984 -15.482356,-3.266182 z"
           inkscape:label="path2154"
           sodipodi:nodetypes="ccccccccccccc" /><path
           id="path3530"
           style="display:inline;opacity:1;fill:#d4b44d;fill-opacity:1;stroke:none;stroke-width:0.148;stroke-linecap:round;stroke-linejoin:round"
           d="m 89.551123,60.976123 c -2.003597,0.32384 -3.975317,0.839405 -5.90765,1.614372 -3.897516,1.550198 -7.285743,4.206926 -9.533785,7.76025 -1.754641,2.711856 -2.822365,5.887707 -3.027205,9.009786 -1.042012,10.63507 -0.935197,21.357209 -0.672827,32.043009 0.17394,6.28601 0.441352,12.54733 0.93586,18.81332 0.702728,0.17836 1.406829,0.35342 2.110982,0.52813 l 0.403076,-6.05131 c 0,0 0.889869,-25.583963 0.889869,-26.028901 0,-0.444936 -1.865049,-20.73794 3.114538,-29.143441 2.066234,-3.487786 7.561215,-6.592558 11.687142,-8.545215 z" /><path
           style="display:inline;opacity:1;fill:#d4b44d;fill-opacity:1;stroke-width:0.148;stroke-linecap:round;stroke-linejoin:round"
           d="m 71.746244,92.435859 c 8.725639,7.984211 17.427564,6.054095 22.93339,1.334815 0,0 10.986726,10.781426 23.478386,-2.146036 2.12596,-2.200128 2.42017,-2.704523 2.42017,-2.704523 l -0.55618,-2.04598 -49.276875,-1.557282 z"
           id="path406"
           sodipodi:nodetypes="ccscccc" /><path
           id="path5677"
           style="opacity:1;fill:#d3b44e;fill-opacity:1;stroke:none;stroke-width:0.148;stroke-linecap:round;stroke-linejoin:round"
           d="m 107.10096,62.346582 c 11.42651,8.525589 9.54689,17.467605 10.08052,26.200468 0.63352,10.367837 0.15761,27.56524 0.15761,27.56524 0,0 2.4888,6.04107 2.65378,13.60609 0.17497,-0.0595 0.40639,0.21622 0.58117,0.15645 0.80649,-10.90733 1.09729,-23.03509 0.96945,-33.986109 -0.1018,-6.201836 -0.30415,-12.359135 -1.11053,-18.511015 -1.06746,-5.773419 -4.99393,-10.837972 -10.1477,-13.584184 -1.02703,-0.569004 -2.09303,-1.04441 -3.1843,-1.44694 z"
           sodipodi:nodetypes="csccccccc" /></g><g
         id="g36053"
         inkscape:label="Left Hand"><path
           style="opacity:1;fill:#000000;fill-opacity:1;stroke:none;stroke-width:0.264583px;stroke-linecap:butt;stroke-linejoin:miter;stroke-opacity:1"
           d="m 127.00761,137.05575 c 0.54325,0.0541 0.85188,1.02719 0.72757,1.69108 -0.31113,1.6615 -0.40215,5.66199 -0.31463,7.59017 0.0697,1.53676 -0.44808,2.74257 -1.23881,3.59845 -1.03139,1.11635 -2.20137,1.86145 -3.67711,2.24165 -1.96684,0.50673 -3.92629,0.41789 -5.72212,-0.53091 -1.28234,-0.67751 -2.66553,-1.89432 -3.00854,-3.3035 -0.27073,-1.11223 0.0799,-2.44229 0.78654,-3.34282 0.48137,-0.61342 1.10117,-0.92419 2.222,-0.98319 0.55058,-2.14333 2.30065,-2.5956 3.28383,-2.79224 0,0 -0.0137,-3.56246 0.0983,-3.99172 0.1,-0.38321 0.46724,-0.38805 1.00282,-0.39164 1.96395,-0.0131 4.35676,0.067 5.84015,0.21467 z"
           id="path35164"
           sodipodi:nodetypes="ssssssssccsss" /><path
           id="path35285"
           style="opacity:1;fill:#a5a5a5;fill-opacity:1;stroke:none;stroke-width:0.264583px;stroke-linecap:butt;stroke-linejoin:miter;stroke-opacity:1"
           d="m 121.14648,137.9082 c 0.0339,1.39337 -0.0491,2.79063 -0.0254,4.1875 -1.26161,0.16255 -2.95522,0.57913 -3.23632,2.03321 -0.0584,0.87704 -1.04792,0.99441 -1.7327,1.04564 -1.36852,0.49155 -1.67897,2.53206 -0.93264,3.6908 1.29644,2.0473 3.83617,2.7954 6.17107,2.38608 2.0001,-0.29606 4.23221,-1.5632 4.79647,-3.72053 0.22833,-1.33842 -0.0602,-2.67461 0.0371,-4.02848 0.007,-1.80196 0.2293,-3.58623 0.34365,-5.37338 -1.80628,-0.21683 -3.77861,-0.23633 -5.42122,-0.22084 z"
           sodipodi:nodetypes="scccccccccs" /><path
           id="path35630"
           style="opacity:1;fill:#818181;fill-opacity:1;stroke:none;stroke-width:0.264583px;stroke-linecap:butt;stroke-linejoin:miter;stroke-opacity:1"
           d="m 121.15385,138.66906 c -0.001,1.14089 -0.052,2.28394 -0.0326,3.42666 -1.26161,0.16255 -2.9554,0.57887 -3.2365,2.03295 -0.0584,0.87704 -1.04793,0.9947 -1.73271,1.04593 -1.36852,0.49155 -1.67909,2.53199 -0.93276,3.69073 1.29644,2.0473 3.83631,2.79522 6.1712,2.3859 2.0001,-0.29606 4.23235,-1.56286 4.79661,-3.72018 0.0956,-0.56061 0.1,-1.12079 0.0806,-1.68207 -0.9066,0.54952 -1.8865,0.91838 -2.54403,0.5271 -2.03029,-1.20818 0.69553,-5.09292 -0.96583,-6.77271 -0.41328,-0.41787 -0.96804,-0.72012 -1.60403,-0.93431 z" /><path
           style="fill:#000000;fill-opacity:1;stroke:none;stroke-width:0.264583px;stroke-linecap:butt;stroke-linejoin:miter;stroke-opacity:1"
           d="m 116.18207,144.70729 c -0.0197,0.0983 -0.74647,1.81023 -0.49496,2.68479 0.1975,0.68682 0.73933,1.37351 1.44934,1.57985 0.9755,0.28349 2.91023,-0.90453 2.91023,-0.90453 0,0 1.65529,-1.1637 2.28098,-1.78939 0.3337,-1.01501 -1.33293,0.26891 -1.69444,0.39405 -0.37542,0.3198 -1.41384,0.93439 -2.31695,1.12001 -0.46591,0.0958 -0.99263,0.0726 -1.25708,-0.32277 -0.61896,-0.92539 0.64217,-2.90109 0.64217,-2.90109 z"
           id="path35352"
           sodipodi:nodetypes="cascccsscc" /></g><g
         id="g39306"><path
           id="path39299"
           style="fill:#000000;fill-opacity:1;stroke:none;stroke-width:0.264583px;stroke-linecap:butt;stroke-linejoin:miter;stroke-opacity:1"
           d="m 70.509766,128.51562 c -0.867663,-0.0206 -1.345694,0.95281 -0.975527,1.68485 0.459494,3.01482 0.792442,6.28097 2.743105,8.76047 0.378925,0.40837 0.816581,0.75334 1.238281,1.11523 2.826637,-1.45908 5.015637,-4.19438 5.518844,-7.36997 0.276106,-1.18882 0.53666,-2.38125 0.807328,-3.57143 -1.5843,-0.18109 -3.810449,0.63078 -5.24814,0.41917 -1.410442,-0.20759 -2.635345,-1.06011 -4.083891,-1.03832 z"
           sodipodi:nodetypes="ccccccsc" /><path
           id="path29434"
           style="display:inline;opacity:1;fill:#79aeda;fill-opacity:1;stroke:none;stroke-width:0.264583px;stroke-linecap:butt;stroke-linejoin:miter;stroke-opacity:1"
           d="m 70.519531,129.60742 c 0.311844,2.26372 0.592286,4.47977 1.388672,6.60352 0.385163,0.9578 0.873172,1.92576 1.712891,2.56445 1.994584,-1.18214 3.588687,-3.07516 4.145045,-5.3535 0.260487,-0.89836 0.436448,-1.81885 0.593236,-2.74025 -2.508546,0.3258 -5.261063,0.35624 -7.464844,-1.06641 -0.124086,-0.0223 -0.249978,-0.006 -0.375,-0.008 z" /><path
           id="path29438"
           style="fill:#568dba;fill-opacity:1;stroke:none;stroke-width:0.264583px;stroke-linecap:butt;stroke-linejoin:miter;stroke-opacity:1"
           d="m 70.519727,129.60708 v 5.1e-4 c 0.311843,2.26372 0.59216,4.47947 1.388545,6.60322 0.385163,0.9578 0.873356,1.92601 1.713074,2.5647 1.994582,-1.18214 3.588609,-3.07534 4.144967,-5.35368 0.137442,-0.47401 0.250904,-0.95443 0.350883,-1.43764 l -2.088245,1.80299 c -2.438292,2.02536 -2.614311,-0.0553 -2.614311,-0.0553 0,0 -0.04794,-1.43426 -0.0026,-3.10007 -0.948477,-0.20894 -2.339682,-1.27465 -2.892329,-1.02474 z"
           sodipodi:nodetypes="cccccccccc" /></g><g
         id="g19059"
         inkscape:label="Eyes in Glasses"
         style="display:inline"><path
           style="opacity:1;fill:#000000;fill-opacity:1;stroke:none;stroke-width:0.264583px;stroke-linecap:butt;stroke-linejoin:miter;stroke-opacity:1"
           d="m 115.66168,78.772643 9.04528,1.533765 v 6.528339 l -8.88797,-1.179822 z"
           id="path17059"
           sodipodi:nodetypes="ccccc" /><path
           style="opacity:1;fill:#000000;fill-opacity:1;stroke:none;stroke-width:0.264583px;stroke-linecap:butt;stroke-linejoin:miter;stroke-opacity:1"
           d="m 73.974709,80.188426 -6.095739,0.235965 0.196637,6.724971 5.899101,0.03933 z"
           id="path17622"
           sodipodi:nodetypes="ccccc" /><path
           style="opacity:1;fill:#818181;fill-opacity:1;stroke:none;stroke-width:0.181526px;stroke-linecap:butt;stroke-linejoin:miter;stroke-opacity:1"
           d="m 116.99881,80.1491 6.56766,1.064331 -0.35395,4.284187 -6.10291,-0.749139 z"
           id="path17061"
           sodipodi:nodetypes="ccccc" /><path
           style="opacity:1;fill:#818181;fill-opacity:1;stroke:none;stroke-width:0.169221px;stroke-linecap:butt;stroke-linejoin:miter;stroke-opacity:1"
           d="m 73.030853,81.446901 -3.893408,0.151123 0.125594,4.307005 3.767813,0.02519 z"
           id="path17624"
           sodipodi:nodetypes="ccccc" /><path
           style="opacity:1;fill:#a4a4a4;fill-opacity:1;stroke:none;stroke-width:0.0976998px;stroke-linecap:butt;stroke-linejoin:miter;stroke-opacity:1"
           d="m 73.030853,81.446901 -3.893408,0.05037 0.125594,1.43567 3.767813,0.0084 z"
           id="path17626"
           sodipodi:nodetypes="ccccc" /><ellipse
           style="opacity:1;fill:#000000;fill-opacity:1;stroke:none;stroke-width:0.284107;stroke-linecap:round;stroke-linejoin:round"
           id="path6769"
           cx="84.435783"
           cy="82.626724"
           rx="12.860037"
           ry="13.331965" /><path
           id="path17063"
           style="opacity:1;fill:#a4a4a4;fill-opacity:1;stroke:none;stroke-width:0.133697px;stroke-linecap:butt;stroke-linejoin:miter;stroke-opacity:1"
           d="m 116.99906,80.149113 0.0388,1.609721 6.40064,1.003556 0.12816,-1.548743 z" /><ellipse
           style="opacity:1;fill:#000000;fill-opacity:1;stroke:none;stroke-width:0.284107;stroke-linecap:round;stroke-linejoin:round"
           id="ellipse6771"
           cx="105.57034"
           cy="82.84919"
           rx="12.860037"
           ry="13.331965" /><path
           id="ellipse6773"
           style="opacity:1;fill:#a4a4a4;fill-opacity:1;stroke:none;stroke-width:0.284107;stroke-linecap:round;stroke-linejoin:round"
           d="m 83.609375,70.408203 c -2.287754,0.123309 -4.598471,1.10405 -6.360566,2.50477 -4.066642,3.194965 -5.638151,9.047627 -3.895389,13.888116 1.458165,4.302804 5.492661,7.687946 10.072103,8.030003 2.939856,0.279152 5.957074,-0.658713 8.240493,-2.526404 0.785312,-0.643623 1.672026,-1.563157 2.30664,-2.484376 2.965345,-4.149635 2.990932,-10.104641 0.08984,-14.292978 C 91.7956,72.153326 87.695169,70.018171 83.609375,70.408203 Z" /><path
           id="ellipse6777"
           style="opacity:1;fill:#a4a4a4;fill-opacity:1;stroke:none;stroke-width:0.284107;stroke-linecap:round;stroke-linejoin:round"
           d="m 104.70703,70.607422 c -3.33835,0.266836 -6.608359,2.103003 -8.569875,4.905588 -3.147406,4.273442 -3.126527,10.565562 0.09269,14.795071 2.508538,3.51629 7.073495,5.42204 11.332545,4.61879 2.24839,-0.380973 4.40547,-1.526207 5.96864,-3.052431 3.67167,-3.429708 4.83699,-9.156541 2.90971,-13.778912 -1.66058,-4.345819 -6.0608,-7.508572 -10.73912,-7.514573 -0.33192,-0.01526 -0.663,0.01617 -0.99459,0.02647 z" /><path
           id="path12753"
           style="opacity:1;fill:#818181;fill-opacity:1;stroke:none;stroke-width:0.264583px;stroke-linecap:butt;stroke-linejoin:miter;stroke-opacity:1"
           d="m 76.430477,73.623413 c -3.452232,3.300746 -4.697347,8.676494 -3.076815,13.17749 0.488791,1.44234 1.268036,2.780654 2.259294,3.936711 0.910312,-1.515253 2.418442,-2.640149 4.253487,-2.640149 l 0.556038,-10.566797 c -2.355386,-0.807561 -3.488314,-2.348307 -3.992004,-3.907255 z" /><path
           id="path13103"
           style="opacity:1;fill:#818181;fill-opacity:1;stroke:none;stroke-width:0.264583px;stroke-linecap:butt;stroke-linejoin:miter;stroke-opacity:1"
           d="m 91.38822,72.715975 c -0.728526,1.664561 -2.336534,3.023587 -4.847766,4.147034 l 0.889868,10.901143 c 1.318306,0.329576 3.378489,1.714149 4.977474,3.875216 0.564171,-0.545452 1.125058,-1.180727 1.564763,-1.819011 2.965342,-4.149631 2.991006,-10.104851 0.08992,-14.293184 -0.724177,-1.077852 -1.636097,-2.028141 -2.674256,-2.811198 z" /><path
           id="path15701"
           style="fill:#c5c5c5;fill-opacity:1;fill-rule:evenodd;stroke-width:0.319746"
           d="m 84.375212,70.364181 c -0.255025,0.005 -0.510483,0.01955 -0.765845,0.04392 -0.948654,0.05113 -1.900569,0.251565 -2.816366,0.566374 a 3.3370347,2.0022209 0 0 0 -0.259415,0.771529 3.3370347,2.0022209 0 0 0 3.337264,2.002462 3.3370347,2.0022209 0 0 0 3.336747,-2.002462 3.3370347,2.0022209 0 0 0 -0.660425,-1.195276 c -0.713815,-0.135272 -1.44105,-0.200776 -2.17196,-0.186551 z" /><path
           id="path15841"
           style="fill:#c5c5c5;fill-opacity:1;fill-rule:evenodd;stroke-width:0.305514"
           d="m 84.482699,91.21252 a 2.725245,2.2246897 0 0 0 -2.725415,2.224671 2.725245,2.2246897 0 0 0 0.455786,1.229899 c 0.398924,0.0776 0.80326,0.133259 1.212329,0.163814 1.121468,0.106488 2.254329,0.0354 3.353283,-0.19637 a 2.725245,2.2246897 0 0 0 0.428915,-1.197343 2.725245,2.2246897 0 0 0 -2.724898,-2.224671 z" /><path
           id="path6781"
           style="opacity:1;fill:#000000;fill-opacity:1;stroke:none;stroke-width:0.226315;stroke-linecap:round;stroke-linejoin:round"
           d="m 83.568468,72.95652 c -1.861237,0.09618 -3.741155,0.86111 -5.174734,1.953608 -3.308477,2.49193 -4.587002,7.056743 -3.169151,10.832108 1.186312,3.355993 4.468637,5.996252 8.19431,6.263041 2.391763,0.217726 4.846466,-0.513766 6.704175,-1.970481 0.638903,-0.501998 1.360302,-1.219193 1.876602,-1.937703 2.412501,-3.236529 2.433318,-7.881166 0.07309,-11.14788 -1.844268,-2.631576 -5.180235,-4.296901 -8.504292,-3.992693 z" /><path
           id="path6783"
           style="opacity:1;fill:#e6e6e6;fill-opacity:1;stroke:none;stroke-width:0.219291;stroke-linecap:round;stroke-linejoin:round"
           d="m 84.096909,74.210566 c -1.82514,0.01945 -3.851114,0.786682 -5.284146,2.090369 -2.790517,2.397461 -3.583749,6.777732 -1.824567,10.022174 1.464702,2.91549 4.757148,4.730481 7.978892,4.399462 3.055367,-0.178513 5.98778,-2.401954 7.010865,-5.382365 1.203367,-3.144572 0.252109,-6.983191 -2.341123,-9.126819 -1.523572,-1.322292 -3.522326,-2.090985 -5.539921,-2.002821 z" /><path
           id="path2917"
           style="opacity:1;fill:#ffffff;fill-opacity:1;fill-rule:evenodd;stroke-width:0.314349"
           d="m 84.440841,74.204256 c -0.12201,-0.0011 -0.244126,6.91e-4 -0.366386,0.0062 -1.572447,0.01728 -3.298527,0.62542 -4.638477,1.67535 a 5.3392553,5.8954277 0 0 0 -0.570508,2.645834 5.3392553,5.8954277 0 0 0 5.339209,5.895247 5.3392553,5.8954277 0 0 0 5.339209,-5.895247 5.3392553,5.8954277 0 0 0 -0.612882,-2.741952 C 87.631252,74.80429 86.051757,74.218911 84.440841,74.204256 Z" /><path
           id="path6793"
           style="opacity:1;fill:#000000;fill-opacity:1;stroke:none;stroke-width:0.114281;stroke-linecap:round;stroke-linejoin:round"
           d="m 84.151305,79.379589 c -0.979182,0.0099 -2.066106,0.398239 -2.834922,1.0582 -1.497101,1.213656 -1.922666,3.431062 -0.978872,5.073483 0.785805,1.475895 2.552188,2.39469 4.28064,2.22712 1.639191,-0.09037 3.212418,-1.21593 3.7613,-2.724691 0.645601,-1.591864 0.135255,-3.535072 -1.256003,-4.620232 -0.817391,-0.669378 -1.889712,-1.058511 -2.972143,-1.01388 z" /><path
           id="path6795"
           style="opacity:1;fill:#af8c59;fill-opacity:1;stroke:none;stroke-width:0.116043;stroke-linecap:round;stroke-linejoin:round"
           d="m 83.869141,80.400816 c -1.771501,0.08046 -3.509333,2.076819 -2.826504,4.059231 0.911769,2.710775 4.836746,3.03284 6.152681,0.545209 0.979231,-1.54246 0.04428,-3.720724 -1.484938,-4.301678 -0.576999,-0.269988 -1.217263,-0.373747 -1.841239,-0.302762 z" /><path
           id="path3744"
           style="fill:#946553;fill-opacity:1;stroke:none;stroke-width:0.293235px;stroke-linecap:butt;stroke-linejoin:miter;stroke-opacity:1"
           d="m 81.251888,82.160876 c -0.36392,0.681757 -0.487464,1.491478 -0.20929,2.299085 0.197887,0.588336 0.537935,1.064176 0.962216,1.423169 0.651561,-0.288633 1.266577,-0.721677 1.668632,-1.066602 0.842557,-0.722834 0.75132,-1.056371 -0.341582,-1.705322 -0.539561,-0.320385 -1.323196,-0.717281 -2.079976,-0.95033 z" /><path
           id="path8714"
           style="fill:#936651;fill-opacity:1;stroke:none;stroke-width:0.264583px;stroke-linecap:butt;stroke-linejoin:miter;stroke-opacity:1"
           d="m 86.268119,81.002291 -2.175061,2.701644 2.338876,2.24379 c 0.301641,-0.250026 0.562817,-0.563662 0.76326,-0.942578 0.853327,-1.344138 0.253343,-3.170834 -0.927075,-4.002856 z" /><path
           id="path6649"
           style="fill:#523937;fill-opacity:1;stroke:none;stroke-width:0.264583px;stroke-linecap:butt;stroke-linejoin:miter;stroke-opacity:1"
           d="m 84.221216,80.379073 c -0.117616,0.0011 -0.234921,0.0084 -0.351917,0.0217 -1.064514,0.04835 -2.116859,0.788716 -2.639115,1.801957 0.810223,0.453989 2.081569,1.125733 3.10414,1.00046 1.058994,-0.129735 1.863307,-1.082011 2.444875,-1.739949 -0.29769,-0.338124 -0.662251,-0.605245 -1.068668,-0.759644 -0.468812,-0.219365 -0.979645,-0.329204 -1.489315,-0.324528 z"
           sodipodi:nodetypes="sccsccs" /><path
           id="path10996"
           style="fill:#ffffff;fill-opacity:1;fill-rule:evenodd;stroke-width:0.188503"
           d="m 85.411324,80.580611 a 1.2552706,1.2945977 0 0 0 -1.106392,1.285193 1.2552706,1.2945977 0 0 0 1.25522,1.294495 1.2552706,1.2945977 0 0 0 1.255737,-1.294495 1.2552706,1.2945977 0 0 0 -0.07803,-0.448551 c -0.289843,-0.316361 -0.639521,-0.566323 -1.027327,-0.713652 -0.09802,-0.04587 -0.197926,-0.08676 -0.299208,-0.12299 z" /><path
           id="path6799"
           style="opacity:1;fill:#000000;fill-opacity:1;stroke:none;stroke-width:0.0451481;stroke-linecap:round;stroke-linejoin:round"
           d="m 84.123706,82.556515 c -0.698974,0.03087 -1.384662,0.796754 -1.115242,1.557291 0.359754,1.039967 1.908414,1.163525 2.427636,0.209165 0.386372,-0.591752 0.01748,-1.427426 -0.585905,-1.650305 -0.227664,-0.103574 -0.48029,-0.143384 -0.726489,-0.116151 z" /><path
           id="path13108"
           style="opacity:1;fill:#818181;fill-opacity:1;stroke:none;stroke-width:0.264583px;stroke-linecap:butt;stroke-linejoin:miter;stroke-opacity:1"
           d="m 98.145947,73.332475 c -0.759378,0.635829 -1.439392,1.367379 -2.008663,2.180745 -3.147403,4.273438 -3.126713,10.565458 0.0925,14.794963 0.147513,0.206773 0.3028,0.407652 0.464055,0.603064 0.770083,-2.259801 2.644735,-4.138247 7.866701,-4.259689 l -1.11259,-9.565824 c -2.8562,-0.340024 -4.589219,-1.345694 -5.302003,-3.753259 z" /><path
           id="path14523"
           style="opacity:1;fill:#818181;fill-opacity:1;stroke:none;stroke-width:0.264583px;stroke-linecap:butt;stroke-linejoin:miter;stroke-opacity:1"
           d="m 113.51503,73.781026 c -1.80649,4.747095 -7.73079,4.082955 -7.73079,4.082955 l 0.66714,9.010303 c 2.76886,-0.605689 6.27795,0.0677 8.69508,3.119189 2.3562,-3.418495 2.90224,-8.041971 1.29449,-11.897981 -0.62778,-1.642956 -1.648,-3.116335 -2.92592,-4.314466 z" /><path
           id="path14592"
           style="fill:#c5c5c5;fill-opacity:1;fill-rule:evenodd;stroke-width:0.264583"
           d="m 105.45299,70.577087 c -0.24868,0.0029 -0.49751,0.02276 -0.7462,0.03049 -1.06488,0.08512 -2.12242,0.330293 -3.13314,0.715202 a 3.6151209,2.2246897 0 0 0 -0.0165,0.201022 3.6151209,2.2246897 0 0 0 3.61528,2.22467 3.6151209,2.2246897 0 0 0 3.61477,-2.22467 3.6151209,2.2246897 0 0 0 -0.0966,-0.510564 c -0.96627,-0.279897 -1.97099,-0.431225 -2.98896,-0.432531 -0.083,-0.0038 -0.16567,-0.0046 -0.24857,-0.0036 z" /><path
           id="ellipse15843"
           style="fill:#c5c5c5;fill-opacity:1;fill-rule:evenodd;stroke-width:0.305514"
           d="m 106.28447,91.434729 a 2.725245,2.2246897 0 0 0 -2.72542,2.22467 2.725245,2.2246897 0 0 0 0.55966,1.349272 c 1.13962,0.152602 2.30258,0.133568 3.44372,-0.08165 0.38805,-0.06575 0.77287,-0.155787 1.1529,-0.2651 a 2.725245,2.2246897 0 0 0 0.29455,-1.002523 2.725245,2.2246897 0 0 0 -2.72541,-2.224669 z" /><path
           id="path11262"
           style="opacity:1;fill:#000000;fill-opacity:1;stroke:none;stroke-width:0.226315;stroke-linecap:round;stroke-linejoin:round"
           d="m 104.72657,72.95652 c -1.86123,0.09618 -3.74115,0.86111 -5.174732,1.953608 -3.308477,2.49193 -4.587002,7.056743 -3.169151,10.832108 1.186312,3.355993 4.468633,5.996252 8.194313,6.263041 2.39176,0.217726 4.84646,-0.513766 6.70417,-1.970481 0.63891,-0.501998 1.3603,-1.219193 1.8766,-1.937703 2.41251,-3.236529 2.43332,-7.881166 0.0731,-11.14788 -1.84426,-2.631576 -5.18023,-4.296901 -8.50429,-3.992693 z" /><path
           id="path11264"
           style="opacity:1;fill:#e6e6e6;fill-opacity:1;stroke:none;stroke-width:0.2204;stroke-linecap:round;stroke-linejoin:round"
           d="m 105.16979,74.210566 c -1.84366,0.01945 -3.89021,0.786682 -5.337778,2.090369 -2.818843,2.397461 -3.620126,6.777732 -1.843089,10.022174 1.479568,2.91549 4.805427,4.730481 8.059877,4.399462 3.08638,-0.178513 6.04854,-2.401954 7.08202,-5.382365 1.21558,-3.144572 0.25467,-6.983191 -2.36488,-9.126819 -1.53904,-1.322292 -3.55808,-2.090985 -5.59615,-2.002821 z" /><path
           id="path11266"
           style="opacity:1;fill:#ffffff;fill-opacity:1;fill-rule:evenodd;stroke-width:0.314349"
           d="m 105.59895,74.204256 c -0.12201,-0.0011 -0.24413,6.91e-4 -0.36639,0.0062 -1.57245,0.01728 -3.29853,0.62542 -4.63848,1.67535 a 5.3392553,5.8954277 0 0 0 -0.57051,2.645834 5.3392553,5.8954277 0 0 0 5.33921,5.895247 5.3392553,5.8954277 0 0 0 5.33921,-5.895247 5.3392553,5.8954277 0 0 0 -0.61288,-2.741952 c -1.29975,-0.985399 -2.87925,-1.570778 -4.49016,-1.585432 z" /><path
           id="path11268"
           style="opacity:1;fill:#000000;fill-opacity:1;stroke:none;stroke-width:0.114281;stroke-linecap:round;stroke-linejoin:round"
           d="m 105.30941,79.379589 c -0.97918,0.0099 -2.06611,0.398239 -2.83492,1.0582 -1.4971,1.213656 -1.92267,3.431062 -0.97887,5.073483 0.7858,1.475895 2.55218,2.39469 4.28064,2.22712 1.63919,-0.09037 3.21241,-1.21593 3.7613,-2.724691 0.6456,-1.591864 0.13525,-3.535072 -1.25601,-4.620232 -0.81739,-0.669378 -1.88971,-1.058511 -2.97214,-1.01388 z" /><path
           id="path11270"
           style="opacity:1;fill:#af8c59;fill-opacity:1;stroke:none;stroke-width:0.116043;stroke-linecap:round;stroke-linejoin:round"
           d="m 105.02725,80.400816 c -1.77151,0.08046 -3.50934,2.076819 -2.82651,4.059231 0.91177,2.710775 4.83675,3.03284 6.15268,0.545209 0.97923,-1.54246 0.0443,-3.720724 -1.48494,-4.301678 -0.57699,-0.269988 -1.21726,-0.373747 -1.84123,-0.302762 z" /><path
           id="path11272"
           style="fill:#946553;fill-opacity:1;stroke:none;stroke-width:0.293235px;stroke-linecap:butt;stroke-linejoin:miter;stroke-opacity:1"
           d="m 102.40999,82.160876 c -0.36392,0.681757 -0.48746,1.491478 -0.20929,2.299085 0.19789,0.588336 0.53794,1.064176 0.96222,1.423169 0.65156,-0.288633 1.26658,-0.721677 1.66863,-1.066602 0.84256,-0.722834 0.75132,-1.056371 -0.34158,-1.705322 -0.53956,-0.320385 -1.3232,-0.717281 -2.07998,-0.95033 z" /><path
           id="path11274"
           style="fill:#936651;fill-opacity:1;stroke:none;stroke-width:0.264583px;stroke-linecap:butt;stroke-linejoin:miter;stroke-opacity:1"
           d="m 107.42622,81.002291 -2.17506,2.701644 2.33888,2.24379 c 0.30164,-0.250026 0.56282,-0.563662 0.76326,-0.942578 0.85333,-1.344138 0.25334,-3.170834 -0.92708,-4.002856 z" /><path
           id="path11280"
           style="fill:#523937;fill-opacity:1;stroke:none;stroke-width:0.264583px;stroke-linecap:butt;stroke-linejoin:miter;stroke-opacity:1"
           d="m 105.40713,80.323456 c -0.11762,0.0011 -0.23492,0.0084 -0.35192,0.0217 -1.06451,0.04835 -2.11686,0.788716 -2.63911,1.801957 0.81022,0.453989 2.08157,1.125733 3.10414,1.00046 1.05899,-0.129735 1.86331,-1.082011 2.44487,-1.739949 -0.29769,-0.338124 -0.66225,-0.605245 -1.06866,-0.759644 -0.46882,-0.219365 -0.97965,-0.329204 -1.48932,-0.324528 z"
           sodipodi:nodetypes="sccsccs" /><path
           id="path11278"
           style="fill:#ffffff;fill-opacity:1;fill-rule:evenodd;stroke-width:0.188503"
           d="m 106.64808,80.580611 a 1.2552706,1.2945977 0 0 0 -1.10639,1.285193 1.2552706,1.2945977 0 0 0 1.25522,1.294495 1.2552706,1.2945977 0 0 0 1.25574,-1.294495 1.2552706,1.2945977 0 0 0 -0.078,-0.448551 c -0.28985,-0.316361 -0.63952,-0.566323 -1.02733,-0.713652 -0.098,-0.04587 -0.19793,-0.08676 -0.29921,-0.12299 z" /><path
           id="path11276"
           style="opacity:1;fill:#000000;fill-opacity:1;stroke:none;stroke-width:0.0451481;stroke-linecap:round;stroke-linejoin:round"
           d="m 105.28181,82.556515 c -0.69897,0.03087 -1.38466,0.796754 -1.11524,1.557291 0.35975,1.039967 1.90841,1.163525 2.42763,0.209165 0.38638,-0.591752 0.0175,-1.427426 -0.5859,-1.650305 -0.22766,-0.103574 -0.48029,-0.143384 -0.72649,-0.116151 z" /></g><g
         id="g3063"
         inkscape:label="Mouth"
         style="display:inline"><path
           style="display:inline;opacity:1;fill:#000000;fill-opacity:1;stroke:none;stroke-width:0.148;stroke-linecap:round;stroke-linejoin:round"
           d="m 103.03761,106.14446 c -1.80611,-0.73398 -4.399977,-0.0665 -6.862713,-0.14406 -2.462737,-0.0776 -5.150167,-0.23714 -6.705222,0.30135 -2.169992,0.75143 -4.009873,2.82399 -4.40466,4.40466 -0.36301,1.45344 0.609195,2.01863 1.61242,2.08434 1.967797,0.1289 5.650416,-1.10571 9.524109,-1.28869 3.873696,-0.18299 7.650546,1.34007 8.841756,0.77744 1.13115,-0.53427 1.74841,-0.71282 1.61242,-2.24167 -0.19675,-2.21196 -1.96053,-3.21975 -3.61811,-3.89337 z"
           id="path1287"
           sodipodi:nodetypes="sssssssss" /><path
           id="path2139"
           style="opacity:1;fill:#8b5e51;fill-opacity:1;stroke-width:0.148;stroke-linecap:round;stroke-linejoin:round"
           d="m 99.917969,106.88281 c -2.908209,0.36333 -5.839323,-0.0332 -8.751953,0.16016 -1.580896,0.0979 -2.999985,0.94224 -4.01843,2.12513 -0.545898,0.63506 -1.190988,1.47701 -1.024539,2.34557 0.910089,0.51568 2.023377,0.0285 2.998857,-0.0428 3.540014,-0.62501 7.15444,-1.44516 10.757009,-0.81131 1.589517,0.18605 3.176417,0.75653 4.779287,0.61196 0.54199,-0.12412 1.14299,-0.4932 0.95313,-1.13476 -0.17899,-1.81063 -2.04759,-2.81259 -3.63672,-3.19141 -0.67959,-0.12052 -1.37077,-0.0907 -2.056641,-0.0625 z" /><path
           id="path2219"
           style="opacity:1;fill:#000000;fill-opacity:1;stroke-width:0.148;stroke-linecap:round;stroke-linejoin:round"
           d="m 88.865894,107.74381 c -0.6474,0.36673 -1.229173,0.85617 -1.718242,1.4242 -0.247418,0.28783 -0.514407,0.61858 -0.717785,0.97462 0.522454,0.0566 1.073133,0.0461 1.556494,-0.0207 1.324961,-0.18298 1.174189,-1.484 0.879533,-2.37815 z" /><path
           id="path2224"
           style="opacity:1;fill:#fefefe;fill-opacity:1;stroke-width:0.11497;stroke-linecap:round;stroke-linejoin:round"
           d="m 88.525346,107.95207 c -0.511658,0.33618 -0.976023,0.74942 -1.377694,1.21594 -0.09302,0.10821 -0.188916,0.22277 -0.283187,0.3421 0.295517,0.007 0.590212,-0.007 0.859379,-0.0398 0.988268,-0.1192 0.988764,-0.89183 0.801502,-1.51825 z" /><path
           id="path2283"
           style="opacity:1;fill:#000000;fill-opacity:1;stroke-width:0.148;stroke-linecap:round;stroke-linejoin:round"
           d="m 92.806222,106.98727 c -0.547145,0.004 -1.094093,0.0196 -1.64021,0.0558 -0.835987,0.0518 -1.626634,0.31197 -2.336809,0.72088 -8.47e-4,0.89249 0.09853,2.08254 0.742591,2.10789 1.955419,0.0769 4.873022,-0.0462 6.229077,-0.16692 0.980555,-0.0873 0.964529,-1.749 0.880566,-2.66288 -1.291565,-0.006 -2.584264,-0.0635 -3.875215,-0.0548 z" /><path
           id="path2288"
           style="opacity:1;fill:#fefefe;fill-opacity:1;stroke-width:0.131819;stroke-linecap:round;stroke-linejoin:round"
           d="m 92.806222,106.98727 c -0.547145,0.004 -1.094093,0.0196 -1.64021,0.0558 -0.663758,0.0411 -1.298708,0.21426 -1.887741,0.48834 0.02184,0.76799 0.145267,1.62627 0.633554,1.64693 1.679673,0.071 4.186265,-0.0424 5.351094,-0.154 0.701805,-0.0671 0.809318,-1.14354 0.783932,-1.98902 -1.080331,-0.0166 -2.161139,-0.0553 -3.240629,-0.0481 z" /><path
           id="path3045"
           style="opacity:1;fill:#000000;fill-opacity:1;stroke-width:0.148;stroke-linecap:round;stroke-linejoin:round"
           d="m 100.94888,106.85808 c -0.34348,-0.004 -0.68801,0.0107 -1.030948,0.0248 -1.191328,0.14884 -2.386557,0.16947 -3.582727,0.15606 -0.0196,0.85033 0.152205,2.48426 0.772563,2.55489 1.004105,0.11432 4.052582,0.41766 5.561422,-0.22273 0.65825,-0.27938 0.82319,-1.19533 0.85214,-1.86448 -0.50123,-0.25492 -1.03816,-0.43999 -1.54668,-0.56121 -0.33979,-0.0603 -0.6823,-0.0832 -1.02577,-0.0873 z" /><path
           id="path3050"
           style="opacity:1;fill:#fefefe;fill-opacity:1;stroke-width:0.125644;stroke-linecap:round;stroke-linejoin:round"
           d="m 100.94888,106.85808 c -0.34348,-0.004 -0.68801,0.0107 -1.030948,0.0248 -0.977233,0.12209 -1.95697,0.15746 -2.937805,0.15917 0.03383,0.7493 0.205511,1.74694 0.644405,1.79782 0.844825,0.0979 3.409798,0.35787 4.679298,-0.19069 0.48539,-0.20974 0.65162,-0.83812 0.70177,-1.37614 -0.34367,-0.13834 -0.69362,-0.24722 -1.03095,-0.32763 -0.33979,-0.0603 -0.6823,-0.0832 -1.02577,-0.0873 z" /><path
           id="path3150"
           style="opacity:1;fill:#000000;fill-opacity:1;stroke-width:0.148;stroke-linecap:round;stroke-linejoin:round"
           d="m 103.33529,107.41618 c -0.18336,0.98668 -0.26711,2.11152 0.17415,2.543 0.38329,0.37479 1.26171,0.38589 2.12597,0.2806 -0.006,-0.0336 -0.0138,-0.0676 -0.0243,-0.10283 -0.12874,-1.30235 -1.13155,-2.18613 -2.27583,-2.72077 z" /><path
           id="path3153"
           style="opacity:1;fill:#ffffff;fill-opacity:1;stroke-width:0.120487;stroke-linecap:round;stroke-linejoin:round"
           d="m 103.74819,107.62857 c -0.11056,0.67715 -0.12085,1.36969 0.20619,1.65933 0.28467,0.25211 0.88844,0.29173 1.52652,0.24443 -0.28185,-0.8339 -0.94806,-1.46003 -1.73271,-1.90376 z" /></g><g
         id="g3510"
         inkscape:label="Hair"
         style="display:inline"><path
           style="opacity:1;fill:#000000;fill-opacity:1;stroke:none;stroke-width:0.148;stroke-linecap:round;stroke-linejoin:round"
           d="m 110.12214,57.508229 c 0,0 -3.26976,-1.379722 -6.09008,-0.278085 -2.82033,1.101637 -3.60303,2.842649 -4.605877,4.317424 -0.09832,0.943856 0.572462,0.625283 0.961787,0.458432 0.38932,-0.166852 2.72375,-3.495308 3.97779,-4.052833 2.98457,-1.326889 5.56173,-0.08343 5.56173,-0.08343 0.38932,0.139043 0.72301,0.05562 0.19465,-0.361512 z"
           id="path3360"
           sodipodi:nodetypes="czcssccc" /><path
           style="opacity:1;fill:#000000;fill-opacity:1;stroke:none;stroke-width:0.148;stroke-linecap:round;stroke-linejoin:round"
           d="m 97.575922,61.811918 c 0.235964,-0.609574 2.667638,-6.115987 8.653008,-7.446062 2.58292,-0.573977 5.53392,-0.194661 9.17685,2.169072 0.27809,0.222469 0.11123,0.472747 -0.22247,0.361513 -2.11346,-1.334814 -5.6649,-2.390908 -8.45382,-1.696326 -5.09463,1.268821 -8.116503,6.514883 -8.352467,7.026138 -0.353946,0.216301 -0.801101,0.01827 -0.801101,-0.414335 z"
           id="path3416"
           sodipodi:nodetypes="csccscc" /><path
           style="opacity:1;fill:#000000;fill-opacity:1;stroke:none;stroke-width:0.148;stroke-linecap:round;stroke-linejoin:round"
           d="m 95.996181,61.820063 c 0.500555,-1.6129 1.700305,-4.695433 2.557574,-5.952542 1.034659,-1.517237 2.367455,-2.688215 3.670735,-3.61512 0.52836,-0.333704 1.16797,-0.361513 0.72303,-3e-6 -0.88987,0.750833 -2.59873,2.190779 -3.559507,3.615122 -0.879035,1.303159 -2.36966,5.075581 -2.508703,5.798606 -0.570246,0.648901 -0.745483,0.507883 -0.883129,0.153937 z"
           id="path3434"
           sodipodi:nodetypes="csccscc" /><path
           style="opacity:1;fill:#000000;fill-opacity:1;stroke:none;stroke-width:0.148;stroke-linecap:round;stroke-linejoin:round"
           d="m 95.716458,61.952937 c 0.04073,-0.558148 -0.687272,-4.618766 -1.167145,-5.80733 -0.905394,-2.242509 -1.220515,-2.223925 -1.557283,-2.919906 -0.166852,-0.417129 -0.277019,-0.87803 0.255988,-0.182992 0.585884,0.763994 1.642613,1.848531 2.163364,2.880424 0.650277,1.288556 1.150274,5.695516 1.150274,5.695516 -0.01966,0.884865 -0.628898,0.825879 -0.845198,0.334288 z"
           id="path3449"
           sodipodi:nodetypes="cscsscc" /><path
           style="opacity:1;fill:#000000;fill-opacity:1;stroke:none;stroke-width:0.148;stroke-linecap:round;stroke-linejoin:round"
           d="m 95.342029,61.935252 c 0,-0.305896 -1.909622,-5.239122 -3.073022,-6.484859 -1.569314,-1.680378 -4.393764,-3.309227 -5.839812,-3.670739 -0.417129,0.08343 0.339479,0.432461 0.500559,0.528363 1.493398,0.889139 2.920612,2.017313 4.226912,3.420461 1.608544,1.7278 3.053359,4.931428 3.269659,6.22923 0.117982,0.255628 0.620749,0.705099 0.915704,-0.02246 z"
           id="path3465"
           sodipodi:nodetypes="cscsscc" /><path
           style="opacity:1;fill:#000000;fill-opacity:1;stroke:none;stroke-width:0.148;stroke-linecap:round;stroke-linejoin:round"
           d="m 93.742624,61.497299 c -2.702864,-3.741726 -4.476411,-4.639271 -9.06537,-4.517432 -2.697684,0.07162 -7.730797,3.142374 -8.759716,4.115676 -0.222469,0.222469 -0.555001,0.800596 0.222469,0.250277 1.417067,-0.911831 5.624951,-3.250015 8.314778,-3.142374 4.078186,0.1632 5.173035,0.185218 8.148265,3.635701 0.671352,0.778592 1.66364,0.383646 1.139574,-0.341848 z"
           id="path3482"
           sodipodi:nodetypes="ssccsss" /><path
           style="opacity:1;fill:#000000;fill-opacity:1;stroke:none;stroke-width:0.148;stroke-linecap:round;stroke-linejoin:round"
           d="m 91.685025,61.234586 c -1.840283,-1.462203 -4.12973,-2.867674 -8.398204,-2.113456 -3.665885,0.647744 -6.757493,3.225801 -7.174622,3.726356 -1.056728,1.223579 -0.179156,0.437234 0.250275,0.166852 0.750836,-0.472751 3.61857,-2.39041 6.562836,-2.808671 2.196057,-0.311971 4.184416,-0.747786 7.842031,1.640709 1.07482,0.701879 1.803757,0.09224 0.917684,-0.61179 z"
           id="path3484"
           sodipodi:nodetypes="sscssss" /></g><g
         id="g25402"><path
           style="opacity:1;fill:#000000;fill-opacity:1;stroke:none;stroke-width:0.264583px;stroke-linecap:butt;stroke-linejoin:miter;stroke-opacity:1"
           d="m 114.4486,128.84588 c 5.1831,1.46827 5.94094,0.56687 9.19455,-0.15616 0,0 0.38763,9.69314 -5.89712,11.47289 -2.33592,-2.22469 -3.29743,-11.31673 -3.29743,-11.31673 z"
           id="path23220"
           sodipodi:nodetypes="cccc" /><path
           id="path23222"
           style="opacity:1;fill:#79add8;fill-opacity:1;stroke:none;stroke-width:0.270962px;stroke-linecap:butt;stroke-linejoin:miter;stroke-opacity:1"
           d="m 122.09788,130.18945 c -2.18232,0.61258 -4.51963,0.6573 -6.71478,0.0742 0.47922,2.9792 0.97985,6.00643 2.4827,8.66602 0.63047,-0.24208 1.30476,-0.70673 1.81671,-1.19206 2.0554,-2.03016 2.65026,-4.95989 2.87218,-7.67708 -0.15227,0.043 -0.30454,0.0859 -0.45681,0.1289 z" /><path
           id="path24290"
           style="opacity:1;fill:#578db9;fill-opacity:1;stroke:none;stroke-width:0.264583px;stroke-linecap:butt;stroke-linejoin:miter;stroke-opacity:1"
           d="m 122.55479,130.06028 c -0.15227,0.043 -0.30455,0.0862 -0.45682,0.12919 -0.67997,0.19087 -1.37527,0.32686 -2.07636,0.40566 0.15329,3.08075 0.10352,4.45345 -1.16775,4.77747 -0.65175,0.16613 -1.14582,-1.27002 -2.80383,-4.30517 0.40778,2.11372 0.74689,5.97071 1.81564,7.86207 0.63047,-0.24208 1.305,-0.70632 1.81695,-1.19165 2.0554,-2.03016 2.65025,-4.96038 2.87217,-7.67757 z"
           sodipodi:nodetypes="cccscccc" /></g><g
         id="g37789"
         inkscape:label="Left Leg"><path
           style="opacity:1;fill:#000000;fill-opacity:1;stroke:none;stroke-width:0.264583px;stroke-linecap:butt;stroke-linejoin:miter;stroke-opacity:1"
           d="m 98.514964,147.79211 c -1.020236,0.1803 -1.933697,1.32621 -2.064685,3.04787 -0.06294,0.82722 -0.13806,1.71844 1.671411,1.88771 2.48574,0.23254 5.6753,0.0892 8.61269,-0.059 0.9167,-0.0463 1.62031,-1.01059 1.67141,-1.92704 0.0708,-1.26968 -0.62607,-2.87308 -2.14334,-3.12653 -1.60249,-0.26768 -7.146278,0.0707 -7.747486,0.17698 z"
           id="path36641"
           sodipodi:nodetypes="sssssss" /><path
           id="path37495"
           style="opacity:1;fill:#818181;fill-opacity:1;stroke:none;stroke-width:0.283413px;stroke-linecap:butt;stroke-linejoin:miter;stroke-opacity:1"
           d="m 98.66499,148.57219 c -1.213928,0.28899 -1.232319,2.62462 -0.903768,2.85809 1.021065,0.72557 7.009198,0.31785 8.978218,0.0493 1.30005,-0.17732 -0.071,-3.13193 -1.43918,-3.1525 -2.45153,-0.0368 -4.62447,-0.23358 -6.63527,0.24511 z"
           sodipodi:nodetypes="sssss" /><path
           id="path37568"
           style="opacity:1;fill:#a5a5a5;fill-opacity:1;stroke:none;stroke-width:0.264583px;stroke-linecap:butt;stroke-linejoin:miter;stroke-opacity:1"
           d="m 101.81756,148.25658 c -0.47471,0.003 -0.93936,0.0167 -1.39475,0.0517 -0.30336,0.27265 -0.585535,0.66523 -0.570507,1.11569 0.02536,0.76002 0.871427,1.24103 1.625737,1.33739 0.96957,0.12386 1.99039,0.23211 2.84996,-0.1049 0.42353,-0.16604 0.91677,-0.92452 0.90382,-1.37925 -0.0125,-0.43778 -0.2892,-0.73446 -0.65216,-0.96531 -0.96096,-0.0242 -1.87945,-0.0601 -2.7621,-0.0553 z" /><path
           style="opacity:1;fill:#000000;fill-opacity:1;stroke:none;stroke-width:0.264583px;stroke-linecap:butt;stroke-linejoin:miter;stroke-opacity:1"
           d="m 97.689089,144.03635 c -2.300649,1.69107 -1.317465,3.73609 -0.373609,3.95239 1.691075,0.51126 9.43856,0 9.43856,0 1.57309,-1.21915 0.98322,-3.93273 -0.059,-4.05071 z"
           id="path36178"
           sodipodi:nodetypes="ccccc" /><path
           id="path36180"
           style="opacity:1;fill:#578db9;fill-opacity:1;stroke:none;stroke-width:0.264583px;stroke-linecap:butt;stroke-linejoin:miter;stroke-opacity:1"
           d="m 98.349119,144.7393 c -1.025504,0.11229 -1.34232,2.23728 -0.794199,2.437 1.256241,0.45774 6.37574,0.4896 8.62682,-0.0822 0.70708,-0.1796 0.92898,-2.17786 -0.0679,-2.33268 -2.64982,-0.21295 -6.357157,-0.17625 -7.764721,-0.0221 z"
           sodipodi:nodetypes="ssscs" /></g><g
         id="g39078"
         inkscape:label="Right Leg"><path
           style="opacity:1;fill:#000000;fill-opacity:1;stroke:none;stroke-width:0.264583px;stroke-linecap:butt;stroke-linejoin:miter;stroke-opacity:1"
           d="m 83.983515,144.94088 c -0.219928,0.91233 0.24076,2.21078 1.140492,2.47762 1.832694,0.54353 5.249857,0.58776 7.708156,0.45227 0.735914,-0.0406 2.293482,-0.79567 2.457957,-1.51411 0.262994,-1.14879 -0.565038,-2.29806 -1.533766,-2.96921 -2.675271,-1.39926 -8.854326,-1.83762 -9.772839,1.55343 z"
           id="path38048"
           sodipodi:nodetypes="cssscc" /><path
           id="path38050"
           style="opacity:1;fill:#578db9;fill-opacity:1;stroke:none;stroke-width:0.264583px;stroke-linecap:butt;stroke-linejoin:miter;stroke-opacity:1"
           d="m 88.308594,143.42188 c -1.262026,0.0889 -2.938083,0.44819 -3.310547,1.86328 -0.118064,0.67189 0.395291,1.04541 1.099857,1.26777 2.272947,0.36966 4.613745,0.42025 6.896866,0.19197 0.600275,-0.14088 1.538981,-0.38991 1.165107,-1.31888 -0.629019,-1.46328 -2.405684,-1.68298 -3.787141,-1.92404 -0.68345,-0.0911 -1.375639,-0.11453 -2.064142,-0.0801 z"
           sodipodi:nodetypes="ccccccc" /><path
           style="opacity:1;fill:#000000;fill-opacity:1;stroke:none;stroke-width:0.264583px;stroke-linecap:butt;stroke-linejoin:miter;stroke-opacity:1"
           d="m 83.835048,148.13523 c -0.834752,0.87521 -1.050348,2.24294 -0.630923,3.23805 0.370685,0.87948 1.300025,1.52857 2.254163,1.55105 2.577461,0.0607 6.503972,0.0442 8.66551,-0.22108 1.100289,-0.13505 1.422685,-1.20144 1.539932,-2.02058 0.119661,-0.836 -0.153555,-1.78458 -0.688226,-2.4383 -0.97623,-1.19359 -2.720264,-1.14334 -5.94507,-1.12192 -2.411534,0.016 -4.124544,-0.10996 -5.195386,1.01278 z"
           id="path38054"
           sodipodi:nodetypes="ssssssss" /><path
           id="path38056"
           style="opacity:1;fill:#818181;fill-opacity:1;stroke:none;stroke-width:0.271819px;stroke-linecap:butt;stroke-linejoin:miter;stroke-opacity:1"
           d="m 84.560547,148.73835 c -0.858846,0.95765 -0.446411,2.88865 0.987189,3.00728 1.535033,0.12701 3.702164,0.007 5.963122,-0.12712 0.632857,-0.0374 2.395281,0.17369 2.684057,-0.2036 0.654213,-0.85474 0.11593,-2.40633 -0.983977,-3.23103 -1.199661,-0.72775 -2.587736,-0.39711 -4.115299,-0.35248 -1.527563,0.0446 -3.514411,-0.28019 -4.535092,0.90695 z"
           sodipodi:nodetypes="cssscsc" /><path
           id="path38060"
           style="fill:#a5a5a5;fill-opacity:1;stroke:none;stroke-width:0.264583px;stroke-linecap:butt;stroke-linejoin:miter;stroke-opacity:1"
           d="m 91.219238,147.71812 c -0.671191,0.002 -1.380607,0.0915 -2.123384,0.11317 -0.545109,0.0159 -1.148842,-0.0146 -1.746147,-0.007 -0.358212,0.15592 -0.604836,0.37458 -0.642855,0.72502 -0.0685,0.63141 0.741199,1.11028 1.317749,1.37666 0.81656,0.37727 1.818569,0.36426 2.693893,0.1571 0.600084,-0.14202 1.443731,-0.4177 1.563212,-1.02268 0.106582,-0.53967 -0.653334,-1.12045 -1.062468,-1.34203 z" /></g><path
         style="display:inline;opacity:1;fill:#000000;fill-opacity:1;stroke:none;stroke-width:0.264583px;stroke-linecap:butt;stroke-linejoin:miter;stroke-opacity:1"
         d="m 76.807414,113.34794 c 0.556172,13.29252 2.498084,23.88971 -5.561725,23.41486 1.698671,8.55011 16.491968,8.2802 26.517279,8.19929 8.585102,-0.0693 21.953142,0.83851 23.816322,-8.19929 -7.50832,3.00334 -5.1724,-14.46048 -6.00666,-23.35924 z"
         id="path23109"
         sodipodi:nodetypes="ccsccc" /><path
         id="path23112"
         style="display:inline;opacity:1;fill:#79aeda;fill-opacity:1;stroke:none;stroke-width:0.264583px;stroke-linecap:butt;stroke-linejoin:miter;stroke-opacity:1"
         d="m 77.947266,114.96094 c 0.147722,4.48435 0.683734,9 0.480468,13.44336 -0.18535,2.45641 -0.289825,5.24423 -1.93164,7.30078 -0.765623,1.01686 -1.905176,1.72216 -3.144532,1.9668 -0.719553,0.5002 -0.04895,1.34624 0.398813,1.77843 2.348831,2.54567 5.919662,3.26488 9.188213,3.82541 6.397633,0.95133 12.887608,0.54442 19.330932,0.61065 4.4478,-0.037 9.03713,-0.1079 13.24109,-1.72929 1.89001,-0.73456 3.54201,-2.07863 4.51087,-3.87583 -1.32007,-0.19205 -2.58293,-0.85928 -3.28906,-2.02148 -1.02282,-1.65562 -1.33424,-3.68623 -1.60547,-5.53711 -0.49383,-4.78671 -0.28911,-9.79483 -0.46953,-14.69169 -0.15337,-0.45764 0.19528,-1.44121 -0.27344,-1.56808 -12.15403,-0.0176 -24.308067,-0.0397 -36.462105,-0.0566 0.0085,0.1849 0.01693,0.36979 0.02539,0.55469 z" /><g
         id="g28282"><path
           style="opacity:1;fill:#000000;fill-opacity:1;stroke:none;stroke-width:0.264583px;stroke-linecap:butt;stroke-linejoin:miter;stroke-opacity:1"
           d="m 88.457249,119.91078 c -1.101165,-0.0393 -1.573572,0.47241 -1.416263,1.6129 l 0.280882,8.43753 c 0,0 7.500422,4.32185 8.56226,4.2432 0.747219,0 7.874612,-4.67185 7.874612,-4.67185 l 0.28484,-8.26672 c -0.0393,-1.02251 -0.91176,-1.2208 -1.541,-1.29945 z"
           id="path23118"
           sodipodi:nodetypes="cccccccc" /><path
           id="path23120"
           style="opacity:1;fill:#79aeda;fill-opacity:1;stroke:none;stroke-width:0.264583px;stroke-linecap:butt;stroke-linejoin:miter;stroke-opacity:1"
           d="m 88.099609,120.98633 c 0.04861,2.77558 0.184608,5.56357 0.261719,8.34375 2.433107,1.33725 4.827354,2.78775 7.429688,3.77539 1.211631,-0.52549 2.334887,-1.29233 3.478064,-1.97187 1.15981,-0.71365 2.2993,-1.45961 3.44967,-2.18829 0.056,-2.58335 0.24757,-5.18744 0.20703,-7.75781 -0.76318,-0.33942 -1.66279,-0.0717 -2.48124,-0.17091 -4.114851,-0.0114 -8.230578,-0.0498 -12.344931,-0.0303 z" /><path
           id="path26130"
           style="fill:#568dba;fill-opacity:1;stroke:none;stroke-width:0.264583px;stroke-linecap:butt;stroke-linejoin:miter;stroke-opacity:1"
           d="m 88.126921,122.22303 c 0.06074,2.36637 0.168945,4.73953 0.234611,7.10706 2.433104,1.33725 4.827189,2.78784 7.42952,3.77548 1.21163,-0.52549 2.334648,-1.29243 3.477824,-1.97197 1.159804,-0.71365 2.299554,-1.45982 3.449914,-2.1885 0.0247,-1.14155 0.0755,-2.28688 0.12144,-3.43183 -4.036937,4.34997 -8.975128,6.76102 -14.713309,-3.29024 z" /></g><path
         id="path32704"
         style="opacity:1;fill:#578db9;fill-opacity:1;stroke:none;stroke-width:0.264583px;stroke-linecap:butt;stroke-linejoin:miter;stroke-opacity:1"
         d="m 77.921859,114.40645 c 0.0085,0.1849 0.01686,0.36959 0.02532,0.55449 0.147722,4.48435 0.683857,8.99975 0.480591,13.44311 -0.18535,2.45641 -0.289852,5.2443 -1.931665,7.30085 -0.765622,1.01685 -1.905156,1.72216 -3.144511,1.9668 -0.719552,0.5002 -0.04882,1.34651 0.398942,1.7787 2.348829,2.54567 5.919522,3.26456 9.18807,3.82509 6.397626,0.95133 12.887802,0.54459 19.331124,0.61082 4.44779,-0.037 9.03709,-0.10771 13.24105,-1.7291 1.89001,-0.73455 3.54198,-2.07853 4.51083,-3.87573 -1.32006,-0.19205 -2.58307,-0.85938 -3.2892,-2.02158 -1.02282,-1.65562 -1.33436,-3.68625 -1.60559,-5.53713 -0.49383,-4.78671 -0.2888,-9.79475 -0.46922,-14.69161 -0.15337,-0.45764 0.19535,-1.44151 -0.27337,-1.56838 l -2.11976,-0.003 -1.36375,1.66915 -0.2222,1.3348 c 0,0 -3.72671,1.39041 -4.56097,2.66961 2.16907,-0.55617 5.11674,-0.83439 5.33921,-0.33383 0.16685,0.38932 -2.72496,2.61433 -2.00194,6.34069 1.00111,-2.28031 2.3359,-3.67083 3.11454,-3.8933 0.44494,-0.44494 1.11207,0.77877 1.11207,0.77877 0.0556,2.44716 0.056,7.06307 -0.38893,8.11979 -1.89098,1.44605 -2.55874,2.16903 -4.44972,3.05891 2.72524,-0.0556 5.39521,-1.39015 5.39521,-1.39015 -0.22247,0.88988 -3.22616,3.05891 -3.6711,3.55947 1.83537,-0.55617 3.5597,-1.2793 4.44974,-1.50178 0.0556,0.3337 -2.05808,2.16904 -2.33617,2.94768 1.6129,-0.50056 2.78083,-1.77948 3.337,-1.05645 0,0 1.27907,1.05644 1.22345,1.94632 -4.78309,3.44825 -29.371321,4.49532 -40.841957,-0.0248 -0.196637,-0.78655 0.19422,-1.95702 1.020093,-2.31097 1.769728,1.25847 2.714563,1.1312 2.714563,1.1312 0,0 -0.769219,-0.4781 -1.713074,-3.46698 0.233237,-0.54184 3.781682,1.00098 3.781682,1.00098 l -2.446879,-3.33727 h 4.894274 c 0,0 -2.084194,-0.93366 -3.932576,-1.79885 l -1.184424,-1.42679 c 0,0 -0.207491,-4.10813 0.444934,-6.00687 0.130329,-0.37929 0.66766,-1.00097 0.66766,-1.00097 1.415782,0.90453 3.224252,4.78429 3.10627,3.56515 -0.03933,-1.25847 -0.107586,-3.29335 -1.562695,-5.57433 0,-1.06184 1.682873,-0.39892 4.907711,-0.43822 -2.752911,-1.21915 -3.670577,-2.11305 -3.670577,-2.11305 l -0.556039,-1.66863 -0.675928,-0.82579 c -1.424018,-0.002 -2.848072,-0.005 -4.27209,-0.007 z"
         sodipodi:nodetypes="cccccccccccccccccccccccccccccccccccccccsccccccccc" /><path
         style="fill:#000101;fill-opacity:1;stroke:none;stroke-width:0.264583px;stroke-linecap:butt;stroke-linejoin:miter;stroke-opacity:1"
         d="m 109.99854,133.75225 c 0.82587,-0.31462 3.46081,-1.21914 5.0339,-3.77542 l 0.27529,1.33713 c -1.14049,1.45511 -4.01139,2.35964 -5.30919,2.43829 z"
         id="path28387"
         sodipodi:nodetypes="cccc" /><path
         style="fill:#000000;fill-opacity:1;stroke:none;stroke-width:0.264583px;stroke-linecap:butt;stroke-linejoin:miter;stroke-opacity:1"
         d="m 115.46504,132.02185 c -0.51126,1.25847 -3.4608,3.34282 -3.4608,3.34282 0,0 2.12367,-0.39327 3.73609,-1.84838 z"
         id="path28389"
         sodipodi:nodetypes="cccc" /><path
         style="fill:#000000;fill-opacity:1;stroke:none;stroke-width:0.264583px;stroke-linecap:butt;stroke-linejoin:miter;stroke-opacity:1"
         d="m 116.01563,134.30283 c -0.38932,0.83426 -2.20711,2.73465 -2.20711,2.73465 0,0 1.0431,-0.13379 2.60038,-1.83012 z"
         id="path28391"
         sodipodi:nodetypes="cccc" /><g
         id="g22923"
         transform="matrix(-1,0,0,1,193.0896,0.66740694)"
         style="display:inline"><path
           style="opacity:1;fill:#000000;fill-opacity:1;stroke:none;stroke-width:0.264583px;stroke-linecap:butt;stroke-linejoin:miter;stroke-opacity:1;filter:url(#filter22085)"
           d="m 80.95531,117.13646 c 1.906796,0.40008 2.988876,0.66856 5.053561,1.76972 -1.897544,-0.26546 -3.411646,-0.49159 -5.279694,-0.77671 z"
           id="path22913"
           sodipodi:nodetypes="cccc" /><path
           style="opacity:1;fill:#000000;fill-opacity:1;stroke:none;stroke-width:0.264583px;stroke-linecap:butt;stroke-linejoin:miter;stroke-opacity:1;filter:url(#filter22089)"
           d="m 79.755827,119.63374 c 0.924192,0.80621 2.71552,2.63691 3.539459,4.58163 0.03933,-3.08719 -2.438296,-4.85692 -2.969215,-5.30918 z"
           id="path22915"
           sodipodi:nodetypes="cccc" /><path
           style="opacity:1;fill:#000000;fill-opacity:1;stroke:none;stroke-width:0.264583px;stroke-linecap:butt;stroke-linejoin:miter;stroke-opacity:1"
           d="m 69.187852,109.45473 c 2.224689,0.55617 9.955486,5.17241 12.041133,6.25695 1.334814,0.52836 -1.112346,5.67295 -2.308117,5.28363 -2.586202,-0.61179 -9.204653,-4.31033 -10.094529,-5.31144 -0.834259,-0.83426 -1.418238,-1.69632 -1.390429,-2.64182 0,-1.33481 0.66962,-3.80997 1.751942,-3.58732 z"
           id="path22917"
           sodipodi:nodetypes="cccccc" /><path
           id="path22919"
           style="opacity:1;fill:#78aed9;fill-opacity:1;stroke:none;stroke-width:0.264583px;stroke-linecap:butt;stroke-linejoin:miter;stroke-opacity:1"
           d="m 69.136719,110.61914 c -0.267931,0.64886 -0.539899,1.79785 -0.346356,2.76721 0.68695,1.76546 2.684175,2.29963 4.172215,3.24532 1.990639,1.14731 3.875494,2.22082 5.929071,3.0682 0.928889,-0.86331 1.320371,-2.01473 1.663039,-3.1901 -3.284246,-1.67414 -7.41157,-3.84633 -8.994797,-4.72555 -0.706043,-0.36034 -1.456232,-0.90714 -2.423172,-1.16508 z"
           sodipodi:nodetypes="ccccccc" /><path
           style="fill:#000000;fill-opacity:1;stroke:none;stroke-width:0.264583px;stroke-linecap:butt;stroke-linejoin:miter;stroke-opacity:1"
           d="m 78.266464,116.7438 c 0,0 -0.27808,-0.73694 -0.38932,-0.70912 -0.11123,0.0278 -0.87402,0.50846 -0.91768,0.94549 -0.046,0.46053 0.32407,0.98883 0.75083,1.16796 0.46265,0.19419 1.18363,0.1034 1.47386,-0.3059 0.24341,-0.34328 -0.16685,-1.25138 -0.16685,-1.25138 z"
           id="path22921"
           sodipodi:nodetypes="csssscc" /><path
           id="path27517"
           style="opacity:1;fill:#568db9;fill-opacity:1;stroke:none;stroke-width:0.264583px;stroke-linecap:butt;stroke-linejoin:miter;stroke-opacity:1"
           d="m 69.136959,110.61934 c 0.966939,0.25794 1.717066,0.80445 2.423108,1.16479 0.789082,0.4382 2.21055,1.19789 3.84421,2.05672 -0.1697,1.5649 -0.256588,2.91341 -0.324011,3.99149 -0.700751,-0.38616 -1.402368,-0.78816 -2.117701,-1.20045 -1.488038,-0.94569 -3.485405,-1.48034 -4.172355,-3.24579 -0.193542,-0.96936 0.07882,-2.1179 0.346749,-2.76676 z" /></g><path
         style="fill:#000000;fill-opacity:1;stroke:none;stroke-width:0.264583px;stroke-linecap:butt;stroke-linejoin:miter;stroke-opacity:1"
         d="m 77.525687,128.54953 c 1.587067,1.29269 4.696581,2.4327 5.808926,2.96106 -0.889876,0.19466 -4.673545,-0.8346 -5.702464,-1.14049 z"
         id="path29443"
         sodipodi:nodetypes="cccc" /><path
         style="fill:#000000;fill-opacity:1;stroke:none;stroke-width:0.264583px;stroke-linecap:butt;stroke-linejoin:miter;stroke-opacity:1"
         d="m 78.050895,130.99293 c 0.500555,1.02892 3.094663,3.35052 3.094663,3.35052 -1.446048,-0.58398 -3.143531,-1.60336 -3.393809,-1.99268 z"
         id="path29445"
         sodipodi:nodetypes="cccc" /><path
         style="fill:#000000;fill-opacity:1;stroke:none;stroke-width:0.264583px;stroke-linecap:butt;stroke-linejoin:miter;stroke-opacity:1"
         d="m 77.511013,133.39681 c 0.111239,0.86206 1.131771,2.61516 1.743561,3.36599 -0.389321,-0.11123 -1.79243,-1.23428 -2.432028,-2.06854 z"
         id="path29447"
         sodipodi:nodetypes="cccc" /><g
         id="g22910"
         style="display:inline"><path
           style="opacity:1;fill:#000000;fill-opacity:1;stroke:none;stroke-width:0.264583px;stroke-linecap:butt;stroke-linejoin:miter;stroke-opacity:1;filter:url(#filter22085)"
           d="m 80.95531,117.13646 c 1.906796,0.40008 2.988876,0.66856 5.053561,1.76972 -1.897544,-0.26546 -3.411646,-0.49159 -5.279694,-0.77671 z"
           id="path22083"
           sodipodi:nodetypes="cccc" /><path
           style="opacity:1;fill:#000000;fill-opacity:1;stroke:none;stroke-width:0.264583px;stroke-linecap:butt;stroke-linejoin:miter;stroke-opacity:1;filter:url(#filter22089)"
           d="m 79.755827,119.63374 c 0.924192,0.80621 2.71552,2.63691 3.539459,4.58163 0.03933,-3.08719 -2.438296,-4.85692 -2.969215,-5.30918 z"
           id="path22081"
           sodipodi:nodetypes="cccc" /><path
           style="opacity:1;fill:#000000;fill-opacity:1;stroke:none;stroke-width:0.264583px;stroke-linecap:butt;stroke-linejoin:miter;stroke-opacity:1"
           d="m 69.187852,109.45473 c 2.224689,0.55617 9.955486,5.17241 12.041133,6.25695 1.334814,0.52836 -1.112346,5.67295 -2.308117,5.28363 -2.586202,-0.61179 -9.204653,-4.31033 -10.094529,-5.31144 -0.834259,-0.83426 -1.418238,-1.69632 -1.390429,-2.64182 0,-1.33481 0.66962,-3.80997 1.751942,-3.58732 z"
           id="path19372"
           sodipodi:nodetypes="cccccc" /><path
           id="path19374"
           style="opacity:1;fill:#78aed9;fill-opacity:1;stroke:none;stroke-width:0.264583px;stroke-linecap:butt;stroke-linejoin:miter;stroke-opacity:1"
           d="m 69.136719,110.61914 c -0.267931,0.64886 -0.539899,1.79785 -0.346356,2.76721 0.68695,1.76546 2.684175,2.29963 4.172215,3.24532 1.990639,1.14731 3.875494,2.22082 5.929071,3.0682 0.928889,-0.86331 1.320371,-2.01473 1.663039,-3.1901 -3.284246,-1.67414 -7.41157,-3.84633 -8.994797,-4.72555 -0.706043,-0.36034 -1.456232,-0.90714 -2.423172,-1.16508 z"
           sodipodi:nodetypes="ccccccc" /><path
           id="path29632"
           style="opacity:1;fill:#568db9;fill-opacity:1;stroke:none;stroke-width:0.264583px;stroke-linecap:butt;stroke-linejoin:miter;stroke-opacity:1"
           d="m 69.136865,110.61909 c -0.26793,0.64886 -0.540291,1.79791 -0.346749,2.76727 0.68695,1.76546 2.684317,2.29959 4.172356,3.24528 0.282731,0.16295 0.563076,0.32364 0.842325,0.48318 0.08107,-1.17136 0.206485,-2.51653 0.371037,-3.92225 -1.102705,-0.58439 -2.033307,-1.08467 -2.615861,-1.40818 -0.706042,-0.36034 -1.456169,-0.90736 -2.423108,-1.1653 z" /><path
           style="fill:#000000;fill-opacity:1;stroke:none;stroke-width:0.264583px;stroke-linecap:butt;stroke-linejoin:miter;stroke-opacity:1"
           d="m 78.266464,116.7438 c 0,0 -0.27808,-0.73694 -0.38932,-0.70912 -0.11123,0.0278 -0.87402,0.50846 -0.91768,0.94549 -0.046,0.46053 0.32407,0.98883 0.75083,1.16796 0.46265,0.19419 1.18363,0.1034 1.47386,-0.3059 0.24341,-0.34328 -0.16685,-1.25138 -0.16685,-1.25138 z"
           id="path22000"
           sodipodi:nodetypes="csssscc" /></g><g
         id="g40191"
         inkscape:label="Right Hand"><path
           style="opacity:1;fill:#000000;fill-opacity:1;stroke:none;stroke-width:0.264583px;stroke-linecap:butt;stroke-linejoin:miter;stroke-opacity:1"
           d="m 67.957627,135.28602 c -1.316713,-0.029 -2.475255,0.71306 -2.713585,1.53377 -0.831669,2.8639 1.166196,9.73346 4.522643,12.62407 1.960851,1.6887 5.283283,2.44189 7.708157,0.90453 1.530313,-0.97022 3.221685,-2.7853 3.106857,-4.67995 -0.07865,-1.29781 -0.754866,-2.26488 -1.769729,-2.7136 -1.464146,-0.64737 -3.224843,0.74722 -3.224843,0.74722 0,0 -1.564254,-4.09469 -2.713585,-6.72497 -0.708045,-1.62038 -3.200839,-1.65334 -4.915915,-1.69107 z"
           id="path40174"
           sodipodi:nodetypes="sssssscss" /><path
           id="path40176"
           style="opacity:1;fill:#a5a5a5;fill-opacity:1;stroke:none;stroke-width:0.264583px;stroke-linecap:butt;stroke-linejoin:miter;stroke-opacity:1"
           d="m 67.460938,136.37891 c -0.76869,0.0802 -1.17409,1.06355 -1.037177,1.87163 -0.101153,3.01875 0.835293,5.40099 2.30915,7.99317 1.126325,1.92401 2.906815,3.45671 5.202798,3.63861 2.320012,0.25813 4.288446,-1.0427 5.146156,-3.15392 0.527166,-1.16179 0.04287,-2.89166 -1.392877,-2.7617 -1.092952,0.208 -1.41436,0.57983 -2.607609,0.82246 -1.435026,-2.5071 -2.158462,-5.89006 -2.931292,-6.66428 -1.23489,-1.23408 -3.009295,-1.82207 -4.689149,-1.74597 z"
           sodipodi:nodetypes="ccccccccc" /><path
           id="path40182"
           style="opacity:1;fill:#818181;fill-opacity:1;stroke:none;stroke-width:0.264583px;stroke-linecap:butt;stroke-linejoin:miter;stroke-opacity:1"
           d="m 66.418685,138.9078 c 0.04553,2.71346 0.948898,4.93496 2.314071,7.33599 1.126323,1.924 2.906802,3.45663 5.202783,3.63853 2.320009,0.25813 4.288746,-1.04259 5.146456,-3.15381 0.527165,-1.16179 0.04255,-2.89155 -1.393197,-2.76159 -1.092951,0.208 -1.414345,0.57955 -2.607593,0.82218 -0.156069,-0.27267 -0.295204,-0.52701 -0.425297,-0.77153 -0.273552,0.26143 -0.570323,0.45006 -0.858345,0.45113 -1.941959,0.007 -2.383653,-3.81177 -4.10931,-4.12895 -1.830667,-0.33648 -2.696178,-0.84032 -3.269568,-1.43195 z" /><path
           style="opacity:1;fill:#000000;fill-opacity:1;stroke:none;stroke-width:0.264583px;stroke-linecap:butt;stroke-linejoin:miter;stroke-opacity:1"
           d="m 75.036547,144.70492 c 0.294229,0.7722 2.231907,0.74444 2.163003,1.59275 -0.07143,0.87946 -1.422288,1.10642 -2.300648,1.0225 -1.933965,-0.18476 -2.735287,-2.01547 -4.738944,-3.36248 -0.168716,-0.11342 -0.524527,-0.24858 -0.09832,0.4916 0.801958,1.39272 1.571606,2.66902 3.618115,3.79508 1.189267,0.73905 4.488127,-0.22023 4.365333,-2.02538 -0.135071,-0.9452 -1.175024,-1.95642 -2.123674,-2.06468 -0.448029,-0.0511 -1.045423,0.12922 -0.884865,0.55061 z"
           id="path40180"
           sodipodi:nodetypes="sssssccss" /></g></g></g></svg>
