<?xml version="1.0" encoding="UTF-8" standalone="no"?>
<!-- Created with Inkscape (http://www.inkscape.org/) -->

<svg
   width="210mm"
   height="297mm"
   viewBox="0 0 210 297"
   version="1.1"
   id="svg5"
   xml:space="preserve"
   inkscape:version="1.2 (dc2aedaf03, 2022-05-15)"
   sodipodi:docname="mountains-2.svg"
   xmlns:inkscape="http://www.inkscape.org/namespaces/inkscape"
   xmlns:sodipodi="http://sodipodi.sourceforge.net/DTD/sodipodi-0.dtd"
   xmlns:xlink="http://www.w3.org/1999/xlink"
   xmlns="http://www.w3.org/2000/svg"
   xmlns:svg="http://www.w3.org/2000/svg"><sodipodi:namedview
     id="namedview7"
     pagecolor="#ffffff"
     bordercolor="#666666"
     borderopacity="1.0"
     inkscape:showpageshadow="2"
     inkscape:pageopacity="0.0"
     inkscape:pagecheckerboard="0"
     inkscape:deskcolor="#d1d1d1"
     inkscape:document-units="mm"
     showgrid="false"
     inkscape:zoom="0.89263468"
     inkscape:cx="268.30685"
     inkscape:cy="534.37314"
     inkscape:window-width="2560"
     inkscape:window-height="1377"
     inkscape:window-x="1912"
     inkscape:window-y="-8"
     inkscape:window-maximized="1"
     inkscape:current-layer="layer1" /><defs
     id="defs2"><linearGradient
       inkscape:collect="always"
       id="linearGradient10847"><stop
         style="stop-color:#0a0a0a;stop-opacity:1;"
         offset="0"
         id="stop10843" /><stop
         style="stop-color:#474747;stop-opacity:1;"
         offset="0.48611116"
         id="stop10975" /><stop
         style="stop-color:#585555;stop-opacity:0.90680099;"
         offset="0.85185194"
         id="stop10977" /><stop
         style="stop-color:#171717;stop-opacity:0;"
         offset="1"
         id="stop10845" /></linearGradient><radialGradient
       inkscape:collect="always"
       xlink:href="#linearGradient10847"
       id="radialGradient10849"
       cx="65.755295"
       cy="89.509003"
       fx="65.755295"
       fy="89.509003"
       r="33.978813"
       gradientTransform="matrix(1.059767,0.00863363,-3.7878895e-4,0.05092438,-3.2668533,84.540415)"
       gradientUnits="userSpaceOnUse" /><filter
       inkscape:collect="always"
       style="color-interpolation-filters:sRGB"
       id="filter10979"
       x="-0.012755706"
       y="-0.25511415"
       width="1.0255114"
       height="1.5102283"><feGaussianBlur
         inkscape:collect="always"
         stdDeviation="0.36787511"
         id="feGaussianBlur10981" /></filter></defs><g
     inkscape:label="Layer 1"
     inkscape:groupmode="layer"
     id="layer1"><g
       id="g6716"
       transform="translate(-93.368263,-18.673653)"><rect
         style="fill:#b4b4b4;fill-opacity:1;stroke:none;stroke-width:0;stroke-linecap:round;stroke-linejoin:round;stroke-dasharray:none;paint-order:markers stroke fill"
         id="rect6709"
         width="47.826294"
         height="43.166817"
         x="124.29044"
         y="40.069286"
         rx="0.31224146"
         ry="0.090615906" /><path
         id="path2660"
         style="color:#000000;fill:#2e834f;fill-opacity:1;fill-rule:evenodd;stroke-width:5.8959;stroke-linecap:round;stroke-linejoin:round;-inkscape-stroke:none"
         d="m 148.82127,50.132734 a 2.8606364,3.0385392 0 0 0 -2.53446,1.6298 l -11.17958,22.70865 h 27.42893 l -11.17958,-22.70865 a 2.8606364,3.0385392 0 0 0 -2.53531,-1.6298 z" /><path
         id="path2667"
         style="color:#000000;fill:#ffffff;fill-opacity:1;fill-rule:evenodd;stroke:none;stroke-width:4.90687;stroke-linecap:round;stroke-linejoin:round;stroke-opacity:1"
         d="m 148.82127,50.132734 a 2.8606364,3.0385392 0 0 0 -2.53446,1.6298 l -3.97943,8.08329 0.0823,0.16621 a 1.4849142,1.5672103 0 0 0 1.31559,0.84058 1.4849142,1.5672103 0 0 0 1.31602,-0.84058 l 0.17624,-0.35592 0.72345,1.25335 a 2.5777778,2.335571 0 0 0 2.28385,1.25266 2.5777778,2.335571 0 0 0 2.2847,-1.25266 l 1.05295,-1.82409 a 1.9606313,1.7143432 0 0 0 1.5937,0.71982 1.9606313,1.7143432 0 0 0 1.73126,-0.9109 l -3.51088,-7.13176 a 2.8606364,3.0385392 0 0 0 -2.53531,-1.6298 z" /><path
         id="path5816"
         style="fill:#23653d;fill-opacity:1;stroke:none;stroke-width:0.113415px;stroke-linecap:butt;stroke-linejoin:miter;stroke-opacity:1"
         d="m 139.44086,65.668524 -4.33363,8.80266 h 27.42893 l -2.66083,-5.40492 c -3.52678,0.14837 -7.54705,2.17972 -11.30037,1.86929 -5.60127,-0.46327 -5.50655,-3.9259 -9.1341,-5.26703 z" /><ellipse
         style="mix-blend-mode:normal;fill:url(#radialGradient10849);fill-opacity:1;stroke:none;stroke-width:0;stroke-linecap:round;stroke-linejoin:round;stroke-dasharray:none;paint-order:markers stroke fill;filter:url(#filter10979)"
         id="path10818"
         cx="66.384529"
         cy="89.666313"
         rx="34.608051"
         ry="1.7304024"
         transform="matrix(0.50252311,0,0,0.45169835,115.58521,34.019364)" /></g></g></svg>
