<?xml version="1.0" encoding="UTF-8" standalone="no"?>
<!-- Created with Inkscape (http://www.inkscape.org/) -->

<svg
   width="210mm"
   height="297mm"
   viewBox="0 0 210 297"
   version="1.1"
   id="svg5"
   xml:space="preserve"
   inkscape:version="1.2 (dc2aedaf03, 2022-05-15)"
   sodipodi:docname="mountains-3.svg"
   xmlns:inkscape="http://www.inkscape.org/namespaces/inkscape"
   xmlns:sodipodi="http://sodipodi.sourceforge.net/DTD/sodipodi-0.dtd"
   xmlns:xlink="http://www.w3.org/1999/xlink"
   xmlns="http://www.w3.org/2000/svg"
   xmlns:svg="http://www.w3.org/2000/svg"><sodipodi:namedview
     id="namedview7"
     pagecolor="#ffffff"
     bordercolor="#666666"
     borderopacity="1.0"
     inkscape:showpageshadow="2"
     inkscape:pageopacity="0.0"
     inkscape:pagecheckerboard="0"
     inkscape:deskcolor="#d1d1d1"
     inkscape:document-units="mm"
     showgrid="false"
     inkscape:zoom="1.6819304"
     inkscape:cx="335.0317"
     inkscape:cy="279.14353"
     inkscape:window-width="1920"
     inkscape:window-height="1058"
     inkscape:window-x="-8"
     inkscape:window-y="-8"
     inkscape:window-maximized="1"
     inkscape:current-layer="layer1" /><defs
     id="defs2"><linearGradient
       inkscape:collect="always"
       id="linearGradient10847"><stop
         style="stop-color:#0a0a0a;stop-opacity:1;"
         offset="0"
         id="stop10843" /><stop
         style="stop-color:#474747;stop-opacity:1;"
         offset="0.48611116"
         id="stop10975" /><stop
         style="stop-color:#585555;stop-opacity:0.90680099;"
         offset="0.85185194"
         id="stop10977" /><stop
         style="stop-color:#171717;stop-opacity:0;"
         offset="1"
         id="stop10845" /></linearGradient><filter
       inkscape:collect="always"
       style="color-interpolation-filters:sRGB"
       id="filter10979"
       x="-0.012755706"
       y="-0.25511415"
       width="1.0255114"
       height="1.5102283"><feGaussianBlur
         inkscape:collect="always"
         stdDeviation="0.36787511"
         id="feGaussianBlur10981" /></filter><radialGradient
       inkscape:collect="always"
       xlink:href="#linearGradient10847"
       id="radialGradient6291"
       gradientUnits="userSpaceOnUse"
       gradientTransform="matrix(1.059767,0.00863363,-3.7878895e-4,0.05092438,-3.2668533,84.540415)"
       cx="65.755295"
       cy="89.509003"
       fx="65.755295"
       fy="89.509003"
       r="33.978813" /></defs><g
     inkscape:label="Layer 1"
     inkscape:groupmode="layer"
     id="layer1"><g
       id="g428"><rect
         style="fill:#b4b4b4;fill-opacity:1;stroke:none;stroke-width:0;stroke-linecap:round;stroke-linejoin:round;stroke-dasharray:none;paint-order:markers stroke fill"
         id="rect6273"
         width="47.826294"
         height="43.166817"
         x="33.102291"
         y="21.799583"
         rx="0.31224146"
         ry="0.090615906" /><path
         id="path400"
         style="fill:#83819b;fill-opacity:1;stroke:none;stroke-width:0.175504px;stroke-linecap:butt;stroke-linejoin:miter;stroke-opacity:1"
         d="m 50.702786,30.63438 c 0,0 -0.668458,9.24194 -3.413662,18.21527 -0.847779,2.77117 -1.926063,5.42261 -3.056396,7.83195 h 27.278167 c -1.13033,-2.40934 -2.20862,-5.06078 -3.0564,-7.83195 -2.74521,-8.97333 -3.41366,-18.21527 -3.41366,-18.21527 h -4.77951 -4.77927 z" /><path
         id="path4015"
         style="fill:#6c6982;fill-opacity:1;stroke:none;stroke-width:0.132271px;stroke-linecap:butt;stroke-linejoin:miter;stroke-opacity:1"
         d="m 47.502956,48.13351 c -0.07007,0.23873 -0.140858,0.47749 -0.213832,0.71601 -0.847778,2.77116 -1.926065,5.42283 -3.056396,7.83218 h 27.278167 c -1.13033,-2.40935 -2.20862,-5.06102 -3.0564,-7.83218 -0.0389,-0.12703 -0.0759,-0.25417 -0.11398,-0.38128 -3.1498,1.33253 -6.68507,2.74644 -10.46871,2.78325 -4.30553,0.0419 -7.274957,-1.49769 -10.368849,-3.11798 z" /><path
         id="path5537"
         style="fill:#ff681d;fill-opacity:1;stroke:none;stroke-width:0.132271px;stroke-linecap:butt;stroke-linejoin:miter;stroke-opacity:1"
         d="m 50.702786,30.63438 c 0,0 -0.0729,0.98859 -0.262682,2.61602 0.05637,0.9993 0.145791,1.9957 0.288303,2.8139 0.558046,2.44604 0.62251,-6.75932 1.530592,-0.67867 0.898343,6.01543 -0.964455,9.61296 0.381867,10.25494 3.135769,0.657 1.576399,-10.31749 2.971209,-8.30337 0.593,0.74145 0.38957,4.07225 1.53084,4.15731 2.17433,0.0622 -0.005,-6.46425 1.16507,-6.73448 0.7174,0.005 1.370889,1.688005 1.5936,2.74048 0.301355,0.777175 0.644471,1.502107 1.436407,1.398729 1.642792,-0.214445 2.172723,-6.315909 2.583873,-2.325729 0.11958,2.29331 -0.71743,5.81177 0.6561,5.68468 2.90597,-0.58622 -0.7404,-9.58521 0.14583,-8.2299 0.96376,1.47388 0.66197,3.34509 1.00404,2.41005 -0.51715,-3.46471 -0.687,-5.80396 -0.687,-5.80396 h -4.77951 -4.77927 z"
         sodipodi:nodetypes="cccscccccsccsccccc" /><path
         id="path6268"
         style="fill:#ffcf00;fill-opacity:1;stroke:none;stroke-width:0.132271px;stroke-linecap:butt;stroke-linejoin:miter;stroke-opacity:1"
         d="m 50.702786,30.63438 c 0,0 -0.03759,0.50278 -0.124517,1.35705 0.234564,0.12271 0.458947,0.21369 0.660176,0.25503 1.239176,0.25454 1.46553,-1.43776 2.004713,-0.89077 0.490077,0.49717 0.863687,-0.16638 1.275577,-0.0426 0.60119,0.1806 1.17035,0.92127 1.60362,1.10315 0.36922,0.15501 1.01976,-1.35583 1.53083,-1.01814 0.54051,0.35713 1.162,0.99472 1.4578,0.50894 0.42546,-0.69871 1.56786,1.32662 2.44196,1.18789 0.72003,-0.1143 1.01376,-1.33866 1.71282,-1.56974 1.31107,-0.43337 1.38163,0.82954 1.94149,0.86848 -0.11822,-1.10651 -0.16642,-1.75924 -0.16642,-1.75924 h -4.77951 -4.77927 z" /><ellipse
         style="mix-blend-mode:normal;fill:url(#radialGradient6291);fill-opacity:1;stroke:none;stroke-width:0;stroke-linecap:round;stroke-linejoin:round;stroke-dasharray:none;paint-order:markers stroke fill;filter:url(#filter10979)"
         id="ellipse6287"
         cx="66.384529"
         cy="89.666313"
         rx="34.608051"
         ry="1.7304024"
         transform="matrix(0.51922639,0,0,0.56875981,22.882618,5.55829)" /></g></g></svg>
