<?xml version="1.0" encoding="UTF-8" standalone="no"?>
<!-- Created with Inkscape (http://www.inkscape.org/) -->

<svg
   width="210mm"
   height="297mm"
   viewBox="0 0 210 297"
   version="1.1"
   id="svg5"
   inkscape:version="1.2 (dc2aedaf03, 2022-05-15)"
   sodipodi:docname="pacman-ghost.svg"
   xmlns:inkscape="http://www.inkscape.org/namespaces/inkscape"
   xmlns:sodipodi="http://sodipodi.sourceforge.net/DTD/sodipodi-0.dtd"
   xmlns:xlink="http://www.w3.org/1999/xlink"
   xmlns="http://www.w3.org/2000/svg"
   xmlns:svg="http://www.w3.org/2000/svg">
  <sodipodi:namedview
     id="namedview7"
     pagecolor="#ffffff"
     bordercolor="#666666"
     borderopacity="1.0"
     inkscape:showpageshadow="2"
     inkscape:pageopacity="0.0"
     inkscape:pagecheckerboard="0"
     inkscape:deskcolor="#d1d1d1"
     inkscape:document-units="mm"
     showgrid="false"
     inkscape:zoom="1.0201301"
     inkscape:cx="318.0967"
     inkscape:cy="153.41181"
     inkscape:window-width="1920"
     inkscape:window-height="1058"
     inkscape:window-x="-8"
     inkscape:window-y="-8"
     inkscape:window-maximized="1"
     inkscape:current-layer="layer1" />
  <defs
     id="defs2">
    <linearGradient
       inkscape:collect="always"
       id="linearGradient7973">
      <stop
         style="stop-color:#e9e7e3;stop-opacity:0.97732997;"
         offset="0"
         id="stop7969" />
      <stop
         style="stop-color:#f9b83c;stop-opacity:0.17632242;"
         offset="1"
         id="stop7971" />
    </linearGradient>
    <linearGradient
       inkscape:collect="always"
       id="linearGradient4771">
      <stop
         style="stop-color:#f6d070;stop-opacity:1;"
         offset="0"
         id="stop4767" />
      <stop
         style="stop-color:#e98c00;stop-opacity:1;"
         offset="1"
         id="stop4769" />
    </linearGradient>
    <radialGradient
       inkscape:collect="always"
       xlink:href="#linearGradient4771"
       id="radialGradient4773"
       cx="106.39552"
       cy="54.466709"
       fx="106.39552"
       fy="54.466709"
       r="23.771297"
       gradientTransform="matrix(0.83554987,-0.44589325,0.80266626,1.5040992,-26.166388,19.934589)"
       gradientUnits="userSpaceOnUse" />
    <radialGradient
       inkscape:collect="always"
       xlink:href="#linearGradient7973"
       id="radialGradient11488"
       cx="60.486763"
       cy="86.25737"
       fx="60.486763"
       fy="86.25737"
       r="10.416209"
       gradientTransform="matrix(1.0000775,-0.00350057,0.00346566,0.75489486,-0.30362584,21.353863)"
       gradientUnits="userSpaceOnUse" />
    <filter
       inkscape:collect="always"
       style="color-interpolation-filters:sRGB"
       id="filter11490"
       x="-0.03433733"
       y="-0.048223258"
       width="1.0686747"
       height="1.0964465">
      <feGaussianBlur
         inkscape:collect="always"
         stdDeviation="0.298054"
         id="feGaussianBlur11492" />
    </filter>
    <filter
       inkscape:collect="always"
       style="color-interpolation-filters:sRGB"
       id="filter12956"
       x="-0.059922757"
       y="-0.050259385"
       width="1.1198455"
       height="1.1005188">
      <feGaussianBlur
         inkscape:collect="always"
         stdDeviation="1.1870347"
         id="feGaussianBlur12958" />
    </filter>
  </defs>
  <g
     inkscape:label="Layer 1"
     inkscape:groupmode="layer"
     id="layer1">
    <g
       id="g17271"
       transform="matrix(0.52258944,0,0,0.52258944,-21.444757,0.22740357)">
      <path
         id="path12954"
         style="fill:#000000;fill-opacity:1;stroke-width:3.03199;stroke-linecap:round;stroke-linejoin:round;paint-order:markers stroke fill;filter:url(#filter12956)"
         d="m 107.75673,28.315584 c -13.11889,6.3e-5 -23.753785,10.142152 -23.753589,22.652881 0,0 -0.07819,18.998932 0,27.832849 0.02515,2.841915 1.366034,6.275206 3.342859,6.196552 2.839779,-0.112991 3.608849,-6.117897 6.450875,-6.117897 2.842026,0 3.207671,6.039242 6.993555,6.039242 3.3926,0 4.12453,-6.117897 6.96656,-6.117897 2.84203,0 3.71294,6.072535 7.2621,6.006663 3.39294,-0.06297 3.48972,-6.006664 6.72501,-6.006663 3.2353,10e-7 2.95821,6.117897 6.66544,6.117897 1.74086,0 3.11767,-3.275919 3.1013,-6.117897 -0.0288,-5.00664 0,-13.916424 0,-13.916424 V 50.968465 c 2e-4,-12.510923 -10.63501,-22.653093 -23.75411,-22.652881 z"
         sodipodi:nodetypes="ccsssssssssccc" />
      <path
         id="path188"
         style="fill:url(#radialGradient4773);fill-opacity:1;stroke-width:3.03199;stroke-linecap:round;stroke-linejoin:round;paint-order:markers stroke fill"
         d="m 107.75673,28.315584 c -13.11889,6.3e-5 -23.753785,10.142152 -23.753589,22.652881 0,0 -0.07819,18.998932 0,27.832849 0.02515,2.841915 1.366034,6.275206 3.342859,6.196552 2.839779,-0.112991 3.608849,-6.117897 6.450875,-6.117897 2.842026,0 3.207671,6.039242 6.993555,6.039242 3.3926,0 4.12453,-6.117897 6.96656,-6.117897 2.84203,0 3.71294,6.072535 7.2621,6.006663 3.39294,-0.06297 3.48972,-6.006664 6.72501,-6.006663 3.2353,10e-7 2.95821,6.117897 6.66544,6.117897 1.74086,0 3.11767,-3.275919 3.1013,-6.117897 -0.0288,-5.00664 0,-13.916424 0,-13.916424 V 50.968465 c 2e-4,-12.510923 -10.63501,-22.653093 -23.75411,-22.652881 z"
         sodipodi:nodetypes="ccsssssssssccc" />
      <ellipse
         style="opacity:0.956522;fill:url(#radialGradient11488);fill-opacity:1;stroke-width:3.66424;stroke-linecap:round;stroke-linejoin:round;paint-order:markers stroke fill;filter:url(#filter11490)"
         id="path4827"
         cx="60.486763"
         cy="86.25737"
         rx="10.416209"
         ry="7.416853"
         transform="matrix(0.8459912,-0.53319686,0.54840947,0.83620993,0,0)" />
      <ellipse
         style="opacity:0.956522;fill:#ffffff;fill-opacity:1;stroke-width:3.03199;stroke-linecap:round;stroke-linejoin:round;paint-order:markers stroke fill"
         id="path13738"
         cx="113.40752"
         cy="48.844543"
         rx="4.640625"
         ry="5.5844808" />
      <ellipse
         style="opacity:0.956522;fill:#000000;fill-opacity:1;stroke-width:2.80144;stroke-linecap:round;stroke-linejoin:round;paint-order:markers stroke fill"
         id="ellipse17172"
         cx="115.80534"
         cy="48.874332"
         rx="1.9472816"
         ry="2.7922401" />
      <ellipse
         style="opacity:0.956522;fill:#ffffff;fill-opacity:1;stroke-width:2.59268;stroke-linecap:round;stroke-linejoin:round;paint-order:markers stroke fill"
         id="ellipse17174"
         cx="126.93455"
         cy="48.844543"
         rx="3.6895058"
         ry="5.1361189" />
      <ellipse
         style="opacity:0.956522;fill:#000000;fill-opacity:1;stroke-width:2.80144;stroke-linecap:round;stroke-linejoin:round;paint-order:markers stroke fill"
         id="ellipse17176"
         cx="128.38124"
         cy="48.874332"
         rx="1.9472816"
         ry="2.7922401" />
    </g>
  </g>
</svg>
