<?xml version="1.0" encoding="UTF-8" standalone="no"?>
<!-- Created with Inkscape (http://www.inkscape.org/) -->

<svg
   width="210mm"
   height="297mm"
   viewBox="0 0 210 297"
   version="1.1"
   id="svg5"
   xml:space="preserve"
   inkscape:version="1.2 (dc2aedaf03, 2022-05-15)"
   sodipodi:docname="penguin.svg"
   xmlns:inkscape="http://www.inkscape.org/namespaces/inkscape"
   xmlns:sodipodi="http://sodipodi.sourceforge.net/DTD/sodipodi-0.dtd"
   xmlns:xlink="http://www.w3.org/1999/xlink"
   xmlns="http://www.w3.org/2000/svg"
   xmlns:svg="http://www.w3.org/2000/svg"><sodipodi:namedview
     id="namedview7"
     pagecolor="#ffffff"
     bordercolor="#666666"
     borderopacity="1.0"
     inkscape:showpageshadow="2"
     inkscape:pageopacity="0.0"
     inkscape:pagecheckerboard="0"
     inkscape:deskcolor="#d1d1d1"
     inkscape:document-units="mm"
     showgrid="false"
     inkscape:zoom="0.5946522"
     inkscape:cx="-85.764418"
     inkscape:cy="581.01189"
     inkscape:window-width="1904"
     inkscape:window-height="1042"
     inkscape:window-x="44"
     inkscape:window-y="0"
     inkscape:window-maximized="0"
     inkscape:current-layer="layer1" /><defs
     id="defs2"><linearGradient
       inkscape:collect="always"
       id="linearGradient15165"><stop
         style="stop-color:#ffa856;stop-opacity:0.14893617;"
         offset="0"
         id="stop15161" /><stop
         style="stop-color:#230d01;stop-opacity:1;"
         offset="1"
         id="stop15163" /></linearGradient><linearGradient
       inkscape:collect="always"
       id="linearGradient12539"><stop
         style="stop-color:#000000;stop-opacity:0;"
         offset="0"
         id="stop12535" /><stop
         style="stop-color:#000000;stop-opacity:1;"
         offset="1"
         id="stop12537" /></linearGradient><linearGradient
       inkscape:collect="always"
       id="linearGradient12386"><stop
         style="stop-color:#ffffff;stop-opacity:0.25886524;"
         offset="0"
         id="stop12382" /><stop
         style="stop-color:#6b6b6b;stop-opacity:1;"
         offset="1"
         id="stop12384" /></linearGradient><linearGradient
       inkscape:collect="always"
       id="linearGradient12374"><stop
         style="stop-color:#ffffff;stop-opacity:0.32269505;"
         offset="0"
         id="stop12370" /><stop
         style="stop-color:#6b6b6b;stop-opacity:1;"
         offset="1"
         id="stop12372" /></linearGradient><linearGradient
       inkscape:collect="always"
       id="linearGradient11339"><stop
         style="stop-color:#ffffff;stop-opacity:1;"
         offset="0"
         id="stop11335" /><stop
         style="stop-color:#232323;stop-opacity:1;"
         offset="1"
         id="stop11337" /></linearGradient><linearGradient
       inkscape:collect="always"
       id="linearGradient11211"><stop
         style="stop-color:#6f6f6f;stop-opacity:0.99645388;"
         offset="0"
         id="stop11207" /><stop
         style="stop-color:#000000;stop-opacity:1;"
         offset="1"
         id="stop11209" /></linearGradient><linearGradient
       inkscape:collect="always"
       xlink:href="#linearGradient11211"
       id="linearGradient11213"
       x1="138.11757"
       y1="53.799789"
       x2="188.77119"
       y2="177.13029"
       gradientUnits="userSpaceOnUse" /><linearGradient
       inkscape:collect="always"
       xlink:href="#linearGradient11339"
       id="linearGradient11333"
       x1="162.97246"
       y1="129.30826"
       x2="194.74895"
       y2="189.0858"
       gradientUnits="userSpaceOnUse"
       gradientTransform="matrix(1,0,0,1.0183775,0,-1.3596798)" /><linearGradient
       inkscape:collect="always"
       xlink:href="#linearGradient12374"
       id="linearGradient12376"
       x1="147.87076"
       y1="55.058262"
       x2="155.10699"
       y2="71.733047"
       gradientUnits="userSpaceOnUse" /><linearGradient
       inkscape:collect="always"
       xlink:href="#linearGradient12386"
       id="linearGradient12380"
       gradientUnits="userSpaceOnUse"
       x1="147.87076"
       y1="55.058262"
       x2="154.32045"
       y2="71.40625"
       gradientTransform="translate(-320.50688,-0.02547975)" /><linearGradient
       inkscape:collect="always"
       xlink:href="#linearGradient12539"
       id="linearGradient12541"
       x1="159.51027"
       y1="74.082169"
       x2="164.18211"
       y2="85.650566"
       gradientUnits="userSpaceOnUse" /><linearGradient
       inkscape:collect="always"
       xlink:href="#linearGradient15165"
       id="linearGradient15167"
       x1="123.69274"
       y1="176.64037"
       x2="135.03867"
       y2="191.54579"
       gradientUnits="userSpaceOnUse" /><filter
       inkscape:collect="always"
       style="color-interpolation-filters:sRGB"
       id="filter15169"
       x="-0.026181235"
       y="-0.065260427"
       width="1.0523625"
       height="1.1305209"><feGaussianBlur
         inkscape:collect="always"
         stdDeviation="0.27222037"
         id="feGaussianBlur15171" /></filter><linearGradient
       inkscape:collect="always"
       xlink:href="#linearGradient15165"
       id="linearGradient15186"
       gradientUnits="userSpaceOnUse"
       x1="123.69274"
       y1="176.64037"
       x2="135.03867"
       y2="191.54579" /></defs><g
     inkscape:label="Layer 1"
     inkscape:groupmode="layer"
     id="layer1"><g
       id="g15222"
       transform="matrix(0.72714902,0,0,0.72714902,-11.557208,-4.5601668)"><ellipse
         style="opacity:1;fill:#000000;fill-opacity:1;stroke-width:1.72174;stroke-dasharray:none;paint-order:stroke fill markers"
         id="path12233"
         cx="160.29343"
         cy="110.90307"
         rx="57.889832"
         ry="53.327862" /><ellipse
         style="opacity:1;fill:#010001;fill-opacity:1;stroke-width:1.781;stroke-dasharray:none;paint-order:stroke fill markers"
         id="path2366"
         cx="160.29343"
         cy="105.25531"
         rx="45.594955"
         ry="71.416656"
         inkscape:label="1" /><path
         id="ellipse2368"
         style="display:inline;opacity:1;fill:#848384;fill-opacity:1;stroke-width:1.75701;paint-order:stroke fill markers"
         inkscape:label="2"
         d="m 159.41921,35.877683 c -7.92244,0.220852 -15.39108,4.029667 -21.12302,9.34979 -8.4097,7.76744 -13.80264,18.188105 -17.27515,28.994671 -3.65984,11.554148 -5.04653,23.672033 -4.54528,35.743546 0.42863,10.31791 2.35934,20.78878 5.9659,30.46075 3.61383,9.61111 8.90297,18.78346 16.68706,25.6101 5.79517,5.10961 13.28819,8.64059 21.1152,8.61581 6.06857,-0.005 12.0329,-2.04536 17.03593,-5.43593 7.64292,-5.09363 13.26997,-12.69527 17.37422,-20.81091 6.19873,-12.37813 9.07097,-26.25261 9.50736,-40.02871 0.3528,-11.879223 -1.20914,-23.79134 -4.90987,-35.125558 -3.2422,-9.718693 -8.09297,-19.102722 -15.33168,-26.456425 -3.00004,-3.049411 -6.46886,-5.706828 -10.22438,-7.609732 -4.39025,-2.252444 -9.32837,-3.500475 -14.27629,-3.307402 z" /><path
         id="path10654"
         style="display:inline;opacity:1;fill:url(#linearGradient11213);fill-opacity:1;stroke-width:1.69735;paint-order:stroke fill markers"
         inkscape:label="2"
         d="m 159.45679,37.601693 c -7.5819,0.215364 -14.72951,3.929531 -20.21507,9.11745 -8.04822,7.574423 -13.20935,17.736137 -16.53259,28.274165 -3.50253,11.267031 -4.82961,23.08379 -4.34991,34.855332 0.41021,10.06151 2.25793,20.27218 5.70946,29.70381 3.45849,9.37228 8.52029,18.31669 15.96978,24.9737 5.54607,4.98264 12.71701,8.42587 20.20759,8.40171 5.80772,-0.005 11.51568,-1.99454 16.30365,-5.30086 7.3144,-4.96704 12.69958,-12.37979 16.62741,-20.29376 5.93228,-12.07054 8.68106,-25.60024 9.0987,-39.034 0.33763,-11.584036 -1.15717,-23.200141 -4.69883,-34.252708 -3.10283,-9.477188 -7.7451,-18.628026 -14.67266,-25.798992 -2.87109,-2.973634 -6.1908,-5.565016 -9.7849,-7.420633 -4.20153,-2.196471 -8.92739,-3.41349 -13.66263,-3.225214 z" /><g
         id="g15196"
         transform="translate(12.462787,-33.689706)"><g
           id="g15176"
           transform="translate(-3.1145656,26.473808)"><ellipse
             style="opacity:1;fill:#000000;fill-opacity:1;stroke-width:2.05588;stroke-dasharray:none;paint-order:stroke fill markers"
             id="path13361"
             cx="129.58818"
             cy="181.86838"
             rx="16.129002"
             ry="8.5650558" /><ellipse
             style="opacity:1;fill:#ce5a04;fill-opacity:1;stroke-width:1.76194;stroke-dasharray:none;paint-order:stroke fill markers"
             id="ellipse13363"
             cx="129.58818"
             cy="181.86838"
             rx="14.479265"
             ry="7.0077729" /><ellipse
             style="opacity:1;fill:url(#linearGradient15167);fill-opacity:1;stroke-width:1.38232;stroke-dasharray:none;paint-order:stroke fill markers;filter:url(#filter15169)"
             id="ellipse15159"
             cx="129.58818"
             cy="181.86838"
             rx="12.477045"
             ry="5.0055518" /></g><g
           id="g15184"
           transform="translate(39.599478,26.473808)"><ellipse
             style="opacity:1;fill:#000000;fill-opacity:1;stroke-width:2.05588;stroke-dasharray:none;paint-order:stroke fill markers"
             id="ellipse15178"
             cx="129.58818"
             cy="181.86838"
             rx="16.129002"
             ry="8.5650558" /><ellipse
             style="opacity:1;fill:#ce5a04;fill-opacity:1;stroke-width:1.76194;stroke-dasharray:none;paint-order:stroke fill markers"
             id="ellipse15180"
             cx="129.58818"
             cy="181.86838"
             rx="14.479265"
             ry="7.0077729" /><ellipse
             style="opacity:1;fill:url(#linearGradient15186);fill-opacity:1;stroke-width:1.38232;stroke-dasharray:none;paint-order:stroke fill markers;filter:url(#filter15169)"
             id="ellipse15182"
             cx="129.58818"
             cy="181.86838"
             rx="12.477045"
             ry="5.0055518" /></g></g><path
         id="path11302"
         style="display:inline;opacity:1;fill:#ffffff;fill-opacity:1;stroke-width:1.3792;paint-order:stroke fill markers"
         inkscape:label="2"
         d="m 159.55073,74.000425 c -6.73055,0.160182 -13.07558,2.922679 -17.94519,6.781311 -7.14451,5.633651 -11.72611,13.191654 -14.6762,21.029554 -3.10924,8.3801 -4.28731,17.1691 -3.86147,25.92445 0.36415,7.48348 2.00439,15.07789 5.06836,22.09289 3.07015,6.97083 7.56358,13.62344 14.17659,18.57476 4.92332,3.70594 11.28906,6.26692 17.93855,6.24895 5.15559,-0.004 10.22262,-1.48348 14.47297,-3.94263 6.49309,-3.69435 11.27358,-9.20775 14.76037,-15.09395 5.26617,-8.97774 7.7063,-19.04076 8.07704,-29.03242 0.29972,-8.61589 -1.02724,-17.25564 -4.17121,-25.47624 -2.75443,-7.048868 -6.87543,-13.855013 -13.02512,-19.188584 -2.54871,-2.211707 -5.49566,-4.139106 -8.68619,-5.519265 -3.72975,-1.633675 -7.92496,-2.53886 -12.1285,-2.398826 z" /><path
         id="path11325"
         style="display:inline;opacity:1;fill:url(#linearGradient11333);fill-opacity:1;stroke-width:1.33091;paint-order:stroke fill markers"
         inkscape:label="2"
         d="m 159.57674,75.762132 c -6.49492,0.154575 -12.6178,2.820353 -17.31692,6.543892 -6.89438,5.436412 -11.31557,12.729804 -14.16237,20.293286 -3.00039,8.08671 -4.13722,16.56799 -3.72628,25.01683 0.3514,7.22147 1.93421,14.54998 4.89091,21.31939 2.96266,6.72677 7.29877,13.14647 13.68025,17.92444 4.75095,3.5762 10.89382,6.04752 17.31052,6.03017 4.97509,-0.004 9.86471,-1.43154 13.96625,-3.80458 6.26577,-3.56503 10.87888,-8.88539 14.2436,-14.56551 5.08179,-8.66343 7.4365,-18.37414 7.79426,-28.01597 0.28922,-8.31425 -0.99128,-16.65151 -4.02518,-24.58431 -2.658,-6.802071 -6.63471,-13.369928 -12.56909,-18.516766 -2.45949,-2.134274 -5.30326,-3.994193 -8.38209,-5.326031 -3.59916,-1.576479 -7.64749,-2.449973 -11.70386,-2.314841 z" /><g
         id="g12368"
         transform="translate(126.39936,2.3341593)"><circle
           style="opacity:1;fill:#ffffff;fill-opacity:1;stroke-width:1.78016;stroke-dasharray:none;paint-order:stroke fill markers"
           id="path12306"
           cx="23.826271"
           cy="55.288136"
           r="12.5" /><circle
           style="opacity:1;fill:#ffffff;fill-opacity:1;stroke-width:1.78016;stroke-dasharray:none;paint-order:stroke fill markers"
           id="circle12364"
           cx="43.961864"
           cy="55.288136"
           r="12.5" /></g><ellipse
         style="opacity:1;fill:url(#linearGradient12376);fill-opacity:1;stroke-width:1.46447;stroke-dasharray:none;paint-order:stroke fill markers"
         id="circle12362"
         cx="150.14566"
         cy="57.647774"
         rx="10.428188"
         ry="10.14036" /><ellipse
         style="opacity:1;fill:url(#linearGradient12380);fill-opacity:1;stroke-width:1.46447;stroke-dasharray:none;paint-order:stroke fill markers"
         id="ellipse12378"
         cx="-170.36122"
         cy="57.622295"
         rx="10.428188"
         ry="10.14036"
         transform="scale(-1,1)" /><ellipse
         style="opacity:1;fill:#000000;fill-opacity:1;stroke-width:1.781;stroke-dasharray:none;paint-order:stroke fill markers"
         id="path12440"
         cx="153.37659"
         cy="59.777542"
         rx="3.9327328"
         ry="4.0900421" /><ellipse
         style="opacity:1;fill:#000000;fill-opacity:1;stroke-width:1.781;stroke-dasharray:none;paint-order:stroke fill markers"
         id="ellipse12442"
         cx="167.84904"
         cy="59.777542"
         rx="3.9327328"
         ry="4.0900421" /><path
         id="rect12530"
         style="opacity:1;fill:#ff600b;fill-opacity:1;stroke-width:1.62332;paint-order:stroke fill markers"
         d="m 153.49493,68.079671 c 0,0 4.34147,-3.161998 7.07892,-3.161998 2.73744,0 7.07892,3.161998 7.07892,3.161998 0,0 -2.21838,17.656811 -7.07892,17.545577 -4.86055,-0.111234 -7.07892,-17.545577 -7.07892,-17.545577 z"
         sodipodi:nodetypes="csczc" /><path
         id="path12533"
         style="opacity:1;fill:url(#linearGradient12541);fill-opacity:1;stroke-width:1.23522;paint-order:stroke fill markers"
         d="m 155.62432,69.315909 c 0,0 3.03552,-2.618484 4.94953,-2.618484 1.914,0 4.94953,2.618484 4.94953,2.618484 0,0 -1.55107,14.621791 -4.94953,14.529677 -3.39846,-0.09211 -4.94953,-14.529677 -4.94953,-14.529677 z"
         sodipodi:nodetypes="csczc" /></g></g></svg>
