<?xml version="1.0" encoding="UTF-8" standalone="no"?>
<!-- Created with Inkscape (http://www.inkscape.org/) -->

<svg
   width="210mm"
   height="297mm"
   viewBox="0 0 210 297"
   version="1.1"
   id="svg5"
   xml:space="preserve"
   inkscape:version="1.2 (dc2aedaf03, 2022-05-15)"
   sodipodi:docname="penguin-2.svg"
   xmlns:inkscape="http://www.inkscape.org/namespaces/inkscape"
   xmlns:sodipodi="http://sodipodi.sourceforge.net/DTD/sodipodi-0.dtd"
   xmlns:xlink="http://www.w3.org/1999/xlink"
   xmlns="http://www.w3.org/2000/svg"
   xmlns:svg="http://www.w3.org/2000/svg"><sodipodi:namedview
     id="namedview7"
     pagecolor="#ffffff"
     bordercolor="#666666"
     borderopacity="1.0"
     inkscape:showpageshadow="2"
     inkscape:pageopacity="0.0"
     inkscape:pagecheckerboard="0"
     inkscape:deskcolor="#d1d1d1"
     inkscape:document-units="mm"
     showgrid="false"
     inkscape:zoom="1.3938117"
     inkscape:cx="-100.08526"
     inkscape:cy="416.12508"
     inkscape:window-width="2560"
     inkscape:window-height="1377"
     inkscape:window-x="1912"
     inkscape:window-y="-8"
     inkscape:window-maximized="1"
     inkscape:current-layer="layer1" /><defs
     id="defs2"><linearGradient
       inkscape:collect="always"
       id="linearGradient18309"><stop
         style="stop-color:#fcdb4e;stop-opacity:1;"
         offset="0"
         id="stop18305" /><stop
         style="stop-color:#cba70c;stop-opacity:1;"
         offset="1"
         id="stop18307" /></linearGradient><linearGradient
       inkscape:collect="always"
       id="linearGradient18169"><stop
         style="stop-color:#ffef7d;stop-opacity:1;"
         offset="0"
         id="stop18165" /><stop
         style="stop-color:#be9132;stop-opacity:1;"
         offset="1"
         id="stop18167" /></linearGradient><linearGradient
       inkscape:collect="always"
       xlink:href="#linearGradient18169"
       id="linearGradient18171"
       x1="87.919395"
       y1="196.50992"
       x2="111.67777"
       y2="204.42937"
       gradientUnits="userSpaceOnUse" /><radialGradient
       inkscape:collect="always"
       xlink:href="#linearGradient18309"
       id="radialGradient18311"
       cx="89.590782"
       cy="197.06041"
       fx="89.590782"
       fy="197.06041"
       r="19.122311"
       gradientTransform="matrix(1,0,0,0.25228335,0,145.75406)"
       gradientUnits="userSpaceOnUse" /><filter
       inkscape:collect="always"
       style="color-interpolation-filters:sRGB"
       id="filter22529"
       x="-0.051931196"
       y="-0.028717788"
       width="1.1038624"
       height="1.0574356"><feGaussianBlur
         inkscape:collect="always"
         stdDeviation="1.9101702"
         id="feGaussianBlur22531" /></filter></defs><g
     inkscape:label="Layer 1"
     inkscape:groupmode="layer"
     id="layer1"
     style="display:inline"><g
       id="g22547"
       transform="matrix(0.52449147,0,0,0.52449147,7.0860697,-6.283905)"><path
         id="path21888"
         style="display:inline;opacity:1;fill:#020000;fill-opacity:1;stroke:none;stroke-width:0.264583px;stroke-linecap:butt;stroke-linejoin:miter;stroke-opacity:1;filter:url(#filter22529)"
         d="m 80.826172,47.300781 c -4.280604,0.204202 -8.525893,1.773026 -11.714558,4.675239 -3.106397,2.889244 -5.530053,6.487312 -7.256145,10.352105 -1.916786,4.332463 -2.566732,9.103932 -2.607422,13.808594 -0.326709,1.101201 -1.663079,1.376834 -2.615642,1.720977 -2.140014,0.637887 -4.357001,0.92152 -6.529758,1.408496 -4.532114,1.107078 -8.4854,3.762732 -11.985459,6.761152 4.218826,0.45828 8.437489,0.918063 12.65625,1.376953 -1.609446,0.674187 -3.039291,1.708916 -4.304688,2.902344 6.5271,1.903436 13.029877,3.897175 19.470707,6.095477 0.723426,0.311819 1.695617,0.302883 2.030606,1.137096 0.966583,1.359369 1.307538,3.203386 0.550066,4.740986 -2.181881,5.79488 -4.718513,11.44755 -6.990324,17.2057 -1.418975,3.21979 -3.287854,6.23418 -4.516297,9.53646 -2.879489,4.64836 -5.098621,9.71666 -6.556724,14.98665 -1.071036,3.97193 -1.627509,8.21332 -0.605957,12.25936 0.449797,1.80336 0.881128,3.78407 2.246829,5.13593 0.712968,0.72377 2.039881,0.55109 2.451172,-0.41016 0.760121,-1.66375 0.801953,-3.55393 1.468104,-5.25654 0.30484,-0.90741 0.751216,-1.7687 1.342443,-2.52276 0.889019,4.3887 2.312599,8.66615 4.303063,12.68028 3.420665,7.20568 8.260144,13.94273 14.905711,18.49353 3.371735,2.39743 7.021951,4.42276 10.900601,5.87502 -3.330066,0.80784 -6.714912,1.63249 -9.773781,3.21586 -1.393693,0.7798 -1.955271,3.04862 -0.576075,4.10218 1.012571,0.72399 2.264893,0.0417 3.380675,0.0657 3.111519,-0.25096 6.312218,-0.17615 9.453556,0.0615 -2.21663,0.90423 -4.323325,2.74693 -4.697266,5.2168 -0.24915,1.42498 1.421365,2.53854 2.684822,1.9631 0.27577,0.005 0.910057,-0.69514 0.739007,-0.16036 -0.150916,1.17919 0.905334,2.28714 2.098043,2.15938 2.279243,-0.16243 4.385976,-1.17416 6.554192,-1.81702 3.389437,-1.06579 6.827597,-2.35687 10.455687,-2.10717 1.77687,0.17149 3.64145,0.14965 5.26031,-0.70318 1.35576,-0.61492 2.97101,-1.54177 3.1513,-3.17655 -0.32214,-1.50402 -0.99303,-2.83408 -1.19087,-4.37238 -0.26061,-1.49167 -0.31022,-3.01702 -0.19976,-4.52605 1.2954,-0.547 2.57325,-1.13525 3.83594,-1.75391 1.43245,1.64822 3.5387,3.06491 5.8232,2.66295 0.57141,-0.0483 1.57442,-0.28518 1.25688,-1.05553 -0.55432,-0.65663 -1.31173,-1.22463 -1.52308,-2.11913 -0.82034,-2.84485 0.57648,-5.63998 1.12314,-8.39471 1.27172,-5.88794 1.62942,-12.13697 -0.14618,-17.96334 -1.37326,-4.8925 -4.43698,-9.23567 -8.46191,-12.317 -2.22288,-1.81731 -4.8644,-2.95794 -6.88086,-5.03607 -3.59386,-3.51106 -6.17901,-7.89875 -8.49508,-12.31753 -2.724286,-5.34513 -4.310627,-11.22252 -4.893368,-17.1835 -0.393216,-3.25946 -0.74518,-6.6842 0.419916,-9.83473 0.823752,-2.22576 2.161316,-4.39255 3.667972,-6.287112 2.38599,-2.779584 5.52607,-4.877726 7.50949,-8.009284 3.42154,-5.278215 4.74581,-11.734523 4.40552,-17.965922 -0.3265,-5.351399 -1.90448,-10.80933 -5.34856,-15.006159 -3.82431,-4.496635 -9.312752,-7.238834 -14.898485,-8.874104 -3.690609,-1.029454 -7.53851,-1.633439 -11.376953,-1.429688 z" /><path
         style="display:inline;opacity:1;fill:#b3b3b3;fill-opacity:1;stroke:none;stroke-width:0.264583px;stroke-linecap:butt;stroke-linejoin:miter;stroke-opacity:1"
         d="m 121.77268,186.22207 c 0,0 -11.02588,6.17931 -17.2913,6.28775 -11.752313,0.20341 -20.657037,-3.33901 -28.818839,-9.43162 -7.067937,-5.27607 -11.841193,-13.01141 -15.195386,-21.16874 -2.935217,-7.13839 -4.740208,-19.12893 -4.191829,-26.82772 0.494512,-6.94255 4.052497,-10.99524 6.18295,-16.45294 2.165383,-5.54718 4.672453,-11.0415 6.706929,-16.55773 1.37235,-3.720958 -2.018349,-6.801908 -6.182951,-10.165185 l 21.797519,9.955595 c 9.073868,37.43907 15.244357,55.15178 36.992907,84.36059 z"
         id="path3831"
         sodipodi:nodetypes="cssssasccc" /><path
         style="display:inline;opacity:1;fill:#1f1818;fill-opacity:1;stroke:none;stroke-width:0.264583px;stroke-linecap:butt;stroke-linejoin:miter;stroke-opacity:1"
         d="m 50.249568,80.64034 c 0.110064,-1.855743 9.492471,-1.497929 9.536414,-4.611012 0.08901,-6.305583 0.973758,-13.501939 7.4405,-21.325938 4.762677,-5.76228 11.193839,-7.977494 20.487573,-6.44494 7.577917,1.249614 16.389635,5.156327 20.435175,11.684726 4.39469,7.09183 4.88554,17.078489 2.09591,24.941392 -3.11557,8.781598 -7.70365,9.69539 -11.108346,14.671408 -4.235799,6.190694 -3.981672,9.342804 -2.982958,17.112404 0.868186,6.75413 2.956072,12.55493 6.126834,18.09897 2.66012,4.65119 6.05225,9.74682 10.64049,12.5141 7.72413,4.65861 11.46431,10.47946 12.67284,18.6769 0.72053,4.88729 -0.035,11.33183 -1.5031,16.22754 -2.46802,8.23034 2.8082,7.87446 0.61606,8.33281 -3.56932,0.74631 -5.96951,-2.381 -9.01244,-6.91652 -3.27746,-4.8851 -6.69054,-9.72789 -10.68916,-14.04263 -1.14367,-1.23409 -2.49622,-2.25725 -3.77265,-3.35347 -2.751617,-2.36312 -5.703879,-1.00715 -13.833041,-10.26998 -1.089491,5.48342 -0.934113,7.20897 -0.67745,10.64049 0.209802,2.805 3.131676,6.594 1.725406,7.80356 -2.495456,2.1464 -8.89635,-3.05889 -12.3659,-8.38366 -3.154591,-4.8414 -4.816957,-8.84141 -4.327321,-16.0263 0.294476,-4.32112 2.321842,-11.87378 4.056343,-17.42152 1.591135,-5.08919 3.711806,-9.76601 5.458368,-15.22981 1.277049,-3.99502 1.393582,-8.30273 -0.261989,-12.15631 C 78.430115,99.164178 70.86248,97.068437 64.606588,92.639456 60.084328,89.437834 49.921517,86.171488 50.249568,80.64034 Z"
         id="path3935"
         sodipodi:nodetypes="sssssssssssssssscsssssssss" /><path
         style="display:inline;opacity:1;fill:#000000;fill-opacity:1;stroke:none;stroke-width:0.264583px;stroke-linecap:butt;stroke-linejoin:miter;stroke-opacity:1"
         d="m 58.423639,127.85084 c -3.039077,4.34902 -5.514068,10.02321 -6.864124,14.25222 -1.021514,3.19986 -2.148336,7.98441 -1.571935,11.99911 0.386615,2.69282 1.477288,7.12319 3.19627,7.23091 1.265253,0.0793 1.363144,-2.39588 1.886325,-4.27043 0.479254,-1.71715 0.838366,-3.24867 2.934282,-5.39699 -0.814347,-8.47764 -1.948218,-15.6596 0.419182,-23.81482 z"
         id="path3944"
         sodipodi:nodetypes="csssscc" /><path
         style="display:inline;fill:#ffffff;fill-opacity:1;stroke:none;stroke-width:0.264583px;stroke-linecap:butt;stroke-linejoin:miter;stroke-opacity:1"
         d="m 65.431886,82.030688 c -0.921403,-4.244158 -0.03603,-8.20541 1.333831,-12.078594 1.369862,-3.873184 4.09139,-7.99211 6.743263,-10.522453 2.651873,-2.530343 5.740839,-4.882911 9.116065,-4.63772 3.375226,0.24519 7.253469,4.263762 7.753719,8.302486 0.257,2.07487 0.889081,4.589139 -0.419183,8.135398 -1.835629,4.975768 -6.134013,12.036728 -6.134013,12.036728 -4.378679,6.625647 -17.210174,4.215618 -18.393682,-1.235845 z"
         id="path5204"
         sodipodi:nodetypes="szzzsscs" /><path
         style="display:inline;opacity:1;fill:#e6e6e6;fill-opacity:1;stroke:#000000;stroke-width:0.165;stroke-linecap:butt;stroke-linejoin:miter;stroke-dasharray:none;stroke-opacity:1"
         d="m 67.515726,83.687898 c -0.09141,-3.539924 -0.309871,-7.263619 1.102537,-10.845832 0.79115,-2.00655 2.236123,-3.969642 4.149701,-4.964821 2.595148,-1.349637 7.03824,-2.016126 8.855164,-0.333459 2.121594,1.964824 1.148557,6.032484 -0.03705,8.669912 -1.059615,2.357149 -3.334581,5.446481 -3.334581,5.446481 -3.062708,4.99008 -10.460627,5.664328 -10.73577,2.027719 z"
         id="path5215"
         sodipodi:nodetypes="csssscc" /><path
         style="display:inline;opacity:1;fill:#000000;fill-opacity:1;stroke:none;stroke-width:0.264583px;stroke-linecap:butt;stroke-linejoin:miter;stroke-opacity:1"
         d="m 72.5999,85.152371 c 0,0 2.955798,-2.752132 4.044715,-4.244229 0.935074,-1.281291 2.709193,-4.969522 2.625706,-6.77018 -0.08584,-1.8514 -1.023715,-3.887659 -2.798791,-4.420719 -2.005172,-0.602158 -4.733432,-0.137302 -6.838694,2.742127 -1.447659,1.980009 -1.935552,4.918487 -2.118166,7.578394 -0.03224,0.469661 0.130995,4.584817 0.130995,4.584817 z"
         id="path5227"
         sodipodi:nodetypes="cssssscc" /><path
         style="display:inline;opacity:1;fill:#ffffff;fill-opacity:1;stroke:none;stroke-width:0.264583px;stroke-linecap:butt;stroke-linejoin:miter;stroke-opacity:1"
         d="m 74.842814,72.119574 c 0.312059,-0.375176 0.376269,-1.050995 -0.05558,-1.278257 -0.932165,-0.490559 -2.186455,0.668331 -2.723243,1.574663 -0.529933,0.894758 -0.54509,2.317857 -0.370508,2.945545 0.116017,0.41712 0.377852,0.848977 0.722491,0.833645 0.69945,-0.03112 0.721961,-0.522206 0.722495,-0.815119 0.0035,-1.894732 0.892192,-2.284064 1.70434,-3.260477 z"
         id="path5244"
         sodipodi:nodetypes="ssssssss" /><path
         style="display:inline;fill:#1f1818;fill-opacity:1;stroke:none;stroke-width:0.264583px;stroke-linecap:butt;stroke-linejoin:miter;stroke-opacity:1"
         d="m 91.01512,84.203398 c -3.090918,-3.147524 -7.645293,-1.784728 -11.999115,-1.074159 -1.762707,0.287683 -4.999734,1.282749 -7.964477,1.021759 -2.964743,-0.26099 -9.012436,-2.881884 -9.37922,-2.934279 -0.366787,-0.0524 4.448717,11.054878 9.11723,14.27842 4.938997,3.410308 13.252804,5.864621 18.103467,2.200713 3.632882,-2.74407 5.991135,-9.552578 2.122115,-13.492454 z"
         id="path5258"
         sodipodi:nodetypes="sszssas" /><path
         style="display:inline;fill:#000000;fill-opacity:1;stroke:none;stroke-width:0.264583px;stroke-linecap:butt;stroke-linejoin:miter;stroke-opacity:1"
         d="m 84.290793,82.771707 c 0,0 5.676413,1.795797 8.040045,3.519834 2.218696,1.61832 3.645895,2.499633 2.889969,6.187499 -0.261574,1.276117 -1.963697,3.445734 -1.963697,3.445734 l 0.741018,0.926274 c 0,0 1.992969,-2.091418 2.556512,-4.1497 0.663891,-2.424796 0.451708,-3.80811 -0.815121,-5.372384 -2.004151,-2.474715 -5.141887,-3.660178 -7.224925,-4.557259 -1.069602,-0.460635 -3.630986,-1.25973 -3.630986,-1.25973 z"
         id="path6032"
         sodipodi:nodetypes="cssccssscc" /><path
         style="display:inline;fill:#ffcc00;fill-opacity:1;stroke:none;stroke-width:0.264583px;stroke-linecap:butt;stroke-linejoin:miter;stroke-opacity:1"
         d="m 39.433223,85.639854 c 4.899325,-4.093957 9.520281,-6.120394 14.762434,-6.493438 5.144318,-0.366082 8.23321,0.778252 13.160418,4.483966 2.856143,2.148082 7.616986,3.720974 11.519089,4.192482 3.06978,0.370935 6.280861,-1.399458 7.887369,1.099652 1.499362,2.332432 -0.599511,6.208572 -2.84264,7.838511 -3.00106,2.180678 -9.764724,1.710783 -14.44315,0.24066 -3.460316,-1.087351 -7.634166,-2.558836 -12.079848,-3.96334 -2.805799,-0.886423 -9.856705,-2.965351 -9.856705,-2.965351 2.416105,-2.214763 5.611418,-2.94232 5.611418,-2.94232 z"
         id="path6048"
         sodipodi:nodetypes="csssssssccc" /><path
         id="path7619"
         style="display:inline;fill:#7f6604;fill-opacity:1;stroke:none;stroke-width:0.264583px;stroke-linecap:butt;stroke-linejoin:miter;stroke-opacity:1"
         d="m 52.977645,87.175557 c -0.673485,0.179234 -3.264431,0.958144 -5.338692,2.809648 2.371585,-0.04417 4.944206,-0.06294 6.72362,0.01447 3.257278,0.141709 6.839089,0.549247 9.683647,1.374594 6.274505,1.820541 10.181807,1.075386 10.181807,1.075386 l 0.201538,0.704867 c 0.33557,0.43624 0.671277,0.06666 0.671277,0.06666 0,0 -0.369335,-1.946016 -1.275374,-2.885612 0,0 -0.503329,0.06696 -0.503329,0.36897 l 0.671277,1.040247 c 0,0 -2.200679,0.386622 -5.13457,-0.100769 -2.558848,-0.425088 -5.266785,-1.189386 -7.684285,-2.214336 -2.703187,-1.146072 -5.252448,-1.802844 -8.154541,-2.248441 -0.01351,-0.0021 -0.02877,-0.0036 -0.04237,-0.0057 z" /><path
         style="display:inline;fill:url(#radialGradient18311);fill-opacity:1;stroke:#856600;stroke-width:0.265;stroke-linecap:butt;stroke-linejoin:miter;stroke-dasharray:none;stroke-opacity:1"
         d="m 89.598425,190.34919 c 0,0 -7.266968,1.3922 -11.342173,3.4169 -2.13127,1.05888 -1.682794,3.95035 0.261471,3.59996 3.941213,-0.71029 12.195561,-0.46549 17.05048,0.55461 7.144007,1.50107 9.859837,1.8429 17.616247,1.35042 l -3.5118,-7.21343 c 0,0 -11.484545,1.7559 -20.074225,-1.70845 z"
         id="path9519"
         sodipodi:nodetypes="cssscccc" /><path
         style="fill:url(#linearGradient18171);fill-opacity:1;stroke:#8b6d00;stroke-width:0.264583px;stroke-linecap:butt;stroke-linejoin:miter;stroke-opacity:1"
         d="m 107.63201,191.72544 0.94913,2.89487 c -5.17279,0.4983 -10.1142,1.22881 -13.074345,2.01691 -3.440638,0.91602 -6.589571,1.37297 -8.654819,3.97148 -0.765573,0.96325 -1.611566,2.7797 -0.640665,3.53554 1.511345,1.17658 2.804372,-0.79832 4.241334,-1.64611 0.625731,-0.36917 3.464347,-2.28979 4.650767,-2.51521 -2.396568,1.37625 -4.214757,2.23749 -5.03042,3.13215 -0.53267,0.58426 -1.069714,1.48485 -0.806765,2.23047 0.754303,2.46267 4.671628,-0.0595 12.670963,-2.23047 5.92357,-1.60761 7.21542,0.22288 10.44049,-1.13896 1.30426,-0.55075 2.90748,-1.33767 3.27452,-2.70504 0.21958,-0.81801 -2.11182,-3.844 -1.23387,-10.53541 -2.20674,0.64067 -5.67109,2.30166 -6.78632,2.98978 z"
         id="path12626"
         sodipodi:nodetypes="ccsssscscsascc" /></g></g></svg>
