<?xml version="1.0" encoding="UTF-8" standalone="no"?>
<!-- Created with Inkscape (http://www.inkscape.org/) -->

<svg
   width="210mm"
   height="297mm"
   viewBox="0 0 210 297"
   version="1.1"
   id="svg5"
   inkscape:version="1.2 (dc2aedaf03, 2022-05-15)"
   sodipodi:docname="pickaxe.svg"
   xml:space="preserve"
   xmlns:inkscape="http://www.inkscape.org/namespaces/inkscape"
   xmlns:sodipodi="http://sodipodi.sourceforge.net/DTD/sodipodi-0.dtd"
   xmlns="http://www.w3.org/2000/svg"
   xmlns:svg="http://www.w3.org/2000/svg"><sodipodi:namedview
     id="namedview7"
     pagecolor="#ffffff"
     bordercolor="#666666"
     borderopacity="1.0"
     inkscape:showpageshadow="2"
     inkscape:pageopacity="0.0"
     inkscape:pagecheckerboard="0"
     inkscape:deskcolor="#d1d1d1"
     inkscape:document-units="mm"
     showgrid="false"
     inkscape:zoom="1.7366684"
     inkscape:cx="296.83272"
     inkscape:cy="274.95174"
     inkscape:window-width="1588"
     inkscape:window-height="1040"
     inkscape:window-x="273"
     inkscape:window-y="10"
     inkscape:window-maximized="0"
     inkscape:current-layer="layer1" /><defs
     id="defs2" /><g
     inkscape:label="Layer 1"
     inkscape:groupmode="layer"
     id="layer1"><g
       id="g9424"><rect
         style="fill:#96bbce;fill-opacity:1;stroke:#000000;stroke-width:2.37255;stroke-dasharray:none;stroke-opacity:1;paint-order:stroke fill markers"
         id="rect3903"
         width="6.9464436"
         height="30.095238"
         x="77.773689"
         y="41.013462"
         ry="4.505784" /><rect
         style="fill:#d99557;fill-opacity:1;stroke:#000000;stroke-width:2.37241;stroke-dasharray:none;stroke-opacity:1;paint-order:stroke fill markers"
         id="rect9975"
         width="6.9464436"
         height="9.3856916"
         x="77.773689"
         y="26.733517"
         ry="1.597204"
         rx="1.597204" /><path
         id="path11636"
         style="fill:#9e6129;fill-opacity:1;stroke:none;stroke-width:2.37254;stroke-dasharray:none;stroke-opacity:1;paint-order:stroke fill markers"
         d="m 82.65566,35.55922 v -8.843224 h 0.755773 c 0.72502,0 1.308762,0.437457 1.308762,0.980775 v 7.862449 z"
         sodipodi:nodetypes="ccsscc" /><path
         id="path527"
         style="opacity:1;fill:#7d97a4;fill-opacity:1;stroke:#000000;stroke-width:1.372;stroke-linecap:round;stroke-linejoin:round;stroke-dasharray:none;paint-order:fill markers stroke"
         d="m 82.383832,33.581621 c -18.150409,0.0032 -33.171213,5.181833 -41.959509,15.507924 12.0436,-5.251838 19.944482,-6.531623 36.028103,-6.533161 9.678483,0.0024 26.863154,0.477051 35.622124,2.505584 v -6.085736 c -8.2631,-3.640405 -19.709502,-5.396381 -29.690718,-5.394611 z"
         sodipodi:nodetypes="sccccs" /><rect
         style="fill:#96bbce;fill-opacity:1;stroke:#000000;stroke-width:2.37241;stroke-dasharray:none;stroke-opacity:1;paint-order:stroke fill markers"
         id="rect4633"
         width="6.9464436"
         height="8.7411432"
         x="77.773689"
         y="82.213753"
         ry="1.3087022" /><rect
         style="fill:#d99557;fill-opacity:1;stroke:#000000;stroke-width:2.372;stroke-dasharray:none;stroke-opacity:1;paint-order:stroke fill markers"
         id="rect4631"
         width="6.9464436"
         height="30.095238"
         x="77.773689"
         y="56.061085"
         ry="0" /><rect
         style="fill:#9e6129;fill-opacity:1;stroke:none;stroke-width:2.37255;stroke-dasharray:none;stroke-opacity:1;paint-order:stroke fill markers"
         id="rect16436"
         width="2.0645597"
         height="30.095238"
         x="82.655579"
         y="56.061085"
         ry="0" /><path
         id="path17593"
         style="fill:#7195a8;fill-opacity:1;stroke:none;stroke-width:2.37254;stroke-dasharray:none;stroke-opacity:1;paint-order:stroke fill markers"
         d="m 82.65566,87.342528 v 3.61246 h 0.755773 c 0.72502,0 1.308762,-0.43944 1.308762,-0.98522 v -2.62724 z" /><path
         id="rect17669"
         style="fill:#7195a8;fill-opacity:1;stroke:none;stroke-width:2.37255;stroke-dasharray:none;stroke-opacity:1;paint-order:stroke fill markers"
         d="m 82.65566,41.398142 v 13.476843 h 2.064535 v -9.355778 c 0,-1.844649 -0.846424,-3.422497 -2.064535,-4.121065 z" /><path
         id="path18502"
         style="color:#000000;fill:#ffffff;fill-opacity:1;stroke-width:0.645415;stroke-linecap:round;stroke-linejoin:round;paint-order:fill markers stroke"
         d="m 79.956089,43.819217 a 1.2908301,1.1657598 0 0 0 -1.290751,1.165689 v 9.889976 h 2.581502 v -9.889976 a 1.2908301,1.1657598 0 0 0 -1.290751,-1.165689 z" /><path
         id="path19233"
         style="color:#000000;fill:#ffffff;fill-opacity:1;stroke-width:0.645415;stroke-linecap:round;stroke-linejoin:round;paint-order:fill markers stroke"
         d="m 78.665338,87.342528 v 1.7588 a 1.2908301,0.79609447 0 0 0 1.290751,0.79605 1.2908301,0.79609447 0 0 0 1.290751,-0.79605 v -1.7588 z" /><path
         id="path1813"
         style="opacity:1;fill:#96bbce;fill-opacity:1;stroke:none;stroke-width:1.372;stroke-linecap:round;stroke-linejoin:round;stroke-dasharray:none;paint-order:fill markers stroke"
         d="m 68.722962,36.506782 c -8.46418,1.149729 -16.447123,4.524322 -21.215247,7.825114 7.241658,-1.860511 13.457759,-4.985564 20.972261,-5.310008 z"
         sodipodi:nodetypes="cccc" /><path
         id="rect364"
         style="fill:#7d97a4;stroke:#000000;stroke-width:1.272;stroke-linecap:round;stroke-linejoin:round;paint-order:fill markers stroke"
         d="m 68.351641,36.634574 c 0,-2.626138 1.572008,-4.740322 3.524682,-4.740322 h 18.741171 c 1.952674,0 3.524682,2.114184 3.524682,4.740322 m 0,4.231564 c 0,2.626138 -1.572008,4.740321 -3.524682,4.740321 H 71.876323 c -1.952674,0 -3.524682,-2.114183 -3.524682,-4.740321"
         sodipodi:nodetypes="cssccssc" /><g
         id="rect2386"
         style="fill:#96bbce;fill-opacity:1;stroke-width:1.15128"
         transform="matrix(0.97169648,0,0,0.77643319,4.5264791,-14.264589)"><path
           style="color:#000000;fill:#96bbce;fill-opacity:1;stroke-width:1.15128;stroke-linecap:round;stroke-linejoin:round;paint-order:fill markers stroke"
           d="m 73.115234,61.427734 c -3.162812,0 -5.720703,2.634512 -5.720703,5.824219 v 4.09375 c -1.81e-4,0.68288 0.331715,1.236509 1.014595,1.236328 0.68288,1.81e-4 0.90391,-0.553448 0.903729,-1.236328 v -4.09375 c 0,-1.89273 1.996729,-3.351562 3.802379,-3.351562 h 7.807025 c 0.682881,1.81e-4 1.23651,-0.553448 1.236328,-1.236329 1.81e-4,-0.68288 -0.553448,-1.236509 -1.236328,-1.236328 z"
           id="path6123"
           sodipodi:nodetypes="sscccsscccs" /></g><g
         id="path6117"
         style="fill:#507283;fill-opacity:1;stroke-width:1.10048"
         transform="matrix(0.8257283,0,0,1,11.624279,-29.471359)"><path
           style="color:#000000;fill:#507283;fill-opacity:1;stroke-width:2.72038;stroke-linecap:round;stroke-linejoin:round;paint-order:fill markers stroke"
           d="m 96.583525,65.64816 v 5.697764"
           id="path6127" /><path
           style="color:#000000;fill:#507283;fill-opacity:1;stroke-width:1.10048;stroke-linecap:round;stroke-linejoin:round;paint-order:fill markers stroke"
           d="m 96.583984,64.412109 a 1.2359999,1.2359999 0 0 0 -1.236328,1.236328 v 5.697266 a 1.2359999,1.2359999 0 0 0 1.236328,1.236328 1.2359999,1.2359999 0 0 0 1.236328,-1.236328 v -5.697266 a 1.2359999,1.2359999 0 0 0 -1.236328,-1.236328 z"
           id="path6129" /></g></g></g></svg>
