<?xml version="1.0" encoding="UTF-8" standalone="no"?>
<!-- Created with Inkscape (http://www.inkscape.org/) -->

<svg
   width="210mm"
   height="297mm"
   viewBox="0 0 210 297"
   version="1.1"
   id="svg5"
   xml:space="preserve"
   inkscape:version="1.2.2 (732a01da63, 2022-12-09)"
   sodipodi:docname="puppy.svg"
   xmlns:inkscape="http://www.inkscape.org/namespaces/inkscape"
   xmlns:sodipodi="http://sodipodi.sourceforge.net/DTD/sodipodi-0.dtd"
   xmlns="http://www.w3.org/2000/svg"
   xmlns:svg="http://www.w3.org/2000/svg"><sodipodi:namedview
     id="namedview7"
     pagecolor="#ffffff"
     bordercolor="#000000"
     borderopacity="0.25"
     inkscape:showpageshadow="2"
     inkscape:pageopacity="0.0"
     inkscape:pagecheckerboard="0"
     inkscape:deskcolor="#d1d1d1"
     inkscape:document-units="mm"
     showgrid="false"
     inkscape:zoom="1"
     inkscape:cx="161.5"
     inkscape:cy="446"
     inkscape:window-width="2560"
     inkscape:window-height="1377"
     inkscape:window-x="1272"
     inkscape:window-y="-8"
     inkscape:window-maximized="1"
     inkscape:current-layer="layer1" /><defs
     id="defs2"><filter
       inkscape:collect="always"
       style="color-interpolation-filters:sRGB"
       id="filter8362"
       x="-0.020494194"
       y="-0.089240385"
       width="1.0409884"
       height="1.1784808"><feGaussianBlur
         inkscape:collect="always"
         stdDeviation="0.075307381"
         id="feGaussianBlur8364" /></filter><filter
       inkscape:collect="always"
       style="color-interpolation-filters:sRGB"
       id="filter25992"
       x="-0.2834134"
       y="-0.2834134"
       width="1.5668268"
       height="1.5668268"><feGaussianBlur
         inkscape:collect="always"
         stdDeviation="0.065017701"
         id="feGaussianBlur25994" /></filter><filter
       inkscape:collect="always"
       style="color-interpolation-filters:sRGB"
       id="filter28784"
       x="-0.055349616"
       y="-0.19507249"
       width="1.1106992"
       height="1.390145"><feGaussianBlur
         inkscape:collect="always"
         stdDeviation="0.095381305"
         id="feGaussianBlur28786" /></filter><filter
       inkscape:collect="always"
       style="color-interpolation-filters:sRGB"
       id="filter29516"
       x="-0.045276394"
       y="-0.06643036"
       width="1.0905528"
       height="1.1328607"><feGaussianBlur
         inkscape:collect="always"
         stdDeviation="0.06713339"
         id="feGaussianBlur29518" /></filter><filter
       inkscape:collect="always"
       style="color-interpolation-filters:sRGB"
       id="filter23765"
       x="-0.079103379"
       y="-0.068820756"
       width="1.1582068"
       height="1.1376415"><feGaussianBlur
         inkscape:collect="always"
         stdDeviation="0.068559789"
         id="feGaussianBlur23767" /></filter><filter
       inkscape:collect="always"
       style="color-interpolation-filters:sRGB"
       id="filter23769"
       x="-0.025424202"
       y="-0.019446008"
       width="1.0508484"
       height="1.038892"><feGaussianBlur
         inkscape:collect="always"
         stdDeviation="0.058393699"
         id="feGaussianBlur23771" /></filter><filter
       inkscape:collect="always"
       style="color-interpolation-filters:sRGB"
       id="filter23777"
       x="-0.008031963"
       y="-0.0061879957"
       width="1.0160639"
       height="1.012376"><feGaussianBlur
         inkscape:collect="always"
         stdDeviation="0.026585049"
         id="feGaussianBlur23779" /></filter><filter
       inkscape:collect="always"
       style="color-interpolation-filters:sRGB"
       id="filter23781"
       x="-0.0065343754"
       y="-0.0049820348"
       width="1.0130688"
       height="1.0099641"><feGaussianBlur
         inkscape:collect="always"
         stdDeviation="0.020191705"
         id="feGaussianBlur23783" /></filter><filter
       inkscape:collect="always"
       style="color-interpolation-filters:sRGB"
       id="filter23785"
       x="-0.016293828"
       y="-0.012687311"
       width="1.0325877"
       height="1.0253746"><feGaussianBlur
         inkscape:collect="always"
         stdDeviation="0.041057617"
         id="feGaussianBlur23787" /></filter><filter
       inkscape:collect="always"
       style="color-interpolation-filters:sRGB"
       id="filter23789"
       x="-0.20453267"
       y="-0.19249572"
       width="1.4090653"
       height="1.3849914"><feGaussianBlur
         inkscape:collect="always"
         stdDeviation="0.082474508"
         id="feGaussianBlur23791" /></filter><filter
       inkscape:collect="always"
       style="color-interpolation-filters:sRGB"
       id="filter23793"
       x="-0.035718374"
       y="-0.027208007"
       width="1.0714367"
       height="1.054416"><feGaussianBlur
         inkscape:collect="always"
         stdDeviation="0.053761667"
         id="feGaussianBlur23795" /></filter><filter
       inkscape:collect="always"
       style="color-interpolation-filters:sRGB"
       id="filter23797"
       x="-0.058857814"
       y="-0.083506204"
       width="1.1177156"
       height="1.1670124"><feGaussianBlur
         inkscape:collect="always"
         stdDeviation="0.17259824"
         id="feGaussianBlur23799" /></filter><filter
       inkscape:collect="always"
       style="color-interpolation-filters:sRGB"
       id="filter57954"
       x="-0.10120078"
       y="-0.028149852"
       width="1.2024016"
       height="1.0562997"><feGaussianBlur
         inkscape:collect="always"
         stdDeviation="0.05530446"
         id="feGaussianBlur57956" /></filter><filter
       inkscape:collect="always"
       style="color-interpolation-filters:sRGB"
       id="filter58096"
       x="-0.026462081"
       y="-0.012324358"
       width="1.0529242"
       height="1.0246487"><feGaussianBlur
         inkscape:collect="always"
         stdDeviation="0.026927387"
         id="feGaussianBlur58098" /></filter><filter
       inkscape:collect="always"
       style="color-interpolation-filters:sRGB"
       id="filter58100"
       x="-0.011686274"
       y="-0.015875734"
       width="1.0233725"
       height="1.0317515"><feGaussianBlur
         inkscape:collect="always"
         stdDeviation="0.079480997"
         id="feGaussianBlur58102" /></filter><filter
       inkscape:collect="always"
       style="color-interpolation-filters:sRGB"
       id="filter58104"
       x="-0.011091698"
       y="-0.018474968"
       width="1.0221834"
       height="1.0369499"><feGaussianBlur
         inkscape:collect="always"
         stdDeviation="0.062731004"
         id="feGaussianBlur58106" /></filter></defs><g
     inkscape:label="Layer 1"
     inkscape:groupmode="layer"
     id="layer1"
     style="fill:#ffffff;fill-opacity:1"><g
       id="g1707"
       inkscape:label="Puppy"
       style="display:inline;fill:#ffffff;fill-opacity:1"
       sodipodi:insensitive="true"><g
         id="g58314"
         inkscape:label="Body"><g
           id="g179677"
           style="display:inline;fill:#ffffff;fill-opacity:1"
           inkscape:label="Tail"><path
             style="opacity:1;fill:#7a4730;fill-opacity:1;stroke:none;stroke-width:0.32;stroke-linecap:round;stroke-dasharray:none;stroke-opacity:1"
             d="m 91.23273,84.14315 c 1.698557,-0.523125 2.510835,-2.249204 3.475222,-3.588117 1.496799,-2.764105 2.36769,-5.928124 2.10903,-9.084588 0.120994,-2.631447 -0.400128,-5.244772 -0.971287,-7.79739 -0.350558,-0.432103 -0.772695,-2.341576 0.151319,-1.343451 0.999802,1.13853 1.483261,2.613528 2.112694,3.966381 1.560362,4.107032 2.325272,8.523777 2.251872,12.91488 -0.17703,3.478377 -1.430136,7.022349 -3.986376,9.465313 -1.605537,1.520882 -2.201699,1.192011 -2.637183,-0.03635 -0.910174,-1.625975 -1.726225,-3.002449 -2.505291,-4.496678 z"
             id="path177454"
             sodipodi:nodetypes="cccccccccc" /><path
             id="path178767"
             style="opacity:1;fill:#e6913c;fill-opacity:1;stroke:none;stroke-width:0.32;stroke-linecap:round;stroke-dasharray:none;stroke-opacity:1"
             d="m 95.707031,62.431641 c 0.108356,0.791023 0.574384,1.452508 0.625848,2.263321 0.543457,2.347405 0.82377,4.754626 0.771077,7.163309 0.149639,3.205322 -0.748566,6.442569 -2.404946,9.176314 -0.84072,1.228303 -1.638736,2.666024 -3.089635,3.252524 0.859431,1.660005 1.868112,3.245524 2.697266,4.916016 0.5719,0.581239 1.29648,-0.230379 1.757555,-0.601119 C 99.210479,85.676099 100.389,81.154791 100.06,76.970873 99.803336,72.272604 98.712721,67.529775 96.429688,63.371094 96.224189,63.057471 95.955428,62.640161 95.707031,62.431641 Z" /><path
             id="path179742"
             style="opacity:1;fill:#66350a;fill-opacity:1;stroke:none;stroke-width:0.32;stroke-linecap:round;stroke-dasharray:none;stroke-opacity:1"
             d="m 96.704175,76.117318 c -0.341351,1.467998 -0.88521,2.890149 -1.601453,4.211629 0.297518,0.304092 0.615181,0.587774 0.959632,0.841809 0.751589,0.205215 1.493807,-0.180987 2.125968,-0.549837 0.386994,-0.301969 0.784373,-0.596949 1.12913,-0.948263 1.020998,-1.66623 -1.0159,-2.808776 -2.613277,-3.555338 z" /><path
             id="path180440"
             style="opacity:1;fill:#e8e2e2;fill-opacity:1;stroke:none;stroke-width:0.32;stroke-linecap:round;stroke-dasharray:none;stroke-opacity:1"
             d="m 95.70682,62.431848 c 0.108356,0.791022 0.574337,1.452099 0.625801,2.262911 0.469151,2.026449 0.742118,4.097789 0.774113,6.175851 0.178818,0.03476 0.334795,0.05945 0.445968,0.06563 0.462921,0.02572 1.121163,0.01846 1.67535,-0.04186 -0.59312,-2.619174 -1.503701,-5.164904 -2.798279,-7.523055 -0.205499,-0.313623 -0.474557,-0.730958 -0.722953,-0.939478 z" /><path
             id="path181888"
             style="opacity:0.303738;fill:#6c6c6c;fill-opacity:1;stroke:none;stroke-width:0.32;stroke-linecap:round;stroke-dasharray:none;stroke-opacity:1"
             d="m 96.161056,62.97135 c 0.245448,0.705166 0.483974,1.393529 0.581359,1.685685 0.243073,0.729213 0.728964,2.552241 0.972034,3.281454 0.243073,0.729215 0.607621,2.30887 0.729155,3.4432 0.121535,1.134331 0.364633,2.795432 0.405143,3.565158 0.04051,0.769725 -0.161966,3.240882 -0.324011,4.010607 -0.16205,0.769726 -0.85051,3.119541 -1.174606,3.767729 -0.324096,0.648189 -1.418026,2.471191 -1.823144,2.87631 -0.344012,0.344014 -1.531035,1.151586 -2.304252,1.586984 0.376084,0.664689 0.745056,1.332692 1.083654,2.014864 0.5719,0.581238 1.296958,-0.230774 1.758033,-0.601514 3.146279,-2.925904 4.324619,-7.446901 3.995619,-11.630815 -0.256661,-4.698264 -1.347236,-9.441009 -3.630267,-13.599686 -0.08102,-0.123655 -0.17315,-0.263236 -0.268717,-0.399976 z" /></g><g
           id="g199085"
           inkscape:label="Paw4"
           style="display:inline;fill:#ffffff;fill-opacity:1"><path
             style="display:inline;opacity:1;fill:#797576;fill-opacity:1;stroke:none;stroke-width:0.32;stroke-linecap:round;stroke-dasharray:none;stroke-opacity:1"
             d="m 53.880786,91.678359 c -1.539841,0.917323 -3.062649,1.86743 -4.627474,2.739169 -0.956467,0.683554 -2.067828,1.246669 -2.72873,2.253927 -0.488873,0.7955 -0.274133,1.778496 -0.173584,2.64975 0.201585,1.264425 1.422799,1.943355 2.481919,2.425915 0.854693,0.3627 1.352851,1.42611 2.3764,1.42352 0.971567,0.054 1.953158,-0.0746 2.874027,-0.39203 0.896798,0.21889 1.861258,0.2021 2.76159,0.0304 0.640504,-0.21993 1.450405,-0.14334 1.977746,-0.591 1.296564,-1.25806 2.593128,-2.516114 3.889692,-3.77417 -0.502829,-1.900417 -0.895099,-3.843916 -1.678515,-5.656129 -0.736346,-0.69653 -1.855423,-0.403609 -2.761043,-0.664029 -1.461317,-0.173749 -2.926425,-0.313407 -4.392028,-0.445313 z"
             id="path197490" /><path
             id="path197493"
             style="display:inline;opacity:1;fill:#c6c0c2;fill-opacity:1;stroke:none;stroke-width:0.32;stroke-linecap:round;stroke-dasharray:none;stroke-opacity:1"
             d="m 51.712891,93.291016 c -1.626116,1.024193 -3.467537,1.825648 -4.77665,3.273469 -0.732998,0.876749 -0.42424,2.122984 -0.211632,3.123015 0.586672,1.43297 2.355528,1.57157 3.319965,2.63225 0.847304,0.91782 2.204984,0.58078 3.283551,0.40291 0.52132,-0.22962 1.033479,-0.19811 1.576221,-0.0757 1.200418,0.12046 2.3374,-0.17677 3.491137,-0.47399 1.29119,-1.03716 2.408126,-2.305824 3.632575,-3.431536 0.699411,-0.355677 0.125086,-1.070708 0.06934,-1.639434 -0.388055,-1.41835 -0.678824,-2.91907 -1.361075,-4.217204 -0.833116,-0.513925 -1.876613,-0.28168 -2.792379,-0.530505 -1.332463,-0.152107 -2.667023,-0.282989 -4.002543,-0.405042 -0.742838,0.447265 -1.485677,0.894531 -2.228515,1.341797 z" /><path
             id="path202396"
             style="opacity:1;fill:#e8e6e7;fill-opacity:1;stroke:none;stroke-width:0.32;stroke-linecap:round;stroke-dasharray:none;stroke-opacity:1"
             d="m 53.94141,91.949426 c -0.742837,0.447265 -1.48545,0.894255 -2.228287,1.34152 -1.626115,1.024192 -3.467858,1.825883 -4.77697,3.273702 -0.161092,0.192685 -0.271627,0.402927 -0.344165,0.624769 0.268729,0.285019 0.585611,0.52862 0.962732,0.713134 1.356034,0.79886 2.432914,-0.190096 3.602256,-0.197496 -0.640566,1.078802 0.932955,1.812723 1.821786,1.558141 1.670527,-0.868141 1.380011,-0.499266 1.930548,0.322977 0.896168,0.136729 1.831179,0.0041 2.720764,-0.12764 1.653329,-1.689457 0.902556,-5.843573 -0.858862,-6.78925 -0.240536,-0.170096 -0.481707,-0.343571 -0.72347,-0.517798 -0.701731,-0.07088 -1.403904,-0.13786 -2.106332,-0.202055 z"
             sodipodi:nodetypes="ccccccccccccc" /><path
             style="color:#000000;fill:#797576;fill-opacity:1;stroke-linecap:round;-inkscape-stroke:none"
             d="m 51.009766,97.707031 c -0.544257,0.193565 -1.05172,0.524415 -1.385837,1.00299 -0.652686,0.898268 -0.781012,2.154319 -0.313065,3.162239 0.133831,0.21087 0.393787,0.0391 0.24238,-0.23717 -0.245148,-0.57965 -0.299829,-1.24245 -0.114938,-1.847186 0.128613,-0.442332 0.352926,-0.850617 0.611033,-1.229825 0.272039,-0.242941 0.614765,-0.397857 0.864586,-0.666081 0.04483,-0.05355 0.08228,-0.115664 0.09584,-0.184967 z"
             id="path203867"
             sodipodi:nodetypes="cccccccsc" /><path
             style="color:#000000;fill:#797576;fill-opacity:1;stroke-linecap:round;-inkscape-stroke:none"
             d="m 54.294922,98.839844 c -0.742225,0.479465 -1.24665,1.359276 -1.175602,2.253606 0.05986,0.70357 0.534492,1.49259 0.917324,1.70828 0.175046,-0.058 0.222836,-0.11482 0.134822,-0.24848 -0.09873,-0.19191 -0.257453,-0.32402 -0.365428,-0.51029 -0.322052,-0.47906 -0.408753,-1.13537 -0.308926,-1.70255 0.0737,-0.422258 0.182859,-0.749303 0.476755,-1.013671 0.129072,-0.115772 0.377591,-0.29845 0.321053,-0.486895 z"
             id="path203873"
             sodipodi:nodetypes="cccccccsc" /></g><g
           id="g10861"
           style="display:inline;fill:#ffffff;fill-opacity:1"
           inkscape:label="Leg1"><path
             style="opacity:1;fill:#764726;fill-opacity:1;stroke-width:0.519999"
             d="m 40.673916,64.37336 c -2.752125,4.292729 -4.274957,9.476294 -3.668451,14.587611 0.09099,2.101881 0.676443,4.122963 1.306706,6.112334 0.440492,2.218175 0.687095,4.493201 0.671473,6.754319 -0.07068,1.558057 -0.159831,3.186782 -0.848521,4.586983 -0.792522,1.611305 -0.724725,3.703953 1.767425,4.460203 2.020157,0.61302 3.94051,1.39664 5.875866,2.18738 1.630634,-2.08699 3.40897,-4.303707 3.628795,-7.053052 0.771386,-4.570581 2.147779,-8.920621 0.645311,-13.304754 C 47.430974,79.024386 45.353948,57.283479 40.673916,64.37336 Z"
             id="path1207"
             sodipodi:nodetypes="cssssssscc" /><path
             id="path10304"
             style="opacity:1;fill:#e6913c;fill-opacity:1;stroke-width:0.519999"
             d="m 42.355469,63.236328 c -1.261593,0.424167 -1.736556,1.840617 -2.400664,2.874012 -2.156598,3.953265 -3.238485,8.588121 -2.664061,13.130315 0.101841,2.084168 0.792826,4.041875 1.336766,6.079605 0.656462,3.618622 1.033664,7.451052 -0.184725,10.998287 -0.238308,0.515622 -0.793809,0.970599 -0.642004,1.626765 0.400108,1.849759 2.268604,2.864888 3.902623,3.474738 1.310898,0.49737 2.684317,0.80844 3.988002,1.32604 1.62942,-2.06933 3.301916,-4.276493 3.491133,-6.979923 0.685662,-4.063422 1.965037,-8.272973 0.805999,-12.374633 -0.318465,-0.969943 -0.926396,-1.830796 -1.183234,-2.836336 -1.609461,-4.970768 -2.324518,-10.221554 -4.338507,-15.06301 -0.467331,-0.835635 -0.954232,-2.253789 -2.111328,-2.25586 z" /><path
             id="path13011"
             style="opacity:1;fill:#66360a;fill-opacity:1;stroke-width:0.519999"
             d="m 39.229647,90.537626 c 0.05229,1.957459 -0.144064,3.909095 -0.787032,5.781043 -0.238308,0.515621 -0.793626,0.970608 -0.641822,1.626774 0.112885,0.521883 0.342713,0.976975 0.651124,1.375626 0.641743,-0.232277 1.305753,-0.413656 1.904276,-0.746207 0.508771,-0.229805 0.331602,-0.900272 0.400492,-1.353406 0.09175,-0.736369 0.06157,-1.481219 -0.03462,-2.215886 0.157749,-0.491104 0.709818,-0.646274 1.008207,-1.027327 0.529922,-0.576245 -0.15812,-1.856772 -1.015442,-2.521293 -0.490556,-0.312956 -0.985674,-0.619786 -1.48518,-0.919324 z" /><path
             id="path15721"
             style="opacity:1;fill:#c2712c;fill-opacity:1;stroke-width:0.519999"
             d="m 45.276823,83.641406 c 0.271404,2.560174 0.863233,5.075648 1.472261,7.571114 0.382367,0.942286 0.529748,1.97365 0.317294,2.974496 -0.142088,1.262781 -0.314773,2.637467 -1.238684,3.595646 -0.432073,0.517223 -0.914136,0.992314 -1.322917,1.529106 -0.247922,0.760592 -0.351843,1.841902 0.629419,2.081012 0.357101,0.2315 0.715402,0.461 1.075903,0.68729 1.449025,-1.8792 2.803321,-3.897706 2.972429,-6.313822 0.588953,-3.490298 1.614613,-7.088516 1.158069,-10.63346 -1.6879,-0.497211 -3.375874,-0.994173 -5.063774,-1.491382 z" /></g><g
           id="g50042"
           style="display:inline;fill:#ffffff;fill-opacity:1"
           inkscape:label="Paw1"><path
             style="opacity:1;fill:#7e7c7d;fill-opacity:1;stroke-width:0.519999"
             d="m 37.919108,97.106949 c -1.570689,0.390062 -4.186769,1.860476 -5.502329,3.713471 -1.223303,1.55042 -1.953168,3.75205 -1.151698,5.65646 0.247784,0.85426 1.063172,1.192 1.760766,1.60972 0.933846,0.59092 1.942395,1.08593 3.034675,1.28895 1.737344,0.53156 3.353883,-0.73745 5.076661,-0.6745 1.280639,-0.10954 2.561073,-0.52234 3.536561,-1.38422 2.153606,-1.53739 3.331986,-4.29428 3.063848,-6.90924 -0.205221,-1.146346 -1.140787,-1.937417 -2.272708,-2.322648 -2.405311,-0.917727 -5.437694,-1.50151 -7.545776,-0.977993 z"
             id="path38910"
             sodipodi:nodetypes="sccccccccs" /><path
             id="path49347"
             style="opacity:1;fill:#c5c1c2;fill-opacity:1;stroke-width:0.519999;filter:url(#filter58100)"
             d="m 39.337891,97.214844 c -1.375834,-0.08012 -2.546842,0.558342 -3.71663,1.18618 -2.22453,1.230527 -4.102527,3.372156 -4.404464,5.893896 -0.117561,1.25024 0.217092,2.77679 1.498776,3.3077 1.543304,0.93543 3.343966,1.95341 5.210208,1.51652 1.188104,-0.33404 2.447526,-0.74473 3.644531,-0.73437 2.355519,-0.31687 4.345204,-2.09299 5.296876,-4.21875 0.538397,-1.32337 0.898254,-2.87137 0.443359,-4.263676 C 46.90188,98.8575 45.819814,98.39466 44.811023,98.134678 43.05641,97.526305 41.19939,97.174275 39.337891,97.214844 Z" /><path
             id="path51763"
             style="opacity:1;fill:#e7e5e6;fill-opacity:1;stroke-width:0.519999;filter:url(#filter58104)"
             d="m 39.082369,97.20802 c -1.266586,0.0064 -2.364612,0.604611 -3.461287,1.193209 -1.274945,0.705251 -2.435149,1.710191 -3.250965,2.914031 1.01e-4,0.22896 6.08e-4,0.45794 5.17e-4,0.68627 0.03317,0.58897 0.40949,1.25493 1.059367,1.28209 0.574891,0.27682 1.449067,-0.63427 1.808158,-0.0155 -0.108014,0.57362 -0.107064,1.28366 0.433049,1.64847 0.80836,0.58754 1.908509,0.49981 2.82205,0.24082 0.625378,-0.18118 1.157073,-0.57603 1.699638,-0.90796 0.406901,0.14958 0.144447,1.02359 0.824755,0.96945 0.717843,0.13682 1.425018,-0.22019 2.034502,-0.56276 0.715192,-0.51223 1.254518,-1.22742 1.795239,-1.91099 0.78634,-1.13161 1.309878,-2.56853 1.011308,-3.95118 -0.04016,-0.121464 -0.08653,-0.241647 -0.13901,-0.359151 -0.296106,-0.125044 -0.605339,-0.222118 -0.908472,-0.300241 -1.754611,-0.608372 -3.61207,-0.960409 -5.473567,-0.91984 -0.08599,-0.005 -0.170843,-0.0071 -0.255282,-0.0067 z" /><path
             style="color:#000000;fill:#7e7c7d;fill-opacity:1;stroke-linecap:round;-inkscape-stroke:none;filter:url(#filter58096)"
             d="m 34.992187,102.86914 c -0.906411,0.62468 -1.589063,1.54008 -1.939453,2.58203 -5.61e-4,10e-4 5.6e-4,0.003 0,0.004 -0.37537,0.80493 -0.279508,1.71811 -0.04687,2.51367 a 0.16,0.16 0 0 0 0.197266,0.10938 0.16,0.16 0 0 0 0.109375,-0.19922 c -0.221047,-0.75594 -0.29914,-1.58965 0.0293,-2.29102 l 0.0039,-0.008 0.0039,-0.01 c 0.326504,-0.98331 0.971182,-1.8496 1.824219,-2.4375 a 0.16,0.16 0 0 0 0.04102,-0.22265 0.16,0.16 0 0 0 -0.222657,-0.041 z"
             id="path53499" /><path
             style="color:#000000;fill:#7e7c7d;fill-opacity:1;stroke-linecap:round;-inkscape-stroke:none;filter:url(#filter57954)"
             d="m 40.210937,104.01758 a 0.16,0.16 0 0 0 -0.107421,0.0586 c -0.679322,0.84064 -1.274779,1.9919 -0.921875,3.14258 v 0.002 0.002 c 0.188952,0.57171 0.573971,1.02197 0.921875,1.44922 a 0.16,0.16 0 0 0 0.226562,0.0234 0.16,0.16 0 0 0 0.02148,-0.22461 c -0.349894,-0.42969 -0.70142,-0.85137 -0.865234,-1.3457 v -0.002 c -0.303741,-0.99397 0.221048,-2.04613 0.867188,-2.84571 a 0.16,0.16 0 0 0 -0.02539,-0.22461 0.16,0.16 0 0 0 -0.117188,-0.0352 z"
             id="path53599" /></g><g
           id="g23571"
           style="display:inline;fill:#ffffff;fill-opacity:1"
           inkscape:label="Chest"><path
             style="display:inline;opacity:1;fill:#e6913c;fill-opacity:1;stroke-width:0.519999"
             d="m 50.932291,57.480728 -1.190625,12.964584 13.163021,-4.29948 -4.7625,-10.318749 z"
             id="path70545" /><path
             style="opacity:1;fill:#994c12;fill-opacity:1;stroke-width:0.519999"
             d="m 41.671874,54.967187 c -0.683861,8.722808 -2.510234,17.897029 0.792166,26.324445 1.875047,4.325661 4.830678,8.088606 7.75079,11.753847 3.522797,4.255262 8.067901,7.804141 13.421397,9.381601 5.104121,2.12583 11.334272,3.53469 16.459239,0.74011 2.007245,-1.43397 5.163644,-2.67839 5.466599,-5.395215 C 83.935183,95.969689 81.001467,96.792949 78.868348,95.904802 72.238851,94.32673 66.178587,90.390324 62.26264,84.784208 58.417132,80.139276 53.894675,75.265954 53.411291,68.9464 c -0.244609,-2.446 -0.18001,-4.89923 0.197781,-7.335466 0.204221,-2.099631 0.287121,-5.530195 -2.144258,-6.214119 -3.252661,-0.35407 -6.53199,-0.21671 -9.79294,-0.429628 z"
             id="path17545" /><path
             id="path23014"
             style="opacity:1;fill:#e7e5e6;fill-opacity:1;stroke-width:0.519999"
             d="m 41.794922,56.630859 c -0.632057,7.02627 -1.776079,14.23428 -0.13361,21.192275 1.03447,4.720556 3.895959,8.745729 6.769171,12.526792 2.455788,3.303056 5.274161,6.41983 8.706782,8.690492 2.12993,1.464292 4.513871,2.509032 6.968293,3.290302 3.684686,1.46593 7.545154,2.50031 11.522718,1.99683 2.002313,-0.24285 3.920124,-1.00184 5.552344,-2.18117 1.622333,-1.03569 3.661182,-2.11008 4.083052,-4.163958 C 85.119443,97.482591 84.405126,97.255933 83.93384,97.061998 82.215593,96.538422 80.320983,96.808031 78.601392,96.107744 71.928136,94.484381 65.85396,90.429577 61.918787,84.785851 58.651702,80.831034 55.019389,76.844219 53.635343,71.776174 52.848044,68.587914 52.867277,65.235086 53.289605,61.993051 53.4763,60.150774 53.691282,58.054352 52.583209,56.446399 51.793064,55.339461 50.296193,55.63262 49.12277,55.481427 c -2.401319,-0.1249 -4.808293,-0.09208 -7.208708,-0.237286 -0.03971,0.462239 -0.07943,0.924479 -0.11914,1.386718 z" /><path
             id="path26051"
             style="opacity:1;fill:#c5c0bd;fill-opacity:1;stroke-width:0.53511"
             d="m 68.958582,91.01607 c -0.146642,0.09887 -0.290765,0.186455 -0.431499,0.258841 -3.216554,1.860641 -7.562008,3.228352 -11.443229,2.941931 -2.18281,-0.210138 -3.439586,-0.980644 -5.159375,-1.821195 -0.635291,-0.3105 -1.788698,-0.484862 -2.679716,-1.025615 2.182183,2.904252 4.698512,5.544282 7.611685,7.584955 2.129928,1.550633 4.771394,2.539983 7.225814,3.367303 3.684682,1.55237 7.568637,2.53075 11.546197,1.99759 2.002311,-0.25717 3.919897,-1.06101 5.552116,-2.30988 1.622331,-1.09675 3.661085,-2.23408 4.082954,-4.409062 C 85.119301,97.071636 84.40518,96.831137 83.933895,96.625767 82.21565,96.071319 80.320993,96.357149 78.601404,95.615573 75.156541,94.72815 71.872318,93.15304 68.958582,91.01607 Z"
             sodipodi:nodetypes="cccsccccccccc" /></g><g
           id="g189990"
           style="display:inline;fill:#ffffff;fill-opacity:1"
           inkscape:label="Paw3"><path
             style="opacity:1;fill:#7c7877;fill-opacity:1;stroke:none;stroke-width:0.32;stroke-linecap:round;stroke-dasharray:none;stroke-opacity:1"
             d="m 75.053313,97.808032 c -1.047284,0.437054 -1.928897,1.182337 -2.752947,1.944362 -0.686479,0.833976 -0.879615,1.927286 -0.943812,2.976016 -0.188424,0.95899 -0.102128,2.15093 0.603079,2.78937 0.416732,0.37728 1.137092,0.43699 1.675549,0.19121 0.407666,0.74306 1.30817,1.2057 2.177535,1.18575 0.945066,0.17298 2.162441,-0.19364 3.034765,-0.54615 0.882529,0.87984 2.328725,0.26046 4.433568,-0.56422 1.755914,-0.83063 3.328759,-2.01896 5.160509,-2.69152 0.951691,-0.70183 2.147262,-0.64915 3.268409,-0.73 0.845349,-0.0793 1.772894,-0.36279 2.334781,-1.03655 0.636179,-0.94766 -0.332368,-1.897825 -0.779828,-2.700916 -0.629576,-0.959013 -1.513503,-1.706601 -2.313182,-2.517286 -2.284691,-0.940013 -4.835524,-1.12859 -7.244319,-0.600211 -3.162903,0.611263 -6.178325,1.000599 -8.654107,2.300145 z"
             id="path185212"
             sodipodi:nodetypes="cssassccscscccc" /><path
             id="path185214"
             style="opacity:1;fill:#c6c0c2;fill-opacity:1;stroke:none;stroke-width:0.32;stroke-linecap:round;stroke-dasharray:none;stroke-opacity:1"
             d="m 86.007812,95.486328 c -2.117242,0.128092 -4.204612,0.681255 -6.311336,1.06105 -2.658361,0.56787 -5.440788,1.476564 -7.316951,3.545362 -0.748396,1.1071 -0.767267,2.43874 -0.83265,3.72367 0.053,0.76301 0.395068,1.69638 1.294922,1.71484 0.540574,0.0671 0.925781,-0.3093 1.249117,0.35896 0.962316,1.01123 2.562522,0.87268 3.792231,0.51774 0.48939,-0.0966 1.011923,-0.6017 1.389019,-0.0657 1.14925,0.4776 2.345976,-0.27215 3.435228,-0.61689 1.978731,-0.81134 3.695609,-2.15918 5.695963,-2.92563 1.606432,-1.14691 3.941748,-0.0955 5.377699,-1.58079 0.603231,-0.83531 -0.332937,-1.690676 -0.71027,-2.405042 -0.621497,-0.92192 -1.497524,-1.774725 -2.361333,-2.515974 -1.488892,-0.59422 -3.101158,-0.857183 -4.701639,-0.811626 z"
             sodipodi:nodetypes="ccccccccccccccc" /><path
             id="path190400"
             style="opacity:1;fill:#e7e5e6;fill-opacity:1;stroke:none;stroke-width:0.32;stroke-linecap:round;stroke-dasharray:none;stroke-opacity:1"
             d="m 86.30791,95.48151 c -0.100089,4.32e-4 -0.20021,0.0018 -0.30024,0.0047 -2.11724,0.128092 -4.204521,0.68164 -6.311243,1.061434 -2.33384,0.498547 -4.762909,1.259764 -6.590812,2.83807 0.312921,0.744906 1.432311,0.532402 2.108399,0.492476 0.500427,-0.0097 1.693556,-0.877947 1.39578,0.18294 -0.326207,0.89138 0.541104,1.54856 1.382345,1.34462 0.884635,0.13388 1.67127,-0.31156 2.415873,-0.72089 0.778843,0.0791 1.386878,0.82449 2.229321,0.62167 1.073585,-0.036 2.086932,-0.44681 3.147095,-0.58085 0.887048,-0.28514 1.74681,-0.65159 2.625679,-0.962211 1.441943,-0.490403 2.483535,-1.417128 3.40341,-2.444296 -0.356358,-0.358606 -0.730481,-0.700768 -1.103808,-1.021126 -1.395835,-0.557081 -2.900463,-0.822959 -4.401799,-0.816488 z" /><path
             style="color:#000000;opacity:1;fill:#7c7877;fill-opacity:1;stroke-linecap:round;-inkscape-stroke:none"
             d="m 76.279297,99.570312 c -1.16539,0.513008 -2.086276,1.514788 -2.587108,2.676728 -0.446173,1.0841 -0.419584,2.05203 -0.141408,3.18069 -0.0044,0.2583 0.535225,0.61809 0.312293,0.0316 -0.249696,-1.21781 -0.336087,-2.64027 0.369704,-3.73157 0.624926,-0.82755 0.848394,-1.11688 1.692231,-1.764815 0.13874,-0.105062 0.530196,-0.466168 0.354288,-0.392933 z"
             id="path190403"
             sodipodi:nodetypes="cccccccc" /><path
             style="color:#000000;opacity:1;fill:#7c7877;fill-opacity:1;stroke-linecap:round;-inkscape-stroke:none"
             d="m 80.384118,100.75261 c -0.258583,0.11327 -0.602834,0.48963 -0.80826,0.67091 -0.668543,0.73861 -1.246312,1.6281 -1.362677,2.63834 -0.09441,0.7765 0.0911,1.60265 0.587678,2.21688 0.130269,0.23315 0.464913,0.0602 0.29192,-0.16081 -0.728786,-0.95361 -0.655932,-2.42111 -0.215531,-3.2864 0.339193,-0.59835 0.45368,-0.81522 0.949033,-1.35916 0.08779,-0.10105 0.71189,-0.72514 0.557837,-0.71976 z"
             id="path190409"
             sodipodi:nodetypes="cccccccc" /></g><g
           id="g49954"
           style="display:inline;fill:#ffffff;fill-opacity:1"><path
             style="opacity:1;fill:#764227;fill-opacity:1;stroke-width:0.519999"
             d="m 57.447656,59.266666 c 2.840541,0.342932 5.726128,0.903361 8.287026,2.211687 1.85475,0.936322 2.280828,3.08034 3.65169,4.459732 2.401302,2.648645 5.744572,4.084419 8.698783,5.995508 3.966566,2.159616 8.020424,4.293624 11.313522,7.441406 2.204822,2.033181 4.127983,4.45251 5.415948,7.160932 0.917777,3.235967 0.551149,6.944806 -1.42698,9.72867 -0.841596,1.627213 -2.398374,3.060159 -4.350585,2.904131 -3.183291,0.267246 -6.21201,-1.0735 -9.021576,-2.411732 -1.670588,-0.556419 -3.611226,1.569894 -4.949993,-0.164661 -1.380374,-1.24674 -1.770723,-3.169417 -3.676548,-3.778816 C 70.010475,91.900411 68.41166,91.215905 67.15772,90.167098 65.832731,88.296421 64.398952,86.475003 63.141661,84.573673 61.243659,76.138004 59.345658,67.702335 57.447656,59.266666 Z"
             id="path43520" /><path
             id="path49259"
             style="opacity:1;fill:#e6913c;fill-opacity:1;stroke-width:0.519999"
             d="m 63.388672,84.466797 c 1.288669,1.898444 2.662816,3.74965 4.039835,5.577067 1.317344,1.023593 2.838481,1.753169 4.262333,2.601458 1.79676,0.676254 2.351326,2.716067 3.695879,3.917178 0.814765,0.903252 2.082226,0.209199 3.042327,-0.02035 0.923082,-0.332271 1.885984,-0.04634 2.694286,0.441503 2.556765,1.192024 5.273233,2.167345 8.121468,1.927613 1.841181,0.05574 3.250412,-1.440294 4.032156,-2.960492 1.854269,-2.741993 2.20921,-6.379211 1.20313,-9.495477 -1.88501,-3.823299 -4.947556,-6.948797 -8.32806,-9.412472 -3.324344,-2.416614 -7.084425,-4.124327 -10.55679,-6.302154 -2.972548,-1.724965 -6.192418,-3.548178 -7.8586,-6.69345 -0.627537,-1.189066 -1.569723,-2.250741 -2.875694,-2.689313 -2.176189,-0.969525 -4.66388,-1.478814 -7.07188,-1.779786 1.866537,8.296224 3.733073,16.592448 5.59961,24.888672 z" /><path
             id="path53889"
             style="opacity:1;fill:#663608;fill-opacity:1;stroke-width:0.519999"
             d="m 68.045976,64.587272 c -0.653445,1.214606 -2.360242,1.648857 -2.588473,3.133142 0.07957,1.236438 1.502314,1.947838 1.753898,3.186369 0.525903,1.235474 0.958906,2.515598 1.152385,3.846794 0.240814,0.997635 0.754225,2.03207 1.746663,2.455664 1.230021,0.73927 2.660381,-0.02717 3.727421,-0.719336 1.084936,-0.701495 2.232667,-1.401367 3.515548,-1.629875 0.96842,0.09588 1.995511,0.281828 2.80293,0.861446 0.799762,0.786215 1.938131,0.935479 3.005501,0.763778 0.453532,-0.131857 0.795405,-0.405349 1.046964,-0.754476 -2.804022,-1.772077 -5.802746,-3.22705 -8.613427,-4.989876 -2.798096,-1.623731 -5.815192,-3.335048 -7.54941,-6.15363 z" /><path
             id="path56410"
             style="opacity:1;fill:#c3712a;fill-opacity:1;stroke-width:0.519999"
             d="m 68.229427,79.738802 c -0.951806,1.858578 -1.903527,3.71742 -2.851505,5.577954 -0.175804,0.401997 -0.363542,0.798286 -0.558106,1.191659 0.854918,1.191605 1.729904,2.369564 2.608626,3.535701 1.317343,1.023592 2.838422,1.753104 4.262273,2.601392 1.796758,0.676253 2.351346,2.715964 3.695898,3.917073 0.814764,0.903251 2.082091,0.208879 3.042192,-0.02067 0.923081,-0.332271 1.886108,-0.04601 2.694409,0.441833 0.417734,0.194758 0.84045,0.382373 1.266589,0.561206 0.36673,-0.594982 0.330897,-1.395352 -0.285254,-1.859318 -0.823295,-0.699449 -1.784847,-1.241861 -2.756421,-1.702221 -2.633762,-1.087873 -5.397425,-2.245321 -7.24917,-4.512386 -2.369713,-2.730687 -2.502609,-6.523951 -3.869531,-9.732223 z" /><path
             id="path61042"
             style="opacity:1;fill:#764227;fill-opacity:1;stroke-width:0.519999"
             d="m 78.292379,75.634143 c -1.612126,-0.0283 -3.212206,0.41965 -4.511353,1.444356 -1.570506,1.281054 -2.041229,3.400602 -2.432409,5.294768 -0.467643,2.697855 -0.427102,5.501797 0.440283,8.11785 0.271743,1.213347 0.698343,2.42793 1.300179,3.535702 0.666288,0.809027 1.14064,1.810683 1.976623,2.565735 0.0053,0.0068 0.01072,0.0124 0.01602,0.01912 0.210694,0.191028 0.431866,0.371113 0.663009,0.540019 1.268606,0.567422 2.864936,-0.86297 4.27054,-0.394808 0.769673,0.366605 1.556757,0.732213 2.357996,1.066085 l 5.277714,-9.072832 c -0.20268,-1.972224 -0.405552,-3.94421 -0.608232,-5.916434 -0.46573,-2.170867 -1.779286,-4.191249 -3.643705,-5.416207 -1.436814,-1.107826 -3.27959,-1.751283 -5.106665,-1.783354 z" /><path
             id="path68989"
             style="opacity:1;fill:#e6913c;fill-opacity:1;stroke-width:0.519999"
             d="m 77.714844,75.910156 c -2.227709,0.09198 -4.526726,1.349092 -5.285988,3.540051 -1.321986,3.568269 -1.512047,7.648736 -0.309984,11.264364 0.356038,1.53549 0.951118,2.971486 1.941414,4.212677 0.58109,0.810911 1.197341,1.804266 2.19948,2.088377 1.414709,0.03324 2.85146,-1.146658 4.229473,-0.328492 0.584674,0.281511 2.110457,1.011413 2.682763,1.175034 l 5.827477,-9.466464 C 88.752417,86.330846 87.418886,84.804672 87.084375,82.754817 86.289008,79.609575 83.162061,76.900219 80.058542,76.129064 79.293219,75.94325 78.50139,75.872525 77.714844,75.910156 Z"
             sodipodi:nodetypes="ccccccccccc" /><path
             id="path69538"
             style="opacity:1;fill:#c0722b;fill-opacity:1;stroke-width:0.519999"
             d="m 92.064148,82.648185 c 0.618037,2.159536 1.072523,4.369117 1.420585,6.57686 0.08492,2.55136 -0.662696,5.223005 -2.298051,7.204728 -1.217698,1.183604 -3.066612,1.930679 -4.72891,1.302763 -2.893354,-0.738472 -5.846032,-2.413387 -8.897132,-1.489832 -0.595502,0.118422 -1.0092,0.394883 -1.274857,0.762744 0.697528,0.06153 1.490929,-0.30763 2.143022,-0.463537 0.923081,-0.332271 1.886108,-0.04601 2.694409,0.441833 2.556762,1.192023 5.273236,2.167263 8.121468,1.927531 1.841179,0.05574 3.250569,-1.440346 4.032312,-2.960543 1.854267,-2.74199 2.209106,-6.379281 1.203027,-9.495544 -0.669064,-1.357038 -1.48855,-2.624176 -2.415873,-3.807003 z" /><path
             style="display:inline;opacity:1;fill:#e6913c;fill-opacity:1;stroke-width:0.519999"
             d="m 56.422395,59.266666 0.198438,3.638021 4.630208,0.79375 -1.653646,-4.431771 z"
             id="path70757" /></g><g
           id="g37851"
           style="display:inline;fill:#ffffff;fill-opacity:1"
           inkscape:label="Leg2"><path
             style="opacity:1;fill:#7f421e;fill-opacity:1;stroke-width:0.519999"
             d="m 54.239583,105.56875 c 1.871174,-5.51959 3.973897,-12.582115 1.729637,-18.88213 -1.557383,-3.963225 -2.841142,-8.329972 -3.502828,-12.551046 -0.498155,-3.382831 -0.494359,-7.218246 1.592839,-9.998661 1.02156,-1.360849 3.851236,-4.152205 5.171157,-2.867381 2.999914,2.842402 4.536552,9.146193 6.188633,12.032008 2.99204,5.497792 5.134154,11.608134 3.7992,18.941934 -1.502961,5.4037 -1.684664,10.050426 -2.112507,14.322346 -0.611509,1.73031 -2.651931,2.3216 -4.298659,1.85705 -2.973294,-0.58085 -5.545362,-2.49584 -8.567472,-2.85412 z"
             id="path30009"
             sodipodi:nodetypes="cccscccccc" /><path
             id="path30171"
             style="opacity:1;fill:#e6913c;fill-opacity:1;stroke-width:0.519999"
             d="m 58.210938,61.216797 c -1.699043,0.438079 -2.932656,1.863036 -4.003813,3.170368 -2.06042,2.87902 -1.950852,6.684741 -1.427454,10.008051 0.69641,4.354486 2.06031,8.635104 3.630504,12.776944 1.560444,5.023002 0.574411,10.401339 -0.900568,15.31793 -0.286163,0.96105 -0.606652,1.91083 -0.919763,2.86343 3.305426,0.48894 6.102381,2.79064 9.476562,2.95507 1.412784,0.001 2.980145,-1.05688 2.851856,-2.60529 0.393704,-4.57345 0.808497,-9.177179 2.057395,-13.610494 0.823917,-4.475296 0.281839,-9.039353 -1.300555,-13.266297 -0.83932,-2.415353 -2.14244,-4.624669 -3.23492,-6.92357 -1.545768,-3.457111 -2.560549,-7.289659 -5.127682,-10.17833 -0.271977,-0.330202 -0.650548,-0.60164 -1.101562,-0.507812 z" /><path
             id="path39095"
             style="opacity:1;fill:#663608;fill-opacity:1;stroke-width:0.519999"
             d="m 54.467476,74.595447 c -0.541312,0.0061 -1.07938,0.134577 -1.595768,0.344165 0.564633,3.267931 1.494536,6.492568 2.595707,9.646439 0.788101,-0.317904 1.493808,-1.038077 1.701705,-1.785937 0.167605,-1.418939 -0.949242,-2.894291 0.0021,-4.281909 0.896503,-1.279359 -0.0051,-3.061442 -1.315682,-3.643189 -0.456952,-0.199919 -0.923633,-0.284794 -1.388029,-0.279569 z" /><path
             id="path40273"
             style="opacity:1;fill:#c07129;fill-opacity:1;stroke-width:0.519999"
             d="m 68.990621,83.652775 c -0.068,0.673777 -0.114611,1.35182 -0.201021,1.968355 -0.464595,2.401656 -0.656736,4.218228 -1.264523,6.254399 -0.970245,2.931281 -2.564957,5.714153 -2.734716,8.855791 -0.13447,3.02129 -0.19441,4.73426 0.204121,7.18406 1.220893,-0.24466 2.034232,-0.88077 1.923914,-2.21227 0.393704,-4.57345 0.808342,-9.177229 2.057239,-13.61054 0.517973,-2.813492 0.495852,-5.661957 0.01499,-8.439795 z"
             sodipodi:nodetypes="ccccccccc" /></g><g
           id="g169432"
           style="display:inline;fill:#ffffff;fill-opacity:1"
           inkscape:label="Paw2"><path
             style="display:inline;opacity:1;fill:#908a8a;fill-opacity:1;stroke:none;stroke-width:0.32;stroke-linecap:round;stroke-dasharray:none;stroke-opacity:1"
             d="m 56.003353,102.52481 c -1.267416,0.63097 -2.49496,1.3489 -3.568285,2.28002 -1.078003,0.84746 -1.816357,2.04739 -2.401631,3.26851 -0.253423,0.76375 -0.39785,1.60126 -0.09525,2.37461 0.212229,0.95313 0.940459,1.71279 1.770526,2.17796 0.602824,0.43519 1.47595,0.32359 2.037799,0.63698 0.681963,0.89113 1.906877,1.14039 2.968597,0.98388 0.929521,-0.0371 1.885196,-0.23454 2.639852,-0.80775 0.953719,0.40536 1.965796,-0.13307 2.823945,-0.53964 1.434278,-0.66233 2.660832,-1.7134 3.684004,-2.90511 0.344562,-0.61126 0.697576,-1.30101 0.740271,-2.01364 -0.02772,-1.05625 -0.799369,-1.89 -1.343513,-2.73554 -0.866611,-1.14253 -2.09484,-1.95409 -3.421593,-2.46796 -0.867457,-0.48524 -1.874139,-0.59193 -2.841026,-0.71502 -1.01767,0.0219 -2.015452,0.18449 -2.993698,0.4627 z"
             id="path160506" /><path
             id="path166391"
             style="display:inline;opacity:1;fill:#c5c1c2;fill-opacity:1;stroke:none;stroke-width:0.32;stroke-linecap:round;stroke-dasharray:none;stroke-opacity:1"
             d="m 58.253906,102.36914 c -1.254931,0.0876 -2.474409,0.43132 -3.523437,1.13867 -1.845361,1.04981 -3.514514,2.51928 -4.371467,4.50319 -0.799741,1.59754 -0.03819,3.68737 1.574867,4.43811 0.739099,0.44034 1.738407,0.0962 2.338791,0.97951 1.118747,0.87752 2.678501,0.61572 3.957138,0.29637 0.466725,-0.17136 0.903316,-0.63648 1.531921,-0.43593 1.254087,0.10643 2.229527,-0.61887 3.318359,-1.18359 1.410834,-0.97665 2.970012,-2.18131 3.241426,-3.98807 0.02719,-1.17612 -0.86919,-2.16307 -1.471955,-2.95578 -1.137744,-1.33973 -2.792108,-2.15236 -4.456971,-2.6206 -0.707739,-0.12019 -1.400239,-0.27478 -2.138672,-0.17188 z"
             sodipodi:nodetypes="cccccccccccc" /><path
             id="path171776"
             style="opacity:1;fill:#e7e5e6;fill-opacity:1;stroke:none;stroke-width:0.32;stroke-linecap:round;stroke-dasharray:none;stroke-opacity:1"
             inkscape:label="path171776"
             d="m 58.800028,102.33587 c -0.179822,-0.002 -0.361611,0.007 -0.546219,0.0331 -1.25493,0.0876 -2.474273,0.43159 -3.5233,1.13894 -1.589004,0.90397 -3.047102,2.11943 -3.96875,3.70624 -0.01842,0.37103 0.02154,0.74001 0.177767,1.10432 0.48353,0.67901 1.42182,0.50366 2.145089,0.34003 0.59748,-0.13517 1.346492,-0.69673 1.854667,-0.40876 -0.175778,0.576 -0.438368,1.40168 0.248564,1.757 0.755231,0.30169 1.610016,0.12707 2.378666,-0.0419 0.648238,-0.12143 1.051918,-0.86285 1.688269,-0.71985 0.04123,0.63537 0.756955,0.8642 1.327568,0.78497 0.95316,-0.0579 1.853708,-0.50064 2.493387,-1.20872 0.688835,-0.68269 1.194985,-1.54191 1.384412,-2.49907 0.115246,-0.45583 0.164899,-0.91992 0.187586,-1.38648 -1.126725,-1.206 -2.686003,-1.95339 -4.255038,-2.39468 -0.530804,-0.0901 -1.053201,-0.19946 -1.592668,-0.20516 z"
             sodipodi:nodetypes="sccccscccccccccss" /><path
             style="color:#000000;fill:#8b8587;fill-opacity:1;stroke-linecap:round;-inkscape-stroke:none"
             d="m 53.301838,109.89988 c -0.428041,1.01067 -0.361152,2.24388 0.263006,3.16023 0.216792,0.19478 0.489288,0.22016 0.165196,-0.33992 -0.451095,-0.82887 -0.42791,-1.84673 -0.111485,-2.71734 0.160863,-0.45306 0.377251,-0.82228 0.749445,-1.20784 0.163912,-0.18545 0.346315,-0.36595 0.539594,-0.51903 -0.04281,-0.0736 -0.214608,0.0664 -0.356815,0.14982 -0.405307,0.29646 -1.096519,1.02842 -1.248941,1.47408 z"
             id="path173639"
             sodipodi:nodetypes="cccccccc" /><path
             style="color:#000000;fill:#8b8587;fill-opacity:1;stroke-linecap:round;-inkscape-stroke:none"
             d="m 59.174479,109.26888 c -0.20664,-0.0184 -0.343238,0.14092 -0.532413,0.40238 -0.720467,0.93725 -0.70109,2.10062 -0.0413,3.08388 0.177084,0.26642 0.40404,0.50097 0.670719,0.67847 0.185265,0.10479 0.312862,-0.14498 0.175886,-0.27371 -1.076674,-0.89834 -1.149401,-2.20551 -0.842943,-3.08664 0.306931,-0.53586 0.408422,-0.55876 0.570051,-0.80438 z"
             id="path173645"
             sodipodi:nodetypes="ccccccc" /></g><path
           style="opacity:1;fill:#e6913c;fill-opacity:1;stroke-width:0.519999"
           d="m 67.258376,84.657622 2.712786,-3.648228 -2.245066,-5.238483 -3.928861,-9.354434 -3.367596,-5.332028 -1.493702,-0.494866 -2.215886,0.529167 -2.116666,2.711978 6.118489,12.898438 z"
           id="path70761"
           sodipodi:nodetypes="cccccccccc" /></g><g
         id="g1703"
         inkscape:label="Head"
         style="fill:#ffffff;fill-opacity:1"><g
           id="g11614"
           inkscape:label="Ear1"
           style="display:inline;fill:#ffffff;fill-opacity:1"><path
             style="fill:#662a19;fill-opacity:1;stroke-width:0.264583"
             d="m 31.619174,32.641685 c -0.710317,-2.450408 -0.41902,-5.249914 -1.973537,-7.408908 -0.571971,-0.716435 -1.181609,-1.451518 -2.088179,-1.747314 -0.755693,-0.306033 -1.860041,-0.774242 -1.664025,-1.786437 1.70653,-4.188976 6.523944,-7.610297 10.28771,-7.619839 l 5.466498,6.056409 z"
             id="path1764"
             sodipodi:nodetypes="ccccccc" /><path
             id="path7199"
             style="fill:#f9a8a6;fill-opacity:1;stroke-width:0.264583"
             d="m 35.849609,14.353516 c -2.700051,0.223088 -5.062774,1.671864 -6.97971,3.507054 -1.148591,1.151588 -2.210653,2.492591 -2.73318,4.043727 0.0975,1.006734 1.330688,1.163143 2.05157,1.577982 1.89263,1.159838 2.798657,3.378592 3.052002,5.504618 0.160801,1.045056 0.281132,2.084765 0.501897,3.077556 3.186197,-3.973307 6.372395,-7.946614 9.558593,-11.919922 -1.745442,-1.932291 -3.490885,-3.864583 -5.236328,-5.796875 -0.07161,0.002 -0.143229,0.0039 -0.214844,0.0059 z" /><path
             id="path11679"
             style="fill:#e69292;fill-opacity:1;stroke-width:0.264583"
             d="m 36.064465,14.347445 c -0.07161,0.002 -0.143359,0.0042 -0.214974,0.0062 -2.700048,0.223088 -5.062484,1.671574 -6.979419,3.506763 -1.148589,1.151586 -2.21064,2.492546 -2.733166,4.04368 0.0975,1.006733 1.330673,1.16336 2.051554,1.578199 0.08088,0.04956 0.158862,0.101688 0.236162,0.155029 0.07799,-0.114574 0.151235,-0.21118 0.218074,-0.278019 0.333703,-0.333703 0.33376,-0.723144 1.056783,-1.223698 0.723024,-0.500555 0.834505,-0.500741 1.557528,-0.945679 0.723024,-0.444937 1.39048,-0.3337 1.946651,-0.444934 0.556172,-0.111235 1.779342,-0.110978 2.557983,0.222725 0.778642,0.333703 3.893303,1.223698 3.893303,1.223698 0,0 0.0542,-0.06214 0.05994,-0.06873 0.528712,-0.659325 1.057236,-1.31885 1.585949,-1.978174 z" /><path
             style="fill:#662a19;fill-opacity:1;stroke-width:0.264583"
             d="M 40.507151,17.38268 C 38.810384,14.842704 37.456,11.788758 34.686655,10.214952 33.802963,9.6126634 32.649168,9.7508053 31.639012,9.9336903 c -3.111563,0.5080067 -5.664484,1.8355547 -8.682567,3.4408447 -2.905783,1.527618 -3.067929,3.847063 -3.391938,6.210515 -0.294637,1.979773 -0.507325,3.867634 -0.620219,5.964311 -0.220545,1.859298 -0.374547,4.085198 1.148269,5.439209 0.940401,0.834517 2.575526,0.284924 3.139842,-0.742235 1.09534,-1.708704 1.564281,-3.865249 2.652604,-5.58471 1.397649,-2.234771 2.533282,-3.898589 4.120119,-5.738911 1.478544,-1.619696 2.576373,-3.296786 4.659874,-3.43296 1.616116,0.104266 2.083759,1.904115 3.152295,2.805469 0.895559,0.672567 2.036781,-0.316603 2.68986,-0.912543 z"
             id="path1709"
             sodipodi:nodetypes="ccccccccccccc" /><path
             id="path8245"
             style="fill:#e6913c;fill-opacity:1;stroke-width:0.264583"
             d="m 32.835938,10.046875 c -3.74755,0.319958 -7.181391,2.123522 -10.406831,3.955343 -1.713291,1.029463 -2.325983,3.066041 -2.510719,4.940102 -0.430193,2.906295 -0.727644,5.841987 -0.846122,8.790102 0.0317,1.275748 0.448953,2.876311 1.77514,3.352708 1.139311,0.263528 2.140721,-0.627481 2.53736,-1.626146 0.983629,-1.980606 1.587491,-4.154931 2.922967,-5.950971 1.654658,-2.594803 3.54903,-5.066402 5.783143,-7.189105 1.029771,-0.898985 2.743406,-1.584354 3.918878,-0.559815 0.901395,0.672711 1.238336,1.918827 2.23634,2.46161 0.753237,0.151948 1.381571,-0.444042 1.917968,-0.884765 -1.701927,-2.578327 -3.09936,-5.67109 -6.012699,-7.105673 -0.414504,-0.168513 -0.872368,-0.198898 -1.315425,-0.18339 z" /><path
             id="path12802"
             style="fill:#ecad83;fill-opacity:1;stroke-width:0.264583"
             d="m 33.002637,10.043315 c -0.05573,3.24e-4 -0.111533,0.0017 -0.166915,0.0036 -3.747546,0.319958 -7.181163,2.123495 -10.4066,3.955314 -1.225832,0.736564 -1.886537,1.989195 -2.231905,3.328479 0.1524,-0.153221 0.296322,-0.299435 0.410311,-0.420129 0.668564,-0.707892 1.415797,-1.258558 2.280997,-1.848466 0.865201,-0.58991 2.202511,-1.336642 3.303675,-1.887224 1.101164,-0.550582 2.045057,-1.179917 3.028239,-1.455208 0.98318,-0.275292 1.769727,-0.708271 2.674255,-0.86558 0.904527,-0.157309 1.179687,-0.235751 2.005562,-0.157097 0.509429,0.04852 1.154084,0.336365 1.886707,0.623735 -0.49088,-0.421908 -1.03006,-0.792213 -1.635559,-1.090373 -0.362691,-0.147448 -0.758649,-0.189338 -1.148767,-0.187068 z" /><path
             id="path14889"
             style="fill:#c1722b;fill-opacity:1;stroke-width:0.264583"
             d="m 33.454806,13.77797 c -0.961683,-0.0034 -1.930935,0.206937 -2.78691,0.603581 -2.270376,0.879865 -3.554051,3.046297 -5.27203,4.627625 -1.44247,1.517912 -3.855888,1.542133 -5.556767,0.488342 -0.386847,2.724893 -0.655935,5.47454 -0.766878,8.235156 0.0317,1.275747 0.4489,2.875854 1.775085,3.35225 1.13931,0.263528 2.140675,-0.627076 2.537313,-1.62574 0.983628,-1.980604 1.587861,-4.15502 2.923336,-5.951058 1.654656,-2.594801 3.548999,-5.066525 5.783109,-7.189225 1.02977,-0.898985 2.743153,-1.584194 3.918624,-0.559656 0.901394,0.67271 1.238553,1.918566 2.236556,2.461348 0.398889,0.08047 0.762329,-0.04935 1.096057,-0.254248 -0.508334,-0.80581 -1.103717,-1.562261 -1.704805,-2.262394 -0.998429,-1.320944 -2.579886,-1.920301 -4.18269,-1.925981 z" /></g><g
           id="g840"
           inkscape:label="Ear2"
           style="fill:#ffffff;fill-opacity:1"><path
             style="display:inline;fill:#662a19;fill-opacity:1;stroke-width:0.264583"
             d="m 68.03628,36.653073 c 1.806677,-2.188802 3.291146,-4.647538 5.308407,-6.658129 1.197531,-1.01724 2.879223,-1.576865 4.429359,-1.151185 3.806991,-4.045371 0.186477,-6.783703 -0.951964,-10.149092 -1.571481,-2.292471 -5.878257,-1.264882 -8.119489,-0.845637 -3.272931,3.262068 -3.473363,6.146319 -2.767876,10.201897 0.700522,2.86738 1.401034,5.734772 2.101563,8.602146 z"
             id="path27697"
             sodipodi:nodetypes="ccccccc" /><path
             id="path27768"
             style="display:inline;fill:#e69292;fill-opacity:1;stroke-width:0.264583"
             d="m 72.449219,17.542969 c -1.231854,0.1174 -2.520761,0.264399 -3.682254,0.623189 -1.828006,1.755972 -3.029922,4.222096 -2.895348,6.792428 0.04191,3.009155 1.104542,5.865472 1.726185,8.780587 0.189404,0.775094 0.378809,1.550187 0.568214,2.32528 1.751539,-2.15275 3.189897,-4.589817 5.253906,-6.46875 1.192548,-0.908711 2.776944,-1.395217 4.261719,-1.044922 1.216282,-1.221812 1.93071,-3.079204 1.283437,-4.759131 -0.616626,-1.770754 -1.779179,-3.293838 -2.435518,-5.043312 -0.93849,-1.222981 -2.672975,-1.271689 -4.080341,-1.205369 z" /><path
             id="path32362"
             style="display:inline;fill:#f9a8a6;fill-opacity:1;stroke-width:0.264583"
             d="m 74.066797,23.913269 c -2.721841,0.390488 -4.6918,2.542037 -6.345349,4.559928 0.297971,2.341207 0.59603,4.682137 0.894002,7.023344 1.556044,-2.004936 2.919769,-4.185331 4.804358,-5.900931 1.192547,-0.908711 2.776982,-1.395193 4.261755,-1.044898 0.785762,-0.789334 1.36154,-1.843876 1.49655,-2.944523 -1.334216,-1.021978 -3.392439,-1.455239 -5.111316,-1.69292 z" /><path
             style="display:inline;fill:#662a19;fill-opacity:1;stroke-width:0.264583"
             d="m 63.041709,21.276086 c 3.456983,-2.633768 6.458251,-6.139802 10.69798,-7.528017 2.695764,-0.385628 4.767261,1.818965 6.654219,3.386805 1.857155,1.684351 3.498109,3.604206 4.892026,5.687461 0.616525,3.528188 -0.852673,6.939215 -1.479145,10.358619 -0.496487,1.861847 -1.084717,4.055296 -2.842994,5.09459 -2.444625,0.65436 -3.535478,-2.141697 -2.987577,-4.094639 -0.196688,-4.223883 -1.53917,-8.315079 -3.174309,-12.183623 -0.693714,-1.178127 -1.204188,-2.823895 -2.612152,-3.278286 -2.241932,-0.358585 -3.561295,2.042184 -5.63842,2.395146 -1.134412,0.332811 -2.349762,0.398896 -3.509628,0.161944 z"
             id="path16149" /><path
             id="path17064"
             style="display:inline;fill:#e6913c;fill-opacity:1;stroke-width:0.264583"
             d="m 73.794922,14.009766 c -3.998731,1.33124 -6.885362,4.553065 -10.107422,7.097656 1.815506,0.185605 3.723468,-0.277731 5.147727,-1.448532 1.058526,-0.778575 2.493682,-1.652905 3.819719,-1.028422 1.329568,0.731898 1.82762,2.285614 2.505519,3.545634 1.599298,3.838732 2.909114,7.88057 3.07391,12.064132 -0.371586,1.380568 0.03671,3.320708 1.550781,3.808594 1.22059,0.372023 2.117262,-0.811556 2.638549,-1.743195 1.14412,-2.224906 1.353964,-4.764665 2.055856,-7.137437 0.498339,-2.044268 0.908874,-4.131849 0.553642,-6.244368 C 82.922201,19.77707 80.19778,16.977503 77.049664,14.824074 76.088348,14.21993 74.938548,13.842652 73.794922,14.009766 Z" /><path
             id="path19979"
             style="display:inline;fill:#c1722b;fill-opacity:1;stroke-width:0.264583"
             d="m 72.293262,17.539498 c -0.107981,0.0018 -0.216365,0.0088 -0.325562,0.02067 -2.580766,-0.07229 -4.353743,1.91212 -6.201172,3.47369 1.117221,-0.196044 2.18578,-0.649438 3.068547,-1.37511 1.058525,-0.778574 2.493886,-1.652843 3.819922,-1.028361 1.329566,0.731898 1.827375,2.285502 2.505273,3.54552 1.599297,3.838729 2.909435,7.880822 3.074231,12.06438 -0.371585,1.380567 0.03674,3.320668 1.55081,3.808553 1.220589,0.372023 2.117312,-0.811408 2.638599,-1.743046 1.144118,-2.224904 1.353797,-4.764779 2.055688,-7.137549 0.498338,-2.044266 0.908686,-4.132063 0.553455,-6.24458 -0.311752,-0.464711 -0.638272,-0.920821 -0.976168,-1.369425 -0.08657,0.427837 -0.156624,0.838922 -0.24753,1.126546 -0.821813,1.485428 -2.912171,1.829203 -4.458643,1.405082 -1.946154,-0.367641 -2.824256,-2.278614 -3.454569,-3.945495 -0.525961,-1.551286 -1.983171,-2.628452 -3.602881,-2.600875 z" /><path
             id="path23181"
             style="display:inline;fill:#ecad83;fill-opacity:1;stroke-width:0.264583"
             d="m 74.437834,13.97124 c -0.213581,-0.0048 -0.428425,0.0074 -0.642855,0.03876 -3.998727,1.331238 -6.885337,4.552652 -10.107394,7.097241 0.226938,0.0232 0.455494,0.03647 0.684196,0.03927 0.01081,-0.02265 0.02276,-0.04488 0.03307,-0.0677 2.812862,-2.885236 6.321898,-5.787196 10.559046,-5.810498 2.527339,-0.04454 4.06549,2.094017 5.983614,3.292305 0.262079,0.143425 0.530496,0.230055 0.797884,0.268718 -1.422384,-1.491613 -2.996798,-2.84323 -4.695834,-4.005435 C 76.268492,14.333035 75.36335,13.99226 74.437834,13.97124 Z" /></g><path
           style="display:inline;fill:#632c0e;fill-opacity:1;stroke-width:0.264583"
           d="m 41.057732,15.809587 c 8.268007,-3.822119 18.787348,-2.568891 25.781003,3.293956 4.720915,4.738778 4.705446,11.846742 4.914758,18.072219 0.560239,5.813671 2.096312,12.350545 -1.409468,17.58855 C 66.50961,60.111886 59.134597,61.10464 53.034752,60.289937 45.092981,58.832389 36.328943,58.051788 29.973039,52.533872 25.805511,48.931926 24.630053,42.454993 27.419236,37.668143 c 2.167069,-4.119041 5.051227,-7.872775 6.464183,-12.363278 1.567477,-3.664659 3.597865,-7.441795 7.174313,-9.495278 z"
           id="path1653"
           sodipodi:nodetypes="ccccccccc" /><path
           id="path5573"
           style="display:inline;fill:#e6913c;fill-opacity:1;stroke-width:0.264583"
           d="m 50.164062,13.912109 c -3.19415,0.162635 -6.372607,0.835652 -9.243584,2.294264 -3.437865,2.120076 -5.411487,5.861709 -6.891373,9.489997 -1.599499,4.885758 -4.954147,8.910495 -7.07836,13.545522 -1.916678,4.773552 -0.220796,10.696638 3.953413,13.714631 5.00789,3.950477 11.444436,5.225734 17.597437,6.277044 2.97014,0.499732 5.845907,1.162641 8.874468,1.030555 3.435479,-0.06713 6.987409,-0.849647 9.836828,-2.803184 2.293724,-1.525234 3.955614,-3.957472 4.59188,-6.665654 1.156808,-4.621755 0.01063,-9.365781 -0.327731,-14.011473 C 71.306042,31.993155 71.267012,26.976328 69.070312,22.636719 68.154062,20.820636 66.775464,19.131612 65.000024,18.04551 60.67101,15.077318 55.377847,13.700742 50.164062,13.912109 Z" /><path
           id="path5156"
           style="display:inline;fill:#bf722a;fill-opacity:1;stroke-width:0.264583"
           d="m 69.917696,24.625887 c 0.161915,1.512832 0.493745,3.038282 0.665076,4.440556 -0.06651,6.422071 1.248403,12.94423 -0.182935,19.300114 -0.725355,5.57565 -5.990486,9.39733 -11.305253,10.046932 -8.882246,0.620604 -17.800216,-0.984974 -26.15706,-4.041097 4.652591,2.862693 10.215069,3.947292 15.563908,4.861202 2.970137,0.499731 5.845836,1.162514 8.874394,1.030428 3.435476,-0.06713 6.98771,-0.849395 9.837126,-2.80293 2.293721,-1.525232 3.955702,-3.957564 4.591967,-6.665743 1.156807,-4.62175 0.01073,-9.36586 -0.327628,-14.011548 -0.14543,-4.074328 -0.196591,-8.312127 -1.559595,-12.157914 z" /><g
           id="g23866"
           style="display:inline;fill:#ffffff;fill-opacity:1"><path
             style="opacity:1;fill:#7e7e80;fill-opacity:1;stroke-width:0.519999"
             d="m 42.547193,43.298025 c -2.369603,-0.02975 -4.92963,0.344233 -6.839446,1.848821 -1.862451,1.659644 -2.221451,4.809596 -0.538719,6.724074 1.317834,1.562324 3.229065,2.547735 4.360455,4.289404 0.985228,1.823137 2.164053,3.657458 4.018213,4.705191 1.994201,1.099705 4.541437,1.437155 6.645918,0.441014 3.07472,-1.13943 5.630244,-3.334346 8.741147,-4.386711 1.86819,-0.671992 3.749854,-2.06446 4.005483,-4.172596 0.259794,-1.661269 -0.565497,-3.358431 -1.959947,-4.27042 -2.955533,-2.335604 -6.653116,-3.395681 -10.220605,-4.398834 -2.687312,-0.629801 -5.460323,-0.788511 -8.212499,-0.779943 z"
             id="path16903"
             sodipodi:nodetypes="ssssssssssssssssscssssscsssscssscssss" /><path
             id="path16905"
             style="opacity:1;fill:#e8e6e7;fill-opacity:1;stroke-width:0.519999"
             d="m 41.666016,43.570312 c -2.209409,0.100738 -4.666878,0.546268 -6.229134,2.245828 -1.538727,1.807025 -1.444799,4.80592 0.393004,6.383655 1.533951,1.494063 3.500153,2.661621 4.41161,4.686592 1.144978,2.047455 2.829589,3.879902 5.16601,4.456353 1.702967,0.515515 3.567259,0.32832 5.1531,-0.466217 2.989087,-1.255269 5.591537,-3.364603 8.720563,-4.377313 1.801016,-0.713588 3.495488,-2.316389 3.44344,-4.383976 0.01115,-1.568072 -1.004323,-2.939202 -2.303276,-3.72909 -3.046254,-2.211662 -6.70402,-3.241713 -10.303153,-4.172955 -2.750342,-0.580668 -5.620815,-0.683085 -8.452164,-0.642877 z" /><path
             id="path29522"
             style="display:inline;opacity:1;fill:#c7c0bd;fill-opacity:1;stroke-width:0.519999"
             inkscape:label="path29522"
             d="m 35.354948,51.71519 c 0.142904,0.172765 0.300792,0.335249 0.474906,0.484725 1.53395,1.494061 3.500161,2.661566 4.411617,4.686535 1.144977,2.047453 2.829675,3.879609 5.166093,4.456059 1.702966,0.515514 3.567335,0.328415 5.153174,-0.466121 2.989084,-1.255268 5.591375,-3.364285 8.720398,-4.376994 1.610036,-0.637919 3.133752,-1.986969 3.40186,-3.742924 -0.401968,0.239034 -0.653048,0.571532 -0.975651,0.942061 -0.976228,0.986058 -1.972285,1.62275 -3.198255,2.085661 -0.894636,0.348084 -1.695462,0.711346 -2.557983,1.112077 -1.600929,1.002189 -2.981162,1.737616 -4.560962,2.725415 -1.99059,1.128037 -4.247312,1.529576 -6.145361,0.861964 -0.389321,-0.139041 -1.891029,-1.306896 -2.391586,-1.751831 -1.748236,-1.651663 -2.439137,-3.85191 -4.338236,-5.39502 -0.58398,-0.472746 -1.974452,-1.140207 -2.83652,-1.501717 -0.106098,-0.04449 -0.21457,-0.0842 -0.323494,-0.11989 z"
             sodipodi:nodetypes="ccccccccccccccsc" /><g
             id="g28717"
             inkscape:label="g28717"
             style="fill:#ffffff;fill-opacity:1"><circle
               style="opacity:1;fill:#7e7e80;fill-opacity:1;stroke-width:0.519999;filter:url(#filter25992)"
               id="path23920"
               cx="42.276882"
               cy="45.757347"
               r="0.27529129" /><circle
               style="opacity:1;fill:#7e7e80;fill-opacity:1;stroke-width:0.519999;filter:url(#filter25992)"
               id="circle28695"
               cx="43.043766"
               cy="46.701202"
               r="0.27529129" /><circle
               style="opacity:1;fill:#7e7e80;fill-opacity:1;stroke-width:0.519999;filter:url(#filter25992)"
               id="circle28697"
               cx="43.830311"
               cy="45.953983"
               r="0.27529129" /><circle
               style="opacity:1;fill:#7e7e80;fill-opacity:1;stroke-width:0.519999;filter:url(#filter25992)"
               id="circle28699"
               cx="54.999271"
               cy="47.704048"
               r="0.27529129" /><circle
               style="opacity:1;fill:#7e7e80;fill-opacity:1;stroke-width:0.519999;filter:url(#filter25992)"
               id="circle28701"
               cx="55.510529"
               cy="49.021515"
               r="0.27529129" /><circle
               style="opacity:1;fill:#7e7e80;fill-opacity:1;stroke-width:0.519999;filter:url(#filter25992)"
               id="circle28703"
               cx="56.788666"
               cy="48.490597"
               r="0.27529129" /></g><g
             id="g47626"
             style="fill:#ffffff;fill-opacity:1"><path
               style="fill:#341f09;fill-opacity:1;stroke-width:0.519999"
               d="m 41.824169,49.554965 c 0.425775,2.508173 1.210917,5.103233 3.035024,6.962844 0.983341,0.950916 2.511543,1.559195 3.834828,0.974167 1.857153,-0.705653 3.511831,-1.845665 5.061087,-3.069974 0.843846,-0.752432 1.438605,-1.733337 1.955952,-2.727054 -0.578761,-1.213905 -4.360471,-1.727406 -5.535197,-2.020431 -2.810822,-0.351897 -5.723979,-0.148303 -8.351694,-0.119549 z"
               id="path28291"
               sodipodi:nodetypes="sccccccs" /><path
               id="path28293"
               style="fill:#480402;fill-opacity:1;stroke-width:0.519999"
               d="m 43.847656,49.775391 c -0.513629,0.08457 -1.373946,-0.11227 -1.686649,0.135396 0.476973,2.530911 1.345014,5.248375 3.458134,6.886088 0.981637,0.716964 2.337302,0.889675 3.442723,0.256687 1.805562,-0.810087 3.512802,-1.902948 4.950325,-3.263409 0.548545,-0.629322 1.088752,-1.384361 1.362811,-2.13195 -1.229366,-1.050182 -2.954446,-1.184041 -4.46259,-1.554904 -2.306951,-0.4984 -4.719431,-0.351886 -7.064754,-0.327908 z" /></g><g
             id="g7552"
             style="display:inline;fill:#ffffff;fill-opacity:1"><path
               style="fill:#c27675;fill-opacity:1;stroke-width:0.519999"
               d="m 43.103363,53.698449 c 0.357684,-0.704553 2.223949,-0.819578 3.389764,-0.722131 0.424358,0.03547 1.562333,0.224618 1.886943,0.735989 0.408036,-0.100422 0.34012,-0.212994 0.780413,-0.364975 1.31878,-0.455218 3.36167,0.596961 3.751938,0.953785 0.457897,0.530871 0.231093,1.272702 0.278077,1.904832 -0.210535,2.14345 -1.130988,4.21187 -2.560794,5.818488 -0.674194,0.617422 -1.561254,1.004018 -2.478398,1.036605 -1.606227,0.171967 -3.160667,-0.717523 -4.087599,-1.990601 -0.660969,-0.891744 -1.117423,-1.945252 -1.203292,-3.059709 -0.127773,-1.439692 0.01373,-2.889898 0.242948,-4.312283 z"
               id="path912"
               sodipodi:nodetypes="cscsccccccc" /><path
               id="path6029"
               style="fill:#e39092;fill-opacity:1;stroke-width:0.519999"
               d="m 45.033203,53.240234 c -0.662846,0.09743 -1.820657,0.108651 -1.746222,1.051654 -0.301244,2.190695 -0.507599,4.684544 0.936985,6.544289 1.130842,1.736698 3.563224,2.549006 5.438143,1.548589 1.342431,-0.768603 2.059206,-2.26865 2.651688,-3.636829 0.465242,-1.276923 0.790352,-2.660144 0.536677,-4.03645 -0.482056,-0.678965 -1.418792,-0.894701 -2.192536,-1.120443 -0.70591,-0.20565 -1.448549,-0.05863 -2.057332,0.325826 -0.414835,0.002 -0.674401,-0.427411 -1.206075,-0.498901 -0.763849,-0.227167 -1.57238,-0.232145 -2.361328,-0.177735 z"
               sodipodi:nodetypes="cccccccccc" /><path
               style="fill:#fba8a8;fill-opacity:1;stroke-width:0.519999"
               d="m 43.869636,53.54416 c -0.302323,0.257932 0.02236,5.527934 1.943935,7.423875 1.34575,1.110905 3.321056,0.60181 4.484554,-0.52262 1.465288,-1.422388 2.187834,-3.551211 2.06619,-5.567898 -0.471836,-1.209058 -2.065271,-1.008942 -3.121506,-1.020421 -0.627328,0.337591 -0.899917,0.209319 -1.453846,-0.07066 -0.523076,-0.264389 -1.389197,-0.357744 -2.512648,-0.430377 -0.472426,0.03153 -1.289248,0.100461 -1.406679,0.188109 z"
               id="path18166"
               sodipodi:nodetypes="cccccsccc" /><path
               style="fill:#e38e91;fill-opacity:1;stroke-width:0.519999"
               d="m 48.150629,53.670641 c 0.122757,0.642611 0.180285,1.274735 0.11048,1.884622 -0.05579,0.42204 -0.06069,0.767329 -0.212955,1.259278 0.646857,-0.210604 0.691726,-1.251456 0.75725,-1.851842 0.04792,-0.439095 0.113471,-0.603816 0.0057,-1.00458 -0.306363,-0.07474 -0.325213,0.02914 -0.601519,0.0075 z"
               id="path20653"
               sodipodi:nodetypes="cccsccc" /><path
               id="path22741"
               style="display:inline;fill:#c27675;fill-opacity:1;stroke-width:0.519999"
               d="m 48.425781,54.082031 c 0.102462,0.512266 -0.05857,2.114579 -0.17325,2.473628 0.454922,-0.449154 0.507138,-2.170648 0.374155,-2.735756 -0.154978,0.0038 -0.2834,-0.15031 -0.256527,-0.01596 z"
               sodipodi:nodetypes="sccss" /></g><path
             style="opacity:1;mix-blend-mode:normal;fill:#837f80;fill-opacity:1;stroke-width:0.519999;filter:url(#filter28784)"
             d="m 36.456434,46.327597 c 0.266511,-0.333253 0.577155,-0.643678 0.969614,-0.824773 0.497049,-0.257002 1.062728,-0.392506 1.622815,-0.336009 0.453714,0.04476 0.885853,0.214639 1.29233,0.413272 0.110478,0.05841 0.328026,0.210809 0.223286,0.341057 -0.177205,-0.0051 -0.31792,-0.143608 -0.48348,-0.19728 -0.241331,-0.08499 -0.483612,-0.1714 -0.731496,-0.235241 -0.356478,-0.0594 -0.719994,0.0072 -1.07027,0.07639 -0.413749,0.112332 -0.828767,0.241649 -1.197106,0.466671 -0.201944,0.111861 -0.387084,0.272105 -0.625693,0.295916 z"
             id="path28782" /><path
             style="opacity:1;fill:#a7a3a4;fill-opacity:1;stroke-width:0.519999;filter:url(#filter29516)"
             d="m 57.732522,49.532772 c 0.545175,-0.10281 1.121108,-0.191964 1.662168,-0.01928 0.532974,0.121711 1.050699,0.402965 1.360353,0.86547 0.285141,0.383348 0.506444,0.832923 0.534045,1.31646 0.02992,0.228183 -0.281847,0.164456 -0.275088,-0.02334 -0.0184,-0.253755 -0.149322,-0.4759 -0.266335,-0.695424 -0.06307,-0.200452 -0.190833,-0.374844 -0.350681,-0.509859 -0.202411,-0.217081 -0.43513,-0.421807 -0.724263,-0.510283 -0.267215,-0.124491 -0.552269,-0.224401 -0.849805,-0.229545 -0.365224,-0.05341 -0.734675,-0.09119 -1.090394,-0.194192 z"
             id="path28788"
             sodipodi:nodetypes="sccccccccccs" /><path
             style="display:inline;opacity:1;fill:#e8e5e6;fill-opacity:1;stroke-width:0.519999"
             d="m 38.264663,45.939844 c -0.956928,1.311831 0.139001,2.862848 1.204032,3.690703 2.059892,1.852058 4.967198,2.376287 7.639428,1.911216 0.79562,-0.204275 0.974739,-0.184608 1.703621,-0.362089 0.812308,0.545539 2.000172,1.200644 2.727636,1.460795 2.464211,0.767062 5.649368,0.952596 7.603524,-1.02416 1.319524,-1.910301 -2.009701,-1.052449 -2.977917,-1.391132 -4.791215,-0.517943 -9.612794,-1.192561 -14.198481,-2.719109 -1.228507,-0.542915 -2.39591,-1.202699 -3.701843,-1.56622 z"
             id="path47768"
             sodipodi:nodetypes="cccccccccc"
             inkscape:label="path47768" /><path
             id="path24213"
             style="opacity:1;fill:#c8c2c3;fill-opacity:1;stroke-width:0.519999"
             d="m 37.949105,46.610075 c -0.276415,1.137735 0.631951,2.330354 1.519804,3.020487 2.05989,1.852056 4.967099,2.376065 7.639327,1.910995 0.795619,-0.204275 0.974374,-0.184254 1.703255,-0.361735 0.812307,0.545538 2.000535,1.200742 2.727999,1.460893 2.464208,0.767061 5.649516,0.952527 7.60367,-1.024227 0.05642,-0.08167 0.103693,-0.158098 0.14366,-0.22996 -0.724789,0.56086 -1.414586,0.762119 -1.843727,0.8726 -1.747979,0.382929 -3.390108,0.04998 -4.837202,-0.461237 -0.668565,-0.235962 -1.204932,-0.475694 -1.558878,-0.672329 -0.353945,-0.196635 -0.983229,-0.550499 -1.494482,-0.82579 -0.511254,-0.275286 -0.70822,-0.314653 -0.904854,-0.353983 -2.420508,0.725303 -3.279664,0.785313 -5.015784,0.643678 -2.248361,-0.183423 -4.132015,-1.258031 -5.169641,-2.689036 -0.289595,-0.394901 -0.387117,-0.813019 -0.513147,-1.29036 z"
             sodipodi:nodetypes="cccccccccsscsccc" /><path
             id="path24224"
             style="opacity:1;fill:#96918e;fill-opacity:1;stroke-width:0.519999"
             d="m 38.019902,46.385282 c -0.467488,1.202615 0.502449,2.509515 1.449007,3.24528 2.05989,1.852056 4.967099,2.376065 7.639327,1.910995 0.795619,-0.204275 0.974374,-0.184254 1.703255,-0.361735 0.812307,0.545538 2.000535,1.200742 2.727999,1.460893 2.464208,0.767061 5.649516,0.952527 7.60367,-1.024227 0.244334,-0.353727 0.328638,-0.612428 0.29869,-0.801502 -0.225945,0.841047 -0.912166,1.237357 -1.327568,1.44539 -0.384861,0.182304 -0.708823,0.283405 -1.154451,0.445451 -0.44563,0.16205 -0.972372,0.162061 -1.418002,0.202571 -0.445628,0.04051 -1.053509,0.02046 -1.600419,-0.04031 -0.929454,-0.168832 -1.891271,-0.321624 -2.75487,-0.648539 -0.364607,-0.14179 -0.972061,-0.486085 -1.377177,-0.729155 -0.405119,-0.243073 -0.567426,-0.36454 -0.871265,-0.627869 -0.30384,-0.263326 -0.384701,0.04073 -0.749308,0.162264 -0.835352,0.272805 -1.51285,0.382137 -2.412544,0.47809 -1.429113,0.08758 -2.624915,-0.16969 -3.835255,-0.571132 -0.364606,-0.121533 -1.104851,-0.555445 -1.489713,-0.778261 -0.384863,-0.222816 -0.911693,-0.68876 -1.195276,-0.911572 -0.283583,-0.222817 -0.747758,-0.846858 -0.911572,-1.154452 -0.173911,-0.326552 -0.306317,-0.773072 -0.346827,-1.198445 -0.01089,-0.114222 0.02599,-0.331555 0.0223,-0.503777 z"
             sodipodi:nodetypes="ccccccccssccsscccsssscc" /></g><path
           id="path8750"
           style="fill:#663608;fill-opacity:1;stroke-width:0.264583"
           d="m 51.142098,13.891142 c -0.326227,8.03e-4 -0.652374,0.008 -0.978235,0.02119 -3.194147,0.162635 -6.372389,0.835306 -9.243363,2.293917 -3.437862,2.120074 -5.411685,5.862092 -6.891569,9.490377 -1.104076,3.372461 -3.043775,6.334624 -4.838465,9.370487 1.692784,0.129532 3.380419,1.029499 4.609021,2.150257 1.603168,1.433899 3.460407,2.759773 5.679757,2.917651 3.172794,0.463252 6.856919,-1.113017 7.872904,-4.338753 0.939717,-2.662603 -0.089,-5.444525 -1.055232,-7.936467 C 45.499,25.667083 45.159003,23.182222 46.1238,20.982699 c 1.144933,-3.283437 4.363403,-5.089194 7.295678,-6.546371 0.143088,-0.121373 0.423004,-0.245836 0.737423,-0.374654 -1.000359,-0.115722 -2.008008,-0.173013 -3.014803,-0.170532 z" /><g
           id="g441"
           style="fill:#ffffff;fill-opacity:1"><g
             id="g433"
             style="fill:#ffffff;fill-opacity:1"><path
               style="fill:#341608;fill-opacity:1;stroke-width:0.264583"
               d="m 38.324483,26.07402 c 0.739303,-1.644207 1.840491,-3.204723 3.425918,-4.123728 1.362726,-0.664447 3.104392,-0.531604 4.308547,0.407611 0.494836,0.502632 0.844685,1.320119 0.478414,1.990734 -0.238438,0.420692 -0.80301,0.420143 -1.2056,0.272272 -0.512274,-0.179551 -0.962345,-0.508852 -1.495314,-0.638386 -0.854146,-0.217233 -1.813212,-0.219623 -2.602178,0.2167 -0.906413,0.423127 -1.773043,0.93769 -2.539833,1.582955 -0.123517,0.09703 -0.246602,0.19461 -0.369954,0.291842 z"
               id="path15341" /><path
               id="path17567"
               style="fill:#673506;fill-opacity:1;stroke-width:0.264583"
               d="m 43.414062,21.802734 c -1.962207,0.04177 -3.425827,1.813751 -4.289062,3.310547 1.300447,-0.859495 2.794757,-1.851582 4.433594,-1.460937 0.899353,0.05401 1.600345,0.911915 2.513672,0.753906 0.723231,-0.47585 0.206002,-1.630435 -0.400391,-2 -0.663351,-0.435331 -1.467597,-0.634438 -2.257813,-0.603516 z" /></g><g
             id="g429"
             style="fill:#ffffff;fill-opacity:1"><path
               style="display:inline;fill:#512911;fill-opacity:1;stroke-width:0.264583"
               d="m 60.131488,25.405455 c 0.509414,-0.850277 1.602259,-1.182121 2.542499,-1.016793 1.49141,0.254032 2.714316,1.352649 3.426393,2.648566 0.379277,0.69712 0.664012,1.45545 0.786482,2.240931 0.103518,1.19217 -0.335661,-0.123935 -0.451659,-0.190543 -0.672078,-0.644341 -1.067798,-1.585734 -1.934155,-2.015385 -0.855265,-0.413878 -1.831464,-0.264158 -2.739183,-0.166735 -0.525206,0.03 -1.147986,0.08634 -1.553035,-0.320019 -0.275853,-0.322426 -0.296894,-0.822461 -0.07734,-1.180022 z"
               id="path26396"
               sodipodi:nodetypes="scccccccss" /><path
               id="path26451"
               style="display:inline;fill:#633708;fill-opacity:1;stroke-width:0.264583"
               d="m 61.982422,24.621094 c -0.790919,0.05405 -1.924223,0.65588 -1.6875,1.595703 0.46184,0.752162 1.522472,0.345036 2.238409,0.344319 1.209956,-0.179002 2.5269,0.21704 3.218622,1.278728 0.20869,0.236077 0.994057,1.433313 0.635973,0.527937 -0.600239,-1.902295 -2.250914,-3.825002 -4.405504,-3.746687 z" /></g></g><g
           id="g417"
           style="display:inline;fill:#ffffff;fill-opacity:1"><path
             style="display:inline;opacity:1;fill:#964d11;fill-opacity:1;stroke-width:0.264583"
             d="m 55.530191,19.761983 c -0.628895,-0.632972 -1.625662,-0.583398 -2.409586,-0.309076 -0.370861,0.120453 -0.728136,0.2801 -1.045894,0.504961 -0.749923,0.490253 -0.536132,-0.31356 -0.437706,-0.977762 0.11334,-0.425866 0.651194,-0.72072 0.03468,-0.703602 -0.6699,0.02296 -1.335908,0.395228 -1.841434,0.89525 -0.996046,0.857629 -0.689563,0.917553 -0.97307,0.397763 -0.06515,-0.397044 0.113432,-0.787648 0.187444,-1.175223 0.296728,-1.010101 1.044162,-1.83378 1.944732,-2.353751 0.738209,-0.387965 0.587767,-0.481924 0.104396,-0.348369 -0.897735,0.143693 -1.808546,0.384434 -2.552507,0.930317 -0.216638,-0.528156 0.05752,-0.882519 0.294589,-1.185531 0.628797,-0.763347 1.498702,-1.37148 2.479796,-1.562713 0.569847,-0.0536 0.727421,-0.259202 0.17801,-0.345215 -0.77836,-0.130078 -1.441974,-0.05882 -2.352672,0.05531 -0.652777,0.0019 -1.000892,0.222881 -0.931156,-0.05554 0.831009,-0.499644 1.67502,-1.063906 2.663432,-1.17051 1.557612,-0.423323 3.19546,0.0071 4.643708,0.612263 1.076153,0.493245 1.780106,1.265539 2.610166,2.268419 0.337483,0.290137 0.58789,0.937064 0.248336,1.346139 -0.293997,0.260678 -0.560712,0.54793 -0.813085,0.852553 -0.677393,0.774772 -1.354798,1.549539 -2.032175,2.324321 z"
             id="path31517"
             sodipodi:nodetypes="sccccccccccccccccccccss" /><path
             id="path36556"
             style="display:inline;opacity:1;fill:#f3b27c;fill-opacity:1;stroke-width:0.264583"
             d="m 51.785156,12.46875 c -0.948727,0.111526 -1.904637,0.325173 -2.716797,0.853516 0.950626,-0.0785 2.000414,-0.298147 2.896485,0.101562 0.443636,0.421992 -0.299606,0.74798 -0.68106,0.732992 -1.06229,0.266357 -2.129658,0.994481 -2.549409,2.024821 0.862088,-0.490119 1.866694,-0.735459 2.845703,-0.798829 0.551841,0.354847 -0.20981,0.770715 -0.545394,0.942217 -1.120376,0.64246 -1.872206,1.864384 -1.91945,3.151533 0.769161,-0.775343 1.824746,-1.722777 3,-1.375 0.356422,0.481552 -0.436005,0.881059 -0.294922,1.421876 -0.160562,0.579661 0.405505,-0.06145 0.652344,-0.09961 0.929274,-0.435067 2.136501,-0.673414 3.029297,-0.03125 0.908389,-1.027033 1.792883,-2.085752 2.730469,-3.078125 0.161174,-0.755995 -0.678338,-1.20733 -1.050189,-1.757853 -1.316916,-1.498489 -3.451855,-2.142776 -5.397077,-2.08785 z" /><path
             id="path38554"
             style="opacity:1;fill:#e6923b;fill-opacity:1;stroke-width:0.264583"
             d="m 52.145138,12.796118 c -0.212617,-0.081 -0.542579,0.108308 -0.197908,0.230819 0.41163,0.255296 0.949167,0.498152 1.046354,1.027106 -0.0899,0.41027 -0.692111,0.158337 -0.996478,0.273361 -0.515591,0.05276 -0.986578,0.292746 -1.444542,0.518576 -0.146757,0.0843 -0.489547,0.326725 -0.119621,0.234108 0.876682,-0.06498 1.816214,-0.06723 2.597188,0.394368 0.204616,0.113658 0.656925,0.313753 0.197028,0.370268 -0.485699,0.143407 -1.013738,0.253479 -1.382354,0.628965 -0.258074,0.200498 -0.853783,0.380142 -0.769971,0.739499 0.383017,0.07854 0.786196,-0.07173 1.174565,0.03773 0.456821,0.110387 0.952076,0.157731 1.358416,0.408954 0.216643,0.280224 -0.363182,0.394989 -0.484443,0.616108 -0.339645,0.295919 -0.65042,0.625047 -1.000914,0.904195 -0.220912,0.137877 -0.339713,0.736106 0.04216,0.401673 0.569273,-0.30042 1.189921,-0.557628 1.83902,-0.590185 0.592104,0.01873 1.122825,0.358018 1.526306,0.770469 1.138128,0.848241 4.372818,-2.403356 2.848331,-3.904618 -0.524063,-0.609955 -1.202508,-1.035464 -1.911806,-1.42279 -0.895897,-0.565825 -1.819675,-1.136121 -2.866294,-1.369924 -0.474628,-0.13476 -0.958133,-0.2649 -1.455038,-0.268681 z"
             sodipodi:nodetypes="cccccccccccccccccccccc" /></g><path
           style="opacity:1;fill:#85350b;fill-opacity:1;stroke-width:0.519999;filter:url(#filter8362)"
           d="m 46.150622,39.012711 c 0.911353,-0.285334 1.848548,-0.567483 2.814804,-0.51978 1.655624,-0.0036 3.339351,0.307287 4.804414,1.103645 0.38885,0.182214 0.773798,0.394772 1.074645,0.706753 0.2513,0.09597 0.07583,0.319064 -0.105723,0.145306 -0.782338,-0.313963 -1.447216,-0.875553 -2.267832,-1.103877 -1.187854,-0.395312 -2.454029,-0.469591 -3.696533,-0.413471 -0.694291,-0.0074 -1.383697,0.08818 -2.075931,0.113889 -0.183036,1.34e-4 -0.366187,-0.0097 -0.547844,-0.03246 z"
           id="path545"
           sodipodi:nodetypes="ccccccccc" /><g
           id="g10777"
           style="display:inline;fill:#ffffff;fill-opacity:1"><path
             style="opacity:1;fill:#3e180c;fill-opacity:1;stroke-width:0.519999"
             d="m 48.687235,48.333289 c 0.609662,0.235213 1.262101,0.01109 1.888367,0.0019 0.971026,-0.167324 1.945865,-0.455667 2.779266,-0.992439 0.507109,-0.393687 0.949154,-0.894351 1.233914,-1.470799 0.23126,-0.53132 0.254017,-1.220012 -0.18343,-1.65614 -0.873461,-0.941174 -2.117187,-1.437508 -3.339223,-1.745198 -1.148749,-0.263066 -2.331554,-0.410096 -3.510648,-0.39042 -0.89437,0.03898 -1.79141,0.343281 -2.486087,0.913466 -0.577313,0.500639 -0.512168,1.383891 -0.251899,2.030949 0.496957,1.149542 1.464148,2.034519 2.515503,2.68059 0.428082,0.255448 0.882767,0.466229 1.354237,0.628134 z"
             id="path9258" /><path
             id="path9260"
             style="opacity:1;fill:#2b1307;fill-opacity:1;stroke-width:0.519999"
             d="m 47.261719,42.369141 c -0.881933,0.149019 -2.012194,0.448601 -2.335938,1.380859 -0.183781,1.525904 1.11233,2.741771 2.257517,3.543018 0.8758,0.587075 1.92017,1.086665 2.998466,0.807096 1.687829,-0.158726 3.661644,-0.85512 4.254373,-2.609294 0.303933,-1.086292 -0.892398,-1.703313 -1.676371,-2.143164 -1.700263,-0.779861 -3.639675,-1.056835 -5.498047,-0.978515 z" /><path
             id="path10779"
             style="opacity:1;fill:#5a2e13;fill-opacity:1;stroke-width:0.519999"
             d="m 47.78623,42.356588 c -0.175382,9.75e-4 -0.350293,0.0051 -0.524515,0.0124 -0.881932,0.149019 -2.012031,0.448537 -2.335775,1.380794 -0.01421,0.117966 -0.01978,0.234088 -0.01705,0.348299 0.01404,0.03282 0.02663,0.06279 0.04393,0.10387 0.111236,0.264182 0.34728,0.472483 0.500228,0.667143 0.152946,0.194661 0.48705,0.486902 0.709517,0.667659 0.22247,0.180756 0.62528,0.375234 1.070219,0.542086 0.444936,0.166854 0.945627,0.319893 1.37666,0.47284 0.431032,0.152945 1.112234,0.180962 1.751831,0.208772 0.639598,0.02781 1.043199,-0.04206 1.446423,-0.09767 0.403225,-0.05562 1.000888,-0.180787 1.570964,-0.305925 0.444601,-0.0976 0.719457,-0.347516 0.964282,-0.624251 0.03404,-0.0783 0.06498,-0.158869 0.09302,-0.241846 0.303932,-1.086291 -0.892411,-1.703171 -1.676384,-2.143021 -1.540861,-0.706749 -3.277971,-1.000584 -4.97334,-0.991154 z" /></g><g
           id="g15514"
           style="opacity:1;fill:#ffffff;fill-opacity:1"
           inkscape:label="Eye1"><path
             style="fill:#564132;fill-opacity:1;stroke-width:0.519999;filter:url(#filter23777)"
             d="m 41.935402,28.142327 c -2.195504,0.415783 -3.77729,2.424695 -4.220923,4.536492 -0.422237,1.832043 0.005,3.956336 1.473898,5.219499 0.69086,0.668455 1.774162,0.621372 2.64827,0.428774 1.770193,-0.459702 2.93816,-2.132734 3.407213,-3.818483 0.520199,-1.851603 0.320226,-4.094552 -1.159503,-5.46221 -0.59467,-0.51813 -1.33881,-0.927263 -2.148955,-0.904072 z"
             id="path367" /><path
             id="path369"
             style="fill:#e8e6e7;fill-opacity:1;stroke-width:0.519999;filter:url(#filter23781)"
             d="m 41.591797,28.496094 c -1.739035,0.254586 -3.300856,2.278145 -3.6598,4.410635 -0.312112,1.57003 0.04127,3.303361 1.124731,4.512441 0.689576,0.834993 1.920124,0.924155 2.888044,0.596798 1.415205,-0.449326 2.40132,-1.742664 2.891085,-3.09519 0.507083,-1.482215 0.602042,-3.18954 -0.100569,-4.626765 -0.869379,-1.384603 -1.935727,-1.97473 -3.143491,-1.797919 z"
             sodipodi:nodetypes="scccccs" /><path
             id="path8112"
             style="fill:#6e8ac5;fill-opacity:1;stroke-width:0.560656;filter:url(#filter23785)"
             d="m 42.018561,30.028364 c -2.578585,0.56082 -4.286301,3.636832 -3.29194,6.106585 0.299741,0.783894 0.927177,1.520069 1.802216,1.631077 0.943014,0.161698 1.841955,-0.377562 2.509598,-0.992698 1.357755,-1.331279 1.90577,-3.564171 1.012364,-5.295506 C 43.653203,30.71655 42.90781,30.06815 42.018561,30.028364 Z" /><path
             id="path17103"
             style="fill:#599fde;fill-opacity:1;stroke-width:0.560656;filter:url(#filter23769)"
             d="m 41.841797,30.345703 c -2.591361,0.717693 -4.103531,4.240279 -2.427735,6.46875 0.847657,1.148266 2.474748,0.736605 3.354519,-0.156081 1.610922,-1.446187 2.094103,-4.381179 0.352334,-5.91079 -0.34934,-0.27008 -0.828902,-0.537284 -1.279118,-0.401879 z" /><path
             id="path18218"
             style="fill:#212121;fill-opacity:1;stroke-width:0.446749;filter:url(#filter23793)"
             d="m 41.738536,32.426767 c -1.31195,0.04097 -2.49438,1.802663 -2.294018,3.257199 0.07591,0.593171 0.416384,1.206468 1.002517,1.419943 0.569939,0.189665 1.196165,-0.05717 1.617377,-0.452206 0.903672,-0.822547 1.226146,-2.361313 0.753501,-3.333781 -0.216132,-0.419055 -0.6128,-0.891155 -1.079372,-0.891155 z"
             sodipodi:nodetypes="cccccsc" /><path
             id="path23743"
             style="opacity:0.38162;fill:#ffffff;fill-opacity:1;stroke-width:0.519999;filter:url(#filter23797)"
             d="m 37.879858,33.231563 c -0.194096,1.442734 0.123541,2.934518 1.083655,4.069003 0.960462,1.314666 2.962984,1.016476 4.10931,0.129191 0.85059,-0.670979 1.443515,-1.577787 1.790588,-2.587956 -0.144105,0.03659 -0.289985,0.07503 -0.425297,0.113688 -0.58398,0.166848 -0.555904,0.194494 -1.112076,0.250114 -0.556172,0.05562 -0.639655,0.028 -1.056783,0.05581 -0.417129,0.02781 -0.806728,-0.08339 -1.418519,-0.13901 C 40.238949,35.066783 39.849864,34.81632 39.432735,34.621658 39.015608,34.427 38.876377,34.232505 38.487056,33.92661 38.201244,33.702045 38.049935,33.492171 37.879858,33.231563 Z" /><path
             style="opacity:0.825545;mix-blend-mode:normal;fill:#ffffff;fill-opacity:1;stroke-width:0.519999;filter:url(#filter23765)"
             d="m 39.627286,31.229083 c -0.07845,0.676292 0.508549,1.595706 1.269001,1.244423 0.84857,-0.319419 1.135564,-1.663962 0.318291,-2.178434 -0.700442,-0.41051 -1.543862,0.176408 -1.587292,0.934011 z"
             id="path21937"
             sodipodi:nodetypes="sssccsscs"
             transform="matrix(1.0489716,0,0,1.0144587,-1.9322073,-0.43369431)" /><path
             style="opacity:0.718069;mix-blend-mode:normal;fill:#ffffff;fill-opacity:1;stroke-width:0.232604;filter:url(#filter23789)"
             d="m 41.013953,33.178203 c -0.0365,0.29086 0.2366,0.686281 0.590397,0.535201 0.394794,-0.137375 0.528317,-0.715636 0.148084,-0.936899 -0.325878,-0.176553 -0.718276,0.07587 -0.738481,0.401698 z"
             id="path23595"
             sodipodi:nodetypes="sssccsscs"
             transform="matrix(0.86478121,0.18639062,-0.21069657,0.97755151,12.691486,-6.9881756)" /></g><g
           id="g24017"
           style="opacity:1;fill:#ffffff;fill-opacity:1"
           inkscape:label="Eye2"
           transform="translate(19.414206,3.1922614)"><path
             style="fill:#483121;fill-opacity:1;stroke-width:0.519999;filter:url(#filter23777)"
             d="m 41.935402,28.142327 c -2.195504,0.415783 -3.77729,2.424695 -4.220923,4.536492 -0.422237,1.832043 0.005,3.956336 1.473898,5.219499 0.69086,0.668455 1.774162,0.621372 2.64827,0.428774 1.770193,-0.459702 2.93816,-2.132734 3.407213,-3.818483 0.520199,-1.851603 0.320226,-4.094552 -1.159503,-5.46221 -0.59467,-0.51813 -1.33881,-0.927263 -2.148955,-0.904072 z"
             id="path24001" /><path
             id="path24003"
             style="fill:#e8e6e7;fill-opacity:1;stroke-width:0.519999;filter:url(#filter23781)"
             d="m 41.591797,28.496094 c -1.739035,0.254586 -3.300856,2.278145 -3.6598,4.410635 -0.312112,1.57003 0.04127,3.303361 1.124731,4.512441 0.689576,0.834993 1.920124,0.924155 2.888044,0.596798 1.415205,-0.449326 2.40132,-1.742664 2.891085,-3.09519 0.507083,-1.482215 0.602042,-3.18954 -0.100569,-4.626765 -0.869379,-1.384603 -1.935727,-1.97473 -3.143491,-1.797919 z"
             sodipodi:nodetypes="scccccs" /><path
             id="path24005"
             style="fill:#6f8ac6;fill-opacity:1;stroke-width:0.560656;filter:url(#filter23785)"
             d="m 42.018561,30.028364 c -2.578585,0.56082 -4.286301,3.636832 -3.29194,6.106585 0.299741,0.783894 0.927177,1.520069 1.802216,1.631077 0.943014,0.161698 1.841955,-0.377562 2.509598,-0.992698 1.357755,-1.331279 1.90577,-3.564171 1.012364,-5.295506 C 43.653203,30.71655 42.90781,30.06815 42.018561,30.028364 Z" /><path
             id="path24007"
             style="fill:#599fde;fill-opacity:1;stroke-width:0.560656;filter:url(#filter23769)"
             d="m 41.841797,30.345703 c -2.591361,0.717693 -4.103531,4.240279 -2.427735,6.46875 0.847657,1.148266 2.474748,0.736605 3.354519,-0.156081 1.610922,-1.446187 2.094103,-4.381179 0.352334,-5.91079 -0.34934,-0.27008 -0.828902,-0.537284 -1.279118,-0.401879 z" /><path
             id="path24009"
             style="fill:#212121;fill-opacity:1;stroke-width:0.446749;filter:url(#filter23793)"
             d="m 41.738536,32.426767 c -1.31195,0.04097 -2.49438,1.802663 -2.294018,3.257199 0.07591,0.593171 0.416384,1.206468 1.002517,1.419943 0.569939,0.189665 1.196165,-0.05717 1.617377,-0.452206 0.903672,-0.822547 1.226146,-2.361313 0.753501,-3.333781 -0.216132,-0.419055 -0.6128,-0.891155 -1.079372,-0.891155 z"
             sodipodi:nodetypes="cccccsc" /><path
             id="path24011"
             style="opacity:0.38162;fill:#ffffff;fill-opacity:1;stroke-width:0.519999;filter:url(#filter23797)"
             d="m 37.879858,33.231563 c -0.194096,1.442734 0.123541,2.934518 1.083655,4.069003 0.960462,1.314666 2.962984,1.016476 4.10931,0.129191 0.85059,-0.670979 1.443515,-1.577787 1.790588,-2.587956 -0.144105,0.03659 -0.289985,0.07503 -0.425297,0.113688 -0.58398,0.166848 -0.555904,0.194494 -1.112076,0.250114 -0.556172,0.05562 -0.639655,0.028 -1.056783,0.05581 -0.417129,0.02781 -0.806728,-0.08339 -1.418519,-0.13901 C 40.238949,35.066783 39.849864,34.81632 39.432735,34.621658 39.015608,34.427 38.876377,34.232505 38.487056,33.92661 38.201244,33.702045 38.049935,33.492171 37.879858,33.231563 Z" /><path
             style="opacity:0.825545;mix-blend-mode:normal;fill:#ffffff;fill-opacity:1;stroke-width:0.519999;filter:url(#filter23765)"
             d="m 39.627286,31.229083 c -0.07845,0.676292 0.508549,1.595706 1.269001,1.244423 0.84857,-0.319419 1.135564,-1.663962 0.318291,-2.178434 -0.700442,-0.41051 -1.543862,0.176408 -1.587292,0.934011 z"
             id="path24013"
             sodipodi:nodetypes="sssccsscs"
             transform="matrix(1.0489716,0,0,1.0144587,-1.9322073,-0.43369431)" /><path
             style="opacity:0.718069;mix-blend-mode:normal;fill:#ffffff;fill-opacity:1;stroke-width:0.232604;filter:url(#filter23789)"
             d="m 41.013953,33.178203 c -0.0365,0.29086 0.2366,0.686281 0.590397,0.535201 0.394794,-0.137375 0.528317,-0.715636 0.148084,-0.936899 -0.325878,-0.176553 -0.718276,0.07587 -0.738481,0.401698 z"
             id="path24015"
             sodipodi:nodetypes="sssccsscs"
             transform="matrix(0.86478121,0.18639062,-0.21069657,0.97755151,12.691486,-6.9881756)" /></g></g></g></g></svg>
