<?xml version="1.0" encoding="UTF-8" standalone="no"?>
<!-- Created with Inkscape (http://www.inkscape.org/) -->

<svg
   width="210mm"
   height="297mm"
   viewBox="0 0 210 297"
   version="1.1"
   id="svg1"
   xml:space="preserve"
   inkscape:version="1.4 (86a8ad7, 2024-10-11)"
   sodipodi:docname="drawing.svg"
   xmlns:inkscape="http://www.inkscape.org/namespaces/inkscape"
   xmlns:sodipodi="http://sodipodi.sourceforge.net/DTD/sodipodi-0.dtd"
   xmlns="http://www.w3.org/2000/svg"
   xmlns:svg="http://www.w3.org/2000/svg"><sodipodi:namedview
     id="namedview1"
     pagecolor="#ffffff"
     bordercolor="#000000"
     borderopacity="0.25"
     inkscape:showpageshadow="2"
     inkscape:pageopacity="0.0"
     inkscape:pagecheckerboard="0"
     inkscape:deskcolor="#d1d1d1"
     inkscape:document-units="mm"
     inkscape:zoom="4"
     inkscape:cx="14.25"
     inkscape:cy="87.125"
     inkscape:window-width="2560"
     inkscape:window-height="1377"
     inkscape:window-x="1272"
     inkscape:window-y="-8"
     inkscape:window-maximized="1"
     inkscape:current-layer="layer1" /><defs
     id="defs1" /><g
     inkscape:label="Layer 1"
     inkscape:groupmode="layer"
     id="layer1"><rect
       style="fill:#60b1c7;fill-opacity:1;stroke:none;stroke-width:0.16174;stroke-linecap:round;stroke-miterlimit:2.1;stroke-dasharray:none;stroke-opacity:1;paint-order:stroke markers fill"
       id="rect23"
       width="35.197136"
       height="34.42223"
       x="2.7260025"
       y="2.0845284" /><g
       id="g23"
       inkscape:label="Racoon"
       transform="matrix(1.7439702,0,0,1.7439702,-42.74886,-87.02989)"><path
         style="display:inline;fill:#e9fbff;fill-opacity:1;stroke-width:0.648837;stroke-linecap:round;paint-order:stroke markers fill"
         d="m 34.85869,55.525023 c 0.505286,-0.680295 1.42881,-1.442092 1.219371,-2.217091 -0.07129,-0.263806 -0.441843,-0.417849 -0.720476,-0.375428 -0.324783,0.04945 -0.498989,0.350773 -0.748255,0.679385 -0.343192,-0.3039 -0.616928,-0.556687 -0.96421,-0.42944 -0.28833,0.105648 -0.485171,0.519239 -0.44464,0.81278 0.105317,0.762756 1.65821,1.529794 1.65821,1.529794 z"
         id="path1"
         sodipodi:nodetypes="saacaas" /><g
         id="g18"
         style="display:inline"><path
           id="path2"
           style="display:inline;fill:#eeffff;fill-opacity:1;stroke-width:0.568;stroke-linecap:round;paint-order:stroke markers fill"
           d="m 36.627222,57.991809 c -0.849103,-0.01822 -1.704305,0.184842 -2.467033,0.56534 -0.941957,0.386683 -1.726663,1.054757 -2.454114,1.751831 -0.431458,0.527788 -0.79244,1.123768 -1.024227,1.767334 -0.287401,0.577975 -0.242868,1.273178 -0.587561,1.820561 -0.446948,0.130139 -0.139484,0.393275 -0.04496,0.625802 -0.484436,0.175077 -0.727741,0.753031 -0.05581,0.820621 0.568807,0.05614 -0.10472,0.224429 0.100769,0.519865 0.857153,0.333863 1.750544,0.633835 2.465999,1.234033 0.88707,0.343383 1.856051,0.408696 2.795179,0.503846 1.666651,0.02865 3.344158,-0.26539 4.908744,-0.840259 0.615321,-0.198142 1.120618,-0.604362 1.667598,-0.928109 0.270916,-0.25243 1.390701,-0.128249 1.075904,-0.639754 -0.427091,-0.270233 -0.115587,-0.32824 0.167431,-0.42168 0.509366,-0.168841 -0.116121,-0.714761 -0.39119,-0.829923 0.485622,-0.295069 0.06258,-0.551781 -0.223242,-0.781865 -0.07386,-0.7226 -0.258274,-1.451746 -0.719336,-2.030367 -0.392839,-0.727148 -1.078238,-1.213834 -1.705839,-1.723409 -0.593644,-0.498811 -1.251395,-0.92902 -2.00763,-1.13223 -0.48393,-0.180104 -0.991221,-0.270707 -1.500683,-0.281637 z m -0.333313,0.398425 c 0.81284,0.01009 1.653203,0.253504 2.356962,0.546737 0.804296,0.335124 1.809932,1.184129 2.055688,1.429887 0.245758,0.245756 1.116624,1.318197 0.848527,1.139465 -0.268099,-0.17873 -1.606972,-0.169016 -2.345593,0.0894 -0.829499,0.290211 -1.586151,0.982847 -2.122351,1.563729 -0.536199,0.580879 -0.580843,0.871265 -0.580843,0.871265 0,0 -0.435884,-0.777203 -0.759644,-1.072286 -0.451267,-0.411296 -1.007092,-0.723009 -1.586466,-0.915706 -0.597785,-0.198824 -1.246467,-0.233659 -1.876371,-0.223759 -0.399123,0.0063 -1.184424,0.1788 -1.184424,0.1788 0,0 0.603114,-0.93813 1.072286,-1.474329 0.469172,-0.536196 1.170213,-1.05471 1.854667,-1.429886 0.596993,-0.327235 1.242452,-0.641395 1.92133,-0.692465 0.114509,-0.0086 0.230112,-0.01229 0.346232,-0.01085 z m 4.455025,4.342888 c 0.481737,-0.0083 0.969927,0.08958 1.424202,0.251147 0.27957,0.06944 0.128923,0.384032 0.275953,0.531234 0.107515,0.0547 0.55914,0.171622 0.261482,0.256832 -0.330362,0.01918 -0.246516,0.392276 -0.0093,0.489376 0.105563,0.09877 0.651995,0.207325 0.324011,0.342614 -0.22717,0.05009 -0.617985,0.156461 -0.553455,0.456303 -0.02694,0.180694 0.319981,0.141501 0.250631,0.280087 -0.332038,0.09138 -0.671023,0.165902 -0.98857,0.302307 -0.269282,0.08727 -0.482431,0.276579 -0.730705,0.403593 -0.36947,0.09713 -0.746458,0.180905 -1.12913,0.205155 -0.574997,0.0043 -1.262011,-0.06021 -1.655196,-0.333313 -0.192538,-0.186227 -0.43157,-0.328896 -0.47749,-0.655774 -0.02907,-0.372531 0.153145,-0.795968 0.365869,-1.102258 0.319728,-0.388218 0.664885,-0.715878 1.09399,-0.985987 0.411916,-0.229542 0.873349,-0.392401 1.34152,-0.430981 0.06843,-0.0056 0.137369,-0.0092 0.206189,-0.01033 z m -8.389669,0.361218 c 0.288204,0.0012 0.57398,0.01413 0.856795,0.08372 0.944109,0.366744 1.653106,0.872106 2.076876,1.701705 0.142421,0.356686 0.0783,0.798978 -0.178283,1.087272 -0.59038,0.483106 -1.334951,0.573836 -2.072742,0.592729 -0.523956,0.0021 -1.03813,-0.156348 -1.486214,-0.423747 -0.226478,-0.130809 -0.475563,-0.210468 -0.733806,-0.246497 -0.115925,-0.04627 -0.413291,-0.0568 -0.411344,-0.133325 0.242076,-0.159807 0.261964,-0.527947 -0.06511,-0.579293 -0.12103,-0.07555 -0.610829,-0.03663 -0.414962,-0.250114 0.167979,-0.152512 0.479341,-0.158236 0.542086,-0.40876 0.09637,-0.211941 -0.240117,-0.296342 -0.27802,-0.330213 0.102288,-0.170698 0.385227,-0.212781 0.42168,-0.413928 -3e-6,-0.08889 1.2e-5,-0.17776 0,-0.26665 0.444763,-0.246885 0.943356,-0.407836 1.454175,-0.411861 0.09665,-5.5e-4 0.192803,-0.0014 0.288871,-10e-4 z"
           sodipodi:nodetypes="sccccccccccccccccccsscsssscssccsscssccccccccccccccsssccccccccccccccscccc" /><g
           id="g8"
           style="display:inline;fill:#eeffff;fill-opacity:1"><ellipse
             style="fill:#eeffff;fill-opacity:1;stroke-width:0.555996;stroke-linecap:round;paint-order:stroke markers fill"
             id="path3"
             cx="20.960405"
             cy="66.87146"
             rx="0.24673475"
             ry="0.39010292"
             transform="matrix(0.97009553,-0.24272341,0.22380368,0.97463425,0,0)" /><ellipse
             style="fill:#eeffff;fill-opacity:1;stroke-width:0.660277;stroke-linecap:round;paint-order:stroke markers fill"
             id="path4"
             cx="44.861767"
             cy="56.56292"
             rx="0.23724422"
             ry="0.39874011"
             transform="matrix(0.9943408,0.10623735,-0.142364,0.98981437,0,0)" /><ellipse
             style="fill:#eeffff;fill-opacity:1;stroke-width:0.603271;stroke-linecap:round;paint-order:stroke markers fill"
             id="path5"
             cx="57.532001"
             cy="41.22451"
             rx="0.21356006"
             ry="0.40339121"
             transform="rotate(22.186678)" /><ellipse
             style="fill:#eeffff;fill-opacity:1;stroke-width:0.5821;stroke-linecap:round;paint-order:stroke markers fill"
             id="path6"
             cx="59.17189"
             cy="41.109444"
             rx="0.21630526"
             ry="0.42231026"
             transform="rotate(23.617772)" /><ellipse
             style="fill:#eeffff;fill-opacity:1;stroke-width:0.542743;stroke-linecap:round;paint-order:stroke markers fill"
             id="path7"
             cx="40.399284"
             cy="60.035255"
             rx="0.23458643"
             ry="0.40214819"
             transform="rotate(3.691386)" /><ellipse
             style="fill:#eeffff;fill-opacity:1;stroke-width:0.518934;stroke-linecap:round;paint-order:stroke markers fill"
             id="path8"
             cx="13.550296"
             cy="71.044296"
             rx="0.26029092"
             ry="0.356543"
             transform="matrix(0.90687305,-0.42140393,0.32129106,0.94698049,0,0)" /></g><path
           id="path9"
           style="display:inline;fill:#eeffff;fill-opacity:1;stroke-width:0.568;stroke-linecap:round;paint-order:stroke markers fill"
           d="m 40.964941,57.371175 c -0.192233,-0.005 -0.400157,0.05059 -0.545186,0.114205 -0.743777,0.326247 -1.450459,0.699668 -2.148706,1.116728 0.13723,0.05314 0.51662,0.247944 0.707472,0.297527 0,0 0.393398,-0.258266 0.596916,-0.376115 0.296277,-0.171561 0.728607,-0.393081 0.907443,-0.481108 0.226653,-0.111564 0.506762,-0.137109 0.540274,0.200944 0.01578,0.159159 -0.02485,0.67607 -0.02019,1.014158 0.0059,0.426033 0.06068,1.276778 0.06068,1.276778 0.117492,0.07654 0.197566,0.150129 0.428915,0.232027 0.129847,-0.949683 0.06975,-1.948439 -0.02842,-2.965194 -0.03061,-0.317048 -0.252037,-0.423483 -0.499195,-0.429948 z"
           sodipodi:nodetypes="ssccassaccsss" /><path
           style="fill:#eeffff;fill-opacity:1;stroke-width:0.568;stroke-linecap:round;paint-order:stroke markers fill"
           d="m 31.33508,61.177262 c -0.164107,-0.826497 -0.249021,-1.591531 -0.202019,-2.435098 0.01202,-0.249107 -4.85e-4,-0.508114 0.07637,-0.747347 0.129749,-0.245882 0.451222,-0.30644 0.703784,-0.263538 0.741213,0.179897 1.452267,0.466278 2.149457,0.770324 0.09973,0.04267 0.395304,0.166087 0.165725,0.244078 l -0.46123,0.281151 c -0.234541,-0.138707 -0.524539,-0.251092 -0.792715,-0.36315 -0.266308,-0.111277 -0.570788,-0.237417 -0.809742,-0.306663 -0.313108,-0.09073 -0.450045,0.193521 -0.466467,0.428337 -0.02744,0.618174 0.0493,1.452253 0.09956,1.847558 -0.148966,0.207781 -0.313763,0.336597 -0.462727,0.544348 z"
           id="path10"
           sodipodi:nodetypes="sccccccasccs" /></g><g
         id="g19"><ellipse
           style="fill:#ffffff;fill-opacity:1;stroke-width:0.582947;stroke-linecap:round;paint-order:stroke markers fill"
           id="path11"
           cx="33.858932"
           cy="65.125664"
           rx="0.44712526"
           ry="0.43566051" /><ellipse
           style="fill:#000000;fill-opacity:1;stroke-width:0.516086;stroke-linecap:round;paint-order:stroke markers fill"
           id="path12"
           cx="33.924484"
           cy="65.134895"
           rx="0.37863073"
           ry="0.41138616" /><ellipse
           style="fill:#ffffff;fill-opacity:1;stroke-width:0.568;stroke-linecap:round;paint-order:stroke markers fill"
           id="path13"
           cx="33.786034"
           cy="65.013954"
           rx="0.15080556"
           ry="0.15639096" /><path
           style="stroke-linecap:round;stroke-miterlimit:2.1;paint-order:stroke markers fill"
           d="m 34.025391,64.095703 c -0.157232,-0.04336 -0.335236,-0.04541 -0.5,0.0078 -0.164765,0.05322 -0.316136,0.165734 -0.396485,0.345703 a 0.084,0.084 0 0 0 0.04297,0.111328 0.084,0.084 0 0 0 0.109375,-0.04297 c 0.05948,-0.133232 0.166132,-0.212308 0.294922,-0.253906 0.128789,-0.0416 0.280118,-0.04064 0.40625,-0.0059 a 0.084,0.084 0 0 0 0.101562,-0.05859 0.084,0.084 0 0 0 -0.05859,-0.103516 z"
           id="path17" /></g><g
         id="g20"><ellipse
           style="fill:#ffffff;fill-opacity:1;stroke-width:0.568185;stroke-linecap:round;paint-order:stroke markers fill"
           id="path14"
           cx="39.198277"
           cy="64.963676"
           rx="0.44683129"
           ry="0.43007514" /><ellipse
           style="fill:#000000;fill-opacity:1;stroke-width:0.498702;stroke-linecap:round;paint-order:stroke markers fill"
           id="path15"
           cx="39.282059"
           cy="64.964256"
           rx="0.37422121"
           ry="0.38596484" /><ellipse
           style="fill:#ffffff;fill-opacity:1;stroke-width:0.65888;stroke-linecap:round;paint-order:stroke markers fill"
           id="path16"
           cx="39.188"
           cy="64.851974"
           rx="0.16845541"
           ry="0.16197635" /><path
           style="stroke-linecap:round;stroke-miterlimit:2.1;paint-order:stroke markers fill"
           d="m 39.170618,63.921927 c 0.157232,-0.04336 0.335236,-0.04541 0.5,0.0078 0.164765,0.05322 0.316136,0.165734 0.396485,0.345703 a 0.084,0.084 0 0 1 -0.04297,0.111328 0.084,0.084 0 0 1 -0.109375,-0.04297 c -0.05948,-0.133232 -0.166132,-0.212308 -0.294922,-0.253906 -0.128789,-0.0416 -0.280118,-0.04064 -0.40625,-0.0059 a 0.084,0.084 0 0 1 -0.101562,-0.05859 0.084,0.084 0 0 1 0.05859,-0.103516 z"
           id="path18" /></g><path
         id="path20"
         style="fill:#000000;fill-opacity:1;stroke:none;stroke-width:0.168;stroke-linecap:round;stroke-miterlimit:2.1;stroke-dasharray:none;stroke-opacity:1;paint-order:stroke markers fill"
         d="m 36.719722,65.406344 c -0.190387,0.0058 -0.41769,0.07665 -0.51573,0.286287 -0.02574,0.06465 -0.0216,0.148657 0.01654,0.212907 0.129433,0.163705 0.261117,0.05469 0.414962,0.187585 0.01376,0.01673 0.02556,0.03404 0.03669,0.04961 -5.27e-4,0.02917 -7.31e-4,0.05898 -5.17e-4,0.0894 9e-6,0.0012 -1.1e-5,0.0024 0,0.0036 -4.91e-4,0.008 -9.31e-4,0.01585 -0.0016,0.02377 -0.0079,0.07692 -0.01753,0.149781 -0.04909,0.207223 -0.04145,0.06895 -0.145129,0.09543 -0.222726,0.06666 h -0.0021 c -0.08402,-0.02882 -0.154635,-0.11731 -0.144177,-0.203089 a 0.05,0.05 0 0 0 -0.04289,-0.05684 0.05,0.05 0 0 0 -0.05684,0.04496 c -0.01742,0.142889 0.08583,0.265627 0.21084,0.308508 0.121259,0.04496 0.275456,0.0099 0.345715,-0.111104 0.0058,-0.01058 0.01085,-0.02175 0.0155,-0.03256 0.03399,0.05729 0.08601,0.104214 0.15658,0.122474 0.199698,0.05121 0.404022,-0.120815 0.396358,-0.324528 a 0.05,0.05 0 0 0 -0.05064,-0.04858 0.05,0.05 0 0 0 -0.04909,0.05064 c 0.0049,0.131171 -0.143366,0.257599 -0.271302,0.224792 -0.07142,-0.01848 -0.120054,-0.09865 -0.128674,-0.177767 -0.0045,-0.03573 -0.0054,-0.07318 -0.0052,-0.111621 0.0011,-0.02195 0.0019,-0.04359 0.0026,-0.06511 0.04784,-0.09551 0.12115,-0.113871 0.274402,-0.185519 0.113954,-0.05973 0.188053,-0.125235 0.189653,-0.222725 0.0034,-0.212783 -0.288194,-0.346097 -0.519349,-0.338997 z" /></g></g></svg>
