<?xml version="1.0" encoding="UTF-8" standalone="no"?>
<!-- Created with Inkscape (http://www.inkscape.org/) -->

<svg
   width="210mm"
   height="297mm"
   viewBox="0 0 210 297"
   version="1.1"
   id="svg5"
   inkscape:version="1.2 (dc2aedaf03, 2022-05-15)"
   sodipodi:docname="rain-cloud.svg"
   xml:space="preserve"
   xmlns:inkscape="http://www.inkscape.org/namespaces/inkscape"
   xmlns:sodipodi="http://sodipodi.sourceforge.net/DTD/sodipodi-0.dtd"
   xmlns="http://www.w3.org/2000/svg"
   xmlns:svg="http://www.w3.org/2000/svg"><sodipodi:namedview
     id="namedview7"
     pagecolor="#ffffff"
     bordercolor="#666666"
     borderopacity="1.0"
     inkscape:showpageshadow="2"
     inkscape:pageopacity="0.0"
     inkscape:pagecheckerboard="0"
     inkscape:deskcolor="#d1d1d1"
     inkscape:document-units="mm"
     showgrid="false"
     inkscape:zoom="0.63118804"
     inkscape:cx="243.19219"
     inkscape:cy="416.67456"
     inkscape:window-width="1610"
     inkscape:window-height="1205"
     inkscape:window-x="2050"
     inkscape:window-y="130"
     inkscape:window-maximized="0"
     inkscape:current-layer="layer1" /><defs
     id="defs2"><filter
       inkscape:collect="always"
       style="color-interpolation-filters:sRGB"
       id="filter4752"
       x="-0.025036084"
       y="-0.030442254"
       width="1.0500722"
       height="1.0608845"><feGaussianBlur
         inkscape:collect="always"
         stdDeviation="0.65610591"
         id="feGaussianBlur4754" /></filter></defs><g
     inkscape:label="Layer 1"
     inkscape:groupmode="layer"
     id="layer1"><g
       id="g6273"><rect
         style="fill:#00dcff;fill-opacity:1;fill-rule:evenodd;stroke-width:0.246054"
         id="rect5534"
         width="90"
         height="90"
         x="36.662102"
         y="38.419228" /><g
         id="g3298"
         transform="translate(2.2230539,2.0748503)"
         style="fill:#7b7b7b;fill-opacity:1;filter:url(#filter4752)"><path
           style="color:#000000;opacity:1;fill:#7b7b7b;fill-opacity:1;stroke:none"
           d="m 85.623047,60.488281 c -1.616953,0.202068 -3.208362,0.608686 -4.753906,1.207031 -3.05273,1.18184 -6.248522,4.038127 -8.171875,7.322266 -3.025275,-0.813022 -6.251313,-1.070138 -9.21875,0.181641 -3.055147,1.288777 -5.60185,3.789532 -6.964844,7.089843 -4.905977,2.521895 -6.539001,7.517843 -6.271485,10.919922 l 0.002,0.0293 0.0039,0.03125 c 0.529642,4.705646 4.03741,9.686545 9.980469,10.744141 l 0.154296,0.02734 h 0.154297 c 9.32913,0.01913 39.700001,0.07422 42.539061,0.07422 h 0.0762 l 0.0762,-0.0078 c 1.92127,-0.16468 3.88931,-1.169219 5.71484,-2.681641 1.82553,-1.512422 3.47261,-3.60495 3.89453,-6.220703 0.34314,-2.127341 0.54011,-4.624583 -0.53906,-7.123047 -0.97232,-2.251078 -3.13009,-4.275474 -6.41602,-6.021484 -0.17096,-4.029337 -1.79324,-8.896905 -5.55468,-11.564453 -4.772411,-3.384497 -9.854223,-4.614015 -14.705083,-4.007813 z m 4.451172,3.498047 c 2.687152,0.355738 5.420474,1.452878 8.191406,3.417969 2.521565,1.788246 4.202915,6.610982 4.136715,9.623047 l -0.0254,1.162109 1.05274,0.490234 c 3.46066,1.617826 4.92405,3.259459 5.5957,4.814454 0.67166,1.554994 0.59887,3.248068 0.29297,5.144531 -0.22712,1.408051 -1.28313,2.909878 -2.64844,4.041015 -1.35787,1.124972 -3.0487,1.806962 -3.72851,1.871094 -2.94132,-3.44e-4 -32.683517,-0.05487 -42.16016,-0.07422 -4.20282,-0.787969 -6.608035,-4.356127 -6.982422,-7.576171 -0.158877,-2.154057 0.889158,-6.1215 4.808594,-7.78711 l 0.720703,-0.304687 0.261719,-0.738282 c 0.938668,-2.642028 2.916309,-4.590786 5.27539,-5.585937 2.33827,-0.986372 5.308192,-0.797293 8.13086,0.1875 l 1.527343,0.533203 0.677735,-1.46875 c 1.210938,-2.62082 4.863953,-5.907235 6.955078,-6.716797 2.590202,-1.002775 5.230817,-1.388941 7.917969,-1.033203 z"
           id="path3290" /><path
           style="color:#000000;fill:#7b7b7b;fill-opacity:1;stroke:none;stroke-linecap:round"
           d="m 69.349609,101.86328 -8.15039,8.00391 a 1.2825,1.2825 0 0 0 -0.01758,1.81445 1.2825,1.2825 0 0 0 1.814453,0.0156 l 8.15039,-8.00196 a 1.2825,1.2825 0 0 0 0.01758,-1.81445 1.2825,1.2825 0 0 0 -1.814453,-0.0176 z"
           id="path3292" /><path
           style="color:#000000;fill:#7b7b7b;fill-opacity:1;stroke:none;stroke-linecap:round"
           d="m 81.576405,101.86328 -8.15039,8.00391 a 1.2825,1.2825 0 0 0 -0.01758,1.81445 1.2825,1.2825 0 0 0 1.814453,0.0156 l 8.15039,-8.00196 a 1.2825,1.2825 0 0 0 0.01758,-1.81445 1.2825,1.2825 0 0 0 -1.814453,-0.0176 z"
           id="path3294" /><path
           style="color:#000000;fill:#7b7b7b;fill-opacity:1;stroke:none;stroke-linecap:round"
           d="m 93.803201,101.86328 -8.15039,8.00391 a 1.2825,1.2825 0 0 0 -0.01758,1.81445 1.2825,1.2825 0 0 0 1.814453,0.0156 l 8.15039,-8.00196 a 1.2825,1.2825 0 0 0 0.01758,-1.81445 1.2825,1.2825 0 0 0 -1.814453,-0.0176 z"
           id="path3296" /></g><g
         id="g3288"><path
           style="color:#000000;fill:#000000;opacity:1;stroke:none;fill-opacity:1"
           d="m 85.623047,60.488281 c -1.616953,0.202068 -3.208362,0.608686 -4.753906,1.207031 -3.05273,1.18184 -6.248522,4.038127 -8.171875,7.322266 -3.025275,-0.813022 -6.251313,-1.070138 -9.21875,0.181641 -3.055147,1.288777 -5.60185,3.789532 -6.964844,7.089843 -4.905977,2.521895 -6.539001,7.517843 -6.271485,10.919922 l 0.002,0.0293 0.0039,0.03125 c 0.529642,4.705646 4.03741,9.686545 9.980469,10.744141 l 0.154296,0.02734 h 0.154297 c 9.32913,0.01913 39.700001,0.07422 42.539061,0.07422 h 0.0762 l 0.0762,-0.0078 c 1.92127,-0.16468 3.88931,-1.169219 5.71484,-2.681641 1.82553,-1.512422 3.47261,-3.60495 3.89453,-6.220703 0.34314,-2.127341 0.54011,-4.624583 -0.53906,-7.123047 -0.97232,-2.251078 -3.13009,-4.275474 -6.41602,-6.021484 -0.17096,-4.029337 -1.79324,-8.896905 -5.55468,-11.564453 -4.772411,-3.384497 -9.854223,-4.614015 -14.705083,-4.007813 z m 4.451172,3.498047 c 2.687152,0.355738 5.420474,1.452878 8.191406,3.417969 2.521565,1.788246 4.202915,6.610982 4.136715,9.623047 l -0.0254,1.162109 1.05274,0.490234 c 3.46066,1.617826 4.92405,3.259459 5.5957,4.814454 0.67166,1.554994 0.59887,3.248068 0.29297,5.144531 -0.22712,1.408051 -1.28313,2.909878 -2.64844,4.041015 -1.35787,1.124972 -3.0487,1.806962 -3.72851,1.871094 -2.94132,-3.44e-4 -32.683517,-0.05487 -42.16016,-0.07422 -4.20282,-0.787969 -6.608035,-4.356127 -6.982422,-7.576171 -0.158877,-2.154057 0.889158,-6.1215 4.808594,-7.78711 l 0.720703,-0.304687 0.261719,-0.738282 c 0.938668,-2.642028 2.916309,-4.590786 5.27539,-5.585937 2.33827,-0.986372 5.308192,-0.797293 8.13086,0.1875 l 1.527343,0.533203 0.677735,-1.46875 c 1.210938,-2.62082 4.863953,-5.907235 6.955078,-6.716797 2.590202,-1.002775 5.230817,-1.388941 7.917969,-1.033203 z"
           id="path3165" /><path
           style="color:#000000;fill:#000000;stroke-linecap:round;stroke:none;fill-opacity:1"
           d="m 69.349609,101.86328 -8.15039,8.00391 a 1.2825,1.2825 0 0 0 -0.01758,1.81445 1.2825,1.2825 0 0 0 1.814453,0.0156 l 8.15039,-8.00196 a 1.2825,1.2825 0 0 0 0.01758,-1.81445 1.2825,1.2825 0 0 0 -1.814453,-0.0176 z"
           id="path3167" /><path
           style="color:#000000;fill:#000000;stroke-linecap:round;stroke:none;fill-opacity:1"
           d="m 81.576405,101.86328 -8.15039,8.00391 a 1.2825,1.2825 0 0 0 -0.01758,1.81445 1.2825,1.2825 0 0 0 1.814453,0.0156 l 8.15039,-8.00196 a 1.2825,1.2825 0 0 0 0.01758,-1.81445 1.2825,1.2825 0 0 0 -1.814453,-0.0176 z"
           id="path3276" /><path
           style="color:#000000;fill:#000000;stroke-linecap:round;stroke:none;fill-opacity:1"
           d="m 93.803201,101.86328 -8.15039,8.00391 a 1.2825,1.2825 0 0 0 -0.01758,1.81445 1.2825,1.2825 0 0 0 1.814453,0.0156 l 8.15039,-8.00196 a 1.2825,1.2825 0 0 0 0.01758,-1.81445 1.2825,1.2825 0 0 0 -1.814453,-0.0176 z"
           id="path3278" /></g></g></g></svg>
