<?xml version="1.0" encoding="UTF-8" standalone="no"?>
<!-- Created with Inkscape (http://www.inkscape.org/) -->

<svg
   width="210mm"
   height="297mm"
   viewBox="0 0 210 297"
   version="1.1"
   id="svg1"
   xml:space="preserve"
   inkscape:version="1.4 (86a8ad7, 2024-10-11)"
   sodipodi:docname="scissors.svg"
   xmlns:inkscape="http://www.inkscape.org/namespaces/inkscape"
   xmlns:sodipodi="http://sodipodi.sourceforge.net/DTD/sodipodi-0.dtd"
   xmlns="http://www.w3.org/2000/svg"
   xmlns:svg="http://www.w3.org/2000/svg"><sodipodi:namedview
     id="namedview1"
     pagecolor="#ffffff"
     bordercolor="#000000"
     borderopacity="0.25"
     inkscape:showpageshadow="2"
     inkscape:pageopacity="0.0"
     inkscape:pagecheckerboard="0"
     inkscape:deskcolor="#d1d1d1"
     inkscape:document-units="mm"
     inkscape:zoom="0.52337613"
     inkscape:cx="-136.61303"
     inkscape:cy="155.71975"
     inkscape:window-width="2560"
     inkscape:window-height="1377"
     inkscape:window-x="1272"
     inkscape:window-y="-8"
     inkscape:window-maximized="1"
     inkscape:current-layer="layer1" /><defs
     id="defs1" /><g
     inkscape:label="Layer 1"
     inkscape:groupmode="layer"
     id="layer1"><path
       style="fill:#000000;stroke-width:2.51726"
       d="M 13.007926,66.925742 C 12.22829,63.109982 13.078686,57.216333 15.630442,53.627625 19.615417,47.788859 26.695326,37.713969 27.570744,34.888437 27.446139,33.541977 23.615734,25.848761 19.824678,21.954318 16.885083,25.261322 9.71374,24.817006 8.347436,19.483931 7.131765,15.705647 7.873657,10.459686 11.341128,8.7054664 c 3.370079,-2.265529 7.818085,-0.144635 9.529569,4.0056596 2.092902,4.579828 4.942243,10.841156 7.90821,14.934823 1.65854,2.289134 2.92777,2.570527 4.805077,0.239446 3.032522,-3.766252 5.44076,-8.616219 7.083316,-13.588349 0.727332,-2.911419 2.661359,-5.8176776 5.103233,-6.3029826 3.093867,-0.614888 7.406934,0.968196 8.366944,5.0379766 1.338902,4.919824 -1.34065,10.526386 -5.835565,11.277743 -2.329148,0.746517 -4.831917,-1.742046 -6.193557,-2.361763 -1.740331,1.999132 -2.72456,3.994688 -4.188727,6.706998 -1.141213,2.114052 -2.303687,4.204564 -2.749742,6.370437 4.719696,7.709757 8.655135,13.892716 12.87661,21.995616 1.664718,3.867365 1.7714,8.216949 0.901012,10.649797 C 46.368863,65.962834 45.291952,64.122231 43.941444,61.980269 39.667408,55.201435 35.519947,48.260088 30.957546,41.712143 25.025914,50.564243 14.407963,67.685786 13.007751,66.925742 Z M 17.562498,12.45155 c -1.908901,-2.257611 -5.912077,-1.216149 -6.698965,1.790762 -1.017739,3.390899 1.583079,7.56298 4.788883,6.478575 2.468325,-0.36212 5.116314,-4.593099 1.910082,-8.269337 z m 31.660777,7.94919 c 3.232616,-1.536015 3.229615,-8.238095 -0.356827,-9.201219 -3.827311,-1.3968116 -7.500577,5.09133 -4.599232,8.461715 1.329117,1.301767 3.401167,1.781898 4.956059,0.739504 z"
       id="path1"
       sodipodi:nodetypes="cccccccsccacccscccsccccccccccc" /></g></svg>
