<?xml version="1.0" encoding="UTF-8" standalone="no"?>
<!-- Created with Inkscape (http://www.inkscape.org/) -->

<svg
   width="210mm"
   height="297mm"
   viewBox="0 0 210 297"
   version="1.1"
   id="svg5"
   xml:space="preserve"
   inkscape:version="1.2.2 (732a01da63, 2022-12-09)"
   sodipodi:docname="shark.svg"
   xmlns:inkscape="http://www.inkscape.org/namespaces/inkscape"
   xmlns:sodipodi="http://sodipodi.sourceforge.net/DTD/sodipodi-0.dtd"
   xmlns="http://www.w3.org/2000/svg"
   xmlns:svg="http://www.w3.org/2000/svg"><sodipodi:namedview
     id="namedview7"
     pagecolor="#ffffff"
     bordercolor="#000000"
     borderopacity="0.25"
     inkscape:showpageshadow="2"
     inkscape:pageopacity="0.0"
     inkscape:pagecheckerboard="0"
     inkscape:deskcolor="#d1d1d1"
     inkscape:document-units="mm"
     showgrid="false"
     inkscape:zoom="0.78497325"
     inkscape:cx="115.92752"
     inkscape:cy="377.71988"
     inkscape:window-width="1920"
     inkscape:window-height="1058"
     inkscape:window-x="-8"
     inkscape:window-y="-8"
     inkscape:window-maximized="1"
     inkscape:current-layer="layer1" /><defs
     id="defs2"><filter
       inkscape:collect="always"
       style="color-interpolation-filters:sRGB"
       id="filter72080"
       x="-0.091895104"
       y="-0.091895098"
       width="1.1837902"
       height="1.1837902"><feGaussianBlur
         inkscape:collect="always"
         stdDeviation="0.03387802"
         id="feGaussianBlur72082" /></filter><filter
       inkscape:collect="always"
       style="color-interpolation-filters:sRGB"
       id="filter72084"
       x="-0.10634601"
       y="-0.106346"
       width="1.212692"
       height="1.212692"><feGaussianBlur
         inkscape:collect="always"
         stdDeviation="0.024270062"
         id="feGaussianBlur72086" /></filter><filter
       inkscape:collect="always"
       style="color-interpolation-filters:sRGB"
       id="filter72088"
       x="-0.056331106"
       y="-0.057775491"
       width="1.1126622"
       height="1.115551"><feGaussianBlur
         inkscape:collect="always"
         stdDeviation="0.083911389"
         id="feGaussianBlur72090" /></filter><filter
       inkscape:collect="always"
       style="color-interpolation-filters:sRGB"
       id="filter73824"
       x="-0.048186731"
       y="-0.049910571"
       width="1.0963735"
       height="1.0998211"><feGaussianBlur
         inkscape:collect="always"
         stdDeviation="0.14532879"
         id="feGaussianBlur73826" /></filter><filter
       inkscape:collect="always"
       style="color-interpolation-filters:sRGB"
       id="filter78214"
       x="-0.15626605"
       y="-0.17114854"
       width="1.3125321"
       height="1.3422971"><feGaussianBlur
         inkscape:collect="always"
         stdDeviation="0.12619114"
         id="feGaussianBlur78216" /></filter><filter
       inkscape:collect="always"
       style="color-interpolation-filters:sRGB"
       id="filter78237"
       x="-0.038183684"
       y="-0.041820226"
       width="1.0763674"
       height="1.0836405"><feGaussianBlur
         inkscape:collect="always"
         stdDeviation="0.014683267"
         id="feGaussianBlur78235" /></filter><filter
       inkscape:collect="always"
       style="color-interpolation-filters:sRGB"
       id="filter82975"
       x="-0.011433848"
       y="-0.015569927"
       width="1.0228677"
       height="1.0311399"><feGaussianBlur
         inkscape:collect="always"
         stdDeviation="0.45720907"
         id="feGaussianBlur82977" /></filter><filter
       inkscape:collect="always"
       style="color-interpolation-filters:sRGB"
       id="filter82979"
       x="-0.0039744315"
       y="-0.0069931888"
       width="1.0079489"
       height="1.0139864"><feGaussianBlur
         inkscape:collect="always"
         stdDeviation="0.18215417"
         id="feGaussianBlur82981" /></filter><filter
       inkscape:collect="always"
       style="color-interpolation-filters:sRGB"
       id="filter82983"
       x="-0.010372234"
       y="-0.029730896"
       width="1.0207445"
       height="1.0594618"><feGaussianBlur
         inkscape:collect="always"
         stdDeviation="0.160021"
         id="feGaussianBlur82985" /></filter><filter
       inkscape:collect="always"
       style="color-interpolation-filters:sRGB"
       id="filter82987"
       x="-0.01657964"
       y="-0.014340751"
       width="1.0331593"
       height="1.0286815"><feGaussianBlur
         inkscape:collect="always"
         stdDeviation="0.20586067"
         id="feGaussianBlur82989" /></filter><filter
       inkscape:collect="always"
       style="color-interpolation-filters:sRGB"
       id="filter82991"
       x="-0.025981187"
       y="-0.019506242"
       width="1.0519624"
       height="1.0390125"><feGaussianBlur
         inkscape:collect="always"
         stdDeviation="0.21847445"
         id="feGaussianBlur82993" /></filter><filter
       inkscape:collect="always"
       style="color-interpolation-filters:sRGB"
       id="filter82995"
       x="-0.005123858"
       y="-0.0050140612"
       width="1.0102477"
       height="1.0100281"><feGaussianBlur
         inkscape:collect="always"
         stdDeviation="0.0087138291"
         id="feGaussianBlur82997" /></filter><filter
       inkscape:collect="always"
       style="color-interpolation-filters:sRGB"
       id="filter82999"
       x="-0.0032216582"
       y="-0.0024737733"
       width="1.0064433"
       height="1.0049475"><feGaussianBlur
         inkscape:collect="always"
         stdDeviation="0.0025413674"
         id="feGaussianBlur83001" /></filter><filter
       inkscape:collect="always"
       style="color-interpolation-filters:sRGB"
       id="filter83003"
       x="-0.0055095847"
       y="-0.0042305739"
       width="1.0110192"
       height="1.0084611"><feGaussianBlur
         inkscape:collect="always"
         stdDeviation="0.001569491"
         id="feGaussianBlur83005" /></filter><filter
       inkscape:collect="always"
       style="color-interpolation-filters:sRGB"
       id="filter83007"
       x="-0.0079338019"
       y="-0.0060920263"
       width="1.0158676"
       height="1.0121841"><feGaussianBlur
         inkscape:collect="always"
         stdDeviation="0.0034885486"
         id="feGaussianBlur83009" /></filter></defs><g
     inkscape:label="Layer 1"
     inkscape:groupmode="layer"
     id="layer1"
     style="display:inline"><g
       id="g83099"><rect
         style="opacity:1;fill:#0c3865;fill-opacity:1;stroke:none;stroke-width:0.499999;stroke-linecap:round;stroke-linejoin:round;stroke-dasharray:none;stroke-dashoffset:5.21575;stroke-opacity:1"
         id="rect82482"
         width="136.09079"
         height="94.858376"
         x="5.4817657"
         y="4.5284147"
         inkscape:label="Sea" /><g
         id="g38184"
         inkscape:label="Shark"
         style="display:inline"><path
           style="fill:#75b4f1;fill-opacity:1;stroke-width:0.519999;filter:url(#filter82991)"
           d="m 68.802437,47.736167 c 0.768145,-2.391358 1.644899,-4.811134 3.033543,-7.120398 1.572789,-2.527625 2.981378,-5.209632 4.760976,-7.583858 1.957841,-2.000149 3.406701,-4.619987 5.47723,-6.488411 0.952865,-1.011891 1.815216,-1.665006 2.822881,-2.65435 0.170938,1.44388 -0.338437,4.23559 -0.210671,6.235615 -0.673962,-0.234836 -2.120403,0.460163 -2.612218,1.263978 -0.743008,1.202732 -0.923128,2.604151 0.04213,3.707662 0.846154,1.003316 1.537164,1.153148 2.907146,1.011179 0.540509,2.795241 1.049809,5.031193 1.769568,7.836651 -2.334578,0.208262 -4.591179,0.128742 -6.446279,-1.011174 1.493893,1.45678 4.719952,2.814164 6.994001,3.033536 l 1.643168,4.803111 z"
           id="path315"
           sodipodi:nodetypes="cccccccccccccc" /><path
           style="display:inline;fill:#f79a97;fill-opacity:1;stroke-width:0.519999;filter:url(#filter82987)"
           d="m 45.208216,82.916838 c -1.57018,-0.691505 -1.873327,-2.471045 -2.233025,-3.96046 -0.431402,-1.770276 -0.508593,-3.734041 0.208687,-5.43773 1.129813,-2.562076 3.330801,-4.446703 5.553924,-6.049239 2.541663,-2.063267 5.235291,-3.990746 7.445939,-6.419359 1.504404,-2.041236 1.655106,-5.025299 0.0634,-7.065307 -0.94779,-1.457773 -2.089876,-2.775019 -3.160146,-4.141948 4.072812,0.67412 8.145625,1.348241 12.218437,2.022361 2.380488,3.511045 4.760976,7.022089 7.141464,10.533134 -1.228831,6.212169 -2.457661,12.424337 -3.686492,18.636506 -4.145686,2.554103 -9.111126,3.615882 -13.948131,3.155217 -3.223663,-0.235108 -6.406643,-0.824825 -9.604061,-1.273175 z"
           id="path510"
           sodipodi:nodetypes="cssssssssssssssccccc" /><path
           style="display:inline;fill:#f4706e;fill-opacity:1;stroke-width:0.519999"
           d="m 45.850204,83.12025 c -2.033918,-1.499287 -2.661524,-4.271801 -2.472754,-6.673453 0.15432,-1.404635 0.374493,-2.854626 1.313082,-3.974322 1.252994,-2.154724 3.392055,-3.547473 5.301951,-5.063336 1.835536,-1.37113 3.622377,-2.819894 5.329777,-4.346025 1.042957,-1.252729 2.221037,-2.57001 2.634458,-4.179462 0.288769,-2.091309 -0.58127,-4.109698 -1.764547,-5.78475 -0.757826,-1.21976 -1.529146,-2.431069 -2.298073,-3.643843 5.839272,2.721022 11.678544,5.442043 17.517816,8.163065 0.06952,5.163982 0.139029,10.327965 0.208544,15.491947 -3.535341,3.009012 -7.070682,6.018023 -10.606023,9.027035 -3.237306,0.477084 -6.472804,1.009979 -9.711238,1.45222 -1.817664,-0.156359 -3.635329,-0.312717 -5.452993,-0.469076 z"
           id="path560" /><path
           style="fill:#e2e3e3;fill-opacity:1;stroke-width:0.519999;filter:url(#filter82983)"
           d="m 28.671194,46.746054 c 0.752856,2.058231 1.620316,4.072674 2.540212,6.061242 0.589741,1.263918 1.344298,1.43348 2.038896,-0.346038 0.280653,-0.916136 1.015913,-2.901469 1.184259,-2.341622 0.30792,1.575739 1.956671,1.648873 2.405811,-0.271055 0.792108,-1.413274 0.566469,0.799986 0.800905,1.587995 0.759134,1.832794 2.099823,-0.05613 2.363575,-1.248627 0.115616,-0.648537 0.867014,-1.416746 1.002317,-0.0994 0.219062,1.750001 1.661669,2.059941 2.515641,0.263439 0.758625,1.209506 0.186867,2.894429 0.944343,4.15748 1.098846,2.061619 2.321732,-0.728643 2.820601,-1.744527 0.400101,-0.75971 1.078936,-1.333146 1.006857,-0.08623 1.386648,1.496872 2.59049,-0.768351 2.991061,-1.971499 0.780567,-1.231529 0.632098,0.985254 0.868113,1.697804 0.03514,1.214798 0.605278,4.285859 2.152841,2.431581 0.691478,-0.558351 0.630101,-2.473948 1.53962,-2.34855 -0.03999,1.286025 0.906544,3.181665 2.07988,1.483371 1.486631,-1.261153 0.236168,2.194507 1.858267,2.02126 0.783201,-0.07394 0.844553,-1.759028 1.375004,-0.428587 0.375775,1.107902 0.383121,3.448847 2.073717,3.116364 0.961409,-0.397034 2.505891,-1.95067 2.464026,-3.302092 -4.138222,-2.243282 -8.276063,-4.570033 -12.413783,-6.846869 -5.651849,-0.788148 -11.259154,-1.85717 -16.896689,-2.73657 -2.186595,0.197528 -4.419212,0.07848 -6.575114,0.492327 -0.380119,0.152932 -0.760249,0.305872 -1.14036,0.458801 z"
           id="path587"
           sodipodi:nodetypes="scccccccccccccccccccccccss" /><path
           style="display:inline;fill:#f3bfb8;fill-opacity:1;stroke-width:0.519999"
           d="m 49.72319,84.073599 c -0.226996,-1.955452 -0.495171,-3.914285 -0.453506,-5.885712 -0.144514,-1.680788 0.207014,-3.38559 0.803762,-4.950604 0.904186,-1.917584 2.156765,-3.655631 3.594885,-5.204458 1.545372,-1.285361 3.350119,-2.249334 5.2025,-3.012837 2.805009,-0.931026 5.799918,-0.89227 8.720863,-0.936874 0.935825,0.0015 1.871634,0.01178 2.807286,0.02971 -0.705083,4.508556 -1.410165,9.017111 -2.115248,13.525667 -3.525411,2.30393 -7.050821,4.607859 -10.576232,6.911789 -2.661437,-0.158892 -5.322873,-0.317784 -7.98431,-0.476676 z"
           id="path508" /><path
           style="display:inline;fill:#fbb4ac;fill-opacity:1;stroke-width:0.519999"
           d="m 49.872151,83.447963 c -0.161481,-2.084653 -0.05928,-4.179021 -0.108952,-6.268144 0.07165,-1.52232 0.298465,-3.076772 1.051127,-4.427256 0.679026,-1.597166 1.847758,-2.925542 3.06469,-4.1358 1.057845,-0.961496 2.182062,-1.873535 3.524041,-2.407778 1.625623,-0.787553 3.352431,-1.394013 5.160568,-1.5599 2.014598,-0.394222 4.071012,-0.196012 6.107404,-0.20855 0.711772,0.739075 0.623095,1.981188 0.856292,2.949243 0.321427,2.34286 0.508547,4.701949 0.663109,7.06094 -3.833264,3.257281 -7.666527,6.514561 -11.499791,9.771842 -2.939496,-0.258199 -5.878992,-0.516398 -8.818488,-0.774597 z"
           id="path506" /><path
           style="display:inline;fill:#ea9085;fill-opacity:1;stroke-width:0.519999"
           d="m 47.607942,83.030874 c 0.400759,-1.968449 0.952694,-3.915241 1.706853,-5.775759 0.794238,-1.190745 1.415904,-0.595933 2.152824,0.974216 0.23979,0.507266 0.599303,1.931951 1.005254,1.75714 0.22135,-0.958481 -0.32819,-2.891047 1.198933,-2.838682 0.772672,-0.02949 1.693936,1.994637 1.829021,0.49561 0.03639,-1.010058 -0.981504,-2.658614 0.32891,-3.195007 1.277284,-0.177317 1.668966,1.354494 2.607814,1.877257 0.767705,-0.496613 -0.581568,-1.801193 -0.562241,-2.623923 -0.328652,-1.492604 1.74841,-1.151309 2.473865,-0.536899 0.45088,0.448487 1.707814,0.785939 0.956783,-0.223794 -0.365343,-0.640177 -0.770942,-2.567907 0.519035,-2.006313 0.588939,0.365335 1.715136,0.731399 2.555962,1.132631 -0.909658,-1.151751 -2.371314,-1.842171 -3.043853,-3.171499 0.111778,-1.290824 1.790045,-1.214251 2.762513,-1.298991 0.611517,-0.127972 2.326809,-0.04269 1.143172,-0.815039 -0.954529,-0.637833 -1.822121,-1.411548 -2.441119,-2.371818 -0.201645,-1.241112 1.662023,-1.687228 2.640213,-1.577831 1.064509,0.07288 2.400071,-0.250139 3.415724,0.295186 0.168486,3.628673 0.368363,7.289922 0.493797,10.933842 -0.01352,4.944289 -7.449019,6.986978 -11.822652,9.654894 -3.128182,-0.06951 -6.256364,-0.139029 -9.384546,-0.208544 z"
           id="path483"
           sodipodi:nodetypes="ccccccccccccccccccccccc" /><path
           style="display:inline;fill:#e2e3e3;fill-opacity:1;stroke-width:0.519999"
           d="m 70.445605,64.20999 c -2.040081,0.286917 -4.102307,0.08192 -6.145914,-0.04921 -1.829209,0.375019 -0.147526,2.119236 0.686192,2.629951 0.470113,0.587506 2.224434,1.491943 1.699689,2.030668 -1.256699,0.259536 -4.169681,-0.748845 -4.020849,1.242401 0.288317,1.276349 2.243455,1.841153 2.290059,2.99019 -0.757926,-0.489629 -3.068647,-2.022143 -2.913366,-0.156009 0.517118,0.556409 1.016423,2.514112 -0.292661,1.405907 -1.094116,-1.099626 -3.380337,-0.488448 -2.414938,1.250459 0.248913,0.528965 1.241439,2.837294 -0.03724,1.669315 -0.592853,-0.879287 -2.751297,-2.733156 -2.779705,-0.564502 -0.129017,0.817883 0.532065,2.364189 -0.03264,2.73465 -0.665517,-0.9388 -2.809395,-1.850085 -2.512005,0.09226 0.173707,0.696293 -0.336073,1.493614 -0.688374,0.42823 -0.29244,-0.821279 -1.80115,-2.919342 -2.330993,-1.488752 0.07103,0.572167 -0.32949,1.360078 -0.503679,0.344754 0.183743,-1.383064 -1.57908,-3.071366 -2.530804,-1.439725 -0.303658,0.594974 -0.899165,2.354321 -1.480597,0.947311 -0.205936,-1.818338 -1.980946,-0.854233 -2.350685,0.565372 -0.538699,1.317403 -0.326091,2.899183 -0.243998,3.020104 0.88526,0.851735 3.518711,1.525389 4.683792,2.290325 1.411245,0.254437 1.608449,0.391988 3.036465,0.561307 l 16.510967,0.833037 C 69.033275,77.536528 69.48666,72.22148 70.445599,64.209992 Z"
           id="path365"
           sodipodi:nodetypes="sccccccccccccccccccccccss" /><path
           style="opacity:1;fill:#add4ec;fill-opacity:1;stroke-width:0.519999;filter:url(#filter82979)"
           d="M 28.609245,24.417413 C 41.99453,33.066392 56.15247,40.87072 71.45374,45.542328 c 10.072775,3.096238 21.351792,4.871857 31.3509,0.567807 -0.4185,-5.93905 1.17134,-12.514493 6.19165,-16.194873 2.65212,-3.180028 9.7801,-6.087996 8.92246,0.692015 -0.60096,3.658513 -1.10349,6.209406 -1.58885,9.871702 -0.4246,3.203883 -0.77481,5.456776 1.73171,7.006616 4.67318,2.327701 9.23423,1.827346 14.99653,3.9568 4.30115,2.475858 -1.17293,6.951926 -3.85155,8.291303 -4.59862,2.219396 -10.31098,2.542798 -15.01781,0.576329 -2.10646,-1.178315 -2.9578,-1.488676 -4.28399,-2.380789 -1.0642,2.094566 -1.55083,2.850445 -2.1419,4.223793 -6.75314,13.387454 -20.575707,22.881326 -35.551973,24.146848 -8.474927,1.002804 -17.18149,0.07951 -25.351395,-2.235209 -1.041942,-0.403588 -2.697435,-1.433502 -3.019962,-2.210625 1.122395,0.459252 1.460012,0.493178 2.771461,0.661186 C 54.35864,83.507767 63.666423,80.203229 66.151003,72.104397 68.224219,66.413538 67.811437,58.744199 62.132157,55.212956 56.175422,50.533563 48.508622,50.176195 41.334743,48.877945 36.2775,47.580127 28.294554,49.579917 26.829864,46.46115 c -1.13658,-4.283982 -1.682008,-9.759143 -1.968068,-14.756726 -0.249469,-2.789371 -1.03796,-8.757966 3.747449,-7.287011 z"
           id="path419"
           sodipodi:nodetypes="cccccscccccccccscccccc" /><path
           style="display:inline;opacity:1;fill:#c6e0ee;fill-opacity:1;stroke-width:0.2;stroke-linecap:round;stroke-linejoin:round;stroke-dashoffset:5.21575"
           d="m 48.45242,83.296031 c 7.054584,2.090095 14.486783,2.242419 21.782524,2.106624 6.318198,-0.355117 12.416376,-2.429864 18.106756,-5.100712 6.138502,-3.351811 11.69772,-7.895253 15.79282,-13.598975 2.36831,-3.110125 4.17526,-6.629127 5.99994,-10.076838 -1.2994,-1.400932 -2.54911,-4.10137 -4.77588,-3.767414 -3.96954,0.07609 -7.939072,0.152187 -11.908608,0.228281 -1.140344,0.807993 -3.119106,1.247799 -2.017342,3.047781 0.202051,3.443554 1.96573,6.288603 3.858913,9.042858 0.682036,1.372484 4.229917,4.841836 0.939176,2.655749 -2.808036,-1.415388 -5.690301,-2.817374 -7.794519,-5.224433 -1.788777,-3.642866 -4.669406,0.264081 -7.457461,0.252793 -2.89508,0.567076 -6.134723,0.19403 -8.118413,-2.234338 -2.794746,-3.053444 -5.783588,-6.0014 -9.266305,-8.302987 -7.187321,-4.879926 -15.777382,-8.062643 -24.535045,-7.947535 -3.567284,0.09424 -7.233694,0.59262 -10.488252,2.098955 1.337669,2.676626 4.948003,0.641735 7.294471,1.318362 7.223353,0.233198 14.508074,1.273945 21.241512,3.993275 3.747709,1.543767 7.573571,3.513007 9.6839,7.145416 2.71438,4.315273 1.480754,9.701154 0.161948,14.280297 -1.698314,3.507607 -4.557354,6.490901 -8.155937,8.049948 -3.182366,1.646996 -6.810195,2.034377 -10.344198,2.032893 z"
           id="path61894" /><path
           id="path57563"
           style="display:inline;opacity:1;fill:#89c1f4;fill-opacity:1;stroke-width:0.2;stroke-linecap:round;stroke-linejoin:round;stroke-dashoffset:5.21575"
           d="m 27.715104,24.83776 c -3.004213,1.070046 -1.889036,4.758558 -2.091958,7.228178 0.01676,4.88921 0.942148,9.842726 1.820106,14.548819 8.492934,-4.136744 18.472021,-2.840403 26.987258,0.557623 6.494782,2.57245 12.50497,6.504289 17.163109,11.737111 2.472307,3.079076 6.516644,4.531436 10.345955,3.286377 3.214914,-1.300081 6.154066,-4.114833 8.677601,-0.207853 1.93116,1.755703 5.8229,4.076919 7.435731,3.896723 -0.0676,-0.903418 -0.10731,-0.800887 -0.117588,-1.564069 -1.292325,0.130766 -2.689272,-0.569623 -1.44434,-2.289129 -0.374202,-1.105099 -0.443951,-1.570448 -0.34405,-2.830359 -0.436358,0.05095 -0.931542,0.05727 -2.365165,0.774384 1.89402,-1.510789 1.288065,-1.068401 2.067946,-1.673501 -0.679424,-1.225624 -1.05354,-1.410361 2.604189,-1.85617 4.014462,-0.489287 8.438542,1.427232 11.929462,1.793491 4.78231,3.358634 11.05991,4.31734 16.59414,2.394401 3.31928,-1.199346 8.62131,-4.042296 7.2598,-8.179265 -2.67865,-2.359836 -6.64822,-2.26671 -9.99664,-3.080792 -4.1224,-0.295021 -9.67836,-2.600482 -8.06111,-7.737196 0.35995,-4.288692 1.66661,-8.485119 1.7672,-12.780483 -2.00896,-4.172106 -7.24091,0.83144 -9.50273,2.932969 -3.75914,3.64301 -5.35404,9.083485 -4.96116,14.219648 -2.25627,3.111518 -7.507786,2.603132 -11.128272,3.328375 C 80.97897,49.907725 70.061749,45.898055 59.648339,41.782617 50.025677,37.77496 40.968656,32.515702 32.118051,27.096589 30.564654,26.444576 29.500533,25.015328 27.715104,24.83776 Z"
           sodipodi:nodetypes="cccccccccccccscccccccccccc" /><g
           id="g38153"><ellipse
             style="opacity:1;fill:#153957;fill-opacity:1;stroke-width:0.519999;filter:url(#filter82995)"
             id="path1808"
             cx="50.304134"
             cy="42.215553"
             rx="2.040766"
             ry="2.0854542" /><ellipse
             style="opacity:1;fill:#f8ffff;fill-opacity:1;stroke-width:0.141142"
             id="ellipse1810"
             cx="49.618916"
             cy="42.632645"
             rx="0.55392212"
             ry="0.56605184" /></g><g
           id="g4237"><ellipse
             style="opacity:1;fill:#2e73a9;fill-opacity:1;stroke-width:0.568208"
             id="path1812"
             cx="33.737633"
             cy="37.203033"
             rx="1.1481117"
             ry="2.1908922" /><path
             id="ellipse1814"
             style="opacity:1;fill:#3881bb;fill-opacity:1;stroke-width:0.568208"
             d="m 33.905941,35.035588 a 1.1481117,2.1908922 0 0 0 -1.105876,2.188496 1.1481117,2.1908922 0 0 0 0.981336,2.166793 1.1481117,2.1908922 0 0 0 1.104325,-2.18798 1.1481117,2.1908922 0 0 0 -0.979785,-2.167309 z" /></g><g
           id="g4243"
           transform="matrix(0.74664785,0,0,0.71912491,3.7273775,9.9604361)"><ellipse
             style="opacity:1;fill:#2e73a9;fill-opacity:1;stroke-width:0.568208"
             id="ellipse4239"
             cx="33.737633"
             cy="37.203033"
             rx="1.1481117"
             ry="2.1908922" /><path
             id="path4241"
             style="opacity:1;fill:#3b81bc;fill-opacity:1;stroke-width:0.568208"
             d="m 33.905941,35.035588 a 1.1481117,2.1908922 0 0 0 -1.105876,2.188496 1.1481117,2.1908922 0 0 0 0.981336,2.166793 1.1481117,2.1908922 0 0 0 1.104325,-2.18798 1.1481117,2.1908922 0 0 0 -0.979785,-2.167309 z" /></g><g
           id="g38158"><path
             style="opacity:1;fill:#3982bd;fill-opacity:1;stroke-width:0.519999"
             d="m 73.731942,52.792071 c 1.44524,2.093595 2.183761,4.488703 2.736661,6.863868 0.252817,1.606693 0.190309,3.234483 0.308035,4.849435 -0.05884,1.132719 -0.451275,2.225063 -0.680177,3.33571 -0.236725,0.862082 -0.560958,1.704414 -0.935099,2.528154 0.24757,0.535275 0.685911,-0.495017 0.805465,-0.731243 0.847212,-1.799247 1.752507,-3.600823 2.106636,-5.535638 0.541994,-2.566854 0.24992,-5.301539 -1.117949,-7.645179 -0.705393,-1.3349 -1.702783,-2.559802 -3.01109,-3.49618 -0.07077,-0.05637 -0.141632,-0.11264 -0.212482,-0.168927 z"
             id="path1804" /><path
             style="fill:#3982bd;fill-opacity:1;stroke-width:0.519999"
             d="m 79.023117,69.560823 c 1.105641,-1.525793 1.381203,-3.353192 1.639247,-5.101955 0.227849,-1.850054 0.03452,-3.721954 -0.453259,-5.530341 -0.441836,-1.753638 -1.171094,-3.465658 -2.263902,-4.998877 3.070659,2.089045 4.564736,5.827032 4.139354,8.803701 -0.347499,2.431676 -1.046113,5.294928 -3.06144,6.827472 z"
             id="path431"
             sodipodi:nodetypes="ccccsc" /><path
             style="fill:#3982bd;fill-opacity:1;stroke-width:0.519999"
             d="m 82.787888,67.092043 c 0.639966,-1.348468 0.936281,-2.788947 1.192915,-4.234826 0.504444,-2.842046 -1.209934,-5.183573 -1.79062,-7.477247 1.790727,1.623135 2.833286,4.149236 2.962331,6.10202 0.124481,1.883719 -0.948781,4.590058 -2.364626,5.610053 z"
             id="path451"
             sodipodi:nodetypes="cscsc" /><path
             id="path78532"
             style="display:inline;opacity:1;fill:#9bcce9;fill-opacity:1;stroke:none;stroke-width:0.499999;stroke-linecap:round;stroke-linejoin:round;stroke-dasharray:none;stroke-dashoffset:5.21575;stroke-opacity:1"
             d="M 74.696216 53.561072 C 74.813863 53.712809 74.92104 53.857054 74.995939 53.971899 C 75.311934 54.456425 75.754056 54.898933 76.027917 55.341325 C 76.301777 55.783715 76.660307 56.352373 76.997367 57.026493 C 77.334428 57.700615 77.650251 58.437947 77.776648 59.006734 C 77.903047 59.575525 78.092908 60.586531 78.092908 61.134253 C 78.092908 61.681974 78.029496 63.114696 77.9663 63.599219 C 77.903101 64.083744 77.544687 65.326448 77.376156 65.81097 C 77.207627 66.295494 76.871065 67.201178 76.74467 67.580371 C 76.61827 67.959564 76.196568 68.886621 76.049105 69.223682 C 76.001229 69.333112 75.960981 69.519908 75.927148 69.719775 C 75.941476 69.689941 75.956848 69.658066 75.966939 69.638127 C 76.81415 67.838881 77.719142 66.03736 78.073271 64.102547 C 78.615264 61.535696 78.323377 58.800657 76.955509 56.457019 C 76.392143 55.390893 75.641723 54.395927 74.696216 53.561072 z " /><path
             id="path82412"
             style="display:inline;opacity:1;fill:#9bcce9;fill-opacity:1;stroke:none;stroke-width:0.499999;stroke-linecap:round;stroke-linejoin:round;stroke-dasharray:none;stroke-dashoffset:5.21575;stroke-opacity:1"
             d="M 78.435522 54.287642 C 79.060015 55.076564 79.668155 55.878651 80.291223 56.667859 C 80.816405 57.555904 81.406186 58.426514 81.664266 59.439266 C 81.888082 60.043761 81.965783 60.679517 81.969674 61.320805 C 82.042934 62.023521 81.943897 62.719424 81.80896 63.408016 C 81.695827 64.536443 81.296881 65.604896 80.924259 66.667249 C 80.635861 67.454906 80.151067 68.140118 79.763607 68.877966 C 81.218906 67.269353 81.783405 64.839346 82.084395 62.733122 C 82.486464 59.919592 81.17358 56.426187 78.435522 54.287642 z " /><path
             id="path82419"
             style="display:inline;opacity:1;fill:#9bcce9;fill-opacity:1;stroke:none;stroke-width:0.499999;stroke-linecap:round;stroke-linejoin:round;stroke-dasharray:none;stroke-dashoffset:5.21575;stroke-opacity:1"
             d="M 82.320557 55.501005 C 82.762696 56.252455 83.282897 56.95674 83.7861 57.666248 C 84.279851 58.590241 84.754205 59.554124 84.890426 60.605086 C 85.173871 62.234148 84.844512 63.941551 84.018127 65.37017 C 83.750979 65.851892 83.425922 66.29842 83.159782 66.77887 C 84.386559 65.593446 85.265749 63.196912 85.152425 61.482035 C 85.026548 59.577188 84.031399 57.12667 82.320557 55.501005 z " /></g><g
           id="g57428"
           style="display:inline"><ellipse
             style="opacity:1;fill:#e7e8e8;fill-opacity:1;stroke-width:0.2;stroke-linecap:round;stroke-linejoin:round;stroke-dashoffset:5.21575;filter:url(#filter82999)"
             id="path38269"
             cx="72.56517"
             cy="52.668022"
             rx="0.94660598"
             ry="1.2327892"
             transform="rotate(18.306442)" /><ellipse
             style="opacity:1;fill:#e5e6e6;fill-opacity:1;stroke-width:0.2;stroke-linecap:round;stroke-linejoin:round;stroke-dashoffset:5.21575;filter:url(#filter83007)"
             id="ellipse38271"
             cx="86.188843"
             cy="20.150955"
             rx="0.52764845"
             ry="0.68717009"
             transform="rotate(39.816673)" /><ellipse
             style="opacity:1;fill:#e8eaea;fill-opacity:1;stroke-width:0.2;stroke-linecap:round;stroke-linejoin:round;stroke-dashoffset:5.21575;filter:url(#filter83003)"
             id="ellipse38273"
             cx="86.236061"
             cy="18.562653"
             rx="0.34183869"
             ry="0.44518527"
             transform="rotate(39.816673)" /><ellipse
             style="opacity:1;fill:#e3827e;fill-opacity:1;stroke-width:0.2;stroke-linecap:round;stroke-linejoin:round;stroke-dashoffset:5.21575"
             id="path38275"
             cx="88.55481"
             cy="20.333265"
             rx="0.23172896"
             ry="0.2422621"
             transform="rotate(43.017198)" /><ellipse
             style="opacity:1;fill:#e3827e;fill-opacity:1;stroke-width:0.2;stroke-linecap:round;stroke-linejoin:round;stroke-dashoffset:5.21575"
             id="circle38277"
             cx="87.003777"
             cy="31.894186"
             rx="0.15799701"
             ry="0.21066269"
             transform="rotate(32.372748)" /><ellipse
             style="opacity:1;fill:#e3827e;fill-opacity:1;stroke-width:0.2;stroke-linecap:round;stroke-linejoin:round;stroke-dashoffset:5.21575"
             id="circle38279"
             cx="80.414207"
             cy="42.799885"
             rx="0.17511335"
             ry="0.21066269"
             transform="rotate(24.94397)" /><ellipse
             style="opacity:1;fill:#e3827e;fill-opacity:1;stroke-width:0.2;stroke-linecap:round;stroke-linejoin:round;stroke-dashoffset:5.21575"
             id="circle38281"
             cx="77.47934"
             cy="45.797253"
             rx="0.15799701"
             ry="0.21066269"
             transform="rotate(21.051746)" /><ellipse
             style="opacity:1;fill:#e3827e;fill-opacity:1;stroke-width:0.2;stroke-linecap:round;stroke-linejoin:round;stroke-dashoffset:5.21575"
             id="circle38283"
             cx="84.342407"
             cy="29.393106"
             rx="0.16853015"
             ry="0.18087049"
             transform="rotate(30.633215)" /><ellipse
             style="opacity:1;fill:#e3827e;fill-opacity:1;stroke-width:0.2;stroke-linecap:round;stroke-linejoin:round;stroke-dashoffset:5.21575"
             id="circle38285"
             cx="76.936569"
             cy="45.388855"
             rx="0.16853015"
             ry="0.21066269"
             transform="rotate(17.88402)" /><ellipse
             style="opacity:1;fill:#e3827e;fill-opacity:1;stroke-width:0.2;stroke-linecap:round;stroke-linejoin:round;stroke-dashoffset:5.21575"
             id="circle38287"
             cx="87.576584"
             cy="19.601608"
             rx="0.16853015"
             ry="0.21066269"
             transform="rotate(34.628848)" /><ellipse
             style="opacity:1;fill:#e3827e;fill-opacity:1;stroke-width:0.2;stroke-linecap:round;stroke-linejoin:round;stroke-dashoffset:5.21575"
             id="circle38289"
             cx="76.556282"
             cy="51.148823"
             rx="0.14746389"
             ry="0.21066269"
             transform="rotate(16.49709)" /><ellipse
             style="opacity:1;fill:#e3827e;fill-opacity:1;stroke-width:0.2;stroke-linecap:round;stroke-linejoin:round;stroke-dashoffset:5.21575"
             id="ellipse52584"
             cx="90.713478"
             cy="19.111101"
             rx="0.15954232"
             ry="0.16679426"
             transform="rotate(43.017198)" /></g><path
           id="path63800"
           style="display:inline;opacity:1;fill:#63a4e0;fill-opacity:1;stroke-width:0.2;stroke-linecap:round;stroke-linejoin:round;stroke-dashoffset:5.21575"
           d="m 110.61289,53.887667 c -0.26386,-3.45e-4 -0.59969,0.161923 -1.15652,0.513147 -1.59494,1.194051 -3.00704,1.817951 -4.69894,2.037602 -0.56131,0.104839 -1.12663,0.188649 -1.69344,0.261999 2.58587,0.47395 5.1353,1.309768 7.31945,1.538924 4.78231,3.358631 11.0596,4.317623 16.59382,2.394686 2.36947,-0.856155 5.74787,-2.55064 6.99286,-4.954736 -0.80174,0.531966 -1.597,1.096872 -2.43241,1.564245 -1.45413,1.058263 -3.09558,1.821249 -4.86896,2.162142 -2.62603,0.781924 -5.43696,0.666803 -8.03775,-0.153995 -2.03231,-0.848052 -4.03101,-1.867998 -5.72626,-3.29489 -1.47809,-1.28232 -1.71137,-2.068365 -2.29185,-2.069124 z" /><g
           id="g72155"
           style="display:inline"><g
             id="g72101"><ellipse
               style="opacity:1;fill:#8fd6ff;fill-opacity:1;stroke-width:0.2;stroke-linecap:round;stroke-linejoin:round;stroke-dashoffset:5.21575;filter:url(#filter72088)"
               id="path69469"
               cx="50.170067"
               cy="31.177544"
               rx="1.7875322"
               ry="1.742844" /><ellipse
               style="opacity:1;fill:#ffffff;fill-opacity:1;stroke-width:0.2;stroke-linecap:round;stroke-linejoin:round;stroke-dashoffset:5.21575;filter:url(#filter72080)"
               id="path71110"
               cx="50.285183"
               cy="30.166897"
               rx="0.44239163"
               ry="0.44239166" /><ellipse
               style="opacity:1;fill:#ffffff;fill-opacity:1;stroke-width:0.2;stroke-linecap:round;stroke-linejoin:round;stroke-dashoffset:5.21575;filter:url(#filter72084)"
               id="ellipse72078"
               cx="51.085701"
               cy="30.672487"
               rx="0.27386147"
               ry="0.2738615" /></g><g
             id="g72109"
             transform="matrix(1.1166667,0,0,1.1169696,-16.19821,24.656446)"
             style="stroke-width:0.895401"><ellipse
               style="opacity:1;fill:#8fd6ff;fill-opacity:1;stroke-width:0.17908;stroke-linecap:round;stroke-linejoin:round;stroke-dashoffset:5.21575;filter:url(#filter72088)"
               id="ellipse72103"
               cx="50.170067"
               cy="31.177544"
               rx="1.7875322"
               ry="1.742844" /><ellipse
               style="opacity:1;fill:#ffffff;fill-opacity:1;stroke-width:0.17908;stroke-linecap:round;stroke-linejoin:round;stroke-dashoffset:5.21575;filter:url(#filter72080)"
               id="ellipse72105"
               cx="50.285183"
               cy="30.166897"
               rx="0.44239163"
               ry="0.44239166" /><ellipse
               style="opacity:1;fill:#ffffff;fill-opacity:1;stroke-width:0.17908;stroke-linecap:round;stroke-linejoin:round;stroke-dashoffset:5.21575;filter:url(#filter72084)"
               id="ellipse72107"
               cx="51.085701"
               cy="30.672487"
               rx="0.27386147"
               ry="0.2738615" /></g><g
             id="g72117"
             transform="matrix(0.84394049,0,0,0.84346962,-9.140212,33.243088)"
             style="stroke-width:1.18525"><ellipse
               style="opacity:1;fill:#8fd6ff;fill-opacity:1;stroke-width:0.237049;stroke-linecap:round;stroke-linejoin:round;stroke-dashoffset:5.21575;filter:url(#filter72088)"
               id="ellipse72111"
               cx="50.170067"
               cy="31.177544"
               rx="1.7875322"
               ry="1.742844" /><ellipse
               style="opacity:1;fill:#ffffff;fill-opacity:1;stroke-width:0.237049;stroke-linecap:round;stroke-linejoin:round;stroke-dashoffset:5.21575;filter:url(#filter72080)"
               id="ellipse72113"
               cx="50.285183"
               cy="30.166897"
               rx="0.44239163"
               ry="0.44239166" /><ellipse
               style="opacity:1;fill:#ffffff;fill-opacity:1;stroke-width:0.237049;stroke-linecap:round;stroke-linejoin:round;stroke-dashoffset:5.21575;filter:url(#filter72084)"
               id="ellipse72115"
               cx="51.085701"
               cy="30.672487"
               rx="0.27386147"
               ry="0.2738615" /></g><g
             id="g72125"
             transform="matrix(0.40834746,0,0,0.40703441,102.48009,18.22751)"
             style="stroke-width:2.45284"><ellipse
               style="opacity:1;fill:#8fd6ff;fill-opacity:1;stroke-width:0.490569;stroke-linecap:round;stroke-linejoin:round;stroke-dashoffset:5.21575;filter:url(#filter72088)"
               id="ellipse72119"
               cx="50.170067"
               cy="31.177544"
               rx="1.7875322"
               ry="1.742844" /><ellipse
               style="opacity:1;fill:#ffffff;fill-opacity:1;stroke-width:0.490569;stroke-linecap:round;stroke-linejoin:round;stroke-dashoffset:5.21575;filter:url(#filter72080)"
               id="ellipse72121"
               cx="50.285183"
               cy="30.166897"
               rx="0.44239163"
               ry="0.44239166" /><ellipse
               style="opacity:1;fill:#ffffff;fill-opacity:1;stroke-width:0.490569;stroke-linecap:round;stroke-linejoin:round;stroke-dashoffset:5.21575;filter:url(#filter72084)"
               id="ellipse72123"
               cx="51.085701"
               cy="30.672487"
               rx="0.27386147"
               ry="0.2738615" /></g><g
             id="g72133"
             transform="matrix(0.26670646,0,0,0.26543028,113.83161,26.56654)"
             style="stroke-width:3.75844"><ellipse
               style="opacity:1;fill:#8fd6ff;fill-opacity:1;stroke-width:0.75169;stroke-linecap:round;stroke-linejoin:round;stroke-dashoffset:5.21575;filter:url(#filter72088)"
               id="ellipse72127"
               cx="50.170067"
               cy="31.177544"
               rx="1.7875322"
               ry="1.742844" /><ellipse
               style="opacity:1;fill:#ffffff;fill-opacity:1;stroke-width:0.75169;stroke-linecap:round;stroke-linejoin:round;stroke-dashoffset:5.21575;filter:url(#filter72080)"
               id="ellipse72129"
               cx="50.285183"
               cy="30.166897"
               rx="0.44239163"
               ry="0.44239166" /><ellipse
               style="opacity:1;fill:#ffffff;fill-opacity:1;stroke-width:0.75169;stroke-linecap:round;stroke-linejoin:round;stroke-dashoffset:5.21575;filter:url(#filter72084)"
               id="ellipse72131"
               cx="51.085701"
               cy="30.672487"
               rx="0.27386147"
               ry="0.2738615" /></g></g><g
           id="g78299"
           style="display:inline"><g
             id="g78225"><path
               style="color:#000000;fill:#7eb9e4;stroke-linecap:round;stroke-linejoin:round;stroke-dashoffset:5.21575;-inkscape-stroke:none;filter:url(#filter73824)"
               d="m 66.568359,19.214844 c -1.9908,0 -3.61914,1.562106 -3.61914,3.49414 0,1.932035 1.62834,3.494141 3.61914,3.494141 1.990801,0 3.619141,-1.562106 3.619141,-3.494141 0,-1.932034 -1.62834,-3.49414 -3.619141,-3.49414 z m 0,0.5 c 1.730598,0 3.119141,1.342728 3.119141,2.99414 0,1.651413 -1.388543,2.994141 -3.119141,2.994141 -1.730598,0 -3.11914,-1.342728 -3.11914,-2.994141 0,-1.651412 1.388542,-2.99414 3.11914,-2.99414 z"
               id="path72304" /><ellipse
               style="opacity:1;fill:#d3f0ff;fill-opacity:1;stroke:none;stroke-width:0.499999;stroke-linecap:round;stroke-linejoin:round;stroke-dasharray:none;stroke-dashoffset:5.21575;stroke-opacity:1;filter:url(#filter78214)"
               id="path73880"
               cx="67.117134"
               cy="20.939869"
               rx="0.96904838"
               ry="0.88478327" /><ellipse
               style="opacity:1;fill:#d3f0ff;fill-opacity:1;stroke:none;stroke-width:0.5;stroke-linecap:round;stroke-linejoin:round;stroke-dasharray:none;stroke-dashoffset:5.21575;stroke-opacity:1;filter:url(#filter78237)"
               id="ellipse76073"
               cx="68.631897"
               cy="21.824654"
               rx="0.46145156"
               ry="0.42132533" /></g><g
             id="g78265"
             transform="matrix(0.94179207,0,0,0.94160903,-3.2455926,8.2002401)"
             style="stroke-width:1.06191"><path
               style="color:#000000;fill:#7eb9e4;stroke-width:1.06191;stroke-linecap:round;stroke-linejoin:round;stroke-dashoffset:5.21575;-inkscape-stroke:none;filter:url(#filter73824)"
               d="m 66.568359,19.214844 c -1.9908,0 -3.61914,1.562106 -3.61914,3.49414 0,1.932035 1.62834,3.494141 3.61914,3.494141 1.990801,0 3.619141,-1.562106 3.619141,-3.494141 0,-1.932034 -1.62834,-3.49414 -3.619141,-3.49414 z m 0,0.5 c 1.730598,0 3.119141,1.342728 3.119141,2.99414 0,1.651413 -1.388543,2.994141 -3.119141,2.994141 -1.730598,0 -3.11914,-1.342728 -3.11914,-2.994141 0,-1.651412 1.388542,-2.99414 3.11914,-2.99414 z"
               id="path78259" /><ellipse
               style="opacity:1;fill:#d3f0ff;fill-opacity:1;stroke:none;stroke-width:0.530953;stroke-linecap:round;stroke-linejoin:round;stroke-dasharray:none;stroke-dashoffset:5.21575;stroke-opacity:1;filter:url(#filter78214)"
               id="ellipse78261"
               cx="67.117134"
               cy="20.939869"
               rx="0.96904838"
               ry="0.88478327" /><ellipse
               style="opacity:1;fill:#d3f0ff;fill-opacity:1;stroke:none;stroke-width:0.530954;stroke-linecap:round;stroke-linejoin:round;stroke-dasharray:none;stroke-dashoffset:5.21575;stroke-opacity:1;filter:url(#filter78237)"
               id="ellipse78263"
               cx="68.631897"
               cy="21.824654"
               rx="0.46145156"
               ry="0.42132533" /></g><g
             id="g78273"
             transform="matrix(0.94179207,0,0,0.94160903,-24.733188,45.6982)"
             style="stroke-width:1.06191"><path
               style="color:#000000;fill:#7eb9e4;stroke-width:1.06191;stroke-linecap:round;stroke-linejoin:round;stroke-dashoffset:5.21575;-inkscape-stroke:none;filter:url(#filter73824)"
               d="m 66.568359,19.214844 c -1.9908,0 -3.61914,1.562106 -3.61914,3.49414 0,1.932035 1.62834,3.494141 3.61914,3.494141 1.990801,0 3.619141,-1.562106 3.619141,-3.494141 0,-1.932034 -1.62834,-3.49414 -3.619141,-3.49414 z m 0,0.5 c 1.730598,0 3.119141,1.342728 3.119141,2.99414 0,1.651413 -1.388543,2.994141 -3.119141,2.994141 -1.730598,0 -3.11914,-1.342728 -3.11914,-2.994141 0,-1.651412 1.388542,-2.99414 3.11914,-2.99414 z"
               id="path78267" /><ellipse
               style="opacity:1;fill:#d3f0ff;fill-opacity:1;stroke:none;stroke-width:0.530953;stroke-linecap:round;stroke-linejoin:round;stroke-dasharray:none;stroke-dashoffset:5.21575;stroke-opacity:1;filter:url(#filter78214)"
               id="ellipse78269"
               cx="67.117134"
               cy="20.939869"
               rx="0.96904838"
               ry="0.88478327" /><ellipse
               style="opacity:1;fill:#d3f0ff;fill-opacity:1;stroke:none;stroke-width:0.530954;stroke-linecap:round;stroke-linejoin:round;stroke-dasharray:none;stroke-dashoffset:5.21575;stroke-opacity:1;filter:url(#filter78237)"
               id="ellipse78271"
               cx="68.631897"
               cy="21.824654"
               rx="0.46145156"
               ry="0.42132533" /></g><g
             id="g78281"
             transform="matrix(0.4649397,0,0,0.4634374,90.736794,27.086495)"
             style="stroke-width:2.1543"><path
               style="color:#000000;fill:#7eb9e4;stroke-width:2.1543;stroke-linecap:round;stroke-linejoin:round;stroke-dashoffset:5.21575;-inkscape-stroke:none;filter:url(#filter73824)"
               d="m 66.568359,19.214844 c -1.9908,0 -3.61914,1.562106 -3.61914,3.49414 0,1.932035 1.62834,3.494141 3.61914,3.494141 1.990801,0 3.619141,-1.562106 3.619141,-3.494141 0,-1.932034 -1.62834,-3.49414 -3.619141,-3.49414 z m 0,0.5 c 1.730598,0 3.119141,1.342728 3.119141,2.99414 0,1.651413 -1.388543,2.994141 -3.119141,2.994141 -1.730598,0 -3.11914,-1.342728 -3.11914,-2.994141 0,-1.651412 1.388542,-2.99414 3.11914,-2.99414 z"
               id="path78275" /><ellipse
               style="opacity:1;fill:#d3f0ff;fill-opacity:1;stroke:none;stroke-width:1.07715;stroke-linecap:round;stroke-linejoin:round;stroke-dasharray:none;stroke-dashoffset:5.21575;stroke-opacity:1;filter:url(#filter78214)"
               id="ellipse78277"
               cx="67.117134"
               cy="20.939869"
               rx="0.96904838"
               ry="0.88478327" /><ellipse
               style="opacity:1;fill:#d3f0ff;fill-opacity:1;stroke:none;stroke-width:1.07715;stroke-linecap:round;stroke-linejoin:round;stroke-dasharray:none;stroke-dashoffset:5.21575;stroke-opacity:1;filter:url(#filter78237)"
               id="ellipse78279"
               cx="68.631897"
               cy="21.824654"
               rx="0.46145156"
               ry="0.42132533" /></g></g></g><g
         id="g78450"
         inkscape:label="Fishes"
         style="display:inline;filter:url(#filter82975)"><path
           style="fill:#042749;fill-opacity:1;stroke-width:0.519999"
           d="m 26.455477,63.516981 c -0.75656,0.01211 -2.775075,0.71824 -4.105751,1.517584 -0.747818,0.635131 1.103052,1.082982 1.68047,1.432194 1.142474,0.28703 2.322387,0.819896 3.494212,0.395292 1.077813,-0.386199 1.743312,-1.488625 2.79442,-0.790975 0.604606,0.248059 1.655409,1.337069 2.023613,0.802411 -0.163005,-0.753901 -1.29928,-1.767885 -0.602132,-2.494842 0.494369,-0.756063 0.395459,-1.751538 -0.412227,-0.907076 -0.635286,0.708651 -1.435713,1.159714 -2.510941,0.70968 -0.698985,-0.286637 -1.921474,-0.761338 -2.361664,-0.664268 z"
           id="path615"
           sodipodi:nodetypes="cccccccccc" /><path
           style="fill:#042749;fill-opacity:1;stroke-width:0.519999"
           d="m 113.77491,70.691404 c -0.56149,0.009 -2.05955,0.53305 -3.04712,1.126292 -0.555,0.471369 0.81864,0.803747 1.24718,1.062919 0.8479,0.213022 1.72358,0.608495 2.59327,0.29337 0.79991,-0.286622 1.29382,-1.1048 2.07391,-0.587031 0.44871,0.1841 1.22857,0.992321 1.50185,0.595519 -0.12098,-0.559517 -0.96428,-1.312056 -0.44688,-1.851576 0.3669,-0.56112 0.29349,-1.299923 -0.30594,-0.673196 -0.47149,0.525933 -1.06553,0.860694 -1.86353,0.526697 -0.51876,-0.212731 -1.42604,-0.565036 -1.75274,-0.492994 z"
           id="path78452"
           sodipodi:nodetypes="cccccccccc" /><path
           style="fill:#042749;fill-opacity:1;stroke-width:0.519999"
           d="m 89.408012,85.73255 c -0.614691,0.0098 -2.254696,0.583556 -3.335845,1.233008 -0.607588,0.516032 0.896209,0.879902 1.36535,1.163631 0.928238,0.233206 1.886895,0.666149 2.838981,0.321167 0.875702,-0.31378 1.416407,-1.20948 2.270413,-0.642652 0.49123,0.201543 1.344988,1.086343 1.644147,0.651943 -0.132439,-0.61253 -1.055641,-1.436373 -0.489221,-2.027011 0.401665,-0.614287 0.321303,-1.423092 -0.334927,-0.736982 -0.516158,0.575765 -1.166489,0.942245 -2.040091,0.576601 -0.567912,-0.232887 -1.561161,-0.618572 -1.918807,-0.539705 z"
           id="path78454"
           sodipodi:nodetypes="cccccccccc" /><path
           style="fill:#042749;fill-opacity:1;stroke-width:0.519999"
           d="m 33.59312,85.578881 c -0.543756,0.0087 -1.994506,0.516214 -2.950892,1.09072 -0.537472,0.456482 0.792787,0.778362 1.20779,1.029348 0.821121,0.206295 1.669149,0.589277 2.511365,0.284105 0.774647,-0.277569 1.252956,-1.069907 2.00841,-0.568491 0.434543,0.178286 1.189777,0.960981 1.454414,0.57671 -0.117156,-0.541844 -0.933821,-1.270616 -0.432766,-1.793096 0.355314,-0.543399 0.284225,-1.258868 -0.296276,-0.651935 -0.456594,0.509323 -1.031878,0.833511 -1.804667,0.510062 -0.502376,-0.206012 -1.381005,-0.54719 -1.697378,-0.477423 z"
           id="path78456"
           sodipodi:nodetypes="cccccccccc" /><path
           style="fill:#042749;fill-opacity:1;stroke-width:0.519999"
           d="m 46.889854,18.363355 c -0.534889,0.0086 -1.961982,0.507797 -2.902772,1.072934 -0.528709,0.449039 0.779859,0.76567 1.188094,1.012563 0.807731,0.202931 1.641931,0.579668 2.470413,0.279472 0.762016,-0.273043 1.232525,-1.05246 1.975659,-0.55922 0.427458,0.175378 1.170377,0.94531 1.430698,0.567306 -0.115245,-0.533009 -0.918593,-1.249897 -0.425708,-1.763857 0.349519,-0.534538 0.27959,-1.23834 -0.291446,-0.641304 -0.449148,0.501017 -1.015051,0.819919 -1.775239,0.501745 -0.494183,-0.202653 -1.358484,-0.538267 -1.669699,-0.469639 z"
           id="path78458"
           sodipodi:nodetypes="cccccccccc" /><path
           style="fill:#042749;fill-opacity:1;stroke-width:0.519999"
           d="m 95.65501,24.64049 c -0.455087,0.0073 -1.669269,0.432037 -2.4697,0.91286 -0.449829,0.382045 0.663511,0.651438 1.01084,0.861496 0.687224,0.172655 1.396967,0.493186 2.101846,0.237777 0.648328,-0.232307 1.048641,-0.895441 1.680904,-0.475789 0.363686,0.149213 0.995766,0.804277 1.217252,0.482668 -0.09805,-0.453488 -0.781546,-1.063422 -0.362201,-1.500702 0.297375,-0.454789 0.237878,-1.053589 -0.247959,-0.545627 -0.382141,0.42627 -0.863615,0.697594 -1.510388,0.426889 C 96.655149,24.867643 95.919794,24.5821 95.65501,24.64049 Z"
           id="path78460"
           sodipodi:nodetypes="cccccccccc" /></g></g></g></svg>
