<?xml version="1.0" encoding="UTF-8" standalone="no"?>
<!-- Created with Inkscape (http://www.inkscape.org/) -->

<svg
   width="210mm"
   height="297mm"
   viewBox="0 0 210 297"
   version="1.1"
   id="svg1"
   xml:space="preserve"
   inkscape:version="1.4 (86a8ad7, 2024-10-11)"
   sodipodi:docname="sheep-wifi.svg"
   xmlns:inkscape="http://www.inkscape.org/namespaces/inkscape"
   xmlns:sodipodi="http://sodipodi.sourceforge.net/DTD/sodipodi-0.dtd"
   xmlns="http://www.w3.org/2000/svg"
   xmlns:svg="http://www.w3.org/2000/svg"><sodipodi:namedview
     id="namedview1"
     pagecolor="#ffffff"
     bordercolor="#000000"
     borderopacity="0.25"
     inkscape:showpageshadow="2"
     inkscape:pageopacity="0.0"
     inkscape:pagecheckerboard="0"
     inkscape:deskcolor="#d1d1d1"
     inkscape:document-units="mm"
     inkscape:zoom="2.0935044"
     inkscape:cx="205.39723"
     inkscape:cy="174.10998"
     inkscape:window-width="2560"
     inkscape:window-height="1377"
     inkscape:window-x="1272"
     inkscape:window-y="-8"
     inkscape:window-maximized="1"
     inkscape:current-layer="layer1" /><defs
     id="defs1" /><g
     inkscape:label="Layer 1"
     inkscape:groupmode="layer"
     id="layer1"><rect
       style="fill:#000000;fill-opacity:1;stroke:none;stroke-width:2.80001;stroke-linecap:round;stroke-miterlimit:2.1;stroke-dasharray:none;stroke-opacity:1;paint-order:stroke markers fill"
       id="rect13"
       width="78.930855"
       height="59.905537"
       x="7.5919328"
       y="5.3777137" /><path
       style="fill:#ffffff;fill-opacity:1;stroke-width:0.373734"
       d="m 63.629621,25.25229 c 0.844684,-0.697974 2.414315,-1.13539 3.632345,-0.767649 1.96025,0.546404 5.36898,1.552765 6.1818,1.488871 0.31748,-0.199328 1.72924,-2.310769 2.20508,-3.957035 -1.19829,-0.522291 -2.01303,-2.811192 -0.86813,-3.87296 0.77917,-0.82945 2.17435,-1.223525 3.05606,-0.351539 0.99581,0.780667 1.04403,2.420331 0.23665,3.448721 -0.86461,1.198509 -2.04819,2.833335 -2.67977,4.246103 -0.35318,0.790004 -0.25921,1.219281 0.56033,1.526703 1.32403,0.49651 2.83601,0.66919 4.2795,0.588569 0.815,-0.120306 1.78434,0.136238 2.21946,0.839727 0.55129,0.891318 0.71534,2.424805 -0.169,3.209298 -1.04607,1.003955 -2.78045,0.836879 -3.54622,-0.474996 -0.48529,-0.637208 -0.19159,-1.714208 -0.21367,-2.21263 -0.71965,-0.304283 -1.3409,-0.37326 -2.20161,-0.506424 -0.67085,-0.103791 -1.33861,-0.217018 -1.93266,-0.09789 -1.30118,2.390642 -2.3253,4.354752 -3.78812,6.636922 -0.74333,0.980086 -1.80704,1.531874 -2.52194,1.550525 0.0906,-1.007611 0.40764,-1.562795 0.76408,-2.239218 1.12806,-2.140716 2.3127,-4.261336 3.34637,-6.464435 -2.95773,-0.794119 -8.568286,-2.063537 -8.560573,-2.590715 z m 14.081485,-5.073995 c 0.31307,-0.8643 -0.46115,-1.988287 -1.30749,-1.875164 -0.97122,0.08693 -1.66932,1.395192 -0.98728,2.265441 0.40801,0.72642 1.79757,1.04764 2.29477,-0.390277 z m 2.11376,10.819065 c 0.79737,0.824766 2.45719,0.02486 2.23328,-1.208167 -0.14755,-1.359821 -2.22847,-1.731625 -2.68921,-0.425228 -0.15108,0.569586 -0.003,1.272863 0.45593,1.633395 z"
       id="path1-8"
       sodipodi:nodetypes="cccccccsccacccscccsccccccccccc" /><g
       id="g13"
       transform="matrix(0.8272735,0,0,0.84582626,-24.521971,-15.288838)"
       style="stroke-width:1.19546"><path
         id="path1"
         style="fill:#ffffff;fill-opacity:1;stroke-width:1.19546"
         d="m 76.340081,44.29669 c -0.683844,0.0069 -1.223068,0.426048 -1.586011,0.970812 -1.026663,0.98349 -2.728434,1.474149 -3.118925,2.988196 -0.141102,0.707477 0.07342,1.481336 0.668386,1.915964 0.403112,0.313591 0.186948,0.756565 -0.312955,0.72704 -1.785716,0.193221 -3.588514,0.10919 -5.380193,0.226055 -2.3127,0.191557 -4.826544,0.902869 -6.310311,2.801242 -0.649892,0.895437 -0.269499,2.215772 0.716485,2.685772 1.476113,0.879797 3.320371,0.769051 4.902328,0.280429 0.142838,-0.0428 0.298583,-0.06773 0.457876,-0.08065 -0.144733,1.087462 0.07338,2.160391 0.634029,2.97231 -0.505387,1.375786 -0.846383,2.809148 -0.886392,4.25349 -0.0461,1.664207 0.0016,3.470826 1.129385,4.864448 1.454891,1.81585 4.270267,2.221946 6.2391,1.049015 0.526195,-0.416098 1.346459,-1.003589 1.928324,-0.372074 0.940853,0.789646 0.436268,1.464126 1.985168,1.920852 0.582336,0.145793 2.665069,0.515328 3.300701,1.654474 0.326077,0.4475 0.384777,0.785711 0.308582,1.487072 -0.606857,3.042102 -2.286974,8.619576 -2.118845,8.888217 0.528498,0.862137 1.483143,0.796079 2.186308,0.815629 0.890555,0.01435 1.363061,-1.64301 1.6516,-2.701656 0.213902,-0.742669 0.83629,-4.598541 2.100106,-7.237409 0.49826,-0.07987 -0.364258,4.025713 -0.721482,5.132048 -0.610351,1.929003 -1.88287,4.40513 -1.878976,5.788216 0.100333,0.576851 0.325141,0.852783 1.080661,1.141269 0.473518,0.180807 0.977596,0.206693 1.518547,-0.08431 0.383167,-0.119982 2.864352,-6.140294 3.537448,-9.505896 0.07515,-0.804259 0.253925,-1.623912 1.065044,-1.600099 1.18995,-0.128175 1.407067,0.115148 2.528622,-0.413007 0.329892,1.464925 -0.125719,2.897352 -0.396034,4.230273 -0.252572,0.976361 -0.528385,1.810404 -0.791444,2.774971 -0.111624,0.997082 0.822495,1.262252 1.848368,1.22436 0.425716,-0.01572 0.88797,0.0114 1.184355,-0.479602 0.715548,-2.390148 1.208213,-5.025676 1.404859,-7.581989 0.168248,-0.956022 0.501208,-1.548774 0.692748,-1.571995 0.386963,-0.0655 0.39819,1.305496 0.35793,2.363186 -0.160035,2.07937 -1.695513,8.593384 -1.190602,8.850338 0.678284,0.436985 1.400548,0.468422 2.280008,0.326251 0.491458,-0.0089 1.990174,-6.702519 1.928324,-10.335576 -0.0512,-1.554762 -0.295448,-2.498189 1.354887,-3.090837 1.0733,-0.189931 2.23078,-0.623842 2.8828,-1.570773 0.8259,-1.066902 1.11515,-2.417245 1.47982,-3.686521 1.23864,-0.547835 1.39542,-2.046841 1.378,-3.235022 0.0238,-0.497846 0.0592,-1.030438 0.35231,-1.452858 1.02479,-0.01988 1.92464,-0.824982 1.98517,-1.864033 0.17002,-1.079216 0.17574,-2.538058 0.4129,-3.134215 -0.41019,-0.743943 -0.9837,-4.117731 -2.96214,-5.200474 -0.41768,-0.320419 -0.87091,-0.21952 -1.34801,-0.141132 -1.30467,0.02701 -2.68904,-0.845932 -3.93911,-0.175345 -0.40166,0.254604 -0.64603,0.699925 -0.75833,1.152267 -1.636789,0.436878 -2.954568,-1.136943 -4.480687,-0.126468 -0.314105,0.232921 -0.546045,0.547285 -0.785822,0.02383 -1.291894,-1.387438 -2.573563,-1.732537 -4.110885,-0.471659 -0.761191,1.140889 -2.269873,0.845811 -3.41189,0.693437 -1.118674,-0.201799 -1.622305,0.407702 -2.320611,1.372823 -0.428931,0.615974 -0.793021,-0.03311 -0.495355,-0.493043 0.19829,-0.488416 0.787363,-0.657172 0.757088,-1.252464 0.352131,-1.468492 0.932511,-3.226256 -0.02436,-4.588295 -0.431658,-0.504149 -1.209541,-0.523849 -1.645353,-1.066122 -0.919379,-0.900597 -1.94951,-1.973267 -3.353173,-1.892748 -1.201322,1.032153 -2.593869,-0.28899 -3.910369,-0.168013 z m -0.005,0.907273 c 0.114939,-0.0036 0.232152,0.01064 0.347311,0.04216 0.959851,0.175896 1.988969,1.074903 2.96276,0.488155 0.499892,-0.529979 1.382084,-0.599649 1.831502,0.04277 0.688448,0.700998 1.267343,1.88438 2.406813,1.820044 1.17666,0.883543 0.909699,2.635144 0.399782,3.824597 -0.278276,0.634582 -0.670978,1.367786 -1.4667,1.350828 -0.808296,0.169916 -1.665579,-0.138065 -2.429301,0.219334 -1.174281,0.102792 -2.059649,-1.408373 -3.267595,-0.812574 -0.82448,0.53305 -1.938713,0.302249 -2.503635,-0.496709 -0.643133,-0.795236 -1.246962,-1.651571 -1.883349,-2.432834 -0.368023,-0.731238 0.201778,-1.450166 0.868901,-1.724124 0.791786,-0.397801 1.66244,-0.909539 1.871481,-1.834096 0.191958,-0.309138 0.86203,-0.142554 0.86203,-0.487544 z m 15.893214,6.501815 c 1.306113,0.292182 1.782925,1.996062 3.142662,2.13652 0.791366,-0.02839 1.08051,-0.978028 1.870231,-1.059401 1.663507,-0.554379 3.216562,0.876863 3.779192,2.597793 1.6629,0.134356 3.46941,1.599083 3.04647,3.408535 -0.20892,0.505617 -0.25873,0.939119 0.22175,1.318447 0.89193,1.234621 1.59362,2.958194 0.79207,4.411117 -1.35658,0.721689 -1.46922,2.405771 -1.77341,3.734786 -0.18961,0.886609 -1.10974,2.049905 -2.09074,2.247715 -2.016565,0.312002 -2.407342,1.373233 -3.898499,1.950178 -0.637589,0.191249 -1.989659,0.200523 -2.656053,0.29326 -1.647093,0.25173 -2.185244,1.246977 -3.950347,1.427197 -2.314552,0.437839 -3.683504,-0.419515 -5.641301,-1.140658 -0.995122,-0.02205 -3.208643,0.314954 -4.095268,-1.055736 -0.323076,-0.329738 -0.87745,-0.737967 -1.569145,-1.033741 -1.605264,-0.509051 -2.492883,-0.174253 -3.180142,-2.013106 -0.389237,-0.513376 0.168499,-0.842143 0.481613,-1.200533 1.712132,-1.905627 2.985777,-4.163909 3.979081,-6.507924 0.411219,-0.771711 0.451017,-1.807279 0.751466,-2.52509 0.386729,2.058901 1.738306,4.196733 3.863519,4.753254 1.244145,0.335802 2.985112,-0.352357 2.97338,-1.821877 -0.05476,-1.780582 -1.275449,-3.236314 -2.173191,-4.684826 -0.74376,-0.416798 -1.328794,-1.461579 -0.634029,-2.189674 0.732214,-0.800942 1.18605,-1.586243 2.240654,-1.35205 0.993128,0.736907 1.807385,0.455291 2.685411,-0.301202 0.788507,-0.492939 0.869985,-1.49708 1.834626,-1.392984 z M 71.82254,51.884177 c 0.385119,0.02358 0.544725,0.158379 0.01936,0.552307 -0.09677,0.106526 -0.217887,0.226687 -0.323573,0.332361 -0.332458,-0.106851 -0.675367,-0.153376 -1.019445,-0.144186 -1.392663,0.03719 -2.80033,0.980635 -3.579299,2.473769 -0.09261,0.177516 -0.173092,0.358604 -0.243617,0.541919 -0.18755,0.0072 -0.370288,0.02177 -0.535958,0.05804 -1.431023,0.551601 -3.18184,0.965399 -4.585002,0.131356 -0.63198,-0.435394 -0.620254,-1.42875 0.04685,-1.827986 1.59374,-1.415862 3.832673,-1.684442 5.870551,-1.879307 1.302842,-0.06713 2.600285,-0.238675 3.906621,-0.230331 0.161523,-0.01127 0.315135,-0.01564 0.443508,-0.0079 z m 29.94056,0.03727 c 0.0676,-0.0089 0.13589,0.01149 0.20427,0.07637 1.45364,0.638911 3.23057,-0.319814 4.55314,0.694659 0.56919,0.347632 0.05,1.048556 0.37042,1.560998 0.31259,0.955703 1.3555,1.600973 1.32241,2.673552 -0.74432,0.24532 -0.81465,1.299279 -0.45601,1.963008 0.28959,0.537378 0.10435,1.129447 -0.52596,1.418033 -0.42891,0.309155 -1.14639,0.778681 -1.51667,0.153351 -0.94089,-1.300658 -0.10962,-3.189163 -1.21621,-4.43861 -0.56296,-0.741966 -1.61115,-0.73222 -2.28876,-1.347162 -0.69309,-0.479768 -1.68432,-1.452787 -0.99008,-2.324696 0.14725,-0.115999 0.34061,-0.402814 0.54345,-0.429503 z m -28.286461,0.389791 c 0.04625,-0.0047 0.09321,-0.0039 0.139299,0.0031 0.573712,0.208049 0.807247,0.951262 1.46795,1.062456 1.277489,0.439658 2.663464,-0.753925 3.83416,0.111194 0.306412,0.602527 0.855786,0.221762 1.381123,0.283485 0.895911,0.23501 0.586269,1.41245 0.555322,2.087643 -0.241641,2.651298 -1.101864,5.250019 -2.304369,7.620479 -1.367641,2.169582 -3.293835,4.781782 -5.343338,5.680077 -0.827782,0.415565 -2.01141,0.751301 -3.020854,0.51015 -0.503479,-0.271675 -0.180735,-0.924917 -0.02311,-1.202976 0.630181,-0.839693 1.817296,-0.714916 2.640436,-1.231081 0.246304,-0.548811 -0.710053,-0.671551 -1.039433,-0.515037 -0.570007,0.428918 -1.571602,0.42251 -1.759041,-0.404455 -0.252166,-0.321173 1.85e-4,-1.265841 -0.404155,-1.14188 -0.808588,0.262782 -0.396534,1.265351 -0.345437,1.864644 0.102862,0.587602 0.307413,1.690272 -0.577185,1.708849 -0.573135,-0.01719 -0.791865,-0.758579 -1.07379,-1.178538 -0.721043,-1.392191 -0.672595,-3.009378 -0.407903,-4.509481 0.09816,-0.958421 0.260997,-1.787904 0.489733,-2.559303 0.116307,0.09003 0.238912,0.173299 0.369799,0.247438 1.784246,1.01066 4.083401,-0.0017 5.167184,-2.07909 1.029243,-1.972861 0.688022,-4.38199 -0.877022,-5.485181 0.280019,-0.314255 0.619091,-0.642465 0.994458,-0.843733 0.0443,-0.0136 0.08993,-0.024 0.136176,-0.02871 z m -2.947144,1.095448 c 0.427072,-0.0029 0.835038,0.101529 1.196223,0.30609 1.390964,0.787969 1.778031,2.846072 0.864529,4.596848 -0.913365,1.751061 -2.781667,2.531776 -4.172726,1.743674 -0.747923,-0.42863 -1.236127,-1.254841 -1.331775,-2.253824 0.02397,-0.305205 0.563999,-1.178359 1.083785,-1.6838 0.538294,-0.651511 1.285927,-0.987363 2.130714,-1.044128 0.370545,0.0016 0.704561,0.09674 0.953855,0.276764 0.249295,0.180028 0.423981,0.437931 0.49473,0.832736 0.155441,0.867419 -0.232162,1.471756 -0.751465,1.942236 -0.591546,0.535929 -1.125444,0.556238 -1.637858,0.276764 -0.143532,-0.07829 -0.292774,-0.275921 -0.351683,-0.501597 -0.05891,-0.225675 -0.03849,-0.45565 0.09432,-0.651892 0.07205,-0.106462 0.198822,-0.232392 0.334818,-0.325641 -0.09395,0.34237 0.02234,0.684867 0.282971,0.833347 0.316768,0.179407 0.735457,0.01446 0.935115,-0.368408 0.182708,-0.349412 0.08867,-0.778117 0.01124,-0.874281 -0.336799,-0.418993 -0.833257,-0.490054 -1.214338,-0.353744 -0.381082,0.13631 -0.677905,0.414888 -0.868902,0.697103 -0.266385,0.39361 -0.302823,0.86542 -0.200515,1.257351 0.102308,0.391932 0.332558,0.728666 0.663388,0.909106 0.705987,0.385052 1.597765,0.313057 2.358715,-0.37635 0.628567,-0.569471 1.185767,-1.47857 0.980715,-2.622843 -0.09945,-0.554954 -0.379597,-0.984396 -0.753339,-1.254297 -0.373743,-0.269901 -0.830182,-0.387699 -1.301166,-0.389791 -0.935866,-0.0042 -1.949404,0.440965 -2.603581,1.257352 -0.171033,0.171876 -0.335234,0.390225 -0.48661,0.617678 0.07775,-0.274121 0.182614,-0.541597 0.31233,-0.796689 0.647412,-1.241062 1.810648,-2.042122 2.976503,-2.049764 z m 11.823556,0.524813 c 0.08525,-0.01578 0.18517,-0.01453 0.301711,0.0079 1.180344,0.277257 1.203457,1.655242 1.80714,2.483544 0.93672,1.625564 2.56838,3.029062 2.651055,5.014744 0.01836,0.565748 -0.199023,1.344301 -0.924496,1.206642 -1.013618,0.152976 -1.72706,-0.733149 -2.315613,-1.435751 -1.261164,-1.635769 -1.615044,-3.745488 -1.80714,-5.743617 -0.186085,-0.47378 -0.309377,-1.423064 0.287343,-1.533504 z m 16.094355,18.923813 c 0.696218,0.07859 0.07353,3.903963 -0.108067,5.840147 -0.128752,0.85061 -0.401166,3.299802 -1.101899,3.213029 -0.315703,0.0094 -0.52578,-0.0097 -0.900759,-0.174734 -0.338899,-0.208402 0.299276,-2.884332 0.441634,-3.895469 0.128844,-1.289792 0.404059,-4.392544 0.549076,-4.446552 0.16785,-0.27541 0.494452,-0.156615 1.120015,-0.536421 z m -4.085899,1.041683 c 0.03478,0.172645 0.153202,0.685579 0.06434,1.288511 -0.158057,0.846291 -0.425404,4.376273 -0.849537,4.549193 -0.272879,0.0964 -1.326785,0.178381 -1.217461,-0.353134 0.383027,-1.857632 0.748913,-3.50895 0.788945,-5.042847 l 1.074414,-0.437446 c 0.04245,-0.01079 0.104826,-0.0015 0.139299,-0.0043 z m -12.02907,0.01222 c 1.816075,0.07687 1.532772,0.289784 0.898886,2.564801 -0.362409,1.362877 -0.54952,2.267699 -0.950732,3.643143 -0.280604,1.159983 -0.231526,1.740464 -1.471074,1.31417 -0.851898,-0.189675 -0.426841,-1.322159 -0.158038,-2.124301 0.276598,-0.825402 1.156114,-5.420027 1.680958,-5.397813 z M 86.396473,74.544 c 1.182333,0.211171 1.374467,0.326595 1.253692,1.138215 -0.295852,1.988161 -0.935441,4.329537 -1.695327,6.514034 -0.613042,1.539125 -0.621074,1.673633 -1.580388,1.320891 -0.767779,-0.339553 -0.779927,-0.305539 -0.29359,-1.62637 0.745529,-1.88113 1.252613,-3.624544 1.569769,-5.849923 0.09863,-0.692074 0.353674,-1.566889 0.745844,-1.496847 z m 5.695646,5.863364 c 0.350235,6.3e-4 0.651397,0.01732 0.931992,0.04032 0.566361,0.04643 0.638726,0.361139 0.465996,0.957982 -0.106662,0.427433 -0.152622,1.052083 -0.718359,1.079563 -0.437571,0.02126 -1.053039,0.07303 -1.244321,-0.423394 -0.05584,-0.415416 0.564692,-1.290425 0.564692,-1.654474 z M 80.32728,81.879773 c 0.367375,-0.0091 0.956546,0.122135 1.338646,0.521147 0.187066,0.266167 -0.146415,1.155936 -0.652145,1.359992 -0.415917,0.163475 -1.353955,-0.0437 -1.442964,-0.444777 -0.07831,-0.448191 -0.0332,-1.120559 0.479114,-1.385042 0.05743,-0.02965 0.15489,-0.04828 0.277349,-0.05132 z m 16.290498,0.544363 c 0.40727,-0.002 0.827362,0.0325 0.867652,0.310367 0.05282,0.520702 -0.125733,0.979935 -0.234872,1.380765 -0.154283,0.533011 -0.583775,0.375172 -0.968223,0.345802 -0.456721,-0.03489 -0.661156,-0.09535 -0.640276,-0.589574 0.01365,-0.481554 0.113878,-1.43665 0.58718,-1.44125 0.118326,-0.0011 0.252783,-0.0054 0.388539,-0.0061 z M 83.53491,83.90693 c 0.05968,-0.0062 0.124941,-0.0031 0.195519,0.0067 0.0941,0.01312 0.197487,0.03798 0.311705,0.06721 0.850401,0.258344 1.153378,0.350445 0.799564,1.283012 -0.317545,0.674018 -0.825366,0.863249 -1.457331,0.551695 -0.615528,-0.232138 -0.427781,-0.954751 -0.246116,-1.517009 0.08708,-0.269523 0.217613,-0.373105 0.396659,-0.391624 z"
         sodipodi:nodetypes="cccccccccccsccccccccccccsccccccsccccccccccccccccccccccccccccccccccccccccccccccccccccccccccccccccccccccccsscccccccsccccccccccssccccccccccccccccccssccsccccccsssssssccccssssssssccccsccccccsccccccccccccccscccsssscccsscscsccscccsscccsccccccccsc" /><g
         id="g4"
         transform="matrix(0.47080615,0.26668103,-0.26914462,0.51589824,69.432583,17.719342)"
         style="stroke-width:1.19546"><g
           id="path2" /></g><g
         id="g5"
         transform="matrix(0.47080615,0.26668103,-0.26914462,0.51589824,75.720136,20.215406)"
         style="stroke-width:1.19546"><g
           id="ellipse4"><path
             id="path14"
             style="fill:#ffffff;stroke-linecap:round;stroke-miterlimit:2.1;paint-order:stroke markers fill"
             d="m 31.604339,51.32163 c -2.251487,1.235949 -3.752426,3.840556 -3.752426,6.734796 0,4.026768 2.905416,7.489946 6.695185,7.489946 3.789769,0 6.693383,-3.463252 6.693383,-7.49002 0,-4.026769 -2.903891,-7.491919 -6.69366,-7.491919 -1.065872,0 -2.061466,0.273564 -2.942482,0.757197 z m 0.719604,1.145056 c 0.697468,-0.365883 1.455261,-0.555263 2.222021,-0.555305 2.953982,4.5e-4 5.348518,2.751125 5.34876,6.144281 1.8e-5,3.393392 -2.394629,6.144407 -5.348817,6.144821 -1.59286,-0.0075 -3.099973,-0.829888 -4.111259,-2.243522 -0.03678,-0.187726 -0.03969,-0.452033 0.04613,-1.404692 0.06524,-0.724296 0.141933,-1.601651 0.290539,-2.033162 l 0.01202,-0.037 0.0079,-0.03724 c 0.277405,-1.362313 1.362,-2.669199 2.579851,-3.292358 0.608925,-0.31158 1.237884,-0.452386 1.800593,-0.394303 0.562709,0.05808 1.070209,0.294467 1.523896,0.825222 0.996786,1.166111 0.878739,2.399744 0.42975,3.5438 -0.51145,1.30321 -1.37044,1.78661 -2.4496,1.802731 -0.302293,0.0045 -0.716539,-0.165623 -1.006151,-0.453357 -0.289612,-0.287733 -0.452315,-0.64822 -0.402421,-1.0544 0.02713,-0.22083 0.126672,-0.518204 0.270386,-0.773349 0.138535,0.592458 0.622518,1.006842 1.177255,1.007963 0.672682,2.86e-4 1.218227,-0.600896 1.21855,-1.342825 -2.09e-4,-0.67595 -0.521082,-1.239681 -0.730919,-1.31803 -0.910571,-0.341465 -1.78376,-0.02665 -2.29196,0.50027 -0.5082,0.526921 -0.75657,1.195296 -0.828323,1.779423 -0.100074,0.814691 0.24322,1.55059 0.746191,2.050299 0.502971,0.499708 1.167992,0.80984 1.864733,0.799435 1.486832,-0.02221 2.886818,-0.886634 3.544734,-2.563052 0.543459,-1.384771 0.680436,-3.217746 -0.634494,-4.756045 -0.63772,-0.74605 -1.464351,-1.15116 -2.307967,-1.23824 -0.843616,-0.08708 -1.69374,0.124033 -2.467718,0.520068 -1.537927,0.786937 -2.818915,2.311921 -3.193165,4.087838 -0.133538,0.402536 -0.214806,0.869313 -0.268437,1.338418 -0.107157,-0.476807 -0.164029,-0.966683 -0.16939,-1.459083 3.22e-4,-2.405399 1.222468,-4.589407 3.127319,-5.588601 z"
             sodipodi:nodetypes="sssssssccccscccsssssssccccsssssssscccss" /></g></g></g><g
       id="g12"
       transform="matrix(1.6651982,-1.7987004,-1.3693515,-1.44759,-43.562193,400.5865)"
       style="stroke-width:0.452977"><path
         id="path9"
         style="fill:#ffffff;fill-opacity:1;stroke:none;stroke-width:0.452977;stroke-linecap:round;stroke-miterlimit:2.1;paint-order:stroke markers fill"
         d="m 124.30094,102.30642 c -1.74753,0 -3.31409,0.77591 -4.42195,2.00711 l 0.5643,0.7276 a 5.2002358,5.5124493 0 0 1 3.85817,-1.83968 5.2002358,5.5124493 0 0 1 3.86746,1.82728 l 0.55449,-0.7152 c -1.10826,-1.23112 -2.675,-2.00711 -4.42247,-2.00711 z m 0,1.64279 c -1.3746,0 -2.59563,0.6457 -3.42356,1.65158 l 0.56792,0.73277 a 3.6373022,3.8694704 0 0 1 2.85616,-1.4888 3.6373022,3.8694704 0 0 1 2.8608,1.4826 l 0.56276,-0.72554 c -0.82781,-1.00646 -2.04902,-1.65261 -3.42408,-1.65261 z m 0,1.56425 c -1.0228,0 -1.91357,0.5288 -2.46703,1.32136 l 0.58807,0.75913 a 2.1656148,2.3038456 0 0 1 1.87948,-1.18391 2.1656148,2.3038456 0 0 1 1.88619,1.17512 l 0.58136,-0.75034 c -0.55391,-0.79256 -1.44527,-1.32136 -2.46807,-1.32136 z" /><ellipse
         style="fill:#ffffff;fill-opacity:1;stroke:none;stroke-width:0.113588;stroke-linecap:round;stroke-miterlimit:2.1;stroke-dasharray:none;stroke-opacity:1;paint-order:stroke markers fill"
         id="path6"
         cx="124.30159"
         cy="108.71406"
         rx="0.80546272"
         ry="0.79179311" /></g></g></svg>
