<?xml version="1.0" encoding="UTF-8" standalone="no"?>
<!-- Created with Inkscape (http://www.inkscape.org/) -->

<svg
   width="210mm"
   height="297mm"
   viewBox="0 0 210 297"
   version="1.1"
   id="svg5"
   xml:space="preserve"
   inkscape:version="1.2.2 (732a01da63, 2022-12-09)"
   sodipodi:docname="shotgun.svg"
   xmlns:inkscape="http://www.inkscape.org/namespaces/inkscape"
   xmlns:sodipodi="http://sodipodi.sourceforge.net/DTD/sodipodi-0.dtd"
   xmlns="http://www.w3.org/2000/svg"
   xmlns:svg="http://www.w3.org/2000/svg"><sodipodi:namedview
     id="namedview7"
     pagecolor="#ffffff"
     bordercolor="#666666"
     borderopacity="1.0"
     inkscape:showpageshadow="2"
     inkscape:pageopacity="0.0"
     inkscape:pagecheckerboard="0"
     inkscape:deskcolor="#d1d1d1"
     inkscape:document-units="mm"
     showgrid="false"
     inkscape:zoom="0.84096521"
     inkscape:cx="-176.58281"
     inkscape:cy="392.40624"
     inkscape:window-width="2560"
     inkscape:window-height="1377"
     inkscape:window-x="1272"
     inkscape:window-y="-8"
     inkscape:window-maximized="1"
     inkscape:current-layer="layer1" /><defs
     id="defs2"><filter
       inkscape:collect="always"
       style="color-interpolation-filters:sRGB"
       id="filter50798"
       x="-0.024938712"
       y="-0.089487971"
       width="1.0498774"
       height="1.1789759"><feGaussianBlur
         inkscape:collect="always"
         stdDeviation="1.5205608"
         id="feGaussianBlur50800" /></filter></defs><g
     inkscape:label="Layer 1"
     inkscape:groupmode="layer"
     id="layer1"><path
       id="path50567"
       style="fill:#0c0c0c;fill-opacity:1;stroke:none;stroke-width:0.499999;stroke-linecap:round;stroke-linejoin:round;stroke-dashoffset:5.21575;filter:url(#filter50798)"
       d="m 99.248722,13.36973 a 2.558393,2.6696277 0 0 0 -2.557983,2.670121 2.558393,2.6696277 0 0 0 0.02222,0.337447 c -0.525127,0.289061 -0.621778,0.858441 -0.717786,1.386479 -0.04045,0.222468 -0.05092,0.607167 -0.04858,1.00614 -0.799769,0.0079 -1.382131,0.01554 -1.619539,0.02274 -1.835367,0.05562 -3.893206,0.667263 -8.175728,1.890841 0.0019,0.0162 0.0043,0.03285 0.0062,0.04909 -3.051819,1.066889 -5.920928,2.805392 -8.210869,4.397664 -2.866315,1.993045 -4.391365,3.910826 -7.157702,7.354073 -2.159227,1.225045 -5.961411,-0.421817 -7.078638,-3.77548 l -27.892871,-3.91604 v -0.0279 c 0,0 -0.242563,-0.02374 -0.60048,-0.05633 l -0.215491,-0.03049 v 0.01085 c -0.928528,-0.08236 -2.434065,-0.202055 -3.355351,-0.202055 -1.161791,0 -1.544291,0.811163 -1.612821,3.566191 -0.03156,1.268552 0.161204,23.766074 0.111104,24.76593 -0.03933,0.784808 1.150321,1.430648 2.057756,1.318266 0.723173,-0.08956 3.63492,-0.584977 3.63492,-0.584977 v -0.02791 c 1.652988,-0.298475 33.360728,-6.023483 36.132161,-6.48901 4.22388,-0.709499 5.746712,-0.544529 7.747331,-5.348511 1.925307,-4.071328 4.939894,-6.480016 9.422681,-8.989115 0.0049,0.01782 0.01014,0.03705 0.01499,0.05478 0.03733,-0.02776 0.0757,-0.05466 0.114205,-0.08165 0.629473,1.367328 1.30289,2.730769 2.448429,3.741891 0.861247,0.891041 1.972902,1.549424 3.211691,1.721341 2.36087,0.537184 5.049914,0.196248 6.921029,-1.436604 0.83543,-0.851578 1.49832,-1.861319 2.37711,-2.67684 0.82621,-0.803534 1.73996,-1.508333 2.54145,-2.338875 0.26444,-0.262305 0.55353,-0.495975 0.85008,-0.719336 4.2664,-0.0099 9.65057,-0.04547 9.65057,-0.04547 v -0.0057 h 5.43584 c 0.24256,0.948935 1.10041,1.646411 2.12701,1.646411 h 14.4632 c 1.02659,0 1.88392,-0.697476 2.12648,-1.646411 h 7.39335 v -3.617867 h 11.30732 v 0.926558 h 16.24035 V 17.763777 h -16.24035 v 0.877465 h -1.39681 v -0.157613 c 0,-1.099953 -0.85976,-1.991254 -1.94666,-2.042252 v -0.994255 c 0,-1.145266 -0.92179,-2.067057 -2.06705,-2.067057 h -0.96222 c -1.14526,0 -2.06706,0.921791 -2.06706,2.067057 v 0.992704 c -1.11312,0.02252 -2.00246,0.925093 -2.00246,2.043803 v 0.157613 h -32.29312 c -0.0739,-0.82462 -0.22117,-1.668875 -0.51521,-2.01228 -0.59514,-0.695056 -1.21102,-0.906902 -2.0252,-0.527616 -0.14562,1.441116 -0.92304,1.337903 -1.36994,1.374593 -0.75955,0.06237 -1.00459,-1.619539 -1.00459,-1.619539 0,0 -1.87579,0.02694 -2.5461,0.12764 -0.17871,0.7496 -0.1786,1.580367 -1.36064,1.501717 -0.61044,-0.04062 -1.04335,-1.534273 -1.04335,-1.534273 0,0 -1.79188,0.002 -2.40502,0.05168 -0.29853,0.855854 -0.54267,1.482406 -1.3348,1.426786 -0.55758,-0.03915 -1.00389,-0.407404 -1.14153,-1.41025 l -0.83354,0.0057 a 2.558393,2.6696277 0 0 0 -2.557988,-2.65567 z"
       inkscape:label="Shadow" /><g
       id="g6823"
       inkscape:label="Shotgun"
       style="display:inline"
       transform="translate(0,-23.28178)"><path
         style="opacity:1;fill:#000000;fill-opacity:1;stroke:none;stroke-width:0.499999;stroke-linecap:round;stroke-linejoin:round;stroke-dashoffset:5.21575"
         d="m 35.001325,47.959679 28.70895,4.031051 c 1.117228,3.353666 4.919691,5.000471 7.07892,3.775425 2.76634,-3.443251 4.291254,-5.361165 7.157572,-7.354212 2.604587,-1.811056 5.958032,-3.812178 9.477887,-4.797933 0.300292,0.965199 2.189223,7.813028 3.185516,11.562233 -5.308474,2.820667 -8.764226,5.289497 -10.893672,9.792505 -2.000621,4.803987 -3.523599,4.639019 -7.747483,5.348519 -2.843767,0.477677 -37.019355,6.649112 -37.019355,6.649112 z"
         id="path2910"
         sodipodi:nodetypes="cccscccscc" /><path
         id="path3008"
         style="opacity:1;fill:#c78159;fill-opacity:1;stroke-width:0.499999;stroke-linecap:round;stroke-linejoin:round;stroke-dashoffset:5.21575"
         d="m 86.283203,44.822266 c -3.944687,1.476304 -7.60984,3.730819 -10.707031,6.582031 -1.587635,1.563163 -2.915255,3.4357 -4.451172,5.078125 -2.522191,1.235213 -5.566047,-0.156363 -7.130447,-2.28055 -0.410333,-0.432907 -0.594227,-1.117299 -0.952949,-1.506848 L 36.65817,48.696207 c -0.01758,9.054687 0.12215,18.070047 0.10458,27.124734 13.184902,-2.38326 25.35461,-4.536364 38.53856,-6.920416 1.832016,-0.480132 2.863863,-2.243344 3.513649,-3.887278 1.270566,-2.792527 3.246718,-5.243551 5.733874,-7.044497 1.612607,-1.211204 3.359267,-2.227822 5.128906,-3.189453 -0.922918,-3.3948 -1.832737,-6.790492 -2.794922,-10.167969 -0.199869,0.07031 -0.399739,0.140625 -0.599609,0.210938 z"
         sodipodi:nodetypes="scccccccccccss" /><path
         id="path50333"
         style="opacity:0.27673;fill:#fff4f4;fill-opacity:1;stroke:none;stroke-width:0.499999;stroke-linecap:round;stroke-linejoin:round;stroke-dashoffset:5.21575"
         d="m 86.883069,44.61123 c -0.199869,0.07031 -0.400094,0.140527 -0.599964,0.21084 -3.944683,1.476303 -7.609652,3.730818 -10.70684,6.582027 -1.587633,1.563162 -2.915492,3.43582 -4.451407,5.078243 -2.522189,1.235212 -5.565916,-0.156296 -7.130315,-2.28048 -0.410332,-0.432907 -0.594191,-1.117337 -0.952913,-1.506885 L 36.658228,48.696252 c -9.85e-4,0.506887 5.3e-5,1.01315 0,1.519804 0.591832,0.08823 1.199784,0.181519 1.828828,0.284221 8.550065,1.067535 11.937454,1.785524 23.359298,3.448368 3.301708,3.769827 8.705863,4.90502 11.791012,1.668632 1.668513,-1.779749 1.779848,-1.668485 4.338236,-4.004407 3.527937,-3.149206 5.036821,-3.638299 9.535335,-4.766634 -0.207587,-0.745624 -0.415898,-1.490945 -0.627868,-2.235006 z"
         sodipodi:nodetypes="cccccccccccccc" /><path
         id="path50265"
         style="opacity:0.27673;fill:#232323;fill-opacity:1;stroke:none;stroke-width:0.499999;stroke-linecap:round;stroke-linejoin:round;stroke-dashoffset:5.21575"
         d="m 89.213159,53.069112 c -1.182103,0.585843 -2.87915,1.526592 -3.785298,2.103231 -1.223578,0.778641 -3.336738,2.001934 -4.226616,3.336747 -0.889874,1.334811 -2.780697,3.448611 -4.115511,5.45083 -1.334812,2.002219 -0.890122,2.002067 -1.557528,2.780709 -0.667405,0.778641 -2.89233,0.889868 -2.89233,0.889868 0,0 -29.365634,5.339336 -31.590319,5.673039 -0.772266,0.115841 -2.466105,0.417834 -4.282943,0.747241 1.04e-4,0.589993 0.0011,1.179613 0,1.769918 13.184889,-2.383258 25.354796,-4.535941 38.538733,-6.919991 1.832014,-0.480132 2.863695,-2.243686 3.51348,-3.887618 1.270565,-2.792524 3.246864,-5.243587 5.734017,-7.044531 1.612606,-1.211203 3.359249,-2.22784 5.128886,-3.18947 -0.155022,-0.570223 -0.309977,-1.139789 -0.464571,-1.709973 z" /><g
         id="g12518"><path
           style="opacity:1;fill:#000000;fill-opacity:1;stroke:none;stroke-width:0.499999;stroke-linecap:round;stroke-linejoin:round;stroke-dashoffset:5.21575"
           d="m 88.801111,54.940281 c 0.790645,1.682224 1.486041,3.492255 2.915589,4.754059 0.861248,0.891042 1.972826,1.549476 3.211616,1.721394 2.360873,0.537184 5.050112,0.196273 6.921224,-1.436581 0.83543,-0.851579 1.49856,-1.861417 2.37735,-2.676938 0.82621,-0.803535 1.7399,-1.508235 2.54139,-2.338778 0.46372,-0.459984 1.00186,-0.833077 1.52657,-1.214012 0.40603,-0.80636 -1.16916,-0.508112 -1.65992,-0.723417 -3.11341,-0.380335 -6.24975,-0.527575 -9.378584,-0.723533 -0.768768,-0.114155 -1.493886,0.188471 -2.23431,0.339709 -1.824568,0.438305 -3.649137,0.876609 -5.473705,1.314914 -0.249073,0.327728 -0.498147,0.655455 -0.74722,0.983183 z"
           id="path6903" /><path
           id="path6905"
           style="opacity:1;fill:#8d96b0;fill-opacity:1;stroke:none;stroke-width:0.499999;stroke-linecap:round;stroke-linejoin:round;stroke-dashoffset:5.21575"
           d="m 89.878906,54.746094 c 0.214146,0.671913 0.347602,1.192901 0.61528,1.731181 0.997532,2.118525 2.555889,3.698402 5.014852,4.186329 2.380176,0.472294 4.584492,-0.211103 6.566162,-2.399656 1.45632,-1.608354 2.70921,-2.88491 4.33142,-4.315288 -3.41205,-0.389562 -5.19217,-0.392776 -8.62648,-0.464427 -3.028473,-0.03479 -5.675615,0.578649 -7.901234,1.261861 z"
           sodipodi:nodetypes="ccssccc" /><ellipse
           style="opacity:1;fill:#000000;fill-opacity:1;stroke:none;stroke-width:0.499998;stroke-linecap:round;stroke-linejoin:round;stroke-dashoffset:5.21575"
           id="path8980"
           cx="96.134407"
           cy="57.313568"
           rx="3.5038865"
           ry="2.6974363" /><path
           id="ellipse8982"
           style="opacity:1;fill:#252b2e;fill-opacity:1;stroke:none;stroke-width:0.499998;stroke-linecap:round;stroke-linejoin:round;stroke-dashoffset:5.21575"
           d="m 95.691406,55.4375 c -1.091244,0.09171 -2.487633,0.966354 -2.170629,2.223828 0.581134,1.576758 2.705282,1.862828 4.088598,1.242969 0.934796,-0.391239 1.660601,-1.643122 0.875,-2.517578 -0.656247,-0.813165 -1.80336,-1.027302 -2.792969,-0.949219 z" /><path
           style="opacity:1;fill:#000000;fill-opacity:1;stroke:none;stroke-width:0.499999;stroke-linecap:round;stroke-linejoin:round;stroke-dashoffset:5.21575"
           d="m 93.242309,56.785205 c 0,0 0.633542,0.747961 1.028919,1.02892 0.503541,0.357822 1.195771,0.750832 1.668518,0.80645 0.472745,0.05562 0.862066,0.222469 0.917684,-0.08343 0.05562,-0.305896 -0.203602,-0.625535 -0.278085,-0.945494 -0.110911,-0.476443 -0.228159,-0.957366 -0.25028,-1.446048 -0.01556,-0.343746 0.08343,-1.028917 0.08343,-1.028917 l -1.195769,0.08342 c -0.453699,0.21854 -0.961539,0.360488 -1.390432,0.736927 z"
           id="path9050"
           sodipodi:nodetypes="cassaacccc" /><path
           id="path9052"
           style="opacity:1;fill:#43464e;fill-opacity:1;stroke:none;stroke-width:0.499999;stroke-linecap:round;stroke-linejoin:round;stroke-dashoffset:5.21575"
           d="m 95.451021,55.469482 c -0.467708,0.08425 -0.962751,0.298696 -1.340486,0.61495 0.0046,0.06051 0.0217,0.102836 0.0217,0.102836 0.258161,0.742887 0.566202,0.945461 1.23765,1.278992 0.222467,0.05561 0.528168,0.361888 0.389124,-0.04134 -0.260318,-0.562977 -0.245287,-1.073081 -0.278019,-1.390613 -0.0256,-0.247463 -0.0302,-0.446979 -0.02997,-0.564824 z" /></g><path
         style="opacity:1;fill:#000000;fill-opacity:1;stroke:none;stroke-width:0.499999;stroke-linecap:round;stroke-linejoin:round;stroke-dashoffset:5.21575"
         d="m 30.033312,51.334717 c 0.06853,-2.755031 0.451106,-3.566252 1.612899,-3.566252 1.397758,0 4.171294,0.278085 4.171294,0.278085 l 0.01966,28.787276 c 0,0 -2.911611,0.495816 -3.634785,0.585378 -0.907436,0.112382 -2.097166,-0.533715 -2.057839,-1.318524 0.0501,-0.999857 -0.142789,-23.49741 -0.111233,-24.765963 z"
         id="path3013"
         sodipodi:nodetypes="ssccsss" /><path
         id="path3023"
         style="opacity:1;fill:#925544;fill-opacity:1;stroke-width:0.499999;stroke-linecap:round;stroke-linejoin:round;stroke-dashoffset:5.21575"
         d="m 31.45253,48.591797 c -0.432352,0.0097 -0.467244,1.680343 -0.57476,2.513382 -0.08264,8.276029 0.07329,20.857939 0.09098,24.684844 0.0063,1.356533 2.289485,0.662063 4.917804,0.190716 5.35e-4,-8.97331 -0.15345,-18.22738 -0.16312,-27.200685 -1.422404,-0.08187 -3.877567,-0.197119 -4.270904,-0.188257 z"
         sodipodi:nodetypes="scsccs" /><path
         id="path50478"
         style="opacity:0.27673;fill:#000000;fill-opacity:1;stroke:none;stroke-width:0.499999;stroke-linecap:round;stroke-linejoin:round;stroke-dashoffset:5.21575"
         d="m 35.883081,74.269368 -4.919596,0.767396 c 0.0016,0.243103 0.0043,0.555414 0.0052,0.753442 0.0063,1.356532 2.28973,0.662032 4.918046,0.190686 3.4e-5,-0.568469 -0.0025,-1.140943 -0.0036,-1.711524 z" /><path
         id="path50483"
         style="opacity:0.194969;fill:#fff4f4;fill-opacity:1;stroke:none;stroke-width:0.499999;stroke-linecap:round;stroke-linejoin:round;stroke-dashoffset:5.21575"
         d="m 31.452344,48.591866 c -0.169058,0.0038 -0.276295,0.262965 -0.351917,0.625285 l 4.626591,0.84491 c -0.0011,-0.427042 -0.0032,-0.856256 -0.0036,-1.282093 -1.422403,-0.08187 -3.877721,-0.196964 -4.271057,-0.188102 z" /><g
         id="g24630"><path
           id="path19232"
           style="opacity:1;stroke-width:0.499999;stroke-linecap:round;stroke-linejoin:round;stroke-dashoffset:5.21575"
           d="m 101.80736,39.321388 a 2.558393,2.6696277 0 0 1 -2.55839,2.669628 2.558393,2.6696277 0 0 1 -2.558393,-2.669628 2.558393,2.6696277 0 0 1 2.558393,-2.669627 2.558393,2.6696277 0 0 1 2.55839,2.669627 z" /><path
           id="ellipse19234"
           style="opacity:1;fill:#404663;fill-opacity:1;stroke:none;stroke-width:0.499999;stroke-linecap:round;stroke-linejoin:round;stroke-dashoffset:5.21575"
           d="m 99.190738,37.556165 c -0.870713,0.03252 -1.331903,0.473051 -1.558394,1.467196 -0.45722,2.006888 3.860276,2.400567 3.188216,-0.290494 -0.20449,-0.8188 -0.67122,-1.212501 -1.629822,-1.176702 z"
           sodipodi:nodetypes="ssss" /><path
           style="opacity:1;fill:#000000;fill-opacity:1;stroke:none;stroke-width:0.499999;stroke-linecap:round;stroke-linejoin:round;stroke-dashoffset:5.21575"
           d="m 95.995362,43.492684 c 0,0 -0.111234,-1.83537 0,-2.447158 0.111236,-0.61179 0.222469,-1.279197 1.001112,-1.501666 0.778639,-0.22247 1.501685,-0.215735 2.558391,-0.22247 l 3.085365,-0.01966 c 0.13764,1.002847 0.58397,1.370946 1.14155,1.410097 0.79213,0.05562 1.03628,-0.571109 1.33481,-1.426964 0.61314,-0.04964 2.40503,-0.05167 2.40503,-0.05167 0,0 0.4328,1.493626 1.04324,1.534246 1.18204,0.07865 1.18193,-0.752064 1.36064,-1.501664 0.67031,-0.100699 2.54606,-0.127525 2.54606,-0.127525 0,0 0.24493,1.682013 1.00448,1.619646 0.4469,-0.03669 1.22457,0.0664 1.37019,-1.374718 0.81418,-0.379286 1.43012,-0.167509 2.02526,0.527548 0.65267,0.762234 0.58597,3.99432 0.58597,3.99432"
           id="path18350"
           sodipodi:nodetypes="cssscsccsccscsc" /><path
           id="path19078"
           style="opacity:1;fill:#3c4663;fill-opacity:1;stroke:none;stroke-width:0.499999;stroke-linecap:round;stroke-linejoin:round;stroke-dashoffset:5.21575"
           d="m 111.68164,39.916016 c -0.69158,0.01083 -0.93616,-0.172628 -1.22312,0.597628 -0.5097,1.147914 -2.43751,1.488804 -3.07961,0.287135 -0.24802,-0.476945 -0.4315,-0.749271 -1.10749,-0.760422 -0.9295,-0.01533 -0.85434,0.95713 -1.57895,1.241896 -0.72461,0.284766 -2.00571,0.18054 -2.44683,-0.693448 -0.13525,-0.616595 -1.02107,-0.503128 -2.23681,-0.48634 -1.215745,0.01679 -2.140343,-0.04654 -2.767537,0.368633 -0.487605,0.32277 -0.608699,1.819328 -0.345623,2.283408 1.891055,-0.07509 3.78187,0.07995 5.67353,0.0712 l 14.07924,0.27 c -0.0905,-0.998935 0.1084,-2.208526 -0.71328,-2.960684 -0.64387,-0.482764 -0.54,0.708718 -1.07169,1.012328 -0.97336,0.555814 -2.47055,0.479588 -2.83417,-0.676644 -0.13055,-0.174853 -0.12947,-0.558107 -0.34766,-0.55469 z"
           sodipodi:nodetypes="sccszczsccccscs" /></g><g
         id="g31129"
         style="display:inline"><g
           id="g34358"><rect
             style="opacity:1;fill:#000000;fill-opacity:1;stroke:none;stroke-width:0.499999;stroke-linecap:round;stroke-linejoin:round;stroke-dashoffset:5.21575"
             id="rect31232"
             width="5.0964608"
             height="5.16817"
             x="151.68205"
             y="36.661655"
             ry="2.0672691" /><path
             id="path31239"
             style="opacity:1;fill:#3e446a;fill-opacity:1;stroke:none;stroke-width:0.499999;stroke-linecap:round;stroke-linejoin:round;stroke-dashoffset:5.21575"
             d="m 154.20335,37.597853 c -0.31115,3e-6 -1.35606,0.102699 -1.56952,0.860082 -0.14696,0.755732 -0.16684,1.919129 0.27946,2.326954 0.36022,0.207258 0.75239,0.0016 1.1268,0.08146 0.52505,-0.0068 1.06661,0.08202 1.57919,-0.143275 0.35583,-0.468036 0.33268,-1.475791 0.23429,-2.190039 -0.21232,-0.696169 -0.7195,-0.93519 -1.65022,-0.935182 z"
             sodipodi:nodetypes="scccccs" /><rect
             style="opacity:1;fill:#000000;fill-opacity:1;stroke:none;stroke-width:0.499999;stroke-linecap:round;stroke-linejoin:round;stroke-dashoffset:5.21575"
             id="rect31225"
             width="9.0452852"
             height="5.1125526"
             x="149.67982"
             y="39.720604"
             ry="2.045022" /><path
             id="rect31227"
             style="opacity:1;fill:#3d4365;fill-opacity:1;stroke:none;stroke-width:0.499999;stroke-linecap:round;stroke-linejoin:round;stroke-dashoffset:5.21575"
             d="m 152.58398,40.513672 c -0.6948,0.03353 -1.6691,-0.107526 -1.9607,0.712967 -0.32956,0.883587 -0.37414,2.243806 0.62672,2.720627 0.80781,0.24232 1.6873,0.0019 2.52692,0.09525 1.17745,-0.008 2.39195,0.0959 3.54144,-0.167514 0.79796,-0.547218 0.74604,-1.725463 0.52539,-2.560547 -0.28367,-0.763933 -1.15377,-0.903106 -1.86562,-0.800099 -1.13149,0.0092 -2.26262,-0.02341 -3.39415,-6.82e-4 z" /></g><rect
           style="opacity:1;fill:#000000;fill-opacity:1;stroke:none;stroke-width:0.499999;stroke-linecap:round;stroke-linejoin:round;stroke-dashoffset:5.21575"
           id="rect24734"
           width="33.664196"
           height="5.1912069"
           x="115.15042"
           y="49.00185" /><path
           id="rect24736"
           style="opacity:1;fill:#5a6889;fill-opacity:1;stroke:none;stroke-width:0.499999;stroke-linecap:round;stroke-linejoin:round;stroke-dashoffset:5.21575"
           d="m 115.94141,53.402344 c 10.69401,0 21.38802,0 32.08203,0 0,-1.203125 0,-2.40625 0,-3.609375 -10.69401,0 -21.38802,0 -32.08203,0 0,1.203125 0,2.40625 0,3.609375 z" /><path
           id="rect42989"
           style="display:inline;opacity:0.207547;fill:#000000;fill-opacity:1;stroke:none;stroke-width:0.499999;stroke-linecap:round;stroke-linejoin:round;stroke-dashoffset:5.21575"
           d="m 115.94124,51.61287 v 1.789555 h 32.08228 V 51.61287 Z" /><rect
           style="opacity:1;fill:#000000;fill-opacity:1;stroke:none;stroke-width:0.499999;stroke-linecap:round;stroke-linejoin:round;stroke-dashoffset:5.21575"
           id="rect24726"
           width="45.934322"
           height="8.6520128"
           x="115.15042"
           y="41.922939"
           ry="0" /><path
           id="rect24728"
           style="opacity:1;fill:#5a6887;fill-opacity:1;stroke:none;stroke-width:0.499999;stroke-linecap:round;stroke-linejoin:round;stroke-dashoffset:5.21575"
           d="m 115.89047,49.676837 c 14.79159,0 29.58319,0 44.37481,0 0,-2.258992 0,-4.517986 0,-6.776978 -14.79162,0 -29.58322,0 -44.37481,0 0,2.258992 0,4.517986 0,6.776978 z" /><path
           id="rect42983"
           style="display:inline;opacity:0.207547;fill:#000000;fill-opacity:1;stroke:none;stroke-width:0.499998;stroke-linecap:round;stroke-linejoin:round;stroke-dashoffset:5.21575"
           d="m 116.90759,47.497228 v 2.179842 h 43.35756 v -2.179842 z" /><path
           id="path42997"
           style="display:inline;opacity:0.218029;fill:#ffffff;fill-opacity:1;stroke:none;stroke-width:0.499999;stroke-linecap:round;stroke-linejoin:round;stroke-dashoffset:5.21575"
           d="m 115.8906,42.899707 v 1.619023 h 44.37455 v -1.619023 z" /><g
           id="g40090"><rect
             style="opacity:1;fill:#000000;fill-opacity:1;stroke:none;stroke-width:0.499999;stroke-linecap:round;stroke-linejoin:round;stroke-dashoffset:5.21575"
             id="rect34511"
             width="18.854248"
             height="7.6195626"
             x="122.63602"
             y="48.220154"
             ry="2.195472" /><path
             id="rect35239"
             style="opacity:1;fill:#d1805d;fill-opacity:1;stroke:none;stroke-width:0.499999;stroke-linecap:round;stroke-linejoin:round;stroke-dashoffset:5.21575"
             d="m 138.63672,49.275391 c -4.72132,0.01404 -9.44348,-0.04858 -14.16406,0.05859 -1.03835,0.4046 -0.9202,1.805118 -0.89688,2.685044 0.0243,0.917116 -0.19649,2.135225 0.81484,2.637222 1.09383,0.344933 2.25694,0.0038 3.38086,0.128593 3.9876,-0.01883 7.97711,0.06984 11.9629,-0.08758 1.01972,-0.494351 0.79514,-1.834532 0.82263,-2.734841 0.0268,-0.876458 0.13907,-2.132541 -0.84412,-2.583519 -0.34244,-0.135058 -0.71507,-0.138483 -1.07617,-0.103515 z"
             sodipodi:nodetypes="scscccscss" /><path
             id="rect35299"
             style="opacity:1;fill:#000000;fill-opacity:1;stroke-width:0.499999;stroke-linecap:round;stroke-linejoin:round;stroke-dashoffset:5.21575"
             d="m 126.93855,51.195675 h 0.0156 c 1.01248,0 1.79806,0.81553 1.82758,1.827575 l 0.0556,1.906574 c 0.0295,1.012046 -0.87072,0.548378 -1.8832,0.548378 h -0.0156 c -1.01247,0 -1.78358,0.297118 -1.79976,-0.71523 l -0.0278,-1.739722 c -0.0162,-1.012347 0.8151,-1.827575 1.82757,-1.827575 z"
             sodipodi:nodetypes="sssssssss" /><path
             id="path35302"
             style="opacity:1;fill:#9c5239;fill-opacity:1;stroke-width:0.499999;stroke-linecap:round;stroke-linejoin:round;stroke-dashoffset:5.21575"
             d="m 126.84766,51.992188 c -0.924,0.06938 -1.00814,1.065198 -0.97703,1.910156 0.006,0.567953 -0.005,0.688396 0.0302,1.223503 0.52288,-3.49e-4 1.62686,-0.03339 2.14844,0.0076 -0.0556,-0.857921 0.21865,-2.431347 -0.59421,-3.010415 -0.18451,-0.100423 -0.39801,-0.1465 -0.60742,-0.130859 z"
             sodipodi:nodetypes="cccccc" /><path
             id="path35307"
             style="opacity:1;fill:#000000;fill-opacity:1;stroke-width:0.499999;stroke-linecap:round;stroke-linejoin:round;stroke-dashoffset:5.21575"
             d="m 130.30104,51.195675 h 0.0156 c 1.01248,0 1.79806,0.81553 1.82758,1.827575 l 0.0556,1.906574 c 0.0295,1.012046 -0.87072,0.548378 -1.8832,0.548378 h -0.0156 c -1.01247,0 -1.78358,0.297118 -1.79976,-0.71523 l -0.0278,-1.739722 c -0.0162,-1.012347 0.8151,-1.827575 1.82757,-1.827575 z"
             sodipodi:nodetypes="sssssssss" /><path
             id="path35309"
             style="opacity:1;fill:#9c5239;fill-opacity:1;stroke-width:0.499999;stroke-linecap:round;stroke-linejoin:round;stroke-dashoffset:5.21575"
             d="m 130.21015,51.992188 c -0.924,0.06938 -1.00814,1.065198 -0.97703,1.910156 0.006,0.567953 -0.005,0.688396 0.0302,1.223503 0.52288,-3.49e-4 1.62686,-0.03339 2.14844,0.0076 -0.0556,-0.857921 0.21865,-2.431347 -0.59421,-3.010415 -0.18451,-0.100423 -0.39801,-0.1465 -0.60742,-0.130859 z"
             sodipodi:nodetypes="cccccc" /><path
             id="path35311"
             style="opacity:1;fill:#000000;fill-opacity:1;stroke-width:0.499999;stroke-linecap:round;stroke-linejoin:round;stroke-dashoffset:5.21575"
             d="m 133.56521,51.215339 h 0.0156 c 1.01248,0 1.79806,0.81553 1.82758,1.827575 l 0.0556,1.906574 c 0.0295,1.012046 -0.87072,0.548378 -1.8832,0.548378 h -0.0156 c -1.01247,0 -1.78358,0.297118 -1.79976,-0.71523 l -0.0278,-1.739722 c -0.0162,-1.012347 0.8151,-1.827575 1.82757,-1.827575 z"
             sodipodi:nodetypes="sssssssss" /><path
             id="path35313"
             style="opacity:1;fill:#9c5239;fill-opacity:1;stroke-width:0.499999;stroke-linecap:round;stroke-linejoin:round;stroke-dashoffset:5.21575"
             d="m 133.47432,52.011852 c -0.924,0.06938 -1.00814,1.065198 -0.97703,1.910156 0.006,0.567953 -0.005,0.688396 0.0302,1.223503 0.52288,-3.49e-4 1.62686,-0.03339 2.14844,0.0076 -0.0556,-0.857921 0.21865,-2.431347 -0.59421,-3.010415 -0.18451,-0.100423 -0.39801,-0.1465 -0.60742,-0.130859 z"
             sodipodi:nodetypes="cccccc" /><path
             id="path35315"
             style="opacity:1;fill:#000000;fill-opacity:1;stroke-width:0.499999;stroke-linecap:round;stroke-linejoin:round;stroke-dashoffset:5.21575"
             d="m 136.88837,51.156348 h 0.0156 c 1.01248,0 1.79806,0.81553 1.82758,1.827575 l 0.0556,1.906574 c 0.0295,1.012046 -0.87072,0.548378 -1.8832,0.548378 h -0.0156 c -1.01247,0 -1.78358,0.297118 -1.79976,-0.71523 l -0.0278,-1.739722 c -0.0162,-1.012347 0.8151,-1.827575 1.82757,-1.827575 z"
             sodipodi:nodetypes="sssssssss" /><path
             id="path35317"
             style="opacity:1;fill:#9c5239;fill-opacity:1;stroke-width:0.499999;stroke-linecap:round;stroke-linejoin:round;stroke-dashoffset:5.21575"
             d="m 136.79748,51.952861 c -0.924,0.06938 -1.00814,1.065198 -0.97703,1.910156 0.006,0.567953 -0.005,0.688396 0.0302,1.223503 0.52288,-3.49e-4 1.62686,-0.03339 2.14844,0.0076 -0.0556,-0.857921 0.21865,-2.431347 -0.59421,-3.010415 -0.18451,-0.100423 -0.39801,-0.1465 -0.60742,-0.130859 z"
             sodipodi:nodetypes="cccccc" /></g></g><g
         id="g18253"><path
           style="opacity:1;fill:#000000;fill-opacity:1;stroke:none;stroke-width:0.499999;stroke-linecap:round;stroke-linejoin:round;stroke-dashoffset:5.21575"
           d="m 86.15111,43.965432 c 4.282527,-1.223579 6.340366,-1.835369 8.175735,-1.890987 1.83537,-0.05562 23.108965,-0.139044 23.108965,-0.139044 l -0.16685,12.263602 c 0,0 -13.04333,0.08577 -14.59953,0.02781 -2.754241,-0.102572 -10.31842,-0.56927 -13.514989,1.80756 -0.916262,-3.351747 -2.558393,-8.286968 -3.003331,-12.068941 z"
           id="path4418"
           sodipodi:nodetypes="csccscc" /><path
           id="path5593"
           style="opacity:1;fill:#5a6888;fill-opacity:1;stroke:none;stroke-width:0.499999;stroke-linecap:round;stroke-linejoin:round;stroke-dashoffset:5.21575"
           d="m 106.57617,42.775391 c -4.48344,0.08617 -8.990512,-0.208166 -13.454231,0.228331 -2.085422,0.203929 -4.064591,0.9838 -6.080923,1.533387 0.552334,3.510751 1.625978,6.894139 2.603515,10.298829 3.439923,-1.650766 7.368542,-1.48895 11.087939,-1.45515 5.25186,0.133673 10.50515,0.0435 15.75776,0.03327 0.0475,-3.560546 -0.12737,-7.121093 -0.0799,-10.68164 -3.35221,0.01432 -6.48195,0.02865 -9.83417,0.04297 z"
           sodipodi:nodetypes="sscccccss" /><path
           id="path50039"
           style="display:inline;opacity:0.203354;fill:#000000;fill-opacity:1;stroke:none;stroke-width:0.499999;stroke-linecap:round;stroke-linejoin:round;stroke-dashoffset:5.21575"
           d="m 100.77473,51.641292 c -0.804676,-0.0023 -1.689697,0.0051 -2.928506,0.03462 -3.303492,0.07865 -5.269567,0.314892 -7.471895,0.944128 -0.430511,0.123003 -0.845188,0.288382 -1.235067,0.47439 0.169307,0.580373 0.338618,1.16062 0.505395,1.741495 3.43992,-1.650764 7.368302,-1.489008 11.087693,-1.455208 5.25186,0.133673 10.50509,0.04382 15.7577,0.03359 0.008,-0.569598 0.008,-1.139343 0.006,-1.70894 -0.87916,-0.01561 -1.92904,-0.02945 -3.15485,-0.02945 h -7.94422 c -2.163,0 -3.28133,-0.03078 -4.62245,-0.03462 z" /><path
           id="path50121"
           style="display:inline;opacity:0.203354;fill:#ffffff;fill-opacity:1;stroke:none;stroke-width:0.499999;stroke-linecap:round;stroke-linejoin:round;stroke-dashoffset:5.21575"
           d="m 116.41047,42.732275 c -3.35221,0.01432 -6.48233,0.02857 -9.83455,0.04289 -4.48343,0.08617 -8.990241,-0.208087 -13.453955,0.22841 -2.08542,0.203928 -4.064436,0.98417 -6.080766,1.533756 0.116974,0.743516 0.258122,1.480832 0.415995,2.214335 0.953928,-0.313253 1.883836,-0.620999 2.445329,-0.817521 1.573091,-0.550584 3.224412,-1.258107 5.662703,-1.415417 2.438292,-0.157308 2.123795,-0.07897 4.876704,-0.157613 2.75291,-0.07866 8.25884,0.157613 10.61847,0.157613 2.35964,0 2.67449,-1.02e-4 4.79816,0.07855 0.17046,0.0063 0.35356,-0.02762 0.54622,-0.09405 -0.002,-0.590267 -0.002,-1.180685 0.006,-1.770952 z" /><g
           id="g14099"><ellipse
             style="opacity:1;fill:#000000;fill-opacity:1;stroke:none;stroke-width:0.499999;stroke-linecap:round;stroke-linejoin:round;stroke-dashoffset:5.21575"
             id="path12572"
             cx="91.087135"
             cy="51.265198"
             rx="1.7380389"
             ry="1.654613" /><path
             id="ellipse12574"
             style="opacity:1;fill:#c6cad8;fill-opacity:1;stroke:none;stroke-width:0.499999;stroke-linecap:round;stroke-linejoin:round;stroke-dashoffset:5.21575"
             d="m 90.824219,50.427734 c -0.332361,0.06069 -0.572334,0.370144 -0.621891,0.693527 -0.04926,0.31312 0.06027,0.658845 0.316426,0.855483 0.189631,0.150362 0.449288,0.183661 0.682323,0.144541 0.335594,-0.05967 0.628674,-0.301821 0.753761,-0.618518 0.108268,-0.256711 0.0833,-0.590111 -0.13005,-0.786485 -0.257564,-0.257465 -0.647519,-0.350353 -1.000569,-0.288548 z" /></g><g
           id="g14105"
           transform="translate(15.266934,-0.05561724)"><ellipse
             style="fill:#000000;fill-opacity:1;stroke:none;stroke-width:0.499999;stroke-linecap:round;stroke-linejoin:round;stroke-dashoffset:5.21575"
             id="ellipse14101"
             cx="91.087135"
             cy="51.265198"
             rx="1.7380389"
             ry="1.654613" /><path
             id="path14103"
             style="fill:#c6cad8;fill-opacity:1;stroke:none;stroke-width:0.499999;stroke-linecap:round;stroke-linejoin:round;stroke-dashoffset:5.21575"
             d="m 90.824219,50.427734 c -0.332361,0.06069 -0.572334,0.370144 -0.621891,0.693527 -0.04926,0.31312 0.06027,0.658845 0.316426,0.855483 0.189631,0.150362 0.449288,0.183661 0.682323,0.144541 0.335594,-0.05967 0.628674,-0.301821 0.753761,-0.618518 0.108268,-0.256711 0.0833,-0.590111 -0.13005,-0.786485 -0.257564,-0.257465 -0.647519,-0.350353 -1.000569,-0.288548 z" /></g><g
           id="g18221"><rect
             style="opacity:1;fill:#000000;fill-opacity:1;stroke:none;stroke-width:0.499999;stroke-linecap:round;stroke-linejoin:round;stroke-dashoffset:5.21575"
             id="rect14185"
             width="13.542799"
             height="5.3114462"
             x="100.75063"
             y="43.437069"
             ry="1.8770821" /><path
             id="rect14239"
             style="opacity:1;fill:#363639;fill-opacity:1;stroke:none;stroke-width:0.499999;stroke-linecap:round;stroke-linejoin:round;stroke-dashoffset:5.21575"
             d="m 110.98633,44.244436 c -2.91105,0.01194 -5.83568,-0.08488 -8.73828,0.05172 -0.93328,0.417871 -0.71471,1.668049 -0.72657,2.532232 -0.0112,0.718468 0.48295,1.427576 1.21283,1.327987 2.4199,0.04611 4.84366,0.0019 7.26568,0.02605 0.99424,-0.05871 2.04573,0.100638 3.00196,-0.176878 0.73409,-0.625285 0.50481,-1.775304 0.49406,-2.646443 -0.0247,-0.791197 -0.72898,-1.22629 -1.41631,-1.145268 -0.3648,-0.01598 -0.72888,0.01994 -1.09337,0.0306 z" /><path
             id="path14970"
             style="opacity:1;fill:#000000;fill-opacity:1;stroke:none;stroke-width:0.5;stroke-linecap:round;stroke-linejoin:round;stroke-dashoffset:5.21575"
             d="m 103.09218,45.167391 c -1.6043,0.200552 -2.36292,2.565406 -0.60137,2.994261 2.54296,0.03677 5.08997,0.0014 7.63515,0.02077 1.0448,-0.04681 2.14976,0.08023 3.15462,-0.141022 1.52945,-1.618414 0.15803,-2.821811 -1.80341,-2.911832 -3.81551,0.0044 -4.88486,-0.08129 -8.38499,0.03782 z"
             sodipodi:nodetypes="ccccccc" /><path
             id="path14972"
             style="opacity:1;fill:#8f99b7;fill-opacity:1;stroke:none;stroke-width:0.5;stroke-linecap:round;stroke-linejoin:round;stroke-dashoffset:5.21575"
             d="m 103.70698,45.949406 c -2.09367,0.05879 -2.31106,2.099225 -0.70167,2.218055 2.16229,0.159655 8.19555,0.139884 9.70179,-0.08662 1.47382,-0.221629 0.77117,-2.130642 -1.12998,-2.097481 -1.97342,0.03442 -6.25033,-0.07943 -7.87014,-0.03395 z"
             sodipodi:nodetypes="ssssss" /></g></g><g
         id="g42845"><rect
           style="display:inline;opacity:1;fill:#000000;fill-opacity:1;stroke:none;stroke-width:0.499999;stroke-linecap:round;stroke-linejoin:round;stroke-dashoffset:5.21575"
           id="rect40256"
           width="16.240234"
           height="10.456041"
           x="160.12204"
           y="41.045525"
           ry="0" /><path
           id="rect40258"
           style="display:inline;opacity:0.398323;fill:#d1805d;fill-opacity:1;stroke:none;stroke-width:0.499999;stroke-linecap:round;stroke-linejoin:round;stroke-dashoffset:5.21575"
           d="m 161.17578,50.558499 c 4.71029,0 9.42057,0 14.13086,0 0,-2.81963 0,-5.639261 0,-8.458891 -4.71029,0 -9.42057,0 -14.13086,0 0,2.81963 0,5.639261 0,8.458891 z" /><path
           id="path40329"
           style="display:inline;opacity:1;fill:#3d4364;fill-opacity:1;stroke:none;stroke-width:0.499999;stroke-linecap:round;stroke-linejoin:round;stroke-dashoffset:5.21575"
           d="m 161.17569,42.099756 v 8.458915 h 2.95073 v -8.458915 z" /><path
           id="rect40332"
           style="opacity:1;fill:#606988;fill-opacity:1;stroke:none;stroke-width:0.499999;stroke-linecap:round;stroke-linejoin:round;stroke-dashoffset:5.21575"
           d="m 164.79408,42.099756 v 8.458915 h 10.51253 v -8.458915 z" /><path
           id="rect40341"
           style="opacity:1;fill:#000000;fill-opacity:1;stroke:none;stroke-width:0.499999;stroke-linecap:round;stroke-linejoin:round;stroke-dashoffset:5.21575"
           d="m 164.09851,42.099756 v 8.458915 h 0.83458 v -8.458915 z" /><ellipse
           style="opacity:1;fill:#000000;fill-opacity:1;stroke:none;stroke-width:0.499999;stroke-linecap:round;stroke-linejoin:round;stroke-dashoffset:5.21575"
           id="path40398"
           cx="166.94907"
           cy="48.498238"
           rx="1.5155699"
           ry="1.4738569" /><ellipse
           style="opacity:1;fill:#000000;fill-opacity:1;stroke:none;stroke-width:0.499999;stroke-linecap:round;stroke-linejoin:round;stroke-dashoffset:5.21575"
           id="ellipse40400"
           cx="170.36952"
           cy="46.356976"
           rx="1.5155699"
           ry="1.4738569" /><ellipse
           style="opacity:1;fill:#000000;fill-opacity:1;stroke:none;stroke-width:0.499999;stroke-linecap:round;stroke-linejoin:round;stroke-dashoffset:5.21575"
           id="ellipse40402"
           cx="167.00468"
           cy="44.243519"
           rx="1.5155699"
           ry="1.4738569" /><path
           id="ellipse40404"
           style="opacity:1;fill:#000000;fill-opacity:1;stroke:none;stroke-width:0.499999;stroke-linecap:round;stroke-linejoin:round;stroke-dashoffset:5.21575"
           d="m 168.7189,42.099756 a 1.5155699,1.4738569 0 0 0 1.51154,1.365291 1.5155699,1.4738569 0 0 0 1.51153,-1.365291 z" /><ellipse
           style="opacity:1;fill:#000000;fill-opacity:1;stroke:none;stroke-width:0.499999;stroke-linecap:round;stroke-linejoin:round;stroke-dashoffset:5.21575"
           id="ellipse40409"
           cx="173.56752"
           cy="44.354755"
           rx="1.5155699"
           ry="1.4738569" /><ellipse
           style="opacity:1;fill:#000000;fill-opacity:1;stroke:none;stroke-width:0.499999;stroke-linecap:round;stroke-linejoin:round;stroke-dashoffset:5.21575"
           id="ellipse40411"
           cx="173.62314"
           cy="48.526051"
           rx="1.5155699"
           ry="1.4738569" /><path
           id="ellipse40413"
           style="opacity:1;fill:#000000;fill-opacity:1;stroke:none;stroke-width:0.499999;stroke-linecap:round;stroke-linejoin:round;stroke-dashoffset:5.21575"
           d="m 170.36945,49.165474 a 1.5155699,1.4738569 0 0 0 -1.51206,1.393197 h 3.02514 a 1.5155699,1.4738569 0 0 0 -1.51308,-1.393197 z" /></g></g></g></svg>
