<?xml version="1.0" encoding="UTF-8" standalone="no"?>
<!-- Created with Inkscape (http://www.inkscape.org/) -->

<svg
   width="210mm"
   height="297mm"
   viewBox="0 0 210 297"
   version="1.1"
   id="svg1"
   xml:space="preserve"
   inkscape:version="1.3.2 (091e20e, 2023-11-25, custom)"
   sodipodi:docname="skull.svg"
   xmlns:inkscape="http://www.inkscape.org/namespaces/inkscape"
   xmlns:sodipodi="http://sodipodi.sourceforge.net/DTD/sodipodi-0.dtd"
   xmlns="http://www.w3.org/2000/svg"
   xmlns:svg="http://www.w3.org/2000/svg"><sodipodi:namedview
     id="namedview1"
     pagecolor="#ffffff"
     bordercolor="#999999"
     borderopacity="1"
     inkscape:showpageshadow="2"
     inkscape:pageopacity="0"
     inkscape:pagecheckerboard="0"
     inkscape:deskcolor="#d1d1d1"
     inkscape:document-units="mm"
     showguides="true"
     inkscape:zoom="0.70710678"
     inkscape:cx="55.154329"
     inkscape:cy="550.83618"
     inkscape:window-width="1920"
     inkscape:window-height="1017"
     inkscape:window-x="-8"
     inkscape:window-y="-8"
     inkscape:window-maximized="1"
     inkscape:current-layer="layer1" /><defs
     id="defs1"><inkscape:path-effect
       effect="mirror_symmetry"
       start_point="99.90553,144.53268"
       end_point="99.90553,157.42708"
       center_point="99.90553,150.97988"
       id="path-effect75"
       is_visible="true"
       lpeversion="1.2"
       lpesatellites=""
       mode="free"
       discard_orig_path="false"
       fuse_paths="false"
       oposite_fuse="false"
       split_items="false"
       split_open="false"
       link_styles="false" /><inkscape:path-effect
       effect="bend_path"
       id="path-effect73"
       is_visible="true"
       lpeversion="1"
       bendpath="m 79.833327,130.02616 c 0,0 13.76715,0.94918 20.658613,0.94376 6.66246,-0.005 19.97103,-0.94376 19.97103,-0.94376"
       prop_scale="1"
       scale_y_rel="false"
       vertical="false"
       hide_knot="false"
       bendpath-nodetypes="cac" /><inkscape:path-effect
       effect="bend_path"
       id="path-effect72"
       is_visible="true"
       lpeversion="1"
       bendpath="M 79.833327,130.02616 H 120.46297"
       prop_scale="1.115"
       scale_y_rel="false"
       vertical="false"
       hide_knot="false" /><inkscape:path-effect
       effect="copy_rotate"
       starting_point="102.35711,55.139763"
       origin="99.744354,55.139763"
       id="path-effect25"
       is_visible="true"
       lpeversion="1.2"
       lpesatellites=""
       method="normal"
       num_copies="12"
       starting_angle="0"
       rotation_angle="60"
       gap="-0.01"
       copies_to_360="true"
       mirror_copies="false"
       split_items="false"
       link_styles="false" /><inkscape:path-effect
       effect="mirror_symmetry"
       start_point="99.615624,49.418941"
       end_point="99.615624,153.59062"
       center_point="99.615624,101.50478"
       id="path-effect15"
       is_visible="true"
       lpeversion="1.2"
       lpesatellites=""
       mode="free"
       discard_orig_path="false"
       fuse_paths="false"
       oposite_fuse="false"
       split_items="false"
       split_open="false"
       link_styles="false" /></defs><g
     inkscape:label="Layer 1"
     inkscape:groupmode="layer"
     id="layer1"
     style="display:inline"><rect
       style="opacity:1;fill:#a70f75;fill-opacity:1;stroke:none;stroke-width:0.753999;stroke-linecap:round;stroke-linejoin:round;stroke-dasharray:none;stroke-opacity:1"
       id="rect82"
       width="138.07143"
       height="147.80005"
       x="3.3675961"
       y="2.9934187" /><g
       id="g82"
       inkscape:label="Skull"
       transform="translate(-27.314945,-22.076463)"><path
         style="opacity:1;fill:#fff3b8;fill-opacity:1;stroke-width:0.854001;stroke-linecap:round;stroke-linejoin:round"
         d="m 127.26458,144.06562 c 3.43959,-3.57187 2.24896,-7.27604 1.32292,-12.30312 -0.92604,-5.02708 -3.30729,-11.37708 -2.77813,-11.37708 0.52917,0 11.74115,-5.67737 15.21354,-10.84792 4.39493,-6.54424 6.34601,-15.189811 5.42396,-23.018751 C 145.41348,77.744418 141.46793,62.216082 134.9148,56.290438 125.66953,47.930429 112.45435,42.92898 99.989801,42.92898 c -12.464546,-1e-6 -26.021394,4.638459 -34.925,13.361458 -7.768787,7.611199 -11.441228,19.384873 -12.280427,30.228311 -0.608268,7.859547 1.029034,16.474511 5.423959,23.018751 3.472394,5.17055 14.684374,10.84792 15.213541,10.84792 0.529167,0 -1.852083,6.35 -2.778125,11.37708 -0.926042,5.02708 -2.116667,8.73125 1.322917,12.30312 5.646251,5.86342 17.901078,9.525 27.648958,9.525 9.747876,0 22.002706,-3.66158 27.648956,-9.525 z"
         id="path15"
         sodipodi:nodetypes="ssssssaaaasssas" /><path
         id="path13"
         style="fill:#000000;fill-opacity:1;stroke-width:1.16129;stroke-linecap:round;stroke-linejoin:round"
         d="m 93.011162,107.24035 c -2.507357,1.94721 -3.749688,6.07928 -0.07519,8.19361 3.6745,2.11433 6.728455,-3.7588 6.728455,-3.7588 h 0.221275 c 0,0 3.053248,5.87313 6.727748,3.7588 3.67445,-2.11433 2.43287,-6.2464 -0.0745,-8.19361 -4.37635,-3.39868 -6.763874,-8.315874 -6.763874,-8.315874 0,0 -2.387556,4.917194 -6.763909,8.315874 z"
         sodipodi:nodetypes="ssccsscs" /><path
         style="fill:#d71e1c;fill-opacity:1;stroke-width:0.854001;stroke-linecap:round;stroke-linejoin:round"
         d="m 95.801863,74.818843 c -0.855861,0.619919 -1.977756,0.854079 -3.265964,-0.208031 -2.285504,-1.884368 -4.406324,-4.41138 -9.960281,-4.219138 -9.493103,0.328591 -15.398043,2.199219 -22.224903,11.156978 -0.792062,1.300042 -2.639067,0.262602 -1.568885,-1.018249 3.625496,-5.208552 6.606049,-8.496598 10.314855,-10.715149 6.283457,-3.758669 12.198255,-4.31506 15.715727,-3.930233 4.288462,0.469176 9.320742,1.256575 11.422387,4.813924 0.702379,1.188882 0.174558,3.679876 -0.432936,4.119898 z"
         id="path14"
         sodipodi:nodetypes="sssccssas" /><path
         style="fill:#d71e1c;fill-opacity:1;stroke-width:0.854001;stroke-linecap:round;stroke-linejoin:round"
         d="m 103.14541,74.818843 c 0.85586,0.619919 1.97776,0.854079 3.26596,-0.208031 2.28551,-1.884368 4.40633,-4.41138 9.96028,-4.219138 9.49311,0.328591 15.39805,2.199219 22.22491,11.156978 0.79206,1.300042 2.63906,0.262602 1.56888,-1.018249 -3.6255,-5.208552 -6.60605,-8.496598 -10.31485,-10.715149 -6.28346,-3.758669 -12.19826,-4.31506 -15.71573,-3.930233 -4.28846,0.469176 -9.32074,1.256575 -11.42239,4.813924 -0.70238,1.188882 -0.17455,3.679876 0.43294,4.119898 z"
         id="path16"
         sodipodi:nodetypes="sssccssas" /><g
         id="g16"
         transform="translate(-0.13229167)"
         style="display:inline"><path
           id="path2"
           style="fill:#f6931e;fill-opacity:1;stroke-width:0.975897;stroke-linecap:round;stroke-linejoin:round"
           d="m 79.224105,71.988888 a 5.154994,5.4263091 0 0 0 -4.801258,3.489192 4.6575823,4.4767051 0 0 0 -3.202388,-1.227832 4.6575823,4.4767051 0 0 0 -4.657597,4.476213 4.6575823,4.4767051 0 0 0 0.04341,0.588078 4.8384595,4.4767051 0 0 0 -4.836914,4.476729 4.8384595,4.4767051 0 0 0 0.86248,2.536796 5.5619674,5.9689398 0 0 0 -2.852022,5.195548 5.5619674,5.9689398 0 0 0 3.715018,5.615162 5.5619674,5.3810897 0 0 0 -0.640271,2.479435 5.5619674,5.3810897 0 0 0 5.561935,5.381071 5.5619674,5.3810897 0 0 0 2.042769,-0.38964 5.5619674,4.9741163 0 0 0 5.463749,4.09742 5.5619674,4.9741163 0 0 0 5.083928,-2.96674 4.4767056,3.9340739 0 0 0 3.59823,1.61023 4.4767056,3.9340739 0 0 0 4.476729,-3.93412 4.4767056,3.9340739 0 0 0 -0.16123,-1.0418 5.0193367,4.3862667 0 0 0 0.02584,0.002 5.0193367,4.3862667 0 0 0 5.019332,-4.386296 5.0193367,4.3862667 0 0 0 -0.507463,-1.919262 4.8384595,4.2506089 0 0 0 4.034379,-4.185275 4.8384595,4.2506089 0 0 0 -2.274796,-3.603397 4.8384595,4.4767051 0 0 0 2.093929,-3.676778 4.8384595,4.4767051 0 0 0 -4.838465,-4.47673 4.8384595,4.4767051 0 0 0 -0.121956,0.0083 4.8384595,4.4767051 0 0 0 0.166915,-1.138432 4.8384595,4.4767051 0 0 0 -4.838465,-4.47673 4.8384595,4.4767051 0 0 0 -3.501078,1.400949 5.154994,5.4263091 0 0 0 -4.954736,-3.93361 z" /><path
           style="fill:#000000;fill-opacity:1;stroke-width:0.854001;stroke-linecap:round;stroke-linejoin:round"
           d="m 66.507819,82.907413 c -4.927377,6.817807 -2.06647,13.650935 2.636555,17.821527 4.703026,4.17059 14.693899,5.32201 21.398497,-3.118531 2.110708,-2.824003 3.104241,-5.553493 3.439644,-9.82851 0.335403,-4.275017 -2.408254,-8.563336 -7.133615,-9.891607 -4.725361,-1.328271 -15.413704,-1.800686 -20.341081,5.017121 z"
           id="path1"
           sodipodi:nodetypes="zzczzz" /><ellipse
           style="fill:#ffffff;fill-opacity:1;stroke-width:1.15224;stroke-linecap:round;stroke-linejoin:round"
           id="path12"
           cx="78.907578"
           cy="90.93589"
           rx="12.163977"
           ry="11.440468" /><ellipse
           style="fill:#000704;fill-opacity:1;stroke-width:0.640434;stroke-linecap:round;stroke-linejoin:round"
           id="ellipse12"
           cx="78.998024"
           cy="91.930717"
           rx="6.5567904"
           ry="6.5567894" /></g><g
         id="g19"
         transform="matrix(-1,0,0,1,199.34132,0)"><path
           id="path17"
           style="fill:#f6931e;fill-opacity:1;stroke-width:0.975897;stroke-linecap:round;stroke-linejoin:round"
           d="m 79.224105,71.988888 a 5.154994,5.4263091 0 0 0 -4.801258,3.489192 4.6575823,4.4767051 0 0 0 -3.202388,-1.227832 4.6575823,4.4767051 0 0 0 -4.657597,4.476213 4.6575823,4.4767051 0 0 0 0.04341,0.588078 4.8384595,4.4767051 0 0 0 -4.836914,4.476729 4.8384595,4.4767051 0 0 0 0.86248,2.536796 5.5619674,5.9689398 0 0 0 -2.852022,5.195548 5.5619674,5.9689398 0 0 0 3.715018,5.615162 5.5619674,5.3810897 0 0 0 -0.640271,2.479435 5.5619674,5.3810897 0 0 0 5.561935,5.381071 5.5619674,5.3810897 0 0 0 2.042769,-0.38964 5.5619674,4.9741163 0 0 0 5.463749,4.09742 5.5619674,4.9741163 0 0 0 5.083928,-2.96674 4.4767056,3.9340739 0 0 0 3.59823,1.61023 4.4767056,3.9340739 0 0 0 4.476729,-3.93412 4.4767056,3.9340739 0 0 0 -0.16123,-1.0418 5.0193367,4.3862667 0 0 0 0.02584,0.002 5.0193367,4.3862667 0 0 0 5.019332,-4.386296 5.0193367,4.3862667 0 0 0 -0.507463,-1.919262 4.8384595,4.2506089 0 0 0 4.034379,-4.185275 4.8384595,4.2506089 0 0 0 -2.274796,-3.603397 4.8384595,4.4767051 0 0 0 2.093929,-3.676778 4.8384595,4.4767051 0 0 0 -4.838465,-4.47673 4.8384595,4.4767051 0 0 0 -0.121956,0.0083 4.8384595,4.4767051 0 0 0 0.166915,-1.138432 4.8384595,4.4767051 0 0 0 -4.838465,-4.47673 4.8384595,4.4767051 0 0 0 -3.501078,1.400949 5.154994,5.4263091 0 0 0 -4.954736,-3.93361 z" /><path
           style="fill:#000000;fill-opacity:1;stroke-width:0.854001;stroke-linecap:round;stroke-linejoin:round"
           d="m 66.507819,82.907413 c -4.927377,6.817807 -2.06647,13.650935 2.636555,17.821527 4.703026,4.17059 14.693899,5.32201 21.398497,-3.118531 2.110708,-2.824003 3.104241,-5.553493 3.439644,-9.82851 0.335403,-4.275017 -2.408254,-8.563336 -7.133615,-9.891607 -4.725361,-1.328271 -15.413704,-1.800686 -20.341081,5.017121 z"
           id="path18"
           sodipodi:nodetypes="zzczzz" /><ellipse
           style="fill:#ffffff;fill-opacity:1;stroke-width:1.15224;stroke-linecap:round;stroke-linejoin:round"
           id="ellipse18"
           cx="78.907578"
           cy="90.93589"
           rx="12.163977"
           ry="11.440468" /><ellipse
           style="fill:#000704;fill-opacity:1;stroke-width:0.640434;stroke-linecap:round;stroke-linejoin:round"
           id="ellipse19"
           cx="78.998024"
           cy="91.930717"
           rx="6.5567904"
           ry="6.5567894" /></g><g
         id="g44"><ellipse
           style="fill:#00a23f;fill-opacity:1;stroke-width:0.913985;stroke-linecap:round;stroke-linejoin:round"
           id="path19"
           cx="57.667248"
           cy="98.968269"
           rx="2.8295982"
           ry="2.7894738" /><ellipse
           style="fill:#00a23f;fill-opacity:1;stroke-width:1.18287;stroke-linecap:round;stroke-linejoin:round"
           id="ellipse20"
           cx="66.905434"
           cy="110.41943"
           rx="3.6894941"
           ry="3.5832238" /><ellipse
           style="fill:#00a23f;fill-opacity:1;stroke-width:1.40248;stroke-linecap:round;stroke-linejoin:round"
           id="ellipse21"
           cx="82.942223"
           cy="115.05612"
           rx="4.4832444"
           ry="4.1454635" /><ellipse
           style="fill:#00a23f;fill-opacity:1;stroke-width:0.448346;stroke-linecap:round;stroke-linejoin:round"
           id="ellipse22"
           cx="60.482979"
           cy="105.36803"
           rx="1.4264332"
           ry="1.3315117" /><ellipse
           style="fill:#00a23f;fill-opacity:1;stroke-width:0.534652;stroke-linecap:round;stroke-linejoin:round"
           id="ellipse23"
           cx="74.10836"
           cy="114.06489"
           rx="1.6248707"
           ry="1.6622409" /><ellipse
           style="fill:#00a23f;fill-opacity:1;stroke-width:0.45388;stroke-linecap:round;stroke-linejoin:round"
           id="ellipse24"
           cx="56.346279"
           cy="91.034012"
           rx="1.4264332"
           ry="1.3645847" /><ellipse
           style="fill:#00a23f;fill-opacity:1;stroke-width:0.27603;stroke-linecap:round;stroke-linejoin:round"
           id="ellipse25"
           cx="57.235516"
           cy="85.41729"
           rx="0.89726657"
           ry="0.8023451" /></g><g
         id="g29"
         transform="translate(-0.59531201,0.9260416)"><path
           style="fill:#0cc42f;fill-opacity:1;stroke:none;stroke-width:0.854001;stroke-linecap:round;stroke-linejoin:round;stroke-opacity:1"
           d="m 79.427399,48.820741 c 4.695802,-1.983331 6.165956,-0.05692 6.829302,2.2458 0.637824,2.214125 -1.511115,5.866483 -4.411429,5.321823 -2.337231,-0.438917 -5.167207,0.249552 -6.987572,1.381866 -1.820365,1.132314 -4.890028,3.587233 -4.890028,3.587233 2.124673,-3.718739 4.925543,-10.621652 9.459727,-12.536722 z"
           id="path26"
           sodipodi:nodetypes="saszcs" /><path
           style="fill:#004b0f;fill-opacity:1;stroke:none;stroke-width:0.854001;stroke-linecap:round;stroke-linejoin:round;stroke-opacity:1"
           d="m 71.569791,59.398958 c 0.315018,-0.887647 1.037063,-1.541454 1.632375,-2.243239 1.439115,-1.53579 2.62764,-3.049991 4.483386,-4.447084 1.387837,-1.238643 5.030931,-2.489235 5.779028,-2.641231 0.528797,-0.03856 1.460799,0.161944 1.721325,0.182464 -0.873182,-0.191467 -1.612842,0.443934 -2.394921,0.711529 -1.388899,0.574583 -2.82871,1.081019 -4.056034,1.97215 -1.144958,0.715897 -2.25857,1.501419 -3.174098,2.502702 -1.337628,1.313556 -2.664158,2.638341 -3.991061,3.962709 z"
           id="path27"
           sodipodi:nodetypes="ccccccccc" /><path
           style="fill:#004b0f;fill-opacity:1;stroke:none;stroke-width:0.854001;stroke-linecap:round;stroke-linejoin:round;stroke-opacity:1"
           d="m 82.880278,50.607485 c 0,0 -2.712783,2.525697 -3.367595,3.648229 -0.654809,1.122532 -0.748353,1.777341 -0.748353,1.777341 0,0 0.332011,-0.857834 1.449935,-2.104747 1.216077,-1.356391 3.133737,-2.61924 4.349814,-3.741772 l -1.169305,0.04677 z"
           id="path28"
           sodipodi:nodetypes="cscsccc" /><path
           style="fill:#004b0f;fill-opacity:1;stroke:none;stroke-width:0.854001;stroke-linecap:round;stroke-linejoin:round;stroke-opacity:1"
           d="m 81.102937,50.981662 c -0.420949,0 -0.849949,-0.537813 -1.964431,-0.233862 -1.543483,0.420952 -3.928861,2.15152 -4.069177,2.572469 0.212745,-0.193983 1.998966,-1.4457 3.507912,-1.96443 0.938293,-0.322557 2.19829,-0.04677 2.19829,-0.04677 z"
           id="path29"
           sodipodi:nodetypes="cssscc" /></g><g
         id="g30"><path
           id="rect25"
           style="fill:#ff9137;fill-opacity:1;stroke-width:0.915077;stroke-linecap:round;stroke-linejoin:round"
           d="m 99.810445,44.946094 c -0.419622,2.098111 -1.118081,3.125307 -1.718758,4.370276 -1.112358,-0.753402 -1.874194,-0.718389 -3.295406,-2.391069 0.685649,2.026828 0.502846,2.619176 0.605131,3.997689 -1.340058,-0.09627 -3.821829,-1.01848 -5.889046,-1.756482 1.607377,1.412608 3.585195,3.349992 4.363041,4.492749 -1.208719,0.586756 -5.051998,1.344908 -7.211546,1.739439 2.09811,0.419622 6.012052,0.793027 7.257021,1.393703 -0.753401,1.112358 -2.801982,3.130965 -4.474662,4.552177 2.027092,-0.685739 4.703204,-1.759651 6.081799,-1.861902 -0.09627,1.340058 0.204702,1.969745 -0.533301,4.036963 1.412609,-1.607378 2.126294,-1.733112 3.269052,-2.510958 0.586756,1.208719 1.185217,2.231398 1.579748,4.390946 0.419672,-2.098355 0.952652,-3.19192 1.553392,-4.436938 1.11252,0.753404 1.84087,0.652455 3.26234,2.32544 -0.68566,-2.026828 -0.46978,-2.55303 -0.57206,-3.931543 1.34005,0.09627 3.95412,1.084624 6.02134,1.822627 -1.60738,-1.412609 -3.71749,-3.416137 -4.49534,-4.558894 1.20872,-0.586757 4.83419,-0.906935 6.99374,-1.301466 -2.09811,-0.419622 -5.79425,-1.231 -7.03921,-1.831677 0.7534,-1.112358 3.03349,-2.701016 4.70617,-4.122228 -2.02683,0.685655 -4.93428,1.329671 -6.31279,1.431953 0.0963,-1.340057 -0.0399,-1.870526 0.69815,-3.937744 -1.41261,1.607377 -2.29166,1.633893 -3.43442,2.411739 -0.58676,-1.208719 -1.01985,-2.165251 -1.414385,-4.3248 z m -1.131714,6.053377 c 0.760393,-0.0078 1.529139,0.0049 2.212789,0.0217 0.66223,0.373362 1.32173,0.768659 1.90531,1.124996 0.387,0.65474 0.76045,1.327441 1.08779,1.928048 0.008,0.760393 -0.005,1.529141 -0.0217,2.212785 -0.37336,0.66223 -0.76866,1.321735 -1.12499,1.90531 -0.65475,0.387007 -1.32745,0.760449 -1.92805,1.087789 -0.7604,0.0078 -1.529145,-0.0049 -2.212787,-0.0217 -0.662422,-0.373468 -1.32216,-0.769114 -1.905827,-1.125512 -0.386902,-0.654588 -0.760033,-1.327106 -1.087272,-1.927531 -0.0078,-0.760393 0.0049,-1.529142 0.0217,-2.212785 0.373468,-0.662421 0.769114,-1.32216 1.125512,-1.905827 0.654589,-0.386902 1.327106,-0.760032 1.927531,-1.087272 z"
           sodipodi:nodetypes="ccccccccccccccccccccccccccccccccccccccc" /><circle
           style="fill:#a22200;fill-opacity:1;stroke-width:0.709286;stroke-linecap:round;stroke-linejoin:round"
           id="path25"
           cx="99.744354"
           cy="55.139763"
           r="4.2723956" /></g><g
         id="g33"
         transform="matrix(-1,0,0,1,200.72098,0.9260416)"><path
           style="fill:#0cc42f;fill-opacity:1;stroke:none;stroke-width:0.854001;stroke-linecap:round;stroke-linejoin:round;stroke-opacity:1"
           d="m 79.427399,48.820741 c 4.695802,-1.983331 6.165956,-0.05692 6.829302,2.2458 0.637824,2.214125 -1.511115,5.866483 -4.411429,5.321823 -2.337231,-0.438917 -5.167207,0.249552 -6.987572,1.381866 -1.820365,1.132314 -4.890028,3.587233 -4.890028,3.587233 2.124673,-3.718739 4.925543,-10.621652 9.459727,-12.536722 z"
           id="path30"
           sodipodi:nodetypes="saszcs" /><path
           style="fill:#004b0f;fill-opacity:1;stroke:none;stroke-width:0.854001;stroke-linecap:round;stroke-linejoin:round;stroke-opacity:1"
           d="m 71.569791,59.398958 c 0.315018,-0.887647 1.037063,-1.541454 1.632375,-2.243239 1.439115,-1.53579 2.62764,-3.049991 4.483386,-4.447084 1.387837,-1.238643 5.030931,-2.489235 5.779028,-2.641231 0.528797,-0.03856 1.460799,0.161944 1.721325,0.182464 -0.873182,-0.191467 -1.612842,0.443934 -2.394921,0.711529 -1.388899,0.574583 -2.82871,1.081019 -4.056034,1.97215 -1.144958,0.715897 -2.25857,1.501419 -3.174098,2.502702 -1.337628,1.313556 -2.664158,2.638341 -3.991061,3.962709 z"
           id="path31"
           sodipodi:nodetypes="ccccccccc" /><path
           style="fill:#004b0f;fill-opacity:1;stroke:none;stroke-width:0.854001;stroke-linecap:round;stroke-linejoin:round;stroke-opacity:1"
           d="m 82.880278,50.607485 c 0,0 -2.712783,2.525697 -3.367595,3.648229 -0.654809,1.122532 -0.748353,1.777341 -0.748353,1.777341 0,0 0.332011,-0.857834 1.449935,-2.104747 1.216077,-1.356391 3.133737,-2.61924 4.349814,-3.741772 l -1.169305,0.04677 z"
           id="path32"
           sodipodi:nodetypes="cscsccc" /><path
           style="fill:#004b0f;fill-opacity:1;stroke:none;stroke-width:0.854001;stroke-linecap:round;stroke-linejoin:round;stroke-opacity:1"
           d="m 81.102937,50.981662 c -0.420949,0 -0.849949,-0.537813 -1.964431,-0.233862 -1.543483,0.420952 -3.928861,2.15152 -4.069177,2.572469 0.212745,-0.193983 1.998966,-1.4457 3.507912,-1.96443 0.938293,-0.322557 2.19829,-0.04677 2.19829,-0.04677 z"
           id="path33"
           sodipodi:nodetypes="cssscc" /></g><g
         id="g38"><path
           style="color:#000000;fill:#004b0f;stroke-linecap:round;stroke-linejoin:round;-inkscape-stroke:none"
           d="m 64.875,60.775391 a 0.42700049,0.42700049 0 0 0 -0.324219,0.03516 c -1.19862,0.658733 -2.66375,2.410302 -3.605469,4.322265 -0.470859,0.955982 -0.799297,1.949265 -0.832031,2.884766 -0.03065,0.87593 0.265615,1.708395 0.935547,2.300781 0.159876,0.307908 0.466448,0.533144 0.785156,0.576172 0.325994,0.04401 0.640176,-0.03838 0.962891,-0.169922 0.645429,-0.263087 1.349489,-0.757456 2.076172,-1.318359 0.726682,-0.560903 1.46653,-1.191408 2.111328,-1.71875 0.644798,-0.527342 1.222967,-0.956042 1.494141,-1.080078 a 0.42704319,0.42704319 0 0 0 0.0098,-0.0039 c 1.41706,-0.692404 2.742661,-1.473657 4.179688,-1.876954 a 0.42704319,0.42704319 0 0 0 0.01563,-0.0059 C 77.040443,63.314195 78.349393,63.175676 82.896484,63 a 0.42700049,0.42700049 0 0 0 0.410157,-0.443359 0.42700049,0.42700049 0 0 0 -0.44336,-0.410157 c -4.552597,0.17589 -6.050774,0.34639 -10.425781,1.757813 -1.577118,0.442612 -2.945838,1.257822 -4.320313,1.929687 -0.0013,6.2e-4 -0.0026,0.0013 -0.0039,0.002 -0.473608,0.218724 -1.018401,0.658567 -1.669922,1.191407 -0.655126,0.535788 -1.388509,1.16028 -2.091797,1.703125 -0.703287,0.542845 -1.385663,1.002867 -1.876953,1.203125 -0.245644,0.100129 -0.437658,0.125389 -0.527343,0.113281 -0.08969,-0.01211 -0.0966,-0.0073 -0.150391,-0.117188 a 0.42704319,0.42704319 0 0 0 -0.123047,-0.15039 c -0.537124,-0.411123 -0.73331,-0.979456 -0.707031,-1.730469 0.02628,-0.751013 0.310406,-1.654489 0.746094,-2.539062 0.871375,-1.769147 2.390551,-3.47884 3.25,-3.951172 A 0.42700049,0.42700049 0 0 0 65.130859,60.978516 0.42700049,0.42700049 0 0 0 64.875,60.775391 Z"
           id="path34" /><ellipse
           style="fill:#574bfb;fill-opacity:1;stroke:none;stroke-width:0.854001;stroke-linecap:round;stroke-linejoin:round;stroke-opacity:1"
           id="path35"
           cx="60.844765"
           cy="70.43396"
           rx="1.7859374"
           ry="1.8520833" /><ellipse
           style="fill:#574bfb;fill-opacity:1;stroke:none;stroke-width:0.854001;stroke-linecap:round;stroke-linejoin:round;stroke-opacity:1"
           id="ellipse35"
           cx="68.047676"
           cy="66.224464"
           rx="1.7859374"
           ry="1.8520833" /><ellipse
           style="fill:#574bfb;fill-opacity:1;stroke:none;stroke-width:0.854001;stroke-linecap:round;stroke-linejoin:round;stroke-opacity:1"
           id="ellipse36"
           cx="64.025269"
           cy="61.921425"
           rx="1.7859374"
           ry="1.8520833" /><ellipse
           style="fill:#574bfb;fill-opacity:1;stroke:none;stroke-width:0.854001;stroke-linecap:round;stroke-linejoin:round;stroke-opacity:1"
           id="ellipse37"
           cx="75.905396"
           cy="63.137501"
           rx="1.7859374"
           ry="1.8520833" /><ellipse
           style="fill:#574bfb;fill-opacity:1;stroke:none;stroke-width:0.854001;stroke-linecap:round;stroke-linejoin:round;stroke-opacity:1"
           id="ellipse38"
           cx="83.950211"
           cy="62.108513"
           rx="1.7859374"
           ry="1.8520833" /></g><g
         id="g43"
         transform="matrix(-1,0,0,1,199.23778,0)"><path
           style="color:#000000;fill:#004b0f;stroke-linecap:round;stroke-linejoin:round;-inkscape-stroke:none"
           d="m 64.875,60.775391 a 0.42700049,0.42700049 0 0 0 -0.324219,0.03516 c -1.19862,0.658733 -2.66375,2.410302 -3.605469,4.322265 -0.470859,0.955982 -0.799297,1.949265 -0.832031,2.884766 -0.03065,0.87593 0.265615,1.708395 0.935547,2.300781 0.159876,0.307908 0.466448,0.533144 0.785156,0.576172 0.325994,0.04401 0.640176,-0.03838 0.962891,-0.169922 0.645429,-0.263087 1.349489,-0.757456 2.076172,-1.318359 0.726682,-0.560903 1.46653,-1.191408 2.111328,-1.71875 0.644798,-0.527342 1.222967,-0.956042 1.494141,-1.080078 a 0.42704319,0.42704319 0 0 0 0.0098,-0.0039 c 1.41706,-0.692404 2.742661,-1.473657 4.179688,-1.876954 a 0.42704319,0.42704319 0 0 0 0.01563,-0.0059 C 77.040443,63.314195 78.349393,63.175676 82.896484,63 a 0.42700049,0.42700049 0 0 0 0.410157,-0.443359 0.42700049,0.42700049 0 0 0 -0.44336,-0.410157 c -4.552597,0.17589 -6.050774,0.34639 -10.425781,1.757813 -1.577118,0.442612 -2.945838,1.257822 -4.320313,1.929687 -0.0013,6.2e-4 -0.0026,0.0013 -0.0039,0.002 -0.473608,0.218724 -1.018401,0.658567 -1.669922,1.191407 -0.655126,0.535788 -1.388509,1.16028 -2.091797,1.703125 -0.703287,0.542845 -1.385663,1.002867 -1.876953,1.203125 -0.245644,0.100129 -0.437658,0.125389 -0.527343,0.113281 -0.08969,-0.01211 -0.0966,-0.0073 -0.150391,-0.117188 a 0.42704319,0.42704319 0 0 0 -0.123047,-0.15039 c -0.537124,-0.411123 -0.73331,-0.979456 -0.707031,-1.730469 0.02628,-0.751013 0.310406,-1.654489 0.746094,-2.539062 0.871375,-1.769147 2.390551,-3.47884 3.25,-3.951172 A 0.42700049,0.42700049 0 0 0 65.130859,60.978516 0.42700049,0.42700049 0 0 0 64.875,60.775391 Z"
           id="path38" /><ellipse
           style="fill:#574bfb;fill-opacity:1;stroke:none;stroke-width:0.854001;stroke-linecap:round;stroke-linejoin:round;stroke-opacity:1"
           id="ellipse39"
           cx="60.844765"
           cy="70.43396"
           rx="1.7859374"
           ry="1.8520833" /><ellipse
           style="fill:#574bfb;fill-opacity:1;stroke:none;stroke-width:0.854001;stroke-linecap:round;stroke-linejoin:round;stroke-opacity:1"
           id="ellipse40"
           cx="68.047676"
           cy="66.224464"
           rx="1.7859374"
           ry="1.8520833" /><ellipse
           style="fill:#574bfb;fill-opacity:1;stroke:none;stroke-width:0.854001;stroke-linecap:round;stroke-linejoin:round;stroke-opacity:1"
           id="ellipse41"
           cx="64.025269"
           cy="61.921425"
           rx="1.7859374"
           ry="1.8520833" /><ellipse
           style="fill:#574bfb;fill-opacity:1;stroke:none;stroke-width:0.854001;stroke-linecap:round;stroke-linejoin:round;stroke-opacity:1"
           id="ellipse42"
           cx="75.905396"
           cy="63.137501"
           rx="1.7859374"
           ry="1.8520833" /><ellipse
           style="fill:#574bfb;fill-opacity:1;stroke:none;stroke-width:0.854001;stroke-linecap:round;stroke-linejoin:round;stroke-opacity:1"
           id="ellipse43"
           cx="83.950211"
           cy="62.108513"
           rx="1.7859374"
           ry="1.8520833" /></g><g
         id="g50"
         transform="matrix(-1,0,0,1,199.14854,0)"><ellipse
           style="fill:#00a23f;fill-opacity:1;stroke-width:0.913985;stroke-linecap:round;stroke-linejoin:round"
           id="ellipse44"
           cx="57.667248"
           cy="98.968269"
           rx="2.8295982"
           ry="2.7894738" /><ellipse
           style="fill:#00a23f;fill-opacity:1;stroke-width:1.18287;stroke-linecap:round;stroke-linejoin:round"
           id="ellipse45"
           cx="66.905434"
           cy="110.41943"
           rx="3.6894941"
           ry="3.5832238" /><ellipse
           style="fill:#00a23f;fill-opacity:1;stroke-width:1.40248;stroke-linecap:round;stroke-linejoin:round"
           id="ellipse46"
           cx="82.942223"
           cy="115.05612"
           rx="4.4832444"
           ry="4.1454635" /><ellipse
           style="fill:#00a23f;fill-opacity:1;stroke-width:0.448346;stroke-linecap:round;stroke-linejoin:round"
           id="ellipse47"
           cx="60.482979"
           cy="105.36803"
           rx="1.4264332"
           ry="1.3315117" /><ellipse
           style="fill:#00a23f;fill-opacity:1;stroke-width:0.534652;stroke-linecap:round;stroke-linejoin:round"
           id="ellipse48"
           cx="74.10836"
           cy="114.06489"
           rx="1.6248707"
           ry="1.6622409" /><ellipse
           style="fill:#00a23f;fill-opacity:1;stroke-width:0.45388;stroke-linecap:round;stroke-linejoin:round"
           id="ellipse49"
           cx="56.346279"
           cy="91.034012"
           rx="1.4264332"
           ry="1.3645847" /><ellipse
           style="fill:#00a23f;fill-opacity:1;stroke-width:0.27603;stroke-linecap:round;stroke-linejoin:round"
           id="ellipse50"
           cx="57.235516"
           cy="85.41729"
           rx="0.89726657"
           ry="0.8023451" /></g><g
         id="g72"
         transform="matrix(0.96757382,0,0,0.79294605,2.4097915,31.917414)"
         inkscape:path-effect="#path-effect73"><path
           id="path50"
           style="opacity:1;fill:#000000;fill-opacity:1;stroke:none;stroke-width:0.835632;stroke-linecap:round;stroke-linejoin:round;stroke-opacity:1"
           d="m 83.03658,120.47835 c -0.104129,-0.0116 -0.208373,-0.0157 -0.312142,-0.0129 -0.622497,0.017 -1.225917,0.28572 -1.684468,0.70663 -0.189961,0.17436 -0.354045,0.37511 -0.484176,0.59489 0,0 0,0 0,0 -0.05,0.0884 -0.09456,0.17904 -0.133465,0.27134 -0.04746,-0.42597 -0.247243,2.38274 -0.298426,3.09348 -0.05118,0.71075 0.03504,-0.73581 0.129568,-1.47873 0.02784,-0.18474 0.04361,-0.11799 0.04563,0.18772 0.01915,0.26593 0.04009,0.53107 0.06207,0.79764 0,0 0,0 0,0 0.08551,1.05587 0.182645,2.11984 0.236956,3.17638 0.0054,0.10564 0.01044,0.2113 0.01497,0.31696 -0.01812,0.37964 -0.05779,0.75651 -0.111329,1.13173 -0.176919,1.23981 -0.50596,2.46034 -0.704558,3.69554 -0.100436,0.62353 -0.167219,1.24892 -0.162165,1.88898 0.0051,0.0547 0.01292,0.10863 0.02316,0.16195 0,0 0,0 0,0 0.06026,0.30765 0.206038,0.58594 0.40624,0.82835 0.311355,0.37697 0.756065,0.6662 1.220763,0.84167 0.130578,0.0478 0.264819,0.0868 0.401335,0.11713 0.945866,0.20991 2.003126,-0.002 2.714044,-0.66838 0.169593,0.57793 0.584528,1.37167 1.059919,1.83304 0.438713,0.36932 1.028291,0.64799 1.678937,0.80912 1.334916,0.33542 2.953269,0.16592 4.017052,-0.75443 2.44279,4.47509 7.305416,1.94595 8.08603,1.33967 0.377056,-0.28572 0.63984,-0.66519 0.784423,-1.0821 0.0993,0.29214 0.2564,0.56662 0.47123,0.80392 0,0 0,0 0,0 0.0928,0.10188 0.19618,0.19682 0.31005,0.28327 1.96728,1.53077 5.04194,1.46851 6.9713,0.054 0.57087,-0.39826 0.85611,-1.45153 1.17499,-1.37487 1.22187,1.0497 3.02937,1.18683 4.49304,0.62567 0.43968,-0.17017 0.85155,-0.40256 1.21199,-0.69176 0.58949,-0.43754 0.77466,-1.38496 1.04989,-1.8372 0.81221,0.7601 2.07487,0.92589 3.10519,0.54913 0.81085,-0.30619 1.55778,-0.95978 1.63963,-1.82399 0.0195,-2.27676 -0.86229,-4.45231 -0.9691,-6.72095 0.0697,-1.59411 0.24841,-3.18575 0.35934,-4.7788 0.32158,-1.59701 -1.25119,-3.04831 -2.79394,-2.87745 -1.05776,0.0553 -2.08155,0.76812 -2.39952,1.80642 -0.18309,0.25866 -0.80836,-0.82723 -1.38096,-0.88778 -0.27516,-0.11438 -0.56713,-0.19971 -0.86745,-0.25527 -1.56511,-0.29818 -3.31134,0.1967 -4.13127,1.5854 -0.40761,0.87023 -0.43079,0.11959 -0.87151,-0.16962 -1.88264,-1.33371 -4.92942,-1.44708 -6.23611,0.17876 -0.2341,0.29127 -0.47918,0.62117 -0.6774,0.92905 0,0 0,0 0,0 -0.21484,0.33274 -0.37818,0.64356 -0.41831,0.8644 -0.19972,-0.52532 -0.509505,-1.4546 -1.093255,-1.79943 -1.782489,-1.05294 -4.405942,-1.52215 -6.287433,-0.19822 -0.44318,0.28889 -0.724907,1.06008 -0.87626,0.16919 -0.748157,-1.25505 -2.25449,-1.77836 -3.698271,-1.64774 -0.457395,0.0419 -0.905581,0.15136 -1.315949,0.32563 -0.515104,0.26581 -1.188299,1.15237 -1.371004,0.89444 -0.318483,-1.0367 -1.338166,-1.74663 -2.389268,-1.80187 z"
           sodipodi:nodetypes="ccccccccccccccccccccccccscaccccc"
           inkscape:original-d="m 82.525712,120.28982 c -1.562742,-0.0739 -3.046365,1.47308 -2.617411,3.04684 0.217444,1.583 0.50201,3.16036 0.676444,4.74699 0.04249,2.27092 -0.692201,4.49748 -0.522965,6.76858 0.138078,0.85729 0.921476,1.46303 1.744079,1.71773 1.04476,0.31144 2.284465,0.0669 3.043225,-0.74259 0.201434,0.56641 0.657683,1.33502 1.151868,1.76785 1.397424,1.05881 4.15283,1.18089 5.624463,-0.25477 2.586191,4.31045 7.075325,1.68349 7.792289,1.07797 0.350731,-0.28904 0.595796,-0.66996 0.730706,-1.08727 0.13491,0.41731 0.37946,0.79823 0.73019,1.08727 1.80284,1.52259 4.66575,1.56823 6.58926,0.23978 0.56737,-0.37223 0.89655,-1.41005 1.20303,-1.31775 1.47163,1.43566 3.99552,1.4128 5.62446,0.25477 0.60994,-0.39976 0.85122,-1.33373 1.15187,-1.76785 0.75876,0.80954 1.99846,1.05403 3.04322,0.74259 0.8226,-0.2547 1.60601,-0.86044 1.74408,-1.71773 0.16924,-2.2711 -0.56495,-4.49766 -0.52245,-6.76858 0.17444,-1.58663 0.45849,-3.16399 0.67593,-4.74699 0.42895,-1.57376 -1.05467,-3.12074 -2.61741,-3.04684 -1.06748,-0.0111 -2.14223,0.63624 -2.52594,1.65261 -0.19992,0.24668 -0.76125,-0.87625 -1.33326,-0.97255 -1.66212,-0.80974 -4.03717,-0.55857 -5.13043,1.0511 -0.46407,0.84884 -0.44673,0.098 -0.88677,-0.21188 -1.86386,-1.41364 -5.1281,-1.65555 -6.57221,-0.008 -0.52907,0.6036 -1.09317,1.3652 -1.17357,1.79163 -0.212733,-0.52561 -0.545678,-1.45263 -1.17409,-1.79163 -1.928076,-1.04012 -4.70835,-1.40537 -6.572208,0.008 -0.440042,0.3099 -0.686758,1.09379 -0.886251,0.21188 -1.093255,-1.60967 -3.468843,-1.86084 -5.130953,-1.0511 -0.505867,0.29474 -1.133332,1.21923 -1.333252,0.97255 -0.383725,-1.01637 -1.458469,-1.66367 -2.525944,-1.65261 z" /><path
           id="path55"
           style="opacity:1;fill:#ffffff;fill-opacity:1;stroke:none;stroke-width:0.835632;stroke-linecap:round;stroke-linejoin:round;stroke-opacity:1"
           d="m 83.009905,121.534 c -0.120659,-0.0136 -0.238879,-0.0131 -0.353376,10e-6 0,0 0,0 0,0 -0.956505,0.1094 -1.652389,1.09552 -1.330737,2.03328 0.07684,1.04665 0.197089,2.11826 0.260418,3.19353 0.228584,0.0734 0.470431,0.15065 0.723473,0.2309 0.812348,0.25762 1.704756,0.53536 2.560507,0.79127 0.247253,-1.62234 0.193708,-3.1278 0.08469,-4.57802 -0.191764,-0.5644 -0.576679,-1.5211 -1.944993,-1.67069 8e-6,-10e-5 1.5e-5,-1.9e-4 2.3e-5,-2.8e-4 z m 34.174225,0.0169 c -1.59428,0.0276 -1.84157,1.0131 -2.22827,1.73355 -0.17988,0.33513 -0.31556,1.84756 -0.32541,2.18678 -0.008,0.27185 -0.073,1.39147 -0.0837,2.31402 0.62616,-0.1552 2.31957,-0.67937 3.95542,-1.19837 0.11269,-1.35375 0.35423,-2.70693 0.24972,-4.06879 -0.25446,-0.65753 -0.91511,-0.97845 -1.56778,-0.96719 0,0 0,0 1e-5,0 z m -31.172423,2.11936 c -0.04482,0.77047 0.04274,3.49343 -0.02758,4.39775 0.695557,0.19612 1.370554,0.41861 1.662412,0.46493 0.01702,0.003 0.0354,0.006 0.05509,0.009 0.531874,0.0829 2.26918,0.33899 3.794331,0.55244 0.0477,-1.25349 0.37352,-3.60683 -0.177797,-5.19401 -0.842063,-1.64354 -2.140349,-2.04815 -3.258835,-1.8669 -1.100745,0.1807 -2.007361,0.94504 -2.047616,1.63709 z m 23.734043,-1.01605 c -0.11169,0.0678 -1.79347,1.28215 -1.78153,1.73598 0.0239,1.13898 -0.11261,3.65875 -0.0887,4.79773 1.64813,-0.32367 3.29339,-0.67249 4.94602,-1.01721 -0.0302,0.007 0.7702,-0.16561 0.73997,-0.1591 0.0814,-1.7456 0.27686,-2.30736 0.32056,-4.84059 -0.40138,-0.42213 -0.88997,-0.71961 -1.41149,-0.88401 -0.91029,-0.29131 -1.91079,-0.18294 -2.72479,0.3672 z m -17.176918,1.5127 c -0.01997,0.41886 0.173635,2.36525 0.178043,3.40683 0.0019,0.45159 -0.02258,1.06129 -0.05381,1.68732 2.133941,0.34368 4.278361,0.50919 6.427631,0.52243 0.04025,-0.99328 0.08128,-1.9932 0.10258,-2.73765 0.01533,-0.53577 0.0039,-1.23091 -0.01383,-1.93632 -0.103176,-0.43594 -0.300118,-1.00364 -0.667674,-1.3102 -2.452306,-2.04536 -5.937248,-0.38114 -5.972939,0.36759 z m 7.709548,1.31859 c 0.008,0.71543 0.0201,1.46071 0.0345,1.92955 0.0143,0.46668 0.001,1.4167 -0.0177,2.36156 0.0654,-7.6e-4 0.13068,-0.002 0.1959,-0.003 0,0 0,0 0,0 2.53437,-0.0352 4.94562,-0.20367 6.47402,-0.43001 -0.1072,-1.29776 -0.0525,-2.61349 -0.0193,-3.91258 0.0121,-0.51139 -0.0196,-1.20173 -0.0589,-1.87938 -9.4e-4,-9e-4 -3.61058,-2.5418 -6.39936,1.60879 -0.07,0.10394 -0.13971,0.21209 -0.2091,0.32461 z m 18.15416,2.3059 c -1.17456,0.29463 -2.50707,0.64221 -3.86018,0.99458 0.0643,0.90243 0.23579,2.2751 0.27222,2.869 0.12906,1.22787 0.5474,2.432 1.00683,3.59591 0.71896,0.42474 1.01986,0.51964 1.90261,0.57336 0.86878,0.0121 1.89004,-0.67749 1.60896,-1.64188 -0.19469,-2.13719 -0.90776,-4.24546 -0.93046,-6.39097 1e-5,0 1e-5,0 2e-5,0 z m -36.804635,0.40043 c -0.128034,2.39184 -1.165933,4.81367 -0.828909,6.8093 0.276071,0.42347 0.607816,0.6433 0.955312,0.72952 0.82798,0.20544 1.744976,-0.34679 2.229657,-0.70693 0.362324,-2.04511 0.606007,-3.92089 0.784229,-5.98927 -0.84971,-0.22348 -1.696953,-0.45524 -2.544909,-0.68327 -0.198452,-0.0534 -0.396901,-0.10654 -0.595384,-0.15936 1e-6,0 3e-6,1e-5 4e-6,1e-5 z m 31.932325,0.85495 c -0.2277,0.0587 -0.45347,0.11663 -0.67612,0.1734 -1.40653,0.34926 -2.65205,0.64418 -3.51001,0.79547 -0.39643,0.0699 -0.90879,0.15918 -1.4485,0.25081 0.0543,0.86181 0.14759,1.92737 0.2866,2.9868 0.17469,1.33079 0.33401,2.39647 0.56026,3.77341 0.85941,0.3886 1.46486,0.84922 2.36073,0.85942 0.88406,0.14256 1.63641,-0.011 2.24484,-0.38558 0.64017,-0.39609 1.12541,-1.0341 1.43931,-1.83108 -0.82015,-2.24842 -1.2074,-5.78776 -1.25711,-6.62265 z m -27.617439,0.28232 c -0.107394,1.33466 -0.90299,4.07442 -0.916704,6.13036 0.521101,1.03912 1.152112,1.82476 2.174715,2.1948 0.451782,0.16552 0.98246,0.24856 1.618376,0.23401 0.676716,-0.0214 1.216433,-0.42129 1.789405,-0.71726 0.120526,-0.59471 0.230562,-1.15564 0.280443,-1.47464 0.162462,-1.03895 0.53672,-4.64818 0.576507,-5.34377 -0.22132,-0.0313 -0.437224,-0.0577 -0.665172,-0.0928 -1.039877,-0.1599 -2.119068,-0.3534 -3.162202,-0.56342 -0.583178,-0.11759 -1.152814,-0.24088 -1.695403,-0.3673 1.1e-5,-1e-5 2.3e-5,-1e-5 3.5e-5,-1e-5 z m 21.082279,1.08311 c -1.88966,0.30022 -4.22384,0.60282 -6.53307,0.63111 -0.0742,9.1e-4 -0.14836,0.002 -0.22238,0.002 -0.0112,0.48713 -0.0274,1.14049 -0.0276,1.29753 -7.5e-4,0.55368 -0.004,3.08424 -0.0411,4.66307 0.0877,0.18117 0.18676,0.35229 0.29609,0.51326 1.69499,2.48425 5.65767,2.44883 7.45375,-0.0782 -0.45252,-2.32466 -0.76697,-4.66841 -0.92564,-7.02867 0,0 -1e-5,0 -1e-5,0 z m -14.403382,0.0951 c -0.04576,0.69751 -0.09274,1.32667 -0.120331,1.62472 -0.05894,0.63664 -0.437769,3.99687 -0.634583,5.05577 0.414312,0.72791 2.883234,4.43747 7.191908,0.65545 0.173924,-2.97287 -0.115726,-3.2782 0.01484,-6.82437 -2.156855,-0.0979 -4.309017,-0.26268 -6.45184,-0.51137 0,0 8e-6,-2e-4 8e-6,-2e-4 z"
           sodipodi:nodetypes="sccccsscscccsscccscsccsccscscscccsscsscsccsccccccscscsccsccscccscsccsccccscsccsscccccccc"
           inkscape:original-d="m 82.56602,121.34505 c -1.14786,-0.0561 -2.00089,1.11293 -1.567863,2.1371 0.146868,1.03937 0.337993,2.1009 0.471289,3.16983 0.978476,0.24462 2.215708,0.54984 3.35225,0.81649 0.150856,-1.63558 0.008,-3.13238 -0.189658,-4.57492 -0.227106,-0.55122 -0.67428,-1.48496 -2.066023,-1.54822 z m 35.2702,0.017 c -1.60416,-0.0723 -1.91437,0.8958 -2.34715,1.5906 -0.20161,0.32367 -0.43068,1.82374 -0.46147,2.16214 -0.0246,0.27083 -0.15864,1.38418 -0.22582,2.30426 0.63432,-0.1155 2.36083,-0.53292 4.02973,-0.94827 0.20044,-1.34221 0.53156,-2.68133 0.51623,-4.04523 -0.21218,-0.67219 -0.85499,-1.03386 -1.51153,-1.0635 z M 85.725,123.29578 c 0,0.77178 0.246471,3.4851 0.22841,4.39198 0.706362,0.1554 1.396475,0.34044 1.689819,0.37052 0.513461,0.0527 2.244941,0.21027 3.877283,0.35554 -0.01502,-1.25021 0.195229,-3.62433 -0.443901,-5.17746 -1.878568,-3.20064 -5.351611,-1.32632 -5.351611,0.0594 z m 24.56388,-1.27754 c -0.11596,0.061 -1.89764,1.18593 -1.90896,1.64175 -0.0379,1.25087 -0.30291,3.75438 -0.33273,4.7873 1.91949,-0.28153 3.83742,-0.57691 5.75624,-0.86403 0.18658,-1.7371 0.41621,-2.28552 0.61496,-4.81108 -1.03076,-1.22046 -2.77608,-1.55185 -4.12951,-0.75394 z m -17.928626,1.42265 c 0,0.41927 0.28979,2.35401 0.343131,3.39411 0.02312,0.45086 0.02695,1.06112 0.02481,1.68775 2.155995,0.24414 4.314271,0.33295 6.480741,0.32369 0.0298,-0.98615 0.06179,-2.00176 0.07596,-2.73885 0.01032,-0.53677 -0.0085,-1.23021 -0.03462,-1.93631 -0.112672,-0.43521 -0.326001,-1.00044 -0.71882,-1.30173 -2.683525,-2.05828 -6.171202,-0.13479 -6.171202,0.57134 z m 8.011396,1.10076 c 0.009,0.71392 0.0226,1.46227 0.0377,1.92959 0.0151,0.46592 0.002,1.41749 -0.016,2.36162 2.62813,-0.0324 5.15048,-0.10857 6.7324,-0.27129 -0.0485,-1.30619 0.0667,-2.60809 0.16236,-3.90933 0.0365,-0.51053 0.037,-1.20107 0.0289,-1.87999 -9.4e-4,-9.6e-4 -3.97173,-2.84315 -6.94536,1.7694 z m 18.31206,3.12694 c -1.1931,0.22062 -2.54437,0.48378 -3.91759,0.75085 0.009,0.90469 0.0961,2.28543 0.0961,2.88045 0.0535,1.23304 0.39624,2.46208 0.78031,3.65197 0.68734,0.46898 0.9794,0.58249 1.85157,0.69143 0.86072,0.0665 1.91821,-0.55777 1.70171,-1.53789 -0.0546,-2.14522 -0.62851,-4.29406 -0.51212,-6.43681 z m -37.079905,0.40876 c 0.02628,2.39512 -0.846428,4.8792 -0.38499,6.84867 1.014041,1.36776 2.502161,0.37509 3.152779,-0.17674 0.236686,-2.0641 0.367861,-3.94924 0.422709,-6.02547 -1.064007,-0.21287 -2.125944,-0.43591 -3.190502,-0.64647 z m 32.136025,0.53898 c -1.67498,0.3215 -3.24602,0.61048 -4.2354,0.73226 -0.38539,0.0474 -0.93094,0.11414 -1.46038,0.17828 0.0117,0.86371 0.0523,1.93159 0.13746,2.99672 0.1076,1.34495 0.20996,2.40197 0.36277,3.79563 0.82034,0.43069 1.38596,0.922 2.26653,0.98134 1.76354,0.3906 3.07686,-0.47906 3.78013,-1.99575 -0.67758,-2.29595 -0.85173,-5.85157 -0.85111,-6.68848 z m -27.754898,0.3328 c -0.03028,1.33863 -0.662235,4.12005 -0.556555,6.17326 0.833397,1.4575 1.856907,2.37121 3.890719,2.21227 0.668022,-0.0581 1.178607,-0.48594 1.727026,-0.8108 0.08846,-0.5994 0.168903,-1.16626 0.202055,-1.48673 0.106817,-1.03255 0.299935,-4.6816 0.304856,-5.36505 -0.2225,-0.0202 -0.439358,-0.0356 -0.668693,-0.0589 -1.630395,-0.1654 -3.370415,-0.39977 -4.899443,-0.66404 z m 21.152198,0.68213 c -1.94689,0.22199 -4.41456,0.45674 -6.76806,0.47025 -0.0107,0.48937 -0.0258,1.13833 -0.0258,1.2976 0,0.56224 3e-5,3.07578 -0.0331,4.66328 1.35316,2.92794 5.41909,3.24677 7.41401,0.63149 -0.33042,-2.33959 -0.53607,-4.70095 -0.58704,-7.06262 z m -14.422376,0.13952 c -0.01328,0.69825 -0.03088,1.32989 -0.04444,1.62833 -0.02816,0.61951 -0.24931,4.03142 -0.389642,5.07927 0.48486,0.78044 2.954164,4.20618 6.949964,0.42892 0.135734,-2.97488 -0.147945,-3.27713 -0.05581,-6.82491 -2.154102,-0.0746 -4.309489,-0.16261 -6.460071,-0.31141 z" /></g><path
         style="opacity:1;fill:#60107b;fill-opacity:1;stroke:none;stroke-width:0.824901;stroke-linecap:round;stroke-linejoin:round;stroke-opacity:1"
         d="m 87.956132,123.17294 c -8.860041,0.79668 -11.279618,-0.0816 -11.846924,1.18123 7.657664,1.87882 11.35159,0.82779 13.654313,0.84578 1.363287,0.0106 5.385233,-1.478 9.427017,-1.34949 3.612822,0.11487 6.505582,1.31878 9.080282,1.27201 5.02281,0.42239 9.76868,0.89417 14.74162,0.29003 -0.15069,-1.30282 -8.21681,-1.94516 -11.82099,-2.32645 -7.14706,-0.7561 -7.08697,-5.94593 -10.98335,-5.19784 -4.531816,0.0626 -5.312941,4.66079 -12.251968,5.28473 z"
         id="path72"
         sodipodi:nodetypes="scssccscs" /><g
         id="g81"><path
           id="path73"
           style="opacity:1;fill:#c82324;fill-opacity:1;stroke:none;stroke-width:0.854001;stroke-linecap:round;stroke-linejoin:round;stroke-opacity:1"
           d="m 96.616842,144.5333 c -2.248122,0.0352 -3.124772,1.56428 -2.859774,2.63963 0.297894,1.20883 1.417158,2.9809 2.499589,4.35684 -1.332057,-0.88235 -2.547155,-1.41789 -3.881417,-1.67173 -2.852027,-0.5426 -4.726624,0.72441 -4.573364,2.19314 3.964115,0.99602 8.072855,1.53944 11.813749,1.53944 3.926825,0 8.257255,-0.60304 12.401825,-1.69602 0.009,-1.40035 -1.83152,-2.55977 -4.58163,-2.03656 -1.33426,0.25384 -2.54936,0.78938 -3.88142,1.67173 1.08243,-1.37594 2.2922,-3.12924 2.49959,-4.35684 0.4446,-2.63182 -2.56362,-2.60411 -2.97553,-2.54041 -0.87643,0 -3.183782,0.76791 -3.183782,0.76791 0,0 -1.673802,-0.76793 -3.277836,-0.86713 z" /><path
           id="path75"
           style="opacity:1;fill:#f6931e;fill-opacity:1;stroke:none;stroke-width:0.794658;stroke-linecap:round;stroke-linejoin:round;stroke-opacity:1"
           d="m 99.624927,151.16752 a 3.4143682,3.3208239 0 0 0 -3.239596,2.28926 c 1.096982,0.0832 2.180109,0.13384 3.230294,0.13384 1.057475,0 2.148185,-0.0511 3.253035,-0.13539 a 3.4143682,3.3208239 0 0 0 -3.243733,-2.28771 z" /></g><g
         id="g78"><path
           style="opacity:1;fill:none;fill-opacity:1;stroke:#004b0f;stroke-width:0.754;stroke-linecap:round;stroke-linejoin:round;stroke-dasharray:none;stroke-opacity:1"
           d="m 74.579426,135.33437 c -4.705098,0.69471 -2.22509,5.95032 0.865207,8.89801 4.835569,4.82985 10.023433,5.43403 11.386186,3.41539 0.949167,-1.48631 0.718991,-3.18637 -1.634982,-3.31756"
           id="path76"
           sodipodi:nodetypes="cccc" /><path
           style="opacity:1;fill:#0cc42f;fill-opacity:1;stroke:none;stroke-width:1.04803;stroke-linecap:round;stroke-linejoin:round;stroke-dasharray:none;stroke-opacity:1"
           d="m 78.779686,130.63802 c -0.606221,0.90276 -0.906912,1.28542 -1.582291,1.52106 -2.891534,0.43853 -6.301929,-1.47056 -6.440992,2.788 -0.07821,2.07653 1.743248,3.76246 4.185642,3.16515 1.226826,-0.58962 1.85936,-1.94911 2.445345,-3.16309 0.577887,-1.39195 0.97751,-2.85705 1.392296,-4.31112 z"
           id="path77"
           sodipodi:nodetypes="cccccc" /><ellipse
           style="opacity:1;fill:#574bfb;fill-opacity:1;stroke:none;stroke-width:1.19383;stroke-linecap:round;stroke-linejoin:round;stroke-dasharray:none;stroke-opacity:1"
           id="path78"
           cx="84.032768"
           cy="145.12395"
           rx="2.4088109"
           ry="2.5135417" /></g><g
         id="g80"
         transform="matrix(-1,0,0,1,199.17877,0)"><path
           style="opacity:1;fill:none;fill-opacity:1;stroke:#004b0f;stroke-width:0.754;stroke-linecap:round;stroke-linejoin:round;stroke-dasharray:none;stroke-opacity:1"
           d="m 74.579426,135.33437 c -4.705098,0.69471 -2.22509,5.95032 0.865207,8.89801 4.835569,4.82985 10.023433,5.43403 11.386186,3.41539 0.949167,-1.48631 0.718991,-3.18637 -1.634982,-3.31756"
           id="path79"
           sodipodi:nodetypes="cccc" /><path
           style="opacity:1;fill:#0cc42f;fill-opacity:1;stroke:none;stroke-width:1.04803;stroke-linecap:round;stroke-linejoin:round;stroke-dasharray:none;stroke-opacity:1"
           d="m 78.779686,130.63802 c -0.606221,0.90276 -0.906912,1.28542 -1.582291,1.52106 -2.891534,0.43853 -6.301929,-1.47056 -6.440992,2.788 -0.07821,2.07653 1.743248,3.76246 4.185642,3.16515 1.226826,-0.58962 1.85936,-1.94911 2.445345,-3.16309 0.577887,-1.39195 0.97751,-2.85705 1.392296,-4.31112 z"
           id="path80"
           sodipodi:nodetypes="cccccc" /><ellipse
           style="opacity:1;fill:#574bfb;fill-opacity:1;stroke:none;stroke-width:1.19383;stroke-linecap:round;stroke-linejoin:round;stroke-dasharray:none;stroke-opacity:1"
           id="ellipse80"
           cx="84.032768"
           cy="145.12395"
           rx="2.4088109"
           ry="2.5135417" /></g></g></g></svg>
