<?xml version="1.0" encoding="UTF-8" standalone="no"?>
<!-- Created with Inkscape (http://www.inkscape.org/) -->

<svg
   width="210mm"
   height="297mm"
   viewBox="0 0 210 297"
   version="1.1"
   id="svg1"
   xml:space="preserve"
   sodipodi:docname="skull-2.svg"
   inkscape:version="1.4 (86a8ad7, 2024-10-11)"
   xmlns:inkscape="http://www.inkscape.org/namespaces/inkscape"
   xmlns:sodipodi="http://sodipodi.sourceforge.net/DTD/sodipodi-0.dtd"
   xmlns="http://www.w3.org/2000/svg"
   xmlns:svg="http://www.w3.org/2000/svg"><sodipodi:namedview
     id="namedview1"
     pagecolor="#ffffff"
     bordercolor="#999999"
     borderopacity="1"
     inkscape:showpageshadow="2"
     inkscape:pageopacity="0"
     inkscape:pagecheckerboard="0"
     inkscape:deskcolor="#d1d1d1"
     inkscape:document-units="mm"
     inkscape:zoom="0.70710678"
     inkscape:cx="224.85996"
     inkscape:cy="550.83618"
     inkscape:window-width="2560"
     inkscape:window-height="1377"
     inkscape:window-x="1272"
     inkscape:window-y="-8"
     inkscape:window-maximized="1"
     inkscape:current-layer="layer1"
     showgrid="false" /><defs
     id="defs1"><filter
       inkscape:collect="always"
       style="color-interpolation-filters:sRGB"
       id="filter10"
       x="-0.01204732"
       y="-0.012215423"
       width="1.0240946"
       height="1.0244308"><feGaussianBlur
         inkscape:collect="always"
         stdDeviation="0.072383276"
         id="feGaussianBlur10" /></filter><filter
       inkscape:collect="always"
       style="color-interpolation-filters:sRGB"
       id="filter11"
       x="-0.0042796272"
       y="-0.0042979163"
       width="1.0085593"
       height="1.0085958"><feGaussianBlur
         inkscape:collect="always"
         stdDeviation="0.055436408"
         id="feGaussianBlur11" /></filter><filter
       inkscape:collect="always"
       style="color-interpolation-filters:sRGB"
       id="filter12"
       x="-0.0010427681"
       y="-0.0011033163"
       width="1.0020855"
       height="1.0022066"><feGaussianBlur
         inkscape:collect="always"
         stdDeviation="0.0011783196"
         id="feGaussianBlur12" /></filter><filter
       inkscape:collect="always"
       style="color-interpolation-filters:sRGB"
       id="filter13"
       x="-0.0048449699"
       y="-0.0053922238"
       width="1.0096899"
       height="1.0107844"><feGaussianBlur
         inkscape:collect="always"
         stdDeviation="0.017567419"
         id="feGaussianBlur13" /></filter><filter
       inkscape:collect="always"
       style="color-interpolation-filters:sRGB"
       id="filter16"
       x="-0.0091549389"
       y="-0.0062834497"
       width="1.0183099"
       height="1.0125669"><feGaussianBlur
         inkscape:collect="always"
         stdDeviation="0.026286467"
         id="feGaussianBlur16" /></filter></defs><g
     inkscape:label="Layer 1"
     inkscape:groupmode="layer"
     id="layer1"><g
       id="g18"
       inkscape:label="Skull"
       transform="translate(-5.2384827,-2.6192414)"><path
         id="path1"
         style="opacity:1;fill:#000000;fill-opacity:1;stroke-width:0.718457;stroke-linecap:round;stroke-linejoin:round"
         d="m 49.158483,14.586622 c -16.273399,-3.1e-5 -29.703713,13.009705 -29.703658,28.911145 0.02428,6.44673 1.865199,13.13553 5.958049,18.19188 -1.631186,1.26083 -1.953239,2.64401 -1.959452,4.70027 0.0079,3.43653 2.633216,6.3062 6.06853,6.63328 v 5.96879 c -0.0034,0.0985 0.0076,0.19697 0.01123,0.29568 0.148338,2.23561 2.557026,3.99133 5.481977,3.99587 1.946484,-10e-4 3.747346,-0.78918 4.735396,-2.07265 1.005685,1.21774 2.755234,1.95732 4.637584,1.96041 1.898157,-0.003 3.660233,-0.75456 4.661634,-1.98863 0.992675,1.26704 2.780629,2.04308 4.711025,2.04475 1.930397,-0.002 3.71835,-0.77771 4.711025,-2.04475 1.001462,1.23414 2.763686,1.98584 4.661955,1.98863 2.868117,-0.005 5.250097,-1.69522 5.472027,-3.88363 0.0276,-2.0836 0.0115,-4.16784 0.0115,-6.25164 3.51045,-0.24069 6.23726,-3.14208 6.24619,-6.64611 -6.2e-4,-2.05861 -0.3992,-3.44624 -2.03016,-4.71118 4.08739,-5.05451 5.96277,-11.80191 5.98708,-18.2439 5e-5,-15.90144 -13.388575,-28.848249 -29.661978,-28.848215 z"
         sodipodi:nodetypes="cccccccccccccccccccc" /><path
         id="path5"
         style="opacity:1;fill:#e9c9b6;fill-opacity:1;stroke-width:0.718457;stroke-linecap:round;stroke-linejoin:round"
         d="m 48.435639,15.581421 c -5.996648,0.143658 -12.014913,2.207074 -16.817939,5.867131 -4.729814,3.574715 -8.357864,8.631515 -10.048045,14.328375 -0.993863,3.31643 -1.325699,6.8541 -1.014041,10.32288 0.395368,4.77784 1.838958,9.56524 4.578897,13.55967 0.361744,0.58178 0.867775,1.08052 1.167333,1.69359 0.327613,0.54589 -0.167764,0.87378 -0.991592,1.76607 -0.875323,1.07995 -0.93673,2.56841 -0.845354,3.89518 0.282171,2.46817 2.310472,4.66748 4.804987,4.97335 1.348311,0.0669 1.245377,-0.38673 1.228907,1.09903 0.03781,2.1242 -0.0404,4.25709 0.04875,6.38345 0.344068,1.59604 1.985858,2.51803 3.493661,2.74548 1.865454,0.28004 3.949651,-0.1613 5.121194,-1.75328 v -7.8981 c 0,-0.27755 0.22338,-0.50092 0.500927,-0.50092 h 0.120903 c 0.277546,0 0.500927,0.22337 0.500927,0.50092 v 7.92857 c 1.915086,1.67826 4.311411,2.13948 6.677531,1.08844 0.718936,-0.31925 1.399349,-1.07343 1.516888,-1.14681 v -7.8702 c 0,-0.27755 0.22338,-0.50092 0.50093,-0.50092 h 0.120902 c 0.277544,0 0.501246,0.22337 0.501246,0.50092 0,0 -0.01285,7.75572 0,7.91222 0.23347,0.18024 0.418957,0.31698 0.601309,0.47943 0.991819,0.94084 2.427783,1.31706 3.770418,1.28183 1.586356,-0.008 2.841482,-0.79886 3.963481,-1.82957 v -7.84391 c 0,-0.27755 0.223379,-0.50092 0.500929,-0.50092 h 0.120903 c 0.277544,0 0.500929,0.22337 0.500929,0.50092 v 7.90997 c 1.154939,1.13157 2.591406,1.67907 4.205286,1.70963 1.472734,-0.0401 3.062279,-0.60932 3.933009,-1.85491 0.4655,-0.65588 0.48059,-1.47969 0.42941,-2.24807 0.0246,-1.7379 -0.0322,-3.48057 0.0404,-5.21548 0.0487,-0.90179 -0.10601,-0.81294 1.75742,-0.93804 2.59094,-0.5381 4.59135,-3.09125 4.45254,-5.74238 0.0325,-1.28345 -0.4237,-2.6954 -1.49476,-3.58474 -1.00084,-0.83103 -0.99007,-0.87 -0.0446,-1.89916 2.86019,-3.7008 4.50521,-8.15172 5.16673,-12.78743 0.48481,-3.44932 0.45539,-6.97797 -0.33128,-10.39664 -0.85377,-3.79058 -2.54233,-7.39893 -4.86624,-10.47394 C 68.058315,21.390683 61.630402,17.401401 54.700123,16.101559 52.634775,15.704575 50.564976,15.533152 48.435651,15.58139 Z"
         sodipodi:nodetypes="cccccccccccccsssscccssssccccsssscccccccsccccccc" /><path
         id="path17"
         style="opacity:1;fill:#f4e3d7;fill-opacity:1;stroke:none;stroke-width:0.917845;stroke-linecap:round;stroke-linejoin:round;stroke-dasharray:none;stroke-opacity:1"
         d="m 48.435639,15.581421 c -5.996643,0.143658 -12.014918,2.207078 -16.817939,5.867131 -2.524485,1.907965 -4.720625,4.247515 -6.490245,6.871875 0.04103,2.98338 1.067551,6.02533 2.678773,8.54334 2.704845,2.63559 -1.613049,6.28897 -1.783069,6.80838 -1.938052,1.69861 -1.318515,9.87607 -1.16605,14.81166 0.01642,0.29176 0.05616,0.5786 0.08338,0.86812 0.06706,0.10112 0.125332,0.20741 0.194022,0.30755 0.361744,0.58178 0.867775,1.08052 1.167333,1.69359 0.296356,0.49381 -0.09772,0.83021 -0.782177,1.5464 0.707105,3.0668 1.862917,6.02633 3.048856,8.94421 0.229359,0.0627 0.462314,0.11468 0.701362,0.14399 1.348309,0.0669 1.245377,-0.38673 1.228907,1.09903 0.01631,0.91629 0.0086,1.83455 0.0045,2.75285 0.818579,1.27067 1.909223,2.22369 3.734505,2.064 1.796868,0.36262 3.372306,-1.02853 4.924607,-1.4024 v -3.93686 c 0,-0.27755 0.22338,-0.50093 0.500927,-0.50093 h 0.120903 c 0.277545,0 0.500927,0.22338 0.500927,0.50093 v 3.88683 c 0.490453,0.0892 0.983194,0.33881 1.484821,0.85401 2.350448,1.63133 4.568793,-0.25581 6.709599,-0.71707 v -4.02377 c 0,-0.27755 0.22338,-0.50093 0.50093,-0.50093 h 0.120902 c 0.277544,0 0.501246,0.22338 0.501246,0.50093 0,0 0.0016,1.99207 0,3.94487 0.442036,0.0411 0.881516,0.17046 1.31806,0.45828 2.274088,2.1605 4.787369,0.0843 7.017148,-0.40472 v -3.99843 c 0,-0.27755 0.223379,-0.50093 0.500929,-0.50093 h 0.120903 c 0.277544,0 0.500929,0.22338 0.500929,0.50093 v 3.92114 c 0.05873,0.006 0.118563,0.005 0.176699,0.0154 2.342335,1.67188 5.399998,1.77599 7.822738,0.21807 0.2302,-0.19031 0.41458,-0.40417 0.56988,-0.6337 -0.004,-1.0743 -0.006,-2.14845 0.0388,-3.21978 0.0425,-0.78715 0.0116,-0.82245 1.22153,-0.90116 0.24331,-0.68511 0.59936,-1.32909 1.25649,-1.84689 1.34127,-2.2587 1.94442,-4.80877 2.36385,-7.39588 -0.0433,-0.0396 -0.0812,-0.0835 -0.12668,-0.12123 -1.00083,-0.83103 -0.99008,-0.87 -0.0446,-1.89916 0.20787,-0.26897 0.39559,-0.55008 0.59072,-0.82676 0.085,-0.61139 0.16743,-1.22689 0.26201,-1.8286 0.48719,-4.43955 0.77506,-9.02818 -0.36175,-13.38553 -0.66078,-2.45127 -4.82031,-3.26395 -3.74316,-6.15576 1.61076,-2.45334 3.83021,-4.88281 3.73001,-8.08026 -0.0288,-1.06159 -0.20318,-2.1449 -0.36687,-3.1829 -0.0484,-0.0652 -0.0928,-0.13346 -0.14175,-0.1982 C 68.058285,21.39072 61.630364,17.401431 54.700092,16.10159 52.634743,15.704606 50.564939,15.533183 48.43562,15.581421 Z" /><g
         id="g13"
         transform="matrix(0.62058454,0,0,0.62058454,-13.981736,-42.997222)"><ellipse
           style="opacity:1;fill:#000000;fill-opacity:1;stroke-width:1.00181;stroke-linecap:round;stroke-linejoin:round;filter:url(#filter11)"
           id="path7"
           cx="83.939064"
           cy="149.09271"
           rx="15.544271"
           ry="15.478126" /><ellipse
           style="opacity:1;fill:#99c9ff;fill-opacity:1;stroke-width:0.462445;stroke-linecap:round;stroke-linejoin:round;filter:url(#filter10)"
           id="ellipse7"
           cx="84.005219"
           cy="149.12578"
           rx="7.2098966"
           ry="7.1106772" /><ellipse
           style="opacity:1;fill:#ffffff;fill-opacity:1;stroke-width:0.0851417;stroke-linecap:round;stroke-linejoin:round;filter:url(#filter12)"
           id="ellipse8"
           cx="81.111351"
           cy="145.76059"
           rx="1.3559904"
           ry="1.2815758" /><path
           style="color:#000000;opacity:1;fill:#5298ee;fill-opacity:1;stroke-linecap:round;stroke-linejoin:round;-inkscape-stroke:none;filter:url(#filter13)"
           d="m 89.261719,147.23633 a 0.46704349,0.46704349 0 0 0 -0.326172,0.57422 c 0.510532,1.84528 -0.0978,3.8109 -1.576172,5.06836 -1.478376,1.25745 -3.564477,1.57685 -5.367188,0.82031 a 0.46704349,0.46704349 0 0 0 -0.611328,0.25 0.46704349,0.46704349 0 0 0 0.25,0.61133 c 2.126289,0.89233 4.585223,0.51673 6.333985,-0.97071 1.748762,-1.48743 2.478312,-3.8326 1.871093,-6.02734 a 0.46704349,0.46704349 0 0 0 -0.574218,-0.32617 z"
           id="path8" /></g><g
         id="g15"
         transform="matrix(0.62058454,0,0,0.62058454,8.102669,-42.997222)"><ellipse
           style="opacity:1;fill:#000000;fill-opacity:1;stroke-width:1.00181;stroke-linecap:round;stroke-linejoin:round;filter:url(#filter11)"
           id="ellipse13"
           cx="83.939064"
           cy="149.09271"
           rx="15.544271"
           ry="15.478126" /><ellipse
           style="opacity:1;fill:#99c9ff;fill-opacity:1;stroke-width:0.462445;stroke-linecap:round;stroke-linejoin:round;filter:url(#filter10)"
           id="ellipse14"
           cx="84.005219"
           cy="149.12578"
           rx="7.2098966"
           ry="7.1106772" /><ellipse
           style="opacity:1;fill:#ffffff;fill-opacity:1;stroke-width:0.0851417;stroke-linecap:round;stroke-linejoin:round;filter:url(#filter12)"
           id="ellipse15"
           cx="81.111351"
           cy="145.76059"
           rx="1.3559904"
           ry="1.2815758" /><path
           style="color:#000000;opacity:1;fill:#5298ee;fill-opacity:1;stroke-linecap:round;stroke-linejoin:round;-inkscape-stroke:none;filter:url(#filter13)"
           d="m 89.261719,147.23633 a 0.46704349,0.46704349 0 0 0 -0.326172,0.57422 c 0.510532,1.84528 -0.0978,3.8109 -1.576172,5.06836 -1.478376,1.25745 -3.564477,1.57685 -5.367188,0.82031 a 0.46704349,0.46704349 0 0 0 -0.611328,0.25 0.46704349,0.46704349 0 0 0 0.25,0.61133 c 2.126289,0.89233 4.585223,0.51673 6.333985,-0.97071 1.748762,-1.48743 2.478312,-3.8326 1.871093,-6.02734 a 0.46704349,0.46704349 0 0 0 -0.574218,-0.32617 z"
           id="path15" /></g><path
         id="path9"
         style="color:#000000;opacity:1;fill:#ebcab5;fill-opacity:1;stroke-width:0.620585;stroke-linecap:round;stroke-linejoin:round;-inkscape-stroke:none"
         d="m 40.034686,36.188067 a 0.45892226,0.45892226 0 0 0 -0.461802,0.4557 0.45892226,0.45892226 0 0 0 0.455709,0.4618 c 3.804142,0.026 7.188371,2.10389 8.575411,5.20266 a 0.45892226,0.45892226 0 0 0 0.01058,0.0228 c 8.57e-4,0.002 0.0017,0.004 0.0026,0.006 a 0.45892226,0.45892226 0 0 0 0.0096,0.0138 0.45892226,0.45892226 0 0 0 0.09075,0.12859 0.45892226,0.45892226 0 0 0 0.03303,0.0234 0.45892226,0.45892226 0 0 0 0.09685,0.0683 0.45892226,0.45892226 0 0 0 0.01667,0.004 0.45892226,0.45892226 0 0 0 0.07055,0.0157 0.45892226,0.45892226 0 0 0 0.101018,0.0173 0.45892226,0.45892226 0 0 0 0.09974,-0.0173 0.45892226,0.45892226 0 0 0 0.07183,-0.016 0.45892226,0.45892226 0 0 0 0.01604,-0.004 0.45892226,0.45892226 0 0 0 0.247899,-0.27163 c 1.389607,-3.0937 4.770849,-5.16772 8.571241,-5.19368 a 0.45892226,0.45892226 0 0 0 0.455707,-0.4618 0.45892226,0.45892226 0 0 0 -0.461802,-0.4557 c -3.80844,0.026 -7.267051,1.94027 -9.00097,4.95058 -1.733941,-3.01027 -5.192249,-4.92458 -9.000655,-4.95058 z" /><path
         style="opacity:1;fill:#000000;fill-opacity:1;stroke:none;stroke-width:1.479;stroke-linecap:round;stroke-linejoin:round;stroke-dasharray:none;stroke-opacity:1;filter:url(#filter16)"
         d="m 101.58915,160.40515 c -1.15764,2.05797 -2.221683,5.2151 -2.490623,5.94006 -0.22216,0.59887 -0.479414,1.35639 -0.666504,2.03459 -0.187086,0.6782 -0.233859,1.08745 -0.198779,1.3447 0.09185,0.67357 0.549572,0.90036 1.134224,0.57296 0.584653,-0.32741 0.806812,-0.50281 1.169302,-0.86529 0.32824,-0.32824 1.13423,-1.11084 1.13423,-1.11084 0.32818,0.38685 0.53861,0.60119 1.3447,1.29793 0.51295,0.44337 1.3447,0.95883 1.73057,0.72497 0.26076,-0.15803 0.42095,-0.37418 0.35079,-0.93544 -0.0702,-0.56127 -0.16371,-1.30962 -0.60804,-2.50231 -0.77087,-2.26398 -1.72422,-4.4225 -2.89987,-6.50133 z"
         id="path16"
         sodipodi:nodetypes="cssssscssssc"
         transform="matrix(0.62058454,0,0,0.62058454,-13.981736,-42.997222)" /></g></g></svg>
