<?xml version="1.0" encoding="UTF-8" standalone="no"?>
<!-- Created with Inkscape (http://www.inkscape.org/) -->

<svg
   width="210mm"
   height="297mm"
   viewBox="0 0 210 297"
   version="1.1"
   id="svg5"
   xml:space="preserve"
   inkscape:version="1.2.2 (732a01da63, 2022-12-09)"
   sodipodi:docname="spaceship.svg"
   xmlns:inkscape="http://www.inkscape.org/namespaces/inkscape"
   xmlns:sodipodi="http://sodipodi.sourceforge.net/DTD/sodipodi-0.dtd"
   xmlns:xlink="http://www.w3.org/1999/xlink"
   xmlns="http://www.w3.org/2000/svg"
   xmlns:svg="http://www.w3.org/2000/svg"><sodipodi:namedview
     id="namedview7"
     pagecolor="#ffffff"
     bordercolor="#666666"
     borderopacity="1.0"
     inkscape:showpageshadow="2"
     inkscape:pageopacity="0.0"
     inkscape:pagecheckerboard="0"
     inkscape:deskcolor="#d1d1d1"
     inkscape:document-units="mm"
     showgrid="false"
     showguides="true"
     inkscape:zoom="0.71381226"
     inkscape:cx="236.05647"
     inkscape:cy="422.37997"
     inkscape:window-width="1920"
     inkscape:window-height="1058"
     inkscape:window-x="-8"
     inkscape:window-y="-8"
     inkscape:window-maximized="1"
     inkscape:current-layer="g2011" /><defs
     id="defs2"><linearGradient
       inkscape:collect="always"
       id="linearGradient17663"><stop
         style="stop-color:#a49c9c;stop-opacity:1;"
         offset="0"
         id="stop17659" /><stop
         style="stop-color:#ffffff;stop-opacity:0;"
         offset="1"
         id="stop17661" /></linearGradient><linearGradient
       inkscape:collect="always"
       id="linearGradient17560"><stop
         style="stop-color:#baa8a8;stop-opacity:1;"
         offset="0"
         id="stop17556" /><stop
         style="stop-color:#ffffff;stop-opacity:0;"
         offset="1"
         id="stop17558" /></linearGradient><inkscape:path-effect
       effect="mirror_symmetry"
       start_point="101.09822,34.874357"
       end_point="101.09822,86.308893"
       center_point="101.09822,60.591625"
       id="path-effect10069"
       is_visible="true"
       lpeversion="1.2"
       lpesatellites=""
       mode="free"
       discard_orig_path="false"
       fuse_paths="false"
       oposite_fuse="false"
       split_items="false"
       split_open="false"
       link_styles="false" /><inkscape:path-effect
       effect="mirror_symmetry"
       start_point="101.11217,34.86187"
       end_point="101.11217,108.50334"
       center_point="101.11217,71.682605"
       id="path-effect1986"
       is_visible="true"
       lpeversion="1.2"
       lpesatellites=""
       mode="free"
       discard_orig_path="false"
       fuse_paths="false"
       oposite_fuse="false"
       split_items="false"
       split_open="false"
       link_styles="false" /><inkscape:path-effect
       effect="mirror_symmetry"
       start_point="101.00091,34.92763"
       end_point="101.00091,86.309265"
       center_point="101.00091,60.618447"
       id="path-effect1100"
       is_visible="true"
       lpeversion="1.2"
       lpesatellites=""
       mode="free"
       discard_orig_path="false"
       fuse_paths="false"
       oposite_fuse="false"
       split_items="false"
       split_open="false"
       link_styles="false" /><filter
       inkscape:collect="always"
       style="color-interpolation-filters:sRGB"
       id="filter17374"
       x="-0.26608533"
       y="-0.26608533"
       width="1.5321707"
       height="1.5321707"><feGaussianBlur
         inkscape:collect="always"
         stdDeviation="0.18999672"
         id="feGaussianBlur17376" /></filter><filter
       inkscape:collect="always"
       style="color-interpolation-filters:sRGB"
       id="filter17396"
       x="-0.35580316"
       y="-0.35580316"
       width="1.7116063"
       height="1.7116063"><feGaussianBlur
         inkscape:collect="always"
         stdDeviation="0.25405922"
         id="feGaussianBlur17394" /></filter><filter
       inkscape:collect="always"
       style="color-interpolation-filters:sRGB"
       id="filter17492"
       x="-0.077446484"
       y="-0.048256561"
       width="1.154893"
       height="1.0965131"><feGaussianBlur
         inkscape:collect="always"
         stdDeviation="0.40262844"
         id="feGaussianBlur17494" /></filter><linearGradient
       inkscape:collect="always"
       xlink:href="#linearGradient17560"
       id="linearGradient17562"
       x1="103.22947"
       y1="53.560711"
       x2="112.95935"
       y2="60.139965"
       gradientUnits="userSpaceOnUse" /><linearGradient
       inkscape:collect="always"
       xlink:href="#linearGradient17663"
       id="linearGradient17653"
       gradientUnits="userSpaceOnUse"
       x1="100.7275"
       y1="54.765362"
       x2="110.17938"
       y2="58.008656"
       gradientTransform="translate(-0.64865912,22.332407)" /><filter
       inkscape:collect="always"
       style="color-interpolation-filters:sRGB"
       id="filter17657"
       x="-0.076477008"
       y="-0.047432982"
       width="1.152954"
       height="1.094866"><feGaussianBlur
         inkscape:collect="always"
         stdDeviation="0.39758833"
         id="feGaussianBlur17655" /></filter></defs><g
     inkscape:label="Layer 1"
     inkscape:groupmode="layer"
     id="layer1"><g
       id="g2011"
       inkscape:label="Spaceship"><rect
         style="display:inline;opacity:1;fill:#000230;fill-opacity:1;stroke:none;stroke-width:0.4;stroke-linecap:round;stroke-linejoin:round;stroke-dashoffset:5.21575;stroke-opacity:1"
         id="rect10076"
         width="112.31069"
         height="115.64664"
         x="9.488265"
         y="7.7839084" /><ellipse
         style="opacity:1;fill:#001958;fill-opacity:1;stroke:none;stroke-width:0.4;stroke-linecap:round;stroke-linejoin:round;stroke-dashoffset:5.21575;stroke-opacity:1"
         id="path11588"
         cx="93.837982"
         cy="7.2355185"
         rx="43.27483"
         ry="43.182159"
         transform="rotate(41.366338)" /><path
         id="path11593"
         style="opacity:1;fill:#003260;fill-opacity:1;stroke:none;stroke-width:0.4;stroke-linecap:round;stroke-linejoin:round;stroke-dashoffset:5.21575;stroke-opacity:1"
         d="M 70.445429,70.685668 62.386438,63.712375 49.518965,75.772686 a 9.4425764,9.173893 41.366338 0 0 -3.227067,-7.960435 9.4425764,9.173893 41.366338 0 0 -13.149753,0.644676 9.4425764,9.173893 41.366338 0 0 -0.222146,0.272605 7.9027514,9.173893 41.366338 0 0 -1.848101,-2.620291 7.9027514,9.173893 41.366338 0 0 -4.943565,-1.751113 7.9027514,9.173893 41.366338 0 0 -1.449642,-9.727916 7.9027514,9.173893 41.366338 0 0 -0.261323,-0.194298 43.27483,43.182159 41.366338 0 0 12.688431,45.417292 43.27483,43.182159 41.366338 0 0 39.54899,9.403514 7.6078916,7.0771108 41.366338 0 0 -2.67084,-5.27275 7.6078916,7.0771108 41.366338 0 0 -6.923359,-1.79235 7.6078916,7.0771108 41.366338 0 0 -1.429357,-9.840874 7.6078916,7.0771108 41.366338 0 0 -0.95867,-0.7223 6.4939756,6.6184387 41.366338 0 0 -0.854458,-8.81959 6.4939756,6.6184387 41.366338 0 0 -1.05896,-0.75072 z" /><path
         id="path10574"
         style="display:inline;opacity:1;fill:#c5c6c5;fill-opacity:1;stroke:none;stroke-width:0.4;stroke-linecap:round;stroke-linejoin:round;stroke-dashoffset:5.21575;stroke-opacity:1"
         d="M 60.508625,70.33187 45.47936,83.562996 c 0.599407,-2.23197 -0.06027,-4.54101 -1.713212,-5.99665 -1.845209,-1.62354 -4.563283,-1.86961 -6.833817,-0.61868 -0.424463,-1.00002 -1.079141,-1.90369 -1.908286,-2.63405 -2.72725,-2.39888 -6.700051,-2.4275 -9.059232,-0.0651 -0.32832,-0.45968 -0.709829,-0.8819 -1.135777,-1.25698 -0.653757,-0.56902 -1.400537,-1.01897 -2.200881,-1.3259 1.090218,10.88064 6.263454,20.95277 14.477644,28.18755 8.377424,7.366294 19.269409,11.220504 30.403769,10.757564 -0.09145,-1.53099 -0.7589,-2.92584 -1.867688,-3.90311 -1.014833,-0.8923 -2.33243,-1.37694 -3.728016,-1.37135 0.468402,-1.86594 0.05047,-3.59521 -1.117451,-4.62373 -0.66933,-0.5888 -1.547121,-0.913224 -2.531997,-0.935814 0.0992,-0.0969 0.194902,-0.19728 0.286962,-0.30091 2.299608,-2.61181 3.020366,-5.48893 0.216712,-7.95785 -1.996945,-1.7558 -4.365764,-2.15369 -6.67806,-1.18085 L 64.280641,73.900166 Z M 47.031913,93.325746 c -0.04131,0.20322 -0.07248,0.40902 -0.09339,0.61666 l -0.237736,-0.20935 z"
         sodipodi:nodetypes="ccccccccccccccccccccccc" /><path
         id="path495"
         style="opacity:1;fill:#ffffff;fill-opacity:1;stroke:none;stroke-width:0.4;stroke-linecap:round;stroke-linejoin:round;stroke-dashoffset:5.21575;stroke-opacity:1"
         d="m 99.151639,20.26811 c -7.99414,1.88311 -15.5309,6.996508 -21.39521,15.481217 -3.99635,5.782076 -9.11831,14.514115 -9.11831,14.514115 0,0 1.225111,3.153777 2.246823,4.349899 2.022437,2.677434 4.258797,4.343988 6.824277,6.009288 1.31576,0.862198 4.59918,1.678521 4.59918,1.678521 0,0 8.01398,-6.185402 13.24407,-10.881082 7.674711,-6.890513 11.793641,-15.013558 12.650371,-23.181694 0.502,-4.785953 -0.21046,-8.766862 -0.25855,-8.830891 -0.0481,-0.06403 -4.10864,-0.242746 -8.792651,0.860627 z"
         sodipodi:nodetypes="ssccccsscs" /><ellipse
         style="opacity:1;fill:#4e1c16;fill-opacity:1;stroke-width:0.4;stroke-linecap:round;stroke-linejoin:round;stroke-dashoffset:5.21575"
         id="path1177"
         cx="93.779373"
         cy="-38.433384"
         rx="5.8197246"
         ry="5.8195"
         transform="rotate(41.366338)" /><path
         id="ellipse1179"
         style="opacity:1;fill:#00c6ff;fill-opacity:1;stroke:none;stroke-width:0.4;stroke-linecap:round;stroke-linejoin:round;stroke-dashoffset:5.21575;stroke-opacity:1"
         d="m 98.643039,29.651834 c -2.34718,-2.093622 -6.74275,-0.665892 -7.24487,2.495451 -0.59024,2.526377 1.38205,5.394932 4.04711,5.458476 2.50168,0.222481 4.994161,-1.954472 4.830331,-4.523973 -0.0147,-1.30493 -0.595881,-2.61901 -1.632571,-3.429954 z" /><path
         id="rect10442"
         style="opacity:0.280277;fill:#b0b0b0;fill-opacity:1;stroke:none;stroke-width:0.4;stroke-linecap:round;stroke-linejoin:round;stroke-dashoffset:5.21575;stroke-opacity:1"
         d="M 107.9635,19.493594 74.073299,57.980037 c 1.13856,0.966781 2.34547,1.80494 3.63592,2.642592 1.31576,0.862198 4.59918,1.678521 4.59918,1.678521 0,0 8.01398,-6.185407 13.24407,-10.881082 7.674701,-6.890511 11.793651,-15.013563 12.650371,-23.181694 0.47524,-4.530849 -0.13183,-8.297243 -0.23934,-8.74478 z" /><path
         style="opacity:1;fill:#ff6e00;fill-opacity:1;stroke:none;stroke-width:0.4;stroke-linecap:round;stroke-linejoin:round;stroke-dashoffset:5.21575;stroke-opacity:1"
         d="m 91.752399,52.453867 c 0.60777,3.93297 1.53384,7.145201 0.44649,8.49812 -1.64646,2.048567 -7.03995,6.900157 -7.03995,6.900157 0,0 -0.16027,-5.091725 -0.15885,-9.471531 2.48858,-1.532517 4.84308,-3.708828 6.75231,-5.926746 z"
         id="path1998" /><path
         style="opacity:1;fill:#ff6e00;fill-opacity:1;stroke:none;stroke-width:0.4;stroke-linecap:round;stroke-linejoin:round;stroke-dashoffset:5.21575;stroke-opacity:1"
         d="m 77.232569,39.668072 c -3.97825,-0.105371 -7.281827,-0.617654 -8.486324,0.632106 -1.823838,1.892374 -5.954186,7.856249 -5.954186,7.856249 0,0 5.071096,-0.485111 9.41554,-1.04056 1.20541,-2.662445 3.06639,-5.273335 5.02497,-7.447795 z"
         id="path1189" /><path
         style="opacity:1;fill:#f75d0b;fill-opacity:1;stroke:none;stroke-width:0.4;stroke-linecap:round;stroke-linejoin:round;stroke-dashoffset:5.21575;stroke-opacity:1"
         d="m 59.80644,66.185346 c 0.892028,-2.721437 2.537417,-5.546385 4.872775,-6.93385 1.693828,-1.006324 5.33213,-1.839379 8.057714,0.159339 2.32745,2.450858 1.96133,6.165311 1.17735,7.972827 -1.0809,2.49211 -3.675011,4.481634 -6.261744,5.710764 -2.618486,1.2442 -6.793236,1.98248 -8.300857,1.51699 -0.652466,-1.43662 -0.448216,-5.671227 0.454762,-8.42607 z"
         id="path1944"
         sodipodi:nodetypes="sscsscs" /><path
         style="opacity:1;fill:#ffd340;fill-opacity:1;stroke:none;stroke-width:0.4;stroke-linecap:round;stroke-linejoin:round;stroke-dashoffset:5.21575;stroke-opacity:1"
         d="m 66.134569,59.351463 c -1.162971,0.675985 -2.075927,1.720245 -2.825327,2.822827 -0.81081,1.429999 -1.224596,2.879713 -1.568311,4.477505 -0.211051,1.576047 -0.0068,3.382454 0.23999,4.973801 1.609774,0.0435 3.427511,0.0176 4.964199,-0.39112 1.54148,-0.543073 2.927206,-1.136921 4.243149,-2.122112 0.99893,-0.882856 1.91931,-1.920574 2.44275,-3.159714 0.6896,-2.397553 0.33816,-3.960661 -1.11138,-6.295052 -2.499003,-1.142595 -4.094011,-1.293482 -6.38507,-0.306135 z"
         id="path1946"
         sodipodi:nodetypes="ccccccccc" /><path
         style="opacity:1;fill:#fff2a8;fill-opacity:1;stroke:none;stroke-width:0.4;stroke-linecap:round;stroke-linejoin:round;stroke-dashoffset:5.21575;stroke-opacity:1"
         d="m 65.261651,64.483864 c 0.502832,-2.351998 2.652059,-4.360005 4.695115,-4.868707 0.876131,-0.157709 1.515003,-0.06182 2.367313,0.264533 0.43155,0.804186 0.60748,1.425792 0.56187,2.314835 -0.24617,2.090996 -1.966167,4.476968 -4.235661,5.273287 -1.148228,0.425687 -2.32238,0.668126 -3.572931,0.641415 -0.18469,-1.237125 -0.09273,-2.432513 0.184294,-3.625363 z"
         id="path1948"
         sodipodi:nodetypes="ccccccc" /><path
         id="path1968"
         style="opacity:1;fill:#863700;fill-opacity:1;stroke:none;stroke-width:0.4;stroke-linecap:round;stroke-linejoin:round;stroke-dashoffset:5.21575;stroke-opacity:1"
         d="m 70.884942,54.613341 c -1.021714,-1.196123 -2.246823,-4.349899 -2.246823,-4.349899 0,0 0.58705,-1.032568 1.479413,-2.551139 l -3.2e-5,3.6e-5 c 0.195825,0.794745 0.425215,1.649605 0.63978,2.24484 0.509007,1.412049 1.075409,2.261263 2.289349,3.768326 1.57049,2.159948 3.26056,3.455242 5.29079,4.658939 1.64851,1.013532 2.56255,1.467964 4.02764,1.794258 0.6176,0.137549 1.49461,0.256957 2.30775,0.350675 l 3e-5,-3.7e-5 c -1.39349,1.077294 -2.34351,1.790242 -2.34351,1.790242 0,0 -3.28341,-0.816316 -4.59917,-1.678515 -2.92953,-1.664006 -4.73741,-3.538458 -6.845217,-6.027726 z"
         sodipodi:nodetypes="ccccsccsccccc" /><path
         id="path1118"
         style="display:inline;opacity:1;fill:#ff6e00;fill-opacity:1;stroke:none;stroke-width:0.4;stroke-linecap:round;stroke-linejoin:round;stroke-dashoffset:5.21575;stroke-opacity:1"
         d="m 108.01914,19.343596 c 0,0 -5.06051,-0.459884 -8.412451,0.831522 -0.0286,0.011 -0.0558,0.02218 -0.0843,0.03318 -1.1e-4,0.05166 5.9e-4,0.100468 0.004,0.142867 0.1029,1.492554 0.42584,3.003735 1.051141,3.992464 0.8379,1.313672 1.81247,2.379567 3.42364,3.014769 1.09222,0.430609 2.59978,0.624386 4.09336,0.537662 0.0424,-0.0025 0.0909,-0.0079 0.14213,-0.01462 0.007,-0.02965 0.015,-0.05805 0.0223,-0.08779 0.85701,-3.488386 -0.23933,-8.450071 -0.23933,-8.450071 z" /><path
         style="opacity:1;fill:#ff6e00;fill-opacity:1;stroke:none;stroke-width:0.4;stroke-linecap:round;stroke-linejoin:round;stroke-dashoffset:5.21575;stroke-opacity:1"
         d="m 68.159103,64.252623 c 0.02708,-0.364158 9.944726,-14.291808 11.597136,-15.990994 2.60907,-1.49203 4.58213,-2.657789 4.58213,-2.657789 l 0.5887,-0.03639 0.0384,0.588578 c 0,0 -0.9068,2.104683 -2.0568,4.881528 -1.47651,1.854081 -14.037704,13.453892 -14.395511,13.526817 -0.08749,0.0178 -0.328073,0.01567 -0.328073,0.01567 0,0 -0.03257,-0.238402 -0.02595,-0.32742 z"
         id="path1929"
         sodipodi:nodetypes="scccccscs" /><circle
         style="opacity:1;mix-blend-mode:normal;fill:#ffffff;fill-opacity:1;stroke:none;stroke-width:0.350846;stroke-linecap:round;stroke-linejoin:round;stroke-dashoffset:5.21575;stroke-opacity:1;filter:url(#filter17374)"
         id="path14643"
         cx="70.356041"
         cy="103.90098"
         r="0.85685319"
         transform="matrix(0.85564452,0.75345915,-0.75345915,0.85564452,57.396169,-91.081191)" /><circle
         style="opacity:1;fill:#ffffff;fill-opacity:1;stroke:none;stroke-width:0.506424;stroke-linecap:round;stroke-linejoin:round;stroke-dashoffset:5.21575;stroke-opacity:1;filter:url(#filter17374)"
         id="circle17378"
         cx="73.285683"
         cy="78.078888"
         r="0.85685319"
         transform="matrix(0.59278193,0.52198892,-0.52198892,0.59278193,55.88844,-51.149907)" /><circle
         style="opacity:1;fill:#d0d0d0;fill-opacity:1;stroke:none;stroke-width:0.399999;stroke-linecap:round;stroke-linejoin:round;stroke-dashoffset:5.21575;stroke-opacity:1;filter:url(#filter17374)"
         id="circle17380"
         cx="89.224167"
         cy="107.17588"
         r="0.85685319"
         transform="rotate(41.366338,125.11798,36.250281)" /><circle
         style="opacity:1;fill:#ffffff;fill-opacity:1;stroke:none;stroke-width:0.506424;stroke-linecap:round;stroke-linejoin:round;stroke-dashoffset:5.21575;stroke-opacity:1;filter:url(#filter17374)"
         id="circle17382"
         cx="117.76517"
         cy="100.13329"
         r="0.85685319"
         transform="matrix(0.59278193,0.52198892,-0.52198892,0.59278193,59.840674,-41.494135)" /><circle
         style="opacity:1;fill:#ffffff;fill-opacity:1;stroke:none;stroke-width:0.399999;stroke-linecap:round;stroke-linejoin:round;stroke-dashoffset:5.21575;stroke-opacity:1;filter:url(#filter17374)"
         id="circle17384"
         cx="117.02384"
         cy="65.291031"
         r="0.85685319"
         transform="rotate(41.366338,125.11798,36.250281)" /><circle
         style="opacity:1;fill:#ffffff;fill-opacity:1;stroke:none;stroke-width:0.395248;stroke-linecap:round;stroke-linejoin:round;stroke-dashoffset:5.21575;stroke-opacity:1;filter:url(#filter17396)"
         id="circle17386"
         cx="132.96233"
         cy="115.33045"
         r="0.85685319"
         transform="matrix(0.7595195,0.66881386,-0.66881386,0.7595195,54.890489,-75.738765)" /><circle
         style="opacity:1;fill:#ffffff;fill-opacity:1;stroke:none;stroke-width:0.399999;stroke-linecap:round;stroke-linejoin:round;stroke-dashoffset:5.21575;stroke-opacity:1;filter:url(#filter17374)"
         id="circle17388"
         cx="129.25571"
         cy="89.754745"
         r="0.85685319"
         transform="rotate(41.366338,125.11798,36.250281)" /><circle
         style="opacity:1;mix-blend-mode:normal;fill:#a7a7a7;fill-opacity:1;stroke:none;stroke-width:0.399999;stroke-linecap:round;stroke-linejoin:round;stroke-dashoffset:5.21575;stroke-opacity:1;filter:url(#filter17374)"
         id="circle17390"
         cx="84.626541"
         cy="92.410446"
         r="0.85685319"
         transform="rotate(41.366338,125.11798,36.250281)" /><circle
         style="opacity:1;fill:#928d8d;fill-opacity:1;stroke:none;stroke-width:0.399999;stroke-linecap:round;stroke-linejoin:round;stroke-dashoffset:5.21575;stroke-opacity:1;filter:url(#filter17374)"
         id="circle17392"
         cx="123.69576"
         cy="75.298912"
         r="0.85685319"
         transform="rotate(41.366338,125.11798,36.250281)" /><path
         id="rect17489"
         style="opacity:0.510274;fill:url(#linearGradient17562);fill-opacity:1;stroke-width:0.4;stroke-linecap:round;stroke-linejoin:round;stroke-dashoffset:5.21575;filter:url(#filter17492)"
         d="m 102.38624,47.671377 c 4.25251,-0.01143 10.58044,7.13525 10.58044,7.13525 3.06444,13.913641 1.51354,9.117857 1.43632,12.889128 0,0 -9.56112,-7.598578 -11.87776,-8.710565 5.46727,-1.99231 6.39392,-9.136172 -0.139,-11.313813 z"
         sodipodi:nodetypes="ccccc"
         transform="rotate(41.366338,125.11798,36.250281)" /><path
         id="path17651"
         style="opacity:0.510274;fill:url(#linearGradient17653);fill-opacity:1;stroke-width:0.4;stroke-linecap:round;stroke-linejoin:round;stroke-dashoffset:5.21575;filter:url(#filter17657)"
         d="m 101.73758,69.911118 c 4.25251,-0.01143 10.58044,7.227916 10.58044,7.227916 3.06444,13.913641 1.51354,9.117857 1.43632,12.889128 0,0 -9.56112,-7.598578 -11.87776,-8.710565 2.9653,-7.737577 0.27799,-5.892876 -0.139,-11.406479 z"
         sodipodi:nodetypes="ccccc"
         transform="rotate(41.366338,125.11798,36.250281)" /></g></g></svg>
