<?xml version="1.0" encoding="UTF-8" standalone="no"?>
<!-- Created with Inkscape (http://www.inkscape.org/) -->

<svg
   width="210mm"
   height="297mm"
   viewBox="0 0 210 297"
   version="1.1"
   id="svg1"
   xml:space="preserve"
   inkscape:version="1.4 (86a8ad7, 2024-10-11)"
   sodipodi:docname="sun.svg"
   xmlns:inkscape="http://www.inkscape.org/namespaces/inkscape"
   xmlns:sodipodi="http://sodipodi.sourceforge.net/DTD/sodipodi-0.dtd"
   xmlns="http://www.w3.org/2000/svg"
   xmlns:svg="http://www.w3.org/2000/svg"><sodipodi:namedview
     id="namedview1"
     pagecolor="#ffffff"
     bordercolor="#000000"
     borderopacity="0.25"
     inkscape:showpageshadow="2"
     inkscape:pageopacity="0.0"
     inkscape:pagecheckerboard="0"
     inkscape:deskcolor="#d1d1d1"
     inkscape:document-units="mm"
     inkscape:zoom="2.0935045"
     inkscape:cx="158.58576"
     inkscape:cy="211.36807"
     inkscape:window-width="2560"
     inkscape:window-height="1377"
     inkscape:window-x="1272"
     inkscape:window-y="-8"
     inkscape:window-maximized="1"
     inkscape:current-layer="layer1" /><defs
     id="defs1" /><g
     inkscape:label="Layer 1"
     inkscape:groupmode="layer"
     id="layer1"><path
       style="fill:#9b2d16;stroke-linecap:round;stroke-miterlimit:2.1;paint-order:stroke markers fill"
       d="m 57.199219,8.109375 c -24.797285,0 -44.925781,20.128496 -44.925781,44.925781 0,24.797285 20.128496,44.927735 44.925781,44.927735 24.797285,0 44.925781,-20.13045 44.925781,-44.927735 0,-24.797285 -20.128496,-44.925781 -44.925781,-44.925781 z m 0,2.476563 c 23.459577,0 42.451172,18.989641 42.451172,42.449218 0,23.459577 -18.991595,42.451172 -42.451172,42.451172 -23.459577,0 -42.451172,-18.991595 -42.451172,-42.451172 0,-23.459577 18.991595,-42.449218 42.451172,-42.449218 z"
       id="path33" /><g
       id="g34"
       inkscape:label="Sun"><g
         id="g33"
         transform="matrix(0.48933068,0,0,0.48933068,16.315259,0.67110429)"><g
           id="g32"><path
             id="path1"
             style="fill:#9b2d16;fill-opacity:1"
             d="m 88.107816,27.947456 c -9.119445,-0.601769 -14.885897,6.931195 -13.57385,19.450493 -0.82684,8.972775 -3.14323,-2.753319 -7.777819,-2.850989 -11.10231,0.914805 -1.05081,-14.300709 -6.31435,-10.957988 -9.051935,4.596942 -3.44366,15.764174 -7.404715,23.237342 -3.09165,-0.0461 -12.282769,-3.536569 -19.070671,-2.72645 -8.147146,0.972341 -16.346574,13.058674 -9.47178,9.001 8.12417,-5.16064 9.21996,8.59908 5.18883,9.89552 -7.50334,4.56038 -20.9480401,-2.222562 -24.0242001,8.894358 4.9162371,0.950591 24.1591791,5.452484 27.9831971,12.80311 -2.616614,3.079281 -15.807406,0.121401 -19.863446,6.641868 -4.0878998,7.24733 -12.7606298,-6.614467 -10.9962298,1.70326 1.7084,10.79929 13.1866098,15.74688 22.9024788,16.9199 -5.645879,2.68125 -3.68,13.97622 -12.149649,11.83648 -6.3421598,-3.36473 -1.23981,3.34548 1.39423,4.25504 7.677569,4.08855 14.273329,-4.35103 22.305099,-1.19217 -3.12187,-0.28387 -11.22666,7.98184 -10.40918,14.98306 -0.77268,11.01906 7.3746,-4.84818 13.25035,-2.75797 -2.85718,4.70701 5.390611,14.84533 -2.21795,18.76113 -5.75122,0.51827 -2.81366,2.887 1.1436,3.23908 9.504171,0.84262 11.639031,-12.16814 21.583696,-10.51409 -1.8933,7.07206 -11.035565,16.73361 -0.3917,22.12165 -1.91527,-6.57274 3.62731,-12.4398 10.371459,-13.93404 1.91366,1.23661 4.4473,8.18343 8.83873,9.57358 5.57354,4.12765 -4.46184,8.93968 -2.78639,9.61543 2.84079,0.72971 10.529245,-0.7843 14.069381,-7.7031 4.578685,-8.94854 2.39131,-7.4527 5.22453,-14.77873 1.6963,6.30276 6.607713,10.64319 12.174973,13.67152 3.4243,7.62874 6.46005,0.94294 3.46181,-3.94808 -6.54998,-3.92079 0.0503,-19.46885 5.52782,-10.23607 8.3312,4.19475 20.17104,3.36373 26.65574,-3.85454 -5.42059,1.45538 -11.75887,-4.1758 -11.30267,-13.15476 0.35596,-7.00621 2.47942,-1.6123 6.12624,-2.08359 8.31192,0.96143 19.28808,-3.74181 19.68045,-13.12581 0.14058,-2.47455 -5.42241,4.2425 -10.24434,0.24029 -5.11823,-4.18933 -14.03282,-11.98466 -1.0976,-9.86348 7.39552,0.57613 9.95322,-15.5025 17.55655,-7.25485 1.26926,-10.0367 -9.79307,-10.40652 -15.89929,-13.36405 -0.93065,-3.159597 -10.808,-4.756967 -7.51479,-5.156777 8.25581,0.58868 16.46886,-7.36512 14.08131,-15.774739 -2.2033,3.953889 -7.89898,7.026809 -12.48399,3.890719 -2.31987,-3.609209 -16.33233,0.68461 -8.28528,-2.302179 10.31138,-1.04976 14.04351,-14.68579 8.95811,-22.59501 -2.37752,-1.07994 -4.1893,8.769366 -9.68985,10.56525 -6.56677,2.14451 -2.11658,-3.16358 -2.16628,-6.82905 1.36213,-6.63097 -3.30142,-19.696116 -9.26041,-18.101215 6.1447,9.786175 -7.4968,9.978965 -12.28038,14.544335 -0.36917,-7.446687 7.62873,-16.376096 -0.90021,-22.384167 -6.43753,-4.411627 -0.53995,3.193621 -2.72903,6.426998 -1.35366,1.999413 -8.241283,10.141319 -8.912123,5.715413 -0.94925,-7.458555 -17.157157,-9.187796 -10.158551,-17.540531 1.084923,-1.294841 3.439511,-2.834707 0.89814,-3.002401 z"
             sodipodi:nodetypes="sccccscccccccccccccccccccscccccsccccccccccccccccscss" /><path
             id="path3"
             style="fill:#f98b02;fill-opacity:1"
             d="m 83.265625,30.216797 c -2.988494,1.032706 -5.167582,3.730488 -6.227029,6.642599 -1.183269,3.179557 -1.056567,6.616854 -1.04876,9.952281 -0.09321,1.62556 0.14644,3.529976 -1.060498,4.817621 -0.84088,1.062217 -2.471021,0.762649 -3.282854,-0.172267 -1.48259,-1.604484 -2.24467,-3.94486 -4.255859,-5.021484 -0.949701,-0.421202 -2.045341,-0.166709 -3.045877,-0.407233 -1.642928,-0.169543 -3.175029,-1.120761 -3.926779,-2.612298 -0.897978,-1.663337 -0.778894,-3.617233 -0.750363,-5.435475 -0.219863,-0.911688 -1.663395,-0.713148 -1.823856,0.136647 -1.826754,3.388103 -1.305163,7.352129 -1.594287,11.045984 -0.191711,3.081405 -0.536575,6.229587 -1.786572,9.082922 -0.48351,0.575465 -1.281819,0.0343 -1.903341,0.09438 -6.054465,-0.795512 -11.951663,-3.235155 -18.143045,-2.653409 -3.342639,0.372812 -6.133919,2.46164 -8.65088,4.533636 2.2433,-0.174224 4.679119,0.35128 6.096144,2.225625 2.066438,3.030939 2.320495,7.36002 0.29323,10.472076 -1.695823,2.108557 -4.458296,2.782691 -7.007205,3.137255 -4.516435,0.544099 -9.261805,-0.572824 -13.601174,1.17523 -1.7629533,0.660577 -3.5853335,1.696985 -4.3864638,3.480049 -0.076045,0.805181 0.9730945,0.721616 1.4912371,0.897379 6.0734177,1.540523 12.3636017,2.613139 17.9911847,5.434652 3.787825,1.869806 7.242463,4.784871 9.185126,8.613313 0.303844,0.308941 0.238651,0.710888 -0.221971,0.775221 -1.522326,0.48254 -3.13806,0.551205 -4.708922,0.749905 -4.596437,0.471623 -9.452958,0.686883 -13.546844,3.066384 -1.42227,0.85437 -2.474127,2.17316 -3.408846,3.50938 -1.587124,1.57624 -4.1115445,1.49632 -6.0708211,0.74416 -0.8004757,-0.27242 -1.9531788,-0.75754 -2.5890499,0.067 -0.584768,0.99105 0.3347848,1.9994 0.7109375,2.88672 2.5641713,4.63893 7.3535225,7.57515 12.2726085,9.19044 4.330753,1.44 8.897078,1.88863 13.385595,2.59276 -2.37128,0.85361 -4.979968,1.58502 -6.748598,3.48925 -2.228838,2.66976 -2.404077,6.5193 -4.923277,9.00099 -1.097783,1.14201 -2.619784,1.70077 -4.074219,2.20898 -0.620417,0.43605 0.03487,1.30106 0.652344,1.22852 2.825169,0.8089 5.82735,0.26594 8.519495,-0.75855 3.642737,-1.17109 7.569357,-2.50359 11.406286,-1.44849 1.924023,0.56761 3.69003,1.73421 5.279297,2.90625 -2.405756,0.37041 -5.150517,0.18335 -7.091328,1.9184 -3.851981,2.98047 -6.526882,7.71612 -6.336153,12.66434 -0.02772,0.43112 -0.01598,0.88561 0.288809,1.22586 2.868713,-2.23239 5.390928,-5.23486 9.047035,-6.16727 1.629322,-0.35425 3.381338,-0.10223 4.724449,0.92117 -0.324311,0.74993 -1.135163,1.27134 -1.142441,2.16322 -0.637861,2.6745 0.678976,5.27943 1.041459,7.86805 0.587563,2.81428 0.825295,6.07804 -0.982231,8.51886 -0.806794,1.08599 -1.715215,2.09201 -2.539834,3.16472 2.972433,-0.6288 5.966573,-1.80415 8.048208,-4.10297 2.83196,-2.71935 5.643175,-5.87634 9.588532,-6.90284 2.037109,-0.46937 4.155687,-0.21759 6.185526,0.16401 -1.258147,5.68342 -5.233852,10.43688 -5.889017,16.29759 -0.230912,0.90914 0.722884,2.09376 1.664408,1.5364 0.883055,-0.94565 1.009757,-2.33016 1.852529,-3.31056 1.968203,-2.95828 4.983837,-4.8569 8.286142,-6.04687 0.775273,-0.23571 1.642848,-0.60342 2.47461,-0.67382 1.27989,0.8618 2.167227,2.2087 3.03973,3.46441 1.562962,2.31732 3.063522,4.96749 5.720036,6.17426 1.47412,0.75932 2.90232,2.26666 2.894701,4.08224 0.11522,1.57817 -0.605935,3.07463 -1.480639,4.33573 -0.260023,0.67777 0.641152,0.96846 1.117188,0.64257 3.593325,-1.54735 6.500106,-4.55145 7.984374,-8.16601 2.028843,-4.03009 2.590964,-8.59037 4.177735,-12.76758 0.340214,-0.66384 0.558426,-1.53895 1.196431,-1.95154 0.956786,-0.25358 1.751024,0.72158 1.719698,1.6156 0.899143,4.44665 4.073634,8.06561 7.713144,10.59391 1.42525,1.02408 2.81865,2.17677 4.42859,2.87998 0.98594,0.13094 1.30345,-1.36437 0.55737,-1.8567 -1.25825,-1.2853 -2.33063,-2.83138 -2.59594,-4.64964 -0.65976,-3.34536 0.3109,-7.04282 2.66039,-9.53395 1.34017,-1.31211 3.49502,-1.90441 5.20095,-1.00413 1.41367,0.6282 2.2389,2.03349 3.42991,2.93772 1.63549,0.8874 3.49938,1.2374 5.30094,1.62774 4.80013,0.853 9.8656,0.11348 14.21078,-2.08672 0.75262,-0.13352 0.69151,-1.2727 -0.0391,-1.38965 -4.33063,-2.0664 -6.96326,-6.83988 -7.29625,-11.55084 -0.20731,-2.38999 -0.20047,-5.02445 1.16932,-7.09134 1.15618,-1.03279 2.9883,-0.67481 4.08981,0.26034 2.4872,1.10849 5.28646,0.65957 7.89869,0.39461 4.33997,-0.69933 8.67253,-2.88574 11.08724,-6.66914 0.33337,-0.64847 0.17488,-1.78767 -0.65585,-1.92078 -1.90678,0.31302 -3.97323,0.69053 -5.78113,-0.22264 -2.06762,-1.04656 -3.69647,-2.75577 -5.43001,-4.25924 -1.56817,-1.49961 -3.14616,-3.06855 -4.22397,-4.9665 -0.66411,-1.33913 -0.56917,-3.25462 0.82964,-4.09068 1.93208,-1.28363 4.31974,-0.60202 6.45976,-0.50074 1.66254,0.0919 3.36679,-0.5127 4.47265,-1.78523 2.50806,-2.36242 4.15352,-5.74964 7.41214,-7.22898 0.87706,-0.41617 1.73518,-0.4182 2.65154,-0.66279 1.00891,-0.54314 0.76672,-2.22069 -0.30535,-2.54543 -2.73271,-1.69977 -5.8046,-2.76011 -8.83823,-3.78694 -2.41233,-0.7381 -4.91858,-1.60271 -6.65462,-3.546496 -1.11796,-1.109944 -2.62344,-1.632967 -4.07547,-2.138439 -0.9854,-0.394356 -2.33338,-1.10678 -2.17748,-2.359737 0.23796,-1.261264 1.70336,-1.93726 2.87576,-1.601888 5.12151,0.034 10.03922,-3.449521 11.75157,-8.269116 -0.21561,-0.878566 -1.3783,-0.932438 -1.96485,-0.398438 -3.18467,1.679786 -7.42163,1.613013 -10.24364,-0.76681 -2.1943,-1.398648 -4.89637,-0.731523 -7.3178,-0.599088 -1.09851,0.05623 -2.37797,0.164828 -3.2964,-0.533677 -0.75533,-1.022933 0.008,-2.609483 1.22503,-2.811973 2.51144,-1.114489 5.59485,-1.08802 7.64062,-3.128296 3.94884,-3.533438 5.27942,-9.401434 3.91602,-14.43164 0.13572,-0.943383 -1.40857,-1.421102 -1.74609,-0.480469 -1.7036,3.000314 -3.509,6.299869 -6.74445,7.875247 -1.72284,0.870064 -4.02761,1.451395 -5.70972,0.201194 -1.21106,-1.250422 -0.80538,-3.182087 -0.18854,-4.618658 1.77377,-5.254068 1.12186,-11.185141 -1.50606,-16.040524 -0.60268,-1.159578 -1.2827,-2.275202 -1.94108,-3.403587 0.0284,2.501522 -0.60197,5.333245 -2.56054,6.957031 -3.87418,3.192796 -9.31065,3.791914 -12.95165,7.36388 -0.52526,0.527011 -1.01302,1.09035 -1.47609,1.67323 -0.78694,-4.352529 0.17459,-8.74418 1.54894,-12.868539 0.77134,-2.698425 1.61282,-5.593886 0.90614,-8.395133 -0.47896,-1.153612 -1.64894,-1.787102 -2.76563,-2.19336 0.32408,2.106078 -0.10267,4.472563 -1.67385,5.949136 -2.09018,2.619443 -4.40996,5.403586 -7.700742,6.483362 -1.637991,0.2259 -3.147525,-1.249992 -3.174003,-2.858258 -0.738305,-2.637464 -3.22921,-4.146442 -5.290581,-5.684262 -2.26604,-1.641273 -4.923373,-3.180942 -6.069639,-5.866169 -0.603021,-1.991583 0.09344,-4.082554 -0.09118,-6.092168 -0.185168,-0.385128 -0.606503,-0.655646 -1.037109,-0.625 z" /><circle
             style="opacity:1;fill:#9b2d16;fill-opacity:1;stroke-width:1.65386;stroke-linecap:round;stroke-miterlimit:2.1;paint-order:stroke markers fill"
             id="path4"
             cx="85.685074"
             cy="107.80225"
             r="46.5" /><path
             id="circle4"
             style="opacity:1;fill:#f9d304;fill-opacity:1;stroke-width:1.65386;stroke-linecap:round;stroke-miterlimit:2.1;paint-order:stroke markers fill"
             d="M 84.242188,62.919922 C 69.608712,63.351616 55.384023,71.424578 47.69263,83.910416 41.077071,94.38642 39.018031,107.6743 42.392327,119.6214 c 3.099572,11.47425 10.943491,21.6105 21.372656,27.3488 9.858238,5.54221 21.848568,7.17933 32.818792,4.37701 11.067335,-2.74436 20.980415,-9.88135 27.036245,-19.55536 6.07353,-9.52351 8.32611,-21.39156 6.15246,-32.480853 -1.78744,-9.422578 -6.69336,-18.210618 -13.80241,-24.656159 -7.9358,-7.281754 -18.549385,-11.552464 -29.323782,-11.738457 -0.801166,-0.02298 -1.60292,-0.01409 -2.4041,0.0035 z" /></g><g
           id="g13"
           style="display:inline"
           transform="matrix(0.84790343,0,0,0.74971016,-158.12594,5.0400384)"><path
             id="path10"
             style="opacity:1;fill:#e9a604;fill-opacity:1;stroke-width:1.51803;stroke-linecap:round;stroke-miterlimit:2.1;paint-order:stroke markers fill"
             d="m 257.98633,113.56836 c -4.69158,-0.006 -8.95687,2.90098 -11.61124,6.62053 -4.08066,5.74331 -5.68776,13.41232 -3.5017,20.19553 1.99528,5.70053 7.88188,10.01015 14.00481,9.5401 4.2027,-0.33834 7.76017,-3.198 10.1019,-6.54775 2.88809,-4.18778 4.29821,-9.32802 4.25059,-14.39467 -0.0803,-4.60408 -1.68503,-9.45613 -5.36563,-12.42533 -2.20315,-1.82105 -5.00601,-2.95823 -7.87873,-2.98841 z" /><path
             id="path5"
             style="opacity:1;fill:#9b2d16;fill-opacity:1;stroke-width:1.51803;stroke-linecap:round;stroke-miterlimit:2.1;paint-order:stroke markers fill"
             d="m 258.11999,114.61533 c -3.95688,-0.11702 -7.79983,2.28526 -10.27207,5.37847 -3.66346,4.52011 -5.17013,10.31674 -4.8713,15.68864 0.26982,4.51924 2.48557,8.82076 6.34795,11.17986 2.69035,1.67452 6.15934,2.71445 9.53654,1.61089 4.10403,-1.28462 7.15237,-4.8424 8.92067,-8.53588 2.37557,-5.05061 3.10511,-10.77516 1.69487,-15.84498 -1.11528,-4.05266 -4.0441,-7.61255 -8.22829,-8.90719 -0.99378,-0.33452 -2.04761,-0.53963 -3.12837,-0.56981 z" /><path
             id="path6"
             style="opacity:1;fill:#ffffff;fill-opacity:1;stroke-width:1.51803;stroke-linecap:round;stroke-miterlimit:2.1;paint-order:stroke markers fill"
             d="m 257.33789,115.67578 c -4.29425,0.30606 -7.90087,3.3554 -10.06058,6.91699 -2.79419,4.54869 -3.92265,10.17046 -2.87495,15.42245 0.83396,3.68528 3.23921,6.9606 6.68018,8.60123 2.83449,1.49866 6.44284,1.76386 9.27098,0.1023 4.39765,-2.39174 6.96983,-7.16624 8.10841,-11.86023 1.03604,-4.30272 0.97209,-9.06304 -1.05946,-13.07281 -1.68459,-3.28201 -5.00089,-5.72285 -8.7066,-6.07182 -0.45078,-0.0504 -0.90507,-0.0595 -1.35798,-0.0381 z" /><path
             id="path7"
             style="opacity:1;fill:#9b2d16;fill-opacity:1;stroke-width:1.51739;stroke-linecap:round;stroke-miterlimit:2.1;paint-order:stroke markers fill"
             d="m 259.303,124.24276 c -1.92707,-0.43005 -3.75254,0.77599 -5.05589,2.07759 -2.11074,2.12698 -3.40268,4.96585 -4.02611,7.86974 -0.41397,2.01746 -0.22862,4.35481 1.26612,5.90726 1.87271,2.09945 4.86194,3.26198 7.65085,2.72146 2.27089,-0.64003 3.94534,-2.59574 4.89125,-4.68243 0.91133,-2.36335 1.20292,-4.9789 0.83299,-7.4857 -0.338,-2.34514 -1.60963,-4.68232 -3.79425,-5.76495 -0.55775,-0.28857 -1.15409,-0.49945 -1.76496,-0.64297 z" /><path
             id="path8"
             style="opacity:1;fill:#f1df00;fill-opacity:1;stroke-width:1.51739;stroke-linecap:round;stroke-miterlimit:2.1;paint-order:stroke markers fill"
             d="m 257.84766,125.0918 c -2.14939,0.45384 -3.69663,2.235 -4.79577,4.02773 -1.21169,2.11268 -2.23284,4.4589 -2.25167,6.93324 -0.0365,1.63888 0.80655,3.19438 2.08138,4.19414 1.81117,1.46138 4.3397,2.2974 6.62757,1.59207 2.01655,-0.72616 3.22451,-2.70843 3.95902,-4.61509 1.15672,-3.04163 1.14988,-6.65014 -0.50175,-9.5115 -0.98771,-1.77232 -3.07711,-2.96914 -5.11878,-2.62059 z" /><path
             id="path9"
             style="opacity:1;fill:#03030b;fill-opacity:1;stroke-width:1.51739;stroke-linecap:round;stroke-miterlimit:2.1;paint-order:stroke markers fill"
             d="m 258.34961,128.01758 c -1.19569,0.0501 -2.07799,1.01991 -2.65843,1.97554 -0.64094,1.08153 -1.15595,2.2386 -1.57776,3.42177 -0.43231,1.36369 -0.66484,2.9471 0.0392,4.26285 0.40241,0.79917 1.23578,1.27927 2.09932,1.41038 1.22043,0.21809 2.65921,-0.0687 3.42018,-1.1257 1.25594,-1.53335 1.70551,-3.57724 1.61074,-5.52391 -0.0573,-0.82695 -0.0924,-1.67751 -0.37498,-2.46424 -0.41318,-1.02676 -1.38472,-1.99196 -2.55828,-1.95669 z" /><ellipse
             style="opacity:1;fill:#ffffff;fill-opacity:1;stroke-width:1.7226;stroke-linecap:round;stroke-miterlimit:2.1;paint-order:stroke markers fill"
             id="path11"
             cx="256.29517"
             cy="129.62451"
             rx="1.601871"
             ry="1.7307572" /></g><path
           id="path12"
           style="opacity:1;fill:#9b2d16;fill-opacity:1;stroke-width:1.64921;stroke-linecap:round;stroke-miterlimit:2.1;paint-order:stroke markers fill"
           d="m 285.61464,136.2834 c -6.84148,0.0242 -11.08168,5.18688 -11.08153,10.81356 0.009,0.29863 0.0325,0.59674 0.0703,0.89349 h 0.42117 c 0.36014,-5.5699 5.01115,-9.90813 10.63501,-9.91981 5.63143,0.001 10.294,4.34242 10.65464,9.91981 h 0.49041 c 0.0378,-0.29675 0.0612,-0.59486 0.0703,-0.89349 1.5e-4,-5.62668 -4.25001,-10.83837 -11.26026,-10.81356 z"
           sodipodi:nodetypes="scccccccs"
           transform="matrix(0.84790343,0,0,0.74971016,-158.12594,5.0400384)" /><g
           id="g18"
           transform="matrix(-0.84790343,0,0,0.74971016,326.20855,4.9060407)"
           style="display:inline"><path
             id="path13"
             style="opacity:1;fill:#e9a604;fill-opacity:1;stroke-width:1.51803;stroke-linecap:round;stroke-miterlimit:2.1;paint-order:stroke markers fill"
             d="m 257.98633,113.56836 c -4.69158,-0.006 -8.95687,2.90098 -11.61124,6.62053 -4.08066,5.74331 -5.68776,13.41232 -3.5017,20.19553 1.99528,5.70053 7.88188,10.01015 14.00481,9.5401 4.2027,-0.33834 7.76017,-3.198 10.1019,-6.54775 2.88809,-4.18778 4.29821,-9.32802 4.25059,-14.39467 -0.0803,-4.60408 -1.68503,-9.45613 -5.36563,-12.42533 -2.20315,-1.82105 -5.00601,-2.95823 -7.87873,-2.98841 z" /><path
             id="path14"
             style="opacity:1;fill:#9b2d16;fill-opacity:1;stroke-width:1.51803;stroke-linecap:round;stroke-miterlimit:2.1;paint-order:stroke markers fill"
             d="m 258.11999,114.61533 c -3.95688,-0.11702 -7.79983,2.28526 -10.27207,5.37847 -3.66346,4.52011 -5.17013,10.31674 -4.8713,15.68864 0.26982,4.51924 2.48557,8.82076 6.34795,11.17986 2.69035,1.67452 6.15934,2.71445 9.53654,1.61089 4.10403,-1.28462 7.15237,-4.8424 8.92067,-8.53588 2.37557,-5.05061 3.10511,-10.77516 1.69487,-15.84498 -1.11528,-4.05266 -4.0441,-7.61255 -8.22829,-8.90719 -0.99378,-0.33452 -2.04761,-0.53963 -3.12837,-0.56981 z" /><path
             id="path15"
             style="opacity:1;fill:#ffffff;fill-opacity:1;stroke-width:1.51803;stroke-linecap:round;stroke-miterlimit:2.1;paint-order:stroke markers fill"
             d="m 257.33789,115.67578 c -4.29425,0.30606 -7.90087,3.3554 -10.06058,6.91699 -2.79419,4.54869 -3.92265,10.17046 -2.87495,15.42245 0.83396,3.68528 3.23921,6.9606 6.68018,8.60123 2.83449,1.49866 6.44284,1.76386 9.27098,0.1023 4.39765,-2.39174 6.96983,-7.16624 8.10841,-11.86023 1.03604,-4.30272 0.97209,-9.06304 -1.05946,-13.07281 -1.68459,-3.28201 -5.00089,-5.72285 -8.7066,-6.07182 -0.45078,-0.0504 -0.90507,-0.0595 -1.35798,-0.0381 z" /><path
             id="path16"
             style="opacity:1;fill:#9b2d16;fill-opacity:1;stroke-width:1.51739;stroke-linecap:round;stroke-miterlimit:2.1;paint-order:stroke markers fill"
             d="m 259.303,124.24276 c -1.92707,-0.43005 -3.75254,0.77599 -5.05589,2.07759 -2.11074,2.12698 -3.40268,4.96585 -4.02611,7.86974 -0.41397,2.01746 -0.22862,4.35481 1.26612,5.90726 1.87271,2.09945 4.86194,3.26198 7.65085,2.72146 2.27089,-0.64003 3.94534,-2.59574 4.89125,-4.68243 0.91133,-2.36335 1.20292,-4.9789 0.83299,-7.4857 -0.338,-2.34514 -1.60963,-4.68232 -3.79425,-5.76495 -0.55775,-0.28857 -1.15409,-0.49945 -1.76496,-0.64297 z" /><path
             id="path17"
             style="opacity:1;fill:#f1df00;fill-opacity:1;stroke-width:1.51739;stroke-linecap:round;stroke-miterlimit:2.1;paint-order:stroke markers fill"
             d="m 257.84766,125.0918 c -2.14939,0.45384 -3.69663,2.235 -4.79577,4.02773 -1.21169,2.11268 -2.23284,4.4589 -2.25167,6.93324 -0.0365,1.63888 0.80655,3.19438 2.08138,4.19414 1.81117,1.46138 4.3397,2.2974 6.62757,1.59207 2.01655,-0.72616 3.22451,-2.70843 3.95902,-4.61509 1.15672,-3.04163 1.14988,-6.65014 -0.50175,-9.5115 -0.98771,-1.77232 -3.07711,-2.96914 -5.11878,-2.62059 z" /><path
             id="path18"
             style="opacity:1;fill:#03030b;fill-opacity:1;stroke-width:1.51739;stroke-linecap:round;stroke-miterlimit:2.1;paint-order:stroke markers fill"
             d="m 258.34961,128.01758 c -1.19569,0.0501 -2.07799,1.01991 -2.65843,1.97554 -0.64094,1.08153 -1.15595,2.2386 -1.57776,3.42177 -0.43231,1.36369 -0.66484,2.9471 0.0392,4.26285 0.40241,0.79917 1.23578,1.27927 2.09932,1.41038 1.22043,0.21809 2.65921,-0.0687 3.42018,-1.1257 1.25594,-1.53335 1.70551,-3.57724 1.61074,-5.52391 -0.0573,-0.82695 -0.0924,-1.67751 -0.37498,-2.46424 -0.41318,-1.02676 -1.38472,-1.99196 -2.55828,-1.95669 z" /><ellipse
             style="opacity:1;fill:#ffffff;fill-opacity:1;stroke-width:1.7226;stroke-linecap:round;stroke-miterlimit:2.1;paint-order:stroke markers fill"
             id="ellipse18"
             cx="260.08667"
             cy="129.87727"
             rx="1.601871"
             ry="1.7307572" /></g><g
           id="g20"
           style="display:inline"
           transform="matrix(0.84790343,0,0,0.74971016,-158.12594,8.4891637)"><path
             id="path19"
             style="opacity:1;fill:#9b2d16;fill-opacity:1;stroke-width:1.93699;stroke-linecap:round;stroke-miterlimit:2.1;paint-order:stroke markers fill"
             d="m 258.23633,89.570312 c -4.83149,0.07027 -9.0974,3.654453 -10.78555,8.058313 -0.75908,1.980205 -1.37326,4.129725 -1.06211,6.261995 0.27146,1.24982 -0.0399,2.77961 2.03711,-0.30859 3.68289,-5.767335 10.84823,-9.189029 17.67803,-8.228124 1.67382,0.21756 1.64137,-0.320039 1.23017,-1.086328 -1.99165,-2.922232 -5.57859,-4.716479 -9.09765,-4.697266 z"
             sodipodi:nodetypes="csccccc" /><path
             id="path20"
             style="opacity:1;fill:#f98b02;fill-opacity:1;stroke-width:1.93699;stroke-linecap:round;stroke-miterlimit:2.1;paint-order:stroke markers fill"
             d="m 257.84766,90.378906 c -4.51797,0.29825 -8.39802,3.781641 -9.82222,7.983132 -0.67508,1.760652 -1.1149,3.679272 -0.8106,5.567652 2.70666,-4.453167 7.17092,-7.839099 12.27253,-9.006578 2.31266,-0.544275 4.72818,-0.663666 7.08294,-0.339128 -1.92242,-2.719248 -5.34441,-4.346506 -8.72265,-4.205078 z" /></g><g
           id="g22"
           transform="matrix(-0.84790343,0,0,0.74971016,328.66285,8.4891637)"><path
             id="path21"
             style="opacity:1;fill:#9b2d16;fill-opacity:1;stroke-width:1.93699;stroke-linecap:round;stroke-miterlimit:2.1;paint-order:stroke markers fill"
             d="m 258.23633,89.570312 c -4.83149,0.07027 -9.0974,3.654453 -10.78555,8.058313 -0.75908,1.980205 -1.37326,4.129725 -1.06211,6.261995 0.27146,1.24982 -0.0399,2.77961 2.03711,-0.30859 3.68289,-5.767335 10.84823,-9.189029 17.67803,-8.228124 1.67382,0.21756 1.64137,-0.320039 1.23017,-1.086328 -1.99165,-2.922232 -5.57859,-4.716479 -9.09765,-4.697266 z"
             sodipodi:nodetypes="csccccc" /><path
             id="path22"
             style="opacity:1;fill:#f98b02;fill-opacity:1;stroke-width:1.93699;stroke-linecap:round;stroke-miterlimit:2.1;paint-order:stroke markers fill"
             d="m 257.84766,90.378906 c -4.51797,0.29825 -8.39802,3.781641 -9.82222,7.983132 -0.67508,1.760652 -1.1149,3.679272 -0.8106,5.567652 2.70666,-4.453167 7.17092,-7.839099 12.27253,-9.006578 2.31266,-0.544275 4.72818,-0.663666 7.08294,-0.339128 -1.92242,-2.719248 -5.34441,-4.346506 -8.72265,-4.205078 z" /></g><g
           id="g30"
           transform="matrix(0.84790343,0,0,0.74971016,-158.12594,5.0400384)"><path
             style="opacity:1;fill:#9b2d16;fill-opacity:1;stroke-width:1.478;stroke-linecap:round;stroke-miterlimit:2.1;paint-order:stroke markers fill"
             d="m 250.36468,151.91234 c 2.21434,12.53621 7.08191,25.24212 16.63644,34.02203 7.13835,6.08437 17.03144,8.68456 26.34299,6.48756 7.61966,-1.93169 14.55829,-5.79916 18.93055,-12.34993 3.84723,-5.2976 7.38052,-10.96342 8.99613,-17.37979 0.67224,-3.24751 2.51571,-7.44492 2.3616,-10.15688 -5.25987,5.33901 -11.21768,10.28951 -18.03818,13.81057 -6.87513,2.96513 -12.58257,4.13479 -21.1733,4.48159 -7.54313,-0.006 -16.44054,-2.8243 -22.98944,-8.26472 -5.92044,-4.91834 -7.53419,-6.43186 -11.06679,-10.65043 z"
             id="path29"
             sodipodi:nodetypes="ccccccccsc" /><path
             style="opacity:1;fill:#ffffff;fill-opacity:1;stroke-width:1.478;stroke-linecap:round;stroke-miterlimit:2.1;paint-order:stroke markers fill"
             d="m 253.65064,156.96766 c 6.25859,17.086 13.98025,24.30337 20.42793,28.33479 7.76401,4.85446 19.7299,3.93539 26.79828,-0.6133 7.9054,-5.08734 16.15227,-15.26043 19.59596,-27.60403 -9.19507,10.28765 -22.71258,16.1877 -34.44466,16.2833 -10.18142,0.083 -19.85689,-2.96994 -32.37751,-16.40076 z"
             id="path30"
             sodipodi:nodetypes="csscsc" /></g><g
           id="g25"
           transform="matrix(0.84790343,0,0,0.74971016,-158.12594,5.0400384)"><path
             id="path23"
             style="opacity:1;fill:#9b2d16;fill-opacity:1;stroke-width:1.54728;stroke-linecap:round;stroke-miterlimit:2.1;paint-order:stroke markers fill"
             d="m 272.85375,85.579056 a 12.524103,7.5021968 0 0 0 -5.71165,2.87333 7.5332638,13.942259 87.621245 0 1 9.82591,-2.389389 7.5332638,13.942259 87.621245 0 1 12.55959,4.123135 12.524103,7.5021968 0 0 0 -11.88122,-5.177965 12.524103,7.5021968 0 0 0 -4.79263,0.570889 z"
             transform="matrix(0.97652817,0.21538972,-0.21216686,0.97723345,0,0)" /><path
             id="path25"
             style="opacity:1;fill:#f9d304;fill-opacity:1;stroke-width:1.56442;stroke-linecap:round;stroke-miterlimit:2.1;paint-order:stroke markers fill"
             d="m 267.60088,87.437852 a 11.54402,4.886593 1.5373136 0 0 -5.40484,3.548882 11.54402,4.886593 1.5373136 0 0 0.29902,1.657829 9.638689,5.660563 0 0 0 -0.50153,1.764154 9.638689,5.660563 0 0 0 9.63885,5.660373 9.638689,5.660563 0 0 0 9.40246,-4.416083 11.54402,4.886593 1.5373136 0 0 4.12733,-3.185958 11.54402,4.886593 1.5373136 0 0 -10.33293,-5.578537 11.54402,4.886593 1.5373136 0 0 -7.22836,0.54934 z"
             transform="matrix(0.97718083,0.2124091,-0.16128983,0.98690708,0,0)" /><path
             id="path24"
             style="opacity:1;fill:#9b2d16;fill-opacity:1;stroke-width:2.17152;stroke-linecap:round;stroke-miterlimit:2.1;paint-order:stroke markers fill"
             d="m 221.9403,161.28919 a 9.6490545,8.8083076 -180 0 0 8.62064,4.88719 9.6490545,8.8083076 -180 0 0 7.37092,-3.12697 10.526743,8.8092681 2.1339366 0 1 -7.09387,2.30737 10.526743,8.8092681 2.1339366 0 1 -8.89769,-4.06759 z"
             transform="matrix(0.99944854,-0.03320576,0.13167047,0.99129354,0,0)" /></g><g
           id="g28"
           transform="matrix(-0.84790343,0,0,0.74971016,325.91809,5.2295396)"><path
             id="path26"
             style="opacity:1;fill:#9b2d16;fill-opacity:1;stroke-width:1.54728;stroke-linecap:round;stroke-miterlimit:2.1;paint-order:stroke markers fill"
             d="m 272.85375,85.579056 a 12.524103,7.5021968 0 0 0 -5.71165,2.87333 7.5332638,13.942259 87.621245 0 1 9.82591,-2.389389 7.5332638,13.942259 87.621245 0 1 12.55959,4.123135 12.524103,7.5021968 0 0 0 -11.88122,-5.177965 12.524103,7.5021968 0 0 0 -4.79263,0.570889 z"
             transform="matrix(0.97652817,0.21538972,-0.21216686,0.97723345,0,0)" /><path
             id="path27"
             style="opacity:1;fill:#f9d304;fill-opacity:1;stroke-width:1.56442;stroke-linecap:round;stroke-miterlimit:2.1;paint-order:stroke markers fill"
             d="m 267.60088,87.437852 a 11.54402,4.886593 1.5373136 0 0 -5.40484,3.548882 11.54402,4.886593 1.5373136 0 0 0.29902,1.657829 9.638689,5.660563 0 0 0 -0.50153,1.764154 9.638689,5.660563 0 0 0 9.63885,5.660373 9.638689,5.660563 0 0 0 9.40246,-4.416083 11.54402,4.886593 1.5373136 0 0 4.12733,-3.185958 11.54402,4.886593 1.5373136 0 0 -10.33293,-5.578537 11.54402,4.886593 1.5373136 0 0 -7.22836,0.54934 z"
             transform="matrix(0.97718083,0.2124091,-0.16128983,0.98690708,0,0)" /><path
             id="path28"
             style="opacity:1;fill:#9b2d16;fill-opacity:1;stroke-width:2.17152;stroke-linecap:round;stroke-miterlimit:2.1;paint-order:stroke markers fill"
             d="m 221.9403,161.28919 a 9.6490545,8.8083076 -180 0 0 8.62064,4.88719 9.6490545,8.8083076 -180 0 0 7.37092,-3.12697 10.526743,8.8092681 2.1339366 0 1 -7.09387,2.30737 10.526743,8.8092681 2.1339366 0 1 -8.89769,-4.06759 z"
             transform="matrix(0.99944854,-0.03320576,0.13167047,0.99129354,0,0)" /></g><g
           id="g31"
           transform="matrix(0.84790344,0,0,0.74971016,-158.12594,5.0400384)" /></g></g></g></svg>
