<?xml version="1.0" encoding="UTF-8" standalone="no"?>
<!-- Created with Inkscape (http://www.inkscape.org/) -->

<svg
   width="210mm"
   height="297mm"
   viewBox="0 0 210 297"
   version="1.1"
   id="svg5"
   inkscape:version="1.2 (dc2aedaf03, 2022-05-15)"
   sodipodi:docname="text-ribbon-3.svg"
   xmlns:inkscape="http://www.inkscape.org/namespaces/inkscape"
   xmlns:sodipodi="http://sodipodi.sourceforge.net/DTD/sodipodi-0.dtd"
   xmlns="http://www.w3.org/2000/svg"
   xmlns:svg="http://www.w3.org/2000/svg">
  <sodipodi:namedview
     id="namedview7"
     pagecolor="#ffffff"
     bordercolor="#666666"
     borderopacity="1.0"
     inkscape:showpageshadow="2"
     inkscape:pageopacity="0.0"
     inkscape:pagecheckerboard="0"
     inkscape:deskcolor="#d1d1d1"
     inkscape:document-units="mm"
     showgrid="false"
     inkscape:zoom="0.71493827"
     inkscape:cx="230.08979"
     inkscape:cy="240.58021"
     inkscape:window-width="1789"
     inkscape:window-height="959"
     inkscape:window-x="0"
     inkscape:window-y="38"
     inkscape:window-maximized="0"
     inkscape:current-layer="layer1" />
  <defs
     id="defs2">
    <inkscape:path-effect
       effect="bend_path"
       id="path-effect384"
       is_visible="true"
       lpeversion="1"
       bendpath="M 55.541948,57.403238 C 107.31655,73.808903 142.13669,44.167091 180.06951,63.160309"
       prop_scale="1"
       scale_y_rel="false"
       vertical="false"
       hide_knot="false"
       bendpath-nodetypes="cc" />
    <inkscape:path-effect
       effect="bend_path"
       id="path-effect6714"
       is_visible="true"
       lpeversion="1"
       bendpath="M 56.395006,65.593029 C 116.332,73.850343 121.36015,39.240299 175.01155,49.891924"
       prop_scale="1"
       scale_y_rel="false"
       vertical="false"
       hide_knot="false"
       bendpath-nodetypes="cc" />
    <inkscape:path-effect
       effect="bend_path"
       id="path-effect6712"
       is_visible="true"
       lpeversion="1"
       bendpath="M 56.918376,53.29383 C 79.97645,55.368212 170.63466,54.196887 166.76847,56.172366"
       prop_scale="1.08566"
       scale_y_rel="false"
       vertical="false"
       hide_knot="false"
       bendpath-nodetypes="cc" />
  </defs>
  <g
     inkscape:label="Layer 1"
     inkscape:groupmode="layer"
     id="layer1">
    <g
       id="g6710"
       class="UnoptimicedTransforms"
       transform="translate(-21.719861,-17.5329)">
      <path
         id="path4424"
         style="fill:#ffffff;fill-opacity:1;stroke:#000000;stroke-width:0.846667;stroke-linecap:round;stroke-linejoin:miter;stroke-dasharray:none;stroke-opacity:1;paint-order:stroke fill markers"
         d="M 188.48409,46.045218 C 178.00381,38.871715 165.22736,34.95266 152.222,35.497854 c 0,1e-6 0,0 0,0 -0.44834,0.0218 -0.89489,0.04782 -1.3396,0.07799 0.42953,4.22791 0.80993,8.459801 1.13819,12.69577 0.11067,1.40162 0.21451,2.803622 0.31151,4.205939 8.89946,-0.489863 17.94924,2.04802 25.48174,6.993307 0.48584,-3.160588 0.7584,-6.403097 0.74863,-9.712494 3.02099,-1.530679 6.33073,-2.792558 9.92162,-3.713149 z"
         sodipodi:nodetypes="cccccc" />
      <path
         style="fill:#ffffff;fill-opacity:1;stroke:#000000;stroke-width:0.438561;stroke-linecap:butt;stroke-linejoin:bevel;stroke-dasharray:none;stroke-opacity:1"
         d="m 150.5757,35.528725 c 0.5501,0.177512 1.09587,0.361502 1.63711,0.55193 4.95751,1.709757 9.33174,4.076408 13.05861,6.819683 -4.33535,-0.908792 -8.75857,-1.270068 -13.14947,-1.057142 -0.30036,0.01611 -0.59994,0.03447 -0.89873,0.05504 -0.20291,-2.124231 -0.41888,-4.247398 -0.64752,-6.369516 z"
         id="path4426"
         sodipodi:nodetypes="cccc" />
      <path
         id="rect2715"
         style="fill:#ffffff;fill-opacity:1;stroke:#000000;stroke-width:0.846667;stroke-linecap:round;stroke-linejoin:miter;stroke-dasharray:none;stroke-opacity:1;paint-order:stroke fill markers"
         d="m 58.667547,54.977566 c 7.392626,3.275255 15.33256,5.066155 23.141055,5.007181 0.06673,5.655825 0.199974,11.313696 0.399403,16.972337 C 71.49617,77.076573 60.915104,74.676738 51.32338,70.3283 c 2.844645,-1.910633 5.492593,-3.974823 7.944299,-6.168409 -0.366681,-3.083082 -0.55673,-6.148562 -0.600132,-9.182325 z"
         sodipodi:nodetypes="cccccc" />
      <path
         style="fill:#ffffff;fill-opacity:1;stroke:#000000;stroke-width:0.441;stroke-linecap:butt;stroke-linejoin:bevel;stroke-dasharray:none;stroke-opacity:1"
         d="m 81.992874,59.744111 c -3.091877,2.157931 -6.617694,4.01992 -10.520092,5.507731 3.538868,0.607315 7.105711,0.899432 10.645964,0.855446 -0.05155,-2.121282 -0.09351,-4.242365 -0.125872,-6.363177 z"
         id="path2878" />
      <path
         id="rect184"
         style="fill:#ffffff;fill-opacity:1;stroke:#000000;stroke-width:0.846667;stroke-linecap:round;stroke-linejoin:miter;stroke-dasharray:none;stroke-opacity:1;paint-order:stroke fill markers"
         d="m 71.753771,65.531091 c 6.654341,1.105619 13.379082,1.095116 19.798352,-0.138892 0.324783,-0.06272 0.648497,-0.128442 0.971112,-0.19715 10e-7,0 3e-6,-10e-7 4e-6,-10e-7 8.709881,-1.801598 16.540111,-5.893871 24.442441,-10.389603 10e-6,-10e-7 10e-6,-2e-6 10e-6,-3e-6 1.62032,-0.932572 3.26586,-1.877426 4.93464,-2.806466 6.11982,-3.434743 12.92186,-6.825585 20.97945,-8.64605 2.97378,-0.651099 6.06001,-1.074724 9.23801,-1.245992 4.23755,-0.206816 8.50693,0.124042 12.69857,0.969079 -1.22251,5.533456 -2.38525,11.079266 -3.48858,16.636274 -3.16852,-0.640513 -6.3681,-0.842734 -9.47824,-0.592695 -1.64518,0.130189 -3.26391,0.378614 -4.84413,0.739266 -7.05818,1.442723 -13.5205,5.243784 -21.14921,9.546016 l 0,2e-6 c -0.41026,0.237592 -0.82362,0.475418 -1.24002,0.712963 -7.70851,4.448769 -16.75142,9.104418 -27.811482,11.586877 -2e-6,0 -4e-6,0 -6e-6,10e-7 -1.635194,0.349952 -3.296282,0.648996 -4.982041,0.894992 -7.618073,1.072725 -15.358549,0.928071 -22.916074,-0.315794 0.962881,-5.581979 1.911942,-11.166272 2.847194,-16.752824 z"
         sodipodi:nodetypes="ccccc" />
      <path
         style="fill:#000000;fill-opacity:1;stroke:none;stroke-width:0.340796px;stroke-linecap:butt;stroke-linejoin:miter;stroke-opacity:1"
         d="m 69.026778,81.586655 c 3.776032,0.6169 7.602793,0.957792 11.443229,1.004643 -3.84253,-0.260157 -7.632335,-0.813995 -11.33467,-1.635102 -0.03617,0.210156 -0.07235,0.420309 -0.108559,0.630459 z"
         id="path3606"
         sodipodi:nodetypes="cccc" />
      <path
         style="fill:#000000;fill-opacity:1;stroke:none;stroke-width:0.289803px;stroke-linecap:butt;stroke-linejoin:miter;stroke-opacity:1"
         d="m 69.375371,79.559694 c 2.643999,0.430814 5.312954,0.722357 7.993495,0.867914 -2.671528,-0.358533 -5.303981,-0.861673 -7.885314,-1.498437 -0.03604,0.210177 -0.0721,0.420352 -0.108181,0.630523 z"
         id="path4342"
         sodipodi:nodetypes="cccc" />
      <path
         style="fill:#000000;fill-opacity:1;stroke:none;stroke-width:0.264292px;stroke-linecap:butt;stroke-linejoin:miter;stroke-opacity:1"
         d="m 69.722749,77.532529 c 2.128566,0.346184 4.272971,0.599345 6.425809,0.755742 -2.13896,-0.369102 -4.24711,-0.833402 -6.318005,-1.386328 -0.03591,0.210198 -0.07185,0.420394 -0.107804,0.630586 z"
         id="path4344"
         sodipodi:nodetypes="cccc" />
      <path
         style="fill:#000000;fill-opacity:1;stroke:none;stroke-width:0.24098px;stroke-linecap:butt;stroke-linejoin:miter;stroke-opacity:1"
         d="m 70.068913,75.505162 c 1.712097,0.277787 3.434133,0.493436 5.161983,0.64506 -1.71003,-0.363966 -3.396018,-0.790521 -5.054557,-1.275708 -0.03579,0.210219 -0.0716,0.420436 -0.107426,0.630648 z"
         id="path4346"
         sodipodi:nodetypes="cccc" />
      <path
         style="fill:#000000;fill-opacity:1;stroke:none;stroke-width:0.340796px;stroke-linecap:butt;stroke-linejoin:miter;stroke-opacity:1"
         d="m 71.547341,66.76279 c 2.949019,0.494134 5.919553,0.774846 8.88204,0.830037 -2.963826,0.157972 -5.970402,0.0898 -8.987955,-0.199139 0.03532,-0.210296 0.07063,-0.420595 0.105915,-0.630898 z"
         id="path4350"
         sodipodi:nodetypes="cccc" />
      <path
         style="fill:#000000;fill-opacity:1;stroke:none;stroke-width:0.289803px;stroke-linecap:butt;stroke-linejoin:miter;stroke-opacity:1"
         d="m 71.206411,68.791021 c 2.209013,0.370704 4.432183,0.62592 6.658171,0.760544 -2.236603,0.07824 -4.495593,0.03451 -6.764463,-0.129713 0.03545,-0.210274 0.07088,-0.42055 0.106292,-0.630831 z"
         id="path4352"
         sodipodi:nodetypes="cccc" />
      <path
         style="fill:#000000;fill-opacity:1;stroke:none;stroke-width:0.264292px;stroke-linecap:butt;stroke-linejoin:miter;stroke-opacity:1"
         d="m 70.864268,70.819052 c 1.902311,0.319426 3.816208,0.55612 5.735018,0.706932 -1.933436,0.06183 -3.883158,0.03624 -5.841689,-0.07616 0.03558,-0.210255 0.07113,-0.420513 0.106671,-0.630774 z"
         id="path4354"
         sodipodi:nodetypes="cccc" />
      <path
         style="fill:#000000;fill-opacity:1;stroke:none;stroke-width:0.24098px;stroke-linecap:butt;stroke-linejoin:miter;stroke-opacity:1"
         d="m 70.52091,72.846883 c 1.636582,0.275106 3.282438,0.491029 4.933643,0.645822 -1.669239,0.05762 -3.350962,0.05254 -5.040695,-0.01508 0.0357,-0.210243 0.07139,-0.42049 0.107052,-0.630739 z"
         id="path4356"
         sodipodi:nodetypes="cccc" />
      <path
         style="fill:#000000;fill-opacity:1;stroke:none;stroke-width:0.340796px;stroke-linecap:butt;stroke-linejoin:miter;stroke-opacity:1"
         d="m 161.45612,59.016241 c -2.47237,-0.503316 -4.96791,-0.745455 -7.43191,-0.718042 2.46048,-0.24052 4.99869,-0.211856 7.55715,0.09055 -1e-5,1.8e-5 -0.12524,0.627471 -0.12524,0.627489 z"
         id="path4445"
         sodipodi:nodetypes="cccc" />
      <path
         style="fill:#000000;fill-opacity:1;stroke:none;stroke-width:0.289803px;stroke-linecap:butt;stroke-linejoin:miter;stroke-opacity:1"
         d="m 161.86057,56.999243 c -1.8902,-0.385002 -3.79651,-0.625821 -5.69745,-0.718376 1.90976,-0.120405 3.85885,-0.09101 5.82432,0.09119 0,1.8e-5 -0.12687,0.627163 -0.12687,0.627181 z"
         id="path4447"
         sodipodi:nodetypes="cccc" />
      <path
         style="fill:#000000;fill-opacity:1;stroke:none;stroke-width:0.264292px;stroke-linecap:butt;stroke-linejoin:miter;stroke-opacity:1"
         d="m 162.27023,54.983241 c -1.66019,-0.338189 -3.33391,-0.570958 -5.00831,-0.695577 1.6887,-0.08806 3.40558,-0.06596 5.1368,0.06871 -0.0429,0.20894 -0.0857,0.417896 -0.12849,0.626868 z"
         id="path4449"
         sodipodi:nodetypes="cccc" />
      <path
         style="fill:#000000;fill-opacity:1;stroke:none;stroke-width:0.24098px;stroke-linecap:butt;stroke-linejoin:miter;stroke-opacity:1"
         d="m 162.68512,52.968249 c -1.45555,-0.296798 -2.92215,-0.516639 -4.39211,-0.657679 1.48903,-0.07127 2.99922,-0.06153 4.52221,0.03113 0,1.8e-5 -0.1301,0.626535 -0.1301,0.626553 z"
         id="path4451"
         sodipodi:nodetypes="cccc" />
      <path
         style="fill:#000000;fill-opacity:1;stroke:none;stroke-width:0.340796px;stroke-linecap:butt;stroke-linejoin:miter;stroke-opacity:1"
         d="m 164.53347,44.293362 c -3.61723,-0.722712 -7.29291,-1.053191 -10.95254,-0.975264 3.66839,0.135173 7.29775,0.680185 10.81594,1.600513 -1e-5,1.9e-5 0.13661,-0.625268 0.1366,-0.625249 z"
         id="path4453"
         sodipodi:nodetypes="cccc" />
      <path
         style="fill:#000000;fill-opacity:1;stroke:none;stroke-width:0.289803px;stroke-linecap:butt;stroke-linejoin:miter;stroke-opacity:1"
         d="m 164.09607,46.303867 c -2.49193,-0.49576 -5.01334,-0.797705 -7.53739,-0.899444 2.51718,0.314798 4.99307,0.828304 7.4024,1.52502 0.0449,-0.208542 0.0899,-0.417067 0.13499,-0.625576 z"
         id="path4455"
         sodipodi:nodetypes="cccc" />
      <path
         style="fill:#000000;fill-opacity:1;stroke:none;stroke-width:0.264292px;stroke-linecap:butt;stroke-linejoin:miter;stroke-opacity:1"
         d="m 163.66389,48.315431 c -1.973,-0.39119 -3.9648,-0.65551 -5.96065,-0.789453 1.98224,0.34666 3.92918,0.821614 5.8273,1.415363 0,1.8e-5 0.13336,-0.625928 0.13335,-0.62591 z"
         id="path4457"
         sodipodi:nodetypes="cccc" />
      <path
         style="fill:#000000;fill-opacity:1;stroke:none;stroke-width:0.24098px;stroke-linecap:butt;stroke-linejoin:miter;stroke-opacity:1"
         d="m 163.23695,50.328047 c -1.55977,-0.308157 -3.13135,-0.533338 -4.7066,-0.673669 1.55627,0.352633 3.08362,0.787878 4.57486,1.299894 0.0438,-0.208758 0.0877,-0.4175 0.13174,-0.626225 z"
         id="path4459"
         sodipodi:nodetypes="cccc" />
    </g>
  </g>
</svg>
