<?xml version="1.0" encoding="UTF-8" standalone="no"?>
<!-- Created with Inkscape (http://www.inkscape.org/) -->

<svg
   width="210mm"
   height="297mm"
   viewBox="0 0 210 297"
   version="1.1"
   id="svg5"
   inkscape:version="1.2 (dc2aedaf03, 2022-05-15)"
   sodipodi:docname="text-ribbon-2(winner).svg"
   xmlns:inkscape="http://www.inkscape.org/namespaces/inkscape"
   xmlns:sodipodi="http://sodipodi.sourceforge.net/DTD/sodipodi-0.dtd"
   xmlns="http://www.w3.org/2000/svg"
   xmlns:svg="http://www.w3.org/2000/svg">
  <sodipodi:namedview
     id="namedview7"
     pagecolor="#ffffff"
     bordercolor="#666666"
     borderopacity="1.0"
     inkscape:showpageshadow="2"
     inkscape:pageopacity="0.0"
     inkscape:pagecheckerboard="0"
     inkscape:deskcolor="#d1d1d1"
     inkscape:document-units="mm"
     showgrid="false"
     inkscape:zoom="0.84096521"
     inkscape:cx="429.86321"
     inkscape:cy="140.90952"
     inkscape:window-width="1920"
     inkscape:window-height="1058"
     inkscape:window-x="-8"
     inkscape:window-y="-8"
     inkscape:window-maximized="1"
     inkscape:current-layer="layer1" />
  <defs
     id="defs2">
    <inkscape:path-effect
       effect="bend_path"
       id="path-effect967"
       is_visible="true"
       lpeversion="1"
       bendpath="m 69.173914,37.660222 c 24.12855,6.219055 45.296656,5.811157 68.080506,0"
       prop_scale="1"
       scale_y_rel="false"
       vertical="false"
       hide_knot="false"
       bendpath-nodetypes="cc" />
  </defs>
  <g
     inkscape:label="Layer 1"
     inkscape:groupmode="layer"
     id="layer1">
    <g
       id="g1096">
      <g
         id="g5856"
         transform="translate(0.89559096)">
        <path
           id="path5844"
           style="fill:#2d7adb;stroke-width:1.48133;stroke-linecap:round;stroke-linejoin:round;paint-order:stroke fill markers"
           d="m 188.87111,42.046642 c 0.22604,-13.57061 -55.38407,12.01332 -55.38407,0 v 16.462701 c -0.22647,10.67851 55.38407,-10.233571 55.38407,0 z"
           sodipodi:nodetypes="ccccc" />
        <path
           id="path4335"
           style="fill:#2d7adb;stroke-width:1.48133;stroke-linecap:round;stroke-linejoin:round;paint-order:stroke fill markers"
           d="m 22.029408,42.046642 c -0.226038,-13.57061 55.384069,12.01332 55.384069,0 v 16.462701 c 0.22647,10.67851 -55.384069,-10.233571 -55.384069,0 z"
           sodipodi:nodetypes="ccccc" />
        <path
           id="path4329"
           style="fill:#37495f;fill-opacity:1;stroke-width:1.09621;stroke-linecap:round;stroke-linejoin:round;paint-order:stroke fill markers"
           d="M 77.413477,42.046639 C 77.537257,28.476031 46.718178,37.59726 46.718178,25.583935 V 42.046639 C 46.594157,52.72515 77.413477,48.27577 77.413477,58.509343 Z"
           sodipodi:nodetypes="ccccc" />
        <path
           id="path5846"
           style="fill:#37495f;fill-opacity:1;stroke-width:1.09621;stroke-linecap:round;stroke-linejoin:round;paint-order:stroke fill markers"
           d="m 133.48704,42.046639 c -0.12378,-13.570608 30.6953,-4.449379 30.6953,-16.462704 v 16.462704 c 0.12402,10.678511 -30.6953,6.229131 -30.6953,16.462704 z"
           sodipodi:nodetypes="ccccc" />
        <path
           id="rect188"
           style="fill:#2d7adb;stroke-width:1.48133;stroke-linecap:round;stroke-linejoin:round;paint-order:stroke fill markers"
           d="m 53.500887,21.495874 c -4.177573,0.02476 -6.831976,1.119558 -6.782532,4.088122 v 16.462561 c 0,-7.860708 34.982052,2.653381 58.731815,3.112989 23.97224,-0.01467 58.73182,-10.973697 58.73182,-3.112989 V 25.583996 c 0.0494,-2.968564 -2.60496,-4.063362 -6.78253,-4.088122 -10.53077,-0.06242 -35.44161,7.31028 -51.94929,7.342187 -17.060323,-0.12978 -41.418514,-7.404602 -51.949283,-7.342187 z"
           sodipodi:nodetypes="scccccscs" />
      </g>
      <g
         aria-label="WINNER"
         transform="matrix(1.0303416,0,0,0.97055191,0.22246898,-3.3370347)"
         id="text293"
         style="font-weight:600;font-size:12.5871px;line-height:1.25;font-family:'Bookman Old Style';-inkscape-font-specification:'Bookman Old Style Semi-Bold';letter-spacing:2.75972px;word-spacing:0px;fill:#ffffff;stroke-width:0.314676;fill-opacity:1"
         class="UnoptimicedTransforms">
        <path
           d="m 70.148595,33.484493 c 1.198365,0.309027 2.400199,0.603642 3.605077,0.883243 l -0.268476,1.155778 c -0.233546,-0.05421 -0.38139,-0.08066 -0.444614,-0.07866 -0.05911,0.0029 -0.117007,0.02717 -0.173736,0.07273 -0.05183,0.0425 -0.0858,0.09763 -0.101865,0.165424 -0.01416,0.05974 -0.01918,0.195599 -0.0147,0.40715 0.03001,1.531584 0.07126,3.064456 0.12395,4.59846 0.568852,-0.952654 1.131126,-1.908033 1.686707,-2.866075 -0.03602,-0.446666 -0.07091,-0.893254 -0.104656,-1.339757 -0.0057,-0.03066 -0.01039,-0.08424 -0.01412,-0.160686 -0.0077,-0.207555 -0.05408,-0.362927 -0.139065,-0.466163 -0.08411,-0.107266 -0.222147,-0.186871 -0.414269,-0.239319 l 0.26527,-1.156541 c 1.144681,0.262319 2.292065,0.511041 3.441789,0.745649 l -0.237218,1.162694 c -0.09346,-0.01907 -0.186895,-0.03823 -0.280317,-0.05748 -0.202763,-0.04179 -0.338829,-0.04514 -0.408561,-0.0094 -0.09773,0.05076 -0.157633,0.128218 -0.179525,0.232522 -0.01598,0.07612 -0.0186,0.23703 -0.0074,0.48217 0.05973,1.35885 0.128593,2.718429 0.206707,4.078631 0.610257,-1.221159 1.211508,-2.445432 1.803602,-3.67273 0.130811,-0.266672 0.201103,-0.426699 0.2112,-0.478834 0.0187,-0.09658 -0.0032,-0.175954 -0.06552,-0.238191 -0.06159,-0.06629 -0.191848,-0.118763 -0.390916,-0.158084 -0.101519,-0.02005 -0.20302,-0.04022 -0.304502,-0.06049 l 0.232404,-1.163659 c 1.045911,0.208953 2.093706,0.40617 3.143113,0.591262 l -0.205868,1.168527 c -0.227685,-0.04015 -0.39558,-0.04534 -0.504185,-0.01489 -0.103831,0.02712 -0.198495,0.08287 -0.28406,0.167288 -0.08161,0.08519 -0.196623,0.27452 -0.345938,0.568037 -1.010086,2.010722 -2.047849,4.012259 -3.112456,6.004144 -0.632192,-0.124569 -1.263454,-0.253192 -1.893735,-0.385797 -0.102246,-1.192252 -0.196617,-2.384047 -0.283217,-3.575294 -0.597861,1.042416 -1.203506,2.081775 -1.816795,3.117999 -0.652993,-0.146996 -1.304865,-0.298212 -1.955561,-0.453566 -0.137945,-2.287208 -0.247852,-4.571809 -0.330473,-6.85316 -0.0092,-0.298109 -0.03302,-0.494258 -0.07209,-0.588696 -0.03805,-0.09839 -0.104687,-0.182895 -0.19988,-0.253645 -0.09129,-0.06978 -0.245537,-0.130257 -0.462935,-0.182118 0.09893,-0.382811 0.197862,-0.765622 0.296793,-1.148432 z"
           id="path954"
           style="fill:#ffffff;fill-opacity:1" />
        <path
           d="m 84.501704,36.437177 c 1.35023,0.205563 2.702662,0.390522 4.056722,0.554058 l -0.141869,1.177468 c -0.124584,-0.01504 -0.249153,-0.03025 -0.373706,-0.04565 -0.217002,-0.02682 -0.364047,-0.02487 -0.44159,0.0066 -0.07294,0.0279 -0.132981,0.08218 -0.180114,0.162879 -0.04257,0.07712 -0.07906,0.23359 -0.109302,0.469245 l -0.603921,4.705662 c -0.03286,0.256043 -0.03932,0.422428 -0.0193,0.49937 0.02002,0.0769 0.06368,0.136173 0.131001,0.177739 0.08205,0.05994 0.2115,0.101062 0.388177,0.122926 0.155651,0.01926 0.311338,0.03826 0.467062,0.05699 L 87.533,45.501945 c -1.443328,-0.17351 -2.883365,-0.36961 -4.319537,-0.587478 l 0.178229,-1.172844 c 0.1152,0.01748 0.230423,0.03483 0.34567,0.05203 0.247181,0.03689 0.411185,0.04417 0.491272,0.02275 0.08078,-0.0255 0.143196,-0.07236 0.187261,-0.140513 0.04885,-0.07163 0.0893,-0.218921 0.121491,-0.442002 l 0.680342,-4.714522 c 0.03804,-0.263568 0.04479,-0.438624 0.0204,-0.524924 -0.01981,-0.08982 -0.06658,-0.162847 -0.140277,-0.219175 -0.05146,-0.04069 -0.185279,-0.07675 -0.401734,-0.109072 -0.124234,-0.01855 -0.248447,-0.03728 -0.372641,-0.05617 0,0 0.178233,-1.172842 0.178233,-1.172842 z"
           id="path956"
           style="fill:#ffffff;fill-opacity:1" />
        <path
           d="m 92.122311,37.371326 c 1.131057,0.10452 2.262896,0.193645 3.395183,0.266901 0.709243,1.716177 1.452046,3.426198 2.229338,5.129147 l 0.13553,-3.056258 c 0.01161,-0.26181 0.0047,-0.42617 -0.02069,-0.492853 -0.03605,-0.09999 -0.08752,-0.169956 -0.154449,-0.209927 -0.06679,-0.04409 -0.198893,-0.07065 -0.396615,-0.08039 -0.137176,-0.0068 -0.274347,-0.01376 -0.411511,-0.02099 L 96.961527,37.723 c 1.150585,0.06063 2.301486,0.104666 3.452353,0.131622 l -0.0281,1.185422 c -0.12916,-0.003 -0.25832,-0.0063 -0.387475,-0.0097 -0.193763,-0.0052 -0.333591,0.01314 -0.419806,0.05562 -0.08214,0.04258 -0.140649,0.102197 -0.175487,0.178945 -0.03482,0.07671 -0.05647,0.2441 -0.06481,0.501947 l -0.214098,6.625301 c -0.614847,-0.02 -1.229379,-0.0444 -1.843555,-0.07316 -1.010219,-2.154632 -1.96498,-4.32077 -2.866162,-6.496558 l -0.31868,4.405399 c -0.01832,0.253289 -0.01524,0.415633 0.0093,0.48724 0.0288,0.07187 0.08192,0.131117 0.159408,0.177646 0.08168,0.0468 0.224247,0.07738 0.427432,0.09105 0.141826,0.0095 0.283672,0.01886 0.425538,0.02794 l -0.07578,1.183178 c -1.237173,-0.07918 -2.472679,-0.175771 -3.706166,-0.289257 l 0.108863,-1.180725 c 0.126697,0.01166 0.253414,0.02315 0.380151,0.03445 0.211181,0.01883 0.356404,0.01485 0.435192,-0.01124 0.08343,-0.02983 0.151987,-0.08567 0.205647,-0.167451 0.05368,-0.0818 0.08763,-0.208384 0.10204,-0.379813 l 0.411652,-4.897464 c 0.01578,-0.187713 0.007,-0.326182 -0.02608,-0.415274 -0.03278,-0.0932 -0.08184,-0.161084 -0.147201,-0.203697 -0.06504,-0.04671 -0.178037,-0.077 -0.339166,-0.09129 -0.15105,-0.0134 -0.302083,-0.02708 -0.453101,-0.04103 0.03629,-0.393576 0.07258,-0.787152 0.108864,-1.180728 z"
           id="path958"
           style="fill:#ffffff;fill-opacity:1" />
        <path
           d="m 103.89016,37.883829 c 1.13255,-0.0063 2.26535,-0.02962 3.39807,-0.06939 0.87606,1.637215 1.78657,3.264366 2.73021,4.88097 l -0.17082,-3.054408 c -0.0146,-0.261652 -0.038,-0.424491 -0.0699,-0.488306 -0.0459,-0.09589 -0.10413,-0.160354 -0.1747,-0.193439 -0.0709,-0.0372 -0.20498,-0.05042 -0.40269,-0.04037 -0.13716,0.007 -0.27433,0.01372 -0.4115,0.02023 l -0.0563,-1.18428 c 1.15058,-0.05453 2.30095,-0.125812 3.45079,-0.213282 l 0.0898,1.182189 c -0.12898,0.0098 -0.25797,0.01941 -0.38697,0.02882 -0.19352,0.01411 -0.33095,0.04628 -0.41256,0.09713 -0.0776,0.05055 -0.12988,0.115691 -0.15691,0.195522 -0.027,0.07979 -0.0319,0.248491 -0.0145,0.505862 l 0.44784,6.613036 c -0.61301,0.0415 -1.22647,0.07874 -1.84034,0.111661 -1.22049,-2.042563 -2.38828,-4.102248 -3.50069,-6.178079 l 0.12106,4.415884 c 0.007,0.253895 0.0262,0.415144 0.0578,0.483956 0.0359,0.06865 0.0947,0.122315 0.17651,0.160889 0.086,0.03843 0.23112,0.05463 0.43487,0.04794 0.14221,-0.0047 0.28441,-0.0096 0.4266,-0.01473 l 0.0427,1.184933 c -1.2403,0.04499 -2.48206,0.07204 -3.72495,0.08058 l -0.007,-1.186128 c 0.12756,-8.54e-4 0.25511,-0.0019 0.38266,-0.0032 0.2125,-0.0021 0.35696,-0.0204 0.43295,-0.05416 0.0803,-0.03794 0.1431,-0.100302 0.18852,-0.187018 0.0454,-0.08673 0.0667,-0.216086 0.0642,-0.388145 l -0.0738,-4.915424 c -0.003,-0.188398 -0.0252,-0.325371 -0.0669,-0.410792 -0.0418,-0.08954 -0.0972,-0.152289 -0.16632,-0.188282 -0.0692,-0.04011 -0.18444,-0.05915 -0.3459,-0.05758 -0.15136,0.0015 -0.30272,0.0026 -0.45408,0.0035 -0.002,-0.395377 -0.005,-0.790754 -0.007,-1.186131 z"
           id="path960"
           style="fill:#ffffff;fill-opacity:1" />
        <path
           d="m 115.65499,37.228649 c 2.32079,-0.241474 4.63807,-0.546712 6.94917,-0.911023 0.45613,0.842843 0.91836,1.683666 1.38657,2.522425 -0.34448,0.191658 -0.69019,0.38204 -1.03714,0.571116 -0.25515,-0.40799 -0.52784,-0.726641 -0.81832,-0.956072 -0.28649,-0.230086 -0.58602,-0.365608 -0.89985,-0.40687 -0.31048,-0.04592 -0.66404,-0.04094 -1.06195,0.01386 -0.42802,0.05894 -0.85624,0.115828 -1.28465,0.170632 l 0.27091,2.121276 c 0.14304,-0.01828 0.28606,-0.03678 0.42905,-0.05551 0.32262,-0.04226 0.53633,-0.09409 0.64031,-0.153639 0.10766,-0.06424 0.1792,-0.148524 0.21467,-0.252668 0.035,-0.108266 0.0319,-0.310409 -0.009,-0.606738 l -0.0446,-0.32266 c 0.36009,-0.04981 0.72003,-0.101059 1.0798,-0.153733 l 0.52482,3.588093 c -0.36922,0.05396 -0.73866,0.106469 -1.10831,0.157503 l -0.0505,-0.365274 c -0.0342,-0.247539 -0.0902,-0.423926 -0.16772,-0.52903 -0.0734,-0.105705 -0.16435,-0.171816 -0.27285,-0.198443 -0.10876,-0.02668 -0.33962,-0.01588 -0.69427,0.03043 -0.12982,0.01695 -0.25967,0.03372 -0.38954,0.0503 l 0.24912,1.950599 c 0.0265,0.20727 0.053,0.331876 0.0797,0.373918 0.0267,0.04203 0.0709,0.07147 0.13285,0.08829 0.066,0.01627 0.19994,0.01147 0.40126,-0.015 0.24542,-0.03228 0.49075,-0.0652 0.73597,-0.09877 0.54912,-0.07516 1.00153,-0.216834 1.35546,-0.422036 0.35346,-0.209338 0.65007,-0.504975 0.88886,-0.885948 0.24236,-0.385723 0.40406,-0.824007 0.48629,-1.314337 0.39672,0.06756 0.79422,0.133475 1.19248,0.197739 -0.20174,1.10995 -0.412,2.219726 -0.63092,3.329221 -2.54254,0.404124 -5.09779,0.741613 -7.66277,1.007249 l -0.12242,-1.179432 c 0.0738,-0.0076 0.14759,-0.01535 0.22137,-0.02312 0.29501,-0.03106 0.49109,-0.07321 0.58757,-0.12495 0.0966,-0.0518 0.16027,-0.131003 0.19096,-0.237457 0.0142,-0.06344 0.005,-0.237546 -0.0265,-0.522542 l -0.51841,-4.64077 c -0.0282,-0.252356 -0.0648,-0.415263 -0.10964,-0.488534 -0.0409,-0.07375 -0.0995,-0.124923 -0.17598,-0.153581 -0.077,-0.03275 -0.2219,-0.03735 -0.43519,-0.01455 -0.12474,0.01333 -0.24948,0.02649 -0.37424,0.03946 -0.0408,-0.393145 -0.0816,-0.78629 -0.1224,-1.179435 z"
           id="path962"
           style="fill:#ffffff;fill-opacity:1" />
        <path
           d="m 127.09878,35.534286 c 1.70074,-0.324398 3.39714,-0.67938 5.08814,-1.063052 0.32644,-0.07407 0.68886,-0.125885 1.08803,-0.156266 0.40304,-0.0313 0.78389,0.01682 1.14384,0.144893 0.36387,0.127116 0.67107,0.323855 0.9215,0.591301 0.25039,0.267394 0.42487,0.595615 0.52182,0.985299 0.15729,0.632236 0.0582,1.201942 -0.30391,1.708189 -0.35882,0.500978 -0.83914,0.886247 -1.4389,1.15235 0.73641,0.531138 1.47951,1.057188 2.229,1.578082 0.0319,0.02383 0.0637,0.04766 0.0956,0.07148 0.14773,0.107177 0.27721,0.182855 0.38813,0.227132 0.10995,0.04031 0.21555,0.0626 0.31673,0.0669 0.10114,0.0043 0.2358,-0.01461 0.40368,-0.05698 0.12285,-0.031 0.24566,-0.06214 0.36842,-0.09342 l 0.29245,1.149586 c -0.92108,0.23483 -1.84467,0.461837 -2.77061,0.680754 -1.21104,-0.979229 -2.40352,-1.971765 -3.57622,-2.977269 -0.23587,0.0513 -0.47186,0.102045 -0.70798,0.152239 l 0.35541,1.671939 c 0.0614,0.28872 0.11706,0.46957 0.16722,0.54275 0.0493,0.06913 0.11335,0.116252 0.19219,0.141298 0.0821,0.02013 0.23288,0.0067 0.45188,-0.04078 0.13225,-0.0287 0.26446,-0.05757 0.39663,-0.08661 l 0.25458,1.159019 c -1.41892,0.311823 -2.84301,0.604268 -4.27173,0.87639 l -0.22217,-1.165642 c 0.12888,-0.02455 0.25772,-0.04927 0.38653,-0.07415 0.20357,-0.03933 0.34298,-0.08755 0.41807,-0.144031 0.0785,-0.06135 0.13008,-0.138377 0.15483,-0.231005 0.0112,-0.05237 -0.008,-0.205155 -0.0584,-0.458509 l -0.93652,-4.734826 c -0.0366,-0.18495 -0.0785,-0.312507 -0.12547,-0.382584 -0.0438,-0.07491 -0.10195,-0.117747 -0.17448,-0.128559 -0.10437,-0.02545 -0.21827,-0.02614 -0.34185,-0.0021 -0.0554,0.01283 -0.11085,0.02563 -0.16629,0.0384 -0.10367,0.02 -0.20736,0.03989 -0.31107,0.05967 z m 3.33736,0.763221 0.46153,2.171115 c 0.41792,-0.08884 0.83548,-0.179423 1.25266,-0.271732 0.4916,-0.108774 0.84841,-0.236327 1.06934,-0.379307 0.22425,-0.148029 0.37685,-0.320191 0.45805,-0.515799 0.0852,-0.196592 0.0995,-0.414591 0.0435,-0.654052 -0.0514,-0.219487 -0.15307,-0.393533 -0.3046,-0.522377 -0.14851,-0.133786 -0.33661,-0.214279 -0.56441,-0.241948 -0.22412,-0.02862 -0.57143,0.01089 -1.04435,0.115952 -0.45683,0.101486 -0.91407,0.200881 -1.3717,0.298148 z"
           id="path964"
           style="fill:#ffffff;fill-opacity:1" />
      </g>
    </g>
  </g>
</svg>
