<?xml version="1.0" encoding="UTF-8" standalone="no"?>
<!-- Created with Inkscape (http://www.inkscape.org/) -->

<svg
   width="210mm"
   height="297mm"
   viewBox="0 0 210 297"
   version="1.1"
   id="svg5"
   inkscape:version="1.2 (dc2aedaf03, 2022-05-15)"
   sodipodi:docname="text-ribbon-3(winner).svg"
   xmlns:inkscape="http://www.inkscape.org/namespaces/inkscape"
   xmlns:sodipodi="http://sodipodi.sourceforge.net/DTD/sodipodi-0.dtd"
   xmlns="http://www.w3.org/2000/svg"
   xmlns:svg="http://www.w3.org/2000/svg">
  <sodipodi:namedview
     id="namedview7"
     pagecolor="#ffffff"
     bordercolor="#666666"
     borderopacity="1.0"
     inkscape:showpageshadow="2"
     inkscape:pageopacity="0.0"
     inkscape:pagecheckerboard="0"
     inkscape:deskcolor="#d1d1d1"
     inkscape:document-units="mm"
     showgrid="false"
     inkscape:zoom="0.71493827"
     inkscape:cx="154.5588"
     inkscape:cy="262.95977"
     inkscape:window-width="1789"
     inkscape:window-height="959"
     inkscape:window-x="2183"
     inkscape:window-y="149"
     inkscape:window-maximized="0"
     inkscape:current-layer="layer1" />
  <defs
     id="defs2">
    <inkscape:path-effect
       effect="bend_path"
       id="path-effect986"
       is_visible="true"
       lpeversion="1"
       bendpath="m 58.66186,101.58435 c 16.404733,6.75964 40.101656,-29.048659 55.30187,-30.074551"
       prop_scale="1"
       scale_y_rel="false"
       vertical="false"
       hide_knot="false"
       bendpath-nodetypes="cc" />
    <inkscape:path-effect
       effect="bend_path"
       id="path-effect384"
       is_visible="true"
       lpeversion="1"
       bendpath="M 55.541948,57.403238 C 107.31655,73.808903 142.13669,44.167091 180.06951,63.160309"
       prop_scale="1"
       scale_y_rel="false"
       vertical="false"
       hide_knot="false"
       bendpath-nodetypes="cc" />
    <inkscape:path-effect
       effect="bend_path"
       id="path-effect6714"
       is_visible="true"
       lpeversion="1"
       bendpath="M 56.395006,65.593029 C 116.332,73.850343 121.36015,39.240299 175.01155,49.891924"
       prop_scale="1"
       scale_y_rel="false"
       vertical="false"
       hide_knot="false"
       bendpath-nodetypes="cc" />
    <inkscape:path-effect
       effect="bend_path"
       id="path-effect6712"
       is_visible="true"
       lpeversion="1"
       bendpath="M 56.918376,53.29383 C 79.97645,55.368212 170.63466,54.196887 166.76847,56.172366"
       prop_scale="1.08566"
       scale_y_rel="false"
       vertical="false"
       hide_knot="false"
       bendpath-nodetypes="cc" />
  </defs>
  <g
     inkscape:label="Layer 1"
     inkscape:groupmode="layer"
     id="layer1">
    <g
       id="g1113">
      <g
         id="g6710"
         class="UnoptimicedTransforms"
         transform="translate(-21.719861,-17.5329)">
        <path
           id="path4424"
           style="fill:#ffffff;fill-opacity:1;stroke:#000000;stroke-width:0.846667;stroke-linecap:round;stroke-linejoin:miter;stroke-dasharray:none;stroke-opacity:1;paint-order:stroke fill markers"
           d="M 188.48409,46.045218 C 178.00381,38.871715 165.22736,34.95266 152.222,35.497854 c 0,1e-6 0,0 0,0 -0.44834,0.0218 -0.89489,0.04782 -1.3396,0.07799 0.42953,4.22791 0.80993,8.459801 1.13819,12.69577 0.11067,1.40162 0.21451,2.803622 0.31151,4.205939 8.89946,-0.489863 17.94924,2.04802 25.48174,6.993307 0.48584,-3.160588 0.7584,-6.403097 0.74863,-9.712494 3.02099,-1.530679 6.33073,-2.792558 9.92162,-3.713149 z"
           sodipodi:nodetypes="cccccc" />
        <path
           style="fill:#ffffff;fill-opacity:1;stroke:#000000;stroke-width:0.438561;stroke-linecap:butt;stroke-linejoin:bevel;stroke-dasharray:none;stroke-opacity:1"
           d="m 150.5757,35.528725 c 0.5501,0.177512 1.09587,0.361502 1.63711,0.55193 4.95751,1.709757 9.33174,4.076408 13.05861,6.819683 -4.33535,-0.908792 -8.75857,-1.270068 -13.14947,-1.057142 -0.30036,0.01611 -0.59994,0.03447 -0.89873,0.05504 -0.20291,-2.124231 -0.41888,-4.247398 -0.64752,-6.369516 z"
           id="path4426"
           sodipodi:nodetypes="cccc" />
        <path
           id="rect2715"
           style="fill:#ffffff;fill-opacity:1;stroke:#000000;stroke-width:0.846667;stroke-linecap:round;stroke-linejoin:miter;stroke-dasharray:none;stroke-opacity:1;paint-order:stroke fill markers"
           d="m 58.667547,54.977566 c 7.392626,3.275255 15.33256,5.066155 23.141055,5.007181 0.06673,5.655825 0.199974,11.313696 0.399403,16.972337 C 71.49617,77.076573 60.915104,74.676738 51.32338,70.3283 c 2.844645,-1.910633 5.492593,-3.974823 7.944299,-6.168409 -0.366681,-3.083082 -0.55673,-6.148562 -0.600132,-9.182325 z"
           sodipodi:nodetypes="cccccc" />
        <path
           style="fill:#ffffff;fill-opacity:1;stroke:#000000;stroke-width:0.441;stroke-linecap:butt;stroke-linejoin:bevel;stroke-dasharray:none;stroke-opacity:1"
           d="m 81.992874,59.744111 c -3.091877,2.157931 -6.617694,4.01992 -10.520092,5.507731 3.538868,0.607315 7.105711,0.899432 10.645964,0.855446 -0.05155,-2.121282 -0.09351,-4.242365 -0.125872,-6.363177 z"
           id="path2878" />
        <path
           id="rect184"
           style="fill:#ffffff;fill-opacity:1;stroke:#000000;stroke-width:0.846667;stroke-linecap:round;stroke-linejoin:miter;stroke-dasharray:none;stroke-opacity:1;paint-order:stroke fill markers"
           d="m 71.753771,65.531091 c 6.654341,1.105619 13.379082,1.095116 19.798352,-0.138892 0.324783,-0.06272 0.648497,-0.128442 0.971112,-0.19715 10e-7,0 3e-6,-10e-7 4e-6,-10e-7 8.709881,-1.801598 16.540111,-5.893871 24.442441,-10.389603 10e-6,-10e-7 10e-6,-2e-6 10e-6,-3e-6 1.62032,-0.932572 3.26586,-1.877426 4.93464,-2.806466 6.11982,-3.434743 12.92186,-6.825585 20.97945,-8.64605 2.97378,-0.651099 6.06001,-1.074724 9.23801,-1.245992 4.23755,-0.206816 8.50693,0.124042 12.69857,0.969079 -1.22251,5.533456 -2.38525,11.079266 -3.48858,16.636274 -3.16852,-0.640513 -6.3681,-0.842734 -9.47824,-0.592695 -1.64518,0.130189 -3.26391,0.378614 -4.84413,0.739266 -7.05818,1.442723 -13.5205,5.243784 -21.14921,9.546016 l 0,2e-6 c -0.41026,0.237592 -0.82362,0.475418 -1.24002,0.712963 -7.70851,4.448769 -16.75142,9.104418 -27.811482,11.586877 -2e-6,0 -4e-6,0 -6e-6,10e-7 -1.635194,0.349952 -3.296282,0.648996 -4.982041,0.894992 -7.618073,1.072725 -15.358549,0.928071 -22.916074,-0.315794 0.962881,-5.581979 1.911942,-11.166272 2.847194,-16.752824 z"
           sodipodi:nodetypes="ccccc" />
        <path
           style="fill:#000000;fill-opacity:1;stroke:none;stroke-width:0.340796px;stroke-linecap:butt;stroke-linejoin:miter;stroke-opacity:1"
           d="m 69.026778,81.586655 c 3.776032,0.6169 7.602793,0.957792 11.443229,1.004643 -3.84253,-0.260157 -7.632335,-0.813995 -11.33467,-1.635102 -0.03617,0.210156 -0.07235,0.420309 -0.108559,0.630459 z"
           id="path3606"
           sodipodi:nodetypes="cccc" />
        <path
           style="fill:#000000;fill-opacity:1;stroke:none;stroke-width:0.289803px;stroke-linecap:butt;stroke-linejoin:miter;stroke-opacity:1"
           d="m 69.375371,79.559694 c 2.643999,0.430814 5.312954,0.722357 7.993495,0.867914 -2.671528,-0.358533 -5.303981,-0.861673 -7.885314,-1.498437 -0.03604,0.210177 -0.0721,0.420352 -0.108181,0.630523 z"
           id="path4342"
           sodipodi:nodetypes="cccc" />
        <path
           style="fill:#000000;fill-opacity:1;stroke:none;stroke-width:0.264292px;stroke-linecap:butt;stroke-linejoin:miter;stroke-opacity:1"
           d="m 69.722749,77.532529 c 2.128566,0.346184 4.272971,0.599345 6.425809,0.755742 -2.13896,-0.369102 -4.24711,-0.833402 -6.318005,-1.386328 -0.03591,0.210198 -0.07185,0.420394 -0.107804,0.630586 z"
           id="path4344"
           sodipodi:nodetypes="cccc" />
        <path
           style="fill:#000000;fill-opacity:1;stroke:none;stroke-width:0.24098px;stroke-linecap:butt;stroke-linejoin:miter;stroke-opacity:1"
           d="m 70.068913,75.505162 c 1.712097,0.277787 3.434133,0.493436 5.161983,0.64506 -1.71003,-0.363966 -3.396018,-0.790521 -5.054557,-1.275708 -0.03579,0.210219 -0.0716,0.420436 -0.107426,0.630648 z"
           id="path4346"
           sodipodi:nodetypes="cccc" />
        <path
           style="fill:#000000;fill-opacity:1;stroke:none;stroke-width:0.340796px;stroke-linecap:butt;stroke-linejoin:miter;stroke-opacity:1"
           d="m 71.547341,66.76279 c 2.949019,0.494134 5.919553,0.774846 8.88204,0.830037 -2.963826,0.157972 -5.970402,0.0898 -8.987955,-0.199139 0.03532,-0.210296 0.07063,-0.420595 0.105915,-0.630898 z"
           id="path4350"
           sodipodi:nodetypes="cccc" />
        <path
           style="fill:#000000;fill-opacity:1;stroke:none;stroke-width:0.289803px;stroke-linecap:butt;stroke-linejoin:miter;stroke-opacity:1"
           d="m 71.206411,68.791021 c 2.209013,0.370704 4.432183,0.62592 6.658171,0.760544 -2.236603,0.07824 -4.495593,0.03451 -6.764463,-0.129713 0.03545,-0.210274 0.07088,-0.42055 0.106292,-0.630831 z"
           id="path4352"
           sodipodi:nodetypes="cccc" />
        <path
           style="fill:#000000;fill-opacity:1;stroke:none;stroke-width:0.264292px;stroke-linecap:butt;stroke-linejoin:miter;stroke-opacity:1"
           d="m 70.864268,70.819052 c 1.902311,0.319426 3.816208,0.55612 5.735018,0.706932 -1.933436,0.06183 -3.883158,0.03624 -5.841689,-0.07616 0.03558,-0.210255 0.07113,-0.420513 0.106671,-0.630774 z"
           id="path4354"
           sodipodi:nodetypes="cccc" />
        <path
           style="fill:#000000;fill-opacity:1;stroke:none;stroke-width:0.24098px;stroke-linecap:butt;stroke-linejoin:miter;stroke-opacity:1"
           d="m 70.52091,72.846883 c 1.636582,0.275106 3.282438,0.491029 4.933643,0.645822 -1.669239,0.05762 -3.350962,0.05254 -5.040695,-0.01508 0.0357,-0.210243 0.07139,-0.42049 0.107052,-0.630739 z"
           id="path4356"
           sodipodi:nodetypes="cccc" />
        <path
           style="fill:#000000;fill-opacity:1;stroke:none;stroke-width:0.340796px;stroke-linecap:butt;stroke-linejoin:miter;stroke-opacity:1"
           d="m 161.45612,59.016241 c -2.47237,-0.503316 -4.96791,-0.745455 -7.43191,-0.718042 2.46048,-0.24052 4.99869,-0.211856 7.55715,0.09055 -1e-5,1.8e-5 -0.12524,0.627471 -0.12524,0.627489 z"
           id="path4445"
           sodipodi:nodetypes="cccc" />
        <path
           style="fill:#000000;fill-opacity:1;stroke:none;stroke-width:0.289803px;stroke-linecap:butt;stroke-linejoin:miter;stroke-opacity:1"
           d="m 161.86057,56.999243 c -1.8902,-0.385002 -3.79651,-0.625821 -5.69745,-0.718376 1.90976,-0.120405 3.85885,-0.09101 5.82432,0.09119 0,1.8e-5 -0.12687,0.627163 -0.12687,0.627181 z"
           id="path4447"
           sodipodi:nodetypes="cccc" />
        <path
           style="fill:#000000;fill-opacity:1;stroke:none;stroke-width:0.264292px;stroke-linecap:butt;stroke-linejoin:miter;stroke-opacity:1"
           d="m 162.27023,54.983241 c -1.66019,-0.338189 -3.33391,-0.570958 -5.00831,-0.695577 1.6887,-0.08806 3.40558,-0.06596 5.1368,0.06871 -0.0429,0.20894 -0.0857,0.417896 -0.12849,0.626868 z"
           id="path4449"
           sodipodi:nodetypes="cccc" />
        <path
           style="fill:#000000;fill-opacity:1;stroke:none;stroke-width:0.24098px;stroke-linecap:butt;stroke-linejoin:miter;stroke-opacity:1"
           d="m 162.68512,52.968249 c -1.45555,-0.296798 -2.92215,-0.516639 -4.39211,-0.657679 1.48903,-0.07127 2.99922,-0.06153 4.52221,0.03113 0,1.8e-5 -0.1301,0.626535 -0.1301,0.626553 z"
           id="path4451"
           sodipodi:nodetypes="cccc" />
        <path
           style="fill:#000000;fill-opacity:1;stroke:none;stroke-width:0.340796px;stroke-linecap:butt;stroke-linejoin:miter;stroke-opacity:1"
           d="m 164.53347,44.293362 c -3.61723,-0.722712 -7.29291,-1.053191 -10.95254,-0.975264 3.66839,0.135173 7.29775,0.680185 10.81594,1.600513 -1e-5,1.9e-5 0.13661,-0.625268 0.1366,-0.625249 z"
           id="path4453"
           sodipodi:nodetypes="cccc" />
        <path
           style="fill:#000000;fill-opacity:1;stroke:none;stroke-width:0.289803px;stroke-linecap:butt;stroke-linejoin:miter;stroke-opacity:1"
           d="m 164.09607,46.303867 c -2.49193,-0.49576 -5.01334,-0.797705 -7.53739,-0.899444 2.51718,0.314798 4.99307,0.828304 7.4024,1.52502 0.0449,-0.208542 0.0899,-0.417067 0.13499,-0.625576 z"
           id="path4455"
           sodipodi:nodetypes="cccc" />
        <path
           style="fill:#000000;fill-opacity:1;stroke:none;stroke-width:0.264292px;stroke-linecap:butt;stroke-linejoin:miter;stroke-opacity:1"
           d="m 163.66389,48.315431 c -1.973,-0.39119 -3.9648,-0.65551 -5.96065,-0.789453 1.98224,0.34666 3.92918,0.821614 5.8273,1.415363 0,1.8e-5 0.13336,-0.625928 0.13335,-0.62591 z"
           id="path4457"
           sodipodi:nodetypes="cccc" />
        <path
           style="fill:#000000;fill-opacity:1;stroke:none;stroke-width:0.24098px;stroke-linecap:butt;stroke-linejoin:miter;stroke-opacity:1"
           d="m 163.23695,50.328047 c -1.55977,-0.308157 -3.13135,-0.533338 -4.7066,-0.673669 1.55627,0.352633 3.08362,0.787878 4.57486,1.299894 0.0438,-0.208758 0.0877,-0.4175 0.13174,-0.626225 z"
           id="path4459"
           sodipodi:nodetypes="cccc" />
      </g>
      <g
         aria-label="WINNER"
         transform="matrix(0.98983918,0,0,0.642334,8.6762048,-9.4643516)"
         id="text921"
         style="font-size:14.2401px;line-height:1.25;font-family:Rubik;-inkscape-font-specification:Rubik;stroke-width:0.356003"
         class="UnoptimicedTransforms">
        <path
           d="m 68.612731,104.83053 c -0.07479,-2.71281 -0.393464,-5.390369 -0.887037,-8.023454 -0.02117,-0.134789 -0.0062,-0.243316 0.04476,-0.325683 0.05655,-0.09499 0.13393,-0.16309 0.233426,-0.20513 0.180933,-0.07645 0.362934,-0.155768 0.545985,-0.237633 0.08236,-0.03683 0.164872,-0.03767 0.24798,-0.0023 0.08836,0.02247 0.150924,0.07215 0.186909,0.149857 0.01133,0.03667 0.02264,0.07334 0.03393,0.110024 0.658212,2.931963 1.136909,5.931878 1.324043,8.984028 0.008,0.26979 -0.03618,0.48698 -0.132935,0.65108 -0.0996,0.15465 -0.310934,0.28748 -0.635809,0.39003 -0.2826,0.0892 -0.568575,0.17438 -0.857909,0.25521 -0.318434,0.089 -0.577259,0.0911 -0.767826,0.0118 -0.193311,-0.0887 -0.367608,-0.237 -0.522075,-0.44438 -0.843699,-1.14698 -1.602084,-2.33366 -2.255792,-3.56123 -0.137203,-0.25713 -0.269134,-0.51628 -0.395651,-0.77723 -0.327661,1.64079 -0.844419,3.28031 -1.56676,4.87035 -0.109976,0.2381 -0.256802,0.42271 -0.440638,0.55167 -0.183484,0.11933 -0.461442,0.17247 -0.829378,0.1462 -0.334488,-0.0239 -0.669821,-0.0576 -1.005563,-0.10141 -0.386104,-0.0504 -0.655413,-0.15512 -0.802185,-0.29705 -0.145372,-0.15151 -0.241453,-0.36337 -0.287568,-0.63391 -0.412426,-3.071 -0.273925,-6.11788 0.500274,-8.995637 0.01182,-0.0364 0.0237,-0.07279 0.03564,-0.109155 0.03351,-0.07857 0.07916,-0.135717 0.135311,-0.172236 0.06569,-0.04273 0.123315,-0.05323 0.175551,-0.03133 0.116176,0.04871 0.23647,0.0926 0.360444,0.131883 0.06813,0.02159 0.118603,0.07062 0.152965,0.148785 0.04319,0.07058 0.05981,0.172583 0.04805,0.306141 -0.289077,2.625758 -0.141726,5.327078 0.390461,8.014438 1.002359,-1.79149 1.705571,-3.68435 2.137498,-5.59684 0.01409,-0.09615 0.05775,-0.189241 0.129052,-0.280187 0.07069,-0.100551 0.181324,-0.156678 0.334636,-0.172115 0.157959,-0.0159 0.315931,-0.03486 0.473673,-0.05675 0.0053,-7.26e-4 0.01051,-0.0015 0.01577,-0.0022 0.157806,-0.02201 0.283808,0.0051 0.380268,0.08498 0.09472,0.07043 0.161742,0.149554 0.199614,0.239057 0.905909,1.742061 2.025558,3.400991 3.300879,4.980381 z"
           id="path973" />
        <path
           d="m 75.814957,103.53534 c -0.128061,0.0712 -0.257366,0.0991 -0.386996,0.0836 -0.12968,-0.0155 -0.219036,-0.0696 -0.268464,-0.1614 l -4.3547,-8.090667 c -0.04944,-0.09185 -0.05414,-0.191325 -0.01492,-0.298403 0.03924,-0.107126 0.11016,-0.188519 0.213269,-0.244952 0.192186,-0.105186 0.383863,-0.212359 0.57507,-0.321443 0.102586,-0.05853 0.209956,-0.07677 0.322774,-0.05466 0.112797,0.02211 0.195808,0.07769 0.248563,0.167588 l 4.646044,7.917125 c 0.05273,0.0898 0.05305,0.19417 5e-6,0.31295 -0.05304,0.11877 -0.142899,0.21486 -0.269326,0.28763 -0.235595,0.13561 -0.472688,0.26984 -0.711318,0.4026 z"
           id="path975" />
        <path
           d="m 86.888444,95.839819 c -0.125299,0.101665 -0.25561,0.158038 -0.390485,0.169026 -0.134877,0.01099 -0.287725,-3.83e-4 -0.458373,-0.03425 -3.031864,-0.550041 -6.044073,-1.174327 -8.920709,-1.98055 l 4.037376,5.722442 c 0.06016,0.08528 0.07023,0.188418 0.02946,0.309452 -0.04076,0.12101 -0.119629,0.22209 -0.236477,0.30278 -0.217748,0.15037 -0.436738,0.29985 -0.657009,0.44837 -0.118205,0.0797 -0.241904,0.11684 -0.370395,0.11135 -0.128532,-0.005 -0.221594,-0.0519 -0.279435,-0.13864 l -5.095718,-7.642946 c -0.05785,-0.08676 -0.07096,-0.186331 -0.03988,-0.29877 0.03109,-0.112444 0.09667,-0.202673 0.197123,-0.271257 0.159827,-0.109124 0.319469,-0.219335 0.478951,-0.330583 0.118467,-0.08264 0.24026,-0.121957 0.365929,-0.117779 0.125652,0.0042 0.267919,0.0312 0.427107,0.08087 2.828859,0.83274 5.805712,1.47819 8.814639,2.044042 l -4.40111,-5.472311 c -0.0656,-0.08156 -0.08587,-0.181272 -0.06097,-0.299079 0.02491,-0.117832 0.08722,-0.217017 0.187138,-0.29782 0.186214,-0.150595 0.372584,-0.301885 0.559149,-0.453794 0.100106,-0.08151 0.210696,-0.122611 0.331848,-0.123274 0.121157,-6.63e-4 0.214983,0.03933 0.281359,0.120237 l 5.84662,7.126565 c 0.06636,0.08089 0.08572,0.182064 0.05775,0.303559 -0.02797,0.121499 -0.09454,0.225385 -0.19978,0.311519 -0.167423,0.137028 -0.335454,0.27399 -0.504117,0.410839 z"
           id="path977" />
        <path
           d="m 96.54738,87.708691 c -0.11779,0.09962 -0.242031,0.155061 -0.372753,0.166253 -0.130719,0.01119 -0.279925,7.52e-4 -0.447649,-0.0313 -2.977531,-0.518658 -5.986277,-0.997673 -8.968125,-1.516229 l 4.524595,5.351362 c 0.06743,0.07976 0.08852,0.180061 0.06307,0.300937 -0.02545,0.120881 -0.08948,0.22458 -0.192128,0.311041 -0.191296,0.161131 -0.38304,0.322273 -0.575265,0.483384 -0.103147,0.08645 -0.216769,0.132006 -0.340676,0.136596 -0.123921,0.0046 -0.219359,-0.03322 -0.286346,-0.113337 l -5.900799,-7.057678 c -0.06698,-0.08012 -0.08863,-0.179619 -0.06502,-0.298493 0.02361,-0.118889 0.08511,-0.220047 0.184601,-0.303639 0.158284,-0.13299 0.31663,-0.266326 0.475059,-0.399981 0.11769,-0.09929 0.241802,-0.154433 0.372379,-0.165358 0.130577,-0.01092 0.279615,-2.07e-4 0.447156,0.03212 2.974316,0.523661 5.982478,1.003068 8.966373,1.517405 l -4.530582,-5.346773 c -0.06752,-0.07969 -0.08878,-0.179925 -0.0636,-0.300733 0.02518,-0.120812 0.08893,-0.224464 0.19129,-0.310913 0.190758,-0.161107 0.381944,-0.322251 0.57359,-0.48339 0.102837,-0.08647 0.216231,-0.132077 0.340008,-0.136766 0.12379,-0.0047 0.219235,0.03301 0.286362,0.113022 l 5.913157,7.048206 c 0.06712,0.08001 0.08888,0.179533 0.06533,0.298558 -0.02355,0.119041 -0.08505,0.220433 -0.184611,0.304328 -0.158389,0.133474 -0.316855,0.267274 -0.475418,0.401374 z"
           id="path979" />
        <path
           d="m 98.272468,80.58581 c 1.082844,-0.861174 2.177772,-1.704753 3.290662,-2.523211 0.35993,-0.264512 0.72149,-0.526433 1.08513,-0.784667 0.107,-0.07599 0.17761,-0.172295 0.21211,-0.289431 0.0345,-0.117108 0.0221,-0.21852 -0.0378,-0.304167 l -0.29405,-0.420415 c -0.0599,-0.08563 -0.1513,-0.131903 -0.27448,-0.138251 -0.12315,-0.0063 -0.2395,0.02923 -0.34847,0.106659 -0.37028,0.263091 -0.73743,0.529441 -1.10192,0.797952 -1.127826,0.830152 -2.23537,1.683614 -3.328522,2.55286 l -1.869366,-2.350705 c 1.117317,-0.888172 2.25445,-1.764804 3.417289,-2.62237 0.485559,-0.359662 0.979689,-0.717388 1.483359,-1.070801 0.11451,-0.08035 0.1921,-0.180649 0.23285,-0.301358 0.0408,-0.120702 0.0319,-0.22412 -0.0275,-0.310141 l -0.29133,-0.422283 c -0.0593,-0.08602 -0.15339,-0.130909 -0.28213,-0.134185 -0.12873,-0.0033 -0.251845,0.0361 -0.368508,0.117962 -0.513059,0.360027 -1.014826,0.723648 -1.50628,1.088487 -1.524117,1.12488 -3.001313,2.278657 -4.444354,3.445022 -0.106095,0.08575 -0.173649,0.18938 -0.202642,0.310705 -0.02899,0.121329 -0.01039,0.222438 0.05552,0.303401 l 5.806052,7.13211 c 0.06592,0.08097 0.159061,0.121333 0.279316,0.121379 0.120256,4.7e-5 0.23003,-0.04022 0.329503,-0.120785 1.35298,-1.095831 2.71,-2.155494 4.08381,-3.162681 0.48245,-0.351413 0.96108,-0.694846 1.43712,-1.027281 0.0999,-0.0698 0.16446,-0.1608 0.19402,-0.273614 0.0296,-0.11276 0.015,-0.212271 -0.0442,-0.298424 l -0.29029,-0.422985 c -0.0591,-0.08616 -0.1471,-0.135267 -0.2644,-0.146619 -0.11728,-0.01135 -0.22722,0.01863 -0.3294,0.08998 -0.48651,0.339725 -0.97356,0.689605 -1.46239,1.046622 -1.07656,0.790005 -2.14078,1.609535 -3.19854,2.451065 z"
           id="path981" />
        <path
           d="m 107.55884,68.028408 c 1.45768,-0.600143 2.89085,-0.73105 4.05633,-0.458448 1.18241,0.267547 1.75539,0.962461 1.84912,1.941215 0.0703,0.733924 -0.14349,1.361317 -0.53723,1.887706 -0.39652,0.530118 -0.91933,0.978448 -1.57808,1.388521 1.18861,0.939897 2.17518,2.009496 2.81311,3.22938 0.0259,0.05574 0.0403,0.107595 0.0441,0.154801 0.007,0.08505 -0.0112,0.161465 -0.0519,0.229581 -0.0349,0.05855 -0.0815,0.08966 -0.14185,0.09481 -0.14427,0.0123 -0.29234,0.03279 -0.44415,0.06067 -0.19696,0.03618 -0.38056,-0.04903 -0.55745,-0.267497 -0.84678,-1.026578 -1.95481,-1.930437 -3.19302,-2.729685 -0.5005,0.209187 -0.99732,0.439002 -1.48965,0.681022 -0.4054,0.201556 -0.8065,0.413024 -1.20382,0.633168 l 1.75884,3.173877 c 0.0506,0.09128 0.0579,0.190138 0.0228,0.29676 -0.0351,0.106626 -0.1017,0.187786 -0.20052,0.244462 -0.1842,0.105647 -0.36839,0.213988 -0.55263,0.324843 -0.0988,0.05947 -0.20379,0.07903 -0.31551,0.05851 -0.11172,-0.02051 -0.19528,-0.07475 -0.24999,-0.163662 l -4.81932,-7.83266 c -0.0547,-0.08892 -0.0565,-0.193687 -0.004,-0.314395 0.0524,-0.120696 0.1427,-0.219581 0.27068,-0.295916 0.84808,-0.505866 1.72631,-0.992637 2.63803,-1.452179 0.59353,-0.313719 1.22254,-0.611673 1.88614,-0.884887 z m 1.71292,4.36509 c 1.66191,-0.697991 2.50072,-1.420672 2.23021,-2.548288 -0.13674,-0.570018 -0.49631,-0.923051 -1.10949,-1.018851 -0.60835,-0.103726 -1.45652,0.02005 -2.43851,0.430844 -0.59526,0.249019 -1.16535,0.519266 -1.70951,0.803094 -0.46903,0.23581 -0.92965,0.479838 -1.38237,0.730848 l 1.64157,2.962289 c 0.41251,-0.228607 0.82994,-0.449003 1.25278,-0.659953 0.49519,-0.247904 1.00054,-0.48378 1.51532,-0.699983 z"
           id="path983" />
      </g>
    </g>
  </g>
</svg>
