<?xml version="1.0" encoding="UTF-8" standalone="no"?>
<!-- Created with Inkscape (http://www.inkscape.org/) -->

<svg
   width="210mm"
   height="297mm"
   viewBox="0 0 210 297"
   version="1.1"
   id="svg5"
   inkscape:version="1.2 (dc2aedaf03, 2022-05-15)"
   sodipodi:docname="text-ribbon(winner).svg"
   xmlns:inkscape="http://www.inkscape.org/namespaces/inkscape"
   xmlns:sodipodi="http://sodipodi.sourceforge.net/DTD/sodipodi-0.dtd"
   xmlns="http://www.w3.org/2000/svg"
   xmlns:svg="http://www.w3.org/2000/svg">
  <sodipodi:namedview
     id="namedview7"
     pagecolor="#ffffff"
     bordercolor="#666666"
     borderopacity="1.0"
     inkscape:showpageshadow="2"
     inkscape:pageopacity="0.0"
     inkscape:pagecheckerboard="0"
     inkscape:deskcolor="#d1d1d1"
     inkscape:document-units="mm"
     showgrid="false"
     inkscape:zoom="2.0634432"
     inkscape:cx="361.77395"
     inkscape:cy="154.83828"
     inkscape:window-width="1920"
     inkscape:window-height="1058"
     inkscape:window-x="-8"
     inkscape:window-y="-8"
     inkscape:window-maximized="1"
     inkscape:current-layer="layer1" />
  <defs
     id="defs2">
    <inkscape:path-effect
       effect="bend_path"
       id="path-effect968"
       is_visible="true"
       lpeversion="1"
       bendpath="m 67.880429,35.053481 c 23.903857,-6.778711 46.845911,-3.940455 69.609271,0"
       prop_scale="1"
       scale_y_rel="false"
       vertical="false"
       hide_knot="false"
       bendpath-nodetypes="cc" />
    <inkscape:path-effect
       effect="bend_path"
       id="path-effect2203"
       is_visible="true"
       lpeversion="1"
       bendpath="m 28.49455,38.760737 c 46.061192,-26.560678 85.84812,-20.820517 122.70577,0"
       prop_scale="1"
       scale_y_rel="false"
       vertical="false"
       hide_knot="false"
       bendpath-nodetypes="cc" />
  </defs>
  <g
     inkscape:label="Layer 1"
     inkscape:groupmode="layer"
     id="layer1">
    <g
       id="g1079">
      <g
         id="g2199"
         class="UnoptimicedTransforms"
         transform="translate(-0.24096844,13.848213)">
        <path
           id="rect899"
           style="opacity:1;fill:#6a6dff;fill-opacity:1;stroke-width:0.964724;stroke-linecap:round;stroke-linejoin:round;paint-order:stroke fill markers"
           d="M 21.85607,27.476931 C 30.640146,22.3367 40.030995,17.982797 49.847752,14.692806 l 5.602749,16.555329 C 46.848045,34.170178 38.499499,38.044064 30.585726,42.59221 31.64457,38.628292 32.885507,34.638369 34.328772,30.6483 30.269426,29.423177 26.101249,28.363365 21.85607,27.476931 Z"
           sodipodi:nodetypes="cccccc" />
        <path
           style="fill:#4e4fa0;fill-opacity:1;stroke:none;stroke-width:0.264583px;stroke-linecap:butt;stroke-linejoin:miter;stroke-opacity:1"
           d="m 43.032754,26.623638 c 2.020447,-4.022445 4.28405,-8.010437 6.814996,-11.930833 l 2.801376,8.277666 c -3.25045,1.096242 -6.458558,2.318032 -9.616372,3.653167 z"
           id="path1177" />
        <path
           id="path1386"
           style="opacity:1;fill:#6a6dff;fill-opacity:1;stroke-width:0.964724;stroke-linecap:round;stroke-linejoin:round;paint-order:stroke fill markers"
           d="M 157.54108,27.305526 C 148.76776,22.29273 139.41559,17.983777 129.62406,14.700657 l -5.60238,16.541002 c 8.60059,2.924074 16.96133,6.787549 24.94274,11.268434 -1.10583,-3.957433 -2.3757,-7.93705 -3.83535,-11.915449 4.04686,-1.250029 8.19575,-2.347322 12.41201,-3.289118 z"
           sodipodi:nodetypes="cccccc" />
        <path
           style="fill:#4e4fa0;fill-opacity:1;stroke:none;stroke-width:0.264583px;stroke-linecap:butt;stroke-linejoin:miter;stroke-opacity:1"
           d="m 136.42683,26.61037 c -2.02346,-4.014125 -4.28066,-7.994132 -6.80277,-11.909714 l -2.80119,8.270503 c 3.24567,1.095387 6.44903,2.313176 9.60396,3.639211 z"
           id="path1388" />
        <path
           id="rect184"
           style="opacity:1;fill:#6a6dff;fill-opacity:1;stroke:none;stroke-width:1.75099;stroke-linecap:round;stroke-linejoin:round;stroke-opacity:1;paint-order:stroke fill markers"
           d="m 43.032754,26.623637 c 15.872623,-6.711 33.015922,-10.558313 50.420073,-9.992105 14.896593,0.563757 29.384623,4.267141 42.974003,9.978838 l -6.78882,16.128536 C 117.64504,37.665797 105.21453,34.401244 92.83657,34.076561 78.453891,33.422668 63.790746,36.82959 49.856957,42.747494 Z" />
      </g>
      <g
         aria-label="WINNER"
         transform="matrix(0.86640399,0,0,1.154196,1.1035923,3.6267278)"
         id="text294"
         style="font-size:12.2152px;line-height:1.25;font-family:'Copperplate Gothic Bold';-inkscape-font-specification:'Copperplate Gothic Bold, ';letter-spacing:2.29952px;word-spacing:0px;fill:#ffff00;stroke-width:0.305381"
         class="UnoptimicedTransforms">
        <path
           d="m 74.314956,31.764176 c -0.299688,1.662442 -0.570762,3.324729 -0.812488,4.986256 -0.04908,0.255678 -0.06589,0.414913 -0.05163,0.476677 0.04115,0.178195 0.209593,0.271362 0.504554,0.281883 l 0.0421,0.185995 c -0.824263,0.18681 -1.645734,0.384264 -2.464158,0.592601 l -0.04694,-0.184889 c 0.237449,-0.113714 0.330471,-0.275922 0.277519,-0.488067 -0.01437,-0.05756 -0.109822,-0.216574 -0.28705,-0.474917 -1.225776,-1.754627 -2.494804,-3.489793 -3.808194,-5.203949 -0.195139,-0.255447 -0.355352,-0.419376 -0.479418,-0.492037 -0.121146,-0.07762 -0.277072,-0.108298 -0.46749,-0.0915 l -0.05226,-0.183573 c 0.952999,-0.270224 1.909016,-0.526545 2.867728,-0.769263 l 0.04693,0.184891 c -0.240807,0.11839 -0.338239,0.26483 -0.29361,0.437918 0.02284,0.08857 0.08774,0.207168 0.194377,0.356303 0.897733,1.250981 1.773728,2.511777 2.628366,3.78186 0.226468,-1.537542 0.478428,-3.075757 0.755286,-4.61416 0.03625,-0.199363 0.04827,-0.327918 0.03542,-0.386203 -0.03932,-0.178352 -0.200381,-0.263247 -0.483778,-0.25262 l -0.04179,-0.186064 c 1.008441,-0.22624 2.019487,-0.437908 3.03277,-0.635348 l 0.03646,0.187172 c -0.263793,0.124283 -0.376768,0.278738 -0.340385,0.461766 0.01241,0.06242 0.07016,0.172282 0.172954,0.330203 0.842235,1.301387 1.662874,2.611672 2.462321,3.930292 0.271716,-1.488767 0.565184,-2.977504 0.879913,-4.465804 0.05089,-0.222021 0.06829,-0.383779 0.05146,-0.485795 -0.02843,-0.17237 -0.194371,-0.262148 -0.498517,-0.267095 l -0.03178,-0.188046 c 0.961638,-0.162814 1.92498,-0.313182 2.889716,-0.451395 l 0.02698,0.188845 c -0.197483,0.08449 -0.328721,0.176092 -0.393873,0.274009 -0.06512,0.09786 -0.13841,0.311714 -0.218328,0.641032 -0.501021,2.098155 -0.959154,4.198026 -1.372931,6.298398 -0.0593,0.300176 -0.08016,0.497769 -0.06395,0.591516 0.0332,0.191939 0.189345,0.287588 0.467836,0.288956 l 0.03176,0.188049 c -0.84679,0.14277 -1.691292,0.295934 -2.533241,0.459742 l -0.03643,-0.187176 c 0.256867,-0.09447 0.365185,-0.250215 0.323524,-0.468862 -0.01408,-0.07392 -0.106596,-0.238793 -0.27841,-0.492774 -0.865739,-1.395095 -1.756012,-2.780273 -2.67132,-4.15483 z"
           id="path955" />
        <path
           d="m 85.293461,35.165285 -0.775354,-6.850099 c -0.01341,-0.118519 -0.05244,-0.206108 -0.117248,-0.262733 -0.06478,-0.0566 -0.173606,-0.09617 -0.326464,-0.118315 l -0.02209,-0.189541 c 0.878613,-0.102826 1.758108,-0.195874 2.638251,-0.27936 l 0.01794,0.190037 c -0.145162,0.04972 -0.24328,0.111199 -0.294432,0.184102 -0.05154,0.06896 -0.07143,0.162799 -0.05983,0.281536 l 0.670392,6.862629 c 0.01198,0.122681 0.04839,0.215038 0.109059,0.277085 0.06416,0.05773 0.165557,0.09791 0.304178,0.120833 l 0.01794,0.190037 c -0.821776,0.07718 -1.642213,0.163173 -2.461077,0.258208 l -0.02209,-0.189541 c 0.134039,-0.05558 0.224516,-0.117859 0.271338,-0.187207 0.0468,-0.06932 0.06336,-0.165213 0.0495,-0.287671 z"
           id="path957" />
        <path
           d="m 92.813984,29.60535 0.229999,4.94825 c 0.0057,0.123203 0.03736,0.215351 0.09476,0.276448 0.05741,0.06112 0.156977,0.108359 0.298684,0.142061 l 0.0083,0.190806 c -0.778369,0.03364 -1.556051,0.07463 -2.332852,0.123149 l -0.01197,-0.190579 c 0.137211,-0.04843 0.231143,-0.105883 0.28173,-0.172705 0.05057,-0.06679 0.07226,-0.161747 0.06491,-0.284851 l -0.410975,-6.886213 c -0.0071,-0.119143 -0.0414,-0.208748 -0.103037,-0.26879 -0.06161,-0.06002 -0.168042,-0.105377 -0.319301,-0.135689 l -0.01197,-0.19058 c 0.960187,-0.06062 1.920733,-0.11029 2.881336,-0.149275 l 0.0077,0.190833 c -0.176065,0.05096 -0.260931,0.146291 -0.255024,0.285392 0.0041,0.09543 0.06629,0.198245 0.186283,0.308787 1.61362,1.492476 3.171998,3.015469 4.67756,4.563793 l -0.0299,-4.83422 c -7.38e-4,-0.119368 -0.03015,-0.210701 -0.08838,-0.273988 -0.05821,-0.06326 -0.161864,-0.114306 -0.310998,-0.152766 l -0.0017,-0.190982 c 0.829771,-0.0074 1.659259,-0.0071 2.488267,6.55e-4 l -0.002,0.190946 c -0.149,0.03839 -0.252578,0.08937 -0.310744,0.152605 -0.05818,0.06325 -0.08757,0.15456 -0.08829,0.273914 l -0.04196,6.898327 c -7.5e-4,0.123321 0.02606,0.216976 0.08027,0.280962 0.05424,0.06401 0.151379,0.116338 0.291405,0.157311 l -0.002,0.190945 c -0.837157,-0.0071 -1.674158,-0.0063 -2.510764,0.0026 l -0.002,-0.19098 c 0.163255,-0.03753 0.24449,-0.12369 0.24334,-0.258997 -6.76e-4,-0.07945 -0.09747,-0.218176 -0.291496,-0.414961 -1.515284,-1.555325 -3.084364,-3.084515 -4.709758,-4.582159 z"
           id="path959" />
        <path
           d="m 106.02141,29.646663 -0.24296,4.942306 c -0.006,0.123057 0.0168,0.217691 0.0684,0.283893 0.0516,0.06622 0.14677,0.122643 0.28543,0.169539 l -0.01,0.190515 c -0.7827,-0.04005 -1.56519,-0.07407 -2.34748,-0.101695 l 0.007,-0.190708 c 0.14208,-0.03476 0.24173,-0.08275 0.29891,-0.144277 0.0572,-0.0615 0.0882,-0.153822 0.0929,-0.276963 l 0.26588,-6.888227 c 0.005,-0.119177 -0.0206,-0.211663 -0.0757,-0.277455 -0.0551,-0.06577 -0.15586,-0.121391 -0.30245,-0.166561 l 0.007,-0.190708 c 0.95511,0.03513 1.90886,0.07881 2.86125,0.1305 l -0.0103,0.190486 c -0.17872,0.0341 -0.27157,0.120824 -0.27884,0.259711 -0.005,0.09527 0.0468,0.203412 0.15512,0.324647 1.45551,1.636257 2.86434,3.290692 4.23388,4.960936 l 0.3848,-4.812768 c 0.01,-0.118837 -0.0117,-0.212217 -0.0638,-0.280139 -0.0521,-0.0679 -0.15004,-0.127506 -0.29397,-0.178554 l 0.0148,-0.190165 c 0.81967,0.06373 1.63834,0.132828 2.456,0.206931 l -0.0173,0.189975 c -0.15027,0.02628 -0.25674,0.06866 -0.3194,0.126911 -0.0627,0.05826 -0.0992,0.146774 -0.10977,0.265531 l -0.60972,6.863905 c -0.0109,0.122706 0.008,0.21818 0.0575,0.286409 0.0492,0.06824 0.14243,0.12846 0.27973,0.18087 l -0.0173,0.189974 c -0.84056,-0.07656 -1.68089,-0.147362 -2.52097,-0.211957 l 0.0146,-0.190178 c 0.167,-0.02302 0.2559,-0.101682 0.26644,-0.2364 0.006,-0.07914 -0.0789,-0.225531 -0.25606,-0.438332 -1.38205,-1.680146 -2.80405,-3.343625 -4.27371,-4.987952 z"
           id="path961" />
        <path
           d="m 119.04486,32.781644 -0.26436,2.214829 c 1.72861,0.206784 3.45727,0.433285 5.18599,0.675706 0.11813,0.01657 0.21257,0.0018 0.28337,-0.04448 0.0708,-0.04625 0.13592,-0.137471 0.19544,-0.273673 0.0631,0.0089 0.12618,0.0179 0.18926,0.02688 l -0.29654,2.085382 c -0.0626,-0.0089 -0.12527,-0.01783 -0.18791,-0.02671 -0.0191,-0.147355 -0.0561,-0.253035 -0.11102,-0.317039 -0.0549,-0.064 -0.14118,-0.104294 -0.25878,-0.120797 -2.43006,-0.341011 -4.85807,-0.65026 -7.28407,-0.917056 l 0.0208,-0.189675 c 0.14533,-0.02401 0.24895,-0.06447 0.31084,-0.121588 0.0619,-0.0571 0.0997,-0.146885 0.11333,-0.269362 l 0.76237,-6.844991 c 0.0136,-0.122482 -0.004,-0.218474 -0.0541,-0.287978 -0.0497,-0.06949 -0.14547,-0.132077 -0.28725,-0.187556 l 0.0208,-0.189675 c 2.46982,0.269799 4.93037,0.580388 7.38168,0.921684 0.12095,0.01684 0.21752,0.0022 0.28978,-0.04386 0.0728,-0.05005 0.13935,-0.143127 0.19972,-0.279243 0.0646,0.0091 0.12912,0.01819 0.19367,0.02732 l -0.29553,2.085507 c -0.0641,-0.0091 -0.1282,-0.01812 -0.1923,-0.02716 -0.0206,-0.143507 -0.0591,-0.247343 -0.11559,-0.311503 -0.0564,-0.06415 -0.14484,-0.104656 -0.26526,-0.121434 -1.71365,-0.238756 -3.43094,-0.462364 -5.1519,-0.66733 l -0.22901,1.91873 c 1.1073,0.132083 2.21362,0.272012 3.31895,0.418834 0.11972,0.0159 0.21516,5.76e-4 0.28641,-0.04607 0.0712,-0.04664 0.13636,-0.138225 0.19542,-0.274758 0.0639,0.0086 0.12784,0.01721 0.19175,0.02585 l -0.27588,2.039758 c -0.0634,-0.0086 -0.12687,-0.01715 -0.19031,-0.02569 -0.0211,-0.143302 -0.0597,-0.246809 -0.11582,-0.310518 -0.0556,-0.06764 -0.14296,-0.109429 -0.26212,-0.12527 -1.09998,-0.146236 -2.20058,-0.285578 -3.30179,-0.417072 z"
           id="path963" />
        <path
           d="m 130.56071,34.659784 -0.42544,2.66981 c -0.0188,0.117871 -0.006,0.21459 0.0384,0.29015 0.0489,0.07226 0.13926,0.137043 0.27102,0.19442 l -0.0302,0.188566 c -0.83614,-0.133962 -1.67203,-0.265323 -2.50768,-0.393648 l 0.029,-0.188764 c 0.14735,-0.01762 0.25338,-0.05359 0.31809,-0.108018 0.0647,-0.05442 0.10617,-0.140605 0.1244,-0.258563 l 1.0539,-6.818034 c 0.0188,-0.121893 0.005,-0.218625 -0.0413,-0.2902 -0.0464,-0.07156 -0.13878,-0.138152 -0.27716,-0.199633 l 0.029,-0.188765 c 1.71383,0.262908 3.42311,0.537996 5.12785,0.82177 0.62263,0.103644 1.10956,0.222215 1.46013,0.354213 0.35472,0.132739 0.65233,0.310639 0.89277,0.533381 0.27955,0.257691 0.46664,0.574417 0.56156,0.949914 0.089,0.362382 0.10022,0.735594 0.0341,1.119643 -0.22558,1.309494 -1.09177,1.94719 -2.59523,1.923851 0.39928,0.82758 0.79629,1.655442 1.19146,2.483481 0.2092,0.435258 0.36648,0.720299 0.47284,0.855649 0.11089,0.132013 0.25769,0.219781 0.44048,0.263383 l -0.0325,0.188073 c -0.97104,-0.167295 -1.94175,-0.332551 -2.91212,-0.495091 l 0.0316,-0.188301 c 0.20569,0.0022 0.31784,-0.05153 0.33634,-0.161363 0.0119,-0.07056 -0.0517,-0.256816 -0.1912,-0.558462 -0.41068,-0.879546 -0.82376,-1.758781 -1.23975,-2.637587 -0.71982,-0.118391 -1.43987,-0.235106 -2.16015,-0.349875 z m 0.21131,-1.326066 c 0.91326,0.145539 1.82588,0.294184 2.73787,0.44539 0.40462,0.06708 0.69161,0.103066 0.86221,0.107425 0.17042,0.0044 0.33125,-0.01903 0.48254,-0.07018 0.32834,-0.110065 0.52816,-0.374682 0.59919,-0.794313 0.071,-0.419615 -0.0307,-0.735454 -0.30589,-0.947281 -0.12995,-0.102596 -0.27488,-0.177409 -0.43475,-0.224395 -0.15503,-0.05018 -0.43999,-0.110097 -0.85396,-0.178796 -0.91595,-0.151999 -1.83294,-0.30144 -2.75098,-0.447775 z"
           id="path965" />
      </g>
    </g>
  </g>
</svg>
