<?xml version="1.0" encoding="UTF-8" standalone="no"?>
<!-- Created with Inkscape (http://www.inkscape.org/) -->

<svg
   width="210mm"
   height="297mm"
   viewBox="0 0 210 297"
   version="1.1"
   id="svg5"
   xml:space="preserve"
   inkscape:version="1.2 (dc2aedaf03, 2022-05-15)"
   sodipodi:docname="trash-can.svg"
   xmlns:inkscape="http://www.inkscape.org/namespaces/inkscape"
   xmlns:sodipodi="http://sodipodi.sourceforge.net/DTD/sodipodi-0.dtd"
   xmlns="http://www.w3.org/2000/svg"
   xmlns:svg="http://www.w3.org/2000/svg"><sodipodi:namedview
     id="namedview7"
     pagecolor="#ffffff"
     bordercolor="#666666"
     borderopacity="1.0"
     inkscape:showpageshadow="2"
     inkscape:pageopacity="0.0"
     inkscape:pagecheckerboard="0"
     inkscape:deskcolor="#d1d1d1"
     inkscape:document-units="mm"
     showgrid="false"
     inkscape:zoom="1.2779916"
     inkscape:cx="-55.947159"
     inkscape:cy="410.01834"
     inkscape:window-width="2560"
     inkscape:window-height="1377"
     inkscape:window-x="1912"
     inkscape:window-y="-8"
     inkscape:window-maximized="1"
     inkscape:current-layer="layer1" /><defs
     id="defs2"><inkscape:path-effect
       effect="mirror_symmetry"
       start_point="80.220347,56.654681"
       end_point="80.220347,112.63537"
       center_point="80.220347,84.645023"
       id="path-effect3930"
       is_visible="true"
       lpeversion="1.2"
       lpesatellites=""
       mode="free"
       discard_orig_path="false"
       fuse_paths="false"
       oposite_fuse="false"
       split_items="false"
       split_open="false"
       link_styles="false" /><inkscape:path-effect
       effect="mirror_symmetry"
       start_point="80.178142,56.613771"
       end_point="80.178142,112.63537"
       center_point="80.178142,84.62457"
       id="path-effect3928"
       is_visible="true"
       lpeversion="1.2"
       lpesatellites=""
       mode="free"
       discard_orig_path="false"
       fuse_paths="false"
       oposite_fuse="false"
       split_items="false"
       split_open="false"
       link_styles="false" /><filter
       inkscape:collect="always"
       style="color-interpolation-filters:sRGB"
       id="filter4043"
       x="-0.095694741"
       y="-0.086617931"
       width="1.1913895"
       height="1.1731769"><feGaussianBlur
         inkscape:collect="always"
         stdDeviation="1.2898445"
         id="feGaussianBlur4045" /></filter></defs><g
     inkscape:label="Layer 1"
     inkscape:groupmode="layer"
     id="layer1"><g
       id="g5037"
       transform="matrix(0.38338391,0,0,0.38338391,7.17595,1.3664571)"><rect
         style="fill:#00dcff;fill-opacity:1;fill-rule:evenodd;stroke:none;stroke-width:0.316441"
         id="rect4817"
         width="105.60468"
         height="103.74761"
         x="27.418011"
         y="32.769562" /><g
         id="g4041"
         transform="translate(3.464843,3.2414475)"
         style="opacity:0.541667;mix-blend-mode:normal;filter:url(#filter4043)"><path
           style="fill:none;stroke:#000000;stroke-width:3.5;stroke-linecap:butt;stroke-linejoin:miter;stroke-dasharray:none;stroke-opacity:1"
           d="m 68.173652,112.63473 c -4.660518,0.0559 -9.12109,-3.57702 -9.48503,-8.74401 -0.509357,-7.231535 10e-7,-29.344311 10e-7,-33.494012 -4.508636,-0.579523 -5.370909,-6.85499 -0.444611,-8.744011 3.633236,0.09454 8.96786,0.02361 12.481338,0.04904 -0.02675,-2.90134 0.47167,-4.800252 3.959337,-5.032709 0.569826,-0.03798 2.998057,0.01184 5.53566,0.0085 2.537603,0.0033 4.965834,-0.04648 5.53566,-0.0085 3.487667,0.232457 3.986087,2.131369 3.959337,5.032709 3.513478,-0.02543 8.848102,0.0455 12.481336,-0.04904 4.9263,1.889021 4.06403,8.164488 -0.44461,8.744011 0,4.149701 0.50936,26.262477 0,33.494012 -0.36394,5.16699 -4.82451,8.79991 -9.485028,8.74401 -3.951811,-0.0474 -12.046695,-0.14821 -12.046695,-0.14821 0,0 -8.094884,0.10081 -12.046695,0.14821 z"
           id="path4033"
           sodipodi:nodetypes="sscccscscccsscs"
           class="UnoptimicedTransforms" /><path
           style="color:#000000;fill:#000000;fill-opacity:1;stroke-linecap:round"
           d="m 70.853516,73.660156 a 1.7325,1.7325 0 0 0 -1.732422,1.732422 v 29.570312 a 1.7325,1.7325 0 0 0 1.732422,1.73242 1.7325,1.7325 0 0 0 1.732421,-1.73242 V 75.392578 a 1.7325,1.7325 0 0 0 -1.732421,-1.732422 z"
           id="path4035" /><path
           style="color:#000000;fill:#000000;fill-opacity:1;stroke-linecap:round"
           d="m 80.220703,73.660156 a 1.7325,1.7325 0 0 0 -1.732422,1.732422 v 29.570312 a 1.7325,1.7325 0 0 0 1.732422,1.73242 1.7325,1.7325 0 0 0 1.732422,-1.73242 V 75.392578 a 1.7325,1.7325 0 0 0 -1.732422,-1.732422 z"
           id="path4037" /><path
           style="color:#000000;fill:#000000;fill-opacity:1;stroke-linecap:round"
           d="m 89.585937,73.660156 a 1.7325,1.7325 0 0 0 -1.732421,1.732422 v 29.570312 a 1.7325,1.7325 0 0 0 1.732421,1.73242 1.7325,1.7325 0 0 0 1.732422,-1.73242 V 75.392578 a 1.7325,1.7325 0 0 0 -1.732422,-1.732422 z"
           id="path4039" /></g><g
         id="g4031"><path
           style="fill:none;stroke:#000000;stroke-width:3.5;stroke-linecap:butt;stroke-linejoin:miter;stroke-dasharray:none;stroke-opacity:1"
           d="m 68.173652,112.63473 c -4.660518,0.0559 -9.12109,-3.57702 -9.48503,-8.74401 -0.509357,-7.231535 10e-7,-29.344311 10e-7,-33.494012 -4.508636,-0.579523 -5.370909,-6.85499 -0.444611,-8.744011 3.633236,0.09454 8.96786,0.02361 12.481338,0.04904 -0.02675,-2.90134 0.47167,-4.800252 3.959337,-5.032709 0.569826,-0.03798 2.998057,0.01184 5.53566,0.0085 2.537603,0.0033 4.965834,-0.04648 5.53566,-0.0085 3.487667,0.232457 3.986087,2.131369 3.959337,5.032709 3.513478,-0.02543 8.848102,0.0455 12.481336,-0.04904 4.9263,1.889021 4.06403,8.164488 -0.44461,8.744011 0,4.149701 0.50936,26.262477 0,33.494012 -0.36394,5.16699 -4.82451,8.79991 -9.485028,8.74401 -3.951811,-0.0474 -12.046695,-0.14821 -12.046695,-0.14821 0,0 -8.094884,0.10081 -12.046695,0.14821 z"
           id="path1646"
           sodipodi:nodetypes="sscccscscccsscs"
           class="UnoptimicedTransforms" /><path
           style="color:#000000;fill:#000000;fill-opacity:1;stroke-linecap:round"
           d="m 70.853516,73.660156 a 1.7325,1.7325 0 0 0 -1.732422,1.732422 v 29.570312 a 1.7325,1.7325 0 0 0 1.732422,1.73242 1.7325,1.7325 0 0 0 1.732421,-1.73242 V 75.392578 a 1.7325,1.7325 0 0 0 -1.732421,-1.732422 z"
           id="path4015" /><path
           style="color:#000000;fill:#000000;fill-opacity:1;stroke-linecap:round"
           d="m 80.220703,73.660156 a 1.7325,1.7325 0 0 0 -1.732422,1.732422 v 29.570312 a 1.7325,1.7325 0 0 0 1.732422,1.73242 1.7325,1.7325 0 0 0 1.732422,-1.73242 V 75.392578 a 1.7325,1.7325 0 0 0 -1.732422,-1.732422 z"
           id="path4012" /><path
           style="color:#000000;fill:#000000;fill-opacity:1;stroke-linecap:round"
           d="m 89.585937,73.660156 a 1.7325,1.7325 0 0 0 -1.732421,1.732422 v 29.570312 a 1.7325,1.7325 0 0 0 1.732421,1.73242 1.7325,1.7325 0 0 0 1.732422,-1.73242 V 75.392578 a 1.7325,1.7325 0 0 0 -1.732422,-1.732422 z"
           id="path4009" /></g></g></g></svg>
