<?xml version="1.0" encoding="UTF-8" standalone="no"?>
<!-- Created with Inkscape (http://www.inkscape.org/) -->

<svg
   width="210mm"
   height="297mm"
   viewBox="0 0 210 297"
   version="1.1"
   id="svg1"
   xml:space="preserve"
   inkscape:version="1.4 (86a8ad7, 2024-10-11)"
   sodipodi:docname="usb.svg"
   xmlns:inkscape="http://www.inkscape.org/namespaces/inkscape"
   xmlns:sodipodi="http://sodipodi.sourceforge.net/DTD/sodipodi-0.dtd"
   xmlns="http://www.w3.org/2000/svg"
   xmlns:svg="http://www.w3.org/2000/svg"><sodipodi:namedview
     id="namedview1"
     pagecolor="#ffffff"
     bordercolor="#000000"
     borderopacity="0.25"
     inkscape:showpageshadow="2"
     inkscape:pageopacity="0.0"
     inkscape:pagecheckerboard="0"
     inkscape:deskcolor="#d1d1d1"
     inkscape:document-units="mm"
     inkscape:zoom="1.4142136"
     inkscape:cx="12.727922"
     inkscape:cy="194.10081"
     inkscape:window-width="2560"
     inkscape:window-height="1377"
     inkscape:window-x="1272"
     inkscape:window-y="-8"
     inkscape:window-maximized="1"
     inkscape:current-layer="layer1" /><defs
     id="defs1" /><g
     inkscape:label="Layer 1"
     inkscape:groupmode="layer"
     id="layer1"><path
       style="fill:#000000;stroke-width:0.210708"
       d="m 14.396725,54.930172 c 0.508757,-2.226089 1.920318,-3.386903 3.999042,-4.060167 l 0.02963,-3.437617 c -0.126386,-1.17927 -0.754988,-2.079841 -1.572359,-2.905935 -1.142191,-1.121718 -5.684455,-5.349579 -6.304294,-6.095008 -0.7564937,-0.90977 -1.2105897,-1.799585 -1.3192447,-2.585101 -0.05056,-0.365538 -0.06032,-1.132345 -0.06032,-5.996015 -3.500397,-1.471833 -2.001917,-6.162984 1.1343737,-6.028881 2.620564,0.112054 4.6692,4.211887 0.813853,6.049769 0,0 -0.0085,4.641237 0.03089,6.020973 0.05538,0.452119 0.391239,0.916431 1.121945,1.640123 0.332559,0.329368 6.066157,5.80247 6.102481,5.80247 0.119019,-10.628939 0.05092,-21.259265 0.05092,-31.88886 -0.836861,-0.0063 -1.706511,-4e-4 -2.533383,-0.01264 -0.04402,-6.53e-4 3.374353,-5.8082019 3.463362,-5.9717655 l 0.05594,-0.1028055 3.526872,6.059335 -2.589431,0.05575 c 0.08928,8.040775 -0.122542,16.086434 0.01785,24.126702 1.374067,-1.165281 2.657418,-2.460276 3.968256,-3.702065 2.914849,-2.752629 3.140927,-2.874595 3.254476,-3.360424 0,0 0.05282,0.04765 0.118388,-0.506535 0.06557,-0.554189 0.01677,-2.828085 0.01677,-2.828085 l 0.01677,-2.828089 -2.152028,-0.0303 v -3.09411 -3.094112 l 6.216097,-0.02881 v 3.122454 3.122455 h -2.174238 v 2.868367 c 0,1.857865 -0.02148,2.972445 -0.06094,3.163797 -0.08992,0.435879 -0.543788,1.347487 -0.924271,1.856424 -0.471063,0.630105 -0.794548,0.971367 -1.988072,2.097353 l -3.916304,3.679201 c -1.427992,1.277009 -2.100619,1.963933 -2.420646,3.799122 v 5.507493 5.507493 c 0.635456,0.126973 3.532215,0.874827 4.187502,4.049729 0.738176,3.576483 -2.126398,6.203116 -5.121083,6.191627 -3.604848,-0.01383 -5.610754,-3.167466 -4.988801,-6.163308 z"
       id="path1"
       sodipodi:nodetypes="sccssscaccsscsscccssszcccccccccssssscccssss"
       inkscape:label="Usb" /></g></svg>
