<?xml version="1.0" encoding="UTF-8" standalone="no"?>
<!-- Created with Inkscape (http://www.inkscape.org/) -->

<svg
   width="210mm"
   height="297mm"
   viewBox="0 0 210 297"
   version="1.1"
   id="svg5"
   xml:space="preserve"
   inkscape:version="1.2.2 (732a01da63, 2022-12-09)"
   sodipodi:docname="warrior.svg"
   xmlns:inkscape="http://www.inkscape.org/namespaces/inkscape"
   xmlns:sodipodi="http://sodipodi.sourceforge.net/DTD/sodipodi-0.dtd"
   xmlns="http://www.w3.org/2000/svg"
   xmlns:svg="http://www.w3.org/2000/svg"><sodipodi:namedview
     id="namedview7"
     pagecolor="#ffffff"
     bordercolor="#666666"
     borderopacity="1.0"
     inkscape:showpageshadow="2"
     inkscape:pageopacity="0.0"
     inkscape:pagecheckerboard="0"
     inkscape:deskcolor="#d1d1d1"
     inkscape:document-units="mm"
     showgrid="false"
     inkscape:zoom="2.3786088"
     inkscape:cx="67.056004"
     inkscape:cy="120.65877"
     inkscape:window-width="2560"
     inkscape:window-height="1377"
     inkscape:window-x="1272"
     inkscape:window-y="-8"
     inkscape:window-maximized="1"
     inkscape:current-layer="layer1" /><defs
     id="defs2"><inkscape:path-effect
       effect="mirror_symmetry"
       start_point="102.33573,26.585042"
       end_point="102.33573,77.029884"
       center_point="102.33573,51.807463"
       id="path-effect1017"
       is_visible="true"
       lpeversion="1.2"
       lpesatellites=""
       mode="free"
       discard_orig_path="false"
       fuse_paths="false"
       oposite_fuse="false"
       split_items="false"
       split_open="false"
       link_styles="false" /></defs><g
     inkscape:label="Layer 1"
     inkscape:groupmode="layer"
     id="layer1"
     style="display:inline"><g
       id="g27366"
       inkscape:label="Warrior"
       style="display:inline"
       transform="matrix(0.42459988,0,0,0.42459988,-8.4286377,-4.6529604)"><g
         id="g1159"
         inkscape:label="Sword"
         style="display:inline"
         transform="matrix(0.37722475,0.49888016,-0.49888016,0.37722475,87.869467,5.4854711)"><g
           id="g2755"><path
             style="opacity:1;fill:#000000;stroke-width:0.4;stroke-linecap:round;stroke-linejoin:round;stroke-dashoffset:5.21575"
             d="m 94.771783,45.606139 c -1.191132,10.17886 -2.023726,21.180533 -0.945494,31.423745 l 8.509441,-0.0132 8.50944,0.0132 c 1.07823,-10.243212 0.24564,-21.244885 -0.94549,-31.423745 -0.53007,-4.529705 -3.78198,-17.853135 -7.56395,-19.021097 -3.781973,1.167962 -7.033881,14.491392 -7.563947,19.021097 z"
             id="path919"
             sodipodi:nodetypes="scccscs" /><path
             id="path1019"
             style="opacity:1;fill:#f8f7f9;fill-opacity:1;stroke-width:0.4;stroke-linecap:round;stroke-linejoin:round;stroke-dashoffset:5.21575"
             d="m 102.11719,27.949219 c -1.79589,1.575188 -2.478878,3.971091 -3.365774,6.105855 -1.995314,5.356717 -2.998386,11.020103 -3.457164,16.710738 -0.86286,8.366555 -1.261914,16.818362 -0.495424,25.208797 5.02474,0 10.049482,0 15.074222,0 0.93965,-10.710253 0.11963,-21.501334 -1.33618,-32.118393 -1.00104,-5.070317 -2.25728,-10.222032 -4.91657,-14.72205 -0.36029,-0.505591 -0.73041,-1.068308 -1.31757,-1.327525 -0.0618,0.04753 -0.12369,0.09505 -0.18554,0.142578 z" /><path
             id="path1098"
             style="opacity:1;fill:#b8b8b8;fill-opacity:1;stroke-width:0.4;stroke-linecap:round;stroke-linejoin:round;stroke-dashoffset:5.21575"
             d="m 102.11719,31.387281 c -1.79589,1.462423 -2.478878,3.686807 -3.365774,5.668747 -1.995314,4.973238 -2.998386,10.231191 -3.457164,15.514442 -0.86286,7.767607 -1.261914,15.614362 -0.495424,23.404139 5.02474,0 10.049482,0 15.074222,0 0.93965,-9.943523 0.11963,-19.962087 -1.33618,-29.819088 -1.00104,-4.707341 -2.25728,-9.490253 -4.91657,-13.668121 -0.36029,-0.469397 -0.73041,-0.99183 -1.31757,-1.23249 -0.0618,0.04413 -0.12369,0.08825 -0.18554,0.132371 z" /><path
             id="rect1100"
             style="opacity:0.605536;fill:#414141;fill-opacity:1;stroke-width:0.4;stroke-linecap:round;stroke-linejoin:round;stroke-dashoffset:5.21575"
             d="m 102.3028,27.806571 c -0.009,0.0073 -0.019,0.01444 -0.0284,0.0217 v 48.146415 h 7.5985 c 0.93965,-10.710243 0.11997,-21.501405 -1.33584,-32.118453 -1.00103,-5.070312 -2.2572,-10.222086 -4.91649,-14.722099 -0.36029,-0.50559 -0.73059,-1.068351 -1.31775,-1.327568 z" /><path
             id="path1077"
             style="opacity:0.66263;fill:#d1d1d1;fill-opacity:1;stroke-width:0.4;stroke-linecap:round;stroke-linejoin:round;stroke-dashoffset:5.21575"
             d="m 96.432357,42.361755 c -0.308292,1.556663 -0.556195,3.12626 -0.75551,4.702556 l 14.108703,8.050671 c -0.15698,-1.933415 -0.34672,-3.86393 -0.56431,-5.790344 z" /><path
             id="path1091"
             style="opacity:0.698962;fill:#cfcfcf;fill-opacity:1;stroke-width:0.4;stroke-linecap:round;stroke-linejoin:round;stroke-dashoffset:5.21575"
             d="m 95.44482,49.118449 c -0.05486,0.548782 -0.106074,1.097903 -0.150378,1.647445 -0.222489,2.157323 -0.413455,4.320279 -0.56224,6.486425 l 15.537038,8.266679 c -0.0217,-2.737859 -0.13543,-5.475424 -0.31988,-8.208801 z" /></g><g
           id="g4789"><rect
             style="opacity:1;fill:#000000;stroke-width:0.4;stroke-linecap:round;stroke-linejoin:round;stroke-dashoffset:5.21575"
             id="rect1131"
             width="8.6192102"
             height="18.361738"
             x="97.999046"
             y="77.466782"
             ry="1.7415755" /><path
             id="rect1133"
             style="opacity:1;fill:#868686;fill-opacity:1;stroke-width:0.4;stroke-linecap:round;stroke-linejoin:round;stroke-dashoffset:5.21575"
             d="m 100.59766,78.787109 c -0.47462,0.08121 -1.315879,-0.08859 -1.295177,0.618813 0.05604,4.510161 -0.03226,9.038913 0.04935,13.556405 0.112739,0.513806 -0.288404,1.412966 0.448952,1.541579 1.307465,0.01338 2.624395,-0.04294 3.936715,0.0332 0.4751,-0.04213 1.07763,0.01179 1.46172,-0.27539 0.31067,-0.947168 -0.0417,-1.957733 0.0994,-2.93125 -0.0362,-4.123017 0.0969,-8.273761 -0.10327,-12.379297 -0.61599,-0.394678 -1.42022,-0.03824 -2.11133,-0.154297 -0.82864,-0.01561 -1.65784,-0.05107 -2.48632,-0.0098 z" /><path
             id="rect1140"
             style="opacity:0.482699;fill:#292929;fill-opacity:1;stroke-width:0.4;stroke-linecap:round;stroke-linejoin:round;stroke-dashoffset:5.21575"
             d="m 104.43859,78.759534 c -0.44675,-0.0021 -0.9225,0.109742 -1.35444,0.03721 -0.26984,-0.0051 -0.53986,-0.01161 -0.80977,-0.01757 v 15.717387 c 0.48785,0.0021 0.97566,0.01203 1.46296,0.04031 0.4751,-0.04213 1.07783,0.01226 1.46192,-0.274918 0.31067,-0.947167 -0.0419,-1.958088 0.0992,-2.931604 -0.0362,-4.123013 0.0968,-8.273558 -0.10335,-12.37909 -0.231,-0.148004 -0.4885,-0.19044 -0.75654,-0.191719 z" /></g><g
           id="g4094"><rect
             style="opacity:1;fill:#000000;fill-opacity:1;stroke-width:0.4;stroke-linecap:round;stroke-linejoin:round;stroke-dashoffset:5.21575"
             id="rect1105"
             width="24.304289"
             height="8.2587395"
             x="90.295555"
             y="73.148834"
             ry="1.6685174" /><path
             id="rect1114"
             style="opacity:1;fill:#ceccce;fill-opacity:1;stroke-width:0.4;stroke-linecap:round;stroke-linejoin:round;stroke-dashoffset:5.21575"
             d="m 111.94531,74.429688 c -6.39165,0.08044 -12.788956,0.0095 -19.182778,0.05788 -0.466604,-0.02674 -1.208498,-0.108606 -1.169212,0.56522 0.115266,1.4168 -0.0763,2.844795 0.04644,4.260653 -0.08056,0.624152 0.393188,0.878239 0.950812,0.80837 6.87664,-0.10819 14.189898,0.04749 20.499268,-0.11204 0.29436,-1.601633 0.34699,-3.810953 0.004,-5.451172 -0.36841,-0.121776 -0.76352,-0.138653 -1.14844,-0.128906 z"
             sodipodi:nodetypes="sccccccss" /><path
             id="path1121"
             style="opacity:0.743945;fill:#757575;fill-opacity:1;stroke-width:0.4;stroke-linecap:round;stroke-linejoin:round;stroke-dashoffset:5.21575"
             d="m 112.09032,74.427498 c -0.0484,2.34e-4 -0.0966,8.49e-4 -0.1447,0.0021 h -5.2e-4 c -0.80429,0.01012 -1.60831,0.0179 -2.41277,0.02377 l -16.48478,3.855578 v 1.806608 c 6.743059,-0.09469 13.87204,0.05007 20.04219,-0.105936 0.29436,-1.601632 0.34712,-3.810613 0.004,-5.45083 -0.32236,-0.106554 -0.66502,-0.132893 -1.00355,-0.131259 z" /><path
             id="rect1126"
             style="opacity:0.455017;fill:#4c4c4c;fill-opacity:1;stroke-width:0.4;stroke-linecap:round;stroke-linejoin:round;stroke-dashoffset:5.21575"
             d="m 112.09032,74.427498 c -0.0484,2.34e-4 -0.0966,8.49e-4 -0.1447,0.0021 h -5.2e-4 c -3.22267,0.04056 -6.44634,0.04305 -9.67072,0.04134 v 5.613094 c 3.74537,0.0065 7.42607,0.01128 10.81536,-0.07441 0.29436,-1.601632 0.34712,-3.810613 0.004,-5.45083 -0.32236,-0.106554 -0.66502,-0.132893 -1.00355,-0.131259 z" /></g></g><g
         id="g43754"
         inkscape:label="Left Leg"><path
           id="rect40076"
           style="opacity:1;fill:#000000;fill-opacity:1;stroke-width:0.4;stroke-linecap:round;stroke-linejoin:round;stroke-dashoffset:5.21575"
           d="m 60.249552,91.63265 v 17.8847 c -0.49408,0.47498 -0.786515,1.06666 -0.786515,1.70945 v 2.34146 c 0,1.57361 1.751605,2.84066 3.927409,2.84066 h 11.730033 c 2.175804,0 3.83523,-1.26882 3.760557,-2.84066 l -0.111234,-2.34146 c -0.07467,-1.57183 -1.085896,-2.53225 -3.260002,-2.61818 0,0 -4.794018,0 -5.628277,-0.22247 -0.61179,-0.61179 -0.19327,-16.7535 -0.19327,-16.7535 z"
           sodipodi:nodetypes="ccsssssssccc" /><path
           id="path40083"
           style="opacity:1;fill:#4e3410;fill-opacity:1;stroke-width:0.4;stroke-linecap:round;stroke-linejoin:round;stroke-dashoffset:5.21575"
           d="m 61.568359,109.51758 c -0.256666,0.84341 -1.024434,1.58826 -0.788348,2.53354 -0.04981,0.9394 -0.156394,2.28426 0.966473,2.63746 4.841072,0.83266 9.792881,0.57492 14.211945,0.4128 1.53972,-0.28768 2.023176,-0.97153 2.011158,-2.36735 -0.01643,-1.90829 -0.569239,-2.39673 -1.249475,-2.64652 -1.784263,-0.6552 -3.572602,-0.46184 -5.405149,-0.61407 -1.347863,-0.30284 -2.104014,-0.91572 -2.693555,-1.07031 -0.185869,-1.3899 -0.0063,-2.79835 -0.106139,-4.19565 -0.0422,-3.7521 -0.0844,-7.504206 -0.126597,-11.256308 h -6.820313 z"
           sodipodi:nodetypes="ccccsscccccc" /><path
           id="rect41327"
           style="opacity:1;fill:#797353;fill-opacity:1;stroke-width:0.4;stroke-linecap:round;stroke-linejoin:round;stroke-dashoffset:5.21575"
           d="m 61.568335,92.950916 v 14.724224 h 7.039364 c -0.161391,-1.29823 0.0046,-2.6124 -0.0925,-3.9166 -0.0422,-3.60242 -0.08441,-7.205206 -0.126608,-10.807624 z" /><path
           id="path40155"
           style="opacity:0.224913;fill:#e2e2e2;fill-opacity:1;stroke-width:0.4;stroke-linecap:round;stroke-linejoin:round;stroke-dashoffset:5.21575"
           d="m 67.587089,92.950916 c 0.06123,1.425455 0.127447,3.040931 0.154513,3.934126 0.05562,1.835367 1.9e-4,5.561918 0.05581,6.896738 0.05562,1.33481 0.250599,2.57123 0.111104,3.67058 -0.07803,0.61496 0.296258,1.53173 1.022549,1.4131 -0.36654,-0.87834 -0.320938,-3.32922 -0.415867,-4.65787 -0.0422,-3.75209 -0.08441,-7.504576 -0.126608,-11.256674 z"
           sodipodi:nodetypes="cssscccc" /><path
           id="path40160"
           style="opacity:0.482699;fill:#a4a4a4;fill-opacity:1;stroke-width:0.4;stroke-linecap:round;stroke-linejoin:round;stroke-dashoffset:5.21575"
           d="m 69.332529,108.45572 c 0.01128,0.4396 -0.414301,0.84186 -0.200185,0.94328 1.056726,0.50055 1.6126,0.72289 5.450184,1.00098 2.089555,0.15142 2.409564,0.2053 2.975529,0.29352 -0.190873,-0.27948 -0.460961,-0.49897 -0.838192,-0.60616 -1.750052,-0.74175 -3.405442,-0.40607 -5.237987,-0.5583 -1.038534,-0.23334 -1.721789,-0.69989 -2.149349,-1.07332 z"
           sodipodi:nodetypes="csscccc" /><path
           id="path40165"
           style="opacity:0.275087;fill:#2a2727;fill-opacity:1;stroke-width:0.4;stroke-linecap:round;stroke-linejoin:round;stroke-dashoffset:5.21575"
           d="m 61.568335,92.950916 v 16.566434 c -0.256666,0.84341 -1.024151,1.58841 -0.788066,2.53369 -0.04981,0.9394 -0.156516,2.28437 0.96635,2.63757 0.36703,0.0631 0.737702,0.11765 1.111043,0.16639 l -0.12144,-6.17895 -0.111104,-7.11894 -0.276469,-8.606194 z" /><path
           style="display:inline;opacity:1;fill:#000000;fill-opacity:1;stroke-width:0.4;stroke-linecap:round;stroke-linejoin:round;stroke-dashoffset:5.21575"
           d="m 69.442523,107.4041 c -0.333704,1.16796 -2.232116,2.94839 -2.232116,2.94839 0,0 2.112498,-1.19332 3.502929,-1.30456 -0.578865,-0.14667 -1.07428,-1.11974 -1.270813,-1.64383 z"
           id="path40168"
           sodipodi:nodetypes="cccc" /><g
           id="g47915"
           transform="matrix(1,0,0,1.0315789,0,-3.9792664)"
           style="display:inline;stroke-width:0.984575"><path
             id="rect43897"
             style="opacity:1;fill:#000000;fill-opacity:1;stroke-width:0.39383;stroke-linecap:round;stroke-linejoin:round;stroke-dashoffset:5.21575"
             d="m 60.56718,103.11437 h 9.009993 c 1.140042,0 2.057838,0.89299 2.057838,2.00223 v 1.27918 c 0,1.10924 -0.917796,2.00223 -2.057838,2.00223 H 60.56718 c -1.140042,0 -2.057838,-0.89299 -2.057838,-2.00223 v -1.27918 c 0,-1.10924 0.917796,-2.00223 2.057838,-2.00223 z" /><path
             id="path43900"
             style="opacity:1;fill:#796f53;fill-opacity:1;stroke-width:0.39383;stroke-linecap:round;stroke-linejoin:round;stroke-dashoffset:5.21575"
             d="m 66.505512,103.91315 c -2.091582,0.0402 -4.202755,-0.11711 -6.281438,0.0914 -0.898392,0.45226 -0.777464,1.63747 -0.675803,2.47091 0.136109,0.71218 0.874791,1.07424 1.558199,0.95123 2.72465,0.005 5.452374,0.0532 8.175777,-0.0205 0.755376,0.12017 1.356116,-0.50828 1.356959,-1.23469 0.06549,-0.7944 0.08796,-1.90613 -0.846458,-2.21355 -1.086432,-0.0943 -2.19365,-0.0522 -3.287236,-0.0448 z" /><path
             id="path43968"
             style="opacity:0.351211;fill:#494949;fill-opacity:1;stroke-width:0.39383;stroke-linecap:round;stroke-linejoin:round;stroke-dashoffset:5.21575"
             d="m 61.772974,103.90839 c -0.517728,0.0153 -1.034207,0.0445 -1.548743,0.0961 -0.898391,0.45226 -0.777589,1.63773 -0.675928,2.47117 0.136109,0.71218 0.874637,1.07386 1.558045,0.95085 0.195429,3.6e-4 0.391069,0.001 0.586527,0.002 -0.101784,-0.65024 -0.109205,-1.32009 -0.100252,-1.97197 0.0063,-0.51474 0.0601,-1.04087 0.180351,-1.54822 z" /><path
             id="path43973"
             style="opacity:0.628028;fill:#a09a75;fill-opacity:1;stroke-width:0.39383;stroke-linecap:round;stroke-linejoin:round;stroke-dashoffset:5.21575"
             d="m 68.81027,103.90529 c 0.09108,0.30045 0.177598,0.60216 0.255799,0.9064 0.294383,1.14531 0.1651,1.84936 -0.02067,2.60036 0.07891,-0.002 0.157774,-0.004 0.236678,-0.006 0.755375,0.12017 1.35618,-0.50865 1.357023,-1.23506 0.06549,-0.7944 0.08796,-1.90588 -0.84646,-2.2133 -0.325862,-0.0283 -0.653696,-0.0444 -0.982369,-0.0527 z" /></g><g
           id="g47925"
           transform="matrix(1,0,0,1.0526316,0,-10.766325)"
           style="display:inline;stroke-width:0.974679"><path
             id="path47917"
             style="opacity:1;fill:#000000;fill-opacity:1;stroke-width:0.389872;stroke-linecap:round;stroke-linejoin:round;stroke-dashoffset:5.21575"
             d="m 60.56718,103.11437 h 9.009993 c 1.140042,0 2.057838,0.89299 2.057838,2.00223 v 1.27918 c 0,1.10924 -0.917796,2.00223 -2.057838,2.00223 H 60.56718 c -1.140042,0 -2.057838,-0.89299 -2.057838,-2.00223 v -1.27918 c 0,-1.10924 0.917796,-2.00223 2.057838,-2.00223 z" /><path
             id="path47919"
             style="opacity:1;fill:#796f53;fill-opacity:1;stroke-width:0.389872;stroke-linecap:round;stroke-linejoin:round;stroke-dashoffset:5.21575"
             d="m 66.505512,103.91315 c -2.091582,0.0402 -4.202755,-0.11711 -6.281438,0.0914 -0.898392,0.45226 -0.777464,1.63747 -0.675803,2.47091 0.136109,0.71218 0.874791,1.07424 1.558199,0.95123 2.72465,0.005 5.452374,0.0532 8.175777,-0.0205 0.755376,0.12017 1.356116,-0.50828 1.356959,-1.23469 0.06549,-0.7944 0.08796,-1.90613 -0.846458,-2.21355 -1.086432,-0.0943 -2.19365,-0.0522 -3.287236,-0.0448 z" /><path
             id="path47921"
             style="opacity:0.351211;fill:#494949;fill-opacity:1;stroke-width:0.389872;stroke-linecap:round;stroke-linejoin:round;stroke-dashoffset:5.21575"
             d="m 61.772974,103.90839 c -0.517728,0.0153 -1.034207,0.0445 -1.548743,0.0961 -0.898391,0.45226 -0.777589,1.63773 -0.675928,2.47117 0.136109,0.71218 0.874637,1.07386 1.558045,0.95085 0.195429,3.6e-4 0.391069,0.001 0.586527,0.002 -0.101784,-0.65024 -0.109205,-1.32009 -0.100252,-1.97197 0.0063,-0.51474 0.0601,-1.04087 0.180351,-1.54822 z" /><path
             id="path47923"
             style="opacity:0.628028;fill:#a09a75;fill-opacity:1;stroke-width:0.389872;stroke-linecap:round;stroke-linejoin:round;stroke-dashoffset:5.21575"
             d="m 68.81027,103.90529 c 0.09108,0.30045 0.177598,0.60216 0.255799,0.9064 0.294383,1.14531 0.1651,1.84936 -0.02067,2.60036 0.07891,-0.002 0.157774,-0.004 0.236678,-0.006 0.755375,0.12017 1.35618,-0.50865 1.357023,-1.23506 0.06549,-0.7944 0.08796,-1.90588 -0.84646,-2.2133 -0.325862,-0.0283 -0.653696,-0.0444 -0.982369,-0.0527 z" /></g></g><g
         id="g21898"
         inkscape:label="Left Hand"><g
           id="g21893"
           style="display:inline"
           transform="matrix(1,0,0,0.90600009,0,6.0704637)"><path
             style="opacity:1;fill:#000000;fill-opacity:1;stroke:none;stroke-width:0.310999"
             d="m 76.918649,65.906433 c 2.814554,4.930993 3.482617,12.673222 2.34472,18.881392 -1.927001,4.129611 -7.493963,3.819378 -11.173536,2.828038 -4.080638,-2.186223 -3.40371,-7.290789 -3.528807,-11.192978 -0.150534,-4.071685 0.650468,-9.451433 5.170027,-10.809957 2.414552,-0.852251 5.906192,-1.951466 7.187596,0.293505 z"
             id="path21673"
             sodipodi:nodetypes="sccccs" /><path
             id="path21675"
             style="opacity:1;fill:#ffc17c;fill-opacity:1;stroke:none;stroke-width:0.315254"
             d="m 73.589079,65.727496 c -2.248948,0.34051 -4.789247,0.978776 -6.163533,3.023211 -1.844655,2.826325 -1.489374,6.362283 -1.525102,9.581475 0.03261,2.315944 0.01325,4.837168 1.282071,6.860761 0.757733,1.09714 2.073838,1.638436 3.367288,1.660954 2.380611,0.396247 5.18154,0.26321 6.985703,-1.55531 1.131327,-1.540626 0.77597,-3.56908 0.996325,-5.35845 0.168548,-4.747576 -0.486957,-9.70572 -2.872226,-13.866905 -0.556573,-0.552017 -1.368584,-0.472661 -2.070526,-0.345736 z" /></g><g
           id="g21446"
           style="display:inline"><path
             style="opacity:1;fill:#000000;fill-opacity:1;stroke:none;stroke-width:0.310999"
             d="m 73.856726,48.76589 c 2.541074,-0.35463 5.096518,-0.779238 7.669492,-0.717031 0.968772,-0.0059 1.568771,0.884861 2.162341,1.523241 0.678076,0.778625 1.158578,1.727907 1.234034,2.769197 0.304623,2.06476 0.37332,4.177239 -0.04079,6.232023 -0.281095,1.638567 -0.603563,3.300139 -1.42529,4.766745 -0.86129,1.861762 -2.173373,3.528654 -3.887503,4.67323 -1.303541,0.751172 -2.951494,1.379771 -4.419051,0.694297 -1.331579,-0.578958 -1.881111,-2.017839 -2.613489,-3.163223 -1.458933,-2.495173 -2.377731,-5.420414 -1.955798,-8.329826 0.398418,-3.028362 1.770557,-5.82856 3.276054,-8.448653 z"
             id="path21228"
             sodipodi:nodetypes="cssssssscc" /><path
             id="path21230"
             style="opacity:1;fill:#ffc17c;fill-opacity:1;stroke:none;stroke-width:0.317728"
             d="m 81.116528,49.151241 c -2.138925,0.08419 -4.260305,0.34592 -6.362924,0.649759 -1.821875,3.265807 -3.494707,7.025323 -2.733294,10.850603 0.512815,2.543685 1.77253,4.9237 3.434545,6.886021 1.28862,0.793805 2.85961,0.110881 3.913513,-0.71829 3.182088,-2.421728 4.415248,-6.548462 4.662754,-10.395241 0.08901,-2.252533 0.162298,-4.862973 -1.497033,-6.615504 -0.359319,-0.394616 -0.859866,-0.728445 -1.417561,-0.657348 z" /></g></g><g
         id="g23531"
         style="display:inline"
         inkscape:label="LeftHand"><path
           style="opacity:1;fill:#ffc17c;fill-opacity:1;stroke:none;stroke-width:0.310999"
           d="m 72.873544,88.368512 1.651748,3.264167 c 0,0 1.730402,0.196638 2.398967,0.157311 0.668565,-0.03933 3.539458,-0.353947 3.97206,-0.550582 0.432601,-0.196639 2.438294,-2.123678 2.438294,-2.123678 l -0.943856,-2.752913 c 0,0 -3.421478,-2.831568 -3.657441,-2.910221 -0.235964,-0.07865 -4.876589,-0.707893 -5.230535,-0.629237 -0.353946,0.07865 -0.629237,5.545153 -0.629237,5.545153 z"
           id="path23516" /><g
           id="g23494"><rect
             style="opacity:1;fill:#000000;fill-opacity:1;stroke:none;stroke-width:0.403551"
             id="rect22121"
             width="4.4807835"
             height="7.2252903"
             x="47.854633"
             y="103.69569"
             ry="1.4869838"
             transform="matrix(0.97834166,-0.20699662,0.24968587,0.96832689,0,0)" /><path
             id="rect22123"
             style="opacity:1;fill:#ffc17c;fill-opacity:1;stroke:none;stroke-width:0.403357"
             d="m 75.679688,90.667969 c -0.537215,0.217744 -1.195121,0.103762 -1.655173,0.508911 -0.232256,0.235986 -0.116932,0.589694 -0.09021,0.878619 0.148314,0.904865 0.525594,1.75252 0.690516,2.653677 0.137504,0.530663 0.155377,1.153395 0.585944,1.549448 0.326775,0.245315 0.755218,0.120842 1.123271,0.0705 0.439724,-0.07428 0.876521,-0.19611 1.269479,-0.41116 0.264148,-0.446164 0.08065,-0.979436 -0.07927,-1.427658 C 77.375191,94.042355 77.32471,93.569214 77.189391,93.117198 77.002499,92.356242 76.815866,91.589802 76.501959,90.869136 76.279672,90.672642 75.9637,90.63888 75.679693,90.667964 Z" /></g><g
           id="g23501"
           transform="rotate(-9.0419568,70.924554,66.628701)"><path
             id="rect23496"
             style="opacity:1;stroke-width:0.403551"
             transform="matrix(0.97834166,-0.20699662,0.24968587,0.96832689,0,0)"
             d="m 49.584906,103.61918 1.134824,-0.0166 c 0.824231,-0.0121 1.615687,0.75634 1.615687,1.58013 v 4.25132 c 0,0.82379 -0.802137,1.47393 -1.626679,1.5182 l -0.938626,0.0504 c -0.824542,0.0443 -1.915479,-0.74479 -1.915479,-1.56858 v -4.25132 c 0,-0.82379 0.906043,-1.55141 1.730273,-1.56349 z"
             sodipodi:nodetypes="ssssssssss" /><path
             id="path23499"
             style="opacity:1;fill:#ffc17c;fill-opacity:1;stroke:none;stroke-width:0.403357"
             d="m 75.679688,90.667969 c -0.537215,0.217744 -1.195121,0.103762 -1.655173,0.508911 -0.232256,0.235986 -0.116932,0.589694 -0.09021,0.878619 0.148314,0.904865 0.525594,1.75252 0.690516,2.653677 0.137504,0.530663 0.155377,1.153395 0.585944,1.549448 0.326775,0.245315 0.755218,0.120842 1.123271,0.0705 0.439724,-0.07428 0.876521,-0.19611 1.269479,-0.41116 0.264148,-0.446164 0.08065,-0.979436 -0.07927,-1.427658 C 77.375191,94.042355 77.32471,93.569214 77.189391,93.117198 77.002499,92.356242 76.815866,91.589802 76.501959,90.869136 76.279672,90.672642 75.9637,90.63888 75.679693,90.667964 Z" /></g><g
           id="g23508"
           transform="rotate(-25.490501,71.93022,75.911772)"><path
             id="path23504"
             style="opacity:1;stroke-width:0.403551"
             transform="matrix(0.97834166,-0.20699662,0.24968587,0.96832689,0,0)"
             d="m 49.584906,103.61918 1.134824,-0.0166 c 0.824231,-0.0121 1.615687,0.75634 1.615687,1.58013 v 4.25132 c 0,0.82379 -0.802137,1.47393 -1.626679,1.5182 l -0.938626,0.0504 c -0.824542,0.0443 -1.915479,-0.74479 -1.915479,-1.56858 v -4.25132 c 0,-0.82379 0.906043,-1.55141 1.730273,-1.56349 z"
             sodipodi:nodetypes="ssssssssss" /><path
             id="path23506"
             style="opacity:1;fill:#ffc17c;fill-opacity:1;stroke:none;stroke-width:0.403357"
             d="m 75.679688,90.667969 c -0.537215,0.217744 -1.195121,0.103762 -1.655173,0.508911 -0.232256,0.235986 -0.116932,0.589694 -0.09021,0.878619 0.148314,0.904865 0.525594,1.75252 0.690516,2.653677 0.137504,0.530663 0.155377,1.153395 0.585944,1.549448 0.326775,0.245315 0.755218,0.120842 1.123271,0.0705 0.439724,-0.07428 0.876521,-0.19611 1.269479,-0.41116 0.264148,-0.446164 0.08065,-0.979436 -0.07927,-1.427658 C 77.375191,94.042355 77.32471,93.569214 77.189391,93.117198 77.002499,92.356242 76.815866,91.589802 76.501959,90.869136 76.279672,90.672642 75.9637,90.63888 75.679693,90.667964 Z" /></g><g
           id="g23514"
           transform="rotate(35.010586,88.618998,98.363923)"><path
             id="path23510"
             style="opacity:1;stroke-width:0.403551"
             transform="matrix(0.97834166,-0.20699662,0.24968587,0.96832689,0,0)"
             d="m 49.584906,103.61918 1.134824,-0.0166 c 0.824231,-0.0121 1.615687,0.75634 1.615687,1.58013 v 4.25132 c 0,0.82379 -0.802137,1.47393 -1.626679,1.5182 l -0.938626,0.0504 c -0.824542,0.0443 -1.915479,-0.74479 -1.915479,-1.56858 v -4.25132 c 0,-0.82379 0.906043,-1.55141 1.730273,-1.56349 z"
             sodipodi:nodetypes="ssssssssss" /><path
             id="path23512"
             style="opacity:1;fill:#ffc17c;fill-opacity:1;stroke:none;stroke-width:0.403357"
             d="m 75.679688,90.667969 c -0.537215,0.217744 -1.195121,0.103762 -1.655173,0.508911 -0.232256,0.235986 -0.116932,0.589694 -0.09021,0.878619 0.148314,0.904865 0.525594,1.75252 0.690516,2.653677 0.137504,0.530663 0.155377,1.153395 0.585944,1.549448 0.326775,0.245315 0.755218,0.120842 1.123271,0.0705 0.439724,-0.07428 0.876521,-0.19611 1.269479,-0.41116 0.264148,-0.446164 0.08065,-0.979436 -0.07927,-1.427658 C 77.375191,94.042355 77.32471,93.569214 77.189391,93.117198 77.002499,92.356242 76.815866,91.589802 76.501959,90.869136 76.279672,90.672642 75.9637,90.63888 75.679693,90.667964 Z" /></g></g><g
         id="g35663"
         inkscape:label="Body"
         style="display:inline"><g
           id="g40018"
           style="display:inline"><path
             style="opacity:1;fill:#000000;fill-opacity:1;stroke-width:0.4;stroke-linecap:round;stroke-linejoin:round;stroke-dashoffset:5.21575"
             d="m 77.081567,82.430085 c -0.270381,3.246121 -1.02618,6.832409 -3.753669,8.933323 -3.467753,3.148905 -8.110363,4.914967 -12.787223,4.96199 -5.362811,0.283743 -10.931316,-0.13458 -15.845827,-2.466807 -1.87267,-1.596233 -3.659922,-3.496456 -4.309692,-5.936314 -0.493804,-1.643529 -1.090319,-3.31518 -1.123434,-5.042592 0.456867,-1.323599 0.322565,-3.986958 2.200967,-3.923455 7.030409,0.741785 14.074314,1.371919 21.110034,2.069773 4.836282,0.468027 9.672563,0.936055 14.508844,1.404082 z"
             id="path37035" /><path
             id="path37037"
             style="opacity:1;fill:#7e744e;fill-opacity:1;stroke-width:0.4;stroke-linecap:round;stroke-linejoin:round;stroke-dashoffset:5.21575"
             d="m 41.253906,80.082031 c -0.742633,0.667592 -0.542111,1.805353 -0.858093,2.675104 -0.129524,1.794785 0.651328,3.486538 1.100335,5.188024 0.801156,2.119526 2.262045,3.994167 4.18943,5.16893 3.299433,1.509409 6.943032,2.047422 10.531219,2.208177 2.712273,0.06231 5.456339,5.56e-4 8.126317,-0.504823 C 67.984982,93.97989 71.4471,92.113924 73.914062,89.253906 75.203294,87.554767 75.65568,85.417618 75.925781,83.375 64.39909,82.264518 52.873065,81.147156 41.347656,80.023438 l -0.0848,0.053 z" /><path
             id="path37043"
             style="opacity:0.252595;fill:#b0a473;fill-opacity:1;stroke-width:0.4;stroke-linecap:round;stroke-linejoin:round;stroke-dashoffset:5.21575"
             d="m 73.809448,83.170117 c -0.654126,2.891955 -1.525366,5.748181 -3.168282,8.241358 -0.220595,0.395598 -0.45494,0.782441 -0.698148,1.162719 1.481997,-0.89302 2.832483,-2.000509 3.970817,-3.32021 1.28923,-1.699138 1.741662,-3.836612 2.011763,-5.879228 -0.705414,-0.06796 -1.410741,-0.136628 -2.11615,-0.204639 z" /></g><path
           style="opacity:1;fill:#000000;fill-opacity:1;stroke-width:0.4;stroke-linecap:round;stroke-linejoin:round;stroke-dashoffset:5.21575"
           d="m 64.237916,87.263454 c 5.339179,-0.328927 10.5244,-1.465123 15.833169,-2.025047 3.768999,-0.974534 1.66329,-2.530792 -1.865604,-5.484068 C 74.966966,76.785855 75.057266,72.020258 74.860811,67.964271 66.697253,57.649967 60.197189,51.200642 57.396996,38.820836 c -5.693188,1.808398 -11.799171,3.407953 -15.801247,7.701533 -3.985686,5.18759 -4.413485,11.193711 -4.580859,17.04494 0.03048,4.178597 2.702386,8.024094 1.827482,12.26664 -0.0599,2.659469 -1.305661,5.307974 -2.948488,7.377913 -3.032765,3.858306 21.902098,4.590177 28.344032,4.051592 z"
           id="path35652"
           sodipodi:nodetypes="cccccccccc" /><path
           id="path35654"
           style="opacity:1;fill:#563c14;fill-opacity:1;stroke-width:0.4;stroke-linecap:round;stroke-linejoin:round;stroke-dashoffset:5.21575"
           d="m 55.648438,40.753906 c -5.040294,1.651538 -10.704668,3.258091 -13.879184,7.862538 -3.034651,4.89377 -3.616545,10.895693 -3.223178,16.524315 0.751934,4.219114 2.709335,8.502819 1.347025,12.821956 -0.245001,2.089943 -2.004943,4.378736 -2.469132,5.86322 5.672214,1.991073 11.775143,1.827224 17.69383,2.237354 7.373977,0.261975 14.741456,-0.514113 21.994058,-1.790461 1.267996,-0.05866 4.526899,-0.385249 2.21265,-1.772517 -2.076718,-1.811867 -4.358735,-3.779315 -4.897193,-6.632288 -1.291383,-2.85732 0.27395,-6.581081 -2.047425,-8.883449 -5.934545,-7.348199 -12.398668,-14.73519 -15.202672,-23.947858 -0.579624,-0.596982 -0.05617,-3.185351 -1.528779,-2.28281 z" /><path
           id="path35667"
           style="display:inline;opacity:0.283737;fill:#242424;fill-opacity:1;stroke-width:0.4;stroke-linecap:round;stroke-linejoin:round;stroke-dashoffset:5.21575"
           d="m 56.204321,40.565483 c -0.144453,-0.0085 -0.325943,0.0476 -0.556038,0.188619 -5.040289,1.651536 -10.704743,3.258126 -13.879256,7.862569 -3.034648,4.893765 -3.616426,10.895439 -3.223059,16.524056 0.751933,4.21911 2.709513,8.502823 1.347204,12.821956 -0.245001,2.089941 -2.004911,4.378726 -2.4691,5.863208 4.364872,1.532167 8.984263,1.78821 13.579016,2.011764 -0.03156,-1.294843 -0.05788,-2.547938 -0.05788,-3.412712 0,-2.669624 -0.110848,-5.228209 0.111621,-8.231539 0.22247,-3.003328 2.113038,-8.676046 3.447851,-13.459127 1.275722,-4.571332 1.946524,-8.333761 4.236434,-13.51287 -0.599652,-1.35508 -1.126311,-2.747604 -1.563728,-4.184757 -0.489058,-0.503703 -0.19302,-2.425163 -0.973068,-2.471167 z" /></g><g
         id="g35280"
         inkscape:label="Belt"
         style="display:inline"><path
           style="opacity:1;fill:#000000;fill-opacity:1;stroke-width:0.4;stroke-linecap:round;stroke-linejoin:round;stroke-dashoffset:5.21575"
           d="m 36.967691,71.575741 c 7.942396,0.157725 15.886366,0.418211 23.831337,0.164389 4.61312,-0.147378 9.229406,-0.167467 13.844245,-0.243044 1.924424,0.799006 1.011068,3.218026 1.599779,4.770637 -0.0061,1.987444 -2.492588,1.467289 -3.801282,1.636415 -3.912913,0.324178 -7.885951,0.713002 -11.815827,0.706934 -7.073971,-0.01092 -14.092403,0.06081 -21.165401,-0.142932 -0.775615,-0.174132 -2.197793,0.277825 -2.568748,-0.28939 0.0253,-2.201002 0.05061,-4.402017 0.0759,-6.603011 z"
           id="path27368"
           sodipodi:nodetypes="sscccsccss" /><path
           id="path27685"
           style="opacity:1;fill:#818081;fill-opacity:1;stroke-width:0.4;stroke-linecap:round;stroke-linejoin:round;stroke-dashoffset:5.21575"
           d="m 64.941406,72.611226 c -6.656985,0.155442 -13.316152,0.289172 -19.973828,0.0911 -2.319922,-0.05071 -4.639844,-0.101432 -6.959766,-0.152142 -0.01693,1.699509 -0.03385,3.399018 -0.05078,5.098527 8.975191,0.160767 17.957228,0.32944 26.930761,0.03372 3.361993,-0.244286 9.849421,-0.701946 10.307333,-0.872429 0.633454,-0.774125 -0.22115,-4.05223 -0.610868,-4.38446 -3.127494,-0.01902 -6.513093,0.146079 -9.642856,0.185691 z"
           sodipodi:nodetypes="sccccccss" /><path
           id="path28498"
           style="opacity:1;fill:#b9b6b8;fill-opacity:1;stroke-width:0.4;stroke-linecap:round;stroke-linejoin:round;stroke-dashoffset:5.21575"
           d="m 74.584078,72.425553 c -3.127491,-0.01902 -6.513062,0.145907 -9.642822,0.185519 -4.43391,0.103533 -8.86882,0.197009 -13.303581,0.189652 0.172834,0.02805 0.343613,0.05283 0.510563,0.07286 2.949545,0.353946 4.207594,0.471806 5.662704,0.471806 1.455111,0 2.596071,0.0786 3.854545,0.03927 1.258473,-0.03933 3.185413,-0.117771 3.893302,-0.157096 0.707891,-0.03933 4.75861,-0.117823 6.48901,-0.117823 h 2.831351 c 0.0145,0 0.02798,-9.53e-4 0.04238,-0.001 -0.121038,-0.347998 -0.243172,-0.602794 -0.337447,-0.683163 z" /><path
           style="opacity:1;fill:#000000;fill-opacity:1;stroke-width:0.4;stroke-linecap:round;stroke-linejoin:round;stroke-dashoffset:5.21575"
           d="m 65.934243,71.162264 c -0.719386,0.826749 -0.44455,1.99361 -0.465983,2.989133 0.04844,1.399478 0.116214,2.882727 0.806801,4.134141 0.381301,0.62934 1.147579,0.720981 1.813943,0.744789 1.517622,0.05956 3.047789,0.0085 4.551326,-0.215779 0.592374,-0.075 1.259645,-0.287825 1.441157,-0.93449 0.46436,-2.061054 -0.119503,-4.218692 -0.695104,-6.037372 -0.456443,-0.897199 -1.518044,-1.254492 -2.470093,-1.226452 -0.826097,-0.03446 -2.006847,0.04273 -2.833209,0.0292 -0.904529,0.03933 -1.814556,0.241542 -2.148838,0.516833 z"
           id="path27691"
           sodipodi:nodetypes="cccccccccc" /><path
           id="path27693"
           style="opacity:1;fill:#c3a511;fill-opacity:1;stroke-width:0.4;stroke-linecap:round;stroke-linejoin:round;stroke-dashoffset:5.21575"
           d="m 66.666016,71.71875 c -0.477709,0.305707 -0.45228,0.942198 -0.437862,1.44123 0.0016,0.611083 0.09844,1.217319 0.09953,1.829629 0.03553,1.010667 0.103828,2.105546 0.747701,2.937622 0.812848,0.481935 1.793684,0.337245 2.69174,0.300991 0.628009,-0.02017 1.255295,-0.06043 1.883869,-0.07785 0.537442,-0.03018 1.089056,-0.116061 1.561897,-0.388648 0.482345,-1.331423 -0.09204,-2.732995 -0.145235,-4.099245 -0.07654,-1.345738 -0.812776,-2.216837 -2.101212,-2.226028 -1.55545,-0.0013 -2.99604,-0.175544 -4.300428,0.282299 z"
           sodipodi:nodetypes="cccccccccc" /><path
           id="path27698"
           style="opacity:1;fill:#000000;fill-opacity:1;stroke-width:0.4;stroke-linecap:round;stroke-linejoin:round;stroke-dashoffset:5.21575"
           d="m 69.714844,72.490234 c -0.792654,0.03156 -1.695652,-0.152822 -2.417969,0.199219 0.05638,1.420541 -0.0057,2.917257 0.417969,4.28125 0.701734,0.457518 1.628077,0.151866 2.422546,0.191652 0.716166,-0.06217 1.489447,-0.0514 2.167298,-0.191652 0.228884,-1.05673 -0.06328,-2.209705 -0.08025,-3.277482 -0.01194,-0.751367 -0.480915,-1.225244 -1.179232,-1.204809 -0.441175,-0.06909 -0.887395,-0.01209 -1.330361,0.0018 z"
           sodipodi:nodetypes="cccccsccc" /><path
           id="path27704"
           style="opacity:1;fill:#827f82;fill-opacity:1;stroke-width:0.4;stroke-linecap:round;stroke-linejoin:round;stroke-dashoffset:5.21575"
           d="m 70.445312,73.257812 c -0.778092,0.073 -1.561581,-0.05385 -2.33789,0.04297 0.04456,1.019813 0.0096,2.059508 0.28125,3.052735 1.070744,0.185828 2.146453,-0.09441 3.220703,-0.07813 -0.138128,-0.965879 0.02038,-2.044316 -0.361328,-2.941407 -0.254111,-0.10475 -0.534872,-0.07972 -0.802735,-0.07617 z" /><path
           id="path35345"
           style="display:inline;opacity:0.283737;fill:#242424;fill-opacity:1;stroke-width:0.4;stroke-linecap:round;stroke-linejoin:round;stroke-dashoffset:5.21575"
           d="m 38.008016,72.550094 c -0.01693,1.699507 -0.03423,3.398889 -0.05116,5.098396 4.53461,0.08123 8.048803,0.321584 12.584927,0.345928 -0.600375,-1.617415 -0.13912,-3.394337 0.585204,-5.429658 -2.210577,-0.004 -3.948811,0.203544 -6.159193,0.137775 -2.31992,-0.05071 -4.639862,-0.101735 -6.959782,-0.152445 z"
           sodipodi:nodetypes="ccccccc" /></g><g
         id="g47991"
         inkscape:label="Right Leg"
         transform="translate(-13.348139)"><path
           id="path47957"
           style="opacity:1;fill:#000000;fill-opacity:1;stroke-width:0.4;stroke-linecap:round;stroke-linejoin:round;stroke-dashoffset:5.21575"
           d="m 60.777916,90.951339 -0.528364,18.566011 c -0.564675,1.34585 -0.79235,2.36492 -0.786515,4.05091 0.03933,1.57312 1.751605,2.84066 3.927409,2.84066 h 11.730033 c 2.175804,0 3.83523,-1.26882 3.760557,-2.84066 l -0.111234,-2.34146 c -0.06262,-1.3181 -1.114633,-2.0119 -3.204385,-2.28448 -1.279196,-0.16685 -4.849635,-0.3337 -5.683894,-0.55617 -0.61179,-0.61179 -0.401835,-16.322466 -0.80506,-16.433701 -1.265292,-1.459953 -8.298547,-1.00111 -8.298547,-1.00111 z"
           sodipodi:nodetypes="cccsssssccc" /><path
           id="path47959"
           style="opacity:1;fill:#4e3410;fill-opacity:1;stroke-width:0.4;stroke-linecap:round;stroke-linejoin:round;stroke-dashoffset:5.21575"
           d="m 61.568359,109.51758 c -0.691464,1.58155 -1.280813,4.64141 0.178125,5.171 4.841072,0.83266 9.585544,0.66707 14.004608,0.50495 1.873423,-0.0652 2.136401,-1.30896 2.218495,-2.4595 0.223471,-1.89523 -0.598415,-2.15243 -1.249475,-2.64652 -1.750054,-0.74175 -3.572602,-0.46184 -5.405149,-0.61407 -1.347863,-0.30284 -2.104014,-0.91572 -2.693555,-1.07031 -0.185869,-1.3899 -0.0063,-2.79835 -0.106139,-4.19565 -0.0422,-3.7521 -0.0844,-7.504206 -0.126597,-11.256308 h -6.820313 z"
           sodipodi:nodetypes="ccccccccccc" /><path
           id="path47961"
           style="opacity:1;fill:#797353;fill-opacity:1;stroke-width:0.4;stroke-linecap:round;stroke-linejoin:round;stroke-dashoffset:5.21575"
           d="m 61.568335,92.950916 v 14.724224 h 7.039364 c -0.161391,-1.29823 0.0046,-2.6124 -0.0925,-3.9166 -0.0422,-3.60242 0.08244,-8.818106 0.04024,-12.420524 z"
           sodipodi:nodetypes="cccccc" /><path
           id="path47963"
           style="opacity:0.224913;fill:#e2e2e2;fill-opacity:1;stroke-width:0.4;stroke-linecap:round;stroke-linejoin:round;stroke-dashoffset:5.21575"
           d="m 67.55928,91.05993 c 0.06123,1.425455 0.155256,4.931917 0.182322,5.825112 0.05562,1.835367 1.9e-4,5.561918 0.05581,6.896738 0.05562,1.33481 0.250599,2.57123 0.111104,3.67058 -0.07803,0.61496 0.296258,1.53173 1.022549,1.4131 -0.36654,-0.87834 -0.320938,-3.32922 -0.415867,-4.65787 -0.02996,-2.66362 0.06522,-5.313543 0.03526,-7.977286 -0.01224,-1.088514 0.03113,-3.539637 0.01889,-4.628106 z"
           sodipodi:nodetypes="csssccscc" /><path
           id="path47965"
           style="opacity:0.482699;fill:#a4a4a4;fill-opacity:1;stroke-width:0.4;stroke-linecap:round;stroke-linejoin:round;stroke-dashoffset:5.21575"
           d="m 69.332529,108.45572 c 0.01128,0.4396 -0.414301,0.84186 -0.200185,0.94328 1.056726,0.50055 1.6126,0.72289 5.450184,1.00098 2.089555,0.15142 2.409564,0.2053 2.975529,0.29352 -0.190873,-0.27948 -0.460961,-0.49897 -0.838192,-0.60616 -1.750052,-0.74175 -3.516676,-0.57292 -5.349221,-0.72515 -1.038534,-0.23334 -1.610555,-0.53304 -2.038115,-0.90647 z"
           sodipodi:nodetypes="csscccc" /><path
           id="path47967"
           style="opacity:0.275087;fill:#2a2727;fill-opacity:1;stroke-width:0.4;stroke-linecap:round;stroke-linejoin:round;stroke-dashoffset:5.21575"
           d="m 61.568335,92.950916 v 16.566434 c -0.256666,0.84341 -1.024151,1.58841 -0.788066,2.53369 -0.04981,0.9394 -0.156516,2.28437 0.96635,2.63757 0.36703,0.0631 0.737702,0.11765 1.111043,0.16639 l -0.12144,-6.17895 -0.111104,-7.11894 -0.276469,-8.606194 z" /><path
           style="display:inline;opacity:1;fill:#000000;fill-opacity:1;stroke-width:0.4;stroke-linecap:round;stroke-linejoin:round;stroke-dashoffset:5.21575"
           d="m 69.442523,107.4041 c -0.333704,1.16796 -2.232116,2.94839 -2.232116,2.94839 0,0 2.112498,-1.19332 3.502929,-1.30456 -0.578865,-0.14667 -1.07428,-1.11974 -1.270813,-1.64383 z"
           id="path47969"
           sodipodi:nodetypes="cccc" /><g
           id="g47979"
           transform="matrix(1,0,0,1.0315789,0,-3.9792664)"
           style="display:inline;stroke-width:0.984575"><path
             id="path47971"
             style="opacity:1;fill:#000000;fill-opacity:1;stroke-width:0.39383;stroke-linecap:round;stroke-linejoin:round;stroke-dashoffset:5.21575"
             d="m 60.56718,103.11437 h 9.009993 c 1.140042,0 2.057838,0.89299 2.057838,2.00223 v 1.27918 c 0,1.10924 -0.917796,2.00223 -2.057838,2.00223 H 60.56718 c -1.140042,0 -2.057838,-0.89299 -2.057838,-2.00223 v -1.27918 c 0,-1.10924 0.917796,-2.00223 2.057838,-2.00223 z" /><path
             id="path47973"
             style="opacity:1;fill:#796f53;fill-opacity:1;stroke-width:0.39383;stroke-linecap:round;stroke-linejoin:round;stroke-dashoffset:5.21575"
             d="m 66.505512,103.91315 c -2.091582,0.0402 -4.202755,-0.11711 -6.281438,0.0914 -0.898392,0.45226 -0.777464,1.63747 -0.675803,2.47091 0.136109,0.71218 0.874791,1.07424 1.558199,0.95123 2.72465,0.005 5.452374,0.0532 8.175777,-0.0205 0.755376,0.12017 1.356116,-0.50828 1.356959,-1.23469 0.06549,-0.7944 0.08796,-1.90613 -0.846458,-2.21355 -1.086432,-0.0943 -2.19365,-0.0522 -3.287236,-0.0448 z" /><path
             id="path47975"
             style="opacity:0.351211;fill:#494949;fill-opacity:1;stroke-width:0.39383;stroke-linecap:round;stroke-linejoin:round;stroke-dashoffset:5.21575"
             d="m 61.772974,103.90839 c -0.517728,0.0153 -1.034207,0.0445 -1.548743,0.0961 -0.898391,0.45226 -0.777589,1.63773 -0.675928,2.47117 0.136109,0.71218 0.874637,1.07386 1.558045,0.95085 0.195429,3.6e-4 0.391069,0.001 0.586527,0.002 -0.101784,-0.65024 -0.109205,-1.32009 -0.100252,-1.97197 0.0063,-0.51474 0.0601,-1.04087 0.180351,-1.54822 z" /><path
             id="path47977"
             style="opacity:0.628028;fill:#a09a75;fill-opacity:1;stroke-width:0.39383;stroke-linecap:round;stroke-linejoin:round;stroke-dashoffset:5.21575"
             d="m 68.81027,103.90529 c 0.09108,0.30045 0.177598,0.60216 0.255799,0.9064 0.294383,1.14531 0.1651,1.84936 -0.02067,2.60036 0.07891,-0.002 0.157774,-0.004 0.236678,-0.006 0.755375,0.12017 1.35618,-0.50865 1.357023,-1.23506 0.06549,-0.7944 0.08796,-1.90588 -0.84646,-2.2133 -0.325862,-0.0283 -0.653696,-0.0444 -0.982369,-0.0527 z" /></g><g
           id="g47989"
           transform="matrix(1,0,0,1.0526316,0,-10.766325)"
           style="display:inline;stroke-width:0.974679"><path
             id="path47981"
             style="opacity:1;fill:#000000;fill-opacity:1;stroke-width:0.389872;stroke-linecap:round;stroke-linejoin:round;stroke-dashoffset:5.21575"
             d="m 60.56718,103.11437 h 9.009993 c 1.140042,0 2.057838,0.89299 2.057838,2.00223 v 1.27918 c 0,1.10924 -0.917796,2.00223 -2.057838,2.00223 H 60.56718 c -1.140042,0 -2.057838,-0.89299 -2.057838,-2.00223 v -1.27918 c 0,-1.10924 0.917796,-2.00223 2.057838,-2.00223 z" /><path
             id="path47983"
             style="opacity:1;fill:#796f53;fill-opacity:1;stroke-width:0.389872;stroke-linecap:round;stroke-linejoin:round;stroke-dashoffset:5.21575"
             d="m 66.505512,103.91315 c -2.091582,0.0402 -4.202755,-0.11711 -6.281438,0.0914 -0.898392,0.45226 -0.777464,1.63747 -0.675803,2.47091 0.136109,0.71218 0.874791,1.07424 1.558199,0.95123 2.72465,0.005 5.452374,0.0532 8.175777,-0.0205 0.755376,0.12017 1.356116,-0.50828 1.356959,-1.23469 0.06549,-0.7944 0.08796,-1.90613 -0.846458,-2.21355 -1.086432,-0.0943 -2.19365,-0.0522 -3.287236,-0.0448 z" /><path
             id="path47985"
             style="opacity:0.351211;fill:#494949;fill-opacity:1;stroke-width:0.389872;stroke-linecap:round;stroke-linejoin:round;stroke-dashoffset:5.21575"
             d="m 61.772974,103.90839 c -0.517728,0.0153 -1.034207,0.0445 -1.548743,0.0961 -0.898391,0.45226 -0.777589,1.63773 -0.675928,2.47117 0.136109,0.71218 0.874637,1.07386 1.558045,0.95085 0.195429,3.6e-4 0.391069,0.001 0.586527,0.002 -0.101784,-0.65024 -0.109205,-1.32009 -0.100252,-1.97197 0.0063,-0.51474 0.0601,-1.04087 0.180351,-1.54822 z" /><path
             id="path47987"
             style="opacity:0.628028;fill:#a09a75;fill-opacity:1;stroke-width:0.389872;stroke-linecap:round;stroke-linejoin:round;stroke-dashoffset:5.21575"
             d="m 68.81027,103.90529 c 0.09108,0.30045 0.177598,0.60216 0.255799,0.9064 0.294383,1.14531 0.1651,1.84936 -0.02067,2.60036 0.07891,-0.002 0.157774,-0.004 0.236678,-0.006 0.755375,0.12017 1.35618,-0.50865 1.357023,-1.23506 0.06549,-0.7944 0.08796,-1.90588 -0.84646,-2.2133 -0.325862,-0.0283 -0.653696,-0.0444 -0.982369,-0.0527 z" /></g></g><g
         id="g23493"
         inkscape:label="Right Hand"
         style="display:inline"><g
           id="g23471"><path
             style="opacity:1;fill:#000000;fill-opacity:1;stroke-width:0.4;stroke-linecap:round;stroke-linejoin:round;stroke-dashoffset:5.21575"
             d="m 37.708491,48.275766 c 4.383691,-3.030805 11.223742,-1.729437 13.81346,2.699164 1.764446,2.697578 1.937451,6.634315 0.695468,9.574984 -1.394896,5.50818 -6.845952,10.115095 -12.682623,9.376576 -4.159715,-0.431511 -6.992152,-4.372492 -7.391072,-8.316112 -0.389402,-3.124347 0.480939,-7.076589 2.116499,-9.775107 1.00111,-1.446048 2.558392,-3.114567 3.448268,-3.559505 z"
             id="path17082"
             sodipodi:nodetypes="ccccccc" /><path
             id="path17084"
             style="opacity:1;fill:#ffc17c;fill-opacity:1;stroke-width:0.4;stroke-linecap:round;stroke-linejoin:round;stroke-dashoffset:5.21575"
             d="m 42.417969,47.982422 c -4.024907,0.343975 -7.287643,3.705138 -8.312773,7.489878 -1.080069,3.36207 -1.11153,7.343925 0.991609,10.328356 1.667124,2.466578 5.007328,3.45621 7.811941,2.603219 3.896831,-0.978429 6.128395,-3.075101 8.058651,-8.076676 1.09635,-3.002603 1.049275,-6.653525 -0.983556,-9.259544 -1.729477,-2.307885 -4.762089,-3.305691 -7.565872,-3.085233 z"
             sodipodi:nodetypes="ccccccc" /><path
             id="path17098"
             style="opacity:0.275087;fill:#252525;fill-opacity:1;stroke-width:0.4;stroke-linecap:round;stroke-linejoin:round;stroke-dashoffset:5.21575"
             d="m 40.471948,48.395496 c -3.106252,1.065815 -5.512635,3.923999 -6.366536,7.07657 -1.080068,3.362067 -1.111983,7.344141 0.991154,10.328569 0.909441,1.345555 2.317184,2.250566 3.863847,2.657719 -0.616829,-2.434565 -1.140499,-4.952152 -1.140499,-6.500896 0,-3.781966 0.44454,-5.784111 1.223181,-9.788549 0.220871,-1.135906 0.764128,-2.459625 1.428853,-3.773413 z" /><path
             id="path17103"
             style="opacity:1;fill:#fddaae;fill-opacity:1;stroke-width:0.4;stroke-linecap:round;stroke-linejoin:round;stroke-dashoffset:5.21575"
             d="m 48.666797,49.731848 c 1.807598,3.341697 2.61956,7.221665 1.409733,10.862903 -1.194878,3.375536 -3.736279,6.222167 -6.968567,7.756632 3.773303,-1.000028 5.962578,-3.109194 7.859469,-8.024316 1.096349,-3.0026 1.049426,-6.653367 -0.983403,-9.259383 -0.381109,-0.508568 -0.825957,-0.953518 -1.317232,-1.335836 z" /></g><g
           id="g23477"><path
             id="path17091"
             style="opacity:1;fill:#000000;fill-opacity:1;stroke-width:0.4;stroke-linecap:round;stroke-linejoin:round;stroke-dashoffset:5.21575"
             d="m 37.603516,62.279297 c -3.252041,0.2118 -5.844768,3.206039 -5.988909,6.393119 -0.343559,3.592736 0.827082,7.15499 2.639828,10.218736 1.876063,3.593253 3.819136,7.157309 5.539621,10.825681 0.959427,1.469856 1.995748,2.979786 2.151256,4.792933 0.772574,1.815705 2.240922,3.730268 4.384766,3.798828 2.381316,-0.333689 4.771885,-0.721551 7.012797,-1.631073 0.668155,-0.323119 0.561186,-0.141279 1.13546,-0.60349 1.268706,-2.699443 0.05087,-5.449499 -0.969113,-6.184123 -0.442103,-1.465657 0.07132,-3.570652 -1.567816,-4.343033 -1.094927,-0.426776 -2.295454,-0.443127 -3.431954,-0.714619 -0.795182,-0.0708 -0.957786,-1.011198 -1.208549,-1.620906 -0.436773,-1.913224 0.291311,-3.853296 0.07257,-5.785581 C 47.231763,73.919285 46.974606,70.260161 45.340539,67.086793 44.506106,65.653588 43.273,64.462062 41.927769,63.506612 40.66397,62.654122 39.13603,62.16205 37.603514,62.279297 Z"
             sodipodi:nodetypes="sccccccccccccccss" /><path
             id="path17093"
             style="opacity:1;fill:#ffc17c;fill-opacity:1;stroke-width:0.4;stroke-linecap:round;stroke-linejoin:round;stroke-dashoffset:5.21575"
             d="m 37.614704,62.232819 c -3.967736,0.200847 -4.972672,4.927218 -4.985906,7.191633 -0.190582,3.592797 1.339747,6.973565 3.117776,10.030154 1.778634,3.322511 3.467287,6.694892 5.176732,10.049784 1.027723,1.484761 1.829197,3.150047 2.1602,4.928941 0.646707,1.416907 1.916749,3.019974 3.662838,2.74399 2.470815,-0.298875 3.851056,-0.496203 6.201404,-1.303957 0.422467,-0.145191 0.65881,-0.158629 1.068242,-0.704192 0.294944,-1.540624 0.03618,-3.787918 -1.114701,-4.881056 -0.832947,-1.148409 -0.128014,-3.095448 -1.52927,-3.806336 -1.295202,-0.509197 -2.843043,-0.234116 -4.030222,-1.042327 -1.433222,-1.416456 -1.314359,-3.63238 -1.110083,-5.480478 0.271987,-2.326897 -0.03885,-4.667687 -0.26113,-6.985754 -0.357519,-2.682627 -1.21744,-5.22121 -3.028597,-7.553501 -1.805515,-1.970596 -2.831479,-3.313714 -5.327283,-3.186901 z"
             sodipodi:nodetypes="ccccccscccccccc" /><path
             id="path21179"
             style="opacity:0.252595;fill:#000000;fill-opacity:1;stroke-width:0.4;stroke-linecap:round;stroke-linejoin:round;stroke-dashoffset:5.21575"
             d="m 37.43649,62.294586 c -3.808156,0.149495 -4.7949,4.978682 -4.807474,7.130117 -0.190582,3.592793 1.339612,6.973293 3.117639,10.029879 1.778632,3.322507 3.466985,6.695144 5.176428,10.050032 1.027722,1.48476 1.829589,3.150006 2.160592,4.928898 0.646706,1.416906 1.916738,3.020003 3.662826,2.744019 0.369569,-0.0447 0.737693,-0.09777 1.104842,-0.157096 C 42.430163,93.737076 41.085687,87.184529 38.196635,81.613623 34.936209,75.761559 35.026648,68.407389 37.43649,62.294586 Z"
             sodipodi:nodetypes="ccccccccc" /><path
             id="path21184"
             style="opacity:1;fill:#ffd5a8;fill-opacity:1;stroke-width:0.4;stroke-linecap:round;stroke-linejoin:round;stroke-dashoffset:5.21575"
             d="m 39.354704,62.628219 c 2.06097,3.085596 4.636605,5.673254 5.537129,9.677962 1.739826,7.737153 -0.401995,9.525485 1.939684,13.585589 4.760455,1.641064 3.887212,0.904925 6.726454,5.584817 0.339938,0.989874 -0.248431,2.857482 0.179001,4.037182 0.05229,-0.114628 0.344819,-0.268323 0.435803,-0.753342 0.294943,-1.540623 -0.160179,-3.3005 -1.311057,-4.393637 -0.832947,-1.148408 -0.0884,-3.17436 -1.489657,-3.885247 -1.295201,-0.509197 -2.843067,-0.234103 -4.030245,-1.042314 -1.43322,-1.416454 -1.314285,-3.632189 -1.11001,-5.480285 0.271987,-2.326895 -0.03869,-4.667556 -0.260966,-6.98562 -0.357518,-2.682625 -1.2176,-5.221256 -3.028755,-7.553545 -1.319295,-1.439919 -2.222948,-2.418228 -3.587378,-2.79156 z"
             sodipodi:nodetypes="cscccccccccccc" /><path
             style="opacity:1;fill:#000000;fill-opacity:1;stroke-width:0.4;stroke-linecap:round;stroke-linejoin:round;stroke-dashoffset:5.21575"
             d="m 51.626477,88.641318 c 0.181486,2.167895 0.450845,2.522036 0.819338,2.730898 0.368492,0.208864 0.811169,-0.127835 0.811169,-0.127835 z"
             id="path23479" /></g><g
           id="g27241"><path
             id="rect23495"
             style="opacity:1;fill:#000000;fill-opacity:1;stroke-width:0.400185;stroke-linecap:round;stroke-linejoin:round;stroke-dashoffset:5.21575"
             transform="matrix(0.89802359,-0.43994731,0.47815769,0.878274,0,0)"
             d="m -6.8652228,94.133738 c 0.458654,-0.03892 7.4836702,-0.685127 8.2369224,-0.728329 0.773696,-0.04438 1.7184084,0.01177 1.8277064,0.758226 0.095809,0.654335 -0.1868005,2.215134 -0.1892725,2.954391 -0.00254,0.759622 -0.7646475,0.787277 -1.2412432,0.822852 -0.6612839,0.04936 -8.8638291,0.548631 -8.8638291,0.548631 -1.1334252,-0.05316 -1.3004361,-0.229347 -1.4326429,-0.965582 -0.088356,-0.492039 0.00696,-2.069957 -0.039016,-2.514455 -0.058486,-0.565488 1.2249589,-0.835309 1.7013749,-0.875734 z"
             sodipodi:nodetypes="sssssssss" /><path
             id="path23498"
             style="opacity:1;fill:#543c0d;fill-opacity:1;stroke-width:0.4;stroke-linecap:round;stroke-linejoin:round;stroke-dashoffset:5.21575"
             d="m 46.720703,81.652344 c -1.827506,0.904858 -3.547527,2.056096 -5.302966,3.106332 -0.894582,0.625284 -1.972112,1.049684 -2.720471,1.846793 -0.229032,0.621002 0.273951,1.068003 0.42355,1.623976 0.254136,0.468581 0.907005,1.283201 1.543871,0.772165 2.1036,-1.073593 4.063278,-2.340984 6.149766,-3.444969 0.534773,-0.399764 1.33135,-0.616838 1.653836,-1.201713 -0.08194,-0.793637 -0.563518,-1.360936 -0.823945,-2.13283 -0.122014,-0.272283 -0.593767,-0.627745 -0.923641,-0.569754 z"
             sodipodi:nodetypes="ccccccccc" /><path
             id="path23569"
             style="opacity:1;fill:#6b4f27;fill-opacity:1;stroke-width:0.4;stroke-linecap:round;stroke-linejoin:round;stroke-dashoffset:5.21575"
             d="m 46.811096,81.644629 c -0.02947,-9.3e-5 -0.05951,0.0023 -0.09043,0.0078 -0.186776,0.09248 -0.372388,0.187999 -0.557072,0.285254 l 1.701705,2.999817 c 0.248066,-0.15663 0.467672,-0.33684 0.603064,-0.582393 -0.08194,-0.793636 -0.591361,-1.388892 -0.851787,-2.160785 -0.110575,-0.246757 -0.520594,-0.548746 -0.805476,-0.549644 z"
             sodipodi:nodetypes="cccccccc" /><path
             id="path23574"
             style="opacity:0.366782;fill:#151515;fill-opacity:1;stroke-width:0.4;stroke-linecap:round;stroke-linejoin:round;stroke-dashoffset:5.21575"
             d="m 39.921077,85.667122 c -0.445214,0.2701 -0.871075,0.562851 -1.223697,0.938444 -0.229032,0.621002 0.13494,1.123642 0.4792,1.679614 0.254136,0.468581 0.851256,1.227658 1.488121,0.716623 0.296095,-0.151115 0.588903,-0.306774 0.88005,-0.464572 z"
             sodipodi:nodetypes="cccccc" /></g></g><g
         id="g55462"
         inkscape:label="Head"
         style="display:inline"><g
           id="g13142"
           style="display:inline"
           inkscape:label="Beard"><path
             id="path13134"
             style="opacity:1;fill:#000000;fill-opacity:1;stroke:none;stroke-width:0.310999"
             d="m 67.630859,35.330078 c -4.088351,0.677617 -8.189577,1.429534 -12.177668,2.551727 -1.073821,0.608427 -2.131313,1.354987 -2.883748,2.33544 -1.216135,1.969116 -2.338563,4.340735 -1.727646,6.700724 0.208574,0.677036 0.396148,1.558971 1.162109,1.80664 0.07527,1.463701 -0.185945,3.269559 1.042969,4.345703 0.210501,0.267291 0.765639,0.03561 0.660558,0.498565 -0.687192,1.469366 0.783736,4.728372 1.676902,4.568306 0.181153,-0.176659 0.728002,-0.629424 0.789493,-0.283667 0.20517,1.111546 0.586352,2.275794 1.347656,3.121093 0.286278,0.314374 0.893117,0.117425 1.079176,0.240232 0.129349,1.115132 0.257091,2.325449 0.83829,3.290231 0.678593,0.612272 1.741893,0.178489 2.211441,-0.485541 -0.04388,1.688208 0.292924,3.402991 0.960937,4.947266 0.485237,0.595926 1.422258,0.370079 1.863281,-0.160156 0.329663,0.835457 0.750577,1.847117 1.650391,2.169921 0.567188,0.100149 0.936687,-0.426944 1.347656,-0.710937 0.466338,1.470335 1.351905,2.890563 2.736328,3.646484 1.262348,-0.470814 1.324127,-1.962806 1.744141,-3.037109 0.103653,-0.434464 0.382526,-0.799447 0.703125,-1.099609 0.737906,0.604662 1.466397,1.232857 2.015625,2.021484 0.366291,-0.971237 1.02013,-1.856532 1.607422,-2.660156 0.847669,0.417548 1.614445,-0.448001 1.896484,-1.171875 0.444517,-0.904645 0.598344,-1.922007 0.603516,-2.921875 1.268928,-0.283963 1.499216,-1.83789 1.394531,-2.927735 0.741081,0.258907 1.421973,-0.509689 1.300343,-1.229432 0.345792,-1.910472 0.291708,-3.853061 0.159284,-5.779789 -0.04053,-1.558151 0.0032,-3.122028 -0.102205,-4.676325 0.818846,-0.421691 0.380965,-1.50417 0.06836,-2.125 -0.589023,-0.993146 -0.818751,-2.153944 -1.455078,-3.123047 0.644156,-1.267325 -0.366116,-2.555555 -0.916993,-3.649361 -1.056269,-1.994325 -2.373975,-4.038059 -4.512569,-4.99527 -1.067587,-0.663872 -2.307408,-1.014305 -3.563,-0.960391 -1.172828,-0.0912 -2.347296,-0.182941 -3.521111,-0.246541 z"
             sodipodi:nodetypes="cccccccccccccccccccccccccccccccccc" /><path
             style="opacity:1;fill:#c76902;fill-opacity:1;stroke:none;stroke-width:0.310999"
             d="m 52.423332,42.630825 c 0,0 -0.393274,1.061839 -0.511257,1.573093 -0.117981,0.511257 -0.275291,0.983184 -0.235964,1.376458 0.03933,0.393274 0.117983,0.58991 0.196639,0.943856 0.07865,0.353947 0.07865,0.58991 0.235963,0.865201 0.157308,0.275291 0.03933,0.471929 0.314619,0.07866 0.275291,-0.393274 0.629237,-0.707892 0.629237,-0.707892 0,0 0.196636,-0.668565 0.07866,0.07865 -0.117983,0.747218 -0.157311,1.061836 -0.117983,1.533766 0.03933,0.471926 0.07866,0.432601 0.07866,1.022511 0,0.58991 -0.03933,1.219147 0.03933,1.573093 0.07865,0.353944 0.196635,0.786546 0.314618,0.983182 0.117981,0.196638 0.196636,0.471929 0.471927,0.03933 0.275291,-0.432599 0.235963,-0.511254 0.511254,-0.668565 0.275291,-0.157308 0.432602,-0.511254 0.393274,0.196638 -0.03933,0.707891 -0.235963,0.904529 -0.157308,1.494439 0.07865,0.589909 0.157308,0.629237 0.196636,1.179819 0.03933,0.550582 0.157308,0.74722 0.196636,1.179819 0.03933,0.432602 0.07865,0.747221 0.117983,0.943856 0.03933,0.196639 0.157308,0.668565 0.157308,0.668565 0,0 0.235966,-0.550582 0.393274,-0.707892 0.15731,-0.157308 0.393274,-0.235964 0.74722,-0.432599 0.353946,-0.196639 0.825873,-0.03933 0.825873,-0.03933 0,0 -0.07865,0.117983 -0.07865,0.786545 0,0.668565 -0.117981,0.983184 0,1.297803 0.117983,0.314619 0.196638,0.668565 0.314618,0.983184 0.117983,0.314618 0.196639,0.432601 0.314619,0.707892 0.117983,0.275291 0.314619,0.550582 0.314619,0.550582 0,0 0.03933,0 0.235966,-0.275291 0.196636,-0.275291 0.275291,-0.353946 0.58991,-0.629237 0.314618,-0.275291 0.589909,-0.393274 0.589909,-0.393274 0,0 0.235964,-0.353946 0.07865,0.707893 -0.157308,1.061836 0,1.612421 0.03933,2.04502 0.03933,0.432601 0.15731,0.825875 0.235966,1.219147 0.07865,0.393274 0.11798,0.74722 0.196635,0.904528 0.07866,0.157311 0.353947,-0.03932 0.550582,-0.196636 0.196639,-0.157308 0.235964,-0.471926 0.58991,-0.550582 0.353946,-0.07866 1.219147,-0.275291 1.219147,-0.275291 0,0 0.235966,-0.196638 0.235966,0.511255 0,0.707892 -0.117983,1.297802 0,1.809057 0.11798,0.511257 0.03932,0.668565 0.11798,1.022511 0.07866,0.353946 0.117983,1.061836 0.275291,1.219147 0.157311,0.157308 0.314619,1.022511 0.314619,1.022511 0,0 0.117983,0.07865 0.393274,-0.393274 0.275291,-0.471929 0.432602,-0.74722 0.707893,-0.943856 0.275291,-0.196635 0.353946,-0.550582 0.432599,-0.275291 0.07865,0.275291 0.117983,0.629238 0.275291,1.140492 0.157311,0.511257 0.196638,0.707893 0.314619,0.904528 0.117983,0.196639 0.196638,0.393274 0.314618,0.58991 0.117983,0.196638 0.275294,0.511257 0.275294,0.511257 0,0 0.11798,0.275291 0.275291,-0.03933 0.157308,-0.314618 0.275291,-0.314618 0.629237,-0.471929 0.353944,-0.157308 0.58991,-0.196636 0.865201,-0.196636 0.275291,0 0.432599,0 0.432599,0.432602 0,0.432599 0.432602,0.983181 0.471929,1.2978 0.03933,0.314619 0.393274,0.589912 0.58991,0.943856 0.196636,0.353946 0.235963,0.393274 0.471927,0.58991 0.235966,0.196638 0.314619,0.589912 0.471929,0.03933 0.157308,-0.550582 0.353947,-1.140491 0.432602,-1.376455 0.07865,-0.235963 0.511254,-1.415785 0.511254,-1.415785 0,0 0.550582,-0.471927 0.747221,-0.70789 0.196635,-0.235966 0.629234,-0.511257 0.629234,-0.511257 0,0 0.235966,0.314618 0.589913,0.550584 0.353943,0.235964 0.393271,0.314619 0.668562,0.511255 0.275294,0.196635 0.511257,0.471926 0.511257,0.471926 0,0 0.196636,-0.353946 0.471927,-0.70789 0.275291,-0.353946 0.432601,-0.589909 0.550582,-0.865203 0.117983,-0.275291 0,-0.432599 0.117983,-0.747218 0.117983,-0.314618 -0.03933,-0.550582 0.314618,-0.353946 0.353947,0.196636 0.47193,0.314619 0.58991,0.471927 0.117983,0.15731 0.275291,0.432601 0.275291,0.432601 0,0 0.196639,-0.117983 0.314619,-0.393274 0.117983,-0.275291 0.275291,-0.353946 0.353946,-0.786545 0.07866,-0.432602 0.275291,-0.943856 0.275291,-1.179819 0,-0.235966 0,-1.140495 0,-1.376458 0,-0.235963 0.117983,-0.904529 0.117983,-0.904529 l 0.314619,0.157311 0.393274,0.353944 c 0,0 0.196636,0.07865 0.393271,-0.353944 0.196639,-0.432602 0.196639,-0.74722 0.196639,-0.983184 0,-0.235966 0,-0.550584 0,-0.825875 0,-0.275291 0.07865,-0.629238 0.07865,-0.865201 0,-0.235963 0.07866,-0.550582 0.07866,-0.550582 l 0.393274,0.07866 0.471926,0.314619 0.235966,0.157308 c 0,0 0.117981,-0.747218 0.117981,-1.061836 0,-0.314619 0.196638,-0.825876 0.196638,-1.33713 0,-0.511255 -0.03933,-0.943857 -0.03933,-1.376458 0,-0.432599 -0.03933,-1.140492 -0.03933,-1.376455 0,-0.235964 -0.07866,-0.707893 -0.07866,-1.415786 0,-0.70789 0,-1.101164 0,-1.494438 0,-0.393274 0,-0.943856 0,-1.33713 0,-0.393271 0.07866,-0.70789 -0.117983,-1.101164 -0.196635,-0.393274 -0.275291,-0.432602 -0.629234,-0.943856 -0.353947,-0.511254 0.196635,-0.393274 0.196635,-0.393274 0,0 0.117981,0.03933 0.432599,0.235966 0.314619,0.196636 0.707893,0.353944 0.47193,-0.07865 -0.235964,-0.432602 -0.47193,-1.022512 -0.47193,-1.022512 0,0 -0.471926,-0.904528 -0.629234,-1.45511 -0.157311,-0.550582 -0.747221,-1.415786 -0.865204,-1.612421 -0.11798,-0.196636 -0.511254,-0.511255 -0.70789,-0.865201 -0.196638,-0.353946 -0.511257,-1.022511 -0.511257,-1.022511 0,0 0.668565,0.15731 0.904529,0.353946 0.235966,0.196636 0.668565,0.74722 0.668565,0.74722 0,0 0.07866,-0.314618 -0.157308,-0.786548 C 78.890624,43.18141 79.008607,43.142082 78.65466,42.630825 78.300714,42.119571 78.182734,41.883607 77.986095,41.529661 77.78946,41.175715 77.710804,40.900424 77.396186,40.428497 77.081567,39.956568 76.177038,38.776748 75.705112,38.383474 75.233182,37.9902 72.873544,36.771053 72.873544,36.771053 l -5.073227,-0.393271 c 0,0 -4.365334,0.70789 -4.601297,0.786545 -0.235964,0.07865 -3.932732,0.825873 -4.404662,0.943856 -0.471926,0.117983 -2.870893,0.58991 -3.028204,0.74722 -0.157308,0.157308 -2.123675,1.533766 -2.20233,1.691074 -0.07866,0.157311 -1.140492,2.084348 -1.140492,2.084348 z"
             id="path13132" /><path
             id="path13298"
             style="display:inline;opacity:1;fill:#fa8302;fill-opacity:1;stroke:none;stroke-width:0.310999"
             d="m 67.800513,36.377625 c 0,0 -4.365307,0.70786 -4.60127,0.786515 -0.235964,0.07865 -3.932969,0.826145 -4.404899,0.944128 -0.143993,0.036 -0.482233,0.108293 -0.866614,0.191203 l -0.195337,4.685502 c 0,0 0.235987,0.156896 0.747242,-0.07906 0.511256,-0.235966 0.668747,-0.864753 0.629419,0.433049 -0.03933,1.2978 -0.03917,1.808659 -0.117823,2.201932 -0.07866,0.393275 0.03927,2.084612 0.03927,2.477885 0,0.393274 -0.117996,0.432337 0.393258,0.196371 0.511257,-0.235963 0.550446,0.07904 0.865063,0.86558 0.314619,0.786545 0.55066,2.280717 0.707968,2.870626 0.15731,0.589908 0.865313,2.202273 1.06195,2.713529 0.196636,0.511255 0.510972,1.337014 0.589628,1.612305 0.07866,0.275293 1.219353,2.045126 1.376661,2.595707 0.15731,0.550582 -0.786921,1.297863 0.274918,1.101225 1.061835,-0.196636 1.140483,-0.471752 1.533757,-0.51108 0.393271,-0.03933 0.786871,-0.117999 0.904854,0.393258 0.11798,0.511254 0.786355,1.494308 0.904338,2.005562 0.117979,0.511257 0.472109,0.786607 0.629419,1.101225 0.157307,0.314619 -0.235838,0.550423 0.668693,0.117822 0.904528,-0.432598 1.573067,-0.864957 1.927014,-0.943612 0.353945,-0.07865 0.786304,-0.07888 0.943611,0.550354 0.15731,0.629238 0.07874,0.314945 0.31471,0.904855 0.235964,0.589909 0.23584,1.06157 0.471806,0.19637 0.235962,-0.865199 0.393491,-1.29774 0.983402,-1.57303 0.58991,-0.275291 0.983295,-0.904605 1.061951,-0.707967 0.07866,0.196635 0.786515,1.179772 0.786515,1.179772 0,0 -0.0395,0.196958 0.51108,-0.235644 0.550582,-0.432599 0.629155,-0.550925 0.825789,-0.511597 0.196639,0.03933 0.471806,0.275436 0.471806,0.275436 l 1.179773,0.03927 c 0,0 0.235947,-0.03916 0.393258,-0.51108 0.07679,-0.230368 0.238091,-0.432081 0.382922,-0.578776 0.0057,-0.0597 0.01085,-0.117721 0.01085,-0.168465 0,-0.235963 0.07855,-0.550871 0.07855,-0.550871 l 0.393258,0.07906 0.471806,0.314193 0.236161,0.157613 c 0,0 0.117823,-0.747333 0.117823,-1.061951 0,-0.314619 0.19637,-0.825616 0.19637,-1.336869 0,-0.511255 -0.03927,-0.94406 -0.03927,-1.376661 0,-0.432598 -0.03927,-1.140697 -0.03927,-1.37666 0,-0.235963 -0.07855,-0.707525 -0.07855,-1.415417 v -1.494483 -1.337386 c 0,-0.39327 0.07882,-0.707951 -0.117823,-1.101224 -0.196634,-0.393274 -0.275476,-0.432359 -0.629419,-0.943612 -0.353946,-0.511254 0.196888,-0.393258 0.196888,-0.393258 0,0 0.117914,0.03901 0.432531,0.235645 0.314619,0.196636 0.707769,0.354045 0.471806,-0.07855 -0.235964,-0.432602 -0.471806,-1.02216 -0.471806,-1.02216 0,0 -0.472111,-0.904627 -0.629419,-1.455209 -0.15731,-0.550581 -0.74708,-1.415669 -0.865063,-1.612304 -0.11798,-0.196636 -0.511331,-0.511635 -0.707967,-0.86558 -0.196638,-0.353946 -0.51108,-1.02216 -0.51108,-1.02216 0,0 0.668374,0.156831 0.904337,0.353467 0.235966,0.196635 0.668693,0.747241 0.668693,0.747241 0,0 0.07836,-0.314586 -0.157613,-0.786516 C 78.890463,43.181212 79.008577,43.142246 78.654631,42.63099 78.300685,42.119736 78.182576,41.88371 77.985937,41.529765 77.789303,41.175819 77.710927,40.900467 77.396309,40.42854 77.081691,39.956612 76.176865,38.776977 75.70494,38.383704 75.23301,37.99043 72.873588,36.770882 72.873588,36.770882 Z" /><path
             id="path16060"
             style="opacity:0.300623;fill:#ebebeb;fill-opacity:1;stroke:none;stroke-width:0.310999"
             d="m 75.362325,38.148576 c 0.102167,0.191244 0.193134,0.344197 0.264067,0.431498 0.511254,0.629234 1.415971,2.359661 1.769917,3.421497 0.128762,0.386286 0.236028,0.871403 0.325045,1.33997 0.03058,0.0073 0.663679,0.158947 0.894002,0.350883 0.235966,0.196635 0.668693,0.747241 0.668693,0.747241 0,0 0.07836,-0.314586 -0.157613,-0.786516 -0.235973,-0.471937 -0.117859,-0.510903 -0.471805,-1.022159 -0.353946,-0.511254 -0.472055,-0.74728 -0.668694,-1.101225 -0.196634,-0.353946 -0.27501,-0.629298 -0.589628,-1.101225 -0.314618,-0.471928 -1.219444,-1.651563 -1.691369,-2.044836 -0.07216,-0.06014 -0.197364,-0.143685 -0.342615,-0.235128 z m 2.365747,5.225521 c 0.15211,0.807176 0.24776,1.556953 0.29714,1.655713 0.07865,0.157307 0.511545,1.887528 0.55087,2.044836 0.03933,0.157311 0.589987,1.730684 0.707967,2.084627 0.117983,0.353946 0.510869,1.533407 0.668177,2.555917 0.157308,1.022511 0.118235,2.792314 0.196887,3.382222 0.07866,0.58991 0.19637,2.045444 0.19637,2.360063 0,0.314617 0.03979,1.494271 0.03979,1.651579 0,0.05434 0.06166,0.328218 0.135393,0.640271 0.04707,-0.31121 0.1788,-0.730316 0.1788,-1.151351 0,-0.511255 -0.03927,-0.94406 -0.03927,-1.376661 0,-0.432598 -0.03927,-1.140697 -0.03927,-1.37666 0,-0.235963 -0.07855,-0.707525 -0.07855,-1.415417 v -1.494483 -1.337386 c 0,-0.39327 0.07882,-0.707951 -0.117823,-1.101224 -0.196634,-0.393274 -0.275476,-0.432359 -0.629419,-0.943612 -0.353946,-0.511254 0.196888,-0.393258 0.196888,-0.393258 0,0 0.117914,0.03901 0.432531,0.235645 0.314619,0.196636 0.707769,0.354045 0.471806,-0.07855 -0.235964,-0.432602 -0.471806,-1.02216 -0.471806,-1.02216 0,0 -0.472111,-0.904627 -0.629419,-1.455209 -0.15731,-0.550581 -0.74708,-1.415669 -0.865063,-1.612304 -0.11798,-0.196636 -0.511331,-0.511635 -0.707967,-0.86558 -0.187489,-0.337478 -0.467005,-0.92973 -0.494027,-0.98702 z" /></g><g
           id="g12868"
           inkscape:label="Face"
           style="display:inline"><path
             style="opacity:1;fill:#000000;fill-opacity:1;stroke:none;stroke-width:0.310999"
             d="m 60.092161,37.636256 c -0.293588,2.686428 -0.813086,5.416584 -0.231602,8.104064 0.185423,1.844544 0.664615,3.740131 1.959881,5.134798 0.71911,0.977577 1.614258,2.020158 2.937495,2.028276 2.698784,0.237806 5.449788,0.403996 8.135684,-0.03124 1.501604,-0.389671 3.31344,-1.015142 3.821666,-2.652526 1.047416,-2.361273 1.040409,-5.052753 0.336371,-7.509515 -0.601234,-2.443171 -1.973798,-4.922951 -4.378871,-5.971046 -2.177765,-1.041791 -4.683897,-0.944844 -7.028698,-0.747598 -1.929353,0.230093 -3.742752,0.977368 -5.551926,1.644789 z"
             id="path12168" /><path
             id="path12170"
             style="opacity:1;fill:#fec17c;fill-opacity:1;stroke:none;stroke-width:0.310999"
             d="m 67.853516,36.927734 c -2.348551,-0.07166 -4.626747,0.634893 -6.792969,1.472657 -0.467321,3.396924 -0.715637,7.064748 0.599609,10.267578 0.599841,1.207483 1.417888,2.4624 2.664534,3.060844 1.203776,0.338318 2.480581,0.160851 3.712515,0.319747 2.337258,0.07962 4.868224,0.106344 6.929592,-1.154029 1.136348,-1.035473 1.30223,-2.705842 1.486328,-4.146484 0.154747,-2.684632 -0.632147,-5.373431 -2.223733,-7.536362 -1.555259,-1.801387 -4.083371,-2.394908 -6.375876,-2.283951 z" /></g><g
           id="g1557"
           inkscape:label="Left Eye"
           style="display:inline"><ellipse
             style="opacity:1;fill:#000000;fill-opacity:1;stroke:none;stroke-width:0.412714"
             id="path1180"
             cx="61.756516"
             cy="58.187981"
             rx="2.9939907"
             ry="2.0560226"
             transform="matrix(0.9747682,-0.22321951,0.23810897,0.97123845,0,0)" /><path
             id="ellipse1182"
             style="opacity:1;fill:#ffffff;fill-opacity:1;stroke:none;stroke-width:0.393767"
             d="m 74.563107,41.205309 c -1.074927,-0.03056 -2.31558,0.457953 -2.70576,1.591755 -0.178634,0.709803 0.509484,1.235346 1.094695,1.378336 0.942319,0.243757 1.981391,-0.04513 2.750271,-0.642642 0.499961,-0.406226 0.802823,-1.24655 0.32663,-1.795057 -0.364987,-0.422836 -0.949239,-0.513331 -1.465836,-0.532392 z" /><ellipse
             style="opacity:1;fill:#000000;fill-opacity:1;stroke:none;stroke-width:0.376379"
             id="path1240"
             cx="74.132027"
             cy="42.689816"
             rx="0.58990991"
             ry="0.57024628" /></g><g
           id="g1126"
           inkscape:label="Right Eye"
           style="display:inline"><path
             id="path407"
             style="opacity:1;fill:#000000;fill-opacity:1;stroke-width:0.323983"
             transform="matrix(0.98178421,0.18999938,-0.25128719,0.96791257,0,0)"
             d="m 76.911396,30.223183 a 3.5023308,2.2812088 0 0 1 -3.502331,2.281208 3.5023308,2.2812088 0 0 1 -3.502331,-2.281208 3.5023308,2.2812088 0 0 1 3.502331,-2.281209 3.5023308,2.2812088 0 0 1 3.502331,2.281209 z" /><path
             id="path1020"
             style="opacity:1;fill:#ffffff;fill-opacity:1;stroke-width:0.353864"
             d="m 63.723193,41.505942 c -0.80584,0.06303 -2.114149,0.432745 -1.978,1.567056 0.475712,1.49648 2.159693,1.860207 3.439794,1.858015 0.830557,-0.01076 2.078194,-0.426379 2.047717,-1.524764 -0.38384,-1.437715 -1.983225,-1.832303 -3.18912,-1.91148 -0.106796,0.0038 -0.213593,0.0074 -0.320391,0.01121 z" /><ellipse
             style="opacity:1;fill:#000000;fill-opacity:1;stroke:none;stroke-width:0.301713"
             id="path1025"
             cx="65.480003"
             cy="43.299393"
             rx="0.62923729"
             ry="0.58990991" /></g><g
           id="g16967"
           inkscape:label="Helmet"
           style="display:inline"><g
             id="g11055"><path
               style="opacity:1;fill:#000000;fill-opacity:1;stroke-width:0.4;stroke-linecap:round;stroke-linejoin:round;stroke-dashoffset:5.21575"
               d="m 66.740693,28.865351 c 2.993485,-0.739279 6.044659,-1.340187 8.940678,-2.405439 0.950998,-0.697952 2.484482,-0.958024 2.87223,-2.180197 0.113276,-1.36472 -0.683685,-2.614175 -1.323565,-3.760142 -0.59099,-1.258505 -2.034712,-2.534757 -1.4182,-3.442117 0.547499,-0.693841 2.50557,0.01047 3.147618,0.700582 1.624153,1.649691 3.54027,3.177153 4.280955,5.432632 0.238852,1.587097 0.296859,3.359628 -0.688065,4.728082 -1.498355,2.25631 -3.900282,3.733696 -6.313092,4.844082 -1.290782,0.429098 -2.608626,0.770792 -3.881217,1.254929"
               id="path10970"
               sodipodi:nodetypes="cccccccccc" /><path
               id="path10972"
               style="opacity:1;fill:#fcfbfc;fill-opacity:1;stroke-width:0.4;stroke-linecap:round;stroke-linejoin:round;stroke-dashoffset:5.21575"
               d="m 76.841797,17.626953 c -0.317692,0.258015 0.210316,0.863559 0.415714,1.172995 1.211083,1.59213 2.446408,3.457809 2.336239,5.539896 -0.366876,1.749861 -2.228326,2.435564 -3.667969,3.109375 -2.260901,0.921831 -4.659224,1.403004 -7.019531,1.970703 1.24032,1.132408 2.47199,2.275567 3.708984,3.412109 2.453295,-0.747118 4.970229,-1.558724 6.956159,-3.25112 1.668208,-1.221821 3.08315,-3.187474 2.739051,-5.355914 C 81.990367,21.833333 80.03849,20.143196 78.455078,18.5 77.982915,18.127334 77.191513,17.587363 76.841797,17.626953 Z"
               sodipodi:nodetypes="cccccccccc" /><path
               id="path11046"
               style="opacity:1;fill:#cdcbcd;fill-opacity:1;stroke-width:0.4;stroke-linecap:round;stroke-linejoin:round;stroke-dashoffset:5.21575"
               d="m 80.497929,20.645251 c -0.268383,0.657332 -0.603174,1.268657 -1.189075,1.696538 0.209466,0.640808 0.321273,1.307316 0.284737,1.997811 -0.366875,1.749859 -2.228351,2.43556 -3.667993,3.109371 -2.260899,0.92183 -4.658905,1.40324 -7.01921,1.970939 1.240319,1.132407 2.471825,2.275654 3.708818,3.412194 2.453292,-0.747117 4.970236,-1.55857 6.956164,-3.250964 1.668207,-1.22182 3.08295,-3.187824 2.738851,-5.356262 -0.185565,-1.386571 -0.919566,-2.537085 -1.812292,-3.579627 z" /><path
               id="path11041"
               style="opacity:1;fill:#a4a3a4;fill-opacity:1;stroke-width:0.4;stroke-linecap:round;stroke-linejoin:round;stroke-dashoffset:5.21575"
               d="m 82.067859,26.461951 c -1.170533,0.552705 -2.486453,0.786114 -3.785299,0.778764 -0.599082,0.06737 -1.189825,0.03959 -1.766817,-0.06253 -0.201013,0.0921 -0.399478,0.181545 -0.590145,0.270785 -2.260899,0.92183 -4.658905,1.40324 -7.01921,1.970939 1.240319,1.132407 2.471825,2.275654 3.708818,3.412194 2.453292,-0.747117 4.970236,-1.55857 6.956164,-3.250964 1.067823,-0.782089 2.031127,-1.869458 2.496489,-3.119188 z" /></g><path
             style="opacity:1;fill:#000000;fill-opacity:1;stroke-width:0.4;stroke-linecap:round;stroke-linejoin:round;stroke-dashoffset:5.21575"
             d="m 51.125529,43.810644 c 0.480468,-7.811749 0.559128,-13.180276 9.12394,-16.281513 1.179822,-0.393274 5.112554,-0.707893 7.078921,-0.07866 1.966365,0.629237 4.090041,1.887712 5.584481,3.303497 1.494438,1.415783 2.910221,3.539458 3.38215,4.719278 0.471927,1.179822 1.101165,4.561972 1.101165,4.561972 C 68.17753,38.580543 58.41782,39.496582 51.125529,43.810644 Z"
             id="path4902"
             sodipodi:nodetypes="ccssscc" /><path
             id="path4904"
             style="opacity:1;fill:#543f1f;fill-opacity:1;stroke-width:0.4;stroke-linecap:round;stroke-linejoin:round;stroke-dashoffset:5.21575"
             d="m 62.929688,28.179688 c -3.590405,0.246798 -7.104381,2.208732 -8.908204,5.328124 -1.380068,2.59564 -1.489783,5.606819 -1.716796,8.47461 7.32,-3.639612 15.840263,-4.183284 23.810546,-3.195313 -0.453608,-1.964678 -1.03848,-3.997905 -2.402992,-5.548825 -2.327221,-2.996477 -5.950122,-5.308643 -9.857945,-5.078128 -0.308443,-0.0057 -0.616403,0.01045 -0.924609,0.01953 z" /><g
             id="g10873"><path
               id="path4984"
               style="opacity:1;fill:#010001;fill-opacity:1;stroke-width:0.4;stroke-linecap:round;stroke-linejoin:round;stroke-dashoffset:5.21575"
               d="m 64.219853,28.146086 c -0.121532,0.0023 -0.243233,0.0067 -0.365353,0.01395 -0.12731,-0.0024 -0.254691,-4.75e-4 -0.381889,0.0026 1.577755,3.372654 3.768763,8.210868 3.768763,8.210868 l 5.506124,0.166915 -2.041736,-6.210473 C 68.808561,28.967288 66.572457,28.10169 64.219853,28.1461 Z" /><path
               id="path10103"
               style="opacity:1;fill:#b3b3b3;fill-opacity:1;stroke-width:0.4;stroke-linecap:round;stroke-linejoin:round;stroke-dashoffset:5.21575"
               d="m 64.709982,28.1797 c 0.923659,2.168181 2.56105,5.689693 3.834711,8.221608 l 3.479783,0.139106 -2.167113,-6.488559 C 67.410955,28.518019 65.319993,28.120074 64.709982,28.1797 Z"
               sodipodi:nodetypes="ccccc" /><path
               id="path4992"
               style="opacity:1;fill:#818081;fill-opacity:1;stroke-width:0.4;stroke-linecap:round;stroke-linejoin:round;stroke-dashoffset:5.21575"
               d="m 68.483219,36.530799 2.812171,-0.03432 -2.041119,-6.088638 c -1.116327,-0.818651 -1.847951,-1.392323 -4.629017,-2.26657 1.031107,2.316656 2.617294,5.697915 3.857965,8.389528 z"
               sodipodi:nodetypes="ccccc" /></g><g
             id="g16950"><path
               id="path4910"
               style="opacity:1;fill:#000000;fill-opacity:1;stroke-width:0.4;stroke-linecap:round;stroke-linejoin:round;stroke-dashoffset:5.21575"
               d="m 67.573136,34.148303 c -1.48603,-0.0066 -2.913786,0.06172 -4.177522,0.223759 -3.229684,0.414119 -8.119106,2.221003 -11.804965,3.734139 -0.236987,1.732131 -0.33759,3.631633 -0.465087,5.704562 7.292283,-4.314058 17.052101,-5.230154 26.270747,-3.775481 0,0 -0.629298,-3.382174 -1.101224,-4.561995 -0.07016,-0.175396 -0.163299,-0.373805 -0.272335,-0.585494 -2.532111,-0.436887 -5.597111,-0.726843 -8.449614,-0.73949 z" /><path
               id="path4915"
               style="opacity:1;fill:#818081;fill-opacity:1;stroke-width:0.4;stroke-linecap:round;stroke-linejoin:round;stroke-dashoffset:5.21575"
               d="m 66.417439,35.173564 c -4.868904,0.02076 -9.446174,1.928606 -13.896485,3.679952 -0.189993,1.026177 -0.104655,2.087577 -0.214313,3.128906 7.188782,-3.564971 15.495904,-4.174032 23.366945,-3.240332 0.727209,0.279551 0.193338,-0.446521 0.196379,-0.836912 -0.153661,-0.698012 -0.401969,-1.396293 -0.66737,-2.061428 -2.896339,-0.449342 -5.838031,-0.710066 -8.785156,-0.670186 z"
               sodipodi:nodetypes="ccccccc" /></g><path
             id="path16899"
             style="opacity:0.418685;fill:#252525;fill-opacity:1;stroke-width:0.4;stroke-linecap:round;stroke-linejoin:round;stroke-dashoffset:5.21575"
             d="m 59.56639,28.923816 c -2.296916,0.874943 -4.317222,2.461197 -5.544881,4.584216 -1.380067,2.595638 -1.489679,5.60663 -1.716691,8.474418 1.941321,-0.965253 3.967077,-1.71277 6.044592,-2.271696 -0.01476,-2.475269 0.07746,-5.247737 0.484208,-6.911722 0.327304,-1.338971 0.564277,-2.699873 0.732772,-3.875216 z" /><g
             id="g16831"><path
               id="path13779"
               style="display:inline;opacity:1;fill:#000000;fill-opacity:1;stroke-width:0.4;stroke-linecap:round;stroke-linejoin:round;stroke-dashoffset:5.21575"
               d="m 46.135168,18.067114 c -0.832873,0.02076 -1.893369,0.626417 -2.458247,0.965316 -2.304907,1.447058 -3.332868,3.515886 -4.001823,6.104537 -0.683321,2.644239 1.367139,5.240465 3.515031,6.759794 3.465407,2.451287 7.457502,3.612049 11.555883,4.044198 1.01542,-0.913412 2.093436,-2.54312 2.620512,-5.680791 -3.51764,-0.684006 -6.80163,-1.146581 -10.269657,-2.763655 -1.090936,-0.508683 -2.673699,-1.717118 -2.508891,-2.900082 -0.0036,-2.105471 2.748733,-4.893995 2.27738,-6.323645 -0.200343,-0.154555 -0.452563,-0.212592 -0.730188,-0.205672 z" /><path
               id="path13781"
               style="opacity:1;fill:#f7f6f8;fill-opacity:1;stroke-width:0.4;stroke-linecap:round;stroke-linejoin:round;stroke-dashoffset:5.21575"
               d="m 45.228516,19.410156 c -2.678998,1.126907 -4.392194,3.965451 -4.611328,6.798828 0.02644,2.000913 1.580016,3.53975 3.035445,4.713804 2.410041,1.759014 5.304877,2.86524 8.23537,3.496981 2.094591,0.439885 -0.955039,-0.165699 1.182508,-0.126238 l 0.582561,-3.012711 c -4.662185,-1.041163 -4.576113,-1.0851 -8.633541,-3.84332 -1.306282,-1.003166 -1.924219,-2.870406 -1.201172,-4.400391 0.455782,-1.332817 1.367304,-2.451465 1.832032,-3.779297 -0.140625,0.05078 -0.28125,0.101563 -0.421875,0.152344 z"
               sodipodi:nodetypes="cccccccccc" /><path
               id="path13855"
               style="opacity:1;fill:#cac9ca;fill-opacity:1;stroke-width:0.4;stroke-linecap:round;stroke-linejoin:round;stroke-dashoffset:5.21575"
               d="m 42.185022,21.902022 c -0.899437,1.259509 -1.450049,2.783396 -1.567863,4.306714 0.02644,2.000911 1.580046,3.539871 3.035474,4.713924 2.410038,1.759013 5.304666,2.865204 8.235156,3.496944 2.094589,0.439885 -2.488748,-0.558856 -0.351203,-0.519395 0.167968,-1.148436 2.066279,-1.746249 2.234248,-2.894684 -4.66218,-1.041162 -4.693936,-0.809706 -8.75136,-3.567923 -1.037892,-0.797055 -1.640122,-2.139663 -1.481563,-3.425114 -0.01454,-0.01391 -0.03151,-0.02737 -0.04548,-0.04134 -0.508613,-0.508613 -0.944152,-1.258172 -1.307414,-2.069125 z"
               sodipodi:nodetypes="ccccccccsc" /><path
               id="path13850"
               style="opacity:1;fill:#a4a3a4;fill-opacity:1;stroke-width:0.4;stroke-linecap:round;stroke-linejoin:round;stroke-dashoffset:5.21575"
               d="m 40.718962,27.04176 c 0.36933,1.601975 1.687062,2.875295 2.933671,3.8809 3.787789,2.686542 9.188744,3.979045 10.479557,4.00006 1.03317,-0.873145 1.555024,-2.454141 1.722993,-3.602576 -4.136984,-0.923875 -5.65052,-1.026636 -9.429593,-3.036082 -2.604505,0.338861 -4.593796,-0.633457 -5.706628,-1.242302 z"
               sodipodi:nodetypes="cccccc" /></g></g><g
           id="g50926"
           inkscape:label="Left Brow"><path
             style="opacity:1;fill:#000000;fill-opacity:1;stroke-width:0.4;stroke-linecap:round;stroke-linejoin:round;stroke-dashoffset:5.21575"
             d="m 70.411432,39.349201 c 2.074673,-0.614276 6.063068,-1.365954 6.890283,-1.34815 1.017541,0.292216 1.497271,1.670789 0.937417,2.552189 -0.24022,0.381033 -0.698902,0.514817 -1.123595,0.542584 -1.401185,0.219066 -2.807891,0.459982 -4.152807,0.922296 -1.855092,0.703828 -1.897258,0.627795 -2.63894,0.0024 -0.490646,-0.411578 -0.665368,-1.083425 -0.660003,-1.700332 0.02983,-0.427008 0.285101,-0.906183 0.747645,-0.970942 z"
             id="path48290"
             sodipodi:nodetypes="ccccccccc" /><path
             id="path48292"
             style="opacity:1;fill:#f5850e;fill-opacity:1;stroke-width:0.4;stroke-linecap:round;stroke-linejoin:round;stroke-dashoffset:5.21575"
             d="m 70.349609,39.986328 c -0.54831,0.895713 0.476248,2.401749 1.534388,1.868969 1.798961,-0.782386 3.761156,-1.014471 5.668737,-1.398266 0.885566,-0.522552 0.143977,-1.90411 -0.42095,-1.936601 -0.676412,-0.0079 -6.348193,1.087573 -6.782175,1.465898 z"
             sodipodi:nodetypes="ccccc" /><path
             id="path48296"
             style="opacity:1;fill:#f4b023;fill-opacity:1;stroke-width:0.4;stroke-linecap:round;stroke-linejoin:round;stroke-dashoffset:5.21575"
             d="m 77.096586,38.520646 c -0.817049,0.02573 -6.319674,1.09313 -6.746875,1.465544 -0.131149,0.214243 -0.172451,0.463758 -0.144694,0.711584 0.728364,-0.287055 1.486385,-0.50485 2.240173,-0.711584 1.757433,-0.457887 3.561704,-0.711347 5.371249,-0.847494 -0.164633,-0.338967 -0.440958,-0.604031 -0.684713,-0.61805 -0.01057,-1.23e-4 -0.02217,-4.08e-4 -0.03514,0 z" /></g><g
           id="g55452"
           inkscape:label="Right Brow"><path
             style="opacity:1;fill:#000000;fill-opacity:1;stroke:none;stroke-width:0.4;stroke-linecap:round;stroke-linejoin:round;stroke-dashoffset:5.21575;stroke-opacity:1"
             d="m 60.800053,38.206502 c 1.766378,0.219682 3.509276,0.592729 5.251167,0.951817 0.994722,0.228705 1.981286,0.490828 2.969149,0.747064 0.485741,0.233418 0.48394,0.877522 0.299225,1.309869 -0.286416,0.497049 -0.351876,1.091798 -0.67126,1.571426 -0.218319,0.38946 -0.718112,0.399249 -1.100019,0.296461 -1.963799,-0.387779 -3.946615,-1.031678 -4.906893,-1.237331 -0.715032,-0.15313 -2.242619,-0.412777 -2.942538,-0.630761 -0.451721,-0.302747 -0.149917,-1.018966 0.01818,-1.427203 0.2392,-0.580921 0.520322,-1.042545 0.95101,-1.533779 0.04605,-0.07002 0.117488,-0.04234 0.131981,-0.04756 z"
             id="path50991"
             sodipodi:nodetypes="ccccccscsccc" /><path
             id="path50993"
             style="opacity:1;fill:#f5850e;fill-opacity:1;stroke:none;stroke-width:0.4;stroke-linecap:round;stroke-linejoin:round;stroke-dashoffset:5.21575;stroke-opacity:1"
             d="m 59.992188,40.712891 c 1.396111,0.438437 2.85768,0.565875 4.269526,0.977353 1.191462,0.347248 2.410914,0.618879 3.607427,0.911318 0.656082,-0.02347 0.654485,-0.561244 0.929967,-1.217213 0.158936,-0.378453 0.262248,-1.045177 -0.33817,-1.081615 -2.467904,-0.63912 -7.42294,-1.532736 -7.537738,-1.503209 -0.206867,0.05321 -1.034636,1.290726 -0.931012,1.913366 z"
             sodipodi:nodetypes="cscscsc" /><path
             id="path50997"
             style="opacity:1;fill:#f4b023;fill-opacity:1;stroke:none;stroke-width:0.4;stroke-linecap:round;stroke-linejoin:round;stroke-dashoffset:5.21575;stroke-opacity:1"
             d="m 60.932198,38.798665 c -0.0041,1.5e-5 -0.007,5.73e-4 -0.0088,10e-4 -0.06423,0.01652 -0.188592,0.146943 -0.326078,0.337964 1.183515,0.217187 2.370484,0.423355 3.54552,0.681095 1.606313,0.271524 3.324383,0.832684 4.743896,1.239201 0.01051,-0.03119 0.01914,-0.0629 0.02635,-0.09457 0.03711,-0.303969 -0.03611,-0.605389 -0.396358,-0.65474 -5.38e-4,-7.1e-5 -0.001,-4.47e-4 -0.0016,-5.17e-4 -3.29e-4,-4.4e-5 -7.05e-4,4.4e-5 -0.001,0 -0.0171,-0.0023 -0.03482,-0.004 -0.05323,-0.0052 -2.42934,-0.629133 -7.268602,-1.505252 -7.528739,-1.504301 z" /></g><g
           id="g5393"
           style="display:inline"
           inkscape:label="Right Mustache"><path
             style="opacity:1;fill:#000000;fill-opacity:1;stroke:none;stroke-width:0.310999"
             d="m 72.531116,50.265099 c -3.268768,0.162312 -6.450406,0.781275 -9.62503,1.536631 -0.798153,0.389018 -2.138799,0.445301 -2.197984,1.589546 -0.118944,1.393488 -0.02913,2.805682 0.107313,4.195125 0.237201,1.035775 1.614633,0.594224 2.295519,0.276022 1.32535,-0.620758 2.506278,-1.866017 4.093852,-1.619814 1.485003,0.365658 2.406177,-0.791185 3.515238,-1.456175 0.852295,-0.290488 2.287682,0.32573 2.142751,-1.143611 -0.07553,-1.344272 0.03915,-3.002822 -0.331659,-3.377724 z"
             id="path2484"
             sodipodi:nodetypes="ccccccccc" /><path
             id="path2486"
             style="opacity:1;fill:#fd8204;fill-opacity:1;stroke:none;stroke-width:0.319523"
             d="m 71.496926,50.976701 c -3.316242,0.393528 -6.651665,0.935668 -9.815746,2.104901 -0.528299,0.488385 -0.203614,1.304148 -0.30945,1.942902 0.0071,0.846211 0.04834,1.694433 0.180504,2.530774 1.103638,0.09383 1.965581,-0.848889 2.911061,-1.303215 1.023774,-0.631247 2.249441,-0.906172 3.421843,-0.656493 1.411868,-0.215058 2.288982,-1.941367 3.837938,-1.659423 0.671359,0.167545 0.366244,-0.69961 0.410738,-1.069293 -0.002,-0.644026 0.0061,-1.291497 -0.08143,-1.930749 -0.185153,0.01353 -0.370306,0.02706 -0.555458,0.04059 z" /><path
             id="path3727"
             style="opacity:0.395639;fill:#fff5e3;fill-opacity:1;stroke:none;stroke-width:0.310999"
             d="m 71.275753,51.003605 c -2.939842,0.354844 -5.891266,0.83436 -8.721948,1.772502 0.594999,0.276871 0.515231,0.467442 1.431953,0.237195 1.074105,-0.269776 1.41548,-0.471857 2.516643,-0.707823 1.101165,-0.235963 1.689808,-0.625485 2.556433,-0.708021 0.825872,-0.07865 1.061868,0.07858 1.88774,-0.393348 0.104468,-0.0597 0.215388,-0.127472 0.329179,-0.200505 z"
             sodipodi:nodetypes="ccssssc" /><path
             id="path5382"
             style="opacity:0.213396;fill:#2a2a2a;fill-opacity:1;stroke:none;stroke-width:0.310999"
             d="m 70.730566,53.255664 c -0.146709,-0.0029 -0.278223,0.02319 -0.413411,0.07235 -0.432602,0.157308 -0.393175,0.589864 -1.219047,1.179773 -0.825872,0.589908 -1.494414,-0.157292 -1.927014,-0.393258 -0.432599,-0.235963 -0.393081,9.2e-5 -0.904338,0.31471 -0.511253,0.314619 -0.786962,0.510978 -1.219564,0.589628 -0.4326,0.07865 -0.904535,0.353914 -1.140498,0.786515 -0.235963,0.432602 -0.628993,0.236319 -0.943612,0.118339 -0.22366,-0.08387 -0.222744,0.0014 -0.930176,1.608688 0.882944,-0.15517 1.626503,-0.894278 2.430343,-1.280542 1.023773,-0.631247 2.249612,-0.90597 3.422013,-0.656291 1.411867,-0.215058 2.289054,-1.941274 3.838009,-1.65933 0.253487,0.06326 0.367477,-0.02125 0.413928,-0.170533 -0.0036,-0.0018 -0.0073,-0.0033 -0.01085,-0.0052 -0.675938,-0.351486 -1.073021,-0.498435 -1.395781,-0.504879 z" /></g><g
           id="g8669"
           inkscape:label="Left Mustache"
           style="display:inline"><path
             style="opacity:1;fill:#000000;fill-opacity:1;stroke:none;stroke-width:0.310999"
             d="m 72.608312,50.333605 c 2.07912,0.180447 4.166965,0.282636 6.237973,0.542862 1.006271,0.175414 2.029229,0.288253 3.050949,0.236007 0.705277,0.101895 1.169984,0.742562 1.484006,1.327171 0.283253,0.690195 0.293995,1.450552 0.419468,2.177363 0.0382,0.583771 0.02897,1.176755 -0.01701,1.756167 -0.142328,0.52084 -0.775129,0.724896 -1.244114,0.535187 -0.929005,-0.216656 -1.704106,-0.816092 -2.601876,-1.119017 -0.613042,-0.254695 -1.272611,-0.438982 -1.942105,-0.405134 -0.47571,0.250857 -1.092562,0.545713 -1.562269,0.117834 -0.609576,-0.31503 -1.136801,-0.79017 -1.786286,-1.021892 -0.641029,-0.237982 -1.159768,0.274398 -1.746369,0.401401 -0.633486,0.204962 -1.11253,-0.338952 -0.93472,-0.948817 0.04373,-1.1448 -0.01904,-2.337819 0.415874,-3.421737 0.04751,-0.08526 0.125726,-0.162977 0.226481,-0.177395 z"
             id="path5888"
             sodipodi:nodetypes="ssssssssssssssssccs" /><path
             id="path5890"
             style="opacity:1;fill:#fd8103;fill-opacity:1;stroke:none;stroke-width:0.317045"
             d="m 72.984375,51.253527 c -0.225368,0.958744 -0.222511,1.952347 -0.210937,2.933071 0.658026,-0.208928 1.308163,-0.65625 2.027343,-0.387693 0.860159,0.208906 1.445789,1.007169 2.294922,1.234122 1.501801,-0.776923 3.109944,0.117052 4.462075,0.811366 0.44345,0.17246 0.97892,0.53724 1.426597,0.457262 0.09011,-1.07669 0.0015,-2.21545 -0.271484,-3.272048 -0.184765,-0.710764 -0.816588,-1.214081 -1.535499,-1.099322 -1.805973,-0.03068 -3.577115,-0.456558 -5.382637,-0.542836 -0.927679,-0.07576 -1.855357,-0.151529 -2.783036,-0.227293 z" /><path
             id="path5895"
             style="opacity:0.384735;fill:#e5e5e5;fill-opacity:1;stroke:none;stroke-width:0.310999"
             d="m 73.011564,51.160185 -0.02739,0.09353 c -0.01517,0.06454 -0.02869,0.128947 -0.04186,0.193787 0.228727,0.0442 0.535885,0.09581 0.973067,0.165364 2.447157,0.389321 2.474742,0.417319 3.948596,0.500745 1.473858,0.08342 1.251399,0.166492 2.530595,0.194303 1.051573,0.02286 1.220917,0.365033 2.143538,0.300757 -0.282315,-0.475746 -0.794463,-0.76889 -1.36064,-0.678511 -1.805971,-0.03068 -3.577097,-0.456325 -5.382617,-0.542603 -0.927678,-0.07576 -1.855615,-0.151612 -2.783293,-0.227376 z" /><path
             id="path5900"
             style="opacity:0.285047;fill:#644000;fill-opacity:1;stroke:none;stroke-width:0.310999"
             d="m 73.459082,53.21794 c -0.26837,0.0084 -0.491467,0.167686 -0.689364,0.366386 -2.35e-4,0.201037 0.0013,0.401662 0.0036,0.602031 0.658025,-0.208928 1.308087,-0.65613 2.027266,-0.387574 0.860158,0.208906 1.445818,1.007081 2.294951,1.234034 1.501799,-0.776923 3.11013,0.117006 4.462259,0.81132 0.390463,0.151852 0.852058,0.452515 1.262456,0.467671 -0.447724,-0.712105 -0.977508,-1.531747 -1.869654,-1.681551 -0.571297,-0.06093 -1.330582,0.259515 -1.712557,-0.347782 -0.399368,-0.499909 -1.085939,-0.27232 -1.614371,-0.17725 -0.703736,0.04895 -1.430936,-0.246176 -1.9389,-0.733806 -0.618923,-0.310254 -1.366859,0.193055 -2.001945,-0.12609 -0.07807,-0.02109 -0.152411,-0.02963 -0.223759,-0.02739 z" /></g><g
           id="g12010"
           inkscape:label="Nose"
           style="display:inline"><path
             style="opacity:1;fill:#000000;fill-opacity:1;stroke:none;stroke-width:0.310999"
             d="m 71.079682,44.784389 c 0.133793,0.04859 1.382522,0.824014 2.392931,1.179022 1.209522,0.287636 2.470794,-0.288043 3.664087,0.139948 0.937603,0.196041 1.969221,0.535421 2.470565,1.421882 0.378725,0.634503 0.559397,1.458258 0.287781,2.163517 -0.363108,0.731834 -0.993085,1.288004 -1.611635,1.799218 -1.425339,0.833276 -3.323978,0.646375 -4.617007,-0.356891 -1.087877,-0.710414 -2.346295,-1.253508 -3.619576,-1.623038 -0.579489,-0.168178 -1.301425,-0.646653 -1.006732,-1.230162 0.353574,-1.348611 0.696344,-3.724991 1.462545,-3.609314 0.137591,0.02077 0.390552,0.04809 0.577041,0.115818 z"
             id="path8883"
             sodipodi:nodetypes="sssssssssss" /><path
             id="path8885"
             style="opacity:1;fill:#fec17a;fill-opacity:1;stroke:none;stroke-width:0.310999"
             d="m 70.132216,44.602622 c -0.621867,1.206427 -1.115126,2.601685 -1.386685,3.904363 0.468679,0.567535 2.308945,0.662168 2.920107,1.019039 1.720552,0.46459 3.019952,2.198719 4.931878,1.940249 1.273156,-0.09059 2.444715,-1.027942 2.84975,-2.220179 0.278472,-1.274855 -0.883583,-2.368468 -2.070832,-2.551058 -1.604654,-0.583112 -3.47103,0.394153 -4.956789,-0.634641 -0.555397,-0.305021 -1.746507,-1.231982 -2.287429,-1.457773 z"
             sodipodi:nodetypes="cccccccc" /><path
             id="path10677"
             style="opacity:0.38785;fill:#ffffff;fill-opacity:1;stroke:none;stroke-width:0.310999"
             d="m 77.412846,46.701542 c -0.196112,0.799572 -0.06861,1.690636 0.31936,2.414323 0.169938,0.57401 0.577208,0.954339 1.060917,1.235584 0.289287,-0.323425 0.51635,-0.69952 0.654224,-1.105359 0.275636,-1.261873 -0.859995,-2.345529 -2.034501,-2.544548 z" /></g></g></g></g></svg>
