<?xml version="1.0" encoding="UTF-8" standalone="no"?>
<!-- Created with Inkscape (http://www.inkscape.org/) -->

<svg
   width="210mm"
   height="297mm"
   viewBox="0 0 210 297"
   version="1.1"
   id="svg5"
   inkscape:version="1.2 (dc2aedaf03, 2022-05-15)"
   sodipodi:docname="watermelon.svg"
   xmlns:inkscape="http://www.inkscape.org/namespaces/inkscape"
   xmlns:sodipodi="http://sodipodi.sourceforge.net/DTD/sodipodi-0.dtd"
   xmlns:xlink="http://www.w3.org/1999/xlink"
   xmlns="http://www.w3.org/2000/svg"
   xmlns:svg="http://www.w3.org/2000/svg">
  <sodipodi:namedview
     id="namedview7"
     pagecolor="#ffffff"
     bordercolor="#666666"
     borderopacity="1.0"
     inkscape:showpageshadow="2"
     inkscape:pageopacity="0.0"
     inkscape:pagecheckerboard="0"
     inkscape:deskcolor="#d1d1d1"
     inkscape:document-units="mm"
     showgrid="false"
     inkscape:zoom="0.84096521"
     inkscape:cx="30.322301"
     inkscape:cy="313.33044"
     inkscape:window-width="1920"
     inkscape:window-height="1058"
     inkscape:window-x="-8"
     inkscape:window-y="-8"
     inkscape:window-maximized="1"
     inkscape:current-layer="layer1" />
  <defs
     id="defs2">
    <linearGradient
       inkscape:collect="always"
       id="linearGradient28544">
      <stop
         style="stop-color:#000000;stop-opacity:1;"
         offset="0"
         id="stop28540" />
      <stop
         style="stop-color:#000000;stop-opacity:0.43703705;"
         offset="1"
         id="stop28542" />
    </linearGradient>
    <linearGradient
       inkscape:collect="always"
       id="linearGradient28371">
      <stop
         style="stop-color:#000000;stop-opacity:1;"
         offset="0"
         id="stop28367" />
      <stop
         style="stop-color:#000000;stop-opacity:0.30226701;"
         offset="1"
         id="stop28369" />
    </linearGradient>
    <linearGradient
       inkscape:collect="always"
       id="linearGradient23910">
      <stop
         style="stop-color:#e10d0c;stop-opacity:1;"
         offset="0"
         id="stop23906" />
      <stop
         style="stop-color:#8c0700;stop-opacity:1;"
         offset="1"
         id="stop23908" />
    </linearGradient>
    <linearGradient
       inkscape:collect="always"
       id="linearGradient23902">
      <stop
         style="stop-color:#ff6660;stop-opacity:1;"
         offset="0"
         id="stop23898" />
      <stop
         style="stop-color:#ff5e5c;stop-opacity:0.7581864;"
         offset="1"
         id="stop23900" />
    </linearGradient>
    <linearGradient
       inkscape:collect="always"
       id="linearGradient23896">
      <stop
         style="stop-color:#ff9595;stop-opacity:1;"
         offset="0"
         id="stop23892" />
      <stop
         style="stop-color:#ff342e;stop-opacity:0.62216628;"
         offset="1"
         id="stop23894" />
    </linearGradient>
    <linearGradient
       inkscape:collect="always"
       id="linearGradient23154">
      <stop
         style="stop-color:#ff4140;stop-opacity:1;"
         offset="0"
         id="stop23150" />
      <stop
         style="stop-color:#ff6864;stop-opacity:0.24433252;"
         offset="1"
         id="stop23152" />
    </linearGradient>
    <linearGradient
       inkscape:collect="always"
       id="linearGradient14570">
      <stop
         style="stop-color:#75d379;stop-opacity:0.66750628;"
         offset="0"
         id="stop14566" />
      <stop
         style="stop-color:#7bdd7b;stop-opacity:0.9672544;"
         offset="0.41078049"
         id="stop14601" />
      <stop
         style="stop-color:#2ed135;stop-opacity:0;"
         offset="1"
         id="stop14568" />
    </linearGradient>
    <linearGradient
       inkscape:collect="always"
       id="linearGradient10476">
      <stop
         style="stop-color:#277307;stop-opacity:0.69876552;"
         offset="0"
         id="stop10472" />
      <stop
         style="stop-color:#0d0d0d;stop-opacity:0.80000001;"
         offset="1"
         id="stop10474" />
    </linearGradient>
    <linearGradient
       inkscape:collect="always"
       id="linearGradient7915">
      <stop
         style="stop-color:#0c530f;stop-opacity:0.60493827;"
         offset="0"
         id="stop7911" />
      <stop
         style="stop-color:#051205;stop-opacity:0.93086416;"
         offset="1"
         id="stop7913" />
    </linearGradient>
    <linearGradient
       inkscape:collect="always"
       id="linearGradient4821">
      <stop
         style="stop-color:#299d30;stop-opacity:1;"
         offset="0"
         id="stop4817" />
      <stop
         style="stop-color:#0d8110;stop-opacity:1;"
         offset="1"
         id="stop4819" />
    </linearGradient>
    <radialGradient
       inkscape:collect="always"
       xlink:href="#linearGradient4821"
       id="radialGradient4823"
       cx="84.642952"
       cy="63.993591"
       fx="84.642952"
       fy="63.993591"
       r="39.484638"
       gradientTransform="matrix(0.30251576,0.65109586,-0.36797798,0.17097195,52.114614,-16.656558)"
       gradientUnits="userSpaceOnUse" />
    <linearGradient
       inkscape:collect="always"
       xlink:href="#linearGradient7915"
       id="linearGradient7909"
       x1="108.74506"
       y1="104.36607"
       x2="116.35129"
       y2="114.68278"
       gradientUnits="userSpaceOnUse"
       gradientTransform="matrix(0.61742426,0,0,0.61742426,3.3749992,8.590042)" />
    <linearGradient
       inkscape:collect="always"
       xlink:href="#linearGradient10476"
       id="linearGradient8607"
       x1="103.3351"
       y1="99.845566"
       x2="113.57911"
       y2="112.42326"
       gradientUnits="userSpaceOnUse" />
    <linearGradient
       inkscape:collect="always"
       xlink:href="#linearGradient14570"
       id="linearGradient14572"
       x1="79.216087"
       y1="40.62841"
       x2="94.669395"
       y2="71.582504"
       gradientUnits="userSpaceOnUse" />
    <filter
       inkscape:collect="always"
       style="color-interpolation-filters:sRGB"
       id="filter16123"
       x="-0.021011925"
       y="-0.028798458"
       width="1.0420239"
       height="1.0575969">
      <feGaussianBlur
         inkscape:collect="always"
         stdDeviation="0.46619774"
         id="feGaussianBlur16125" />
    </filter>
    <linearGradient
       inkscape:collect="always"
       xlink:href="#linearGradient23154"
       id="linearGradient23156"
       x1="94.300819"
       y1="138.64127"
       x2="128.50687"
       y2="177.57675"
       gradientUnits="userSpaceOnUse"
       gradientTransform="matrix(0.60106173,0,0,0.56981595,12.906484,-11.575734)" />
    <linearGradient
       inkscape:collect="always"
       xlink:href="#linearGradient23902"
       id="linearGradient23886"
       gradientUnits="userSpaceOnUse"
       x1="106.10851"
       y1="142.05032"
       x2="144.13605"
       y2="174.47588"
       gradientTransform="matrix(0.29562736,0,0,0.29927986,39.698562,27.426279)" />
    <linearGradient
       inkscape:collect="always"
       xlink:href="#linearGradient23896"
       id="linearGradient23890"
       gradientUnits="userSpaceOnUse"
       gradientTransform="matrix(0.16609055,0,0,0.18431676,51.926735,44.000007)"
       x1="100.10343"
       y1="136.78078"
       x2="149.94318"
       y2="175.93462" />
    <linearGradient
       inkscape:collect="always"
       xlink:href="#linearGradient23910"
       id="linearGradient23904"
       x1="122.22934"
       y1="171.15253"
       x2="121.91473"
       y2="178.54608"
       gradientUnits="userSpaceOnUse" />
    <filter
       inkscape:collect="always"
       style="color-interpolation-filters:sRGB"
       id="filter23912"
       x="-0.0076227887"
       y="-0.018509731"
       width="1.0152456"
       height="1.0370195">
      <feGaussianBlur
         inkscape:collect="always"
         stdDeviation="0.24565236"
         id="feGaussianBlur23914" />
    </filter>
    <filter
       inkscape:collect="always"
       style="color-interpolation-filters:sRGB"
       id="filter23916"
       x="-0.0076495178"
       y="-0.018474993"
       width="1.015299"
       height="1.03695">
      <feGaussianBlur
         inkscape:collect="always"
         stdDeviation="0.25253054"
         id="feGaussianBlur23918" />
    </filter>
    <filter
       inkscape:collect="always"
       style="color-interpolation-filters:sRGB"
       id="filter28103"
       x="-0.17993244"
       y="-0.40929691"
       width="1.3598649"
       height="1.8185938">
      <feGaussianBlur
         inkscape:collect="always"
         stdDeviation="4.8826211"
         id="feGaussianBlur28105" />
    </filter>
    <radialGradient
       inkscape:collect="always"
       xlink:href="#linearGradient28371"
       id="radialGradient28373"
       cx="86.048196"
       cy="140.47723"
       fx="86.048196"
       fy="140.47723"
       r="39.062948"
       gradientTransform="matrix(1,0,0,0.53285952,8.1800848,46.430865)"
       gradientUnits="userSpaceOnUse" />
    <radialGradient
       inkscape:collect="always"
       xlink:href="#linearGradient28544"
       id="radialGradient28377"
       gradientUnits="userSpaceOnUse"
       gradientTransform="matrix(1,0,0,0.53285952,8.1800848,46.430865)"
       cx="86.048196"
       cy="140.47723"
       fx="86.048196"
       fy="140.47723"
       r="39.062948" />
    <filter
       inkscape:collect="always"
       style="color-interpolation-filters:sRGB"
       id="filter28446"
       x="-0.030744832"
       y="-0.077959121"
       width="1.0614897"
       height="1.1559182">
      <feGaussianBlur
         inkscape:collect="always"
         stdDeviation="1.0833648"
         id="feGaussianBlur28448" />
    </filter>
    <filter
       inkscape:collect="always"
       style="color-interpolation-filters:sRGB"
       id="filter28525"
       x="-0.023164109"
       y="-0.02152417"
       width="1.0463282"
       height="1.0430483">
      <feGaussianBlur
         inkscape:collect="always"
         stdDeviation="0.76218875"
         id="feGaussianBlur28527" />
    </filter>
  </defs>
  <g
     inkscape:label="Layer 1"
     inkscape:groupmode="layer"
     id="layer1">
    <g
       id="g36355">
      <rect
         style="fill:#7e25c9;fill-opacity:1;stroke:none;stroke-width:0.154524;stroke-linecap:round;stroke-linejoin:round;paint-order:markers stroke fill"
         id="rect28740"
         width="102.56569"
         height="84.694382"
         x="22.023304"
         y="16.360168"
         rx="0.46435392"
         ry="0.12768959" />
      <g
         id="g36160">
        <ellipse
           style="mix-blend-mode:normal;fill:#000000;fill-opacity:1;stroke:none;stroke-width:0.321759;stroke-linecap:round;stroke-linejoin:round;paint-order:markers stroke fill;filter:url(#filter28525)"
           id="ellipse28517"
           cx="96.115997"
           cy="79.303368"
           rx="39.484638"
           ry="42.492996"
           transform="matrix(0.61742426,0,0,0.62180698,3.3749992,8.4367286)" />
        <ellipse
           style="opacity:0.873518;mix-blend-mode:normal;fill:url(#radialGradient28373);fill-opacity:1;stroke:none;stroke-width:0.264999;stroke-linecap:round;stroke-linejoin:round;paint-order:markers stroke fill;filter:url(#filter28103)"
           id="path27269"
           cx="94.228279"
           cy="121.2855"
           rx="32.56303"
           ry="14.315147"
           transform="matrix(0.61742426,0,0,0.3608387,9.3968479,38.641757)" />
        <ellipse
           style="fill:url(#radialGradient4823);fill-opacity:1;stroke:none;stroke-width:0.198662;stroke-linecap:round;stroke-linejoin:round;paint-order:markers stroke fill"
           id="path188"
           cx="62.719349"
           cy="57.553864"
           rx="24.378773"
           ry="26.236206" />
        <path
           id="ellipse7906"
           style="opacity:0.59922179;fill:url(#linearGradient8607);fill-opacity:1;stroke:none;stroke-width:0.321759;stroke-linecap:round;stroke-linejoin:round;paint-order:markers stroke fill"
           d="M 123.89735,49.110697 A 39.484638,42.492996 0 0 1 125.81196,62.173466 39.484638,42.492996 0 0 1 86.327547,104.66648 39.484638,42.492996 0 0 1 58.548881,92.330282 39.484638,42.492996 0 0 0 96.116097,121.79618 39.484638,42.492996 0 0 0 135.60051,79.30317 39.484638,42.492996 0 0 0 123.89735,49.110697 Z"
           transform="matrix(0.61742426,0,0,0.61742426,3.3749992,8.590042)" />
        <path
           id="path4718"
           style="fill:#047108;fill-opacity:1;stroke:none;stroke-width:0.16336px;stroke-linecap:butt;stroke-linejoin:miter;stroke-opacity:1"
           d="m 62.250387,31.33635 c -1.164956,0.02307 -2.326877,0.135988 -3.476828,0.337888 0,0 -2.062786,2.083384 -2.51581,3.425777 -0.417338,1.236645 -0.0686,3.090756 -0.0686,3.914902 0,0.824144 -0.41215,4.807318 -0.480828,5.082032 -0.06868,0.274715 0.137196,2.747126 0.137196,3.296557 0,0.54943 -0.488556,3.39052 -0.755221,5.082352 -0.173448,1.100424 -0.457542,2.186343 -0.549426,3.296557 -0.149171,1.802393 0.100013,3.619877 0,5.425664 -0.09171,1.655884 -0.758335,3.299624 -0.549426,4.944835 0.373307,2.93989 2.791053,5.369748 3.159041,8.310311 0.174538,1.394719 -0.480828,4.189292 -0.480828,4.189292 0,0 -0.137197,2.129113 -0.137197,2.403824 0,0.158697 0.08114,1.070521 0.158574,1.911823 1.547991,0.425887 3.131137,0.686965 4.726597,0.779468 -0.444399,-0.906608 -0.995777,-2.018916 -1.039188,-2.279383 -0.06868,-0.412075 0.06884,-4.876231 0.137517,-5.150948 0.06868,-0.27471 -0.686861,-3.983417 -0.755541,-4.601527 -0.06868,-0.61811 -1.236447,-5.494257 -1.442484,-6.043688 -0.429542,-1.415476 0.868216,-4.298039 0.343707,-6.730389 -0.247059,-1.145702 0.686786,-3.021923 0.755465,-3.433995 0.06868,-0.412074 1.026826,-3.698878 0.686779,-5.769053 -0.389858,-2.373425 0.07553,-4.93602 -1.56e-4,-7.417175 l 0.41223,-3.640189 c 0,0 1.098693,-2.678371 1.236049,-3.090442 0.137357,-0.412072 0.274792,-3.777223 0.480827,-4.189295 0.0076,-0.0151 0.01197,-0.0362 0.01755,-0.0552 z m 2.013746,0.04395 1.150652,1.934242 c 0,0 0.904513,2.245373 1.00735,3.433754 0.105279,1.216599 -0.531145,2.424862 -0.412069,3.640188 0.103073,1.052003 0.755462,2.541094 0.961497,3.021844 0.206028,0.480751 0.411982,4.464005 0.343306,4.738721 -0.06868,0.274714 -0.549421,4.876237 -0.549421,4.876237 0,0 0.618338,2.815727 0.618338,3.090443 0,0.274716 -0.03556,4.459202 -0.03556,4.459202 0,0 -1.200723,2.421724 -1.390235,3.737315 -0.362077,2.513487 1.132319,5.132007 0.532756,7.599645 -0.145533,0.598975 -0.794933,0.986162 -0.961335,1.57968 -0.574735,2.049959 0,6.387 0,6.387 l -1.768884,3.869596 c 1.285069,-0.05847 2.563824,-0.22628 3.824289,-0.501886 0.129326,-0.857398 0.49954,-3.223479 0.623129,-3.779618 0.137359,-0.61811 1.030259,-4.670123 1.030259,-5.013522 0,-0.343393 -0.430443,-4.470802 -0.06892,-6.661946 0.248816,-1.508048 1.267665,-2.818984 1.517814,-4.326811 0.479609,-2.890867 -0.07533,-8.447425 -0.07533,-8.790819 0,-0.343394 -0.755548,-5.219461 -0.755548,-5.562856 0,-0.343393 0.549353,-4.464249 0.618029,-4.807644 0.06868,-0.343393 -0.286052,-2.789352 -0.343318,-4.189294 -0.06643,-1.624055 0.206053,-4.18945 1.2e-5,-4.876237 -0.178689,-0.595625 -2.007129,-2.509791 -2.229705,-3.303843 -1.228196,-0.378424 -2.600383,-0.440157 -3.637106,-0.553391 z m -9.32858,1.328342 c -1.392326,0.504086 -2.739465,1.142576 -4.024978,1.907676 -0.163475,0.777649 -0.639624,2.591362 -0.696514,2.81892 -0.06868,0.274716 -1.717196,4.052098 -1.717196,4.052098 0,0 -0.205796,6.799067 -0.205796,7.211139 0,0.412072 -1.030254,3.708786 -1.030254,3.708786 0,0 -1.09901,5.562935 -1.236368,6.593115 -0.137359,1.030182 0.412146,6.181039 0.755541,6.867827 0.343393,0.686788 1.442163,2.678533 1.442163,2.678533 0,0 0.480828,4.120697 0.480828,4.395407 0,0.274717 1.511082,6.593116 1.511082,6.867833 0,0.02581 0.01462,0.188024 0.0201,0.26514 0.920122,0.588103 1.875229,1.11037 2.859122,1.563405 l -0.132092,-1.34772 0.137197,-5.288146 c 0,0 -1.373483,-5.425742 -1.716877,-5.906493 C 51.03812,68.615409 50.35126,64.426037 50.35126,64.426037 L 50.007948,61.54139 50.214063,59.5498 c 0,0 -0.274713,-3.159279 -0.274713,-3.502672 0,-0.343394 0.618025,-1.785794 0.618025,-1.785794 0,0 0.836919,-1.317118 1.030254,-2.060189 0.253895,-0.97583 0.137197,-3.021844 0.137197,-3.021844 l 0.686942,-2.747131 0.0686,-3.021844 0.686943,-2.541336 0.0686,-2.060188 0.206115,-2.816049 c 0,0 0.769613,-1.793502 1.493533,-3.284113 z m 16.40972,0.307895 c 0.343818,1.776556 0.914751,4.350103 0.914751,4.350103 0,0 1.958667,2.534011 2.197709,4.051778 0.271741,1.725383 -1.289213,3.43529 -0.961657,5.150951 0.136982,0.717468 0.908651,1.171351 1.167451,1.854393 0.501398,1.323322 0.21106,3.140156 0.686785,4.189456 0.475726,1.0493 1.446539,1.090307 1.717033,1.991748 0.444792,1.482319 -0.618024,4.601524 -0.618024,4.601524 l -0.755542,5.082033 c 0,0 -0.27455,1.922989 -0.411908,2.197705 -0.137359,0.274713 -1.030253,3.09076 -1.030253,3.365475 0,0.274715 0.755382,3.159116 0.618023,3.639868 -0.137358,0.480751 -1.16745,3.365153 -1.16745,3.365153 0,0 -0.618184,1.305124 -0.755542,1.717199 -0.137352,0.412075 -0.686625,2.815733 -0.686625,2.815733 l -0.06605,0.320017 c 1.270048,-0.577391 2.492295,-1.269684 3.653589,-2.06944 l 1.97532,-3.950959 c 0,0 -0.06868,-2.953245 0,-3.502667 0.06868,-0.549427 1.16745,-4.601523 1.16745,-5.150953 0,-0.549429 0.343634,-5.082033 0.343634,-5.082033 0,0 0.618023,-3.365392 0.618023,-3.708786 0,-0.343394 0.409507,-2.705027 0.27471,-4.052101 -0.224501,-2.243568 -1.442315,-5.631531 -1.785714,-6.524355 -0.09861,-0.256404 -0.665083,-3.38149 -0.89274,-5.150947 -0.173243,-1.346512 -0.205954,-3.571188 -0.411989,-4.05194 -0.17441,-0.406971 -1.624628,-2.580863 -2.066889,-3.531706 -1.188764,-0.751251 -2.434597,-1.392633 -3.724099,-1.917249 z m 7.164554,4.549836 1.304648,4.538988 c 0,0 1.373639,5.700294 1.57968,6.043688 0.206034,0.343394 1.854397,5.494262 1.854397,5.494262 0,0 0.137438,4.120693 0.206114,4.670123 0.06868,0.54943 -0.686946,6.662032 -0.686946,6.662032 0,0 -1.373479,3.640024 -1.442161,4.052098 -0.06868,0.412072 -0.686946,3.021846 -0.686946,3.021846 0,0 -0.961336,1.922986 -0.961336,2.197703 0,0.274716 -0.412229,1.85431 -0.412229,2.197703 v 0.3749 c 1.083122,-1.084555 2.072255,-2.272973 2.955165,-3.550529 0.02093,-0.391916 0.959737,-3.074173 0.959737,-3.074173 l 0.755221,-1.922991 1.57968,-7.486172 c 0,0 1.030339,-3.227636 1.030339,-3.63971 0,-0.412072 -1.236454,-4.945152 -1.236454,-5.357223 0,-0.412072 -1.648276,-5.494262 -1.648276,-5.494262 0,0 -0.155937,-1.466344 -0.276625,-2.660346 -1.326079,-2.279536 -2.969952,-4.326091 -4.874008,-6.067937 z M 45.019718,39.52414 c -1.968238,2.242895 -3.55348,4.841799 -4.682885,7.677291 -0.24343,1.960264 -0.493272,4.366509 -0.493272,4.656402 0,0.480751 -0.755699,5.631617 -0.893056,6.043688 -0.137359,0.412072 0.961575,5.700373 1.030254,6.249803 0.06868,0.549431 1.098852,4.189295 1.098852,4.189295 0,0 -0.01781,0.844283 -0.02553,1.206057 1.062679,2.22736 2.416151,4.279537 4.019235,6.094103 -0.189801,-0.625722 -1.182395,-3.609345 -1.246579,-3.866088 -0.06868,-0.274717 -0.343311,-3.708785 -0.343311,-3.708785 L 42.52209,63.601898 c 0,0 -1.098939,-5.425576 -1.030259,-6.043684 0.06868,-0.618108 0.137441,-3.228039 0.137441,-4.120861 0,-0.892825 1.009264,-2.300957 1.236129,-3.365397 0.300769,-1.411193 0.137197,-3.983098 0.137197,-3.983098 l 1.16777,-3.846302 z"
           sodipodi:nodetypes="ccssssaaaaacsccssscsssccsscccsaascscsaacccsssaasssacccccscsscssccccscccsscsccccccccccssazcssscsccccsscsssasscccccscscsscccccsscccccssscccsccssccsccscs" />
        <path
           id="ellipse7898"
           style="opacity:0.79571984;fill:url(#linearGradient7909);fill-opacity:1;stroke:none;stroke-width:0.198662;stroke-linecap:round;stroke-linejoin:round;paint-order:markers stroke fill"
           d="m 78.312967,37.389291 c 3.363079,4.617651 6.427146,13.611775 6.427689,19.478814 -1.098854,11.880006 -11.738803,24.450483 -20.807331,24.725286 -5.705208,-0.0056 -16.035466,-3.949774 -20.41416,-7.885817 4.618114,6.360514 11.699742,10.079198 19.200244,10.082384 13.463975,-8e-5 24.378641,-11.746416 24.378635,-26.236215 -6.18e-4,-7.791941 -3.219658,-15.180396 -8.785077,-20.164452 z"
           sodipodi:nodetypes="ccccccc" />
        <path
           id="path3880"
           style="fill:#0d6210;fill-opacity:1;stroke:none;stroke-width:0.16336px;stroke-linecap:butt;stroke-linejoin:miter;stroke-opacity:1"
           d="m 61.322233,31.373681 c -0.372163,0.02443 -0.743757,0.05805 -1.114486,0.100823 -0.587948,1.529527 -2.168377,5.636616 -2.331073,5.962008 -0.194254,0.388506 -0.110715,7.478778 -0.110715,8.935674 0,1.456897 0.0559,2.941678 -0.163041,4.389347 -0.293604,1.941317 -1.531821,5.299108 -1.531821,5.687615 0,0.388505 -0.546067,7.919852 -0.546067,7.919852 l 1.561118,7.644653 1.456729,2.622392 c 0,0 0.367072,4.70928 -0.215687,5.48629 -0.320641,0.427523 0.167666,2.010389 0.671627,3.356855 0.299541,0.04483 0.599832,0.08365 0.900715,0.116459 l -0.71502,-2.323732 0.299093,-5.816686 c 0,0 -1.717272,-5.667008 -2.10636,-8.589078 -0.415886,-3.123336 -0.617816,-7.118892 -0.229311,-9.449926 0.388507,-2.331034 1.271433,-3.35762 1.459712,-5.666556 0.159795,-1.959622 0.277782,-8.002709 0.277782,-8.002709 0,0 0.602438,-4.853574 0.602438,-5.824836 0,-0.567842 1.123462,-3.841965 1.834367,-6.548445 z m 3.884408,0.08626 2.579804,4.015613 0.357785,7.155452 c 0,0 0.282163,4.239451 0.0043,6.458716 -0.295196,2.358149 0.65631,7.099391 0.65631,7.099391 0,0 -0.258053,5.820645 -0.549427,6.306277 -0.291369,0.485631 -0.684705,2.985359 -0.684705,4.248003 0,1.262642 -1.421799,7.782783 -0.966442,10.757842 0.190784,1.246468 -0.09208,2.379738 0.0049,2.9625 0.06668,0.400104 -0.511202,1.913404 -0.947616,3.116925 0.178892,-0.01945 0.357575,-0.04106 0.536023,-0.06477 0.208689,-0.637577 0.404153,-1.175027 0.565381,-1.304007 0.485635,-0.388508 0.18127,-8.338246 0.861147,-10.329341 0.388217,-1.136931 0.314972,-3.380585 0.509226,-3.76909 0.194254,-0.388506 0.825416,-2.389369 0.825416,-3.166379 0,-0.777012 0.971357,-5.005364 0.87423,-5.782376 -0.09713,-0.777012 -0.570877,-4.050991 -0.279496,-4.633749 0.291381,-0.582758 -0.720126,-3.956699 -0.720126,-3.956699 l 0.296092,-4.784666 c 0.03001,-0.484706 0.09707,-2.865204 -0.19431,-4.03072 -0.291381,-1.165517 1.85e-4,-4.127941 0.09731,-4.904953 0.09713,-0.777012 -1.326659,-3.868487 -1.326659,-4.451246 0,-0.126014 -0.06652,-0.328847 -0.167193,-0.566017 -0.643638,-0.148258 -1.42743,-0.241961 -2.33195,-0.376706 z m -10.995999,1.521499 c -0.306262,0.123795 -0.610178,0.254211 -0.911563,0.391171 -0.448526,0.732907 -0.874869,1.491728 -0.964846,1.875132 -0.205123,0.874055 -1.747188,4.618754 -1.747188,4.618754 0,0 -0.41035,3.399004 -0.615472,3.88459 -0.205122,0.485587 -0.820311,5.438745 -0.820311,5.438745 0,0 7.4e-5,2.816273 -0.512733,3.398976 -0.512805,0.582704 -0.923084,3.49632 -1.128207,3.981904 -0.205122,0.485586 -0.512911,4.078928 -0.615472,4.564513 -0.102563,0.485586 1.025502,4.855676 1.230626,5.72973 0.205122,0.874057 1.333399,3.107896 1.53852,3.690603 0.205124,0.582688 0.615473,3.981898 0.615473,3.981898 0,0 1.129801,4.199677 1.129801,5.07374 0,0.326846 0.17261,0.85354 0.388299,1.384734 0.223465,0.120818 0.448644,0.237931 0.675457,0.35129 L 52.2299,80.679418 51.715251,75.411369 48.53579,65.214122 c 0,0 -0.787592,-8.508231 0.238021,-9.188052 1.025613,-0.67982 1.536784,-6.128022 1.639345,-6.807843 0.10256,-0.67982 0.89178,-4.495943 0.89178,-4.981529 0,-0.485587 0.410315,-3.690308 0.410315,-4.175894 0,-0.485585 1.333221,-4.176241 1.435783,-4.661827 0.0425,-0.201223 0.529324,-1.27425 1.059608,-2.417539 z m 17.845502,0.338845 c 0.252138,0.674125 0.475102,1.307909 0.570167,1.688161 0.291374,1.165517 2.719371,6.507606 2.719371,6.507606 0,0 0.485616,2.913664 0.485616,3.399295 0,0.485631 0.06674,5.216134 0.366009,5.645101 1.597302,2.289552 1.868141,2.902088 1.965268,3.581972 0.115057,1.689767 0.674073,2.864111 -0.09709,6.410252 -0.194248,0.485633 -0.679976,3.205214 -0.777103,4.079351 -0.09713,0.874138 -1.35979,5.050798 -1.35979,5.827815 0,0.77701 -0.582775,4.176437 -0.679902,4.953447 -0.09713,0.777016 -0.679926,3.690604 -0.679926,3.690604 0,0 -0.520859,1.19613 -1.58925,2.167394 -0.05131,0.04662 -0.09793,0.09187 -0.144218,0.137192 0.470286,-0.23209 0.933589,-0.480233 1.389199,-0.744052 0.559287,-0.949068 1.346195,-2.259773 1.412808,-2.72607 0.09713,-0.679883 0.285732,-2.818375 0.485617,-3.49661 0.198977,-0.675165 0.829472,-3.427174 0.69651,-4.725647 0.09713,-1.068389 0.960342,-3.546695 0.960342,-3.546695 l 1.062519,-4.256939 c 0,0 0.485802,-1.74824 0.582929,-2.622377 0.09713,-0.874138 0.097,-3.107881 0.097,-4.370523 0,-1.262644 -1.456954,-4.467856 -1.845462,-5.633373 -0.388508,-1.165517 -0.873915,-3.788008 -0.873915,-4.662146 0,-0.874137 -0.560313,-4.873044 -0.560313,-4.873044 0,0 -0.896635,-1.537473 -1.285143,-2.314485 -0.332088,-0.664172 -0.791983,-2.336068 -1.043972,-3.188076 -0.606737,-0.337242 -1.226372,-0.646899 -1.857268,-0.928153 z m 7.203162,4.962065 c 0.846112,1.430822 1.923955,3.797076 1.923955,3.980158 0,0.388505 1.630612,5.191661 1.630612,5.191661 0,0 0.884799,4.454491 1.176181,5.32863 0.291374,0.874136 1.068539,5.341749 1.068539,5.341749 0,0 -0.0971,0.971436 -0.485611,2.234078 -0.388508,1.262645 -0.777238,3.205156 -0.777238,3.787914 0,0.582759 -0.291307,2.428182 -0.291307,2.816687 0,0.388506 -0.67992,2.525063 -0.67992,2.525063 0,0 -1.748255,2.94914 -2.136763,3.629023 -0.388508,0.679889 -0.426591,1.776971 -0.426591,2.165479 0,0.100208 -0.04445,0.320086 -0.108796,0.587393 0.355661,-0.393077 0.699782,-0.798058 1.031845,-1.214356 l 0.183462,-0.7967 0.776917,-1.554155 c 0,0 0.485672,-1.262515 0.679926,-1.748144 0.194254,-0.485631 1.165598,-3.205341 1.359846,-3.885226 0.194254,-0.679885 0.582608,-4.079219 0.582608,-4.079219 0,0 0.485802,-2.913645 0.582929,-3.884909 0.09713,-0.971265 0.971128,-2.428387 0.09699,-4.079537 -0.874143,-1.651148 -1.307705,-3.399333 -1.404832,-4.079219 -0.09713,-0.679884 -0.343288,-2.719579 -0.828923,-3.982222 -0.485629,-1.262643 -0.519118,-3.250294 -0.519118,-3.250294 L 81.36576,40.655538 c -0.655446,-0.837598 -1.35897,-1.630211 -2.106454,-2.37319 z m -35.187205,2.397119 c -0.513766,0.650512 -0.997722,1.327625 -1.45014,2.02892 l -1.360165,3.106077 c 0,0 -1.348149,9.15518 -1.554793,9.683238 -0.483757,1.236192 0.946575,2.496307 0.914115,6.318401 -0.02104,2.477043 1.461636,5.935089 1.107786,7.348336 -0.295329,1.179519 0.792823,2.163477 1.233497,3.731124 0.348511,0.519976 0.714615,1.026029 1.097576,1.517141 l -0.227173,-0.853175 -0.990052,-3.090444 c 0,0 -1.45111,-7.691678 -1.521291,-8.515785 -0.07018,-0.824106 -0.561574,-6.249593 -0.701939,-7.005024 -0.140364,-0.755431 1.960665,-10.782113 2.101029,-11.331517 0.05922,-0.231799 0.680871,-1.545383 1.35155,-2.937292 z"
           sodipodi:nodetypes="ccsssscccsccccssscsccccscssscccssssssccssscccscscssssscscccccsssssccccsssccsscsccsssccsssscscccccscssscssccccsscssssccccccsssccccsssccc" />
        <path
           id="ellipse7879"
           style="fill:#a4ffa8;fill-opacity:0.443975;stroke:none;stroke-width:0.198662;stroke-linecap:round;stroke-linejoin:round;paint-order:markers stroke fill"
           d="M 62.719409,31.317525 A 24.378773,26.236207 0 0 0 38.340457,57.553743 24.378773,26.236207 0 0 0 42.711937,72.530554 24.378773,26.236207 0 0 1 38.729075,58.185168 24.378773,26.236207 0 0 1 63.107709,31.948951 24.378773,26.236207 0 0 1 83.231961,43.379695 24.378773,26.236207 0 0 0 62.719409,31.317525 Z" />
        <path
           style="opacity:0.409091;mix-blend-mode:normal;fill:url(#linearGradient14572);fill-opacity:1;stroke:none;stroke-width:0.264583px;stroke-linecap:butt;stroke-linejoin:miter;stroke-opacity:1;filter:url(#filter16123)"
           d="m 70.710538,48.372615 c -8.894305,9.110671 -11.489877,16.01955 -10.145491,19.475132 1.29607,3.331395 7.354021,8.185113 12.337602,8.495662 13.503747,0.84148 29.414041,-7.137842 36.029821,-18.691858 3.97083,-7.229429 6.04154,-10.838608 3.29888,-15.262277 -3.20492,-5.169224 -9.39969,-5.258389 -17.688448,-4.477727 -12.483443,1.175731 -16.941531,3.402605 -23.832364,10.461068 z"
           id="path14564"
           sodipodi:nodetypes="ssacass"
           transform="matrix(0.61742426,0,0,0.61742426,3.3749992,8.590042)" />
      </g>
      <g
         id="g36281">
        <ellipse
           style="opacity:0.873518;mix-blend-mode:normal;fill:url(#radialGradient28377);fill-opacity:1;stroke:none;stroke-width:0.264999;stroke-linecap:round;stroke-linejoin:round;paint-order:markers stroke fill;filter:url(#filter28103)"
           id="ellipse28375"
           cx="94.228279"
           cy="121.2855"
           rx="32.56303"
           ry="14.315147"
           transform="matrix(0.62839126,0,0,0.33099198,29.439918,48.86634)" />
        <path
           id="path28444"
           style="fill:#000000;fill-opacity:1;stroke:none;stroke-width:0.309105;stroke-linecap:round;stroke-linejoin:round;paint-order:markers stroke fill;filter:url(#filter28446)"
           d="m 91.862462,101.08314 a 42.474139,36.456237 2.9405473 0 0 37.969768,33.10714 42.474139,36.456237 2.9405473 0 0 46.49277,-32.01166 42.474139,36.456237 2.9405473 0 0 0.10698,-1.09548 z"
           transform="matrix(0.61742426,0,0,0.61742426,3.3749992,8.590042)" />
        <path
           id="ellipse17651"
           style="fill:#09380b;fill-opacity:1;stroke:none;stroke-width:0.190849;stroke-linecap:round;stroke-linejoin:round;paint-order:markers stroke fill"
           d="m 60.093112,70.568867 a 26.224564,22.508965 2.9405473 0 0 23.443456,20.441152 26.224564,22.508965 2.9405473 0 0 28.705762,-19.764776 26.224564,22.508965 2.9405473 0 0 0.0661,-0.676376 z" />
        <path
           id="path34401"
           style="fill:#18901d;fill-opacity:1;stroke:none;stroke-width:0.187824;stroke-linecap:round;stroke-linejoin:round;paint-order:markers stroke fill"
           d="m 60.426815,70.568867 a 25.888958,22.083753 2.8247311 0 0 23.143807,20.054687 25.888958,22.083753 2.8247311 0 0 28.338848,-19.391099 25.888958,22.083753 2.8247311 0 0 0.0652,-0.663588 z" />
        <path
           id="path18745"
           style="mix-blend-mode:normal;fill:#79b07b;fill-opacity:1;stroke:none;stroke-width:0.296725;stroke-linecap:round;stroke-linejoin:round;paint-order:markers stroke fill;filter:url(#filter23916)"
           d="m 81.318107,144.15613 a 39.800044,35.851872 4.3180027 0 0 35.572563,32.56443 39.800044,35.851872 4.3180027 0 0 43.55748,-31.48691 39.800044,35.851872 4.3180027 0 0 0.10022,-1.07752 z"
           transform="matrix(0.61742426,0,0,0.56456136,11.533633,-10.642429)" />
        <path
           id="path20199"
           style="mix-blend-mode:normal;fill:url(#linearGradient23904);fill-opacity:1;stroke:none;stroke-width:0.288877;stroke-linecap:round;stroke-linejoin:round;paint-order:markers stroke fill;filter:url(#filter23912)"
           d="m 82.261962,144.16566 a 38.850656,34.810936 4.1064612 0 0 34.725018,31.61802 38.850656,34.810936 4.1064612 0 0 42.5197,-30.57181 38.850656,34.810936 4.1064612 0 0 0.0978,-1.04621 z"
           transform="matrix(0.61742426,0,0,0.56981595,11.533633,-11.575734)" />
        <path
           id="path20970"
           style="fill:url(#linearGradient23156);fill-opacity:1;stroke:none;stroke-width:0.150175;stroke-linecap:round;stroke-linejoin:round;paint-order:markers stroke fill"
           d="m 63.336775,70.572158 a 21.499932,16.999921 1.9010247 0 0 19.222571,15.436039 21.499932,16.999921 1.9010247 0 0 23.537424,-14.925275 21.499932,16.999921 1.9010247 0 0 0.0541,-0.510764 z" />
        <path
           id="path23884"
           style="fill:url(#linearGradient23886);fill-opacity:1;stroke:none;stroke-width:0.0763272;stroke-linecap:round;stroke-linejoin:round;paint-order:markers stroke fill"
           d="m 64.502294,70.572158 a 10.575635,8.9278319 2.6491852 0 0 9.454461,8.107349 10.575635,8.9278319 2.6491852 0 0 11.576692,-7.839084 10.575635,8.9278319 2.6491852 0 0 0.02667,-0.268265 z" />
        <path
           id="path23888"
           style="fill:url(#linearGradient23890);fill-opacity:1;stroke:none;stroke-width:0.0448976;stroke-linecap:round;stroke-linejoin:round;paint-order:markers stroke fill"
           d="m 65.86207,70.572158 a 5.9441914,5.4960068 5.7763593 0 0 5.311744,4.993055 5.9441914,5.4960068 5.7763593 0 0 6.504058,-4.827844 5.9441914,5.4960068 5.7763593 0 0 0.01494,-0.165211 z" />
        <g
           id="g24773"
           transform="matrix(0.18314813,-0.07386509,0.07386509,0.18314813,75.790505,65.615457)"
           inkscape:transform-center-x="0.059565383"
           inkscape:transform-center-y="-0.13906935">
          <path
             style="fill:#000000;fill-opacity:1;stroke:none;stroke-width:0.285618px;stroke-linecap:butt;stroke-linejoin:miter;stroke-opacity:1"
             d="m 50.733478,119.6344 c -0.232895,1.06168 -1.113294,1.59709 -1.437829,2.39618 -0.470878,1.3118 -0.330189,2.97451 0.583204,4.19994 0.347097,0.45172 1.096178,1.22388 1.691357,1.26085 0.868461,0.1771 1.697361,-0.11456 2.436359,-0.70497 1.218473,-1.69423 1.109469,-3.30785 0.429076,-4.99476 -0.34777,-1.02363 -0.729077,-1.2519 -1.225277,-2.06348 -0.142353,-0.6471 -0.448831,-0.88441 -1.013588,-1.03561 -0.553845,0.0567 -1.094192,0.11874 -1.463302,0.94185 z"
             id="path24708"
             sodipodi:nodetypes="ccccccccc" />
          <path
             style="fill:#ffffff;fill-opacity:1;stroke:none;stroke-width:0.249753px;stroke-linecap:butt;stroke-linejoin:miter;stroke-opacity:1"
             d="m 50.980511,120.53827 c -0.913732,0.88281 -1.548875,2.07633 -1.503569,3.27743 0.04477,1.1869 0.665829,2.33478 1.725554,3.11756 -0.554256,-0.91848 -1.11185,-1.96566 -1.160505,-3.05341 -0.0517,-1.1558 -0.193801,-1.49115 0.93852,-3.34158 z"
             id="path24769"
             sodipodi:nodetypes="cacac" />
        </g>
        <g
           id="g24779"
           transform="matrix(0.19748238,0,0,0.19748238,76.245405,61.570513)">
          <path
             style="fill:#000000;fill-opacity:1;stroke:none;stroke-width:0.285618px;stroke-linecap:butt;stroke-linejoin:miter;stroke-opacity:1"
             d="m 50.733478,119.6344 c -0.232895,1.06168 -1.113294,1.59709 -1.437829,2.39618 -0.470878,1.3118 -0.330189,2.97451 0.583204,4.19994 0.347097,0.45172 1.096178,1.22388 1.691357,1.26085 0.868461,0.1771 1.697361,-0.11456 2.436359,-0.70497 1.218473,-1.69423 1.109469,-3.30785 0.429076,-4.99476 -0.34777,-1.02363 -0.729077,-1.2519 -1.225277,-2.06348 -0.142353,-0.6471 -0.448831,-0.88441 -1.013588,-1.03561 -0.553845,0.0567 -1.094192,0.11874 -1.463302,0.94185 z"
             id="path24775"
             sodipodi:nodetypes="ccccccccc" />
          <path
             style="fill:#ffffff;fill-opacity:1;stroke:none;stroke-width:0.249753px;stroke-linecap:butt;stroke-linejoin:miter;stroke-opacity:1"
             d="m 50.980511,120.53827 c -0.913732,0.88281 -1.548875,2.07633 -1.503569,3.27743 0.04477,1.1869 0.665829,2.33478 1.725554,3.11756 -0.554256,-0.91848 -1.11185,-1.96566 -1.160505,-3.05341 -0.0517,-1.1558 -0.193801,-1.49115 0.93852,-3.34158 z"
             id="path24777"
             sodipodi:nodetypes="cacac" />
        </g>
        <g
           id="g24785"
           transform="matrix(0.18734556,0.06245746,-0.06245746,0.18734556,77.344722,58.523382)">
          <path
             style="fill:#000000;fill-opacity:1;stroke:none;stroke-width:0.285618px;stroke-linecap:butt;stroke-linejoin:miter;stroke-opacity:1"
             d="m 50.733478,119.6344 c -0.232895,1.06168 -1.113294,1.59709 -1.437829,2.39618 -0.470878,1.3118 -0.330189,2.97451 0.583204,4.19994 0.347097,0.45172 1.096178,1.22388 1.691357,1.26085 0.868461,0.1771 1.697361,-0.11456 2.436359,-0.70497 1.218473,-1.69423 1.109469,-3.30785 0.429076,-4.99476 -0.34777,-1.02363 -0.729077,-1.2519 -1.225277,-2.06348 -0.142353,-0.6471 -0.448831,-0.88441 -1.013588,-1.03561 -0.553845,0.0567 -1.094192,0.11874 -1.463302,0.94185 z"
             id="path24781"
             sodipodi:nodetypes="ccccccccc" />
          <path
             style="fill:#ffffff;fill-opacity:1;stroke:none;stroke-width:0.249753px;stroke-linecap:butt;stroke-linejoin:miter;stroke-opacity:1"
             d="m 50.980511,120.53827 c -0.913732,0.88281 -1.548875,2.07633 -1.503569,3.27743 0.04477,1.1869 0.665829,2.33478 1.725554,3.11756 -0.554256,-0.91848 -1.11185,-1.96566 -1.160505,-3.05341 -0.0517,-1.1558 -0.193801,-1.49115 0.93852,-3.34158 z"
             id="path24783"
             sodipodi:nodetypes="cacac" />
        </g>
        <g
           id="g25517"
           transform="matrix(0.15630996,0.1206917,-0.1206917,0.15630996,79.423275,55.896439)"
           inkscape:transform-center-x="0.075153545"
           inkscape:transform-center-y="-0.14924398">
          <path
             style="fill:#000000;fill-opacity:1;stroke:none;stroke-width:0.285618px;stroke-linecap:butt;stroke-linejoin:miter;stroke-opacity:1"
             d="m 50.733478,119.6344 c -0.232895,1.06168 -1.113294,1.59709 -1.437829,2.39618 -0.470878,1.3118 -0.330189,2.97451 0.583204,4.19994 0.347097,0.45172 1.096178,1.22388 1.691357,1.26085 0.868461,0.1771 1.697361,-0.11456 2.436359,-0.70497 1.218473,-1.69423 1.109469,-3.30785 0.429076,-4.99476 -0.34777,-1.02363 -0.729077,-1.2519 -1.225277,-2.06348 -0.142353,-0.6471 -0.448831,-0.88441 -1.013588,-1.03561 -0.553845,0.0567 -1.094192,0.11874 -1.463302,0.94185 z"
             id="path25513"
             sodipodi:nodetypes="ccccccccc" />
          <path
             style="fill:#ffffff;fill-opacity:1;stroke:none;stroke-width:0.249753px;stroke-linecap:butt;stroke-linejoin:miter;stroke-opacity:1"
             d="m 50.980511,120.53827 c -0.913732,0.88281 -1.548875,2.07633 -1.503569,3.27743 0.04477,1.1869 0.665829,2.33478 1.725554,3.11756 -0.554256,-0.91848 -1.11185,-1.96566 -1.160505,-3.05341 -0.0517,-1.1558 -0.193801,-1.49115 0.93852,-3.34158 z"
             id="path25515"
             sodipodi:nodetypes="cacac" />
        </g>
        <g
           id="g25523"
           transform="matrix(0.13070263,0.14804091,-0.14804091,0.13070263,79.035779,54.14301)"
           inkscape:transform-center-x="0.0036885211"
           inkscape:transform-center-y="-0.11548408">
          <path
             style="fill:#000000;fill-opacity:1;stroke:none;stroke-width:0.285618px;stroke-linecap:butt;stroke-linejoin:miter;stroke-opacity:1"
             d="m 50.733478,119.6344 c -0.232895,1.06168 -1.113294,1.59709 -1.437829,2.39618 -0.470878,1.3118 -0.330189,2.97451 0.583204,4.19994 0.347097,0.45172 1.096178,1.22388 1.691357,1.26085 0.868461,0.1771 1.697361,-0.11456 2.436359,-0.70497 1.218473,-1.69423 1.109469,-3.30785 0.429076,-4.99476 -0.34777,-1.02363 -0.729077,-1.2519 -1.225277,-2.06348 -0.142353,-0.6471 -0.448831,-0.88441 -1.013588,-1.03561 -0.553845,0.0567 -1.094192,0.11874 -1.463302,0.94185 z"
             id="path25519"
             sodipodi:nodetypes="ccccccccc" />
          <path
             style="fill:#ffffff;fill-opacity:1;stroke:none;stroke-width:0.249753px;stroke-linecap:butt;stroke-linejoin:miter;stroke-opacity:1"
             d="m 50.980511,120.53827 c -0.913732,0.88281 -1.548875,2.07633 -1.503569,3.27743 0.04477,1.1869 0.665829,2.33478 1.725554,3.11756 -0.554256,-0.91848 -1.11185,-1.96566 -1.160505,-3.05341 -0.0517,-1.1558 -0.193801,-1.49115 0.93852,-3.34158 z"
             id="path25521"
             sodipodi:nodetypes="cacac" />
        </g>
        <g
           id="g25529"
           transform="matrix(0.19185606,0.04680325,-0.04680325,0.19185606,78.607367,54.677539)">
          <path
             style="fill:#000000;fill-opacity:1;stroke:none;stroke-width:0.285618px;stroke-linecap:butt;stroke-linejoin:miter;stroke-opacity:1"
             d="m 50.733478,119.6344 c -0.232895,1.06168 -1.113294,1.59709 -1.437829,2.39618 -0.470878,1.3118 -0.330189,2.97451 0.583204,4.19994 0.347097,0.45172 1.096178,1.22388 1.691357,1.26085 0.868461,0.1771 1.697361,-0.11456 2.436359,-0.70497 1.218473,-1.69423 1.109469,-3.30785 0.429076,-4.99476 -0.34777,-1.02363 -0.729077,-1.2519 -1.225277,-2.06348 -0.142353,-0.6471 -0.448831,-0.88441 -1.013588,-1.03561 -0.553845,0.0567 -1.094192,0.11874 -1.463302,0.94185 z"
             id="path25525"
             sodipodi:nodetypes="ccccccccc" />
          <path
             style="fill:#ffffff;fill-opacity:1;stroke:none;stroke-width:0.249753px;stroke-linecap:butt;stroke-linejoin:miter;stroke-opacity:1"
             d="m 50.980511,120.53827 c -0.913732,0.88281 -1.548875,2.07633 -1.503569,3.27743 0.04477,1.1869 0.665829,2.33478 1.725554,3.11756 -0.554256,-0.91848 -1.11185,-1.96566 -1.160505,-3.05341 -0.0517,-1.1558 -0.193801,-1.49115 0.93852,-3.34158 z"
             id="path25527"
             sodipodi:nodetypes="cacac" />
        </g>
        <g
           id="g25535"
           transform="matrix(0.13243311,0.08299208,-0.08299208,0.13243311,80.656666,58.814843)"
           inkscape:transform-center-x="-0.031061547"
           inkscape:transform-center-y="-0.2225378">
          <path
             style="fill:#000000;fill-opacity:1;stroke:none;stroke-width:0.285618px;stroke-linecap:butt;stroke-linejoin:miter;stroke-opacity:1"
             d="m 50.733478,119.6344 c -0.232895,1.06168 -1.113294,1.59709 -1.437829,2.39618 -0.470878,1.3118 -0.330189,2.97451 0.583204,4.19994 0.347097,0.45172 1.096178,1.22388 1.691357,1.26085 0.868461,0.1771 1.697361,-0.11456 2.436359,-0.70497 1.218473,-1.69423 1.109469,-3.30785 0.429076,-4.99476 -0.34777,-1.02363 -0.729077,-1.2519 -1.225277,-2.06348 -0.142353,-0.6471 -0.448831,-0.88441 -1.013588,-1.03561 -0.553845,0.0567 -1.094192,0.11874 -1.463302,0.94185 z"
             id="path25531"
             sodipodi:nodetypes="ccccccccc" />
          <path
             style="fill:#ffffff;fill-opacity:1;stroke:none;stroke-width:0.249753px;stroke-linecap:butt;stroke-linejoin:miter;stroke-opacity:1"
             d="m 50.980511,120.53827 c -0.913732,0.88281 -1.548875,2.07633 -1.503569,3.27743 0.04477,1.1869 0.665829,2.33478 1.725554,3.11756 -0.554256,-0.91848 -1.11185,-1.96566 -1.160505,-3.05341 -0.0517,-1.1558 -0.193801,-1.49115 0.93852,-3.34158 z"
             id="path25533"
             sodipodi:nodetypes="cacac" />
        </g>
        <g
           id="g25541"
           transform="matrix(0.13355444,0.12496829,-0.12496829,0.13355444,82.747586,52.616299)">
          <path
             style="fill:#000000;fill-opacity:1;stroke:none;stroke-width:0.285618px;stroke-linecap:butt;stroke-linejoin:miter;stroke-opacity:1"
             d="m 50.733478,119.6344 c -0.232895,1.06168 -1.113294,1.59709 -1.437829,2.39618 -0.470878,1.3118 -0.330189,2.97451 0.583204,4.19994 0.347097,0.45172 1.096178,1.22388 1.691357,1.26085 0.868461,0.1771 1.697361,-0.11456 2.436359,-0.70497 1.218473,-1.69423 1.109469,-3.30785 0.429076,-4.99476 -0.34777,-1.02363 -0.729077,-1.2519 -1.225277,-2.06348 -0.142353,-0.6471 -0.448831,-0.88441 -1.013588,-1.03561 -0.553845,0.0567 -1.094192,0.11874 -1.463302,0.94185 z"
             id="path25537"
             sodipodi:nodetypes="ccccccccc" />
          <path
             style="fill:#ffffff;fill-opacity:1;stroke:none;stroke-width:0.249753px;stroke-linecap:butt;stroke-linejoin:miter;stroke-opacity:1"
             d="m 50.980511,120.53827 c -0.913732,0.88281 -1.548875,2.07633 -1.503569,3.27743 0.04477,1.1869 0.665829,2.33478 1.725554,3.11756 -0.554256,-0.91848 -1.11185,-1.96566 -1.160505,-3.05341 -0.0517,-1.1558 -0.193801,-1.49115 0.93852,-3.34158 z"
             id="path25539"
             sodipodi:nodetypes="cacac" />
        </g>
        <g
           id="g25547"
           transform="matrix(0.05895187,0.16030105,-0.16030105,0.05895187,81.739369,56.594444)"
           inkscape:transform-center-x="-0.079175142"
           inkscape:transform-center-y="-0.099675482">
          <path
             style="fill:#000000;fill-opacity:1;stroke:none;stroke-width:0.285618px;stroke-linecap:butt;stroke-linejoin:miter;stroke-opacity:1"
             d="m 50.733478,119.6344 c -0.232895,1.06168 -1.113294,1.59709 -1.437829,2.39618 -0.470878,1.3118 -0.330189,2.97451 0.583204,4.19994 0.347097,0.45172 1.096178,1.22388 1.691357,1.26085 0.868461,0.1771 1.697361,-0.11456 2.436359,-0.70497 1.218473,-1.69423 1.109469,-3.30785 0.429076,-4.99476 -0.34777,-1.02363 -0.729077,-1.2519 -1.225277,-2.06348 -0.142353,-0.6471 -0.448831,-0.88441 -1.013588,-1.03561 -0.553845,0.0567 -1.094192,0.11874 -1.463302,0.94185 z"
             id="path25543"
             sodipodi:nodetypes="ccccccccc" />
          <path
             style="fill:#ffffff;fill-opacity:1;stroke:none;stroke-width:0.249753px;stroke-linecap:butt;stroke-linejoin:miter;stroke-opacity:1"
             d="m 50.980511,120.53827 c -0.913732,0.88281 -1.548875,2.07633 -1.503569,3.27743 0.04477,1.1869 0.665829,2.33478 1.725554,3.11756 -0.554256,-0.91848 -1.11185,-1.96566 -1.160505,-3.05341 -0.0517,-1.1558 -0.193801,-1.49115 0.93852,-3.34158 z"
             id="path25545"
             sodipodi:nodetypes="cacac" />
        </g>
        <g
           id="g25553"
           transform="matrix(0.06505491,0.14210585,-0.14210585,0.06505491,83.887308,58.150347)"
           inkscape:transform-center-x="-0.21414431"
           inkscape:transform-center-y="-0.092809323">
          <path
             style="fill:#000000;fill-opacity:1;stroke:none;stroke-width:0.285618px;stroke-linecap:butt;stroke-linejoin:miter;stroke-opacity:1"
             d="m 50.733478,119.6344 c -0.232895,1.06168 -1.113294,1.59709 -1.437829,2.39618 -0.470878,1.3118 -0.330189,2.97451 0.583204,4.19994 0.347097,0.45172 1.096178,1.22388 1.691357,1.26085 0.868461,0.1771 1.697361,-0.11456 2.436359,-0.70497 1.218473,-1.69423 1.109469,-3.30785 0.429076,-4.99476 -0.34777,-1.02363 -0.729077,-1.2519 -1.225277,-2.06348 -0.142353,-0.6471 -0.448831,-0.88441 -1.013588,-1.03561 -0.553845,0.0567 -1.094192,0.11874 -1.463302,0.94185 z"
             id="path25549"
             sodipodi:nodetypes="ccccccccc" />
          <path
             style="fill:#ffffff;fill-opacity:1;stroke:none;stroke-width:0.249753px;stroke-linecap:butt;stroke-linejoin:miter;stroke-opacity:1"
             d="m 50.980511,120.53827 c -0.913732,0.88281 -1.548875,2.07633 -1.503569,3.27743 0.04477,1.1869 0.665829,2.33478 1.725554,3.11756 -0.554256,-0.91848 -1.11185,-1.96566 -1.160505,-3.05341 -0.0517,-1.1558 -0.193801,-1.49115 0.93852,-3.34158 z"
             id="path25551"
             sodipodi:nodetypes="cacac" />
        </g>
        <g
           id="g26285"
           transform="matrix(0.16620806,-0.06703302,0.06703302,0.16620806,72.084669,62.86974)"
           inkscape:transform-center-x="0.054055745"
           inkscape:transform-center-y="-0.12620457">
          <path
             style="fill:#000000;fill-opacity:1;stroke:none;stroke-width:0.285618px;stroke-linecap:butt;stroke-linejoin:miter;stroke-opacity:1"
             d="m 50.733478,119.6344 c -0.232895,1.06168 -1.113294,1.59709 -1.437829,2.39618 -0.470878,1.3118 -0.330189,2.97451 0.583204,4.19994 0.347097,0.45172 1.096178,1.22388 1.691357,1.26085 0.868461,0.1771 1.697361,-0.11456 2.436359,-0.70497 1.218473,-1.69423 1.109469,-3.30785 0.429076,-4.99476 -0.34777,-1.02363 -0.729077,-1.2519 -1.225277,-2.06348 -0.142353,-0.6471 -0.448831,-0.88441 -1.013588,-1.03561 -0.553845,0.0567 -1.094192,0.11874 -1.463302,0.94185 z"
             id="path26281"
             sodipodi:nodetypes="ccccccccc" />
          <path
             style="fill:#ffffff;fill-opacity:1;stroke:none;stroke-width:0.249753px;stroke-linecap:butt;stroke-linejoin:miter;stroke-opacity:1"
             d="m 50.980511,120.53827 c -0.913732,0.88281 -1.548875,2.07633 -1.503569,3.27743 0.04477,1.1869 0.665829,2.33478 1.725554,3.11756 -0.554256,-0.91848 -1.11185,-1.96566 -1.160505,-3.05341 -0.0517,-1.1558 -0.193801,-1.49115 0.93852,-3.34158 z"
             id="path26283"
             sodipodi:nodetypes="cacac" />
        </g>
        <g
           id="g26291"
           transform="matrix(0.12835824,-0.09127366,0.09127366,0.12835824,73.629829,65.114979)"
           inkscape:transform-center-x="0.048061335"
           inkscape:transform-center-y="-0.073576202">
          <path
             style="fill:#000000;fill-opacity:1;stroke:none;stroke-width:0.285618px;stroke-linecap:butt;stroke-linejoin:miter;stroke-opacity:1"
             d="m 50.733478,119.6344 c -0.232895,1.06168 -1.113294,1.59709 -1.437829,2.39618 -0.470878,1.3118 -0.330189,2.97451 0.583204,4.19994 0.347097,0.45172 1.096178,1.22388 1.691357,1.26085 0.868461,0.1771 1.697361,-0.11456 2.436359,-0.70497 1.218473,-1.69423 1.109469,-3.30785 0.429076,-4.99476 -0.34777,-1.02363 -0.729077,-1.2519 -1.225277,-2.06348 -0.142353,-0.6471 -0.448831,-0.88441 -1.013588,-1.03561 -0.553845,0.0567 -1.094192,0.11874 -1.463302,0.94185 z"
             id="path26287"
             sodipodi:nodetypes="ccccccccc" />
          <path
             style="fill:#ffffff;fill-opacity:1;stroke:none;stroke-width:0.249753px;stroke-linecap:butt;stroke-linejoin:miter;stroke-opacity:1"
             d="m 50.980511,120.53827 c -0.913732,0.88281 -1.548875,2.07633 -1.503569,3.27743 0.04477,1.1869 0.665829,2.33478 1.725554,3.11756 -0.554256,-0.91848 -1.11185,-1.96566 -1.160505,-3.05341 -0.0517,-1.1558 -0.193801,-1.49115 0.93852,-3.34158 z"
             id="path26289"
             sodipodi:nodetypes="cacac" />
        </g>
        <g
           id="g26297"
           transform="matrix(0.14802908,-0.10068617,0.10068617,0.14802908,76.554524,66.397418)"
           inkscape:transform-center-x="0.050188287"
           inkscape:transform-center-y="-0.08795942">
          <path
             style="fill:#000000;fill-opacity:1;stroke:none;stroke-width:0.285618px;stroke-linecap:butt;stroke-linejoin:miter;stroke-opacity:1"
             d="m 50.733478,119.6344 c -0.232895,1.06168 -1.113294,1.59709 -1.437829,2.39618 -0.470878,1.3118 -0.330189,2.97451 0.583204,4.19994 0.347097,0.45172 1.096178,1.22388 1.691357,1.26085 0.868461,0.1771 1.697361,-0.11456 2.436359,-0.70497 1.218473,-1.69423 1.109469,-3.30785 0.429076,-4.99476 -0.34777,-1.02363 -0.729077,-1.2519 -1.225277,-2.06348 -0.142353,-0.6471 -0.448831,-0.88441 -1.013588,-1.03561 -0.553845,0.0567 -1.094192,0.11874 -1.463302,0.94185 z"
             id="path26293"
             sodipodi:nodetypes="ccccccccc" />
          <path
             style="fill:#ffffff;fill-opacity:1;stroke:none;stroke-width:0.249753px;stroke-linecap:butt;stroke-linejoin:miter;stroke-opacity:1"
             d="m 50.980511,120.53827 c -0.913732,0.88281 -1.548875,2.07633 -1.503569,3.27743 0.04477,1.1869 0.665829,2.33478 1.725554,3.11756 -0.554256,-0.91848 -1.11185,-1.96566 -1.160505,-3.05341 -0.0517,-1.1558 -0.193801,-1.49115 0.93852,-3.34158 z"
             id="path26295"
             sodipodi:nodetypes="cacac" />
        </g>
        <g
           id="g26303"
           transform="matrix(0.12735398,-0.14008936,0.14008936,0.12735398,78.653748,68.789814)"
           inkscape:transform-center-x="0.10695574"
           inkscape:transform-center-y="-0.028547751">
          <path
             style="fill:#000000;fill-opacity:1;stroke:none;stroke-width:0.285618px;stroke-linecap:butt;stroke-linejoin:miter;stroke-opacity:1"
             d="m 50.733478,119.6344 c -0.232895,1.06168 -1.113294,1.59709 -1.437829,2.39618 -0.470878,1.3118 -0.330189,2.97451 0.583204,4.19994 0.347097,0.45172 1.096178,1.22388 1.691357,1.26085 0.868461,0.1771 1.697361,-0.11456 2.436359,-0.70497 1.218473,-1.69423 1.109469,-3.30785 0.429076,-4.99476 -0.34777,-1.02363 -0.729077,-1.2519 -1.225277,-2.06348 -0.142353,-0.6471 -0.448831,-0.88441 -1.013588,-1.03561 -0.553845,0.0567 -1.094192,0.11874 -1.463302,0.94185 z"
             id="path26299"
             sodipodi:nodetypes="ccccccccc" />
          <path
             style="fill:#ffffff;fill-opacity:1;stroke:none;stroke-width:0.249753px;stroke-linecap:butt;stroke-linejoin:miter;stroke-opacity:1"
             d="m 50.980511,120.53827 c -0.913732,0.88281 -1.548875,2.07633 -1.503569,3.27743 0.04477,1.1869 0.665829,2.33478 1.725554,3.11756 -0.554256,-0.91848 -1.11185,-1.96566 -1.160505,-3.05341 -0.0517,-1.1558 -0.193801,-1.49115 0.93852,-3.34158 z"
             id="path26301"
             sodipodi:nodetypes="cacac" />
        </g>
        <g
           id="g26309"
           transform="matrix(0.09502309,-0.1045254,0.1045254,0.09502309,79.494581,67.975987)"
           inkscape:transform-center-x="0.079803551"
           inkscape:transform-center-y="-0.02129852">
          <path
             style="fill:#000000;fill-opacity:1;stroke:none;stroke-width:0.285618px;stroke-linecap:butt;stroke-linejoin:miter;stroke-opacity:1"
             d="m 50.733478,119.6344 c -0.232895,1.06168 -1.113294,1.59709 -1.437829,2.39618 -0.470878,1.3118 -0.330189,2.97451 0.583204,4.19994 0.347097,0.45172 1.096178,1.22388 1.691357,1.26085 0.868461,0.1771 1.697361,-0.11456 2.436359,-0.70497 1.218473,-1.69423 1.109469,-3.30785 0.429076,-4.99476 -0.34777,-1.02363 -0.729077,-1.2519 -1.225277,-2.06348 -0.142353,-0.6471 -0.448831,-0.88441 -1.013588,-1.03561 -0.553845,0.0567 -1.094192,0.11874 -1.463302,0.94185 z"
             id="path26305"
             sodipodi:nodetypes="ccccccccc" />
          <path
             style="fill:#ffffff;fill-opacity:1;stroke:none;stroke-width:0.249753px;stroke-linecap:butt;stroke-linejoin:miter;stroke-opacity:1"
             d="m 50.980511,120.53827 c -0.913732,0.88281 -1.548875,2.07633 -1.503569,3.27743 0.04477,1.1869 0.665829,2.33478 1.725554,3.11756 -0.554256,-0.91848 -1.11185,-1.96566 -1.160505,-3.05341 -0.0517,-1.1558 -0.193801,-1.49115 0.93852,-3.34158 z"
             id="path26307"
             sodipodi:nodetypes="cacac" />
        </g>
        <g
           id="g26315"
           transform="matrix(0.05081968,-0.13180405,0.13180405,0.05081968,82.726069,72.197904)"
           inkscape:transform-center-x="0.12767394"
           inkscape:transform-center-y="0.054777903">
          <path
             style="fill:#000000;fill-opacity:1;stroke:none;stroke-width:0.285618px;stroke-linecap:butt;stroke-linejoin:miter;stroke-opacity:1"
             d="m 50.733478,119.6344 c -0.232895,1.06168 -1.113294,1.59709 -1.437829,2.39618 -0.470878,1.3118 -0.330189,2.97451 0.583204,4.19994 0.347097,0.45172 1.096178,1.22388 1.691357,1.26085 0.868461,0.1771 1.697361,-0.11456 2.436359,-0.70497 1.218473,-1.69423 1.109469,-3.30785 0.429076,-4.99476 -0.34777,-1.02363 -0.729077,-1.2519 -1.225277,-2.06348 -0.142353,-0.6471 -0.448831,-0.88441 -1.013588,-1.03561 -0.553845,0.0567 -1.094192,0.11874 -1.463302,0.94185 z"
             id="path26311"
             sodipodi:nodetypes="ccccccccc" />
          <path
             style="fill:#ffffff;fill-opacity:1;stroke:none;stroke-width:0.249753px;stroke-linecap:butt;stroke-linejoin:miter;stroke-opacity:1"
             d="m 50.980511,120.53827 c -0.913732,0.88281 -1.548875,2.07633 -1.503569,3.27743 0.04477,1.1869 0.665829,2.33478 1.725554,3.11756 -0.554256,-0.91848 -1.11185,-1.96566 -1.160505,-3.05341 -0.0517,-1.1558 -0.193801,-1.49115 0.93852,-3.34158 z"
             id="path26313"
             sodipodi:nodetypes="cacac" />
        </g>
        <g
           id="g26321"
           transform="matrix(0.13749321,0.07430903,-0.07430903,0.13749321,82.404681,55.274545)"
           inkscape:transform-center-x="-0.012230269"
           inkscape:transform-center-y="-0.23502477">
          <path
             style="fill:#000000;fill-opacity:1;stroke:none;stroke-width:0.285618px;stroke-linecap:butt;stroke-linejoin:miter;stroke-opacity:1"
             d="m 50.733478,119.6344 c -0.232895,1.06168 -1.113294,1.59709 -1.437829,2.39618 -0.470878,1.3118 -0.330189,2.97451 0.583204,4.19994 0.347097,0.45172 1.096178,1.22388 1.691357,1.26085 0.868461,0.1771 1.697361,-0.11456 2.436359,-0.70497 1.218473,-1.69423 1.109469,-3.30785 0.429076,-4.99476 -0.34777,-1.02363 -0.729077,-1.2519 -1.225277,-2.06348 -0.142353,-0.6471 -0.448831,-0.88441 -1.013588,-1.03561 -0.553845,0.0567 -1.094192,0.11874 -1.463302,0.94185 z"
             id="path26317"
             sodipodi:nodetypes="ccccccccc" />
          <path
             style="fill:#ffffff;fill-opacity:1;stroke:none;stroke-width:0.249753px;stroke-linecap:butt;stroke-linejoin:miter;stroke-opacity:1"
             d="m 50.980511,120.53827 c -0.913732,0.88281 -1.548875,2.07633 -1.503569,3.27743 0.04477,1.1869 0.665829,2.33478 1.725554,3.11756 -0.554256,-0.91848 -1.11185,-1.96566 -1.160505,-3.05341 -0.0517,-1.1558 -0.193801,-1.49115 0.93852,-3.34158 z"
             id="path26319"
             sodipodi:nodetypes="cacac" />
        </g>
      </g>
    </g>
  </g>
</svg>
