<?xml version="1.0" encoding="UTF-8" standalone="no"?>
<!-- Created with Inkscape (http://www.inkscape.org/) -->

<svg
   width="210mm"
   height="297mm"
   viewBox="0 0 210 297"
   version="1.1"
   id="svg5"
   xml:space="preserve"
   inkscape:version="1.2 (dc2aedaf03, 2022-05-15)"
   sodipodi:docname="water-drop.svg"
   xmlns:inkscape="http://www.inkscape.org/namespaces/inkscape"
   xmlns:sodipodi="http://sodipodi.sourceforge.net/DTD/sodipodi-0.dtd"
   xmlns="http://www.w3.org/2000/svg"
   xmlns:svg="http://www.w3.org/2000/svg"><sodipodi:namedview
     id="namedview7"
     pagecolor="#ffffff"
     bordercolor="#666666"
     borderopacity="1.0"
     inkscape:showpageshadow="2"
     inkscape:pageopacity="0.0"
     inkscape:pagecheckerboard="0"
     inkscape:deskcolor="#d1d1d1"
     inkscape:document-units="mm"
     showgrid="false"
     inkscape:zoom="0.89263468"
     inkscape:cx="288.47188"
     inkscape:cy="285.67118"
     inkscape:window-width="1908"
     inkscape:window-height="1093"
     inkscape:window-x="2127"
     inkscape:window-y="155"
     inkscape:window-maximized="0"
     inkscape:current-layer="layer1" /><defs
     id="defs2"><inkscape:path-effect
       effect="mirror_symmetry"
       start_point="92.479041,50.092813"
       end_point="92.479041,138.12575"
       center_point="92.479041,94.109282"
       id="path-effect4009"
       is_visible="true"
       lpeversion="1.2"
       lpesatellites=""
       mode="free"
       discard_orig_path="false"
       fuse_paths="false"
       oposite_fuse="false"
       split_items="false"
       split_open="false"
       link_styles="false" /></defs><g
     inkscape:label="Layer 1"
     inkscape:groupmode="layer"
     id="layer1"><g
       id="g7152"><path
         style="fill:#0058eb;fill-opacity:1;stroke:none;stroke-width:0.264583px;stroke-linecap:butt;stroke-linejoin:miter;stroke-opacity:1"
         d="m 63.691584,111.56315 c -0.357962,13.32168 16.110253,27.40096 28.787457,26.5626 12.677209,0.83836 29.145419,-13.24092 28.787459,-26.5626 -0.68525,-25.501682 -28.787459,-61.470337 -28.787459,-61.470337 0,0 -28.102211,35.968655 -28.787457,61.470337 z"
         id="path4007"
         class="UnoptimicedTransforms"
         sodipodi:nodetypes="scscs"
         transform="matrix(0.59542279,0,0,0.59542279,2.0819995,-0.27356047)" /><path
         style="opacity:1;mix-blend-mode:normal;fill:#0199f3;fill-opacity:1;stroke:none;stroke-width:0.264583px;stroke-linecap:butt;stroke-linejoin:miter;stroke-opacity:1"
         d="m 63.691584,111.56315 c -0.357962,13.32168 16.110253,27.40096 28.787457,26.5626 12.677209,0.83836 29.145419,-13.24092 28.787459,-26.5626 -0.68525,-25.501682 -28.787459,-61.470337 -28.787459,-61.470337 0,0 -28.102211,35.968655 -28.787457,61.470337 z"
         id="path5046"
         class="UnoptimicedTransforms"
         sodipodi:nodetypes="scscs"
         transform="matrix(0.51740713,0,0,0.52524037,9.2968136,4.9597575)" /><path
         style="mix-blend-mode:normal;fill:#59d6ff;fill-opacity:1;stroke:none;stroke-width:0.264583px;stroke-linecap:butt;stroke-linejoin:miter;stroke-opacity:1"
         d="m 63.691584,111.56315 c -0.357962,13.32168 16.110253,27.40096 28.787457,26.5626 12.677209,0.83836 29.145419,-13.24092 28.787459,-26.5626 -0.68525,-25.501682 -28.787459,-61.470337 -28.787459,-61.470337 0,0 -28.102211,35.968655 -28.787457,61.470337 z"
         id="path5945"
         class="UnoptimicedTransforms"
         sodipodi:nodetypes="scscs"
         transform="matrix(0.40038362,0,0,0.42321447,20.119033,10.944091)" /><path
         style="mix-blend-mode:normal;fill:#b6eafe;fill-opacity:1;stroke:none;stroke-width:0.264583px;stroke-linecap:butt;stroke-linejoin:miter;stroke-opacity:1"
         d="m 63.691584,111.56315 c -0.357962,13.32168 16.110253,27.40096 28.787457,26.5626 12.677209,0.83836 29.145419,-13.24092 28.787459,-26.5626 -0.68525,-25.501682 -28.787459,-61.470337 -28.787459,-61.470337 0,0 -28.102211,35.968655 -28.787457,61.470337 z"
         id="path6361"
         class="UnoptimicedTransforms"
         sodipodi:nodetypes="scscs"
         transform="matrix(0.25302069,0,0,0.2531713,33.747016,20.460395)" /><path
         id="path6994"
         style="mix-blend-mode:normal;fill:#ffffff;fill-opacity:1;stroke:none;stroke-width:0.264583px;stroke-linecap:butt;stroke-linejoin:miter;stroke-opacity:1;opacity:1"
         class="UnoptimicedTransforms"
         d="m 63.800715,109.59033 c -0.05224,0.66338 -0.09151,1.3223 -0.108995,1.97283 -0.357962,13.32167 16.110241,27.4007 28.787433,26.56234 12.677197,0.83836 29.145397,-13.24067 28.787437,-26.56234 -0.0175,-0.65033 -0.0574,-1.30903 -0.10964,-1.97221 -1.46019,12.57032 -16.74684,24.99424 -28.677797,24.20523 -11.931169,0.78903 -27.218711,-11.63531 -28.678438,-24.20585 z"
         transform="matrix(0.4827335,0,0,0.4900418,12.503398,8.2728979)" /><path
         id="path7003"
         style="mix-blend-mode:normal;fill:#ffffff;fill-opacity:1;stroke:none;stroke-width:0.264583px;stroke-linecap:butt;stroke-linejoin:miter;stroke-opacity:1;opacity:1"
         class="UnoptimicedTransforms"
         d="m 120.63006,105.41677 c -3.34092,14.89531 -19.19582,29.01162 -34.100412,32.11321 2.022249,0.50292 4.02959,0.7229 5.94955,0.59594 12.677192,0.83835 29.145402,-13.2411 28.787442,-26.56277 -0.0535,-1.99232 -0.27484,-4.04844 -0.63658,-6.14638 z"
         transform="matrix(0.36879438,0,0,0.38982393,23.040374,14.087047)" /><g
         id="g7080"
         transform="matrix(0.5694869,-0.17381879,0.17381879,0.5694869,-51.771787,19.11189)"
         style="opacity:0.92105263;mix-blend-mode:normal"><ellipse
           style="fill:#ffffff;fill-opacity:1;fill-rule:evenodd;stroke-width:0.264583"
           id="path7066"
           cx="167.98761"
           cy="107.62525"
           rx="3.4582603"
           ry="4.9254007" /><ellipse
           style="fill:#ffffff;fill-opacity:1;fill-rule:evenodd;stroke-width:0.184406"
           id="ellipse7068"
           cx="167.98761"
           cy="94.840172"
           rx="2.4103026"
           ry="3.4328551" /><ellipse
           style="fill:#ffffff;fill-opacity:1;fill-rule:evenodd;stroke-width:0.120265"
           id="ellipse7070"
           cx="167.98761"
           cy="85.618149"
           rx="1.5719365"
           ry="2.2388186" /></g></g></g></svg>
