<?xml version="1.0" encoding="UTF-8" standalone="no"?>
<!-- Created with Inkscape (http://www.inkscape.org/) -->

<svg
   width="210mm"
   height="297mm"
   viewBox="0 0 210 297"
   version="1.1"
   id="svg1"
   xml:space="preserve"
   inkscape:version="1.3.2 (091e20e, 2023-11-25, custom)"
   sodipodi:docname="wifi.svg"
   xmlns:inkscape="http://www.inkscape.org/namespaces/inkscape"
   xmlns:sodipodi="http://sodipodi.sourceforge.net/DTD/sodipodi-0.dtd"
   xmlns="http://www.w3.org/2000/svg"
   xmlns:svg="http://www.w3.org/2000/svg"><sodipodi:namedview
     id="namedview1"
     pagecolor="#ffffff"
     bordercolor="#999999"
     borderopacity="1"
     inkscape:showpageshadow="2"
     inkscape:pageopacity="0"
     inkscape:pagecheckerboard="0"
     inkscape:deskcolor="#d1d1d1"
     inkscape:document-units="mm"
     inkscape:zoom="0.51717104"
     inkscape:cx="480.49868"
     inkscape:cy="486.29947"
     inkscape:window-width="1920"
     inkscape:window-height="1017"
     inkscape:window-x="-8"
     inkscape:window-y="-8"
     inkscape:window-maximized="1"
     inkscape:current-layer="layer1" /><defs
     id="defs1" /><g
     inkscape:label="Layer 1"
     inkscape:groupmode="layer"
     id="layer1"><rect
       style="fill:#000000;fill-opacity:1;stroke:none;stroke-width:2.079;stroke-linecap:round;stroke-linejoin:round;stroke-dasharray:none;stroke-opacity:1"
       id="rect3"
       width="191.33742"
       height="128.92253"
       x="3.0695841"
       y="2.0463893" /><path
       id="path1"
       style="fill:#ffffff;fill-opacity:1"
       d="m 90.110228,22.922558 c -5.07424,-0.06606 -11.85975,0.166278 -14.72313,0.576709 -9.634291,1.380962 -17.525762,3.756836 -25.267708,7.607805 -26.535875,13.19937 -34.776166,38.290263 -19.176607,58.390753 2.194595,2.8278 6.552071,7.08337 9.462471,9.24129 10.753644,7.973355 24.878237,12.891475 40.405804,14.068915 9.47034,0.71812 21.814102,-0.61036 30.703552,-3.30419 12.11006,-3.66977 20.31299,-8.37693 27.97245,-16.051735 2.1491,-2.15341 4.01817,-3.91552 4.15324,-3.91552 0.0442,0 0.18333,0.15908 0.30127,0.28267 0.21347,0.27178 0.42289,0.53954 0.64544,0.81338 0.0954,0.13365 0.17832,0.22938 0.27544,0.37569 l 0.0139,-0.02429 c 1.14567,1.38009 2.4262,2.73799 3.96927,3.80649 3.37335,2.33588 8.57614,4.09431 14.03325,4.97644 a 1.0395,1.0395 0 0 0 1.19114,-0.86145 1.0395,1.0395 0 0 0 -0.85938,-1.19114 c -5.22482,-0.84459 -10.24329,-2.59813 -13.18162,-4.63279 -1.69466,-1.17346 -3.14729,-2.88398 -4.51756,-4.62298 l -0.12919,-0.24287 0.57258,-0.5731 c 0.54566,-0.54566 0.60224,-0.55168 1.18442,-0.12557 4.1458,3.03439 6.30184,3.79681 6.29884,2.22674 -9.1e-4,-0.48405 -0.39589,-0.80675 -1.99419,-1.62729 -3.63263,-1.86492 -6.16289,-4.92161 -9.01186,-10.88874 -1.16289,-2.43566 -1.88822,-3.63372 -2.40657,-3.97496 -0.40805,-0.26862 -2.38289,-1.35142 -4.38888,-2.40657 -4.72314,-2.48437 -7.09148,-4.06278 -9.05888,-6.03684 -1.84578,-1.85204 -3.3587,-4.51754 -3.3972,-5.98465 -0.0307,-1.17149 0.89071,-2.36109 1.82882,-2.36109 1.82631,0 9.3486,3.76808 25.17056,12.60801 0.60865,0.34006 1.28436,0.55036 1.5012,0.46716 0.46978,-0.18027 0.7336,-0.77234 0.55346,-1.24179 -0.0713,-0.1857 -2.59764,-1.69385 -5.61413,-3.35121 -7.91318,-4.34776 -7.17596,-3.82135 -7.01714,-5.00538 0.11497,-0.8572 0.0108,-1.15255 -0.6873,-1.94769 -0.4526,-0.51548 -0.82269,-1.02821 -0.82269,-1.13946 0,-0.32496 8.68209,0.0886 10.76213,0.51263 2.4699,0.5035 3.19422,0.90149 4.71755,2.59261 2.69483,2.99166 10.7859,15.10428 17.19481,25.74158 1.57816,2.61937 3.05073,4.97633 3.27267,5.2374 0.53376,0.62785 1.46812,0.48014 1.572,-0.24856 0.15992,-1.12179 -12.81296,-21.68257 -18.341,-29.06851 -2.92699,-3.91071 -4.12544,-4.98054 -6.34742,-5.66684 -0.97564,-0.30134 -1.91624,-0.54828 -2.08979,-0.54828 -0.17354,0 -0.9361,-1.2204 -1.69499,-2.71198 -3.4845,-6.84877 -8.93382,-12.667879 -16.5778,-17.70435 -10.0272,-6.606731 -22.64717,-10.75917 -36.155932,-11.896431 -1.10249,-0.09282 -2.60393,-0.147995 -4.29535,-0.170016 z m -3.08146,2.744019 c 7.48709,0.0106 10.97596,0.328939 17.069242,1.558561 3.67714,0.742044 8.85804,2.207377 11.90263,3.36672 3.21472,1.224121 9.25372,4.176084 11.77396,5.755204 7.30771,4.578838 13.74915,11.184153 16.82326,17.250623 l 0.64803,1.27848 h -4.70256 -4.70256 l -6.85901,-6.86212 c -3.77222,-3.774308 -7.12622,-6.92975 -7.45381,-7.01197 -0.32759,-0.08222 -0.93175,-0.0245 -1.34203,0.128157 -1.08177,0.402493 -13.77866,13.148233 -14.11594,14.170193 -0.18862,0.57138 -0.18471,1.05116 0.0129,1.57097 0.43953,1.15603 17.05893,17.53429 18.0542,17.79219 0.62128,0.16099 0.89353,0.44244 1.15238,1.19011 0.34948,1.00944 3.55002,5.48779 4.56096,6.38204 0.42044,0.37191 0.56999,0.80858 0.56999,1.66656 0,2.71243 1.60369,4.13925 6.35,5.64875 l 2.24896,0.71521 -2.24276,2.17661 c -9.8526,9.563125 -25.11243,15.932925 -41.810362,17.452685 -3.53213,0.32152 -13.07603,0.31019 -16.53646,-0.0196 -3.615892,-0.34464 -8.609851,-1.23593 -12.435418,-2.21898 -21.65232,-5.56398 -36.732153,-18.652625 -39.711788,-34.468705 -0.589403,-3.1286 -0.386686,-9.60339 0.393258,-12.55996 4.019576,-15.23712 19.13319,-27.562881 40.11228,-32.71273 7.064281,-1.734106 11.807448,-2.260898 20.240628,-2.248958 z m 5.95777,12.801286 c -1.07138,0.05538 -2.1393,0.683689 -2.63808,1.734777 -0.56462,1.189842 -0.42052,1.846102 0.89762,4.09019 2.75533,4.690865 4.75044,9.811095 5.87613,15.081255 0.79877,3.73962 0.87588,12.5701 0.14211,16.27239 -1.11582,5.62986 -2.74504,10.05228 -5.40897,14.68386 -1.90179,3.3065 -2.14453,4.36825 -1.29502,5.66477 0.26233,0.40038 0.85476,0.89388 1.31672,1.09657 0.90475,0.39696 2.07483,0.27504 2.96623,-0.30903 1.27738,-0.83696 4.96662,-8.04956 6.568072,-12.84004 1.9174,-5.73559 2.68831,-11.23582 2.47685,-17.67231 -0.18272,-5.56132 -0.98903,-10.16176 -2.61482,-14.9164 -1.568782,-4.58786 -5.045252,-11.208223 -6.476612,-12.334128 -0.52352,-0.411798 -1.1674,-0.585131 -1.81023,-0.551904 z m 27.903212,4.50205 c 0.51282,0 17.11465,16.581482 16.8584,16.837732 -0.10416,0.10416 -1.76616,-0.59925 -3.6928,-1.56321 -6.8977,-3.45116 -8.64457,-4.09011 -9.89293,-3.61942 -1.14527,0.43183 -2.45192,1.83481 -2.75436,2.95796 -0.69835,2.59347 1.47991,6.75781 5.09013,9.73222 0.92037,0.75828 1.79058,1.48905 1.93425,1.62368 0.16684,0.15632 -0.43684,0.91067 -1.6707,2.08721 -1.06258,1.01321 -2.01718,1.84175 -2.12183,1.84175 -0.1996,0 -16.05847,-15.65904 -16.69201,-16.48169 -0.33254,-0.43181 0.21633,-1.0583 6.08542,-6.94531 3.54805,-3.55888 6.63334,-6.470922 6.85643,-6.470922 z m -39.062732,1.058334 c -1.59137,0 -3.21816,1.901638 -2.91249,3.404448 0.07797,0.38333 0.73186,1.67643 1.45314,2.87372 1.72612,2.8652 3.09609,6.17777 3.96824,9.59683 0.65927,2.58463 0.70731,3.15591 0.69091,8.20209 -0.01641,5.06058 -0.06619,5.60121 -0.74207,8.06979 -0.90149,3.29265 -2.24647,6.47116 -3.97444,9.39271 -1.50678,2.54757 -1.69608,3.7304 -0.79168,4.95008 0.30136,0.40642 0.94945,0.87222 1.43971,1.03508 1.94777,0.64705 3.23076,-0.33215 5.27771,-4.02714 5.5557,-10.02868 6.65712,-21.83438 3.03702,-32.54996 -0.88425,-2.61742 -3.28701,-7.50377 -4.51031,-9.17205 -0.94855,-1.293552 -1.74537,-1.775598 -2.93574,-1.775598 z m -10.852053,5.602758 c -1.205631,-0.06314 -2.340526,0.67336 -2.904733,2.0066 -0.466141,1.1015 -0.259886,1.90226 0.98857,3.83387 2.439808,3.77486 3.518292,7.62797 3.499012,12.50156 -0.01964,4.96226 -0.813884,7.57882 -4.052466,13.34958 -0.624961,1.11355 -0.769874,1.62688 -0.634587,2.24895 0.220185,1.01247 0.725741,1.74814 1.494483,2.17507 0.830678,0.46132 2.350162,0.43082 3.053043,-0.0615 0.829656,-0.58112 2.610827,-3.28051 3.652491,-5.53506 3.4819,-7.5361 3.58102,-16.22606 0.27233,-23.89725 -1.291139,-2.99353 -3.109932,-5.74324 -4.157365,-6.28489 -0.398937,-0.2063 -0.808902,-0.31588 -1.210778,-0.33693 z m -10.981242,5.66012 c -0.458345,-0.05049 -0.928611,0.0294 -1.418518,0.23409 -1.01938,0.42593 -1.97099,1.78575 -1.97249,2.81792 -5.44e-4,0.37861 0.531314,1.49906 1.182357,2.49029 1.718762,2.61686 2.12571,3.98977 2.1146,7.13961 -0.01066,3.02202 -0.523773,4.68355 -2.184363,7.07347 -1.221704,1.75828 -1.330402,3.22408 -0.319877,4.31137 0.363801,0.39144 0.899583,0.81031 1.190625,0.93069 1.578937,0.65309 2.925236,-0.0082 4.380611,-2.15129 3.838735,-5.65278 4.230456,-12.60588 1.053682,-18.71204 -1.382157,-2.65668 -2.651593,-3.98264 -4.026627,-4.13411 z m 70.342997,14.89263 4.43435,2.33113 c 3.89245,2.04639 4.49504,2.45144 4.93614,3.31607 0.63539,1.24549 0.64601,1.18254 -0.27802,1.66037 -1.02143,0.52822 -3.60788,0.51092 -4.70824,-0.03153 -0.4722,-0.23278 -2.00198,-1.61479 -3.3998,-3.07113 l -2.54144,-2.6479 0.77876,-0.77876 z m -2.98845,3.11402 c 0.27739,-0.01425 0.64387,0.33086 1.53789,1.3286 3.61934,4.03929 5.42083,5.20719 8.04705,5.21519 0.92965,0.003 2.14636,-0.19708 2.86029,-0.46974 0.68337,-0.26098 1.2742,-0.43214 1.3131,-0.38034 0.0389,0.05179 0.49775,0.88336 1.01958,1.84795 l 0.94878,1.7539 -0.66043,0.30076 c -0.36316,0.16546 -1.45421,0.41566 -2.42465,0.55603 v 5.2e-4 c -2.09435,0.30269 -4.13247,0.30365 -5.13406,0.0021 -1.92157,-0.57859 -4.22582,-2.7712 -6.58254,-6.2637 -1.48084,-2.19451 -1.8133,-3.24975 -1.18856,-3.76825 0.0889,-0.07376 0.17109,-0.11824 0.26355,-0.12299 z m 16.84342,10.90476 0.49196,0.60772 c 0.27082,0.33445 0.43923,0.74721 0.37413,0.91674 -0.1861,0.48496 -2.11434,1.94821 -3.12229,2.36936 -1.30499,0.54526 -1.90181,0.48897 -4.90047,-0.46095 -2.18022,-0.69065 -4.02281,-1.66931 -4.45968,-2.36885 -0.4813,-0.77069 -0.22581,-0.87107 0.79685,-0.31316 0.73474,0.40083 1.46705,0.47864 4.32429,0.46044 2.90266,-0.01848 3.67787,-0.11453 4.96713,-0.6165 z" /></g></svg>
