<?xml version="1.0" encoding="UTF-8" standalone="no"?>
<!-- Created with Inkscape (http://www.inkscape.org/) -->

<svg
   width="210mm"
   height="297mm"
   viewBox="0 0 210 297"
   version="1.1"
   id="svg5"
   inkscape:version="1.2 (dc2aedaf03, 2022-05-15)"
   sodipodi:docname="yin-yang.svg"
   xml:space="preserve"
   xmlns:inkscape="http://www.inkscape.org/namespaces/inkscape"
   xmlns:sodipodi="http://sodipodi.sourceforge.net/DTD/sodipodi-0.dtd"
   xmlns="http://www.w3.org/2000/svg"
   xmlns:svg="http://www.w3.org/2000/svg"><sodipodi:namedview
     id="namedview7"
     pagecolor="#ffffff"
     bordercolor="#666666"
     borderopacity="1.0"
     inkscape:showpageshadow="2"
     inkscape:pageopacity="0.0"
     inkscape:pagecheckerboard="0"
     inkscape:deskcolor="#d1d1d1"
     inkscape:document-units="mm"
     showgrid="false"
     inkscape:zoom="0.5946522"
     inkscape:cx="204.32111"
     inkscape:cy="501.97409"
     inkscape:window-width="1920"
     inkscape:window-height="1058"
     inkscape:window-x="-8"
     inkscape:window-y="-8"
     inkscape:window-maximized="1"
     inkscape:current-layer="layer1" /><defs
     id="defs2"><filter
       inkscape:collect="always"
       style="color-interpolation-filters:sRGB"
       id="filter1174"
       x="-0.03072754"
       y="-0.030730507"
       width="1.0614551"
       height="1.0614582"><feGaussianBlur
         inkscape:collect="always"
         stdDeviation="1.0687114"
         id="feGaussianBlur1176" /></filter></defs><g
     inkscape:label="Layer 1"
     inkscape:groupmode="layer"
     id="layer1"><g
       id="g1183"
       transform="matrix(0.6309929,0,0,0.6309929,18.316848,10.071258)"><path
         id="circle920"
         style="opacity:1;mix-blend-mode:normal;fill:#000000;fill-opacity:1;stroke:#000000;stroke-width:1.572;stroke-dasharray:none;paint-order:stroke fill markers;filter:url(#filter1174)"
         d="m 103.96289,30.75 c -3.24752,0.257891 -6.483034,0.715156 -9.641404,1.526162 -2.84861,0.699788 -5.638566,1.648114 -8.334113,2.8037 -2.98838,1.273932 -5.840773,2.842579 -8.562479,4.613104 -2.850901,1.916405 -5.546407,4.064913 -8.002638,6.468924 -2.116751,2.078618 -4.087388,4.316324 -5.830518,6.718599 -2.047251,2.758775 -3.812451,5.725005 -5.292839,8.823478 -1.407542,2.927148 -2.514636,5.987756 -3.394848,9.11234 -0.881699,3.320669 -1.490225,6.714549 -1.752302,10.142039 -0.268962,3.490766 -0.206178,7.008244 0.202175,10.486521 0.329184,2.882009 0.896707,5.740193 1.685072,8.531674 0.872355,3.128769 2.052855,6.162079 3.452299,9.091599 1.527973,3.07746 3.30814,6.02988 5.371609,8.77943 2.081537,2.77313 4.418194,5.35797 6.993907,7.68153 2.164472,1.98065 4.505536,3.77178 6.964045,5.37204 2.717849,1.77803 5.606533,3.27742 8.589396,4.55822 3.177982,1.30499 6.462118,2.3538 9.826044,3.06073 3.39473,0.70779 6.855844,1.11704 10.325214,1.16432 2.93341,0.0628 5.87462,-0.13249 8.77762,-0.55403 3.18243,-0.45161 6.31235,-1.21329 9.36731,-2.20871 3.28713,-1.10806 6.47676,-2.50547 9.50158,-4.20659 3.02075,-1.70316 5.88973,-3.68241 8.53041,-5.93275 2.22256,-1.86246 4.27627,-3.92811 6.16952,-6.12311 2.11525,-2.46488 3.99312,-5.12371 5.6513,-7.91555 1.73879,-3.0017 3.21885,-6.15443 4.36967,-9.4288 1.14808,-3.2719 2.00363,-6.650078 2.50143,-10.08343 0.5381,-3.526833 0.71016,-7.110831 0.55854,-10.675272 -0.59014,-13.068319 -6.09622,-25.839962 -15.20933,-35.228513 -9.20943,-9.62337 -22.06265,-15.639162 -35.35061,-16.5506 -2.4857,-0.214758 -4.9771,-0.128099 -7.46606,-0.02706 z" /><circle
         style="opacity:1;fill:#ffffff;stroke:#000000;stroke-width:1.572;stroke-dasharray:none;paint-order:stroke fill markers"
         id="path918"
         cx="107.51204"
         cy="85.174095"
         r="54.011333" /><path
         id="circle1098"
         style="opacity:1;fill:#000000;fill-opacity:1;stroke:none;stroke-width:1.572;stroke-dasharray:none;stroke-opacity:1;paint-order:stroke fill markers"
         d="m 107.6973,30.645158 c -1.24468,0.0075 -2.49017,0.05438 -3.73465,0.104903 -3.24752,0.257891 -6.482909,0.715 -9.641275,1.526005 -0.706962,0.173672 -1.410242,0.363234 -2.109432,0.566891 3.399638,-0.757764 16.944547,-3.29034 27.500647,1.737878 7.95297,3.788263 18.579,16.577658 13.69374,30.613635 -3.51122,10.088159 -8.29193,15.550217 -17.15451,18.317745 -8.95081,2.795077 -18.866463,-0.09166 -27.797788,9.902755 -17.514552,21.41932 0.196718,42.36207 17.384988,44.97142 9.49366,1.87347 23.46937,-3.25769 23.46937,-3.25769 l 7.44399,-3.94084 c 2.09282,-1.32966 4.0987,-2.79693 5.98619,-4.40542 2.22256,-1.86246 4.27589,-3.92814 6.16914,-6.12314 2.11524,-2.46488 3.99315,-5.12396 5.65133,-7.91579 1.73879,-3.0017 3.21894,-6.15452 4.36976,-9.42889 1.14808,-3.27189 2.00386,-6.649753 2.50166,-10.083101 0.5381,-3.52683 0.71024,-7.11088 0.55862,-10.675318 C 161.39894,69.487895 155.89277,56.716402 146.77967,47.327861 137.57025,37.7045 124.7168,31.68837 111.42886,30.776933 c -1.24285,-0.107379 -2.48688,-0.139225 -3.73156,-0.131775 z" /><ellipse
         style="opacity:1;fill:#ffffff;fill-opacity:1;stroke:none;stroke-width:1.56905;stroke-dasharray:none;stroke-opacity:1;paint-order:stroke fill markers"
         id="path1156"
         cx="107.48872"
         cy="111.56042"
         rx="7.1552072"
         ry="7.3337035" /><ellipse
         style="opacity:1;fill:#000000;fill-opacity:1;stroke:none;stroke-width:1.56905;stroke-dasharray:none;stroke-opacity:1;paint-order:stroke fill markers"
         id="ellipse1158"
         cx="107.48872"
         cy="58.056629"
         rx="7.1552072"
         ry="7.3337035" /></g></g></svg>
